<svg width="12" height="10" viewBox="0 0 12 10" fill="none" xmlns="http://www.w3.org/2000/svg">
<path d="M8.18262 0C8.47139 0 8.70605 0.196411 8.70605 0.438477V2.95996H11.4775C11.7661 2.96015 12 3.15649 12 3.39844V9.46875H8.4707V9.4668H0V2.57715C7.61195e-05 2.33525 0.233922 2.13886 0.522461 2.13867H4V0.438477C4 0.196531 4.23388 0.000194403 4.52246 0H8.18262ZM9.92969 5.58105C9.22912 5.58105 8.7817 5.89489 8.77148 6.36914H9.4541C9.46635 6.1689 9.62722 6.05087 9.89258 6.05078C10.1458 6.05078 10.2988 6.17401 10.2988 6.3418C10.2987 6.51971 10.1377 6.6416 9.88867 6.6416H9.51074V7.06543H9.88867C10.1766 7.06543 10.3524 7.18382 10.3525 7.37891C10.3525 7.56553 10.1663 7.69043 9.89258 7.69043C9.609 7.69035 9.42544 7.5726 9.41504 7.38281H8.7002C8.72695 7.86886 9.20291 8.18555 9.90332 8.18555C10.6117 8.18548 11.1139 7.88087 11.1143 7.43945C11.1143 7.11415 10.8692 6.89242 10.4443 6.84277V6.81055C10.7669 6.74722 10.9959 6.55059 10.9961 6.25293C10.9981 5.88484 10.62 5.58107 9.92969 5.58105ZM2.10547 4.39746C1.41727 4.39753 0.945312 4.74059 0.945312 5.24219H1.63184C1.63184 5.0283 1.793 4.87225 2.06641 4.87207C2.32376 4.87207 2.4668 5.01434 2.4668 5.18555C2.46679 5.33106 2.40553 5.43677 2.04199 5.71582L0.988281 6.51562V6.93555H3.22949V6.44531H1.98926V6.41309L2.56934 5.97266C3.03887 5.61669 3.19429 5.42351 3.19434 5.13086C3.19434 4.70797 2.78766 4.39746 2.10547 4.39746ZM6.04492 0.820312L5.2959 1.24805V1.78906L6.00684 1.38672H6.04492V3.29102H6.79492V0.820312H6.04492Z" fill="#FFC700"/>
</svg>
