<svg width="16" height="12" viewBox="0 0 16 12" fill="none" xmlns="http://www.w3.org/2000/svg">
<path d="M7.95474 3.63646V0.601739L0.612174 5.71211L7.95474 10.8237V7.81596C10.8934 7.81716 13.618 7.96291 15.9215 12.0002C15.9216 9.43556 15.491 3.7082 7.95474 3.63646Z" fill="#98C4D8"/>
<path d="M7.34256 3.03474V0L0 5.11037L7.34256 10.2219V7.21422C10.2812 7.21542 13.0058 7.36117 15.3094 11.3984C15.3094 8.83382 14.8788 3.10646 7.34256 3.03474Z" fill="#EFD9A0"/>
<path d="M4.01541 3.8907C4.05636 3.94932 4.12188 3.99051 4.20822 4.01193C4.29456 4.03334 4.40003 4.03456 4.51861 4.01552C4.63719 3.99648 4.76655 3.95754 4.89932 3.90094C5.03208 3.84433 5.16565 3.77117 5.29238 3.68562C5.41912 3.60008 5.53654 3.50382 5.63795 3.40236C5.73936 3.3009 5.82276 3.19621 5.8834 3.09428C5.94405 2.99235 5.98073 2.89517 5.99138 2.80829C6.00202 2.72141 5.9864 2.64654 5.94542 2.58794C5.90447 2.52932 5.83895 2.48813 5.75261 2.46671C5.66627 2.4453 5.5608 2.44407 5.44222 2.46312C5.32364 2.48216 5.19428 2.5211 5.06151 2.5777C4.92875 2.63431 4.79518 2.70747 4.66845 2.79302C4.54171 2.87856 4.42429 2.97482 4.32288 3.07628C4.22147 3.17774 4.13807 3.28243 4.07742 3.38436C4.01678 3.48629 3.98009 3.58347 3.96945 3.67035C3.95881 3.75723 3.97443 3.8321 4.01541 3.8907Z" fill="#FEFEFE"/>
<path d="M2.83241 5.78382C2.85971 5.82289 2.90046 5.85233 2.95231 5.87046C3.00417 5.88858 3.06612 5.89504 3.13463 5.88946C3.20314 5.88388 3.27686 5.86637 3.35159 5.83793C3.42633 5.8095 3.5006 5.77069 3.57018 5.72372C3.63976 5.67676 3.70327 5.62256 3.7571 5.56422C3.81093 5.50587 3.85402 5.44453 3.8839 5.3837C3.91379 5.32286 3.92988 5.26372 3.93128 5.20965C3.93267 5.15559 3.91933 5.10765 3.89201 5.06858C3.86471 5.02951 3.82396 5.00007 3.77211 4.98194C3.72025 4.96382 3.6583 4.95736 3.58979 4.96294C3.52128 4.96852 3.44756 4.98603 3.37282 5.01447C3.29809 5.0429 3.22382 5.08171 3.15424 5.12868C3.08466 5.17564 3.02115 5.22984 2.96732 5.28818C2.91349 5.34652 2.8704 5.40786 2.84052 5.4687C2.81063 5.52953 2.79453 5.58868 2.79314 5.64274C2.79175 5.69681 2.80509 5.74475 2.83241 5.78382Z" fill="#FEFEFE"/>
</svg>
