<svg width="12" height="12" viewBox="0 0 12 12" fill="none" xmlns="http://www.w3.org/2000/svg">
<path d="M3.15512 1.78695H9.40553V0.814979C9.40356 0.598157 9.31605 0.390885 9.16202 0.238264C9.008 0.0856425 8.79994 2.53459e-05 8.58311 3.43061e-05H0.822425C0.714777 -0.000953331 0.608 0.0193928 0.508262 0.0599054C0.408523 0.100418 0.317798 0.1603 0.241329 0.236073C0.164861 0.311847 0.104165 0.402021 0.0627431 0.501386C0.0213214 0.60075 -4.52982e-06 0.707326 7.21709e-10 0.814979V8.37381C-4.52982e-06 8.48146 0.0213214 8.58804 0.0627431 8.6874C0.104165 8.78677 0.164861 8.87694 0.241329 8.95272C0.317798 9.02849 0.408523 9.08837 0.508262 9.12889C0.608 9.1694 0.714777 9.18974 0.822425 9.18876H1.57008V3.41684C1.5718 2.99279 1.73797 2.58596 2.0336 2.28196C2.32924 1.97795 2.73128 1.8005 3.15512 1.78695Z" fill="#4B555C"/>
<path d="M11.9995 3.4167V11.125C11.9995 11.2399 11.9769 11.3537 11.9329 11.4598C11.8889 11.5659 11.8245 11.6624 11.7433 11.7436C11.662 11.8248 11.5656 11.8893 11.4595 11.9332C11.3534 11.9772 11.2396 11.9998 11.1247 11.9998H3.1547C2.922 11.9998 2.69873 11.9079 2.53349 11.7441C2.36825 11.5802 2.27443 11.3577 2.27246 11.125V3.4167C2.27246 3.18272 2.36541 2.95832 2.53086 2.79287C2.69631 2.62742 2.92071 2.53447 3.1547 2.53447H11.1023C11.2197 2.53145 11.3365 2.5521 11.4457 2.59518C11.5549 2.63826 11.6544 2.70287 11.7381 2.7852C11.8218 2.86753 11.8881 2.96589 11.933 3.07438C11.9779 3.18287 12.0005 3.29928 11.9995 3.4167Z" fill="#4B555C"/>
</svg>
