<svg width="32" height="32" viewBox="0 0 32 32" fill="none" xmlns="http://www.w3.org/2000/svg">
<rect x="0.673684" y="0.673684" width="30.6526" height="30.6526" rx="15.3263" fill="#039BE6" stroke="#039BE6" stroke-width="1.34737"/>
<g clip-path="url(#clip0_0_60462)">
<path d="M14.3033 15.1566L12.1817 17.277C12.0702 17.3884 11.9818 17.5208 11.9215 17.6664C11.8611 17.812 11.8301 17.9681 11.8301 18.1257C11.8301 18.2833 11.8611 18.4394 11.9215 18.585C11.9818 18.7307 12.0702 18.863 12.1817 18.9744L13.0301 19.8228C13.1416 19.9343 13.2739 20.0227 13.4195 20.0831C13.5651 20.1434 13.7212 20.1745 13.8788 20.1745C14.0365 20.1745 14.1925 20.1434 14.3382 20.0831C14.4838 20.0227 14.6161 19.9343 14.7275 19.8228L16.8485 17.7012C17.0714 17.9241 17.2482 18.1887 17.3688 18.4798C17.4894 18.771 17.5515 19.0831 17.5515 19.3983C17.5515 19.7135 17.4894 20.0256 17.3688 20.3168C17.2482 20.608 17.0714 20.8725 16.8485 21.0954L13.8785 24.0654C13.541 24.4029 13.0832 24.5924 12.6059 24.5924C12.1286 24.5924 11.6709 24.4029 11.3333 24.0654L7.93913 20.6712C7.60168 20.3337 7.41211 19.8759 7.41211 19.3986C7.41211 18.9213 7.60168 18.4636 7.93913 18.126L10.9091 15.156C11.132 14.9331 11.3966 14.7563 11.6878 14.6357C11.9789 14.5151 12.291 14.453 12.6062 14.453C12.9214 14.453 13.2335 14.5151 13.5247 14.6357C13.8159 14.7563 14.0805 14.9331 14.3033 15.156V15.1566ZM17.6969 16.8534L19.8185 14.7324C19.93 14.621 20.0184 14.4887 20.0788 14.343C20.1391 14.1974 20.1702 14.0413 20.1702 13.8837C20.1702 13.7261 20.1391 13.57 20.0788 13.4244C20.0184 13.2788 19.93 13.1464 19.8185 13.035L18.9701 12.1866C18.8587 12.0751 18.7264 11.9867 18.5808 11.9264C18.4351 11.866 18.2791 11.835 18.1214 11.835C17.9638 11.835 17.8077 11.866 17.6621 11.9264C17.5165 11.9867 17.3842 12.0751 17.2727 12.1866L15.1517 14.3082C14.9289 14.0853 14.7521 13.8208 14.6314 13.5296C14.5108 13.2384 14.4487 12.9263 14.4487 12.6111C14.4487 12.2959 14.5108 11.9838 14.6314 11.6926C14.7521 11.4014 14.9289 11.1369 15.1517 10.914L18.1217 7.94401C18.4593 7.60656 18.917 7.41699 19.3943 7.41699C19.8716 7.41699 20.3294 7.60656 20.6669 7.94401L24.0611 11.3382C24.3986 11.6758 24.5881 12.1335 24.5881 12.6108C24.5881 13.0881 24.3986 13.5459 24.0611 13.8834L21.0911 16.8534C20.8683 17.0763 20.6037 17.2531 20.3125 17.3737C20.0213 17.4943 19.7092 17.5564 19.394 17.5564C19.0788 17.5564 18.7667 17.4943 18.4756 17.3737C18.1844 17.2531 17.9198 17.0763 17.6969 16.8534ZM13.4549 17.7018L17.6969 13.4598C17.8094 13.3472 17.9621 13.2839 18.1212 13.2839C18.2804 13.2838 18.433 13.347 18.5456 13.4595C18.6582 13.572 18.7215 13.7246 18.7215 13.8838C18.7216 14.043 18.6584 14.1956 18.5459 14.3082L14.3033 18.5502C14.1908 18.6628 14.0382 18.7261 13.879 18.7261C13.7199 18.7262 13.5672 18.663 13.4546 18.5505C13.342 18.438 13.2788 18.2854 13.2787 18.1262C13.2786 17.9671 13.3418 17.8144 13.4543 17.7018H13.4549Z" fill="white"/>
</g>
<defs>
<clipPath id="clip0_0_60462">
<rect width="18" height="18" fill="white" transform="translate(7 7)"/>
</clipPath>
</defs>
</svg>
