<svg width="20" height="20" viewBox="0 0 20 20" fill="none" xmlns="http://www.w3.org/2000/svg">
<path d="M14.9888 1.04102C15.3838 1.04102 15.6688 1.04102 15.9176 1.08852C17.0176 1.29602 17.8738 2.16227 18.0801 3.26352C18.1263 3.51352 18.1263 3.79852 18.1251 4.19727V4.37977C18.1276 4.66226 18.1301 4.94602 18.0938 5.22602C18.0272 5.76182 17.8525 6.27851 17.5803 6.74477C17.308 7.21104 16.9439 7.61716 16.5101 7.93851C16.3088 8.08601 16.0801 8.21351 15.7251 8.41351L13.5163 9.64851C12.7476 10.0785 12.1326 10.4235 11.6013 10.656C11.429 10.733 11.2529 10.8014 11.0738 10.861C11.1238 10.9373 11.1701 11.0173 11.2088 11.0985L11.8663 12.4235C11.8901 12.451 11.9213 12.471 11.9538 12.4873L13.1413 12.6873C13.6338 12.7698 14.1501 13.0298 14.3238 13.5748C14.4963 14.1173 14.2276 14.6298 13.8738 14.9848L12.9513 15.9148C12.9301 15.9513 12.9185 15.9926 12.9176 16.0348L13.1826 17.186C13.2988 17.696 13.3013 18.3698 12.7838 18.751C12.2638 19.1323 11.6213 18.9235 11.1713 18.656L10.0588 17.991C10.0198 17.9811 9.97887 17.9816 9.94007 17.9923L8.82757 18.6548C8.37756 18.9248 7.73757 19.1298 7.21757 18.7485C6.70257 18.3685 6.70131 17.6985 6.81881 17.186L7.08256 16.0348C7.08382 15.9973 7.07007 15.9473 7.05007 15.9148L6.12507 14.9835C5.77507 14.6285 5.50632 14.1185 5.67882 13.5748C5.85132 13.0298 6.36631 12.7698 6.86006 12.6873L8.04382 12.4873C8.07713 12.4718 8.10692 12.4497 8.13132 12.4223L8.78882 11.096C8.82882 11.016 8.87382 10.936 8.92507 10.8598C8.74683 10.8005 8.57162 10.7325 8.40006 10.656C7.86881 10.4235 7.25257 10.0785 6.48507 9.64851L4.27506 8.41226C4.00393 8.27013 3.74177 8.1115 3.49006 7.93726C3.05596 7.61603 2.69163 7.20996 2.41917 6.74369C2.14671 6.27742 1.97181 5.76066 1.90506 5.22476C1.87506 4.97851 1.87506 4.71601 1.87506 4.30602V4.12227C1.86299 3.83561 1.87848 3.54846 1.92131 3.26477C2.02069 2.72657 2.28033 2.23095 2.66621 1.84284C3.05208 1.45473 3.5462 1.19224 4.08381 1.08977C4.33381 1.04227 4.61632 1.04227 5.01257 1.04227H14.9888V1.04102ZM6.66632 3.54102C6.50056 3.54102 6.34158 3.60686 6.22437 3.72407C6.10716 3.84128 6.04132 4.00025 6.04132 4.16602V4.99976C6.04132 5.16553 6.10716 5.3245 6.22437 5.44171C6.34158 5.55892 6.50056 5.62476 6.66632 5.62476C6.83208 5.62476 6.99105 5.55892 7.10826 5.44171C7.22547 5.3245 7.29132 5.16553 7.29132 4.99976V4.16602C7.29132 4.00025 7.22547 3.84128 7.10826 3.72407C6.99105 3.60686 6.83208 3.54102 6.66632 3.54102ZM10.0001 3.54102C9.83431 3.54102 9.67533 3.60686 9.55812 3.72407C9.44091 3.84128 9.37507 4.00025 9.37507 4.16602V6.66601C9.37507 6.83177 9.44091 6.99075 9.55812 7.10796C9.67533 7.22517 9.83431 7.29101 10.0001 7.29101C10.1658 7.29101 10.3248 7.22517 10.442 7.10796C10.5592 6.99075 10.6251 6.83177 10.6251 6.66601V4.16602C10.6251 4.00025 10.5592 3.84128 10.442 3.72407C10.3248 3.60686 10.1658 3.54102 10.0001 3.54102ZM13.3338 3.54102C13.1681 3.54102 13.0091 3.60686 12.8919 3.72407C12.7747 3.84128 12.7088 4.00025 12.7088 4.16602V4.99976C12.7088 5.16553 12.7747 5.3245 12.8919 5.44171C13.0091 5.55892 13.1681 5.62476 13.3338 5.62476C13.4996 5.62476 13.6585 5.55892 13.7758 5.44171C13.893 5.3245 13.9588 5.16553 13.9588 4.99976V4.16602C13.9588 4.00025 13.893 3.84128 13.7758 3.72407C13.6585 3.60686 13.4996 3.54102 13.3338 3.54102Z" fill="#808994"/>
</svg>
