<svg width="20" height="20" viewBox="0 0 20 20" fill="none" xmlns="http://www.w3.org/2000/svg">
<path d="M6.00276 14.184C7.14644 15.0989 8.56412 15.597 10.0249 15.597C11.4856 15.597 12.9033 15.0989 14.0469 14.184L14.5356 13.755C15.1888 13.1161 15.701 12.3459 16.0392 11.4945C16.3773 10.6432 16.5338 9.72971 16.4983 8.81349C16.4629 7.89727 16.2363 6.9988 15.8334 6.17651C15.4305 5.35423 14.8602 4.62651 14.1597 4.04067C13.2113 3.24883 12.0583 2.74574 10.8359 2.59041C9.61357 2.43507 8.37257 2.63395 7.25851 3.16369C6.14444 3.69343 5.20353 4.53208 4.54612 5.58125C3.88871 6.63041 3.54206 7.84657 3.54688 9.08708C3.54581 9.95841 3.71952 10.821 4.05755 11.6231C4.39558 12.4252 4.89099 13.1504 5.51408 13.755C5.66539 13.9109 5.82881 14.0543 6.00276 14.184Z" fill="#808994"/>
<path d="M18.4951 6.5386C17.9941 4.66239 16.8927 3.00484 15.3614 1.82276C13.8301 0.640671 11.9544 0 10.0248 0C8.09528 0 6.21957 0.640671 4.68827 1.82276C3.15697 3.00484 2.05554 4.66239 1.55461 6.5386C1.09781 6.69117 0.701077 6.9861 0.421765 7.38073C0.142452 7.77537 -0.00494836 8.24922 0.000914686 8.73378C-0.00743038 9.0254 0.0413948 9.31581 0.144576 9.58842C0.247757 9.86104 0.403266 10.1105 0.602249 10.3226C0.801232 10.5347 1.03977 10.7051 1.30423 10.8243C1.56869 10.9435 1.85388 11.0091 2.14352 11.0173V8.97348C2.15681 6.86886 2.9999 4.85577 4.48733 3.37704C5.97476 1.89832 7.98471 1.07508 10.075 1.08846C12.1652 1.10185 14.1646 1.95073 15.6332 3.44839C17.1018 4.94604 17.9195 6.96977 17.9062 9.0744V11.0173C18.4834 10.991 19.027 10.7365 19.4188 10.3089C19.8107 9.88126 20.019 9.31521 19.9986 8.73378C20.0119 8.25455 19.8733 7.78351 19.603 7.38886C19.3327 6.9942 18.9447 6.69643 18.4951 6.5386Z" fill="#808994"/>
<path d="M15.3501 14.8905C13.9176 16.2738 12.0096 17.0461 10.0248 17.0461C8.04007 17.0461 6.13209 16.2738 4.69963 14.8905C3.80655 15.5185 3.03034 16.3 2.40664 17.1992C1.83301 18.0538 1.4092 19.0012 1.15365 20H18.9963C18.4281 17.9257 17.1556 16.1177 15.4002 14.8905H15.3501Z" fill="#808994"/>
</svg>
