<svg width="15" height="16" viewBox="0 0 15 16" fill="none" xmlns="http://www.w3.org/2000/svg">
<g opacity="0.8">
<path fill-rule="evenodd" clip-rule="evenodd" d="M1.83212 15.3093C1.83212 14.7905 3.09516 14.1064 5.44082 13.8508C5.74154 13.8207 5.96708 13.5726 5.96708 13.2719V12.2795C5.96708 12.0765 5.86183 11.8886 5.69643 11.7833H5.68891C4.29054 10.8962 4.17777 9.05422 4.17777 7.12959C4.17777 5.19743 5.13257 4.22008 7.01962 4.22008H7.15494C9.04199 4.22008 10.0043 5.19743 10.0043 7.12959C10.0043 7.30251 10.0043 7.48294 9.99679 7.67089C9.98927 7.99417 10.2374 8.25731 10.5682 8.26482C10.8914 8.27234 11.1546 8.02424 11.1621 7.70096C11.1696 7.50549 11.1696 7.31754 11.1696 7.12959C11.1696 4.57343 9.67351 3.05477 7.16246 3.05477H7.01962C4.50857 3.05477 3.01247 4.58095 3.01247 7.12959C3.01247 8.6708 3.01247 11.2119 4.80178 12.5802V12.7531C2.16292 13.1215 0.666815 14.0387 0.666815 15.3093C0.666815 15.6326 0.929949 15.8882 1.25323 15.8882C1.56899 15.8882 1.83212 15.6251 1.83212 15.3093Z" fill="#52A1FF" stroke="#52A1FF" stroke-width="0.2"/>
<path fill-rule="evenodd" clip-rule="evenodd" d="M7.12554 9.88478C7.05788 10.1855 7.23079 10.4787 7.524 10.5614C7.53904 10.5689 8.14048 10.6516 8.94492 10.6516C10.3132 10.6516 12.2754 10.411 12.8844 9.14048C13.0273 8.85479 12.8994 8.50144 12.6062 8.36612C12.3206 8.22327 11.9672 8.35108 11.8319 8.63677C11.4409 9.44873 9.22309 9.58405 7.76458 9.42617C7.46385 9.3961 7.18568 9.59157 7.12554 9.88478Z" fill="#52A1FF" stroke="#52A1FF" stroke-width="0.2"/>
<path d="M9.43443 12.7606V12.2795C9.43443 11.9562 9.17129 11.6931 8.85553 11.6931C8.53225 11.6931 8.26912 11.9487 8.26912 12.2795V13.2794C8.26912 13.5726 8.49466 13.8282 8.79539 13.8583C11.141 14.1064 12.4041 14.7905 12.4041 15.3093C12.4041 15.6326 12.6672 15.8957 12.9905 15.8957C13.3138 15.8957 13.5694 15.6326 13.5694 15.3093C13.5694 14.0387 12.0733 13.1215 9.43443 12.7606Z" fill="#52A1FF"/>
<path d="M12.983 15.8944H12.9905H12.983Z" fill="#52A1FF"/>
<path d="M9.43443 12.7606H9.33014V12.8516L9.4203 12.864L9.43443 12.7606ZM8.79539 13.8583L8.80636 13.7546L8.80576 13.7545L8.79539 13.8583ZM9.43443 12.7606H9.53871V12.2795H9.43443H9.33014V12.7606H9.43443ZM9.43443 12.2795H9.53871C9.53871 11.8995 9.22976 11.5888 8.85553 11.5888V11.6931V11.7974C9.11282 11.7974 9.33014 12.0129 9.33014 12.2795H9.43443ZM8.85553 11.6931V11.5888C8.47553 11.5888 8.16483 11.8902 8.16483 12.2795H8.26912H8.37341C8.37341 12.0072 8.58897 11.7974 8.85553 11.7974V11.6931ZM8.26912 12.2795H8.16483V13.2794H8.26912H8.37341V12.2795H8.26912ZM8.26912 13.2794H8.16483C8.16483 13.6258 8.43055 13.9266 8.78501 13.9621L8.79539 13.8583L8.80576 13.7545C8.55877 13.7298 8.37341 13.5194 8.37341 13.2794H8.26912ZM8.79539 13.8583L8.78442 13.962C9.9503 14.0853 10.8413 14.3165 11.4375 14.5778C11.736 14.7086 11.9562 14.8451 12.0999 14.9758C12.2458 15.1084 12.2998 15.2225 12.2998 15.3093H12.4041H12.5084C12.5084 15.1367 12.4045 14.9708 12.2402 14.8214C12.0739 14.6702 11.8317 14.5228 11.5212 14.3868C10.8995 14.1143 9.98612 13.8794 8.80636 13.7546L8.79539 13.8583ZM12.4041 15.3093H12.2998C12.2998 15.6902 12.6096 16 12.9905 16V15.8957V15.7914C12.7248 15.7914 12.5084 15.575 12.5084 15.3093H12.4041ZM12.9905 15.8957V16C13.3731 16 13.6737 15.6884 13.6737 15.3093H13.5694H13.4651C13.4651 15.5767 13.2544 15.7914 12.9905 15.7914V15.8957ZM13.5694 15.3093H13.6737C13.6737 14.6257 13.269 14.0499 12.5461 13.605C11.8249 13.1611 10.7751 12.8387 9.44856 12.6573L9.43443 12.7606L9.4203 12.864C10.7326 13.0434 11.7503 13.3601 12.4368 13.7826C13.1218 14.2042 13.4651 14.7223 13.4651 15.3093H13.5694ZM12.983 15.8944V15.9987H12.9905V15.8944V15.7901H12.983V15.8944ZM12.9905 15.8944V15.7901H12.983V15.8944V15.9987H12.9905V15.8944Z" fill="#52A1FF"/>
<path d="M4.80407 12.5812V12.7542C2.16521 13.1225 0.669107 14.0398 0.669107 15.3103C0.669107 15.6336 0.93224 15.8892 1.25552 15.8892C1.57128 15.8892 1.83441 15.6261 1.83441 15.3103C1.83441 14.7916 3.09746 14.0999 5.44311 13.8518C5.74383 13.8217 5.96937 13.5736 5.96937 13.2729V12.2805C5.96937 12.0775 5.86412 11.8896 5.69872 11.7843C4.30035 10.8897 4.18006 8.9951 4.18006 7.13061C4.18006 5.26612 5.14238 4.2211 7.02943 4.2211H7.02191H7.02943H7.15724C9.04428 4.2211 10.0066 5.19845 10.0066 7.13061C10.0066 7.31104 10.0066 7.48396 9.99908 7.67191C9.99156 7.99519 10.2397 8.25832 10.5705 8.26584C10.8937 8.28088 11.1569 8.02526 11.1644 7.70198C11.1719 7.50651 11.1719 7.31856 11.1719 7.13061C11.1719 4.58197 9.6758 3.05579 7.16475 3.05579H7.02191C4.51086 3.05579 3.01476 4.57445 3.01476 7.13061C3.01476 8.67182 3.01476 11.2129 4.80407 12.5812Z" fill="#52A1FF"/>
<path d="M7.02946 4.22257H7.02194H7.02946Z" fill="#52A1FF"/>
<path d="M4.80407 12.5812H4.90835V12.5297L4.86742 12.4984L4.80407 12.5812ZM4.80407 12.7542L4.81849 12.8574L4.90835 12.8449V12.7542H4.80407ZM5.44311 13.8518L5.43273 13.748L5.43214 13.7481L5.44311 13.8518ZM5.69872 11.7843L5.64252 11.8722L5.64273 11.8723L5.69872 11.7843ZM9.99908 7.67191L9.89486 7.66774L9.89482 7.66949L9.99908 7.67191ZM10.5705 8.26584L10.5753 8.16164L10.5728 8.16158L10.5705 8.26584ZM11.1644 7.70198L11.0602 7.69797L11.0601 7.69956L11.1644 7.70198ZM4.80407 12.5812H4.69978V12.7542H4.80407H4.90835V12.5812H4.80407ZM4.80407 12.7542L4.78965 12.6509C3.46321 12.836 2.41346 13.1603 1.69227 13.6052C0.969519 14.051 0.56482 14.6268 0.56482 15.3103H0.669107H0.773394C0.773394 14.7233 1.11675 14.2052 1.80176 13.7827C2.48834 13.3592 3.50607 13.0407 4.81849 12.8574L4.80407 12.7542ZM0.669107 15.3103H0.56482C0.56482 15.6929 0.876408 15.9935 1.25552 15.9935V15.8892V15.7849C0.988073 15.7849 0.773394 15.5742 0.773394 15.3103H0.669107ZM1.25552 15.8892V15.9935C1.62888 15.9935 1.9387 15.6837 1.9387 15.3103H1.83441H1.73013C1.73013 15.5685 1.51368 15.7849 1.25552 15.7849V15.8892ZM1.83441 15.3103H1.9387C1.9387 15.2234 1.99282 15.1088 2.13876 14.9755C2.28257 14.8441 2.50278 14.7067 2.80125 14.575C3.39743 14.3118 4.28831 14.0788 5.45408 13.9555L5.44311 13.8518L5.43214 13.7481C4.25225 13.8729 3.33879 14.1097 2.71703 14.3842C2.40653 14.5212 2.16438 14.6695 1.99807 14.8215C1.83389 14.9715 1.73013 15.1379 1.73013 15.3103H1.83441ZM5.44311 13.8518L5.45348 13.9556C5.8071 13.9202 6.07366 13.6276 6.07366 13.2729H5.96937H5.86509C5.86509 13.5196 5.68056 13.7232 5.43273 13.748L5.44311 13.8518ZM5.96937 13.2729H6.07366V12.2805H5.96937H5.86509V13.2729H5.96937ZM5.96937 12.2805H6.07366C6.07366 12.0418 5.95014 11.8207 5.75471 11.6963L5.69872 11.7843L5.64273 11.8723C5.7781 11.9584 5.86509 12.1132 5.86509 12.2805H5.96937ZM5.69872 11.7843L5.75493 11.6965C5.08564 11.2683 4.71712 10.5987 4.51617 9.79583C4.31473 8.99097 4.28435 8.06269 4.28435 7.13061H4.18006H4.07578C4.07578 8.06301 4.10555 9.01426 4.31384 9.84647C4.52263 10.6807 4.91344 11.4057 5.64252 11.8722L5.69872 11.7843ZM4.18006 7.13061H4.28435C4.28435 6.21524 4.52047 5.51769 4.97219 5.04904C5.42328 4.58105 6.10477 4.32538 7.02943 4.32538V4.2211V4.11681C6.06704 4.11681 5.32385 4.38365 4.82202 4.90429C4.32082 5.42428 4.07578 6.18148 4.07578 7.13061H4.18006ZM7.02943 4.2211V4.11681H7.02191V4.2211V4.32538H7.02943V4.2211ZM7.02191 4.2211V4.32538H7.02943V4.2211V4.11681H7.02191V4.2211ZM7.02943 4.2211V4.32538H7.15724V4.2211V4.11681H7.02943V4.2211ZM7.15724 4.2211V4.32538C8.08374 4.32538 8.76481 4.56514 9.2151 5.02431C9.66576 5.48386 9.90231 6.18051 9.90231 7.13061H10.0066H10.1109C10.1109 6.14855 9.86628 5.39045 9.36402 4.87828C8.86139 4.36574 8.11778 4.11681 7.15724 4.11681V4.2211ZM10.0066 7.13061H9.90231C9.90231 7.31128 9.9023 7.48218 9.89488 7.66774L9.99908 7.67191L10.1033 7.67608C10.1109 7.48573 10.1109 7.3108 10.1109 7.13061H10.0066ZM9.99908 7.67191L9.89482 7.66949C9.88596 8.05048 10.1798 8.36128 10.5681 8.3701L10.5705 8.26584L10.5728 8.16158C10.2995 8.15537 10.0972 7.9399 10.1033 7.67434L9.99908 7.67191ZM10.5705 8.26584L10.5656 8.37002C10.9498 8.38789 11.2598 8.08372 11.2686 7.70441L11.1644 7.70198L11.0601 7.69956C11.0539 7.9668 10.8376 8.17387 10.5753 8.16167L10.5705 8.26584ZM11.1644 7.70198L11.2686 7.70599C11.2762 7.5082 11.2762 7.31829 11.2762 7.13061H11.1719H11.0676C11.0676 7.31883 11.0676 7.50482 11.0602 7.69798L11.1644 7.70198ZM11.1719 7.13061H11.2762C11.2762 5.83601 10.8959 4.78851 10.1844 4.06437C9.47262 3.33999 8.44159 2.9515 7.16475 2.9515V3.05579V3.16008C8.39896 3.16008 9.37151 3.53468 10.0356 4.21055C10.6999 4.88666 11.0676 5.87657 11.0676 7.13061H11.1719ZM7.16475 3.05579V2.9515H7.02191V3.05579V3.16008H7.16475V3.05579ZM7.02191 3.05579V2.9515C5.74521 2.9515 4.71416 3.33803 4.00235 4.0615C3.29076 4.78476 2.91047 5.83232 2.91047 7.13061H3.01476H3.11904C3.11904 5.87274 3.48681 4.88289 4.15103 4.20778C4.81504 3.53288 5.78756 3.16008 7.02191 3.16008V3.05579ZM3.01476 7.13061H2.91047C2.91047 7.9 2.91011 8.93171 3.13665 9.94355C3.36343 10.9564 3.81977 11.9598 4.74072 12.6641L4.80407 12.5812L4.86742 12.4984C3.99905 11.8344 3.56074 10.883 3.34019 9.89798C3.11941 8.91188 3.11904 7.90243 3.11904 7.13061H3.01476ZM7.02946 4.22257V4.11828H7.02194V4.22257V4.32686H7.02946V4.22257ZM7.02194 4.22257V4.32686H7.02946V4.22257V4.11828H7.02194V4.22257Z" fill="#52A1FF"/>
<path fill-rule="evenodd" clip-rule="evenodd" d="M8.27116 13.2753C8.27116 13.5685 8.4967 13.8241 8.79742 13.8542C11.1431 14.1023 12.4061 14.7865 12.4061 15.3052C12.4061 15.6285 12.6693 15.8916 12.9925 15.8916C13.3158 15.8916 13.5714 15.6285 13.5714 15.3052C13.5714 14.0346 12.0753 13.1174 9.43646 12.7566V12.2754C9.43646 11.9446 9.17333 11.689 8.85757 11.689C8.53429 11.689 8.27116 11.9521 8.27116 12.2754V13.2753Z" fill="#52A1FF" stroke="#52A1FF" stroke-width="0.2"/>
<path fill-rule="evenodd" clip-rule="evenodd" d="M12.6106 8.36765C12.3174 8.2248 11.9715 8.35261 11.8362 8.6383C11.4453 9.45025 9.2199 9.5931 7.76891 9.4277C7.46066 9.39763 7.19001 9.5931 7.12987 9.89382C7.0622 10.187 7.23512 10.4802 7.52833 10.5705C7.54336 10.5705 8.14481 10.6532 8.94925 10.6532C10.3175 10.6532 12.2798 10.4126 12.8887 9.14953V9.14201C13.0316 8.85632 12.9038 8.50297 12.6106 8.36765Z" fill="#52A1FF" stroke="#52A1FF" stroke-width="0.2"/>
<path fill-rule="evenodd" clip-rule="evenodd" d="M0.104389 6.96091V9.48699C0.119425 9.79524 0.375041 10.0433 0.683283 10.0433L0.690801 10.0358C1.01408 10.0358 1.2697 9.7802 1.2697 9.45692V7.29922L1.61553 7.05864C1.76589 6.94587 1.85611 6.77295 1.85611 6.585C1.85611 3.65294 4.2168 1.2697 7.11127 1.2697C10.0133 1.2697 12.3664 3.65294 12.3664 6.585C12.3664 6.82558 12.5243 7.05112 12.7574 7.13382L13.5393 7.41199V9.45692C13.5393 9.7802 13.8024 10.0358 14.1257 10.0358C14.4489 10.0358 14.7046 9.7802 14.7046 9.45692V6.9985C14.7046 6.75792 14.5467 6.53237 14.3211 6.44967L13.5242 6.17151C13.3137 2.78835 10.517 0.104389 7.11127 0.104389C3.70556 0.104389 0.8562 2.8485 0.690801 6.28428L0.344968 6.53237C0.202124 6.63011 0.119425 6.78799 0.104389 6.96091Z" fill="#52A1FF" stroke="#52A1FF" stroke-width="0.2"/>
</g>
</svg>
