<svg width="16" height="16" viewBox="0 0 16 16" fill="none" xmlns="http://www.w3.org/2000/svg">
<path d="M7.80041 8.55391C10.1625 8.55391 12.0774 6.63905 12.0774 4.27696C12.0774 1.91486 10.1625 0 7.80041 0C5.43831 0 3.52345 1.91486 3.52345 4.27696C3.52345 6.63905 5.43831 8.55391 7.80041 8.55391Z" fill="#808994"/>
<path d="M13.9956 15.9999H1.58477C1.16611 15.9999 0.764478 15.8342 0.467549 15.5391C0.170621 15.244 0.00252203 14.8433 0 14.4246V14.0905C0.00426093 12.7998 0.509178 11.561 1.40842 10.6351C2.30766 9.70912 3.53108 9.16822 4.82114 9.12619H5.16481C5.29094 9.14055 5.41555 9.16613 5.53715 9.20258C6.27413 9.50506 7.05342 9.69179 7.84745 9.75626C8.50397 9.69225 9.1474 9.53139 9.7568 9.27892L10.0146 9.20258L10.5492 9.12619H10.702C12.0062 9.14622 13.2503 9.67778 14.1664 10.6063C15.0824 11.5349 15.5971 12.7862 15.5995 14.0905V14.4246C15.5982 14.6336 15.5557 14.8402 15.4743 15.0326C15.3929 15.225 15.2742 15.3995 15.1252 15.5459C14.9761 15.6923 14.7996 15.8078 14.6057 15.8857C14.4118 15.9636 14.2045 16.0024 13.9956 15.9999Z" fill="#808994"/>
</svg>
