<svg width="20" height="20" viewBox="0 0 20 20" fill="none" xmlns="http://www.w3.org/2000/svg">
<rect width="20" height="20" rx="10" fill="#85D420"/>
<path d="M14.9661 5.3102L7.83463 13.0048L4.67795 9.54214C4.59166 9.44499 4.48608 9.36686 4.36794 9.31275C4.24981 9.25863 4.1217 9.2297 3.99177 9.2278C3.86184 9.2259 3.73294 9.25107 3.61327 9.30172C3.49361 9.35236 3.38579 9.42736 3.2967 9.52195C3.10965 9.72078 3.00384 9.98245 3.0001 10.2554C2.99637 10.5284 3.09498 10.7928 3.27651 10.9967L7.12913 15.2233C7.13108 15.226 7.13363 15.2282 7.13657 15.2297C7.13615 15.2325 7.13615 15.2354 7.13657 15.2382C7.19993 15.2991 7.27145 15.351 7.34907 15.3923C7.38308 15.4177 7.41855 15.4411 7.45532 15.4624C7.57191 15.5133 7.69784 15.5394 7.82507 15.5389C7.95067 15.539 8.07499 15.5137 8.19057 15.4645C8.22731 15.4432 8.26279 15.4198 8.29682 15.3944C8.37475 15.3554 8.44638 15.3049 8.50932 15.2446C8.51117 15.2422 8.51331 15.2401 8.5157 15.2382C8.51741 15.2348 8.51997 15.2318 8.52313 15.2297L16.3591 6.77858C16.5418 6.57576 16.6422 6.31202 16.6406 6.03902C16.6391 5.76603 16.5356 5.50347 16.3506 5.30276C16.2624 5.20671 16.1551 5.13016 16.0356 5.07802C15.9162 5.02589 15.7871 4.99931 15.6567 5.00001C15.5263 5.00071 15.3975 5.02867 15.2786 5.08209C15.1597 5.13551 15.0533 5.21321 14.9661 5.3102Z" fill="white"/>
</svg>
