<svg width="16" height="18" viewBox="0 0 16 18" fill="none" xmlns="http://www.w3.org/2000/svg">
<path fill-rule="evenodd" clip-rule="evenodd" d="M1.8492 0.785909C1.8492 0.351863 2.18308 0 2.59495 0H13.1232C13.5351 0 13.869 0.351863 13.869 0.785909C13.869 1.21995 13.5351 1.57182 13.1232 1.57182H2.59495C2.18308 1.57182 1.8492 1.21995 1.8492 0.785909Z" fill="#FFC700"/>
<path fill-rule="evenodd" clip-rule="evenodd" d="M7.71044 3.55998C8.14449 3.55998 8.49635 3.91184 8.49635 4.34589V17.2141C8.49635 17.6481 8.14449 18 7.71044 18C7.2764 18 6.92454 17.6481 6.92454 17.2141V4.34589C6.92454 3.91184 7.2764 3.55998 7.71044 3.55998Z" fill="#FFC700"/>
<path fill-rule="evenodd" clip-rule="evenodd" d="M7.21651 3.73417C7.50453 3.50167 7.91576 3.50167 8.20379 3.73417L15.128 9.32357C15.4657 9.5962 15.5185 10.091 15.2459 10.4287C14.9733 10.7665 14.4785 10.8193 14.1407 10.5466L7.71015 5.35571L1.27958 10.5466C0.941839 10.8193 0.447036 10.7665 0.174405 10.4287C-0.0982262 10.091 -0.0454461 9.5962 0.292293 9.32357L7.21651 3.73417Z" fill="#FFC700"/>
</svg>
