<svg width="14" height="14" viewBox="0 0 14 14" fill="none" xmlns="http://www.w3.org/2000/svg">
<path d="M7 0C10.866 0 14 3.13401 14 7C14 10.866 10.866 14 7 14C3.13401 14 0 10.866 0 7C0 3.13401 3.13401 0 7 0ZM7 9.8291C6.33708 9.82911 5.84288 10.2968 5.84277 10.9727C5.84277 11.6487 6.32401 12.1299 7 12.1299C7.65 12.1299 8.14355 11.6487 8.14355 10.9727C8.14345 10.2968 7.64993 9.8291 7 9.8291ZM5.9209 3L5.98633 4.21289L6.32422 8.65918H7.66309L8.00098 4.21289L8.06641 3H5.9209Z" fill="#808994"/>
</svg>
