<svg width="26" height="36" viewBox="0 0 26 36" fill="none" xmlns="http://www.w3.org/2000/svg">
<g opacity="0.2" clip-path="url(#clip0_0_39433)">
<mask id="mask0_0_39433" style="mask-type:luminance" maskUnits="userSpaceOnUse" x="0" y="0" width="26" height="37">
<path d="M26.0001 0H0V36.0432H26.0001V0Z" fill="white"/>
</mask>
<g mask="url(#mask0_0_39433)">
<path d="M12.999 23.3889C10.5428 23.3025 8.16806 22.5432 6.17043 21.2054C4.17281 19.8677 2.64067 18.0106 1.76452 15.8654C0.888372 13.7202 0.706909 11.3815 1.24299 9.14074C1.77908 6.89998 3.00913 4.85608 4.77954 3.26338C6.54996 1.67069 8.78262 0.599604 11.1998 0.183524C13.617 -0.232556 16.1122 0.0247425 18.374 0.923356C20.6358 1.82197 22.5646 3.3223 23.9204 5.23739C25.2763 7.15249 25.9994 9.39777 25.9993 11.6938C25.9338 14.8545 24.5277 17.8616 22.0901 20.0545C19.6525 22.2474 16.3826 23.4467 12.999 23.3889ZM21.6656 25.2877V34.0137C21.6656 35.6277 20.4553 36.4218 18.9492 35.7399L13.7845 33.4612C13.2789 33.2798 12.7191 33.2798 12.2136 33.4612L7.04882 35.7486C5.54278 36.3959 4.33246 35.6018 4.33246 34.0224V25.3049C4.33688 25.1548 4.38034 25.008 4.45923 24.8772C4.53812 24.7463 4.64983 24.6353 4.78496 24.5539C4.92049 24.4702 5.07749 24.4214 5.23972 24.4123C5.40194 24.4032 5.56363 24.4343 5.70891 24.5023C7.97136 25.5524 10.4637 26.0987 12.99 26.0987C15.5163 26.0987 18.0082 25.5524 20.2706 24.5023C20.415 24.4282 20.5779 24.3916 20.7425 24.3961C20.9072 24.4006 21.0677 24.4462 21.2072 24.528C21.3467 24.6099 21.4599 24.725 21.5356 24.8616C21.6114 24.9982 21.6469 25.1513 21.6381 25.3049L21.6656 25.2877Z" fill="white"/>
</g>
</g>
<defs>
<clipPath id="clip0_0_39433">
<rect width="26" height="36" fill="white"/>
</clipPath>
</defs>
</svg>
