<svg width="21" height="22" viewBox="0 0 21 22" fill="none" xmlns="http://www.w3.org/2000/svg">
<g clip-path="url(#clip0_0_36872)">
<path d="M16.5857 1.09139C16.5786 0.815235 16.4629 0.553036 16.2638 0.361565C16.0646 0.170095 15.7981 0.0647725 15.5219 0.0684527C15.2456 0.0647725 14.9791 0.170095 14.78 0.361565C14.5808 0.553036 14.4652 0.815235 14.458 1.09139V3.13727C14.4652 3.41342 14.5808 3.67562 14.78 3.86709C14.9791 4.05857 15.2456 4.16389 15.5219 4.16021C15.7981 4.16389 16.0646 4.05857 16.2638 3.86709C16.4629 3.67562 16.5786 3.41342 16.5857 3.13727V1.09139Z" fill="#808994"/>
<path d="M11.2928 1.09139C11.2856 0.815235 11.17 0.553036 10.9708 0.361565C10.7717 0.170095 10.5052 0.0647725 10.2289 0.0684527C10.0928 0.0666497 9.95765 0.0916923 9.8312 0.142126C9.70474 0.19256 9.58946 0.267407 9.49194 0.362398C9.39441 0.457389 9.31656 0.570635 9.26281 0.695718C9.20907 0.820802 9.18049 0.955262 9.17871 1.09139V3.13727C9.18049 3.2734 9.20907 3.40786 9.26281 3.53294C9.31656 3.65802 9.39441 3.77127 9.49194 3.86626C9.58946 3.96125 9.70474 4.0361 9.8312 4.08653C9.95765 4.13697 10.0928 4.16201 10.2289 4.16021C10.5052 4.16389 10.7717 4.05857 10.9708 3.86709C11.17 3.67562 11.2856 3.41342 11.2928 3.13727V1.09139Z" fill="#808994"/>
<path d="M6.00079 1.09139C5.99364 0.815235 5.87797 0.553036 5.67884 0.361565C5.47971 0.170095 5.21316 0.0647725 4.93694 0.0684527C4.66306 0.0683603 4.39999 0.17526 4.2038 0.366352C4.00761 0.557444 3.89383 0.817611 3.88672 1.09139V3.13727C3.89383 3.41105 4.00761 3.67122 4.2038 3.86231C4.39999 4.0534 4.66306 4.1603 4.93694 4.16021C5.21316 4.16389 5.47971 4.05857 5.67884 3.86709C5.87797 3.67562 5.99364 3.41342 6.00079 3.13727V1.09139Z" fill="#808994"/>
<path d="M18.4814 21.8095H19.3953C19.5325 21.8132 19.6691 21.7895 19.7972 21.7399C19.9252 21.6903 20.0421 21.6157 20.1411 21.5205C20.2401 21.4253 20.3192 21.3115 20.3738 21.1855C20.4283 21.0595 20.4574 20.9239 20.4591 20.7866V19.7637C19.9568 20.5816 19.2818 21.2798 18.4814 21.8095Z" fill="#808994"/>
<path d="M8.60632 17.9768H3.81897C3.43553 17.9768 3.0678 17.8245 2.79667 17.5533C2.52553 17.2822 2.37321 16.9145 2.37321 16.5311C2.37321 16.1476 2.52553 15.7799 2.79667 15.5088C3.0678 15.2376 3.43553 15.0853 3.81897 15.0853H8.52449C8.60747 14.689 8.72616 14.3009 8.87911 13.926H3.81897C3.6286 13.9278 3.43979 13.8916 3.26356 13.8196C3.08733 13.7476 2.92722 13.6412 2.79261 13.5066C2.65799 13.372 2.55157 13.2119 2.47956 13.0357C2.40755 12.8594 2.37139 12.6706 2.37321 12.4802C2.37321 12.0968 2.52553 11.729 2.79667 11.4579C3.0678 11.1868 3.43553 11.0345 3.81897 11.0345H11.1841C12.1537 10.3556 13.2903 9.95474 14.4712 9.87514H3.81897C3.6286 9.87696 3.43979 9.8408 3.26356 9.76879C3.08733 9.69678 2.92722 9.59035 2.79261 9.45574C2.65799 9.32112 2.55157 9.16104 2.47956 8.98481C2.40755 8.80858 2.37139 8.61975 2.37321 8.42939C2.37321 8.24017 2.4107 8.05281 2.48352 7.87817C2.55634 7.70352 2.66305 7.54502 2.79748 7.41186C2.93192 7.2787 3.09141 7.17351 3.26674 7.10235C3.44207 7.03118 3.62976 6.99545 3.81897 6.99725H15.0577C15.2427 6.99702 15.4258 7.03445 15.5958 7.10722C15.7659 7.17999 15.9194 7.28659 16.047 7.42056C16.1746 7.55452 16.2736 7.71302 16.338 7.88645C16.4024 8.05988 16.4308 8.24462 16.4216 8.42939C16.422 8.79768 16.2805 9.15196 16.0265 9.41865C15.7725 9.68535 15.4255 9.84395 15.0577 9.86149C16.1299 9.90211 17.1754 10.2073 18.1011 10.7499C19.0268 11.2925 19.804 12.0556 20.3633 12.9712V3.0692C20.3615 2.9319 20.3325 2.79631 20.2779 2.67032C20.2233 2.54433 20.1442 2.43042 20.0453 2.33525C19.9463 2.24008 19.8294 2.16551 19.7014 2.1159C19.5733 2.06628 19.4367 2.04264 19.2994 2.04626H17.54V3.0692C17.5364 3.34262 17.4788 3.61264 17.3705 3.86371C17.2622 4.11478 17.1052 4.34194 16.9087 4.5321C16.7122 4.72226 16.48 4.87167 16.2256 4.97172C15.9711 5.07178 15.6993 5.1205 15.4259 5.11508C15.1525 5.1205 14.8808 5.07178 14.6263 4.97172C14.3718 4.87167 14.1396 4.72226 13.9431 4.5321C13.7466 4.34194 13.5897 4.11478 13.4813 3.86371C13.373 3.61264 13.3154 3.34262 13.3118 3.0692V2.04626H12.4117V3.0692C12.4177 3.3543 12.3648 3.63759 12.2564 3.90134C12.148 4.16508 11.9863 4.40361 11.7815 4.60203C11.5766 4.80044 11.3331 4.95446 11.066 5.05447C10.799 5.15448 10.5142 5.19833 10.2294 5.18326C9.67824 5.19057 9.14659 4.97955 8.75051 4.59624C8.35442 4.21293 8.12607 3.68846 8.11531 3.13738V2.11444H7.05145V3.13738C7.04791 3.4108 6.99031 3.68082 6.88197 3.93189C6.77363 4.18296 6.61669 4.41012 6.42019 4.60028C6.22369 4.79044 5.99151 4.93985 5.73703 5.0399C5.48254 5.13996 5.21078 5.18868 4.93738 5.18326C4.38624 5.19057 3.85459 4.97955 3.45851 4.59624C3.06242 4.21293 2.83407 3.68846 2.82331 3.13738V2.11444H1.06385C0.926592 2.11081 0.789977 2.1345 0.661943 2.18412C0.53391 2.23373 0.417008 2.3083 0.318029 2.40347C0.219051 2.49864 0.139971 2.61251 0.085375 2.7385C0.0307793 2.86449 0.00175887 3.00008 0 3.13738V20.8683C0.00175887 21.0056 0.0307793 21.1412 0.085375 21.2672C0.139971 21.3932 0.219051 21.507 0.318029 21.6022C0.417008 21.6974 0.53391 21.772 0.661943 21.8216C0.789977 21.8712 0.926592 21.8949 1.06385 21.8913H11.3478C9.97144 20.9805 8.99173 19.5816 8.60632 17.9768Z" fill="#808994"/>
<path d="M20.4586 15.4399C20.2367 14.1269 19.5579 12.9346 18.5421 12.0736C17.5264 11.2126 16.239 10.7383 14.9074 10.7344C14.1721 10.7394 13.4447 10.8876 12.7661 11.1708C11.4942 11.6903 10.4594 12.6619 9.86093 13.8987C9.64876 14.3317 9.49291 14.79 9.3972 15.2626C9.32577 15.6219 9.28923 15.9873 9.28809 16.3537C9.2918 16.8138 9.35134 17.2718 9.4654 17.7176C9.7108 18.7073 10.2215 19.6113 10.9425 20.3323C11.6635 21.0533 12.5675 21.564 13.5572 21.8094C14.001 21.9346 14.4599 21.9988 14.9211 22.0003C15.3822 21.9975 15.8408 21.9333 16.285 21.8094C17.3289 21.53 18.2701 20.9555 18.9958 20.1548C19.7216 19.3541 20.201 18.3611 20.3767 17.2948C20.4316 16.9887 20.459 16.6783 20.4586 16.3674C20.4861 16.0588 20.4861 15.7484 20.4586 15.4399ZM14.9074 21.1138C13.651 21.1102 12.4472 20.6085 11.56 19.7188C10.6728 18.829 10.1746 17.6238 10.1746 16.3674C10.1833 15.5059 10.4235 14.6626 10.8702 13.9259C11.4634 12.9465 12.3951 12.2186 13.489 11.8801C13.9275 11.7237 14.3876 11.6362 14.8529 11.6209C16.1117 11.6209 17.319 12.121 18.2091 13.0111C19.0992 13.9012 19.5993 15.1085 19.5993 16.3674C19.5994 17.6168 19.1068 18.8159 18.2285 19.7044C17.3501 20.593 16.1568 21.0994 14.9074 21.1138Z" fill="#808994"/>
<path d="M17.0354 17.1441C16.9499 17.0655 16.8379 17.0219 16.7217 17.0219C16.6055 17.0219 16.4936 17.0655 16.408 17.1441L15.4669 18.0989V13.3661C15.4669 13.2467 15.4195 13.1322 15.3351 13.0478C15.2507 12.9634 15.1362 12.916 15.0168 12.916C14.9584 12.916 14.9005 12.9277 14.8466 12.9505C14.7927 12.9733 14.744 13.0066 14.7033 13.0486C14.6626 13.0906 14.6307 13.1404 14.6096 13.1949C14.5885 13.2494 14.5786 13.3076 14.5804 13.3661V18.1398L13.6256 17.185C13.5401 17.1064 13.4281 17.0628 13.3119 17.0628C13.1958 17.0628 13.0838 17.1064 12.9982 17.185C12.9562 17.2257 12.9227 17.2745 12.8999 17.3284C12.877 17.3823 12.8652 17.4402 12.8652 17.4988C12.8652 17.5573 12.877 17.6152 12.8999 17.6691C12.9227 17.723 12.9562 17.7718 12.9982 17.8125L14.7031 19.531C14.7447 19.5712 14.7938 19.6028 14.8477 19.6238C14.9015 19.6449 14.959 19.6551 15.0168 19.6537C15.0746 19.6551 15.1322 19.6449 15.186 19.6238C15.2399 19.6028 15.289 19.5712 15.3305 19.531L17.0354 17.8125C17.0842 17.7715 17.1234 17.7204 17.1503 17.6626C17.1772 17.6049 17.1911 17.542 17.1911 17.4783C17.1911 17.4146 17.1772 17.3517 17.1503 17.294C17.1234 17.2362 17.0842 17.1851 17.0354 17.1441Z" fill="#808994"/>
</g>
<defs>
<clipPath id="clip0_0_36872">
<rect width="20.527" height="22" fill="white"/>
</clipPath>
</defs>
</svg>
