<svg width="10" height="10" viewBox="0 0 10 10" fill="none" xmlns="http://www.w3.org/2000/svg">
<g clip-path="url(#clip0_0_23432)">
<path d="M2.62928 1.48913H7.83801V0.679154C7.83637 0.498468 7.76343 0.32574 7.63508 0.198554C7.50673 0.0713693 7.33334 2.11218e-05 7.15265 2.85886e-05H0.68536C0.595653 -0.000794448 0.506671 0.0161608 0.423555 0.0499215C0.340439 0.0836822 0.264834 0.133584 0.201109 0.196729C0.137385 0.259874 0.0868046 0.33502 0.0522863 0.417825C0.017768 0.500629 -3.77488e-06 0.589443 6.01429e-10 0.679154V6.97823C-3.77488e-06 7.06794 0.017768 7.15675 0.0522863 7.23956C0.0868046 7.32236 0.137385 7.39751 0.201109 7.46065C0.264834 7.5238 0.340439 7.5737 0.423555 7.60746C0.506671 7.64122 0.595653 7.65818 0.68536 7.65735H1.30841V2.84739C1.30985 2.49401 1.44832 2.15498 1.69468 1.90164C1.94105 1.64831 2.27609 1.50043 2.62928 1.48913Z" fill="#DCDCDC"/>
<path d="M9.99996 2.84725V9.27093C9.99996 9.36666 9.98111 9.46146 9.94447 9.5499C9.90784 9.63835 9.85414 9.71871 9.78645 9.7864C9.71876 9.85409 9.6384 9.90777 9.54996 9.94441C9.46151 9.98104 9.36672 9.99991 9.27099 9.99991H2.62925C2.43533 9.99992 2.24927 9.92331 2.11157 9.78678C1.97387 9.65025 1.89569 9.46484 1.89404 9.27093V2.84725C1.89404 2.65227 1.9715 2.46527 2.10938 2.32739C2.24726 2.18951 2.43426 2.11206 2.62925 2.11206H9.2523C9.35012 2.10954 9.44744 2.12675 9.53847 2.16265C9.62949 2.19855 9.71236 2.2524 9.78213 2.321C9.8519 2.38961 9.90714 2.47158 9.94457 2.56199C9.98199 2.6524 10.0008 2.74941 9.99996 2.84725Z" fill="#D9D9D9"/>
</g>
<defs>
<clipPath id="clip0_0_23432">
<rect width="10" height="10" fill="white"/>
</clipPath>
</defs>
</svg>
