<svg width="30" height="31" viewBox="0 0 30 31" fill="none" xmlns="http://www.w3.org/2000/svg">
<path d="M30 15.2214C30 23.6279 23.2843 30.4427 15 30.4427C6.71573 30.4427 0 23.6279 0 15.2214C0 6.81483 6.71573 0 15 0C23.2843 0 30 6.81483 30 15.2214Z" fill="#7889A6"/>
<path d="M6 11.1623C6 10.0415 6.89543 9.13282 8 9.13282H22C23.1046 9.13282 24 10.0415 24 11.1623V19.2804C24 20.4013 23.1046 21.3099 22 21.3099H8C6.89543 21.3099 6 20.4013 6 19.2804V11.1623Z" fill="#191E24"/>
<path d="M17.5 14.3426C18.1667 14.7331 18.1667 15.7096 17.5 16.1002L14.5 17.8578C13.8333 18.2484 13 17.7601 13 16.979V13.4637C13 12.6826 13.8333 12.1944 14.5 12.5849L17.5 14.3426Z" fill="#ABB6CA"/>
</svg>
