<svg width="47" height="47" viewBox="0 0 47 47" fill="none" xmlns="http://www.w3.org/2000/svg">
<path d="M39.3606 15.5194C40.6799 15.5194 41.7502 16.5175 41.7502 17.7448V24.6148L30.1118 24.6109C28.3163 24.6109 26.8566 25.9701 26.8564 27.6397C26.8564 29.3134 28.312 30.6735 30.1118 30.6735H41.7502V37.5436C41.75 38.7707 40.6799 39.7679 39.3606 39.7679H8.35381C7.03443 39.7678 5.96418 38.77 5.96418 37.5386V17.7448C5.96424 16.5176 7.03447 15.5195 8.35381 15.5194H39.3606ZM17.9074 21.3436C15.9137 21.3436 14.2916 21.9404 13.041 23.1326C11.7906 24.3247 11.165 25.9996 11.165 28.1582C11.165 30.2443 11.7811 31.8676 13.0133 33.0275C14.2548 34.1794 15.9315 34.7562 18.0429 34.7562C19.7193 34.7562 21.0967 34.3935 22.1751 33.6687C23.2534 32.9437 23.9918 31.9242 24.3905 30.6112L21.8624 30.3331C21.4908 31.2514 20.9877 31.92 20.3534 32.3388C19.7191 32.7576 18.9538 32.9671 18.0568 32.9672C16.8516 32.9672 15.8453 32.5931 15.0388 31.8441C14.2323 31.0949 13.7837 30.0151 13.6931 28.6055H24.4588C24.4679 28.3478 24.4727 28.1545 24.4727 28.0256C24.4727 25.9071 23.8605 24.2639 22.6372 23.096C21.4139 21.9281 19.8374 21.3436 17.9074 21.3436ZM30.1504 26.1179C31.0459 26.1139 31.7761 26.794 31.7761 27.6328C31.7759 28.4676 31.0458 29.1467 30.1504 29.1467C29.2507 29.1465 28.5259 28.4676 28.5256 27.6328C28.5256 26.7978 29.2549 26.1181 30.1504 26.1179ZM17.9341 23.1326C19.1756 23.1326 20.1856 23.5515 20.9649 24.3892C21.4724 24.9289 21.7813 25.7381 21.8901 26.8174H13.8287C13.9102 25.6978 14.332 24.8035 15.0933 24.1349C15.8635 23.4664 16.8105 23.1326 17.9341 23.1326ZM34.2014 8.11303C35.4246 7.65513 36.8182 8.21121 37.3074 9.34891L39.3735 14.141H18.0924L34.2014 8.11303Z" fill="white"/>
</svg>
