<svg width="18" height="18" viewBox="0 0 18 18" fill="none" xmlns="http://www.w3.org/2000/svg">
<path d="M8.62037 1.12546C4.45472 1.12546 1.07769 4.65128 1.07769 9.00046C1.07769 13.3496 4.45472 16.8755 8.62037 16.8755C12.786 16.8755 16.163 13.3496 16.163 9.00046C16.163 4.65128 12.786 1.12546 8.62037 1.12546ZM8.08161 5.59523C7.35798 5.53195 6.66786 5.34755 6.03178 5.05435C6.54698 3.63878 7.30815 2.67761 8.08161 2.36454V5.59523ZM8.08161 6.7204V8.43796H5.40278C5.43729 7.60388 5.54622 6.83062 5.7124 6.13206C6.44966 6.45638 7.24619 6.65818 8.08161 6.7204ZM8.08161 9.56296V11.2805C7.24619 11.3428 6.44966 11.5445 5.7124 11.8689C5.54606 11.1703 5.43729 10.397 5.40278 9.56296H8.08161ZM8.08161 12.4057V15.6364C7.30815 15.3233 6.54698 14.362 6.03178 12.9466C6.66786 12.6532 7.35798 12.4688 8.08161 12.4057ZM9.15913 12.4057C9.88276 12.469 10.5729 12.6534 11.209 12.9466C10.6938 14.3621 9.93259 15.3235 9.15913 15.6364V12.4057ZM9.15913 11.2805V9.56296H11.838C11.8034 10.397 11.6947 11.1703 11.5283 11.8689C10.7911 11.5444 9.99455 11.3428 9.15913 11.2805ZM9.15913 8.43796V6.7204C9.99455 6.65818 10.7911 6.45638 11.5283 6.13206C11.6947 6.83062 11.8034 7.60388 11.838 8.43796H9.15913ZM9.15913 5.59523V2.36454C9.93259 2.67743 10.6938 3.63896 11.209 5.05435C10.5729 5.34773 9.88276 5.53212 9.15913 5.59523ZM11.3303 2.88028C11.8932 3.15308 12.4156 3.50892 12.8815 3.93691C12.6549 4.14556 12.4102 4.33206 12.1573 4.50644C11.9243 3.89595 11.6462 3.34804 11.3303 2.88028ZM5.08356 4.50661C4.83068 4.33206 4.58605 4.14573 4.35943 3.93708C4.82527 3.50904 5.34766 3.15319 5.91056 2.88046C5.59454 3.34804 5.31641 3.89595 5.08356 4.50661ZM4.73438 5.6114C4.50742 6.47853 4.36499 7.43091 4.32593 8.43796H2.18266C2.29344 7.04525 2.80763 5.77101 3.60735 4.74585C3.95485 5.07034 4.33367 5.35775 4.73438 5.6114ZM4.32576 9.56296C4.36482 10.57 4.50725 11.5224 4.73421 12.3895C4.3335 12.6432 3.95485 12.9306 3.60702 13.2551C2.80729 12.2299 2.29311 10.9557 2.18233 9.56296H4.32576ZM5.08356 13.4943C5.31641 14.105 5.59454 14.6531 5.91056 15.1206C5.3477 14.8478 4.82531 14.492 4.35943 14.064C4.58605 13.8552 4.83068 13.6687 5.08356 13.4943ZM12.1572 13.4943C12.4101 13.6689 12.6547 13.8552 12.8813 14.0638C12.4155 14.4919 11.8931 14.8477 11.3302 15.1205C11.6462 14.6529 11.9243 14.105 12.1572 13.4943ZM12.5064 12.3895C12.7333 11.5224 12.8758 10.57 12.9148 9.56296H15.0581C14.9473 10.9557 14.4331 12.2299 13.6334 13.2551C13.2859 12.9306 12.9071 12.6432 12.5064 12.3895ZM12.915 8.43796C12.8759 7.43091 12.7335 6.47853 12.5065 5.6114C12.9072 5.35775 13.2859 5.07034 13.6337 4.74585C14.4334 5.77101 14.9476 7.04525 15.0584 8.43796H12.915Z" fill="white"/>
</svg>
