<svg width="12" height="23" viewBox="0 0 12 23" fill="none" xmlns="http://www.w3.org/2000/svg">
<path fill-rule="evenodd" clip-rule="evenodd" d="M8.00049 3.19252L7.9936 3.19259H7.98654C7.41455 3.19259 6.93609 3.66927 6.93609 4.24303V22.0076H3.74365V4.24303C3.74365 1.90174 5.65454 0.0034266 7.9805 0.000149825L7.98917 9.90312e-05L8.02624 1.9372e-06C8.05725 -1.70127e-05 8.10064 9.7273e-05 8.1536 0.000602377C8.25889 0.00160643 8.40517 0.00418353 8.56907 0.0105769C8.85536 0.0217442 9.33915 0.0485585 9.73228 0.13982L9.74872 0.143637L9.76508 0.147801C10.0986 0.232692 10.7069 0.458914 11.1265 0.618039C11.3597 0.70647 11.5776 0.790906 11.7368 0.85309C11.8166 0.88424 11.882 0.909945 11.9277 0.927949L12 0.956522L10.8228 3.92399L10.7572 3.89808C10.7142 3.88113 10.6519 3.85665 10.5756 3.82685C10.4227 3.76715 10.215 3.68668 9.99447 3.60304C9.77276 3.51896 9.54389 3.4339 9.347 3.36411C9.24852 3.32921 9.16309 3.29992 9.09364 3.27728C9.05913 3.26603 9.03128 3.25731 9.00972 3.25084C9.00439 3.24924 8.99978 3.24788 8.99584 3.24673" fill="white"/>
<path fill-rule="evenodd" clip-rule="evenodd" d="M10.4555 7.62897H0V10.8164H10.0049L10.4555 7.62897Z" fill="white"/>
</svg>
