<svg width="20" height="20" viewBox="0 0 20 20" fill="none" xmlns="http://www.w3.org/2000/svg">
<g clip-path="url(#clip0_0_51016)">
<path fill-rule="evenodd" clip-rule="evenodd" d="M6.59574 3.45449C6.59574 1.54663 8.11987 0 10 0C11.8801 0 13.4043 1.54663 13.4043 3.45449C13.4043 4.52957 12.9202 5.48984 12.1618 6.12318C13.2705 6.67805 14.142 7.64626 14.5812 8.8299C14.7412 9.26115 14.6349 9.68022 14.38 9.98379C14.1286 10.2834 13.7341 10.4713 13.3047 10.4713H6.69532C6.26587 10.4713 5.8714 10.2834 5.61996 9.98379C5.36515 9.68022 5.25877 9.26115 5.41877 8.8299C5.85796 7.64626 6.72949 6.67805 7.83821 6.12318C7.07983 5.48984 6.59574 4.52957 6.59574 3.45449ZM4.32174 13.6021C3.89254 13.6021 3.5305 13.9264 3.47726 14.3586L3.35541 15.3478C4.13966 15.7314 4.68085 16.5457 4.68085 17.4884C4.68085 18.8 3.63301 19.8633 2.34043 19.8633C1.04784 19.8633 0 18.8 0 17.4884C0 16.4183 0.697434 15.5135 1.65621 15.2165L1.78828 14.1443C1.94799 12.8478 3.03412 11.8748 4.32174 11.8748H15.6783C16.9659 11.8748 18.052 12.8478 18.2117 14.1443L18.3438 15.2165C19.3026 15.5135 20 16.4183 20 17.4884C20 18.8 18.9522 19.8633 17.6596 19.8633C16.367 19.8633 15.3191 18.8 15.3191 17.4884C15.3191 16.5457 15.8603 15.7314 16.6446 15.3478L16.5227 14.3586C16.4695 13.9264 16.1074 13.6021 15.6783 13.6021H10.8511V15.2753C11.7229 15.6208 12.3404 16.4814 12.3404 17.4884C12.3404 18.8 11.2926 19.8633 10 19.8633C8.7074 19.8633 7.65957 18.8 7.65957 17.4884C7.65957 16.4814 8.27715 15.6208 9.14894 15.2753V13.6021H4.32174Z" fill="#808994"/>
</g>
<defs>
<clipPath id="clip0_0_51016">
<rect width="20" height="20" fill="white"/>
</clipPath>
</defs>
</svg>
