<svg width="20" height="14" viewBox="0 0 20 14" fill="none" xmlns="http://www.w3.org/2000/svg">
<g opacity="0.8">
<path fill-rule="evenodd" clip-rule="evenodd" d="M3.58941 10.3366L5.11916 8.8121C4.00934 8.15015 3.10949 7.40797 2.52958 6.8764C3.81937 5.69292 6.7089 3.42625 9.99836 3.42625C10.1583 3.42625 10.3083 3.43628 10.4683 3.44631L12.298 1.61091C11.5581 1.43038 10.7882 1.33008 9.99836 1.33008C4.64924 1.33008 0.439928 5.98378 0.269956 6.17434C-0.0899852 6.57552 -0.0899852 7.17729 0.269956 7.57847C0.359941 7.68879 1.61973 9.07286 3.58941 10.3366Z" fill="#ABB6CA"/>
<path fill-rule="evenodd" clip-rule="evenodd" d="M14.8809 4.94274C15.9907 5.60469 16.8906 6.3569 17.4605 6.87844C16.1807 8.06192 13.2812 10.3286 10.0017 10.3286C9.84175 10.3286 9.68178 10.3286 9.5318 10.3186L7.7021 12.154C8.43198 12.3245 9.20186 12.4248 10.0017 12.4248C15.3508 12.4248 19.5502 7.78109 19.7301 7.5805C20.0901 7.17932 20.0901 6.57755 19.7301 6.1864C19.6301 6.07608 18.3803 4.68198 16.4107 3.41826L14.8809 4.94274Z" fill="#ABB6CA"/>
<path fill-rule="evenodd" clip-rule="evenodd" d="M6.55483 11.8123L8.24455 10.1273L13.9236 4.4205L15.4734 2.86593L16.5532 1.78274C16.9631 1.38156 16.9631 0.709588 16.5532 0.308407C16.1433 -0.102802 15.4834 -0.102802 15.0734 0.308407L11.754 3.6382L6.07491 9.33496L4.51517 10.8895L3.44534 11.9727C3.03541 12.3839 3.03541 13.0459 3.44534 13.4571C3.64531 13.6577 3.91527 13.768 4.18522 13.768C4.44518 13.768 4.71513 13.6577 4.9251 13.4571L6.55483 11.8123Z" fill="#ABB6CA"/>
</g>
</svg>
