<svg width="18" height="14" viewBox="0 0 18 14" fill="none" xmlns="http://www.w3.org/2000/svg">
<path d="M18 11.7002C17.9999 12.69 17.19 13.4999 16.2002 13.5H1.7998C0.809959 13.4999 0.000106448 12.69 0 11.7002V4.05078H18V11.7002ZM2.7002 9C2.45276 9 2.25011 9.20278 2.25 9.4502C2.25 9.6977 2.4527 9.90039 2.7002 9.90039H10.125C10.3725 9.90039 10.5752 9.6977 10.5752 9.4502C10.5751 9.20278 10.3724 9 10.125 9H2.7002ZM2.7002 6.30078C2.45283 6.30078 2.25021 6.50268 2.25 6.75C2.25 6.9975 2.4527 7.2002 2.7002 7.2002H8.5498C8.79731 7.2002 9 6.9975 9 6.75C8.99979 6.50268 8.79717 6.30078 8.5498 6.30078H2.7002ZM16.2002 0C17.19 0.00010642 17.9999 0.809959 18 1.7998V3.15039H0V1.7998C0.00010653 0.809959 0.809959 0.00010653 1.7998 0H16.2002Z" fill="white"/>
</svg>
