<svg width="32" height="32" viewBox="0 0 32 32" fill="none" xmlns="http://www.w3.org/2000/svg">
<g clip-path="url(#clip0_0_44196)">
<path d="M16.0021 32.0042C24.8398 32.0042 32.0042 24.8398 32.0042 16.0021C32.0042 7.16437 24.8398 0 16.0021 0C7.16437 0 0 7.16437 0 16.0021C0 24.8398 7.16437 32.0042 16.0021 32.0042Z" fill="#4DC247"/>
<path d="M18.6194 17.1915C18.2704 17.1915 17.6014 18.4921 17.1983 18.4921C17.0932 18.4871 16.9913 18.4541 16.9033 18.3965C16.1638 18.0545 15.4824 17.5988 14.8838 17.046C14.3331 16.517 13.8777 15.8972 13.5375 15.2135C13.4964 15.1531 13.4721 15.0828 13.4668 15.0099C13.4668 14.7024 14.3935 14.129 14.3935 13.6179C14.3935 13.4849 13.712 11.6649 13.6164 11.4364C13.4835 11.0873 13.417 10.9793 13.0555 10.9793C12.8809 10.9793 12.7189 10.9419 12.561 10.9419C12.4308 10.9418 12.3019 10.9679 12.182 11.0186C12.0621 11.0693 11.9536 11.1435 11.8629 11.2369C11.5554 11.4974 11.3078 11.8212 11.1371 12.1863C10.9664 12.5513 10.8766 12.949 10.8739 13.352V13.4558C10.9234 14.398 11.2533 15.3038 11.8213 16.0571C12.9723 17.7566 14.1649 19.2442 16.0764 20.1126C16.6539 20.3786 17.9795 20.9437 18.6236 20.9437C19.384 20.9437 20.6306 20.4658 20.9381 19.6971C21.0741 19.374 21.1515 19.0293 21.1666 18.6791C21.1704 18.6113 21.1605 18.5435 21.1375 18.4796C20.3561 17.9569 19.5201 17.5208 18.6443 17.179L18.6194 17.1915ZM15.9018 24.2887C14.2592 24.2827 12.6538 23.799 11.2811 22.8967L8.04417 23.9272L9.09961 20.8066C8.05734 19.3761 7.49444 17.6525 7.49151 15.8825C7.4959 13.6537 8.38353 11.5175 9.95994 9.94187C11.5363 8.36623 13.673 7.47966 15.9018 7.47637C18.1296 7.47966 20.2652 8.3658 21.8408 9.94065C23.4164 11.5155 24.3036 13.6507 24.308 15.8784C24.3047 18.1072 23.4182 20.2439 21.8425 21.8203C20.2669 23.3967 18.1307 24.2843 15.9018 24.2887ZM15.9018 5.78516C13.2253 5.78626 10.6587 6.85 8.76605 8.74261C6.87344 10.6352 5.80971 13.2018 5.80861 15.8784C5.80495 17.7149 6.3051 19.5172 7.25465 21.0891L5.90418 25.1115C5.86114 25.2422 5.85498 25.3822 5.8864 25.5162C5.91781 25.6501 5.98557 25.7729 6.08222 25.8708C6.17887 25.9687 6.30068 26.0381 6.43422 26.0713C6.56776 26.1045 6.70787 26.1002 6.83912 26.0589L10.9944 24.7167C13.3382 26.0086 16.099 26.3172 18.6702 25.5747C21.2415 24.8322 23.4127 23.0993 24.7069 20.7567C25.5287 19.2639 25.9577 17.5867 25.9535 15.8825C25.9513 13.2063 24.8872 10.6404 22.9948 8.74798C21.1025 6.85561 18.5365 5.79151 15.8603 5.78931L15.9018 5.78516Z" fill="white"/>
</g>
<defs>
<clipPath id="clip0_0_44196">
<rect width="32" height="32" fill="white"/>
</clipPath>
</defs>
</svg>
