<svg width="45" height="16" viewBox="0 0 45 16" fill="none" xmlns="http://www.w3.org/2000/svg">
<path d="M38.2637 0.203865C38.6569 0.186983 39.038 0.337573 39.3306 0.616871L43.9756 5.04997L43.9839 5.05755L43.9912 5.06714L44.4003 5.56015L44.4876 5.67537C44.868 6.22478 44.9005 6.97383 44.5688 7.55397L44.4917 7.6753L44.1268 8.20275L44.1202 8.21196L44.1127 8.22121L39.8675 13.0385C39.6001 13.3419 39.2333 13.524 38.8401 13.5411L2.22735 15.1235C1.37028 15.1603 0.676254 14.4278 0.637423 13.5322L0.204248 3.50978C0.165537 2.6141 0.793778 1.82354 1.65091 1.78628L38.2637 0.203865Z" stroke="white" stroke-width="0.4"/>
</svg>
