<svg width="16" height="12" viewBox="0 0 16 12" fill="none" xmlns="http://www.w3.org/2000/svg">
<path d="M15.1057 4.95838C15.2233 4.95572 15.3401 4.97802 15.4485 5.0238C15.5569 5.06959 15.6543 5.13782 15.7344 5.22401C15.8191 5.30705 15.8863 5.4063 15.9319 5.51581C15.9775 5.62533 16.0007 5.74289 16 5.86153L16 7.07461C15.9995 7.19176 15.9758 7.30763 15.9302 7.41554C15.8846 7.52346 15.818 7.62126 15.7344 7.70327C15.6543 7.78946 15.5569 7.85768 15.4485 7.90347C15.3401 7.94926 15.2233 7.97156 15.1057 7.96889L3.42667 7.96889C3.58467 7.92605 3.73871 7.86977 3.8871 7.80065C4.04157 7.72082 4.17737 7.60917 4.28555 7.47304C4.62202 7.0923 4.95849 6.67616 5.30381 6.24229C5.64914 5.80842 5.9679 5.35683 6.26895 4.95838L15.1057 4.95838Z" fill="white"/>
<path d="M13.1223 9.03144C13.2394 9.03193 13.3553 9.05564 13.4632 9.10124C13.5712 9.14684 13.669 9.2134 13.751 9.29707C13.8341 9.38085 13.8996 9.48042 13.9437 9.5899C13.9878 9.69938 14.0096 9.81657 14.0077 9.93459L14.0077 11.0503C14.0084 11.1668 13.9861 11.2823 13.942 11.3902C13.8979 11.4981 13.833 11.5962 13.751 11.6789C13.669 11.7626 13.5712 11.8291 13.4632 11.8747C13.3553 11.9203 13.2394 11.9441 13.1223 11.9446L1.00056 11.9446C0.881915 11.9453 0.764343 11.9221 0.654827 11.8764C0.545311 11.8308 0.446082 11.7636 0.363034 11.6789C0.27937 11.5969 0.212812 11.4991 0.167215 11.3912C0.121618 11.2833 0.0978879 11.1674 0.0974015 11.0503L0.0974014 9.93459C0.0967081 9.81595 0.119864 9.69839 0.165496 9.58888C0.211128 9.47936 0.278304 9.38012 0.363034 9.29707C0.446082 9.21234 0.545311 9.14517 0.654827 9.09954C0.764343 9.05391 0.881915 9.03075 1.00055 9.03145L13.1223 9.03144Z" fill="white"/>
<path d="M5.08245 2.03643L5.08245 1.91245C5.08245 1.85047 5.08245 1.74421 5.08245 1.60254C5.08245 1.46087 5.08245 1.24837 5.08245 0.973884L15.1057 0.973883C15.2233 0.971217 15.3401 0.993515 15.4485 1.0393C15.5569 1.08509 15.6543 1.15332 15.7344 1.23951C15.8191 1.32255 15.8863 1.4218 15.9319 1.53131C15.9775 1.64083 16.0007 1.75839 16 1.87703L16 3.07238C15.9995 3.18953 15.9758 3.30543 15.9302 3.41334C15.8846 3.52126 15.818 3.61904 15.7344 3.70104C15.6543 3.78723 15.5569 3.85548 15.4485 3.90127C15.3401 3.94706 15.2233 3.96936 15.1057 3.96669L7.06585 3.96669C7.1016 3.94415 7.13185 3.91389 7.15439 3.87814L7.22523 3.78959C7.33299 3.63457 7.39998 3.45491 7.42003 3.26718C7.43992 3.07019 7.41882 2.87122 7.35805 2.68279C7.29293 2.50424 7.18677 2.34349 7.04814 2.2135C6.89644 2.08836 6.7046 2.02232 6.50802 2.02756L5.08245 2.02757L5.08245 2.03643Z" fill="white"/>
<path d="M0.33647 3.82501L0.097399 3.42655C0.0449965 3.34991 0.0116074 3.26191 -7.67116e-07 3.16979C-7.72535e-07 3.10781 1.77267e-07 3.06352 0.115109 3.03696C0.245018 3.00265 0.379287 2.98774 0.51356 2.99269L1.399 2.99269C1.49361 3.0012 1.58895 2.98984 1.67892 2.95935C1.76888 2.92885 1.85148 2.87988 1.92141 2.81559C1.98088 2.75506 2.02728 2.68297 2.05774 2.60377C2.0882 2.52457 2.10208 2.43995 2.0985 2.35517L2.0985 0.814507C2.10866 0.611098 2.19383 0.418654 2.33757 0.274371C2.40493 0.188526 2.49098 0.119194 2.58918 0.0716288C2.68738 0.0240624 2.79514 -0.000482358 2.90426 -0.00011425L3.53293 -0.000114305C3.61139 0.000380645 3.68889 0.0171653 3.76052 0.0491735C3.83216 0.0811807 3.89637 0.127707 3.94908 0.185822C4.09367 0.368436 4.16047 0.600678 4.13503 0.832206C4.14164 0.917671 4.14164 1.00353 4.13503 1.08899C4.13005 1.13904 4.13005 1.18945 4.13503 1.2395C4.13503 1.29263 4.13503 1.39004 4.13503 1.53171C4.13503 1.67339 4.13503 1.9036 4.13503 2.24892C4.11679 2.44841 4.16673 2.64816 4.2767 2.81559C4.33613 2.88158 4.41068 2.93218 4.49396 2.96302C4.57724 2.99387 4.66676 3.00405 4.75484 2.99269L5.64028 2.99269C5.72343 2.98089 5.80818 2.98832 5.888 3.01442C5.96782 3.04051 6.04059 3.08459 6.10071 3.14323C6.1627 3.24948 6.10071 3.40001 5.94133 3.61252L5.40121 4.35629L4.19701 6.12717C4.00221 6.41052 3.80741 6.66728 3.63032 6.88864C3.5549 6.97764 3.45709 7.04489 3.34698 7.08344C3.23025 7.13663 3.10337 7.16382 2.9751 7.16313C2.8611 7.18579 2.74376 7.18579 2.62977 7.16313C2.53563 7.13577 2.45217 7.08014 2.3907 7.00376L1.94798 6.25999C1.7886 5.99435 1.61151 5.71985 1.43442 5.44537C1.25733 5.17088 1.07139 4.8964 0.903154 4.62191L0.41616 3.86928L0.33647 3.82501Z" fill="white"/>
</svg>
