<svg width="22" height="22" viewBox="0 0 22 22" fill="none" xmlns="http://www.w3.org/2000/svg">
<g opacity="0.8">
<path d="M18.1452 5.49836C17.9284 5.30125 17.6524 5.20269 17.3568 5.20269H17.2779C17.2582 5.20269 17.0808 5.2224 16.7852 5.2224C16.0164 5.2224 15.228 5.14356 14.479 4.98587C13.3357 4.70992 12.0151 3.44842 11.6209 3.19218C11.2267 2.93594 10.7339 2.93594 10.3397 3.19218C10.3003 3.2316 8.90079 4.65079 7.56045 4.98587C6.79172 5.14356 6.023 5.24212 5.23456 5.2224C4.9389 5.2224 4.7615 5.20269 4.74179 5.20269H4.66294C4.36728 5.20269 4.09133 5.30125 3.87451 5.49836C3.63798 5.71518 3.51971 6.01084 3.5 6.3065V9.08574C3.5 19.3945 10.4777 20.7152 10.7733 20.7743C10.9113 20.794 11.0493 20.794 11.1873 20.7743C11.4829 20.7152 18.5 19.3945 18.5 9.08574V6.32622C18.5 6.01084 18.362 5.71518 18.1452 5.49836ZM15.5631 9.49967L10.7339 14.1712C10.6945 14.2303 10.6748 14.2697 10.6156 14.3091C10.32 14.5654 9.88633 14.5654 9.59067 14.3091C9.55125 14.2697 9.51183 14.2106 9.4724 14.1712L6.89028 11.6679C6.63403 11.4116 6.61432 10.9977 6.87056 10.7217L6.89028 10.702C7.16623 10.4458 7.59987 10.4458 7.89553 10.702L10.1032 12.8505L14.5578 8.53384C14.8338 8.2776 15.2674 8.2776 15.5631 8.53384C15.8193 8.79008 15.839 9.20401 15.5828 9.47996C15.5828 9.47996 15.5631 9.47996 15.5631 9.49967Z" fill="#F28709"/>
</g>
</svg>
