<svg width="20" height="20" viewBox="0 0 20 20" fill="none" xmlns="http://www.w3.org/2000/svg">
<g clip-path="url(#clip0_0_38880)">
<mask id="mask0_0_38880" style="mask-type:luminance" maskUnits="userSpaceOnUse" x="0" y="-1" width="20" height="22">
<path d="M19.0435 -0.0136719H0V20.0228H19.0435V-0.0136719Z" fill="white"/>
</mask>
<g mask="url(#mask0_0_38880)">
<path d="M17.5174 15.9934C17.5174 17.0546 17.0959 18.0724 16.3455 18.8229C15.5951 19.5733 14.5772 19.9948 13.516 19.9948H5.48387C4.42261 19.9948 3.40479 19.5733 2.65437 18.8229C1.90395 18.0724 1.48242 17.0546 1.48242 15.9934V9.9985C1.48242 9.73318 1.58754 9.47873 1.77514 9.29112C1.96275 9.10352 2.2172 8.99805 2.48252 8.99805H4.44669C4.71201 8.99805 4.96646 9.10352 5.15407 9.29112C5.34167 9.47873 5.44714 9.73318 5.44714 9.9985V13.1384C5.44908 13.5016 5.54935 13.8575 5.73701 14.1686C5.92468 14.4796 6.19273 14.7343 6.5132 14.9054C6.79879 15.0649 7.12094 15.1479 7.44805 15.1464C7.83727 15.1453 8.2178 15.031 8.54334 14.8177L9.49244 14.1971L10.3688 14.7886C10.6696 14.9922 11.0201 15.1096 11.3828 15.1284C11.7455 15.1472 12.1066 15.0666 12.4268 14.8952C12.747 14.7238 13.0142 14.4681 13.1997 14.1559C13.3853 13.8437 13.4818 13.4869 13.4793 13.1237V9.9985C13.4793 9.73318 13.5847 9.47873 13.7723 9.29112C13.96 9.10352 14.2144 8.99805 14.4797 8.99805H16.4806C16.7459 8.99805 17 9.10352 17.1876 9.29112C17.3752 9.47873 17.4807 9.73318 17.4807 9.9985L17.5174 15.9934Z" fill="#808994"/>
<path d="M19.043 5.9966C19.0732 6.26668 19.0424 6.54003 18.9525 6.7965C18.8626 7.05297 18.7161 7.28586 18.5239 7.47803C18.3318 7.67019 18.0987 7.81671 17.8422 7.90659C17.5857 7.99646 17.3122 8.0275 17.0421 7.99733H2.03681C1.76527 8.03488 1.48875 8.00901 1.22889 7.92174C0.969023 7.83447 0.732817 7.68808 0.538982 7.49425C0.345147 7.30041 0.199113 7.06438 0.111847 6.80452C0.0245815 6.54466 -0.00129438 6.26814 0.036261 5.9966V4.99615C-0.00129438 4.72461 0.0245815 4.4481 0.111847 4.18823C0.199113 3.92837 0.345147 3.69234 0.538982 3.49851C0.732817 3.30467 0.969023 3.15828 1.22889 3.07101C1.48875 2.98375 1.76527 2.95787 2.03681 2.99543H17.0421C17.3125 2.96383 17.5865 2.99394 17.8436 3.08332C18.1008 3.17269 18.3346 3.31904 18.5271 3.51152C18.7196 3.704 18.866 3.93753 18.9553 4.19465C19.0447 4.45177 19.0746 4.72578 19.043 4.99615V5.9966Z" fill="#808994"/>
<path d="M3.63582 2.99547C3.46718 2.82116 3.37305 2.58821 3.37305 2.34568C3.37305 2.10314 3.46718 1.87001 3.63582 1.6957L5.0962 0.279171C5.27551 0.100366 5.51862 0 5.77185 0C6.02507 0 6.26782 0.100366 6.44713 0.279171L9.16361 2.99547H3.63582ZM9.8717 2.99547L12.5882 0.279171C12.7675 0.100366 13.0102 0 13.2635 0C13.5167 0 13.7594 0.100366 13.9387 0.279171L15.3628 1.6957C15.5314 1.87001 15.6255 2.10314 15.6255 2.34568C15.6255 2.58821 15.5314 2.82116 15.3628 2.99547H9.8717ZM12.4858 9.99809V13.1233C12.4888 13.3049 12.4411 13.4836 12.3482 13.6396C12.2554 13.7956 12.1209 13.9229 11.96 14.0068C11.801 14.0919 11.622 14.1321 11.4419 14.1231C11.2618 14.1141 11.0875 14.0562 10.9378 13.9557L10.0396 13.3569C9.87572 13.2497 9.68423 13.1927 9.48842 13.1927C9.2926 13.1927 9.10112 13.2497 8.93721 13.3569L7.99523 13.9776C7.84567 14.0756 7.67222 14.1314 7.49358 14.1391C7.31493 14.1468 7.13761 14.1062 6.98016 14.0215C6.82186 13.9361 6.6894 13.8097 6.59688 13.6555C6.50436 13.5013 6.45505 13.3251 6.45426 13.1453V9.99809C6.45426 9.73278 6.55973 9.47832 6.74734 9.29071C6.93494 9.10311 7.1894 8.99764 7.45471 8.99764H11.4854C11.7507 8.99764 12.0052 9.10311 12.1928 9.29071C12.3804 9.47832 12.4858 9.73278 12.4858 9.99809Z" fill="#808994"/>
</g>
</g>
<defs>
<clipPath id="clip0_0_38880">
<rect width="19.0288" height="20" fill="white"/>
</clipPath>
</defs>
</svg>
