<svg width="88" height="88" viewBox="0 0 88 88" fill="none" xmlns="http://www.w3.org/2000/svg">
<g clip-path="url(#clip0_0_34194)">
<path d="M84 0H4C1.79086 0 0 1.79086 0 4V84C0 86.2091 1.79086 88 4 88H84C86.2091 88 88 86.2091 88 84V4C88 1.79086 86.2091 0 84 0Z" fill="#1E2024" fill-opacity="0.8"/>
<path d="M0 36H88V57H0V36Z" fill="#ABB6CA" fill-opacity="0.5"/>
<mask id="mask0_0_34194" style="mask-type:luminance" maskUnits="userSpaceOnUse" x="0" y="36" width="88" height="21">
<path d="M0 36H88V57H0V36Z" fill="white"/>
</mask>
<g mask="url(#mask0_0_34194)">
<path d="M0 37H88V35H0V37ZM88 56H0V58H88V56Z" fill="#4B0E00"/>
</g>
<g filter="url(#filter0_d_0_34194)">
<path d="M26.6973 50V41.4102H28.8242L30.1016 47.2695L31.3672 41.4102H33.5V50H32.1816V43.2383L30.7812 50H29.4102L28.0215 43.2383V50H26.6973ZM35.9199 45.6758L34.6953 45.4062C34.8438 44.7773 35.0879 44.3262 35.4277 44.0527C35.7715 43.7754 36.2637 43.6367 36.9043 43.6367C37.4746 43.6367 37.9102 43.7168 38.2109 43.877C38.5117 44.0371 38.7266 44.2559 38.8555 44.5332C38.9844 44.8066 39.0488 45.3066 39.0488 46.0332L39.0371 47.9551C39.0371 48.4941 39.0586 48.8965 39.1016 49.1621C39.1445 49.4238 39.2246 49.7031 39.3418 50H38.0059L37.8301 49.3203C37.5996 49.5938 37.3516 49.7988 37.0859 49.9355C36.8242 50.0723 36.5449 50.1406 36.248 50.1406C35.752 50.1406 35.3457 49.9746 35.0293 49.6426C34.7129 49.3066 34.5547 48.8613 34.5547 48.3066C34.5547 47.9551 34.6191 47.6484 34.748 47.3867C34.877 47.125 35.0586 46.916 35.293 46.7598C35.5273 46.6035 35.9023 46.4648 36.418 46.3438C37.043 46.1992 37.4785 46.0645 37.7246 45.9395C37.7246 45.5957 37.6992 45.3711 37.6484 45.2656C37.6016 45.1562 37.5117 45.0684 37.3789 45.002C37.25 44.9316 37.0664 44.8965 36.8281 44.8965C36.5859 44.8965 36.3945 44.9512 36.2539 45.0605C36.1172 45.1699 36.0059 45.375 35.9199 45.6758ZM37.7246 47.0117C37.5527 47.082 37.2852 47.1641 36.9219 47.2578C36.5039 47.3672 36.2305 47.4883 36.1016 47.6211C35.9727 47.7539 35.9082 47.9258 35.9082 48.1367C35.9082 48.375 35.9785 48.5762 36.1191 48.7402C36.2637 48.9004 36.4434 48.9805 36.6582 48.9805C36.8496 48.9805 37.0391 48.916 37.2266 48.7871C37.4141 48.6543 37.543 48.498 37.6133 48.3184C37.6875 48.1387 37.7246 47.8125 37.7246 47.3398V47.0117ZM40.3848 42.9336V41.4102H41.7383V42.9336H40.3848ZM40.3848 50V43.7773H41.7383V50H40.3848ZM47.7676 50H46.4141V46.8242C46.4141 46.1875 46.3887 45.7637 46.3379 45.5527C46.2871 45.3418 46.1914 45.1797 46.0508 45.0664C45.9141 44.9531 45.7578 44.8965 45.582 44.8965C45.3555 44.8965 45.1504 44.9707 44.9668 45.1191C44.7832 45.2637 44.6543 45.4648 44.5801 45.7227C44.5059 45.9805 44.4688 46.4668 44.4688 47.1816V50H43.1152V43.7773H44.3691V44.6914C44.5918 44.3398 44.8418 44.0762 45.1191 43.9004C45.4004 43.7246 45.7109 43.6367 46.0508 43.6367C46.4453 43.6367 46.7773 43.7402 47.0469 43.9473C47.3203 44.1504 47.5078 44.4141 47.6094 44.7383C47.7148 45.0586 47.7676 45.5234 47.7676 46.1328V50ZM51.4707 43.7773V45.0898H50.5508V47.5977C50.5508 48.1406 50.5645 48.4551 50.5918 48.541C50.6465 48.6973 50.7578 48.7754 50.9258 48.7754C51.0508 48.7754 51.2305 48.7227 51.4648 48.6172L51.582 49.8945C51.2695 50.0586 50.916 50.1406 50.5215 50.1406C50.1777 50.1406 49.9023 50.0586 49.6953 49.8945C49.4883 49.7305 49.3496 49.4941 49.2793 49.1855C49.2246 48.959 49.1973 48.498 49.1973 47.8027V45.0898H48.5762V43.7773H49.1973V42.541L50.5508 41.5801V43.7773H51.4707ZM55.3789 48.0195L56.7207 48.2949C56.541 48.9199 56.2617 49.3848 55.8828 49.6895C55.5039 49.9902 55.043 50.1406 54.5 50.1406C53.7461 50.1406 53.1641 49.8887 52.7539 49.3848C52.2695 48.7988 52.0273 47.9785 52.0273 46.9238C52.0273 45.8848 52.2715 45.0527 52.7598 44.4277C53.1738 43.9004 53.709 43.6367 54.3652 43.6367C55.0957 43.6367 55.668 43.9062 56.082 44.4453C56.5586 45.0625 56.7969 45.9727 56.7969 47.1758L56.791 47.3633H53.4102C53.418 47.8555 53.5273 48.2363 53.7383 48.5059C53.9531 48.7754 54.2109 48.9102 54.5117 48.9102C54.9453 48.9102 55.2344 48.6133 55.3789 48.0195ZM55.4551 46.3555C55.4434 45.8711 55.3398 45.5078 55.1445 45.2656C54.9492 45.0195 54.7168 44.8965 54.4473 44.8965C54.1621 44.8965 53.9219 45.0234 53.7266 45.2773C53.5273 45.5352 53.4297 45.8945 53.4336 46.3555H55.4551ZM62.5332 50H61.1797V46.8242C61.1797 46.1875 61.1543 45.7637 61.1035 45.5527C61.0527 45.3418 60.957 45.1797 60.8164 45.0664C60.6797 44.9531 60.5234 44.8965 60.3477 44.8965C60.1211 44.8965 59.916 44.9707 59.7324 45.1191C59.5488 45.2637 59.4199 45.4648 59.3457 45.7227C59.2715 45.9805 59.2344 46.4668 59.2344 47.1816V50H57.8809V43.7773H59.1348V44.6914C59.3574 44.3398 59.6074 44.0762 59.8848 43.9004C60.166 43.7246 60.4766 43.6367 60.8164 43.6367C61.2109 43.6367 61.543 43.7402 61.8125 43.9473C62.0859 44.1504 62.2734 44.4141 62.375 44.7383C62.4805 45.0586 62.5332 45.5234 62.5332 46.1328V50ZM64.9121 45.6758L63.6875 45.4062C63.8359 44.7773 64.0801 44.3262 64.4199 44.0527C64.7637 43.7754 65.2559 43.6367 65.8965 43.6367C66.4668 43.6367 66.9023 43.7168 67.2031 43.877C67.5039 44.0371 67.7188 44.2559 67.8477 44.5332C67.9766 44.8066 68.041 45.3066 68.041 46.0332L68.0293 47.9551C68.0293 48.4941 68.0508 48.8965 68.0938 49.1621C68.1367 49.4238 68.2168 49.7031 68.334 50H66.998L66.8223 49.3203C66.5918 49.5938 66.3438 49.7988 66.0781 49.9355C65.8164 50.0723 65.5371 50.1406 65.2402 50.1406C64.7441 50.1406 64.3379 49.9746 64.0215 49.6426C63.7051 49.3066 63.5469 48.8613 63.5469 48.3066C63.5469 47.9551 63.6113 47.6484 63.7402 47.3867C63.8691 47.125 64.0508 46.916 64.2852 46.7598C64.5195 46.6035 64.8945 46.4648 65.4102 46.3438C66.0352 46.1992 66.4707 46.0645 66.7168 45.9395C66.7168 45.5957 66.6914 45.3711 66.6406 45.2656C66.5938 45.1562 66.5039 45.0684 66.3711 45.002C66.2422 44.9316 66.0586 44.8965 65.8203 44.8965C65.5781 44.8965 65.3867 44.9512 65.2461 45.0605C65.1094 45.1699 64.998 45.375 64.9121 45.6758ZM66.7168 47.0117C66.5449 47.082 66.2773 47.1641 65.9141 47.2578C65.4961 47.3672 65.2227 47.4883 65.0938 47.6211C64.9648 47.7539 64.9004 47.9258 64.9004 48.1367C64.9004 48.375 64.9707 48.5762 65.1113 48.7402C65.2559 48.9004 65.4355 48.9805 65.6504 48.9805C65.8418 48.9805 66.0312 48.916 66.2188 48.7871C66.4062 48.6543 66.5352 48.498 66.6055 48.3184C66.6797 48.1387 66.7168 47.8125 66.7168 47.3398V47.0117ZM74.0176 50H72.6641V46.8242C72.6641 46.1875 72.6387 45.7637 72.5879 45.5527C72.5371 45.3418 72.4414 45.1797 72.3008 45.0664C72.1641 44.9531 72.0078 44.8965 71.832 44.8965C71.6055 44.8965 71.4004 44.9707 71.2168 45.1191C71.0332 45.2637 70.9043 45.4648 70.8301 45.7227C70.7559 45.9805 70.7188 46.4668 70.7188 47.1816V50H69.3652V43.7773H70.6191V44.6914C70.8418 44.3398 71.0918 44.0762 71.3691 43.9004C71.6504 43.7246 71.9609 43.6367 72.3008 43.6367C72.6953 43.6367 73.0273 43.7402 73.2969 43.9473C73.5703 44.1504 73.7578 44.4141 73.8594 44.7383C73.9648 45.0586 74.0176 45.5234 74.0176 46.1328V50ZM79.8359 45.6172L78.5059 45.9102C78.4082 45.2578 78.1016 44.9316 77.5859 44.9316C77.2539 44.9316 76.9863 45.0723 76.7832 45.3535C76.5801 45.6348 76.4785 46.1094 76.4785 46.7773C76.4785 47.5156 76.5801 48.0371 76.7832 48.3418C76.9863 48.6465 77.2578 48.7988 77.5977 48.7988C77.8516 48.7988 78.0605 48.7129 78.2246 48.541C78.3887 48.3652 78.5059 48.0566 78.5762 47.6152L79.9062 47.8906C79.6328 49.3906 78.8457 50.1406 77.5449 50.1406C76.7129 50.1406 76.0957 49.8242 75.6934 49.1914C75.291 48.5586 75.0898 47.7969 75.0898 46.9062C75.0898 45.8398 75.3164 45.0293 75.7695 44.4746C76.2266 43.916 76.8242 43.6367 77.5625 43.6367C78.1602 43.6367 78.6465 43.7949 79.0215 44.1113C79.4004 44.4277 79.6719 44.9297 79.8359 45.6172ZM83.8203 48.0195L85.1621 48.2949C84.9824 48.9199 84.7031 49.3848 84.3242 49.6895C83.9453 49.9902 83.4844 50.1406 82.9414 50.1406C82.1875 50.1406 81.6055 49.8887 81.1953 49.3848C80.7109 48.7988 80.4688 47.9785 80.4688 46.9238C80.4688 45.8848 80.7129 45.0527 81.2012 44.4277C81.6152 43.9004 82.1504 43.6367 82.8066 43.6367C83.5371 43.6367 84.1094 43.9062 84.5234 44.4453C85 45.0625 85.2383 45.9727 85.2383 47.1758L85.2324 47.3633H81.8516C81.8594 47.8555 81.9688 48.2363 82.1797 48.5059C82.3945 48.7754 82.6523 48.9102 82.9531 48.9102C83.3867 48.9102 83.6758 48.6133 83.8203 48.0195ZM83.8965 46.3555C83.8848 45.8711 83.7812 45.5078 83.5859 45.2656C83.3906 45.0195 83.1582 44.8965 82.8887 44.8965C82.6035 44.8965 82.3633 45.0234 82.168 45.2773C81.9688 45.5352 81.8711 45.8945 81.875 46.3555H83.8965Z" fill="#E3FECE"/>
<mask id="mask1_0_34194" style="mask-type:luminance" maskUnits="userSpaceOnUse" x="26" y="40" width="60" height="11">
<path d="M86 40H26V51H86V40Z" fill="white"/>
<path d="M26.6973 50V41.4102H28.8242L30.1016 47.2695L31.3672 41.4102H33.5V50H32.1816V43.2383L30.7812 50H29.4102L28.0215 43.2383V50H26.6973ZM35.9199 45.6758L34.6953 45.4062C34.8438 44.7773 35.0879 44.3262 35.4277 44.0527C35.7715 43.7754 36.2637 43.6367 36.9043 43.6367C37.4746 43.6367 37.9102 43.7168 38.2109 43.877C38.5117 44.0371 38.7266 44.2559 38.8555 44.5332C38.9844 44.8066 39.0488 45.3066 39.0488 46.0332L39.0371 47.9551C39.0371 48.4941 39.0586 48.8965 39.1016 49.1621C39.1445 49.4238 39.2246 49.7031 39.3418 50H38.0059L37.8301 49.3203C37.5996 49.5938 37.3516 49.7988 37.0859 49.9355C36.8242 50.0723 36.5449 50.1406 36.248 50.1406C35.752 50.1406 35.3457 49.9746 35.0293 49.6426C34.7129 49.3066 34.5547 48.8613 34.5547 48.3066C34.5547 47.9551 34.6191 47.6484 34.748 47.3867C34.877 47.125 35.0586 46.916 35.293 46.7598C35.5273 46.6035 35.9023 46.4648 36.418 46.3438C37.043 46.1992 37.4785 46.0645 37.7246 45.9395C37.7246 45.5957 37.6992 45.3711 37.6484 45.2656C37.6016 45.1562 37.5117 45.0684 37.3789 45.002C37.25 44.9316 37.0664 44.8965 36.8281 44.8965C36.5859 44.8965 36.3945 44.9512 36.2539 45.0605C36.1172 45.1699 36.0059 45.375 35.9199 45.6758ZM37.7246 47.0117C37.5527 47.082 37.2852 47.1641 36.9219 47.2578C36.5039 47.3672 36.2305 47.4883 36.1016 47.6211C35.9727 47.7539 35.9082 47.9258 35.9082 48.1367C35.9082 48.375 35.9785 48.5762 36.1191 48.7402C36.2637 48.9004 36.4434 48.9805 36.6582 48.9805C36.8496 48.9805 37.0391 48.916 37.2266 48.7871C37.4141 48.6543 37.543 48.498 37.6133 48.3184C37.6875 48.1387 37.7246 47.8125 37.7246 47.3398V47.0117ZM40.3848 42.9336V41.4102H41.7383V42.9336H40.3848ZM40.3848 50V43.7773H41.7383V50H40.3848ZM47.7676 50H46.4141V46.8242C46.4141 46.1875 46.3887 45.7637 46.3379 45.5527C46.2871 45.3418 46.1914 45.1797 46.0508 45.0664C45.9141 44.9531 45.7578 44.8965 45.582 44.8965C45.3555 44.8965 45.1504 44.9707 44.9668 45.1191C44.7832 45.2637 44.6543 45.4648 44.5801 45.7227C44.5059 45.9805 44.4688 46.4668 44.4688 47.1816V50H43.1152V43.7773H44.3691V44.6914C44.5918 44.3398 44.8418 44.0762 45.1191 43.9004C45.4004 43.7246 45.7109 43.6367 46.0508 43.6367C46.4453 43.6367 46.7773 43.7402 47.0469 43.9473C47.3203 44.1504 47.5078 44.4141 47.6094 44.7383C47.7148 45.0586 47.7676 45.5234 47.7676 46.1328V50ZM51.4707 43.7773V45.0898H50.5508V47.5977C50.5508 48.1406 50.5645 48.4551 50.5918 48.541C50.6465 48.6973 50.7578 48.7754 50.9258 48.7754C51.0508 48.7754 51.2305 48.7227 51.4648 48.6172L51.582 49.8945C51.2695 50.0586 50.916 50.1406 50.5215 50.1406C50.1777 50.1406 49.9023 50.0586 49.6953 49.8945C49.4883 49.7305 49.3496 49.4941 49.2793 49.1855C49.2246 48.959 49.1973 48.498 49.1973 47.8027V45.0898H48.5762V43.7773H49.1973V42.541L50.5508 41.5801V43.7773H51.4707ZM55.3789 48.0195L56.7207 48.2949C56.541 48.9199 56.2617 49.3848 55.8828 49.6895C55.5039 49.9902 55.043 50.1406 54.5 50.1406C53.7461 50.1406 53.1641 49.8887 52.7539 49.3848C52.2695 48.7988 52.0273 47.9785 52.0273 46.9238C52.0273 45.8848 52.2715 45.0527 52.7598 44.4277C53.1738 43.9004 53.709 43.6367 54.3652 43.6367C55.0957 43.6367 55.668 43.9062 56.082 44.4453C56.5586 45.0625 56.7969 45.9727 56.7969 47.1758L56.791 47.3633H53.4102C53.418 47.8555 53.5273 48.2363 53.7383 48.5059C53.9531 48.7754 54.2109 48.9102 54.5117 48.9102C54.9453 48.9102 55.2344 48.6133 55.3789 48.0195ZM55.4551 46.3555C55.4434 45.8711 55.3398 45.5078 55.1445 45.2656C54.9492 45.0195 54.7168 44.8965 54.4473 44.8965C54.1621 44.8965 53.9219 45.0234 53.7266 45.2773C53.5273 45.5352 53.4297 45.8945 53.4336 46.3555H55.4551ZM62.5332 50H61.1797V46.8242C61.1797 46.1875 61.1543 45.7637 61.1035 45.5527C61.0527 45.3418 60.957 45.1797 60.8164 45.0664C60.6797 44.9531 60.5234 44.8965 60.3477 44.8965C60.1211 44.8965 59.916 44.9707 59.7324 45.1191C59.5488 45.2637 59.4199 45.4648 59.3457 45.7227C59.2715 45.9805 59.2344 46.4668 59.2344 47.1816V50H57.8809V43.7773H59.1348V44.6914C59.3574 44.3398 59.6074 44.0762 59.8848 43.9004C60.166 43.7246 60.4766 43.6367 60.8164 43.6367C61.2109 43.6367 61.543 43.7402 61.8125 43.9473C62.0859 44.1504 62.2734 44.4141 62.375 44.7383C62.4805 45.0586 62.5332 45.5234 62.5332 46.1328V50ZM64.9121 45.6758L63.6875 45.4062C63.8359 44.7773 64.0801 44.3262 64.4199 44.0527C64.7637 43.7754 65.2559 43.6367 65.8965 43.6367C66.4668 43.6367 66.9023 43.7168 67.2031 43.877C67.5039 44.0371 67.7188 44.2559 67.8477 44.5332C67.9766 44.8066 68.041 45.3066 68.041 46.0332L68.0293 47.9551C68.0293 48.4941 68.0508 48.8965 68.0938 49.1621C68.1367 49.4238 68.2168 49.7031 68.334 50H66.998L66.8223 49.3203C66.5918 49.5938 66.3438 49.7988 66.0781 49.9355C65.8164 50.0723 65.5371 50.1406 65.2402 50.1406C64.7441 50.1406 64.3379 49.9746 64.0215 49.6426C63.7051 49.3066 63.5469 48.8613 63.5469 48.3066C63.5469 47.9551 63.6113 47.6484 63.7402 47.3867C63.8691 47.125 64.0508 46.916 64.2852 46.7598C64.5195 46.6035 64.8945 46.4648 65.4102 46.3438C66.0352 46.1992 66.4707 46.0645 66.7168 45.9395C66.7168 45.5957 66.6914 45.3711 66.6406 45.2656C66.5938 45.1562 66.5039 45.0684 66.3711 45.002C66.2422 44.9316 66.0586 44.8965 65.8203 44.8965C65.5781 44.8965 65.3867 44.9512 65.2461 45.0605C65.1094 45.1699 64.998 45.375 64.9121 45.6758ZM66.7168 47.0117C66.5449 47.082 66.2773 47.1641 65.9141 47.2578C65.4961 47.3672 65.2227 47.4883 65.0938 47.6211C64.9648 47.7539 64.9004 47.9258 64.9004 48.1367C64.9004 48.375 64.9707 48.5762 65.1113 48.7402C65.2559 48.9004 65.4355 48.9805 65.6504 48.9805C65.8418 48.9805 66.0312 48.916 66.2188 48.7871C66.4062 48.6543 66.5352 48.498 66.6055 48.3184C66.6797 48.1387 66.7168 47.8125 66.7168 47.3398V47.0117ZM74.0176 50H72.6641V46.8242C72.6641 46.1875 72.6387 45.7637 72.5879 45.5527C72.5371 45.3418 72.4414 45.1797 72.3008 45.0664C72.1641 44.9531 72.0078 44.8965 71.832 44.8965C71.6055 44.8965 71.4004 44.9707 71.2168 45.1191C71.0332 45.2637 70.9043 45.4648 70.8301 45.7227C70.7559 45.9805 70.7188 46.4668 70.7188 47.1816V50H69.3652V43.7773H70.6191V44.6914C70.8418 44.3398 71.0918 44.0762 71.3691 43.9004C71.6504 43.7246 71.9609 43.6367 72.3008 43.6367C72.6953 43.6367 73.0273 43.7402 73.2969 43.9473C73.5703 44.1504 73.7578 44.4141 73.8594 44.7383C73.9648 45.0586 74.0176 45.5234 74.0176 46.1328V50ZM79.8359 45.6172L78.5059 45.9102C78.4082 45.2578 78.1016 44.9316 77.5859 44.9316C77.2539 44.9316 76.9863 45.0723 76.7832 45.3535C76.5801 45.6348 76.4785 46.1094 76.4785 46.7773C76.4785 47.5156 76.5801 48.0371 76.7832 48.3418C76.9863 48.6465 77.2578 48.7988 77.5977 48.7988C77.8516 48.7988 78.0605 48.7129 78.2246 48.541C78.3887 48.3652 78.5059 48.0566 78.5762 47.6152L79.9062 47.8906C79.6328 49.3906 78.8457 50.1406 77.5449 50.1406C76.7129 50.1406 76.0957 49.8242 75.6934 49.1914C75.291 48.5586 75.0898 47.7969 75.0898 46.9062C75.0898 45.8398 75.3164 45.0293 75.7695 44.4746C76.2266 43.916 76.8242 43.6367 77.5625 43.6367C78.1602 43.6367 78.6465 43.7949 79.0215 44.1113C79.4004 44.4277 79.6719 44.9297 79.8359 45.6172ZM83.8203 48.0195L85.1621 48.2949C84.9824 48.9199 84.7031 49.3848 84.3242 49.6895C83.9453 49.9902 83.4844 50.1406 82.9414 50.1406C82.1875 50.1406 81.6055 49.8887 81.1953 49.3848C80.7109 48.7988 80.4688 47.9785 80.4688 46.9238C80.4688 45.8848 80.7129 45.0527 81.2012 44.4277C81.6152 43.9004 82.1504 43.6367 82.8066 43.6367C83.5371 43.6367 84.1094 43.9062 84.5234 44.4453C85 45.0625 85.2383 45.9727 85.2383 47.1758L85.2324 47.3633H81.8516C81.8594 47.8555 81.9688 48.2363 82.1797 48.5059C82.3945 48.7754 82.6523 48.9102 82.9531 48.9102C83.3867 48.9102 83.6758 48.6133 83.8203 48.0195ZM83.8965 46.3555C83.8848 45.8711 83.7812 45.5078 83.5859 45.2656C83.3906 45.0195 83.1582 44.8965 82.8887 44.8965C82.6035 44.8965 82.3633 45.0234 82.168 45.2773C81.9688 45.5352 81.8711 45.8945 81.875 46.3555H83.8965Z" fill="black"/>
</mask>
<g mask="url(#mask1_0_34194)">
<path d="M26.6973 49.9994H26.1973V50.4994H26.6973V49.9994ZM26.6973 41.4096V40.9096H26.1973V41.4096H26.6973ZM28.8242 41.4096L29.3127 41.3031L29.227 40.9096H28.8242V41.4096ZM30.1016 47.2689L29.613 47.3754L30.5903 47.3745L30.1016 47.2689ZM31.3672 41.4096V40.9096H30.9637L30.8785 41.304L31.3672 41.4096ZM33.5 41.4096H34V40.9096H33.5V41.4096ZM33.5 49.9994V50.4994H34V49.9994H33.5ZM32.1816 49.9994H31.6816V50.4994H32.1816V49.9994ZM32.1816 43.2377H32.6816L31.692 43.1363L32.1816 43.2377ZM30.7812 49.9994V50.4994H31.1883L31.2709 50.1008L30.7812 49.9994ZM29.4102 49.9994L28.9204 50.1L29.0024 50.4994H29.4102V49.9994ZM28.0215 43.2377L28.5113 43.1371L27.5215 43.2377H28.0215ZM28.0215 49.9994V50.4994H28.5215V49.9994H28.0215ZM27.1973 49.9994V41.4096H26.1973V49.9994H27.1973ZM26.6973 41.9096H28.8242V40.9096H26.6973V41.9096ZM28.3357 41.5161L29.613 47.3754L30.5901 47.1624L29.3127 41.3031L28.3357 41.5161ZM30.5903 47.3745L31.8559 41.5151L30.8785 41.304L29.6128 47.1634L30.5903 47.3745ZM31.3672 41.9096H33.5V40.9096H31.3672V41.9096ZM33 41.4096V49.9994H34V41.4096H33ZM33.5 49.4994H32.1816V50.4994H33.5V49.4994ZM32.6816 49.9994V43.2377H31.6816V49.9994H32.6816ZM31.692 43.1363L30.2916 49.898L31.2709 50.1008L32.6713 43.3391L31.692 43.1363ZM30.7812 49.4994H29.4102V50.4994H30.7812V49.4994ZM29.8999 49.8988L28.5113 43.1371L27.5317 43.3383L28.9204 50.1L29.8999 49.8988ZM27.5215 43.2377V49.9994H28.5215V43.2377H27.5215ZM28.0215 49.4994H26.6973V50.4994H28.0215V49.4994ZM35.9199 45.6752L35.8124 46.1635L36.2715 46.2645L36.4007 45.8125L35.9199 45.6752ZM34.6953 45.4056L34.2087 45.2908L34.0921 45.7848L34.5878 45.894L34.6953 45.4056ZM38.8555 44.5326L38.402 44.7433L38.4032 44.7458L38.8555 44.5326ZM39.0488 46.0326L39.5488 46.0357V46.0326H39.0488ZM39.0371 47.9545L38.5371 47.9514V47.9545H39.0371ZM39.1016 49.1615L38.608 49.2414L38.6082 49.2425L39.1016 49.1615ZM39.3418 49.9994V50.4994H40.0767L39.8069 49.8158L39.3418 49.9994ZM38.0059 49.9994L37.5218 50.1246L37.6187 50.4994H38.0059V49.9994ZM37.8301 49.3197L38.3142 49.1945L38.0717 48.2572L37.4478 48.9975L37.8301 49.3197ZM37.0859 49.9349L36.8571 49.4904L36.8544 49.4918L37.0859 49.9349ZM35.0293 49.642L34.6653 49.9848L34.6673 49.9869L35.0293 49.642ZM36.418 46.3432L36.3053 45.856L36.3037 45.8564L36.418 46.3432ZM37.7246 45.9389L37.951 46.3846L38.2246 46.2457V45.9389H37.7246ZM37.6484 45.265L37.1889 45.462L37.1932 45.4721L37.1979 45.4819L37.6484 45.265ZM37.3789 45.0014L37.1395 45.4403L37.1473 45.4446L37.1553 45.4486L37.3789 45.0014ZM36.2539 45.0599L35.9469 44.6652L35.9416 44.6695L36.2539 45.0599ZM37.7246 47.0111H38.2246V46.2664L37.5353 46.5483L37.7246 47.0111ZM36.9219 47.2572L36.7969 46.7731L36.7953 46.7735L36.9219 47.2572ZM36.1191 48.7396L35.7394 49.0651L35.7479 49.0746L36.1191 48.7396ZM37.2266 48.7865L37.5099 49.1986L37.5156 49.1945L37.2266 48.7865ZM37.6133 48.3178L37.1511 48.1268L37.1477 48.1356L37.6133 48.3178ZM36.0274 45.1869L34.8028 44.9173L34.5878 45.894L35.8124 46.1635L36.0274 45.1869ZM35.1819 45.5205C35.3166 44.9499 35.521 44.6189 35.7412 44.4417L35.1143 43.6626C34.6548 44.0323 34.3709 44.6036 34.2087 45.2908L35.1819 45.5205ZM35.7412 44.4417C35.9637 44.2622 36.3279 44.1361 36.9043 44.1361V43.1361C36.1994 43.1361 35.5793 43.2874 35.1143 43.6626L35.7412 44.4417ZM36.9043 44.1361C37.4412 44.1361 37.7808 44.2138 37.9759 44.3177L38.4459 43.435C38.0395 43.2186 37.508 43.1361 36.9043 43.1361V44.1361ZM37.9759 44.3177C38.1923 44.4329 38.3241 44.5758 38.402 44.7433L39.3089 44.3219C39.129 43.9347 38.8311 43.6401 38.4459 43.435L37.9759 44.3177ZM38.4032 44.7458C38.4794 44.9074 38.5488 45.304 38.5488 46.0326H39.5488C39.5488 45.3081 39.4893 44.7046 39.3077 44.3194L38.4032 44.7458ZM38.5488 46.0296L38.5371 47.9514L39.5371 47.9575L39.5488 46.0357L38.5488 46.0296ZM38.5371 47.9545C38.5371 48.4993 38.5584 48.9346 38.608 49.2414L39.5951 49.0817C39.5588 48.8572 39.5371 48.4877 39.5371 47.9545H38.5371ZM38.6082 49.2425C38.6579 49.5456 38.749 49.8595 38.8767 50.183L39.8069 49.8158C39.7002 49.5456 39.6311 49.3009 39.595 49.0805L38.6082 49.2425ZM39.3418 49.4994H38.0059V50.4994H39.3418V49.4994ZM38.4899 49.8742L38.3142 49.1945L37.346 49.4449L37.5218 50.1246L38.4899 49.8742ZM37.4478 48.9975C37.2517 49.2301 37.0536 49.3892 36.8571 49.4904L37.3148 50.3795C37.6495 50.2072 37.9476 49.9562 38.2124 49.6419L37.4478 48.9975ZM36.8544 49.4918C36.6646 49.591 36.4648 49.64 36.248 49.64V50.64C36.6251 50.64 36.9839 50.5524 37.3174 50.3781L36.8544 49.4918ZM36.248 49.64C35.8763 49.64 35.6051 49.5214 35.3913 49.297L34.6673 49.9869C35.0863 50.4266 35.6276 50.64 36.248 50.64V49.64ZM35.3933 49.2992C35.1813 49.0741 35.0547 48.7606 35.0547 48.306H34.0547C34.0547 48.9609 34.2445 49.538 34.6653 49.9848L35.3933 49.2992ZM35.0547 48.306C35.0547 48.0156 35.1078 47.7874 35.1966 47.607L34.2995 47.1652C34.1305 47.5083 34.0547 47.8934 34.0547 48.306H35.0547ZM35.1966 47.607C35.2881 47.4213 35.4119 47.2808 35.5703 47.1752L35.0156 46.3431C34.7053 46.55 34.4659 46.8275 34.2995 47.1652L35.1966 47.607ZM35.5703 47.1752C35.7287 47.0696 36.0329 46.9472 36.5323 46.8299L36.3037 45.8564C35.7718 45.9813 35.326 46.1362 35.0156 46.3431L35.5703 47.1752ZM36.5306 46.8303C37.157 46.6854 37.6456 46.5398 37.951 46.3846L37.4982 45.4931C37.3115 45.5879 36.9289 45.7118 36.3053 45.856L36.5306 46.8303ZM38.2246 45.9389C38.2246 45.7568 38.218 45.5943 38.2024 45.4564C38.1881 45.3302 38.162 45.179 38.0989 45.0481L37.1979 45.4819C37.1857 45.4565 37.1976 45.4703 37.2087 45.5687C37.2185 45.6555 37.2246 45.7772 37.2246 45.9389H38.2246ZM38.108 45.0681C38.0039 44.8251 37.8141 44.6599 37.6025 44.5541L37.1553 45.4486C37.1835 45.4627 37.1945 45.4727 37.1963 45.4745C37.1971 45.4753 37.1961 45.4745 37.1943 45.4718C37.1924 45.4692 37.1905 45.4657 37.1889 45.462L38.108 45.0681ZM37.6183 44.5624C37.3838 44.4345 37.1036 44.3959 36.8281 44.3959V45.3959C37.0293 45.3959 37.1162 45.4276 37.1395 45.4403L37.6183 44.5624ZM36.8281 44.3959C36.5143 44.3959 36.2022 44.4667 35.9469 44.6652L36.5609 45.4546C36.5869 45.4344 36.6575 45.3959 36.8281 45.3959V44.3959ZM35.9416 44.6695C35.6817 44.8774 35.5339 45.2061 35.4392 45.5378L36.4007 45.8125C36.4778 45.5427 36.5527 45.4612 36.5663 45.4504L35.9416 44.6695ZM37.5353 46.5483C37.3962 46.6053 37.1557 46.6805 36.7969 46.7731L37.0468 47.7414C37.4146 47.6464 37.7093 47.5576 37.9139 47.4739L37.5353 46.5483ZM36.7953 46.7735C36.5707 46.8323 36.3703 46.8979 36.2009 46.9729C36.0372 47.0454 35.8709 47.1402 35.7428 47.2723L36.4604 47.9687C36.4585 47.9707 36.4664 47.9622 36.4922 47.9459C36.5174 47.93 36.5543 47.91 36.6058 47.8872C36.7098 47.8412 36.8551 47.7915 37.0485 47.7409L36.7953 46.7735ZM35.7428 47.2723C35.5105 47.5116 35.4082 47.8148 35.4082 48.1361H36.4082C36.4082 48.0355 36.4348 47.995 36.4604 47.9687L35.7428 47.2723ZM35.4082 48.1361C35.4082 48.4806 35.513 48.8009 35.7394 49.0651L36.4988 48.4142C36.444 48.3503 36.4082 48.2682 36.4082 48.1361H35.4082ZM35.7479 49.0746C35.9868 49.3393 36.3012 49.4799 36.6582 49.4799V48.4799C36.5855 48.4799 36.5405 48.4602 36.4903 48.4047L35.7479 49.0746ZM36.6582 49.4799C36.9686 49.4799 37.2551 49.3738 37.5099 49.1986L36.9433 48.3745C36.8231 48.4571 36.7306 48.4799 36.6582 48.4799V49.4799ZM37.5156 49.1945C37.7673 49.0162 37.9667 48.7867 38.0789 48.5L37.1477 48.1356C37.1192 48.2082 37.0608 48.2912 36.9376 48.3785L37.5156 49.1945ZM38.0754 48.5086C38.1916 48.2274 38.2246 47.8097 38.2246 47.3392H37.2246C37.2246 47.8141 37.1833 48.0486 37.1511 48.1268L38.0754 48.5086ZM38.2246 47.3392V47.0111H37.2246V47.3392H38.2246ZM40.3848 42.933H39.8848V43.433H40.3848V42.933ZM40.3848 41.4096V40.9096H39.8848V41.4096H40.3848ZM41.7383 41.4096H42.2383V40.9096H41.7383V41.4096ZM41.7383 42.933V43.433H42.2383V42.933H41.7383ZM40.3848 49.9994H39.8848V50.4994H40.3848V49.9994ZM40.3848 43.7767V43.2767H39.8848V43.7767H40.3848ZM41.7383 43.7767H42.2383V43.2767H41.7383V43.7767ZM41.7383 49.9994V50.4994H42.2383V49.9994H41.7383ZM40.8848 42.933V41.4096H39.8848V42.933H40.8848ZM40.3848 41.9096H41.7383V40.9096H40.3848V41.9096ZM41.2383 41.4096V42.933H42.2383V41.4096H41.2383ZM41.7383 42.433H40.3848V43.433H41.7383V42.433ZM40.8848 49.9994V43.7767H39.8848V49.9994H40.8848ZM40.3848 44.2767H41.7383V43.2767H40.3848V44.2767ZM41.2383 43.7767V49.9994H42.2383V43.7767H41.2383ZM41.7383 49.4994H40.3848V50.4994H41.7383V49.4994ZM47.7676 49.9994V50.4994H48.2676V49.9994H47.7676ZM46.4141 49.9994H45.9141V50.4994H46.4141V49.9994ZM46.0508 45.0658L45.7317 45.4509L45.7371 45.4552L46.0508 45.0658ZM44.9668 45.1185L45.2761 45.5114L45.2812 45.5074L44.9668 45.1185ZM44.4688 49.9994V50.4994H44.9688V49.9994H44.4688ZM43.1152 49.9994H42.6152V50.4994H43.1152V49.9994ZM43.1152 43.7767V43.2767H42.6152V43.7767H43.1152ZM44.3691 43.7767H44.8691V43.2767H44.3691V43.7767ZM44.3691 44.6908H43.8691V46.4148L44.7916 44.9583L44.3691 44.6908ZM45.1191 43.8998L44.8541 43.4758L44.8515 43.4775L45.1191 43.8998ZM47.0469 43.9467L46.7423 44.3432L46.7487 44.348L47.0469 43.9467ZM47.6094 44.7377L47.1322 44.8872L47.1345 44.8941L47.6094 44.7377ZM47.7676 49.4994H46.4141V50.4994H47.7676V49.4994ZM46.9141 49.9994V46.8236H45.9141V49.9994H46.9141ZM46.9141 46.8236C46.9141 46.1962 46.8909 45.7131 46.824 45.4351L45.8518 45.6692C45.8864 45.8131 45.9141 46.1776 45.9141 46.8236H46.9141ZM46.824 45.4351C46.7528 45.1391 46.6073 44.8721 46.3644 44.6764L45.7371 45.4552C45.7755 45.4861 45.8215 45.5432 45.8518 45.6692L46.824 45.4351ZM46.3698 44.6808C46.1444 44.494 45.8756 44.3959 45.582 44.3959V45.3959C45.6401 45.3959 45.6837 45.4111 45.7317 45.4509L46.3698 44.6808ZM45.582 44.3959C45.2359 44.3959 44.921 44.5126 44.6524 44.7297L45.2812 45.5074C45.3798 45.4276 45.475 45.3959 45.582 45.3959V44.3959ZM44.6575 44.7257C44.3798 44.9443 44.1983 45.2407 44.0996 45.5837L45.0606 45.8604C45.1103 45.6878 45.1866 45.5818 45.2761 45.5114L44.6575 44.7257ZM44.0996 45.5837C44.0032 45.9185 43.9688 46.4722 43.9688 47.181H44.9688C44.9688 46.4602 45.0085 46.0412 45.0606 45.8604L44.0996 45.5837ZM43.9688 47.181V49.9994H44.9688V47.181H43.9688ZM44.4688 49.4994H43.1152V50.4994H44.4688V49.4994ZM43.6152 49.9994V43.7767H42.6152V49.9994H43.6152ZM43.1152 44.2767H44.3691V43.2767H43.1152V44.2767ZM43.8691 43.7767V44.6908H44.8691V43.7767H43.8691ZM44.7916 44.9583C44.9849 44.653 45.1862 44.4493 45.3868 44.3221L44.8515 43.4775C44.4974 43.7019 44.1987 44.0255 43.9467 44.4233L44.7916 44.9583ZM45.3841 44.3238C45.5839 44.199 45.8022 44.1361 46.0508 44.1361V43.1361C45.6197 43.1361 45.2169 43.2491 44.8541 43.4758L45.3841 44.3238ZM46.0508 44.1361C46.3536 44.1361 46.5737 44.2137 46.7423 44.3432L47.3515 43.5501C46.981 43.2656 46.537 43.1361 46.0508 43.1361V44.1361ZM46.7487 44.348C46.9376 44.4884 47.0623 44.6641 47.1322 44.8872L48.0865 44.5882C47.9533 44.163 47.703 43.8112 47.345 43.5453L46.7487 44.348ZM47.1345 44.8941C47.215 45.1386 47.2676 45.5404 47.2676 46.1322H48.2676C48.2676 45.5053 48.2147 44.9774 48.0843 44.5813L47.1345 44.8941ZM47.2676 46.1322V49.9994H48.2676V46.1322H47.2676ZM51.4707 43.7767H51.9707V43.2767H51.4707V43.7767ZM51.4707 45.0892V45.5892H51.9707V45.0892H51.4707ZM50.5508 45.0892V44.5892H50.0508V45.0892H50.5508ZM50.5918 48.5404L50.1153 48.692L50.1175 48.6988L50.1199 48.7056L50.5918 48.5404ZM51.4648 48.6166L51.9628 48.5709L51.8987 47.873L51.2597 48.1606L51.4648 48.6166ZM51.582 49.8939L51.8144 50.3366L52.1105 50.1812L52.0799 49.8483L51.582 49.8939ZM49.2793 49.1849L49.7668 49.0739L49.7653 49.0676L49.2793 49.1849ZM49.1973 45.0892H49.6973V44.5892H49.1973V45.0892ZM48.5762 45.0892H48.0762V45.5892H48.5762V45.0892ZM48.5762 43.7767V43.2767H48.0762V43.7767H48.5762ZM49.1973 43.7767V44.2767H49.6973V43.7767H49.1973ZM49.1973 42.5404L48.9078 42.1327L48.6973 42.2822V42.5404H49.1973ZM50.5508 41.5795H51.0508V40.6113L50.2613 41.1718L50.5508 41.5795ZM50.5508 43.7767H50.0508V44.2767H50.5508V43.7767ZM50.9707 43.7767V45.0892H51.9707V43.7767H50.9707ZM51.4707 44.5892H50.5508V45.5892H51.4707V44.5892ZM50.0508 45.0892V47.5971H51.0508V45.0892H50.0508ZM50.0508 47.5971C50.0508 47.8714 50.0542 48.094 50.0615 48.2618C50.0651 48.3454 50.0699 48.4205 50.0765 48.4841C50.0819 48.5371 50.0916 48.6174 50.1153 48.692L51.0683 48.3888C51.0783 48.4204 51.0761 48.4293 51.0712 48.3822C51.0675 48.3456 51.0638 48.292 51.0606 48.2184C51.0542 48.0718 51.0508 47.8657 51.0508 47.5971H50.0508ZM50.1199 48.7056C50.1741 48.8606 50.2707 49.0143 50.4291 49.1255C50.5869 49.2362 50.7634 49.2748 50.9258 49.2748V48.2748C50.9202 48.2748 50.957 48.2743 51.0035 48.3069C51.0506 48.34 51.0642 48.3765 51.0637 48.3752L50.1199 48.7056ZM50.9258 49.2748C51.1633 49.2748 51.4251 49.1828 51.67 49.0725L51.2597 48.1606C51.1563 48.2072 51.075 48.2374 51.0135 48.2555C50.949 48.2744 50.9233 48.2748 50.9258 48.2748V49.2748ZM50.9669 48.6623L51.0841 49.9396L52.0799 49.8483L51.9628 48.5709L50.9669 48.6623ZM51.3496 49.4512C51.1169 49.5734 50.8447 49.64 50.5215 49.64V50.64C50.9873 50.64 51.4222 50.5426 51.8144 50.3366L51.3496 49.4512ZM50.5215 49.64C50.2562 49.64 50.101 49.5774 50.0059 49.5021L49.3848 50.2858C49.7037 50.5386 50.0992 50.64 50.5215 50.64V49.64ZM50.0059 49.5021C49.9048 49.422 49.817 49.2943 49.7668 49.0739L48.7918 49.296C48.8822 49.6928 49.0717 50.0377 49.3848 50.2858L50.0059 49.5021ZM49.7653 49.0676C49.7269 48.9085 49.6973 48.5075 49.6973 47.8021H48.6973C48.6973 48.4874 48.7223 49.0083 48.7933 49.3023L49.7653 49.0676ZM49.6973 47.8021V45.0892H48.6973V47.8021H49.6973ZM49.1973 44.5892H48.5762V45.5892H49.1973V44.5892ZM49.0762 45.0892V43.7767H48.0762V45.0892H49.0762ZM48.5762 44.2767H49.1973V43.2767H48.5762V44.2767ZM49.6973 43.7767V42.5404H48.6973V43.7767H49.6973ZM49.4867 42.9481L50.8402 41.9872L50.2613 41.1718L48.9078 42.1327L49.4867 42.9481ZM50.0508 41.5795V43.7767H51.0508V41.5795H50.0508ZM50.5508 44.2767H51.4707V43.2767H50.5508V44.2767ZM55.3789 48.0189L55.4794 47.5291L55.0071 47.4322L54.8931 47.9007L55.3789 48.0189ZM56.7207 48.2943L57.2012 48.4325L57.3505 47.9132L56.8212 47.8045L56.7207 48.2943ZM55.8828 49.6889L56.1937 50.0805L56.1961 50.0785L55.8828 49.6889ZM52.7539 49.3842L53.1417 49.0685L53.1393 49.0656L52.7539 49.3842ZM52.7598 44.4271L52.3665 44.1184L52.3658 44.1193L52.7598 44.4271ZM56.082 44.4447L55.6855 44.7493L55.6863 44.7503L56.082 44.4447ZM56.7969 47.1752L57.2966 47.1908L57.2969 47.183V47.1752H56.7969ZM56.791 47.3627V47.8627H57.2756L57.2908 47.3783L56.791 47.3627ZM53.4102 47.3627V46.8627H52.9022L52.9102 47.3706L53.4102 47.3627ZM53.7383 48.5053L53.3445 48.8134L53.3473 48.8169L53.7383 48.5053ZM55.4551 46.3549V46.8549H55.9673L55.9549 46.3428L55.4551 46.3549ZM55.1445 45.265L54.7529 45.5759L54.7553 45.5789L55.1445 45.265ZM53.7266 45.2767L54.1222 45.5825L54.1229 45.5816L53.7266 45.2767ZM53.4336 46.3549L52.9336 46.3591L52.9378 46.8549H53.4336V46.3549ZM55.2784 48.5087L56.6202 48.7841L56.8212 47.8045L55.4794 47.5291L55.2784 48.5087ZM56.2402 48.1562C56.0795 48.715 55.845 49.0777 55.5695 49.2992L56.1961 50.0785C56.6785 49.6906 57.0025 49.1236 57.2012 48.4325L56.2402 48.1562ZM55.5719 49.2972C55.2922 49.5193 54.9447 49.64 54.5 49.64V50.64C55.1413 50.64 55.7156 50.46 56.1937 50.0805L55.5719 49.2972ZM54.5 49.64C53.8695 49.64 53.4411 49.4363 53.1417 49.0685L52.3661 49.6998C52.8871 50.3398 53.6227 50.64 54.5 50.64V49.64ZM53.1393 49.0656C52.7532 48.5985 52.5273 47.9063 52.5273 46.9232H51.5273C51.5273 48.0496 51.7859 48.9979 52.3685 49.7027L53.1393 49.0656ZM52.5273 46.9232C52.5273 45.961 52.7529 45.2481 53.1538 44.735L52.3658 44.1193C51.7901 44.8562 51.5273 45.8073 51.5273 46.9232H52.5273ZM53.153 44.7359C53.4747 44.3262 53.8663 44.1361 54.3652 44.1361V43.1361C53.5517 43.1361 52.873 43.4733 52.3665 44.1184L53.153 44.7359ZM54.3652 44.1361C54.9538 44.1361 55.374 44.3437 55.6855 44.7493L56.4786 44.1401C55.962 43.4676 55.2376 43.1361 54.3652 43.1361V44.1361ZM55.6863 44.7503C56.0673 45.2438 56.2969 46.026 56.2969 47.1752H57.2969C57.2969 45.9181 57.0499 44.88 56.4778 44.1391L55.6863 44.7503ZM56.2971 47.1596L56.2913 47.3471L57.2908 47.3783L57.2966 47.1908L56.2971 47.1596ZM56.791 46.8627H53.4102V47.8627H56.791V46.8627ZM52.9102 47.3706C52.919 47.9256 53.0426 48.4277 53.3445 48.8134L54.132 48.1971C54.012 48.0438 53.9169 47.7841 53.9101 47.3547L52.9102 47.3706ZM53.3473 48.8169C53.6414 49.1859 54.0353 49.4096 54.5117 49.4096V48.4096C54.3865 48.4096 54.2649 48.3637 54.1293 48.1936L53.3473 48.8169ZM54.5117 49.4096C54.8564 49.4096 55.1685 49.2857 55.4119 49.0357C55.6417 48.7998 55.7807 48.4824 55.8647 48.1372L54.8931 47.9007C54.8326 48.1492 54.7548 48.2771 54.6955 48.3381C54.6498 48.385 54.6006 48.4096 54.5117 48.4096V49.4096ZM55.9549 46.3428C55.9419 45.8059 55.8272 45.315 55.5337 44.9511L54.7553 45.5789C54.8525 45.6994 54.9448 45.935 54.9552 46.367L55.9549 46.3428ZM55.5362 44.9542C55.2637 44.6108 54.8957 44.3959 54.4473 44.3959V45.3959C54.5379 45.3959 54.6348 45.427 54.7529 45.5759L55.5362 44.9542ZM54.4473 44.3959C53.9862 44.3959 53.6069 44.6123 53.3303 44.9719L54.1229 45.5816C54.2369 45.4334 54.338 45.3959 54.4473 45.3959V44.3959ZM53.3309 44.971C53.0398 45.3478 52.9291 45.8315 52.9336 46.3591L53.9336 46.3506C53.9302 45.9563 54.0149 45.7213 54.1222 45.5825L53.3309 44.971ZM53.4336 46.8549H55.4551V45.8549H53.4336V46.8549ZM62.5332 49.9994V50.4994H63.0332V49.9994H62.5332ZM61.1797 49.9994H60.6797V50.4994H61.1797V49.9994ZM60.8164 45.0658L60.4974 45.4509L60.5027 45.4552L60.8164 45.0658ZM59.7324 45.1185L60.0417 45.5114L60.0468 45.5074L59.7324 45.1185ZM59.2344 49.9994V50.4994H59.7344V49.9994H59.2344ZM57.8809 49.9994H57.3809V50.4994H57.8809V49.9994ZM57.8809 43.7767V43.2767H57.3809V43.7767H57.8809ZM59.1348 43.7767H59.6348V43.2767H59.1348V43.7767ZM59.1348 44.6908H58.6348V46.4148L59.5572 44.9583L59.1348 44.6908ZM59.8848 43.8998L59.6198 43.4758L59.6171 43.4775L59.8848 43.8998ZM61.8125 43.9467L61.5079 44.3432L61.5143 44.348L61.8125 43.9467ZM62.375 44.7377L61.8978 44.8872L61.9001 44.8941L62.375 44.7377ZM62.5332 49.4994H61.1797V50.4994H62.5332V49.4994ZM61.6797 49.9994V46.8236H60.6797V49.9994H61.6797ZM61.6797 46.8236C61.6797 46.1962 61.6565 45.7131 61.5896 45.4351L60.6174 45.6692C60.6521 45.8131 60.6797 46.1776 60.6797 46.8236H61.6797ZM61.5896 45.4351C61.5184 45.1391 61.373 44.8721 61.1301 44.6764L60.5027 45.4552C60.5411 45.4861 60.5871 45.5432 60.6174 45.6692L61.5896 45.4351ZM61.1354 44.6808C60.91 44.494 60.6412 44.3959 60.3477 44.3959V45.3959C60.4057 45.3959 60.4494 45.4111 60.4974 45.4509L61.1354 44.6808ZM60.3477 44.3959C60.0016 44.3959 59.6866 44.5126 59.4181 44.7297L60.0468 45.5074C60.1454 45.4276 60.2406 45.3959 60.3477 45.3959V44.3959ZM59.4231 44.7257C59.1454 44.9443 58.964 45.2407 58.8652 45.5837L59.8262 45.8604C59.8759 45.6878 59.9523 45.5818 60.0417 45.5114L59.4231 44.7257ZM58.8652 45.5837C58.7688 45.9185 58.7344 46.4722 58.7344 47.181H59.7344C59.7344 46.4602 59.7741 46.0412 59.8262 45.8604L58.8652 45.5837ZM58.7344 47.181V49.9994H59.7344V47.181H58.7344ZM59.2344 49.4994H57.8809V50.4994H59.2344V49.4994ZM58.3809 49.9994V43.7767H57.3809V49.9994H58.3809ZM57.8809 44.2767H59.1348V43.2767H57.8809V44.2767ZM58.6348 43.7767V44.6908H59.6348V43.7767H58.6348ZM59.5572 44.9583C59.7506 44.653 59.9518 44.4493 60.1524 44.3221L59.6171 43.4775C59.263 43.7019 58.9643 44.0255 58.7124 44.4233L59.5572 44.9583ZM60.1498 44.3238C60.3495 44.199 60.5678 44.1361 60.8164 44.1361V43.1361C60.3853 43.1361 59.9825 43.2491 59.6198 43.4758L60.1498 44.3238ZM60.8164 44.1361C61.1192 44.1361 61.3393 44.2137 61.5079 44.3432L62.1171 43.5501C61.7466 43.2656 61.3026 43.1361 60.8164 43.1361V44.1361ZM61.5143 44.348C61.7033 44.4884 61.8279 44.6641 61.8978 44.8872L62.8521 44.5882C62.7189 44.163 62.4686 43.8112 62.1107 43.5453L61.5143 44.348ZM61.9001 44.8941C61.9806 45.1386 62.0332 45.5404 62.0332 46.1322H63.0332C63.0332 45.5053 62.9803 44.9774 62.8499 44.5813L61.9001 44.8941ZM62.0332 46.1322V49.9994H63.0332V46.1322H62.0332ZM64.9121 45.6752L64.8046 46.1635L65.2637 46.2645L65.3929 45.8125L64.9121 45.6752ZM63.6875 45.4056L63.2009 45.2908L63.0843 45.7848L63.58 45.894L63.6875 45.4056ZM67.8477 44.5326L67.3942 44.7433L67.3954 44.7458L67.8477 44.5326ZM68.041 46.0326L68.541 46.0357V46.0326H68.041ZM68.0293 47.9545L67.5293 47.9514V47.9545H68.0293ZM68.0938 49.1615L67.6002 49.2414L67.6004 49.2425L68.0938 49.1615ZM68.334 49.9994V50.4994H69.0689L68.7991 49.8158L68.334 49.9994ZM66.998 49.9994L66.514 50.1246L66.6109 50.4994H66.998V49.9994ZM66.8223 49.3197L67.3063 49.1945L67.0639 48.2572L66.44 48.9975L66.8223 49.3197ZM66.0781 49.9349L65.8493 49.4904L65.8466 49.4918L66.0781 49.9349ZM64.0215 49.642L63.6575 49.9848L63.6595 49.9869L64.0215 49.642ZM65.4102 46.3432L65.2975 45.856L65.2958 45.8564L65.4102 46.3432ZM66.7168 45.9389L66.9432 46.3846L67.2168 46.2457V45.9389H66.7168ZM66.6406 45.265L66.1811 45.462L66.1854 45.4721L66.1901 45.4819L66.6406 45.265ZM66.3711 45.0014L66.1317 45.4403L66.1395 45.4446L66.1475 45.4486L66.3711 45.0014ZM65.2461 45.0599L64.9391 44.6652L64.9337 44.6695L65.2461 45.0599ZM66.7168 47.0111H67.2168V46.2664L66.5275 46.5483L66.7168 47.0111ZM65.9141 47.2572L65.7891 46.7731L65.7875 46.7735L65.9141 47.2572ZM65.1113 48.7396L64.7316 49.0651L64.7401 49.0746L65.1113 48.7396ZM66.2188 48.7865L66.502 49.1986L66.5078 49.1945L66.2188 48.7865ZM66.6055 48.3178L66.1433 48.1268L66.1398 48.1356L66.6055 48.3178ZM65.0196 45.1869L63.795 44.9173L63.58 45.894L64.8046 46.1635L65.0196 45.1869ZM64.1741 45.5205C64.3088 44.9499 64.5132 44.6189 64.7334 44.4417L64.1065 43.6626C63.647 44.0323 63.3631 44.6036 63.2009 45.2908L64.1741 45.5205ZM64.7334 44.4417C64.9559 44.2622 65.3201 44.1361 65.8965 44.1361V43.1361C65.1916 43.1361 64.5715 43.2874 64.1065 43.6626L64.7334 44.4417ZM65.8965 44.1361C66.4334 44.1361 66.773 44.2138 66.9681 44.3177L67.4381 43.435C67.0317 43.2186 66.5002 43.1361 65.8965 43.1361V44.1361ZM66.9681 44.3177C67.1845 44.4329 67.3164 44.5758 67.3942 44.7433L68.3011 44.3219C68.1211 43.9347 67.8233 43.6401 67.4381 43.435L66.9681 44.3177ZM67.3954 44.7458C67.4716 44.9074 67.541 45.304 67.541 46.0326H68.541C68.541 45.3081 68.4815 44.7046 68.2999 44.3194L67.3954 44.7458ZM67.541 46.0296L67.5293 47.9514L68.5293 47.9575L68.541 46.0357L67.541 46.0296ZM67.5293 47.9545C67.5293 48.4993 67.5505 48.9346 67.6002 49.2414L68.5873 49.0817C68.551 48.8572 68.5293 48.4877 68.5293 47.9545H67.5293ZM67.6004 49.2425C67.6501 49.5456 67.7412 49.8595 67.8689 50.183L68.7991 49.8158C68.6924 49.5456 68.6233 49.3009 68.5871 49.0805L67.6004 49.2425ZM68.334 49.4994H66.998V50.4994H68.334V49.4994ZM67.4821 49.8742L67.3063 49.1945L66.3382 49.4449L66.514 50.1246L67.4821 49.8742ZM66.44 48.9975C66.2438 49.2301 66.0458 49.3892 65.8493 49.4904L66.3069 50.3795C66.6417 50.2072 66.9397 49.9562 67.2046 49.6419L66.44 48.9975ZM65.8466 49.4918C65.6568 49.591 65.4569 49.64 65.2402 49.64V50.64C65.6173 50.64 65.9761 50.5524 66.3096 50.3781L65.8466 49.4918ZM65.2402 49.64C64.8685 49.64 64.5973 49.5214 64.3835 49.297L63.6595 49.9869C64.0785 50.4266 64.6198 50.64 65.2402 50.64V49.64ZM64.3855 49.2992C64.1735 49.0741 64.0469 48.7606 64.0469 48.306H63.0469C63.0469 48.9609 63.2367 49.538 63.6575 49.9848L64.3855 49.2992ZM64.0469 48.306C64.0469 48.0156 64.1 47.7874 64.1888 47.607L63.2917 47.1652C63.1227 47.5083 63.0469 47.8934 63.0469 48.306H64.0469ZM64.1888 47.607C64.2802 47.4213 64.4041 47.2808 64.5625 47.1752L64.0078 46.3431C63.6975 46.55 63.458 46.8275 63.2917 47.1652L64.1888 47.607ZM64.5625 47.1752C64.7209 47.0696 65.0251 46.9472 65.5245 46.8299L65.2958 45.8564C64.764 45.9813 64.3182 46.1362 64.0078 46.3431L64.5625 47.1752ZM65.5228 46.8303C66.1492 46.6854 66.6378 46.5398 66.9432 46.3846L66.4904 45.4931C66.3037 45.5879 65.9211 45.7118 65.2975 45.856L65.5228 46.8303ZM67.2168 45.9389C67.2168 45.7568 67.2102 45.5943 67.1946 45.4564C67.1803 45.3302 67.1542 45.179 67.0911 45.0481L66.1901 45.4819C66.1779 45.4565 66.1898 45.4703 66.2009 45.5687C66.2107 45.6555 66.2168 45.7772 66.2168 45.9389H67.2168ZM67.1002 45.0681C66.9961 44.8251 66.8062 44.6599 66.5947 44.5541L66.1475 45.4486C66.1757 45.4627 66.1866 45.4727 66.1884 45.4745C66.1893 45.4753 66.1883 45.4745 66.1865 45.4718C66.1846 45.4692 66.1827 45.4657 66.1811 45.462L67.1002 45.0681ZM66.6105 44.5624C66.376 44.4345 66.0957 44.3959 65.8203 44.3959V45.3959C66.0214 45.3959 66.1084 45.4276 66.1317 45.4403L66.6105 44.5624ZM65.8203 44.3959C65.5065 44.3959 65.1943 44.4667 64.9391 44.6652L65.5531 45.4546C65.5791 45.4344 65.6497 45.3959 65.8203 45.3959V44.3959ZM64.9337 44.6695C64.6739 44.8774 64.5261 45.2061 64.4313 45.5378L65.3929 45.8125C65.47 45.5427 65.5449 45.4612 65.5584 45.4504L64.9337 44.6695ZM66.5275 46.5483C66.3884 46.6053 66.1479 46.6805 65.7891 46.7731L66.039 47.7414C66.4068 47.6464 66.7015 47.5576 66.9061 47.4739L66.5275 46.5483ZM65.7875 46.7735C65.5629 46.8323 65.3625 46.8979 65.193 46.9729C65.0294 47.0454 64.8631 47.1402 64.735 47.2723L65.4525 47.9687C65.4507 47.9707 65.4586 47.9622 65.4844 47.9459C65.5096 47.93 65.5465 47.91 65.598 47.8872C65.702 47.8412 65.8473 47.7915 66.0406 47.7409L65.7875 46.7735ZM64.735 47.2723C64.5027 47.5116 64.4004 47.8148 64.4004 48.1361H65.4004C65.4004 48.0355 65.427 47.995 65.4525 47.9687L64.735 47.2723ZM64.4004 48.1361C64.4004 48.4806 64.5051 48.8009 64.7316 49.0651L65.491 48.4142C65.4362 48.3503 65.4004 48.2682 65.4004 48.1361H64.4004ZM64.7401 49.0746C64.979 49.3393 65.2934 49.4799 65.6504 49.4799V48.4799C65.5777 48.4799 65.5327 48.4602 65.4825 48.4047L64.7401 49.0746ZM65.6504 49.4799C65.9608 49.4799 66.2472 49.3738 66.502 49.1986L65.9355 48.3745C65.8153 48.4571 65.7228 48.4799 65.6504 48.4799V49.4799ZM66.5078 49.1945C66.7595 49.0162 66.9589 48.7867 67.0711 48.5L66.1398 48.1356C66.1114 48.2082 66.053 48.2912 65.9297 48.3785L66.5078 49.1945ZM67.0676 48.5086C67.1838 48.2274 67.2168 47.8097 67.2168 47.3392H66.2168C66.2168 47.8141 66.1756 48.0486 66.1433 48.1268L67.0676 48.5086ZM67.2168 47.3392V47.0111H66.2168V47.3392H67.2168ZM74.0176 49.9994V50.4994H74.5176V49.9994H74.0176ZM72.6641 49.9994H72.1641V50.4994H72.6641V49.9994ZM72.3008 45.0658L71.9817 45.4509L71.9871 45.4552L72.3008 45.0658ZM71.2168 45.1185L71.5261 45.5114L71.5312 45.5074L71.2168 45.1185ZM70.7188 49.9994V50.4994H71.2188V49.9994H70.7188ZM69.3652 49.9994H68.8652V50.4994H69.3652V49.9994ZM69.3652 43.7767V43.2767H68.8652V43.7767H69.3652ZM70.6191 43.7767H71.1191V43.2767H70.6191V43.7767ZM70.6191 44.6908H70.1191V46.4148L71.0416 44.9583L70.6191 44.6908ZM71.3691 43.8998L71.1041 43.4758L71.1015 43.4775L71.3691 43.8998ZM73.2969 43.9467L72.9923 44.3432L72.9987 44.348L73.2969 43.9467ZM73.8594 44.7377L73.3822 44.8872L73.3845 44.8941L73.8594 44.7377ZM74.0176 49.4994H72.6641V50.4994H74.0176V49.4994ZM73.1641 49.9994V46.8236H72.1641V49.9994H73.1641ZM73.1641 46.8236C73.1641 46.1962 73.1409 45.7131 73.074 45.4351L72.1018 45.6692C72.1364 45.8131 72.1641 46.1776 72.1641 46.8236H73.1641ZM73.074 45.4351C73.0028 45.1391 72.8573 44.8721 72.6144 44.6764L71.9871 45.4552C72.0255 45.4861 72.0715 45.5432 72.1018 45.6692L73.074 45.4351ZM72.6198 44.6808C72.3944 44.494 72.1256 44.3959 71.832 44.3959V45.3959C71.8901 45.3959 71.9337 45.4111 71.9817 45.4509L72.6198 44.6808ZM71.832 44.3959C71.4859 44.3959 71.171 44.5126 70.9024 44.7297L71.5312 45.5074C71.6298 45.4276 71.725 45.3959 71.832 45.3959V44.3959ZM70.9075 44.7257C70.6298 44.9443 70.4483 45.2407 70.3496 45.5837L71.3106 45.8604C71.3603 45.6878 71.4366 45.5818 71.5261 45.5114L70.9075 44.7257ZM70.3496 45.5837C70.2532 45.9185 70.2188 46.4722 70.2188 47.181H71.2188C71.2188 46.4602 71.2585 46.0412 71.3106 45.8604L70.3496 45.5837ZM70.2188 47.181V49.9994H71.2188V47.181H70.2188ZM70.7188 49.4994H69.3652V50.4994H70.7188V49.4994ZM69.8652 49.9994V43.7767H68.8652V49.9994H69.8652ZM69.3652 44.2767H70.6191V43.2767H69.3652V44.2767ZM70.1191 43.7767V44.6908H71.1191V43.7767H70.1191ZM71.0416 44.9583C71.2349 44.653 71.4362 44.4493 71.6368 44.3221L71.1015 43.4775C70.7474 43.7019 70.4487 44.0255 70.1967 44.4233L71.0416 44.9583ZM71.6341 44.3238C71.8339 44.199 72.0522 44.1361 72.3008 44.1361V43.1361C71.8697 43.1361 71.4669 43.2491 71.1041 43.4758L71.6341 44.3238ZM72.3008 44.1361C72.6036 44.1361 72.8237 44.2137 72.9923 44.3432L73.6015 43.5501C73.231 43.2656 72.787 43.1361 72.3008 43.1361V44.1361ZM72.9987 44.348C73.1876 44.4884 73.3123 44.6641 73.3822 44.8872L74.3365 44.5882C74.2033 44.163 73.953 43.8112 73.595 43.5453L72.9987 44.348ZM73.3845 44.8941C73.465 45.1386 73.5176 45.5404 73.5176 46.1322H74.5176C74.5176 45.5053 74.4647 44.9774 74.3343 44.5813L73.3845 44.8941ZM73.5176 46.1322V49.9994H74.5176V46.1322H73.5176ZM79.8359 45.6166L79.9435 46.1049L80.4404 45.9954L80.3223 45.5005L79.8359 45.6166ZM78.5059 45.9096L78.0114 45.9836L78.0906 46.513L78.6134 46.3979L78.5059 45.9096ZM78.2246 48.5404L78.5863 48.8857L78.5901 48.8816L78.2246 48.5404ZM78.5762 47.6146L78.6775 47.125L78.1648 47.0188L78.0824 47.536L78.5762 47.6146ZM79.9062 47.89L80.3981 47.9797L80.4857 47.4994L80.0076 47.4004L79.9062 47.89ZM79.0215 44.1107L78.699 44.4929L78.701 44.4945L79.0215 44.1107ZM79.7284 45.1283L78.3983 45.4213L78.6134 46.3979L79.9435 46.1049L79.7284 45.1283ZM79.0003 45.8355C78.9432 45.4539 78.8158 45.0979 78.5669 44.8332C78.3045 44.554 77.9588 44.431 77.5859 44.431V45.431C77.7287 45.431 77.7942 45.4711 77.8383 45.5181C77.8961 45.5796 77.9708 45.7129 78.0114 45.9836L79.0003 45.8355ZM77.5859 44.431C77.085 44.431 76.67 44.6556 76.3779 45.0602L77.1885 45.6457C77.3026 45.4877 77.4228 45.431 77.5859 45.431V44.431ZM76.3779 45.0602C76.078 45.4753 75.9785 46.0862 75.9785 46.7767H76.9785C76.9785 46.1313 77.0821 45.793 77.1885 45.6457L76.3779 45.0602ZM75.9785 46.7767C75.9785 47.5312 76.0767 48.1828 76.3672 48.6185L77.1992 48.0638C77.0835 47.8902 76.9785 47.4989 76.9785 46.7767H75.9785ZM76.3672 48.6185C76.6545 49.0495 77.0758 49.2982 77.5977 49.2982V48.2982C77.4398 48.2982 77.3182 48.2422 77.1992 48.0638L76.3672 48.6185ZM77.5977 49.2982C77.9777 49.2982 78.3209 49.1637 78.5863 48.8857L77.8629 48.1952C77.8002 48.2609 77.7254 48.2982 77.5977 48.2982V49.2982ZM78.5901 48.8816C78.8591 48.5934 78.9955 48.1607 79.0699 47.6933L78.0824 47.536C78.0162 47.9514 77.9183 48.1359 77.8591 48.1993L78.5901 48.8816ZM78.4748 48.1042L79.8049 48.3796L80.0076 47.4004L78.6775 47.125L78.4748 48.1042ZM79.4144 47.8004C79.2892 48.487 79.0576 48.9376 78.7659 49.2155C78.4831 49.485 78.0937 49.64 77.5449 49.64V50.64C78.2969 50.64 78.9515 50.42 79.4558 49.9395C79.9512 49.4674 80.2499 48.793 80.3981 47.9797L79.4144 47.8004ZM77.5449 49.64C76.8617 49.64 76.4146 49.3932 76.1153 48.9225L75.2714 49.4591C75.7769 50.254 76.5641 50.64 77.5449 50.64V49.64ZM76.1153 48.9225C75.7728 48.3839 75.5898 47.7193 75.5898 46.9056H74.5898C74.5898 47.8732 74.8092 48.7321 75.2714 49.4591L76.1153 48.9225ZM75.5898 46.9056C75.5898 45.9002 75.8048 45.2212 76.1568 44.7903L75.3826 44.1574C74.8283 44.8359 74.5898 45.7783 74.5898 46.9056H75.5898ZM76.1568 44.7903C76.5164 44.3509 76.9702 44.1361 77.5625 44.1361V43.1361C76.6782 43.1361 75.937 43.4797 75.3826 44.1574L76.1568 44.7903ZM77.5625 44.1361C78.0689 44.1361 78.4328 44.2682 78.699 44.4929L79.3439 43.7286C78.8602 43.3204 78.2514 43.1361 77.5625 43.1361V44.1361ZM78.701 44.4945C78.9683 44.7177 79.2001 45.1062 79.3496 45.7326L80.3223 45.5005C80.1437 44.752 79.8325 44.1365 79.342 43.7269L78.701 44.4945ZM83.8203 48.0189L83.9208 47.5291L83.4485 47.4322L83.3345 47.9007L83.8203 48.0189ZM85.1621 48.2943L85.6426 48.4325L85.7919 47.9132L85.2626 47.8045L85.1621 48.2943ZM84.3242 49.6889L84.6351 50.0805L84.6375 50.0785L84.3242 49.6889ZM81.1953 49.3842L81.5831 49.0685L81.5807 49.0656L81.1953 49.3842ZM81.2012 44.4271L80.8079 44.1184L80.8072 44.1193L81.2012 44.4271ZM84.5234 44.4447L84.1269 44.7493L84.1277 44.7503L84.5234 44.4447ZM85.2383 47.1752L85.738 47.1908L85.7383 47.183V47.1752H85.2383ZM85.2324 47.3627V47.8627H85.717L85.7322 47.3783L85.2324 47.3627ZM81.8516 47.3627V46.8627H81.3436L81.3516 47.3706L81.8516 47.3627ZM82.1797 48.5053L81.7859 48.8134L81.7887 48.8169L82.1797 48.5053ZM83.8965 46.3549V46.8549H84.4087L84.3963 46.3428L83.8965 46.3549ZM83.5859 45.265L83.1943 45.5759L83.1967 45.5789L83.5859 45.265ZM82.168 45.2767L82.5636 45.5825L82.5643 45.5816L82.168 45.2767ZM81.875 46.3549L81.375 46.3591L81.3792 46.8549H81.875V46.3549ZM83.7198 48.5087L85.0616 48.7841L85.2626 47.8045L83.9208 47.5291L83.7198 48.5087ZM84.6816 48.1562C84.5209 48.715 84.2864 49.0777 84.0109 49.2992L84.6375 50.0785C85.1199 49.6906 85.4439 49.1236 85.6426 48.4325L84.6816 48.1562ZM84.0134 49.2972C83.7337 49.5193 83.3861 49.64 82.9414 49.64V50.64C83.5827 50.64 84.157 50.46 84.6351 50.0805L84.0134 49.2972ZM82.9414 49.64C82.3109 49.64 81.8825 49.4363 81.5831 49.0685L80.8075 49.6998C81.3285 50.3398 82.0641 50.64 82.9414 50.64V49.64ZM81.5807 49.0656C81.1946 48.5985 80.9688 47.9063 80.9688 46.9232H79.9688C79.9688 48.0496 80.2273 48.9979 80.8099 49.7027L81.5807 49.0656ZM80.9688 46.9232C80.9688 45.961 81.1943 45.2481 81.5952 44.735L80.8072 44.1193C80.2315 44.8562 79.9688 45.8073 79.9688 46.9232H80.9688ZM81.5944 44.7359C81.9161 44.3262 82.3077 44.1361 82.8066 44.1361V43.1361C81.9931 43.1361 81.3144 43.4733 80.8079 44.1184L81.5944 44.7359ZM82.8066 44.1361C83.3952 44.1361 83.8154 44.3437 84.1269 44.7493L84.92 44.1401C84.4034 43.4676 83.6791 43.1361 82.8066 43.1361V44.1361ZM84.1277 44.7503C84.5087 45.2438 84.7383 46.026 84.7383 47.1752H85.7383C85.7383 45.9181 85.4913 44.88 84.9192 44.1391L84.1277 44.7503ZM84.7385 47.1596L84.7327 47.3471L85.7322 47.3783L85.738 47.1908L84.7385 47.1596ZM85.2324 46.8627H81.8516V47.8627H85.2324V46.8627ZM81.3516 47.3706C81.3604 47.9256 81.4841 48.4277 81.7859 48.8134L82.5734 48.1971C82.4534 48.0438 82.3583 47.7841 82.3515 47.3547L81.3516 47.3706ZM81.7887 48.8169C82.0828 49.1859 82.4767 49.4096 82.9531 49.4096V48.4096C82.828 48.4096 82.7063 48.3637 82.5707 48.1936L81.7887 48.8169ZM82.9531 49.4096C83.2978 49.4096 83.6099 49.2857 83.8534 49.0357C84.0831 48.7998 84.2221 48.4824 84.3061 48.1372L83.3345 47.9007C83.274 48.1492 83.1962 48.2771 83.1369 48.3381C83.0913 48.385 83.042 48.4096 82.9531 48.4096V49.4096ZM84.3963 46.3428C84.3834 45.8059 84.2686 45.315 83.9751 44.9511L83.1967 45.5789C83.2939 45.6994 83.3862 45.935 83.3966 46.367L84.3963 46.3428ZM83.9776 44.9542C83.7051 44.6108 83.3371 44.3959 82.8887 44.3959V45.3959C82.9793 45.3959 83.0762 45.427 83.1943 45.5759L83.9776 44.9542ZM82.8887 44.3959C82.4276 44.3959 82.0483 44.6123 81.7717 44.9719L82.5643 45.5816C82.6783 45.4334 82.7794 45.3959 82.8887 45.3959V44.3959ZM81.7723 44.971C81.4812 45.3478 81.3705 45.8315 81.375 46.3591L82.375 46.3506C82.3716 45.9563 82.4563 45.7213 82.5636 45.5825L81.7723 44.971ZM81.875 46.8549H83.8965V45.8549H81.875V46.8549Z" fill="#4B0E00"/>
</g>
</g>
<path d="M21.017 36.3481L26.313 56.7589C26.7297 58.3647 25.2733 59.8137 23.7281 59.3997L3.64032 54.0171C2.0952 53.6031 1.55842 51.6201 2.72217 50.4377L17.514 35.4095C18.6629 34.2422 20.6056 34.7627 21.017 36.3481Z" fill="#D9D9D9" stroke="#4B0E00"/>
<mask id="mask2_0_34194" style="mask-type:luminance" maskUnits="userSpaceOnUse" x="9" y="42" width="14" height="14">
<path d="M22.9323 45.0244L12.2793 42.1699L9.42483 52.8229L20.0778 55.6774L22.9323 45.0244Z" fill="white"/>
</mask>
<g mask="url(#mask2_0_34194)">
<mask id="mask3_0_34194" style="mask-type:luminance" maskUnits="userSpaceOnUse" x="9" y="42" width="14" height="14">
<path d="M22.9325 45.0244L12.2795 42.1699L9.4209 52.8384L20.0739 55.6928L22.9325 45.0244Z" fill="white"/>
</mask>
<g mask="url(#mask3_0_34194)">
<path d="M21.6266 47.5683L20.9347 47.9704C20.58 48.1747 20.1588 48.23 19.7634 48.124C19.368 48.0181 19.0308 47.7596 18.8258 47.4053C18.6231 47.0491 18.5689 46.6273 18.675 46.2314C18.7811 45.8355 19.0389 45.4974 19.3925 45.2902L20.0844 44.8881C20.4771 44.6614 20.3625 44.259 19.7982 44.1974C19.2028 44.1339 18.6026 44.2614 18.0843 44.5613C17.6763 44.7987 17.3338 45.134 17.0879 45.5369C16.8421 45.9398 16.7005 46.3977 16.6759 46.8691L10.8762 50.2307C10.5225 50.4379 10.2647 50.776 10.1586 51.1719C10.0525 51.5678 10.1067 51.9896 10.3094 52.3458C10.5138 52.7 10.8504 52.9586 11.2453 53.0646C11.6404 53.1702 12.0612 53.1146 12.4153 52.9101L18.2159 49.5454C18.5581 49.7196 18.9323 49.822 19.3156 49.8465C19.6988 49.871 20.083 49.8171 20.4446 49.6879C20.8062 49.5582 21.1375 49.3562 21.4183 49.0941C21.6991 48.8321 21.9235 48.5156 22.0778 48.1638C22.3066 47.6443 22.0083 47.3453 21.6266 47.5683ZM11.9015 52.0156C11.8433 52.0496 11.779 52.0717 11.7122 52.0807C11.6454 52.0897 11.5775 52.0853 11.5124 52.0679C11.4473 52.0504 11.3864 52.0202 11.333 51.9791C11.2797 51.9379 11.235 51.8866 11.2016 51.8281C11.1676 51.7693 11.1455 51.7044 11.1366 51.6371C11.1277 51.5698 11.1321 51.5014 11.1497 51.4358C11.1673 51.3702 11.1976 51.3087 11.239 51.2549C11.2803 51.2011 11.3319 51.1559 11.3908 51.122C11.5075 51.0578 11.6446 51.0411 11.7733 51.0756C11.902 51.1101 12.0124 51.193 12.0814 51.3071C12.1473 51.424 12.1648 51.5622 12.1301 51.6919C12.0953 51.8216 12.0111 51.9325 11.8955 52.0008L11.9015 52.0156ZM13.1485 45.3796L14.4073 47.569L15.2987 47.0544L14.0399 44.865L13.8511 44.0211L12.8489 42.8066L11.9567 43.3243L12.5012 44.7979L13.1485 45.3796ZM17.923 50.5888C17.8898 50.5298 17.8346 50.4864 17.7695 50.468C17.703 50.451 17.6325 50.4607 17.5731 50.495L16.2372 51.2689C16.1781 51.3034 16.135 51.3598 16.1173 51.4259C16.0996 51.4921 16.1087 51.5625 16.1426 51.6219L17.9512 54.7818C18.0883 55.0175 18.3131 55.1895 18.5765 55.2601C18.8399 55.3306 19.1206 55.2941 19.3572 55.1585C19.5936 55.0205 19.766 54.7947 19.8369 54.5302C19.9077 54.2658 19.8713 53.9841 19.7356 53.7464L17.923 50.5888Z" fill="#1E2024"/>
</g>
</g>
</g>
<defs>
<filter id="filter0_d_0_34194" x="26.1973" y="40.6113" width="59.5947" height="11.0293" filterUnits="userSpaceOnUse" color-interpolation-filters="sRGB">
<feFlood flood-opacity="0" result="BackgroundImageFix"/>
<feColorMatrix in="SourceAlpha" type="matrix" values="0 0 0 0 0 0 0 0 0 0 0 0 0 0 0 0 0 0 127 0" result="hardAlpha"/>
<feOffset dy="1"/>
<feComposite in2="hardAlpha" operator="out"/>
<feColorMatrix type="matrix" values="0 0 0 0 0.294118 0 0 0 0 0.054902 0 0 0 0 0 0 0 0 1 0"/>
<feBlend mode="normal" in2="BackgroundImageFix" result="effect1_dropShadow_0_34194"/>
<feBlend mode="normal" in="SourceGraphic" in2="effect1_dropShadow_0_34194" result="shape"/>
</filter>
<clipPath id="clip0_0_34194">
<rect width="88" height="88" fill="white"/>
</clipPath>
</defs>
</svg>
