<svg width="14" height="19" viewBox="0 0 14 19" fill="none" xmlns="http://www.w3.org/2000/svg">
<g clip-path="url(#clip0_0_4634)">
<path d="M4.60651 18.9956C4.60651 18.9956 3.40519 17.1734 2.29628 15.7384C1.57202 14.8195 0.800874 13.9403 -0.0139558 13.1044C-0.0139558 13.1044 -0.2496 10.9046 1.83423 11.8298C2.56241 12.1767 3.14216 12.7824 3.46525 13.5339L3.50683 4.565C3.53393 4.42594 3.58899 4.29414 3.66852 4.17794C3.74806 4.06175 3.85033 3.96369 3.96888 3.88997C4.1965 3.76102 4.45251 3.69336 4.71278 3.69336C4.97306 3.69336 5.22905 3.76102 5.45667 3.88997C5.56203 3.96729 5.6508 4.06579 5.71754 4.17944C5.78429 4.29309 5.82759 4.41946 5.84479 4.55082V10.2154C5.84479 10.2154 7.18472 8.32723 8.76492 10.3429C8.76492 10.3429 9.95239 8.31305 11.6158 10.442C11.6158 10.442 12.5768 8.52076 13.6395 10.0408C13.8605 10.3612 13.9784 10.744 13.9768 11.1359V17.4189C13.9803 17.7939 13.845 18.1564 13.5979 18.4338C13.4403 18.5999 13.2514 18.7315 13.0425 18.8208C12.8336 18.91 12.6091 18.955 12.3827 18.9531L4.60651 18.9956Z" fill="#85D420"/>
<path d="M4.66667 0C3.42899 0 2.24201 0.502324 1.36684 1.39644C0.491666 2.29056 3.78594e-07 3.50325 3.78594e-07 4.76772C-0.000330953 5.60404 0.21682 6.42542 0.629237 7.14785C1.04165 7.87027 1.63452 8.46778 2.34719 8.87925V7.41591C1.97557 7.08475 1.67741 6.67638 1.47263 6.21807C1.26786 5.75976 1.16119 5.26207 1.15974 4.75827C1.15974 3.81304 1.52727 2.90655 2.18148 2.23817C2.83569 1.5698 3.72299 1.1943 4.64818 1.1943C5.57338 1.1943 6.46068 1.5698 7.11489 2.23817C7.7691 2.90655 8.13664 3.81304 8.13664 4.75827C8.13492 5.25244 8.03208 5.74079 7.83475 6.19196C7.63742 6.64314 7.34994 7.04716 6.99076 7.37814V8.88398C7.70189 8.4723 8.2934 7.87526 8.70494 7.15378C9.11647 6.4323 9.33332 5.61219 9.33334 4.77714C9.33334 4.15104 9.21263 3.53109 8.9781 2.95264C8.74358 2.3742 8.39984 1.84861 7.9665 1.40589C7.53316 0.96317 7.01872 0.611961 6.45253 0.372361C5.88634 0.132762 5.27951 0.00945021 4.66667 0.00945021V0Z" fill="#85D420"/>
</g>
<defs>
<clipPath id="clip0_0_4634">
<rect width="14" height="19" fill="white"/>
</clipPath>
</defs>
</svg>
