<svg width="14" height="14" viewBox="0 0 14 14" fill="none" xmlns="http://www.w3.org/2000/svg">
<path d="M12.4685 5.83134e-05H0.781135C0.679024 -0.0011448 0.577668 0.0162796 0.482952 0.0513582C0.388236 0.0864369 0.302047 0.138438 0.22938 0.204371C0.156712 0.270304 0.0990166 0.348884 0.059641 0.43547C0.0202655 0.522056 -8.39016e-06 0.614931 2.60469e-09 0.708774V13.5661C0.00243418 13.6525 0.0321571 13.7363 0.0855463 13.8074C0.138936 13.8786 0.213684 13.9339 0.30068 13.9666C0.387675 13.9994 0.483159 14.0082 0.575491 13.9919C0.667824 13.9757 0.75302 13.935 0.820686 13.8751L2.35329 12.4121C2.39953 12.3668 2.45543 12.3306 2.51751 12.3058C2.57959 12.2811 2.64653 12.2683 2.71419 12.2683C2.78186 12.2683 2.8488 12.2811 2.91088 12.3058C2.97296 12.3306 3.02885 12.3668 3.0751 12.4121L4.19241 13.5934C4.23939 13.6376 4.29552 13.6728 4.3575 13.6968C4.41948 13.7208 4.48606 13.7331 4.55332 13.7331C4.62058 13.7331 4.68716 13.7208 4.74914 13.6968C4.81112 13.6728 4.86725 13.6376 4.91422 13.5934L6.26884 12.3576C6.31429 12.311 6.36992 12.2737 6.4321 12.2482C6.49429 12.2227 6.56164 12.2094 6.62975 12.2094C6.69786 12.2094 6.76521 12.2227 6.82739 12.2482C6.88958 12.2737 6.94521 12.311 6.99065 12.3576L8.10797 13.5389C8.15422 13.5843 8.21011 13.6204 8.27219 13.6452C8.33427 13.6699 8.40121 13.6827 8.46887 13.6827C8.53654 13.6827 8.60348 13.6699 8.66556 13.6452C8.72764 13.6204 8.78353 13.5843 8.82978 13.5389L10.1844 12.3031C10.2306 12.2577 10.2865 12.2215 10.3486 12.1968C10.4107 12.1721 10.4776 12.1593 10.5453 12.1593C10.613 12.1593 10.6799 12.1721 10.742 12.1968C10.8041 12.2215 10.86 12.2577 10.9062 12.3031L12.3498 13.6934C12.4422 13.7766 12.5665 13.8232 12.6959 13.8232C12.8253 13.8232 12.9496 13.7766 13.042 13.6934C13.1242 13.6282 13.1898 13.5472 13.2343 13.4561C13.2787 13.365 13.3008 13.2661 13.299 13.1663V0.726965C13.2914 0.536527 13.2036 0.356245 13.0542 0.224059C12.9049 0.0918729 12.7055 0.0180628 12.4981 0.0181935L12.4685 5.83134e-05Z" fill="white"/>
<path d="M9.1067 9.08625H4.16281C3.9976 9.08625 3.83916 9.02595 3.72233 8.9186C3.60551 8.81125 3.53988 8.66562 3.53988 8.5138C3.54248 8.36356 3.60925 8.22028 3.72579 8.11488C3.84234 8.00949 3.9993 7.95043 4.16281 7.95045H9.1067C9.27021 7.95043 9.42717 8.00949 9.54371 8.11488C9.66026 8.22028 9.72703 8.36356 9.72962 8.5138C9.72962 8.66562 9.66399 8.81125 9.54717 8.9186C9.43035 9.02595 9.27191 9.08625 9.1067 9.08625Z" fill="#2E3135"/>
<path d="M9.1067 11.5249H4.16281C3.9993 11.5249 3.84234 11.4658 3.72579 11.3604C3.60925 11.255 3.54248 11.1117 3.53988 10.9615C3.53988 10.8097 3.60551 10.6641 3.72233 10.5567C3.83916 10.4494 3.9976 10.3891 4.16281 10.3891H9.1067C9.27191 10.3891 9.43035 10.4494 9.54717 10.5567C9.66399 10.6641 9.72962 10.8097 9.72962 10.9615C9.72703 11.1117 9.66026 11.255 9.54371 11.3604C9.42717 11.4658 9.27021 11.5249 9.1067 11.5249Z" fill="#2E3135"/>
<path d="M9.10685 8.97126H4.16297C4.0127 8.96529 3.86985 8.90956 3.76081 8.81436C3.65176 8.71917 3.58388 8.59092 3.5697 8.45332C3.5697 8.3015 3.63533 8.15588 3.75215 8.04852C3.86897 7.94117 4.02742 7.88087 4.19263 7.88087H9.13651C9.30172 7.88087 9.46017 7.94117 9.57699 8.04852C9.69381 8.15588 9.75944 8.3015 9.75944 8.45332C9.75685 8.60356 9.69007 8.74684 9.57353 8.85224C9.45699 8.95764 9.30002 9.0167 9.13651 9.01668L9.10685 8.97126Z" fill="#2E3135"/>
</svg>
