<svg width="356" height="13" viewBox="0 0 356 13" fill="none" xmlns="http://www.w3.org/2000/svg">
<mask id="mask0_0_50865" style="mask-type:luminance" maskUnits="userSpaceOnUse" x="0" y="0" width="356" height="13">
<path fill-rule="evenodd" clip-rule="evenodd" d="M0 0H356V13H0V0Z" fill="white"/>
</mask>
<g mask="url(#mask0_0_50865)">
<path fill-rule="evenodd" clip-rule="evenodd" d="M352.22 11.22C352.72 10.72 353 10.04 353 9.33V2.67C353 1.96 352.72 1.28 352.22 0.78C351.72 0.28 351.04 0 350.33 0H332.67C331.96 0 331.28 0.28 330.78 0.78C330.28 1.28 330 1.96 330 2.67V9.33C330 10.04 330.28 10.72 330.78 11.22C331.28 11.72 331.96 12 332.67 12H350.33C351.04 12 351.72 11.72 352.22 11.22Z" stroke="white" stroke-width="0.8"/>
<path opacity="0.4" fill-rule="evenodd" clip-rule="evenodd" d="M355 7C355.61 6.75 356 6.15 356 5.5C356 4.85 355.61 4.25 355 4V7Z" fill="white"/>
<path fill-rule="evenodd" clip-rule="evenodd" d="M343.67 10C344.4 10 345 9.4 345 8.67V3.33C345 2.6 344.4 2 343.67 2H333.33C332.6 2 332 2.6 332 3.33V8.67C332 9.4 332.6 10 333.33 10H343.67Z" fill="white"/>
<path d="M312.411 9.8908C313.751 8.76084 315.711 8.76082 317.041 9.8908C317.111 9.95073 317.15 10.0305 317.15 10.1203C317.16 10.2103 317.121 10.3005 317.051 10.3605L314.961 12.4709C314.901 12.5408 314.81 12.5705 314.73 12.5705C314.641 12.5704 314.561 12.5405 314.491 12.4709L312.4 10.3605C312.331 10.3005 312.301 10.2102 312.301 10.1203C312.301 10.0304 312.341 9.95076 312.411 9.8908ZM309.609 7.07635C312.499 4.39635 316.96 4.39635 319.84 7.07635C319.91 7.13635 319.95 7.21659 319.95 7.31658C319.95 7.40652 319.91 7.48686 319.85 7.55682L318.64 8.77654C318.51 8.89642 318.31 8.89649 318.18 8.77654C317.24 7.92654 315.999 7.44647 314.729 7.44647C313.45 7.44653 312.219 7.9266 311.27 8.77654C311.15 8.89637 310.939 8.89648 310.819 8.77654L309.609 7.55682C309.539 7.48686 309.51 7.40652 309.51 7.31658C309.51 7.21667 309.549 7.13633 309.609 7.07635ZM306.816 4.26385C311.236 0.0339613 318.217 0.0341173 322.637 4.26385C322.697 4.3238 322.736 4.41416 322.736 4.50408C322.736 4.59408 322.707 4.67432 322.637 4.74432L321.427 5.96404C321.307 6.08404 321.097 6.08404 320.977 5.96404C319.287 4.3642 317.056 3.47479 314.727 3.47479C312.407 3.47485 310.166 4.3641 308.486 5.96404C308.356 6.08393 308.156 6.08401 308.026 5.96404L306.816 4.74432C306.747 4.67436 306.717 4.594 306.717 4.50408C306.717 4.41416 306.756 4.3238 306.816 4.26385Z" fill="white"/>
<path d="M289.67 5.96094C290.25 5.96094 290.71 6.43098 290.71 7.00098V11.1709C290.71 11.7509 290.25 12.2207 289.67 12.2207H288.62C288.05 12.2207 287.58 11.7509 287.58 11.1709V7.00098C287.58 6.43098 288.05 5.96094 288.62 5.96094H289.67ZM294.545 3.52734C295.125 3.52734 295.585 3.99738 295.585 4.56738V11.1777C295.585 11.7476 295.125 12.2178 294.545 12.2178H293.495C292.925 12.2178 292.455 11.7476 292.455 11.1777V4.56738C292.455 3.99738 292.925 3.52734 293.495 3.52734H294.545ZM284.793 8.04688C285.373 8.04688 285.833 8.51691 285.833 9.08691V11.1768C285.833 11.7468 285.373 12.2168 284.793 12.2168H283.743C283.173 12.2168 282.703 11.7468 282.703 11.1768V9.08691C282.703 8.51691 283.173 8.04688 283.743 8.04688H284.793ZM299.422 1.09375C300.002 1.09375 300.462 1.56379 300.462 2.13379V11.1738C300.462 11.7538 300.002 12.2139 299.422 12.2139H298.372C297.802 12.2139 297.332 11.7538 297.332 11.1738V2.13379C297.332 1.56379 297.802 1.09375 298.372 1.09375H299.422Z" fill="white"/>
<path d="M12.2705 0C14.1805 0 15.0811 1.20996 15.0811 1.20996C15.9752 2.40227 16.0103 4.89758 16.0107 4.92969V6.86035C16.0107 9.47011 15.1104 10.7305 15.1104 10.7305C14.216 11.9918 12.3153 11.9999 12.291 12C10.4082 12 9.49807 10.7691 9.49121 10.7598C8.58121 9.51977 8.55078 7.05957 8.55078 7.05957V5.08008C8.55078 2.50008 9.45117 1.25 9.45117 1.25C10.345 0.00881253 12.2443 5.91415e-05 12.2705 0ZM4.53027 11.8398H3.03027V1.94922L0 3.0498V1.69922L4.2998 0.0996094H4.53027V11.8398ZM27.71 7.91992H29.3496V9.12988H27.71V11.8398H26.2002V9.12988H20.8301V8.25L26.1104 0.160156H27.71V7.91992ZM38 0.990234L33.1094 11.8398H31.5293L36.4092 1.37988H30.0195V0.160156H38V0.990234ZM12.2705 1.2207C11.1207 1.22084 10.6006 2.08105 10.6006 2.08105C10.0708 2.94118 10.0508 4.7207 10.0508 4.7207V7.09082C10.0508 8.96274 10.5999 9.87345 10.6104 9.89062C11.1604 10.7906 12.291 10.791 12.291 10.791C13.4009 10.7909 13.9404 9.94043 13.9404 9.94043C14.479 9.0927 14.5106 7.27055 14.5107 7.26074V4.83105C14.5107 2.95844 13.9805 2.09674 13.9707 2.08105C13.4307 1.22105 12.2705 1.2207 12.2705 1.2207ZM26.0293 2.50977L22.5293 7.91992H26.1992V2.18945L26.0293 2.50977Z" fill="white"/>
<path d="M17.9902 8.59961C18.4801 8.59968 18.7402 8.80957 18.7402 8.80957C18.9885 9.00826 18.9902 9.30569 18.9902 9.30957C18.9902 9.60703 18.7444 9.79662 18.7402 9.7998C18.4835 9.99728 18.0023 9.99997 17.9902 10C17.496 10 17.2555 9.80431 17.25 9.7998C17 9.6098 17 9.30957 17 9.30957C17 9.00959 17.25 8.80957 17.25 8.80957C17.49 8.59959 17.9902 8.59961 17.9902 8.59961ZM18 3C18.49 3 18.7402 3.2002 18.7402 3.2002C18.9983 3.4088 19 3.70605 19 3.70996C19 3.99758 18.7444 4.19695 18.7402 4.2002C18.4902 4.4002 18 4.40039 18 4.40039C17.5 4.40039 17.2598 4.2002 17.2598 4.2002C17.0098 4.0002 17.0098 3.70996 17.0098 3.70996C17.0098 3.4153 17.2512 3.20747 17.2598 3.2002C17.4997 3.00021 17.9999 3 18 3Z" fill="white"/>
</g>
</svg>
