<svg width="20" height="17" viewBox="0 0 20 17" fill="none" xmlns="http://www.w3.org/2000/svg">
<path d="M14.4004 5.26165H12.0008V0.40451C12.0008 0.135091 11.7339 0 11.6012 0H8.40149C8.13454 0 8.00182 0.135091 8.00182 0.40451V5.12733H5.73497C5.60224 5.12733 5.46877 5.12732 5.33529 5.26165C5.20182 5.39598 5.20182 5.80125 5.33529 5.93634L9.73476 10.389C9.86823 10.5241 10.2679 10.5241 10.4014 10.389L14.6674 6.07143C14.7432 6.00113 14.7905 5.90484 14.8001 5.80124C14.7971 5.53183 14.6644 5.26165 14.4004 5.26165Z" fill="#2D0A00"/>
<path d="M19.8632 8.5L17.3301 4.18246C17.1967 3.77795 16.6635 3.64286 16.2638 3.91304C15.8641 4.18322 15.7307 4.58697 15.9969 4.99224L17.9968 8.36491H14.6644C14.2639 8.36491 13.9977 8.63509 13.8643 9.0396C13.7308 9.98371 13.1976 10.9286 12.531 11.4682C11.8644 12.0078 10.9315 12.4123 9.99796 12.4123C9.06437 12.4123 8.13154 12.0078 7.46566 11.4682C6.79903 10.7935 6.26587 9.98371 6.1324 9.0396C6.1324 8.63509 5.73197 8.36491 5.33229 8.36491H1.99989L3.99904 4.99224C4.26599 4.58697 4.13251 4.18246 3.73283 3.91304C3.33315 3.64362 2.79925 3.77795 2.66577 4.18246L0.133478 8.63509C2.19902e-06 8.77018 0 8.90451 0 9.0396V16.1902C0 16.5955 0.399681 17 0.800109 17H19.1995C19.5992 17 19.9997 16.5955 19.9997 16.1902V9.0396C20.0045 8.8504 19.9573 8.66356 19.8632 8.5Z" fill="#2D0A00"/>
</svg>
