<svg width="24" height="24" viewBox="0 0 24 24" fill="none" xmlns="http://www.w3.org/2000/svg">
<path d="M11.9985 0C5.38247 0 0 5.38247 0 11.9985C0 18.6175 5.38247 24 11.9985 24C18.6145 24 23.997 18.6175 23.997 11.9985C23.997 5.38548 18.6145 0 11.9985 0ZM10.3859 18.8251C10.2565 19.0297 9.95562 19.0267 9.83528 18.8161C9.06506 17.4742 6.64009 13.7134 3.05378 12.5822L4.63633 11.5532C6.14968 10.5694 8.18954 11.0056 9.13426 12.5431C9.81722 13.6533 10.1 14.7574 10.1 14.7574C10.1 14.7574 13.7345 6.5739 18.786 5.03949C18.786 5.03949 17.2095 8.64084 19.5111 11.2403C19.5051 11.2403 14.264 12.6995 10.3859 18.8251Z" fill="#85D420"/>
</svg>
