<svg width="296" height="211" viewBox="0 0 296 211" fill="none" xmlns="http://www.w3.org/2000/svg">
<path d="M15.7235 11.285C11.9742 11.5353 8.96762 14.4826 8.64264 18.2262L8.33998 21.7127L8.07649 17.693C7.86671 14.4927 5.20966 12.0041 2.00239 12.0041C5.42448 11.0385 7.87575 8.03365 8.13427 4.48737L8.25816 2.78796C8.26678 2.6697 8.43953 2.66744 8.45126 2.78543L8.55716 3.85117C8.93847 7.68863 11.9026 10.7634 15.7235 11.285Z" fill="white"/>
<path d="M13.7215 124.397C9.9722 124.647 6.96565 127.594 6.64067 131.338L6.338 134.824L6.07452 130.805C5.86473 127.604 3.20768 125.116 0.000419024 125.116C3.42251 124.15 5.87378 121.145 6.1323 117.599L6.25618 115.9C6.2648 115.781 6.43756 115.779 6.44928 115.897L6.55518 116.963C6.93649 120.8 9.90062 123.875 13.7215 124.397Z" fill="white"/>
<path d="M296 9.283C292.251 9.53334 289.244 12.4806 288.919 16.2242L288.616 19.7108L288.353 15.6911C288.143 12.4907 285.486 10.0021 282.279 10.0021C285.701 9.03654 288.152 6.03168 288.411 2.48539L288.535 0.78599C288.543 0.66773 288.716 0.66546 288.728 0.783453L288.834 1.8492C289.215 5.68666 292.179 8.76141 296 9.283Z" fill="#FFF07A"/>
<path d="M36.7452 199.471C32.9959 199.721 29.9893 202.668 29.6644 206.412L29.3617 209.898L29.0982 205.879C28.8884 202.678 26.2314 200.19 23.0241 200.19C26.4462 199.224 28.8975 196.219 29.156 192.673L29.2799 190.974C29.2885 190.855 29.4612 190.853 29.473 190.971L29.5789 192.037C29.9602 195.874 32.9243 198.949 36.7452 199.471Z" fill="#FFF07A"/>
<path d="M263.968 200.472C260.219 200.722 257.213 203.669 256.888 207.413L256.585 210.899L256.321 206.88C256.112 203.679 253.455 201.191 250.247 201.191C253.669 200.225 256.121 197.22 256.379 193.674L256.503 191.975C256.512 191.856 256.684 191.854 256.696 191.972L256.802 193.038C257.183 196.875 260.147 199.95 263.968 200.472Z" fill="#FFF07A"/>
<path d="M22.6156 4.2935C20.7409 4.41867 19.2376 5.8923 19.0751 7.7641L18.9238 9.50739L18.7921 7.49754C18.6872 5.89734 17.3586 4.65305 15.755 4.65305C17.4661 4.17027 18.6917 2.66784 18.8209 0.894696L18.8829 0.0449952C18.8872 -0.0141347 18.9736 -0.0152694 18.9794 0.0437268L19.0324 0.5766C19.223 2.49533 20.7051 4.0327 22.6156 4.2935Z" fill="#FFF07A"/>
<path d="M270.859 194.481C268.985 194.606 267.482 196.08 267.319 197.952L267.168 199.695L267.036 197.685C266.931 196.085 265.603 194.841 263.999 194.841C265.71 194.358 266.936 192.855 267.065 191.082L267.127 190.233C267.131 190.173 267.217 190.172 267.223 190.231L267.276 190.764C267.467 192.683 268.949 194.22 270.859 194.481Z" fill="#FFF07A"/>
<path d="M20.6136 120.408C18.7389 120.533 17.2356 122.007 17.0732 123.879L16.9218 125.622L16.7901 123.612C16.6852 122.012 15.3567 120.768 13.753 120.768C15.4641 120.285 16.6897 118.782 16.819 117.009L16.8809 116.16C16.8852 116.1 16.9716 116.099 16.9775 116.158L17.0304 116.691C17.2211 118.61 18.7031 120.147 20.6136 120.408Z" fill="#FFF07A"/>
<path d="M280.724 113.401C278.849 113.526 277.346 115 277.183 116.872L277.032 118.615L276.9 116.605C276.795 115.005 275.467 113.761 273.863 113.761C275.574 113.278 276.8 111.775 276.929 110.002L276.991 109.153C276.995 109.093 277.082 109.092 277.088 109.151L277.141 109.684C277.331 111.603 278.813 113.14 280.724 113.401Z" fill="#FFDF63"/>
</svg>
