<svg width="62" height="14" viewBox="0 0 62 14" fill="none" xmlns="http://www.w3.org/2000/svg">
<path d="M0 10.403V13.1918H6.07535L6.99483 10.403H0Z" fill="#0099FA"/>
<path d="M0 7.02976V9.86293L7.63506 8.48174L8.62945 5.4627L0 7.02976Z" fill="#0099FA"/>
<path d="M0 3.55029V6.47196L9.32419 3.37322L10.4344 0L0 3.55029Z" fill="#0099FA"/>
<path d="M5.61911 8.64114C5.68482 8.62769 5.74471 8.58415 5.7879 8.51846C5.83113 8.45272 5.85488 8.36908 5.85488 8.28259C5.85488 8.19609 5.83113 8.11246 5.7879 8.04672C5.74471 7.98098 5.68482 7.93749 5.61911 7.92403C5.55339 7.93749 5.49354 7.98098 5.45031 8.04672C5.40712 8.11246 5.38334 8.19609 5.38334 8.28259C5.38334 8.36908 5.40712 8.45272 5.45031 8.51846C5.49354 8.58415 5.55339 8.62769 5.61911 8.64114Z" fill="#0099FA"/>
<path d="M14.9706 8.14544H17.0139L17.6813 6.0737H14.9706V4.6394H18.1513L18.8733 2.42602L18.8801 2.40831H12.975V11.8816H18.8869V9.65054H14.9706V8.14544Z" fill="white"/>
<path d="M38.2162 2.40821H35.09V11.8815H37.1332V9.17233H38.1412C38.953 9.22646 39.7546 8.91364 40.4094 8.28698C40.6965 7.98709 40.9248 7.60268 41.0753 7.1655C41.2256 6.72828 41.2937 6.25082 41.2743 5.77257C41.2927 5.30699 41.2283 4.84215 41.0866 4.4139C40.9449 3.98564 40.7296 3.60538 40.457 3.30242C39.8176 2.66197 39.0215 2.34429 38.2162 2.40821ZM38.8972 6.78188C38.6573 7.0028 38.3664 7.10917 38.0731 7.08292H37.1128V4.61275H38.0595C38.3651 4.59072 38.6672 4.70298 38.9176 4.93146C39.0164 5.0399 39.0951 5.17573 39.1482 5.32893C39.2014 5.48218 39.2273 5.64888 39.2242 5.81686C39.2351 5.99772 39.2133 6.17941 39.1598 6.34712C39.1067 6.51484 39.0235 6.66382 38.9176 6.78188H38.8972Z" fill="white"/>
<path d="M43.9713 2.40831H41.9484V11.8816H46.4162L47.1656 9.5797H43.9713V2.40831Z" fill="white"/>
<path d="M50.6049 2.33745L47.9965 10.3588L47.506 11.8816H49.631L50.1488 10.1906H52.9616L53.4927 11.8816H55.6586L52.5528 2.33745H50.6049ZM50.7412 8.14539L51.5653 5.48935L52.3757 8.14539H50.7412Z" fill="white"/>
<path d="M59.7387 2.40831L58.2269 5.86122L56.7283 2.40831H54.4265L57.1984 8.33135V11.8816H59.2281V8.29596L62 2.40831H59.7387Z" fill="white"/>
<path d="M24.8532 2.40831L23.1982 8.40219L21.5431 2.40831H19.2819L22.2378 11.9525H24.1108L27.0736 2.40831H24.8532Z" fill="white"/>
<path d="M30.4854 2.23987C29.7364 2.23987 29.0042 2.52857 28.3815 3.06947C27.7588 3.61037 27.2734 4.37918 26.9868 5.27867C26.7002 6.17814 26.6252 7.16792 26.7713 8.12279C26.9174 9.0777 27.2781 9.95483 27.8077 10.6433C28.3373 11.3317 29.012 11.8005 29.7466 11.9905C30.4812 12.1804 31.2426 12.0829 31.9346 11.7104C32.6265 11.3378 33.218 10.7068 33.6341 9.89731C34.0502 9.08777 34.2724 8.13607 34.2724 7.16247C34.2724 5.85691 33.8733 4.60483 33.1631 3.68166C32.4529 2.75849 31.4897 2.23987 30.4854 2.23987ZM30.4854 9.74772C30.092 9.74772 29.7075 9.5961 29.3805 9.31203C29.0534 9.02793 28.7985 8.62417 28.648 8.15181C28.4974 7.67941 28.4581 7.15961 28.5348 6.6581C28.6115 6.15663 28.801 5.69597 29.0791 5.33443C29.3572 4.97284 29.7116 4.72664 30.0974 4.62691C30.4832 4.52713 30.8831 4.57832 31.2465 4.774C31.6099 4.96968 31.9205 5.30101 32.139 5.72618C32.3576 6.15131 32.4742 6.65115 32.4742 7.16247C32.4724 7.84655 32.2621 8.50188 31.8893 8.98479C31.5165 9.4677 31.0117 9.73884 30.4854 9.73884V9.74772Z" fill="white"/>
</svg>
