<svg width="12" height="14" viewBox="0 0 12 14" fill="none" xmlns="http://www.w3.org/2000/svg">
<path d="M9.45506 3.39008V6.3407C9.45506 8.2117 7.90923 9.73077 6.00525 9.73077C4.10127 9.73077 2.55544 8.2117 2.55544 6.3407V3.39008C2.55544 1.51907 4.10127 0 6.00525 0C7.90923 0 9.45506 1.51907 9.45506 3.39008ZM7.991 3.39008C7.991 2.3131 7.10121 1.43871 6.00525 1.43871C4.9093 1.43871 4.0195 2.3131 4.0195 3.39008V6.3407C4.0195 7.41767 4.9093 8.29206 6.00525 8.29206C7.10121 8.29206 7.991 7.41767 7.991 6.3407V3.39008Z" fill="#A7B4C9"/>
<path d="M5.74961 0.250991C5.74961 0.184424 5.77652 0.120584 5.82442 0.0735136C5.87232 0.0264436 5.93728 0 6.00502 0H6.00515C7.90913 0 9.45496 1.51907 9.45496 3.39008V6.3407C9.45496 6.49765 9.4441 6.65208 9.42302 6.80332C9.41805 6.83829 9.40559 6.87183 9.38649 6.90174C9.36738 6.93165 9.34204 6.95724 9.31215 6.97684C9.28226 6.99644 9.24848 7.00959 9.21304 7.01545C9.1776 7.0213 9.14131 7.01972 9.10653 7.0108C8.83675 6.94237 8.42468 6.8369 8.1733 6.77262C8.11502 6.75768 8.06399 6.72299 8.02921 6.67468C7.99442 6.62637 7.97812 6.56754 7.98317 6.50857C7.98847 6.45326 7.9909 6.39726 7.9909 6.3407V3.39008C7.9909 2.3131 7.10111 1.43871 6.00515 1.43871H6.00502C5.93728 1.43871 5.87232 1.41227 5.82442 1.3652C5.77652 1.31813 5.74961 1.25429 5.74961 1.18772V0.250991Z" fill="#CAD1E6"/>
<path d="M11.691 6.57408C11.691 5.71771 10.9835 5.02243 10.112 5.02243H1.57899C0.707531 5.02243 0 5.71771 0 6.57408V12.4482C0 13.3046 0.707531 13.9999 1.57899 13.9999H10.112C10.9835 13.9999 11.691 13.3046 11.691 12.4482V6.57408Z" fill="#FFBC54"/>
<path d="M11.1015 6.48111C11.1015 6.0227 10.7227 5.65048 10.2562 5.65048H7.05623C6.58974 5.65048 6.21096 6.0227 6.21096 6.48111V12.5417C6.21096 13.0001 6.58974 13.3723 7.05623 13.3723H10.2562C10.7227 13.3723 11.1015 13.0001 11.1015 12.5417V6.48111Z" fill="#FFE185"/>
<path d="M2.74723 9.54251C2.74723 10.3084 3.05685 11.043 3.60797 11.5845C4.15908 12.1261 4.90656 12.4304 5.68596 12.4304C6.46536 12.4304 7.21284 12.1261 7.76396 11.5845C8.31508 11.043 8.62469 10.3084 8.62469 9.54251C8.62469 8.77661 8.31508 8.04208 7.76396 7.5005C7.21284 6.95892 6.46536 6.65467 5.68596 6.65467C4.90656 6.65467 4.15908 6.95892 3.60797 7.5005C3.05685 8.04208 2.74723 8.77661 2.74723 9.54251Z" fill="#FE9B57"/>
<path d="M5.68576 6.26214C7.52808 6.26214 9.02377 7.73192 9.02377 9.54235C9.02377 11.3528 7.52808 12.8226 5.68576 12.8226C3.84343 12.8226 2.34774 11.3528 2.34774 9.54235C2.34774 7.73192 3.84343 6.26214 5.68576 6.26214ZM5.68576 6.65451C4.06383 6.65451 2.74703 7.94851 2.74703 9.54235C2.74703 11.1362 4.06383 12.4302 5.68576 12.4302C7.30768 12.4302 8.62449 11.1362 8.62449 9.54235C8.62449 7.94851 7.30768 6.65451 5.68576 6.65451Z" fill="#FFE185"/>
<path d="M4.40829 9.54299C4.40829 9.87599 4.54291 10.1954 4.78252 10.4308C5.02214 10.6663 5.34713 10.7986 5.686 10.7986C6.02487 10.7986 6.34986 10.6663 6.58948 10.4308C6.82909 10.1954 6.96371 9.87599 6.96371 9.54299C6.96371 9.20999 6.82909 8.89063 6.58948 8.65516C6.34986 8.41969 6.02487 8.28741 5.686 8.28741C5.34713 8.28741 5.02214 8.41969 4.78252 8.65516C4.54291 8.89063 4.40829 9.20999 4.40829 9.54299Z" fill="#29395C"/>
</svg>
