<svg width="19" height="15" viewBox="0 0 19 15" fill="none" xmlns="http://www.w3.org/2000/svg">
<path d="M17.7281 0H1.27154C0.93432 0 0.610909 0.133993 0.372457 0.372445C0.134005 0.610898 4.33943e-05 0.934309 4.33943e-05 1.27153V13.7051C-0.00134558 13.8725 0.0306226 14.0384 0.0940294 14.1933C0.157436 14.3482 0.251025 14.489 0.369372 14.6073C0.487719 14.7257 0.628431 14.8192 0.783324 14.8826C0.938216 14.946 1.10418 14.978 1.27154 14.9766H17.7281C17.895 14.9766 18.0604 14.9437 18.2147 14.8798C18.3689 14.8159 18.5091 14.7223 18.6272 14.6042C18.7452 14.4861 18.8389 14.3459 18.9028 14.1917C18.9667 14.0374 18.9996 13.8721 18.9996 13.7051V1.27153C18.9996 1.10456 18.9667 0.939168 18.9028 0.784903C18.8389 0.630637 18.7452 0.490515 18.6272 0.372445C18.5091 0.254376 18.3689 0.160715 18.2147 0.0968167C18.0604 0.032918 17.895 0 17.7281 0ZM5.32576 11.9021H2.19913C2.09103 11.9147 1.98149 11.9043 1.8777 11.8716C1.7739 11.8388 1.67818 11.7845 1.59688 11.7122C1.51558 11.6398 1.45054 11.5511 1.40599 11.4518C1.36143 11.3525 1.3384 11.2449 1.3384 11.136C1.3384 11.0272 1.36143 10.9196 1.40599 10.8203C1.45054 10.721 1.51558 10.6322 1.59688 10.5599C1.67818 10.4875 1.7739 10.4332 1.8777 10.4005C1.98149 10.3678 2.09103 10.3574 2.19913 10.37H5.32576C5.51353 10.392 5.68671 10.4821 5.81239 10.6233C5.93807 10.7645 6.00748 10.947 6.00748 11.136C6.00748 11.3251 5.93807 11.5076 5.81239 11.6488C5.68671 11.79 5.51353 11.8802 5.32576 11.9021ZM7.41018 8.31689H2.19913C2.09103 8.32952 1.98149 8.31909 1.8777 8.28636C1.7739 8.25363 1.67818 8.1993 1.59688 8.12695C1.51558 8.05459 1.45054 7.96588 1.40599 7.86658C1.36143 7.76729 1.3384 7.65965 1.3384 7.55082C1.3384 7.44198 1.36143 7.33441 1.40599 7.23511C1.45054 7.13582 1.51558 7.04704 1.59688 6.97469C1.67818 6.90233 1.7739 6.84801 1.8777 6.81528C1.98149 6.78255 2.09103 6.77218 2.19913 6.78481H7.41018C7.59795 6.80674 7.77113 6.89689 7.89681 7.03811C8.02249 7.17933 8.09191 7.36177 8.09191 7.55082C8.09191 7.73986 8.02249 7.92237 7.89681 8.06359C7.77113 8.20481 7.59795 8.29495 7.41018 8.31689ZM7.41018 4.73168H2.19913C2.09103 4.74431 1.98149 4.73388 1.8777 4.70115C1.7739 4.66842 1.67818 4.61409 1.59688 4.54174C1.51558 4.46938 1.45054 4.38067 1.40599 4.28137C1.36143 4.18208 1.3384 4.07444 1.3384 3.96561C1.3384 3.85677 1.36143 3.7492 1.40599 3.6499C1.45054 3.55061 1.51558 3.46189 1.59688 3.38954C1.67818 3.31719 1.7739 3.2628 1.8777 3.23007C1.98149 3.19734 2.09103 3.18697 2.19913 3.1996H7.41018C7.59795 3.22154 7.77113 3.31168 7.89681 3.4529C8.02249 3.59412 8.09191 3.77656 8.09191 3.96561C8.09191 4.15465 8.02249 4.33716 7.89681 4.47838C7.77113 4.6196 7.59795 4.70974 7.41018 4.73168ZM17.1653 12.5899C16.9349 12.5872 16.7149 12.4938 16.553 12.3299C16.391 12.166 16.3002 11.9448 16.3002 11.7144C16.1674 10.996 15.7872 10.3468 15.2255 9.87951C14.6639 9.4122 13.9563 9.15631 13.2257 9.15631C12.4951 9.15631 11.7876 9.4122 11.2259 9.87951C10.6643 10.3468 10.284 10.996 10.1512 11.7144C10.1512 11.9439 10.0601 12.1639 9.89784 12.3261C9.73561 12.4884 9.51557 12.5795 9.28615 12.5795C9.05673 12.5795 8.83672 12.4884 8.67449 12.3261C8.51227 12.1639 8.42113 11.9439 8.42113 11.7144C8.42603 10.5538 8.85089 9.43419 9.61722 8.56249C10.3835 7.6908 11.4395 7.12596 12.59 6.9724C12.0328 6.82786 11.5475 6.48516 11.2248 6.00849C10.9022 5.53182 10.7644 4.95393 10.8372 4.38296C10.9101 3.812 11.1886 3.28717 11.6206 2.90679C12.0526 2.52641 12.6084 2.31654 13.184 2.31654C13.7596 2.31654 14.3155 2.52641 14.7475 2.90679C15.1794 3.28717 15.458 3.812 15.5308 4.38296C15.6037 4.95393 15.4659 5.53182 15.1432 6.00849C14.8206 6.48516 14.3352 6.82786 13.7781 6.9724C14.9285 7.12596 15.9845 7.6908 16.7508 8.56249C17.5172 9.43419 17.942 10.5538 17.9469 11.7144C17.9482 11.9313 17.8689 12.1409 17.7245 12.3026C17.5801 12.4643 17.3808 12.5667 17.1653 12.5899Z" fill="#808994"/>
</svg>
