<svg width="18" height="18" viewBox="0 0 18 18" fill="none" xmlns="http://www.w3.org/2000/svg">
<path d="M9 0C13.9706 0 18 4.02944 18 9C18 13.9706 13.9706 18 9 18C4.02944 18 0 13.9706 0 9C0 4.02944 4.02944 0 9 0ZM10.9961 4.91016C10.8978 4.91024 10.8159 4.943 10.7422 5.0166C10.6683 5.0905 10.6348 5.17295 10.6348 5.27148V6.7168H9.3623C6.66909 6.71682 5.01036 7.48055 4.39453 9.00781C4.18932 9.50866 4.09082 10.1412 4.09082 10.8965C4.09091 11.5287 4.3291 12.3825 4.81348 13.458C4.82169 13.4909 4.84646 13.532 4.87109 13.5977C4.89572 13.6633 4.91971 13.7213 4.94434 13.7705C4.96894 13.8197 4.99395 13.8607 5.01855 13.8936C5.0596 13.9591 5.11738 13.9922 5.1748 13.9922C5.23205 13.9922 5.27289 13.9753 5.30566 13.9346C5.33847 13.9018 5.35543 13.8523 5.35547 13.7949C5.35547 13.7621 5.34708 13.7122 5.33887 13.6465C5.33069 13.5811 5.32229 13.5402 5.32227 13.5156C5.30584 13.2611 5.29785 13.0227 5.29785 12.8174C5.29786 12.4397 5.3308 12.0948 5.39648 11.791C5.47038 11.4873 5.56084 11.2246 5.67578 11.0029C5.79074 10.7812 5.94632 10.5919 6.12695 10.4277C6.31576 10.2718 6.51313 10.1409 6.72656 10.0342C6.94005 9.93565 7.19503 9.85338 7.48242 9.7959C7.7778 9.73847 8.06497 9.69748 8.36035 9.67285C8.64774 9.65643 8.98499 9.63965 9.35449 9.63965H10.627V11.0928C10.627 11.1912 10.6596 11.2738 10.7334 11.3477C10.8073 11.4216 10.8897 11.4541 10.9883 11.4541C11.0868 11.4541 11.1693 11.4215 11.2432 11.3477L14.1494 8.44141C14.2233 8.36753 14.2558 8.28502 14.2559 8.18652C14.2559 8.08812 14.2237 7.99767 14.1582 7.92383L11.251 5.0166C11.1771 4.94281 11.0946 4.91016 10.9961 4.91016Z" fill="white"/>
</svg>
