<svg width="32" height="32" viewBox="0 0 32 32" fill="none" xmlns="http://www.w3.org/2000/svg">
<rect width="32" height="32" rx="16" fill="#039BE6"/>
<g clip-path="url(#clip0_0_44188)">
<path d="M16.129 17.3309L7.61904 10.0309C7.66559 10.0262 7.7125 10.0262 7.75905 10.0309H24.499H24.629L16.129 17.3309ZM25.2591 11.0409V22.0409C25.2695 22.1038 25.2695 22.168 25.2591 22.2309L19.2591 16.0109L25.2591 10.8209C25.2687 10.9006 25.2687 10.9812 25.2591 11.0609V11.0409ZM7.03908 10.8009L13.0391 15.9909L7.03908 22.2108C7.02864 22.1479 7.02864 22.0837 7.03908 22.0208V11.0208C7.02872 10.9412 7.02872 10.8605 7.03908 10.7809V10.8009ZM18.5891 16.6809L24.679 22.9608C24.6191 22.9655 24.559 22.9655 24.499 22.9608H7.75905C7.69585 22.9665 7.63226 22.9665 7.56905 22.9608L13.6591 16.6809L15.879 18.5908C15.9476 18.6487 16.0344 18.6804 16.124 18.6804C16.2137 18.6804 16.3005 18.6487 16.369 18.5908L18.5891 16.6809Z" fill="white"/>
</g>
<defs>
<clipPath id="clip0_0_44188">
<rect width="18.26" height="13" fill="white" transform="translate(7 10)"/>
</clipPath>
</defs>
</svg>
