<svg width="17" height="16" viewBox="0 0 17 16" fill="none" xmlns="http://www.w3.org/2000/svg">
<path d="M11.5928 0C12.0017 8.24243e-05 12.3328 0.315689 12.333 0.705078V4.76465H16.2588C16.6678 4.76465 16.9999 5.08019 17 5.46973V15.2402H12V15.2373H0V4.14844C0 3.75882 0.332111 3.44238 0.741211 3.44238H5.66699V0.705078C5.66721 0.315702 5.99836 0.000103517 6.40723 0H11.5928ZM14.0664 8.98438C13.0741 8.98438 12.4405 9.48888 12.4258 10.252H13.3916C13.4092 9.92988 13.6378 9.74031 14.0137 9.74023C14.3723 9.74023 14.5897 9.93811 14.5898 10.208C14.5898 10.4946 14.3608 10.6904 14.0078 10.6904H13.4727V11.374H14.0078C14.4156 11.374 14.6648 11.564 14.665 11.8779C14.665 12.1783 14.4014 12.3799 14.0137 12.3799C13.6116 12.3798 13.3514 12.1896 13.3369 11.8838H12.3242C12.3618 12.6664 13.0359 13.1758 14.0283 13.1758C15.0324 13.1758 15.7441 12.6856 15.7441 11.9746C15.7441 11.4511 15.3967 11.0955 14.7949 11.0156V10.9639C15.252 10.8619 15.576 10.5447 15.5762 10.0654C15.5791 9.47303 15.0442 8.98451 14.0664 8.98438ZM2.98242 7.08008C2.00736 7.08008 1.33894 7.63112 1.33887 8.43848H2.31055C2.3106 8.09418 2.53928 7.8439 2.92676 7.84375C3.29134 7.84375 3.49414 8.07209 3.49414 8.34766C3.49414 8.58189 3.40762 8.75297 2.89258 9.20215L1.39941 10.4893V11.1641H4.57324V10.376H2.81738V10.3232L3.63867 9.61523C4.30405 9.04216 4.52433 8.73084 4.52441 8.25977C4.52441 7.57918 3.94865 7.0802 2.98242 7.08008ZM8.56348 1.32129L7.50098 2.01074V2.88184L8.50781 2.2334H8.56348V5.29785H9.625V1.32129H8.56348Z" fill="#85D420"/>
</svg>
