<svg width="20" height="14" viewBox="0 0 20 14" fill="none" xmlns="http://www.w3.org/2000/svg">
<path fill-rule="evenodd" clip-rule="evenodd" d="M3.58937 10.3367L5.1191 8.81224C4.00929 8.1503 3.10945 7.40812 2.52955 6.87657C3.81933 5.6931 6.70882 3.42646 9.99824 3.42646C10.1582 3.42646 10.3082 3.43649 10.4682 3.44652L12.2978 1.61114C11.558 1.43061 10.7881 1.33032 9.99824 1.33032C4.64918 1.33032 0.439922 5.98395 0.269952 6.17451C-0.0899841 6.57568 -0.0899841 7.17745 0.269952 7.57862C0.359937 7.68895 1.61971 9.073 3.58937 10.3367Z" fill="#808994"/>
<path fill-rule="evenodd" clip-rule="evenodd" d="M14.8808 4.94256C15.9906 5.6045 16.8904 6.3567 17.4603 6.87823C16.1806 8.0617 13.2811 10.3283 10.0017 10.3283C9.84169 10.3283 9.68171 10.3283 9.53174 10.3183L7.70206 12.1537C8.43193 12.3242 9.2018 12.4245 10.0017 12.4245C15.3507 12.4245 19.55 7.78088 19.7299 7.58029C20.0899 7.17911 20.0899 6.57735 19.7299 6.1862C19.63 6.07588 18.3802 4.6818 16.4105 3.4181L14.8808 4.94256Z" fill="#808994"/>
<path fill-rule="evenodd" clip-rule="evenodd" d="M6.5547 11.8121L8.2444 10.1272L16.5529 1.78272C16.9629 1.38155 16.9629 0.709579 16.5529 0.308404C16.143 -0.102801 15.4831 -0.102801 15.0732 0.308404L6.07479 9.33485L4.51506 10.8894L3.44525 11.9726C3.03532 12.3838 3.03532 13.0457 3.44525 13.4569C3.64522 13.6575 3.91517 13.7678 4.18512 13.7678C4.44507 13.7678 4.71503 13.6575 4.92499 13.4569L6.5547 11.8121Z" fill="#808994"/>
</svg>
