<svg width="20" height="13" viewBox="0 0 20 13" fill="none" xmlns="http://www.w3.org/2000/svg">
<path fill-rule="evenodd" clip-rule="evenodd" d="M2.22746 6.43081C4.33381 9.24176 7.08753 10.8504 10 10.8504C12.9084 10.8504 15.6586 9.24618 17.7638 6.44239C15.6552 3.62276 12.8984 2 9.98519 2C7.07514 2 4.32205 3.61917 2.22746 6.43081ZM19.7255 5.74433C19.7873 5.80948 19.8409 5.88354 19.8841 5.96522C20.0573 6.29286 20.0351 6.68944 19.8264 6.99571C17.4185 10.5294 13.9449 12.8504 10 12.8504C6.05509 12.8504 2.58151 10.5294 0.173619 6.99571C-0.0572496 6.6569 -0.057925 6.2115 0.171914 5.87199C2.56425 2.33818 6.03808 0 9.98519 0C13.8856 0 17.3229 2.28311 19.7255 5.74433Z" fill="#808994"/>
<path fill-rule="evenodd" clip-rule="evenodd" d="M6.77954 6.41765C6.77954 4.63909 8.22131 3.19727 9.9999 3.19727C11.7784 3.19727 13.2204 4.63902 13.2204 6.41765C13.2204 8.19627 11.7784 9.63803 9.9999 9.63803C8.22131 9.63803 6.77954 8.19621 6.77954 6.41765ZM9.9999 5.19727C9.32591 5.19727 8.77954 5.74363 8.77954 6.41765C8.77954 7.09167 9.32591 7.63803 9.9999 7.63803C10.674 7.63803 11.2204 7.09161 11.2204 6.41765C11.2204 5.74369 10.674 5.19727 9.9999 5.19727Z" fill="#808994"/>
</svg>
