<svg width="20" height="20" viewBox="0 0 20 20" fill="none" xmlns="http://www.w3.org/2000/svg">
<path d="M0 8C0 6.89543 0.895431 6 2 6H4C5.10457 6 6 6.89543 6 8V19C6 19.5523 5.55228 20 5 20H1C0.447715 20 0 19.5523 0 19V8Z" fill="#808994"/>
<path d="M7 3C7 1.89543 7.89543 1 9 1H11C12.1046 1 13 1.89543 13 3V19C13 19.5523 12.5523 20 12 20H8C7.44772 20 7 19.5523 7 19V3Z" fill="#808994"/>
<path d="M14 12C14 10.8954 14.8954 10 16 10H18C19.1046 10 20 10.8954 20 12V19C20 19.5523 19.5523 20 19 20H15C14.4477 20 14 19.5523 14 19V12Z" fill="#808994"/>
</svg>
