<svg width="58" height="58" viewBox="0 0 58 58" fill="none" xmlns="http://www.w3.org/2000/svg">
<g filter="url(#filter0_f_0_18539)">
<circle cx="29" cy="29" r="25" fill="#2B333B"/>
</g>
<circle cx="29" cy="29" r="25" fill="#0F32EC"/>
<path d="M23.8433 32.3769C25.1674 33.4279 26.8087 34 28.4998 34C30.1909 34 31.8322 33.4279 33.1563 32.3769L33.722 31.8841C34.4782 31.1501 35.0713 30.2654 35.4628 29.2874C35.8542 28.3094 36.0353 27.2601 35.9943 26.2076C35.9533 25.1551 35.691 24.123 35.2245 23.1784C34.7581 22.2339 34.0979 21.3979 33.2868 20.7249C32.1888 19.8153 30.8539 19.2374 29.4388 19.059C28.0236 18.8805 26.5869 19.109 25.2971 19.7175C24.0073 20.326 22.918 21.2894 22.1569 22.4946C21.3958 23.6998 20.9945 25.0969 21.0001 26.5219C20.9988 27.5228 21.1999 28.5137 21.5913 29.4351C21.9826 30.3565 22.5562 31.1895 23.2775 31.8841C23.4527 32.0631 23.6419 32.2279 23.8433 32.3769Z" fill="white"/>
<path d="M39.9712 22.9074C39.2948 20.3515 37.8077 18.0934 35.7403 16.4831C33.6728 14.8728 31.1403 14 28.5351 14C25.9299 14 23.3974 14.8728 21.3299 16.4831C19.2624 18.0934 17.7753 20.3515 17.099 22.9074C16.4822 23.1152 15.9466 23.517 15.5694 24.0546C15.1923 24.5922 14.9933 25.2377 15.0012 25.8978C14.99 26.2951 15.0559 26.6907 15.1952 27.0621C15.3345 27.4334 15.5445 27.7733 15.8131 28.0622C16.0818 28.3511 16.4038 28.5834 16.7609 28.7457C17.118 28.9081 17.503 28.9974 17.8941 29.0086V26.2244C17.912 23.3573 19.0503 20.6149 21.0586 18.6005C23.0668 16.586 25.7806 15.4646 28.6028 15.4828C31.4249 15.501 34.1243 16.6574 36.1072 18.6977C38.0901 20.7379 39.194 23.4947 39.1761 26.3618V29.0086C39.9554 28.9728 40.6894 28.626 41.2184 28.0435C41.7474 27.461 42.0288 26.6899 42.0012 25.8978C42.0191 25.245 41.832 24.6033 41.467 24.0657C41.1021 23.528 40.5782 23.1224 39.9712 22.9074Z" fill="white"/>
<path d="M35.7249 34.2852C33.7909 36.1695 31.2148 37.2217 28.5351 37.2217C25.8553 37.2217 23.2793 36.1695 21.3452 34.2852C20.1394 35.1406 19.0914 36.2053 18.2493 37.4303C17.4749 38.5944 16.9027 39.885 16.5576 41.2457H40.6479C39.8808 38.4199 38.1627 35.9569 35.7926 34.2852H35.7249Z" fill="white"/>
<defs>
<filter id="filter0_f_0_18539" x="0" y="0" width="58" height="58" filterUnits="userSpaceOnUse" color-interpolation-filters="sRGB">
<feFlood flood-opacity="0" result="BackgroundImageFix"/>
<feBlend mode="normal" in="SourceGraphic" in2="BackgroundImageFix" result="shape"/>
<feGaussianBlur stdDeviation="2" result="effect1_foregroundBlur_0_18539"/>
</filter>
</defs>
</svg>
