<svg width="22" height="22" viewBox="0 0 22 22" fill="none" xmlns="http://www.w3.org/2000/svg">
<path fill-rule="evenodd" clip-rule="evenodd" d="M11 2C6.02944 2 2 6.02944 2 11C2 15.9706 6.02944 20 11 20C15.9706 20 20 15.9706 20 11C20 10.4477 20.4477 10 21 10C21.5523 10 22 10.4477 22 11C22 17.0751 17.0751 22 11 22C4.92487 22 0 17.0751 0 11C0 4.92487 4.92487 0 11 0C11.5523 0 12 0.447715 12 1C12 1.55228 11.5523 2 11 2Z" fill="#FE2121"/>
<path d="M8.93555 15.3333H7.56348V10.1624C7.06217 10.6312 6.47135 10.9778 5.79102 11.2025V9.95734C6.14909 9.84015 6.53809 9.61879 6.95801 9.29327C7.37793 8.9645 7.66602 8.58201 7.82227 8.14581H8.93555V15.3333Z" fill="#FE2121"/>
<path d="M12.168 11.471C11.8132 11.3213 11.5544 11.1162 11.3916 10.8558C11.2321 10.5921 11.1523 10.304 11.1523 9.99152C11.1523 9.45766 11.3379 9.01658 11.709 8.66827C12.0833 8.31997 12.6139 8.14581 13.3008 8.14581C13.9811 8.14581 14.5085 8.31997 14.8828 8.66827C15.2604 9.01658 15.4492 9.45766 15.4492 9.99152C15.4492 10.3235 15.363 10.6198 15.1904 10.8802C15.0179 11.1373 14.7754 11.3343 14.4629 11.471C14.86 11.6305 15.1611 11.8633 15.3662 12.1693C15.5745 12.4752 15.6787 12.8284 15.6787 13.2288C15.6787 13.8896 15.4671 14.4267 15.0439 14.8401C14.624 15.2536 14.0641 15.4603 13.3643 15.4603C12.7132 15.4603 12.1712 15.2894 11.7383 14.9476C11.2272 14.5439 10.9717 13.9905 10.9717 13.2874C10.9717 12.9 11.0677 12.5452 11.2598 12.223C11.4518 11.8974 11.7546 11.6468 12.168 11.471ZM12.4512 10.0892C12.4512 10.3626 12.5277 10.5758 12.6807 10.7288C12.8369 10.8818 13.0436 10.9583 13.3008 10.9583C13.5612 10.9583 13.7695 10.8818 13.9258 10.7288C14.082 10.5726 14.1602 10.3577 14.1602 10.0843C14.1602 9.82713 14.082 9.62205 13.9258 9.46906C13.7728 9.31281 13.5693 9.23468 13.3154 9.23468C13.0518 9.23468 12.8418 9.31281 12.6855 9.46906C12.5293 9.62531 12.4512 9.83201 12.4512 10.0892ZM12.3242 13.1556C12.3242 13.5332 12.4202 13.8278 12.6123 14.0394C12.8076 14.251 13.0501 14.3568 13.3398 14.3568C13.623 14.3568 13.8574 14.2558 14.043 14.054C14.2285 13.8489 14.3213 13.5543 14.3213 13.1702C14.3213 12.8349 14.2269 12.5664 14.0381 12.3646C13.8493 12.1595 13.61 12.0569 13.3203 12.0569C12.985 12.0569 12.7344 12.1725 12.5684 12.4036C12.4056 12.6347 12.3242 12.8854 12.3242 13.1556Z" fill="#FE2121"/>
<path d="M13.666 3.99998C13.666 3.63179 13.9645 3.33331 14.3327 3.33331H20.3327C20.7009 3.33331 20.9993 3.63179 20.9993 3.99998C20.9993 4.36817 20.7009 4.66665 20.3327 4.66665H14.3327C13.9645 4.66665 13.666 4.36817 13.666 3.99998Z" fill="#FE2121"/>
<path d="M17.3327 7.66663C16.9645 7.66663 16.666 7.36815 16.666 6.99996V0.99996C16.666 0.63177 16.9645 0.333293 17.3327 0.333293C17.7009 0.333293 17.9993 0.63177 17.9993 0.999959V6.99996C17.9993 7.36815 17.7009 7.66663 17.3327 7.66663Z" fill="#FE2121"/>
</svg>
