<svg width="17" height="16" viewBox="0 0 17 16" fill="none" xmlns="http://www.w3.org/2000/svg">
<path d="M11.3446 9.40351H9.11925V11.0276H11.3446V9.40351Z" fill="#808994"/>
<path d="M14.7337 7.19373H12.5083V8.81779H14.7337V7.19373Z" fill="#808994"/>
<path d="M14.7405 9.40351H12.5152V11.0342H14.7405V9.40351Z" fill="#808994"/>
<path d="M7.95553 11.6199H5.73016V13.244H7.95553V11.6199Z" fill="#808994"/>
<path d="M11.3446 11.6199H9.11925V13.244H11.3446V11.6199Z" fill="#808994"/>
<path d="M14.7405 11.6199H12.5152V13.244H14.7405V11.6199Z" fill="#808994"/>
<path d="M4.55963 11.6199H2.32745V13.244H4.55963V11.6199Z" fill="#808994"/>
<path d="M4.55963 9.41017H2.33426V11.0342H4.55963V9.41017Z" fill="#808994"/>
<path d="M11.3514 7.20039H9.11925V8.82444H11.3514V7.20039Z" fill="#808994"/>
<path d="M7.94872 9.41017H5.72335V11.0342H7.94872V9.41017Z" fill="#808994"/>
<path d="M7.95553 7.19373H5.73016V8.81779H7.95553V7.19373Z" fill="#808994"/>
<path d="M4.9135 0.264888C4.80037 0.142656 4.65161 0.0573286 4.48731 0.0204292C4.32302 -0.0164703 4.1511 -0.00316194 3.99478 0.0585555C3.83531 0.114195 3.69768 0.217316 3.60125 0.35342C3.50481 0.489524 3.45442 0.651765 3.45715 0.817334C3.45715 1.09688 3.45715 1.36978 3.45715 1.64933V2.44139C3.45444 2.55208 3.47417 2.6622 3.51519 2.76539C3.55622 2.86859 3.61774 2.96281 3.69619 3.04263C3.77465 3.12246 3.86848 3.1863 3.97229 3.23047C4.0761 3.27465 4.18783 3.29828 4.30102 3.3C4.41331 3.29914 4.52432 3.27654 4.62764 3.23351C4.73095 3.19048 4.82453 3.12785 4.90299 3.04927C4.98144 2.97068 5.0432 2.87769 5.08472 2.77564C5.12624 2.67359 5.14669 2.56451 5.14489 2.45469V0.837301C5.1421 0.625209 5.05976 0.421506 4.9135 0.264888Z" fill="#808994"/>
<path d="M13.3999 0.278197C13.2862 0.15676 13.1374 0.0719899 12.9733 0.0351395C12.8093 -0.00171092 12.6376 0.0111017 12.4811 0.0718643C12.3222 0.128352 12.1852 0.231681 12.0889 0.367592C11.9926 0.503503 11.9418 0.665296 11.9435 0.830643C11.9435 1.11019 11.9435 1.38309 11.9435 1.66264C11.9435 1.94219 11.9435 2.18845 11.9435 2.45469C11.933 2.56885 11.9469 2.68391 11.9844 2.79252C12.0218 2.90114 12.082 3.00094 12.1611 3.08555C12.2401 3.17016 12.3364 3.23773 12.4436 3.28396C12.5508 3.33019 12.6668 3.35408 12.784 3.35408C12.9012 3.35408 13.0171 3.33019 13.1243 3.28396C13.2316 3.23773 13.3278 3.17016 13.4069 3.08555C13.4859 3.00094 13.5461 2.90114 13.5836 2.79252C13.621 2.68391 13.6349 2.56885 13.6244 2.45469V0.837295C13.6227 0.630201 13.5427 0.431051 13.3999 0.278197Z" fill="#808994"/>
<path d="M0.340271 15.9996H16.6733C16.7167 15.9996 16.7598 15.9911 16.7999 15.9746C16.8399 15.9582 16.8763 15.934 16.9067 15.9036C16.9371 15.8733 16.961 15.8373 16.977 15.7977C16.993 15.7582 17.0008 15.7159 16.9999 15.6734V1.96881C17.0009 1.9266 16.993 1.88465 16.9769 1.84548C16.9609 1.80631 16.9368 1.77072 16.9063 1.74087C16.8758 1.71102 16.8394 1.68752 16.7994 1.67179C16.7593 1.65606 16.7164 1.64842 16.6733 1.64932H14.5704V1.94219C14.5804 2.39881 14.4109 2.84178 14.0969 3.17984C13.7829 3.5179 13.3483 3.72528 12.8826 3.75926H12.59C12.1281 3.70931 11.7024 3.4913 11.3973 3.1485C11.0922 2.8057 10.93 2.36321 10.9431 1.90891V1.64932H6.05682V1.94219C6.07199 2.18427 6.03633 2.42682 5.95205 2.65492C5.86776 2.88301 5.73664 3.09182 5.56674 3.26848C5.39684 3.44515 5.19176 3.58592 4.96413 3.68216C4.73651 3.77839 4.49115 3.82804 4.24317 3.82804C3.9952 3.82804 3.74984 3.77839 3.52222 3.68216C3.29459 3.58592 3.08952 3.44515 2.91962 3.26848C2.74972 3.09182 2.61859 2.88301 2.5343 2.65492C2.45002 2.42682 2.41437 2.18427 2.42954 1.94219V1.68261H0.326667C0.242339 1.68254 0.161248 1.71436 0.100364 1.77142C0.0394797 1.82849 0.00351364 1.90637 0 1.98878V15.7267C0.0117594 15.8054 0.0531658 15.8771 0.116106 15.9276C0.179046 15.978 0.258986 16.0037 0.340271 15.9996ZM1.07526 5.9757H15.9995V14.928H1.02762L1.07526 5.9757Z" fill="#808994"/>
</svg>
