<svg width="17" height="16" viewBox="0 0 17 16" fill="none" xmlns="http://www.w3.org/2000/svg">
<path d="M16.9775 6.81268C16.9775 3.05753 13.1692 0 8.48875 0C3.80836 0 0 3.05676 0 6.81268C0 10.1809 3.01968 13.0026 7.09968 13.5353C7.37596 13.5941 7.75178 13.7154 7.84668 13.949C7.93312 14.1612 7.90301 14.4932 7.87445 14.7084L7.7533 15.4274C7.71625 15.6411 7.58353 16.2578 8.48872 15.88C9.3947 15.5029 13.3767 13.0331 15.1578 11.0059C16.3879 9.67028 16.9774 8.31628 16.9774 6.81194V6.81268H16.9775ZM13.7001 6.49975C13.9458 6.50988 14.1367 6.71507 14.1265 6.95807C14.1168 7.18688 13.9315 7.37022 13.7001 7.37976H12.4576V8.16591H13.7001C13.9462 8.17605 14.1374 8.3816 14.1272 8.625C14.1176 8.85425 13.9318 9.03789 13.7001 9.04742H12.0132C11.7674 9.04699 11.5683 8.85007 11.5679 8.60703V5.2717C11.5679 5.02746 11.7685 4.83054 12.0132 4.83054H13.7001C13.9458 4.84807 14.1306 5.05928 14.1129 5.30232C14.0969 5.52092 13.9211 5.69479 13.7001 5.71055H12.4576V6.49898H13.7001V6.49975ZM10.9706 8.6078C10.9714 8.85017 10.7735 9.04736 10.5284 9.04819C10.5271 9.04819 10.5258 9.04819 10.5245 9.04819C10.385 9.04759 10.2537 8.98267 10.1695 8.87265L8.44092 6.54475V8.6078C8.44092 8.85104 8.24157 9.04819 7.99564 9.04819C7.74971 9.04819 7.55037 8.85104 7.55037 8.6078V5.27244C7.55037 5.0292 7.74971 4.83205 7.99564 4.83205C8.13554 4.83205 8.26729 4.89706 8.3514 5.00759L10.08 7.33549V5.27244C10.0945 5.0292 10.3056 4.84366 10.5515 4.85798C10.7772 4.87113 10.9573 5.04921 10.9706 5.27244V8.6078ZM6.9114 8.6078C6.9114 8.85104 6.71206 9.04819 6.46613 9.04819C6.2202 9.04819 6.02085 8.85104 6.02085 8.6078V5.27244C6.03111 5.02944 6.23857 4.84064 6.48426 4.85075C6.71561 4.86029 6.90098 5.04359 6.91062 5.27244V8.6078H6.9114ZM5.1658 9.04819H3.47886C3.23323 9.04776 3.03436 8.85074 3.03436 8.6078V5.27244C3.04462 5.02944 3.25208 4.84064 3.49777 4.85075C3.72912 4.86029 3.91449 5.04359 3.92413 5.27244V8.16664H5.16658C5.41271 8.16664 5.61222 8.364 5.61222 8.6074C5.61222 8.85084 5.41271 9.04816 5.16658 9.04816H5.1658V9.04819Z" fill="white"/>
</svg>
