<svg width="21" height="14" viewBox="0 0 21 14" fill="none" xmlns="http://www.w3.org/2000/svg">
<path d="M5.72775 4.8339C8.36361 4.8339 10.5004 3.96548 10.5004 2.89422C10.5004 1.82296 8.36361 0.954528 5.72775 0.954528C3.09188 0.954528 0.955089 1.82296 0.955089 2.89422C0.955089 3.96548 3.09188 4.8339 5.72775 4.8339Z" stroke="#FFF8A8" stroke-width="1.87" stroke-linecap="round" stroke-linejoin="round"/>
<path d="M0.955089 4.27946C0.955089 4.27946 0.955089 5.92377 0.955089 6.99502C0.955089 8.06627 3.09188 8.93471 5.72775 8.93471C8.36359 8.93471 10.5004 8.06627 10.5004 6.99502C10.5004 6.36051 10.5004 4.27946 10.5004 4.27946" stroke="#FFF8A8" stroke-width="1.87" stroke-linecap="round" stroke-linejoin="round"/>
<path d="M0.955089 7.8011C0.955089 7.8011 0.955089 9.44541 0.955089 10.5167C0.955089 11.5879 3.09188 12.4564 5.72775 12.4564C8.36359 12.4564 10.5004 11.5879 10.5004 10.5167C10.5004 9.88215 10.5004 7.8011 10.5004 7.8011" stroke="#FFF8A8" stroke-width="1.87" stroke-linecap="round" stroke-linejoin="round"/>
<path d="M15.2727 9.45563C17.9085 9.45563 20.0453 8.5872 20.0453 7.51594C20.0453 6.44468 17.9085 5.57626 15.2727 5.57626C12.6368 5.57626 10.5 6.44468 10.5 7.51594C10.5 8.5872 12.6368 9.45563 15.2727 9.45563Z" stroke="#FFF8A8" stroke-width="1.87" stroke-linecap="round" stroke-linejoin="round"/>
<path d="M10.5 7.8011C10.5 7.8011 10.5 9.44541 10.5 10.5167C10.5 11.5879 12.6368 12.4564 15.2727 12.4564C17.9085 12.4564 20.0453 11.5879 20.0453 10.5167C20.0453 9.88215 20.0453 7.8011 20.0453 7.8011" stroke="#FFF8A8" stroke-width="1.87" stroke-linecap="round" stroke-linejoin="round"/>
</svg>
