<svg width="21" height="21" viewBox="0 0 21 21" fill="none" xmlns="http://www.w3.org/2000/svg">
<path d="M13.2472 11.7949C12.8863 11.7949 12.1945 13.1398 11.7777 13.1398C11.669 13.1346 11.5636 13.1005 11.4726 13.0409C10.7079 12.6873 10.0033 12.2161 9.38432 11.6445C8.81489 11.0975 8.34395 10.4565 7.99215 9.74955C7.94971 9.68702 7.92452 9.61439 7.91911 9.53901C7.91911 9.22104 8.8773 8.62807 8.8773 8.09956C8.8773 7.96206 8.17262 6.08004 8.07379 5.84371C7.93629 5.48278 7.86755 5.37106 7.49373 5.37106C7.31326 5.37106 7.14568 5.33239 6.9824 5.33239C6.84778 5.33233 6.71451 5.3593 6.59051 5.4117C6.46651 5.46411 6.35428 5.54088 6.26051 5.63747C5.94253 5.90681 5.68654 6.24169 5.51003 6.61918C5.33352 6.99667 5.24069 7.40785 5.23788 7.82456V7.93198C5.28906 8.90619 5.6302 9.84288 6.21755 10.6218C7.40778 12.3792 8.64097 13.9175 10.6175 14.8155C11.2148 15.0905 12.5855 15.6749 13.2515 15.6749C14.0378 15.6749 15.3269 15.1808 15.6448 14.3859C15.7855 14.0518 15.8656 13.6953 15.8812 13.3331C15.885 13.2631 15.8748 13.1929 15.8511 13.1269C15.043 12.5864 14.1786 12.1354 13.273 11.782L13.2472 11.7949ZM10.4371 19.1339C8.73846 19.1276 7.07835 18.6275 5.65896 17.6944L2.31173 18.76L3.40312 15.5331C2.32535 14.0539 1.74328 12.2716 1.74024 10.4413C1.74478 8.1366 2.66264 5.92761 4.29275 4.2983C5.92286 2.669 8.13231 1.75222 10.4371 1.74882C12.7407 1.75222 14.949 2.66855 16.5783 4.29705C18.2076 5.92554 19.125 8.13344 19.1296 10.437C19.1262 12.7418 18.2094 14.9512 16.5801 16.5813C14.9508 18.2115 12.7418 19.1293 10.4371 19.1339ZM10.4371 0C7.66933 0.00113875 5.01527 1.10112 3.0582 3.0582C1.10112 5.01528 0.00115941 7.66932 2.06625e-05 10.437C-0.00376762 12.3361 0.513423 14.1998 1.49532 15.8253L0.0988398 19.9846C0.0543343 20.1198 0.0479715 20.2646 0.0804555 20.4031C0.112939 20.5417 0.183001 20.6686 0.282946 20.7698C0.38289 20.8711 0.508846 20.9429 0.646935 20.9772C0.785023 21.0115 0.929904 21.007 1.06563 20.9643L5.36248 19.5764C7.78612 20.9124 10.641 21.2315 13.2998 20.4637C15.9586 19.6958 18.2038 17.9039 19.5421 15.4816C20.3919 13.9378 20.8355 12.2035 20.8311 10.4413C20.8289 7.67397 19.7285 5.02058 17.7717 3.06375C15.8148 1.10692 13.1615 0.00657357 10.3941 0.00429777L10.4371 0Z" fill="white"/>
</svg>
