<svg width="28" height="28" viewBox="0 0 28 28" fill="none" xmlns="http://www.w3.org/2000/svg">
<path d="M15.0144 27.6929H12.9856C5.8435 27.6929 0 21.9135 0 14.8498V12.8431C0 5.77941 5.8435 0 12.9856 0H15.0144C22.1565 0 28 5.77941 28 12.8431V14.8498C28 21.9135 22.1565 27.6929 15.0144 27.6929Z" fill="#3C599B"/>
<path d="M14.936 21.0273H11.9197V13.8149H10.4121V11.3285H11.9197V9.83658C11.9197 7.80945 12.7708 6.60254 15.1881 6.60254H17.2011V9.08889H15.9436C15.0022 9.08889 14.9396 9.43664 14.9396 10.0847L14.9361 11.3285H17.2157L16.9487 13.8149H14.9361V21.0273H14.936Z" fill="white"/>
</svg>
