<svg width="40" height="28" viewBox="0 0 40 28" fill="none" xmlns="http://www.w3.org/2000/svg">
<g clip-path="url(#clip0_0_19629)">
<path d="M3.32205 13.6064L11.0779 19.7189C11.366 19.9476 11.7237 20.0722 12.0922 20.0722C12.4607 20.0722 12.8183 19.9476 13.1064 19.7189L36.7634 0.387672C36.9276 0.25274 37.117 0.151478 37.3207 0.0897254C37.5244 0.0279727 37.7384 0.00694578 37.9503 0.0278606C38.1622 0.0487753 38.3679 0.111217 38.5554 0.211586C38.743 0.311955 38.9087 0.448271 39.0431 0.612673C39.2974 0.924748 39.4255 1.32009 39.4023 1.72125C39.3791 2.12242 39.2062 2.5005 38.9175 2.78142L13.3702 27.5627C13.2171 27.711 13.0361 27.8278 12.8375 27.9063C12.6389 27.9847 12.4267 28.0233 12.2131 28.0198C11.9994 28.0164 11.7886 27.9709 11.5927 27.886C11.3968 27.8011 11.2198 27.6784 11.0717 27.5252L0.445789 16.4689C0.283313 16.2995 0.160041 16.0967 0.0846199 15.8748C0.00919835 15.6529 -0.0165427 15.4173 0.00918553 15.1845C0.0349138 14.9517 0.111483 14.7272 0.233553 14.527C0.355623 14.3267 0.520229 14.1554 0.715827 14.0252L1.41919 13.5502C1.70175 13.3585 2.03801 13.2607 2.37981 13.2708C2.72161 13.2809 3.05142 13.3984 3.32205 13.6064Z" fill="white"/>
</g>
<defs>
<clipPath id="clip0_0_19629">
<rect width="39.4074" height="28" fill="white"/>
</clipPath>
</defs>
</svg>
