<svg width="16" height="18" viewBox="0 0 16 18" fill="none" xmlns="http://www.w3.org/2000/svg">
<g clip-path="url(#clip0_0_60174)">
<path d="M14.1428 7.44834H4.35081V5.01729C4.35694 4.99001 4.35694 4.96182 4.35081 4.93454C4.34939 4.50487 4.43666 4.07916 4.6076 3.68194C4.77854 3.28471 5.02978 2.92381 5.34686 2.61998C5.66393 2.31616 6.04059 2.07541 6.45514 1.91161C6.86969 1.74781 7.31396 1.66419 7.76237 1.66555C8.6579 1.66545 9.51756 2.00276 10.1558 2.60467C10.7941 3.20658 11.1598 4.02481 11.1739 4.8828V5.4104C11.1739 5.51995 11.1966 5.62842 11.2407 5.72951C11.2848 5.8306 11.3494 5.92229 11.4307 5.99927C11.512 6.07626 11.6085 6.13702 11.7146 6.17799C11.8206 6.21897 11.9341 6.23934 12.0484 6.23798C12.2775 6.23798 12.4972 6.15078 12.6591 5.99558C12.8211 5.84038 12.9121 5.62989 12.9121 5.4104V4.91383C12.9107 4.26718 12.7764 3.62714 12.5168 3.03023C12.2572 2.43333 11.8775 1.89126 11.3993 1.43497C10.9211 0.978675 10.3538 0.617103 9.72978 0.370896C9.10575 0.124689 8.43722 -0.00134905 7.76237 1.08888e-05C7.08661 9.45985e-06 6.41748 0.127744 5.79329 0.375853C5.1691 0.623962 4.60211 0.987573 4.12478 1.44592C3.64744 1.90427 3.26914 2.44834 3.01152 3.04697C2.7539 3.64559 2.62202 4.28702 2.62344 4.93454V7.44834H1.43588C1.05506 7.44834 0.689839 7.59331 0.42056 7.85133C0.151281 8.10936 0 8.45929 0 8.8242V16.8105C0.0325787 17.1122 0.169124 17.3951 0.388078 17.6142C0.607033 17.8334 0.895925 17.9765 1.20916 18.0208H14.3912C14.6636 17.9598 14.9112 17.8232 15.1032 17.6282C15.2952 17.4332 15.423 17.1884 15.4708 16.9243V8.71042C15.4455 8.38197 15.2971 8.07334 15.0531 7.84142C14.8091 7.6095 14.4858 7.4699 14.1428 7.44834ZM8.45332 13.9656H7.04983C6.82077 13.9656 6.60109 13.8784 6.43911 13.7232C6.27714 13.568 6.18614 13.3575 6.18614 13.138C6.18471 13.0285 6.206 12.9198 6.24876 12.8182C6.29153 12.7166 6.35492 12.6241 6.43526 12.5461C6.51561 12.4682 6.6113 12.4063 6.7168 12.3641C6.8223 12.3218 6.9355 12.3001 7.04983 12.3001H8.45332C8.56765 12.3001 8.68085 12.3218 8.78635 12.3641C8.89185 12.4063 8.98754 12.4682 9.06788 12.5461C9.14823 12.6241 9.21162 12.7166 9.25438 12.8182C9.29715 12.9198 9.31843 13.0285 9.317 13.138C9.317 13.3575 9.22601 13.568 9.06404 13.7232C8.90206 13.8784 8.68238 13.9656 8.45332 13.9656Z" fill="#808994"/>
</g>
<defs>
<clipPath id="clip0_0_60174">
<rect width="15.0176" height="17.4" fill="white" transform="scale(1.03449)"/>
</clipPath>
</defs>
</svg>
