<svg width="20" height="20" viewBox="0 0 20 20" fill="none" xmlns="http://www.w3.org/2000/svg">
<path d="M0 9C0 7.89543 0.895431 7 2 7H18C19.1046 7 20 7.89543 20 9V11C20 12.1046 19.1046 13 18 13H2C0.895431 13 0 12.1046 0 11V9Z" fill="#65B805"/>
<path d="M7 2C7 0.895431 7.89543 0 9 0H11C12.1046 0 13 0.895431 13 2V18C13 19.1046 12.1046 20 11 20H9C7.89543 20 7 19.1046 7 18V2Z" fill="#65B805"/>
<path d="M0 9C0 7.89543 0.895431 7 2 7H18C19.1046 7 20 7.89543 20 9V10C20 11.1046 19.1046 12 18 12H2C0.895431 12 0 11.1046 0 10V9Z" fill="#C0FF59"/>
<path d="M7 2C7 0.895431 7.89543 0 9 0H11C12.1046 0 13 0.895431 13 2V17C13 18.1046 12.1046 19 11 19H9C7.89543 19 7 18.1046 7 17V2Z" fill="#C0FF59"/>
</svg>
