<svg width="21" height="20" viewBox="0 0 21 20" fill="none" xmlns="http://www.w3.org/2000/svg">
<path d="M15.6609 13.5162H14.0898C13.9873 13.5162 13.889 13.5569 13.8165 13.6294C13.744 13.7019 13.7033 13.8002 13.7033 13.9028V15.5736C13.7033 15.7488 13.6336 15.9169 13.5097 16.0409C13.3858 16.1648 13.2177 16.2344 13.0424 16.2344H8.64091V3.76558H13.0424C13.2177 3.76558 13.3858 3.83521 13.5097 3.95915C13.6336 4.08308 13.7033 4.25116 13.7033 4.42642V6.09725C13.7033 6.19976 13.744 6.29808 13.8165 6.37057C13.889 6.44306 13.9873 6.48378 14.0898 6.48378H15.6609C15.7634 6.48378 15.8617 6.44306 15.9342 6.37057C16.0067 6.29808 16.0474 6.19976 16.0474 6.09725V2.90522C16.0474 2.515 15.8924 2.14077 15.6165 1.86485C15.3405 1.58892 14.9663 1.43391 14.5761 1.43391H8.64091V0L4.70076 1.43391L3.14215 1.99502L0.648381 2.90522C0.458847 2.97415 0.295035 3.09961 0.179082 3.26462C0.0631281 3.42964 0.000620301 3.62623 0 3.82791V16.1845C0.00237008 16.3858 0.0655645 16.5817 0.181284 16.7463C0.297004 16.911 0.459835 17.0368 0.648381 17.1073L3.14215 18.0175L8.64091 20V18.5786H14.5761C14.7703 18.5786 14.9627 18.5401 15.142 18.4654C15.3214 18.3907 15.4841 18.2812 15.6209 18.1432C15.7577 18.0053 15.8658 17.8416 15.939 17.6617C16.0122 17.4817 16.049 17.289 16.0474 17.0948V13.9028C16.0474 13.8002 16.0067 13.7019 15.9342 13.6294C15.8617 13.5569 15.7634 13.5162 15.6609 13.5162Z" fill="#808994"/>
<path d="M20.6858 9.48881L17.7431 7.11974C17.6462 7.04263 17.5296 6.99428 17.4066 6.98024C17.2835 6.9662 17.159 6.98703 17.0472 7.04032C16.9355 7.09361 16.8409 7.17722 16.7743 7.28165C16.7078 7.38608 16.6719 7.50713 16.6708 7.63096V8.87785H10.0748C9.9359 8.87785 9.8027 8.93302 9.70449 9.03124C9.60627 9.12945 9.5511 9.26263 9.5511 9.40152V10.6484C9.5511 10.7873 9.60627 10.9205 9.70449 11.0187C9.8027 11.1169 9.9359 11.1721 10.0748 11.1721H16.6708V12.419C16.6719 12.5428 16.7078 12.6638 16.7743 12.7683C16.8409 12.8727 16.9355 12.9563 17.0472 13.0096C17.159 13.0629 17.2835 13.0838 17.4066 13.0697C17.5296 13.0557 17.6462 13.0073 17.7431 12.9302L20.6858 10.5362C20.766 10.4745 20.8309 10.3951 20.8756 10.3043C20.9203 10.2135 20.9436 10.1137 20.9436 10.0125C20.9436 9.91132 20.9203 9.81146 20.8756 9.72066C20.8309 9.62986 20.766 9.55054 20.6858 9.48881Z" fill="#808994"/>
</svg>
