<svg width="32" height="32" viewBox="0 0 32 32" fill="none" xmlns="http://www.w3.org/2000/svg">
<rect width="32" height="32" rx="16" fill="#3C5A9B"/>
<path fill-rule="evenodd" clip-rule="evenodd" d="M18.0005 9.19252L17.9936 9.19259H17.9865C17.4146 9.19259 16.9361 9.66927 16.9361 10.243V28.0076H13.7437V10.243C13.7437 7.90174 15.6545 6.00343 17.9805 6.00015L17.9892 6.0001L18.0262 6C18.0573 5.99998 18.1006 6.0001 18.1536 6.0006C18.2589 6.00161 18.4052 6.00418 18.5691 6.01058C18.8554 6.02174 19.3391 6.04856 19.7323 6.13982L19.7487 6.14364L19.7651 6.1478C20.0986 6.23269 20.7069 6.45891 21.1265 6.61804C21.3597 6.70647 21.5776 6.79091 21.7368 6.85309C21.8166 6.88424 21.882 6.90995 21.9277 6.92795L22 6.95652L20.8228 9.92399L20.7572 9.89808C20.7142 9.88113 20.6519 9.85665 20.5756 9.82685C20.4227 9.76715 20.215 9.68668 19.9945 9.60304C19.7728 9.51896 19.5439 9.4339 19.347 9.36411C19.2485 9.32921 19.1631 9.29992 19.0936 9.27728C19.0591 9.26603 19.0313 9.25731 19.0097 9.25084C19.0044 9.24924 18.9998 9.24788 18.9958 9.24673" fill="white"/>
<path fill-rule="evenodd" clip-rule="evenodd" d="M20.4555 13.629H10V16.8164H20.0049L20.4555 13.629Z" fill="white"/>
</svg>
