<svg width="24" height="24" viewBox="0 0 24 24" fill="none" xmlns="http://www.w3.org/2000/svg">
<path d="M2 6.13737C2.48818 6.13737 2.8846 5.75289 2.88476 5.27897C2.88466 4.8052 2.48822 4.42155 2 4.42155L2 2.71549C2.00023 1.76782 2.79189 0.999729 3.76855 0.999674L17.918 0.999673C18.8947 0.999673 19.6863 1.76779 19.6865 2.71549L19.6865 4.42155C19.1984 4.42175 18.8028 4.80533 18.8027 5.27897C18.8029 5.75276 19.1985 6.13717 19.6865 6.13737L19.6865 14.1286C19.3044 14.0445 18.9074 13.9997 18.5 13.9997C16.8709 13.9997 15.4075 14.7082 14.4004 15.8337L5.81152 15.8337C5.41801 15.8338 5.09863 16.153 5.09863 16.5465C5.0987 16.9401 5.41805 17.2593 5.81152 17.2594L13.4766 17.2594C13.1709 17.9438 13 18.7017 13 19.4997C13 20.6846 13.3753 21.7815 14.0127 22.6794C13.8473 22.5818 13.7224 22.4594 13.6396 22.3112C13.4055 21.9369 13.0883 21.7597 12.6895 21.778C12.2914 21.7976 11.9514 22.0405 11.6699 22.5075C11.5764 22.6572 11.4355 22.7698 11.248 22.8444C11.0606 22.9193 10.8612 22.9518 10.6504 22.9421C10.4398 22.9327 10.2402 22.8822 10.0527 22.7887C9.86483 22.6956 9.72443 22.5539 9.63086 22.3669C9.53678 22.1613 9.38449 22.0072 9.17383 21.904C8.96256 21.8014 8.75109 21.755 8.54004 21.7643C8.32943 21.7737 8.12498 21.8389 7.92578 21.9606C7.72641 22.0821 7.591 22.2555 7.52051 22.4792C7.45041 22.6661 7.32744 22.8022 7.15137 22.8864C6.97573 22.9702 6.78801 23.0077 6.58887 22.9987C6.38986 22.989 6.19622 22.9331 6.00879 22.8307C5.82147 22.7276 5.68067 22.5918 5.58691 22.4235C5.49318 22.1995 5.35233 22.0399 5.16504 21.946C4.97721 21.8529 4.78411 21.815 4.58496 21.8337C4.38564 21.8526 4.2038 21.9134 4.04004 22.0163C3.87584 22.1188 3.75848 22.2557 3.68848 22.4235C3.61787 22.5918 3.48817 22.7132 3.30078 22.7878C3.11312 22.8623 2.92551 22.8957 2.73828 22.8864C2.55093 22.877 2.38086 22.8303 2.22852 22.7458C2.07604 22.662 2.0001 22.5445 2 22.3952L2 6.13737ZM15.2656 5.27897C15.2658 5.75281 15.6611 6.13725 16.1494 6.13737C16.6376 6.13737 17.034 5.75289 17.0342 5.27897C17.0341 4.8052 16.6377 4.42155 16.1494 4.42155C15.661 4.42166 15.2657 4.80527 15.2656 5.27897ZM5.09863 13.2204C5.09863 13.6139 5.41801 13.9331 5.81152 13.9333L15.9561 13.9333C16.3497 13.9333 16.6689 13.614 16.6689 13.2204C16.6688 12.8268 16.3496 12.5075 15.9561 12.5075L5.81152 12.5075C5.41809 12.5077 5.09876 12.8269 5.09863 13.2204ZM5.09863 9.8942C5.09882 10.2876 5.41813 10.6069 5.81152 10.6071L15.9561 10.6071C16.3496 10.6071 16.6688 10.2877 16.6689 9.8942C16.6689 9.50053 16.3497 9.18131 15.9561 9.18131L5.81152 9.18131C5.41801 9.1815 5.09863 9.50065 5.09863 9.8942ZM11.7275 5.27897C11.7277 5.75289 12.124 6.13737 12.6123 6.13737C13.1006 6.13727 13.4959 5.75282 13.4961 5.27897C13.496 4.80526 13.1006 4.42165 12.6123 4.42155C12.124 4.42155 11.7276 4.8052 11.7275 5.27897ZM8.19043 5.27897C8.19059 5.75289 8.58682 6.13737 9.07519 6.13737C9.56324 6.13716 9.95882 5.75276 9.95898 5.27897C9.95888 4.80533 9.56328 4.42176 9.07519 4.42155C8.58678 4.42155 8.19053 4.8052 8.19043 5.27897ZM4.65332 5.27897C4.65348 5.75282 5.04898 6.13726 5.53711 6.13737C6.02549 6.13737 6.42171 5.75289 6.42187 5.27897C6.42177 4.8052 6.02552 4.42155 5.53711 4.42155C5.04894 4.42166 4.65342 4.80527 4.65332 5.27897Z" fill="#808994"/>
<path d="M18.5825 15.207C16.1847 15.207 14.3057 17.0855 14.3057 19.4839C14.3057 21.8026 16.2639 23.7607 18.5825 23.7607C20.9803 23.7607 22.8594 21.8823 22.8594 19.4839C22.8594 17.1253 20.9407 15.207 18.5825 15.207ZM21.0595 19.9181H18.4736C18.2142 19.9181 18.1192 19.8902 18.1192 19.6313V17.0277C18.1192 16.7668 18.331 16.5536 18.5904 16.5536C18.8498 16.5536 19.0617 16.7668 19.0617 17.0277V18.9719H21.0615C21.3209 18.9719 21.5327 19.1851 21.5327 19.446C21.5308 19.705 21.3189 19.9181 21.0595 19.9181Z" fill="#808994"/>
</svg>
