<svg width="15" height="16" viewBox="0 0 15 16" fill="none" xmlns="http://www.w3.org/2000/svg">
<g clip-path="url(#clip0_0_38145)">
<path d="M12.0571 0.740711C12.0519 0.540768 11.9681 0.350965 11.8239 0.212373C11.6797 0.0737808 11.4866 -0.00243197 11.2867 0.000268545C11.1873 -0.00239107 11.0883 0.0147269 10.9956 0.0506228C10.9029 0.0865186 10.8183 0.140489 10.7466 0.209381C10.6749 0.278272 10.6176 0.360713 10.5781 0.45193C10.5385 0.543146 10.5175 0.641297 10.5162 0.740711V2.23164C10.5175 2.33105 10.5385 2.42921 10.5781 2.52042C10.6176 2.61164 10.6749 2.69408 10.7466 2.76297C10.8183 2.83186 10.9029 2.88583 10.9956 2.92173C11.0883 2.95763 11.1873 2.97474 11.2867 2.97208C11.4866 2.97478 11.6797 2.8986 11.8239 2.76001C11.9681 2.62142 12.0519 2.43158 12.0571 2.23164V0.740711Z" fill="white"/>
<path d="M8.20517 0.740711C8.20388 0.641297 8.18284 0.543146 8.14329 0.45193C8.10374 0.360713 8.04646 0.278272 7.97478 0.209381C7.90309 0.140489 7.81844 0.0865186 7.72572 0.0506228C7.633 0.0147269 7.53408 -0.00239107 7.43469 0.000268545C7.2347 -0.00243197 7.0417 0.0737808 6.89748 0.212373C6.75327 0.350965 6.66947 0.540768 6.66422 0.740711V2.23164C6.66947 2.43158 6.75327 2.62142 6.89748 2.76001C7.0417 2.8986 7.2347 2.97478 7.43469 2.97208C7.53408 2.97474 7.633 2.95763 7.72572 2.92173C7.81844 2.88583 7.90309 2.83186 7.97478 2.76297C8.04646 2.69408 8.10374 2.61164 8.14329 2.52042C8.18284 2.42921 8.20388 2.33105 8.20517 2.23164V0.740711Z" fill="white"/>
<path d="M4.36298 0.740711C4.35773 0.540768 4.27392 0.350965 4.12971 0.212373C3.9855 0.0737808 3.7925 -0.00243197 3.59251 0.000268545C3.49312 -0.00239107 3.3942 0.0147269 3.30148 0.0506228C3.20876 0.0865186 3.12411 0.140489 3.05242 0.209381C2.98074 0.278272 2.92346 0.360713 2.88391 0.45193C2.84436 0.543146 2.82332 0.641297 2.82203 0.740711V2.23164C2.82332 2.33105 2.84436 2.42921 2.88391 2.52042C2.92346 2.61164 2.98074 2.69408 3.05242 2.76297C3.12411 2.83186 3.20876 2.88583 3.30148 2.92173C3.3942 2.95763 3.49312 2.97474 3.59251 2.97208C3.7925 2.97478 3.9855 2.8986 4.12971 2.76001C4.27392 2.62142 4.35773 2.43158 4.36298 2.23164V0.740711Z" fill="white"/>
<path d="M13.4379 15.8688H14.1083C14.3083 15.8715 14.5013 15.7953 14.6455 15.6567C14.7897 15.5182 14.8735 15.3283 14.8788 15.1284V14.3779C14.5135 14.9745 14.0216 15.4835 13.4379 15.8688Z" fill="white"/>
<path d="M6.25382 13.0785H2.77169C2.63597 13.0787 2.50164 13.0512 2.37686 12.9979C2.25208 12.9445 2.13946 12.8663 2.04586 12.768C1.95226 12.6697 1.87963 12.5534 1.83239 12.4262C1.78516 12.2989 1.7643 12.1634 1.77108 12.0278C1.7643 11.8923 1.78516 11.7568 1.83239 11.6296C1.87963 11.5023 1.95226 11.386 2.04586 11.2877C2.13946 11.1895 2.25208 11.1112 2.37686 11.0579C2.50164 11.0045 2.63597 10.977 2.77169 10.9772H6.20379C6.26467 10.6864 6.35174 10.4018 6.46395 10.1267H2.77169C2.50631 10.1267 2.2518 10.0213 2.06415 9.83363C1.8765 9.64598 1.77108 9.39146 1.77108 9.12608C1.77108 8.8607 1.8765 8.6062 2.06415 8.41855C2.2518 8.2309 2.50631 8.12547 2.77169 8.12547H8.13497C8.83814 7.62628 9.66596 7.33186 10.5264 7.27494H2.77169C2.50631 7.27494 2.2518 7.16954 2.06415 6.98189C1.8765 6.79424 1.77108 6.53971 1.77108 6.27433C1.7643 6.13878 1.78516 6.00328 1.83239 5.87605C1.87963 5.74881 1.95226 5.63251 2.04586 5.53422C2.13946 5.43594 2.25208 5.35773 2.37686 5.30435C2.50164 5.25096 2.63597 5.22353 2.77169 5.2237H10.9567C11.0924 5.22353 11.2267 5.25096 11.3515 5.30435C11.4763 5.35773 11.5889 5.43594 11.6825 5.53422C11.7761 5.63251 11.8487 5.74881 11.896 5.87605C11.9432 6.00328 11.9641 6.13878 11.9573 6.27433C11.9573 6.53971 11.8519 6.79424 11.6642 6.98189C11.4766 7.16954 11.2221 7.27494 10.9567 7.27494C11.7367 7.30573 12.4971 7.52815 13.1707 7.92255C13.8443 8.31696 14.4105 8.87121 14.819 9.53633V2.33195C14.8138 2.13201 14.73 1.94218 14.5858 1.80358C14.4416 1.66499 14.2486 1.58878 14.0486 1.59148H12.7678V2.33195C12.7599 2.73359 12.5934 3.11577 12.3047 3.3951C12.016 3.67443 11.6285 3.82822 11.2269 3.82285C11.0271 3.81386 10.831 3.76554 10.6499 3.68068C10.4688 3.59582 10.3062 3.47607 10.1714 3.32829C10.0366 3.18051 9.93235 3.0076 9.86449 2.81946C9.79664 2.63132 9.76655 2.43167 9.77597 2.23189V1.49141H9.0055V2.23189C8.9976 2.63352 8.83113 3.01573 8.54243 3.29507C8.25373 3.5744 7.86624 3.72815 7.46456 3.72279C7.06288 3.72815 6.67539 3.5744 6.38668 3.29507C6.09798 3.01573 5.93151 2.63352 5.92362 2.23189V1.49141H5.15315V2.23189C5.15054 2.43031 5.10886 2.62628 5.03051 2.80859C4.95216 2.99091 4.83866 3.15601 4.69649 3.29445C4.55433 3.4329 4.38629 3.54199 4.20196 3.61548C4.01763 3.68898 3.82063 3.72543 3.62221 3.72279C3.22053 3.72815 2.83304 3.5744 2.54434 3.29507C2.25563 3.01573 2.08917 2.63352 2.08127 2.23189V1.49141H0.770471C0.671085 1.48875 0.572161 1.50587 0.479445 1.54177C0.38673 1.57766 0.302072 1.63163 0.230388 1.70053C0.158704 1.76942 0.10142 1.85186 0.0618702 1.94307C0.0223201 2.03429 0.00129004 2.13247 0 2.23189V15.1297C0.00129004 15.2292 0.0223201 15.3273 0.0618702 15.4186C0.10142 15.5098 0.158704 15.5922 0.230388 15.6611C0.302072 15.73 0.38673 15.784 0.479445 15.8199C0.572161 15.8558 0.671085 15.8729 0.770471 15.8702H8.25504C7.26327 15.2217 6.54955 14.226 6.25382 13.0785Z" fill="white"/>
<path d="M14.8785 11.2374C14.7207 10.2872 14.2329 9.42307 13.5008 8.79712C12.7687 8.17117 11.8392 7.82351 10.876 7.81532C10.3372 7.81581 9.80366 7.92117 9.30509 8.1255C8.37947 8.51071 7.62796 9.22304 7.1938 10.1267C7.03731 10.444 6.92294 10.7804 6.85359 11.1273C6.80503 11.3914 6.78158 11.6594 6.78355 11.9278C6.7822 12.2651 6.82253 12.6011 6.90362 12.9285C7.08366 13.6545 7.45832 14.3177 7.98726 14.8466C8.51621 15.3756 9.1794 15.7502 9.90546 15.9303C10.2325 16.014 10.5685 16.0576 10.9061 16.0604C11.2437 16.0578 11.5797 16.0142 11.9067 15.9303C12.6698 15.7268 13.3584 15.3083 13.8906 14.7247C14.4228 14.1411 14.7761 13.4169 14.9085 12.6383C14.9488 12.4171 14.9689 12.1927 14.9685 11.9678C14.9628 11.722 14.9326 11.4773 14.8785 11.2374ZM10.876 15.3599C9.96131 15.3573 9.08478 14.9927 8.43796 14.3459C7.79113 13.6991 7.42658 12.8226 7.42394 11.9078C7.42704 11.2785 7.60361 10.6622 7.93425 10.1267C8.3582 9.4394 9.00969 8.92247 9.77538 8.66584C10.0974 8.55355 10.4351 8.49278 10.776 8.48574C11.6898 8.48839 12.5653 8.85326 13.2105 9.50037C13.8558 10.1475 14.2181 11.024 14.2181 11.9378C14.2105 12.8345 13.8544 13.693 13.225 14.3317C12.5957 14.9704 11.7425 15.3392 10.846 15.3599H10.876Z" fill="white"/>
<path d="M9.44541 11.1662C9.50818 11.2238 9.59031 11.2558 9.67555 11.2558C9.76078 11.2558 9.84292 11.2238 9.90569 11.1662L10.5961 10.4657V13.9479C10.5961 14.0328 10.6298 14.1143 10.6899 14.1743C10.7499 14.2343 10.8314 14.2681 10.9163 14.2681C11.0012 14.2681 11.0827 14.2343 11.1427 14.1743C11.2028 14.1143 11.2365 14.0328 11.2365 13.9479V10.4657L11.9369 11.1662C11.9981 11.2232 12.0785 11.2548 12.1621 11.2548C12.2456 11.2548 12.3261 11.2232 12.3872 11.1662C12.4181 11.1363 12.4426 11.1005 12.4594 11.061C12.4761 11.0215 12.4848 10.979 12.4848 10.936C12.4848 10.8931 12.4761 10.8506 12.4594 10.811C12.4426 10.7715 12.4181 10.7358 12.3872 10.7059L11.1464 9.46513C11.0859 9.40279 11.0032 9.36686 10.9163 9.36509C10.8296 9.3679 10.7473 9.40367 10.6862 9.46513L9.44541 10.6659C9.41084 10.6977 9.38326 10.7364 9.36439 10.7795C9.34552 10.8225 9.33578 10.869 9.33578 10.916C9.33578 10.963 9.34552 11.0095 9.36439 11.0526C9.38326 11.0956 9.41084 11.1343 9.44541 11.1662Z" fill="white"/>
</g>
<defs>
<clipPath id="clip0_0_38145">
<rect width="14.93" height="15.99" fill="white" transform="scale(1.00061)"/>
</clipPath>
</defs>
</svg>
