<svg width="14" height="15" viewBox="0 0 14 15" fill="none" xmlns="http://www.w3.org/2000/svg">
<path d="M12.8332 3.91241C13.4775 3.91241 14 4.4349 14 5.07924C13.9998 5.58956 13.6721 6.02334 13.2156 6.18152C13.2204 6.24375 13.2224 6.30646 13.2224 6.36931V10.4185C13.2213 11.3734 12.8395 12.2887 12.1612 12.9644C11.4828 13.6402 10.5626 14.0215 9.60263 14.0236H4.39737C3.43742 14.0215 2.51718 13.6402 1.83876 12.9644C1.16059 12.2887 0.778718 11.3734 0.77756 10.4185V6.36931C0.777571 6.30646 0.780587 6.24375 0.785385 6.18152C0.328606 6.02347 0.000191909 5.58973 0 5.07924C0 4.4349 0.52249 3.91241 1.16683 3.91241H12.8332ZM7 6.24607C6.57056 6.24613 6.22256 6.59421 6.22244 7.02363V11.691C6.22264 12.1203 6.57061 12.4685 7 12.4685C7.42943 12.4685 7.77736 12.1203 7.77756 11.691V7.02363C7.77744 6.59418 7.42948 6.24607 7 6.24607ZM7.90666 1.10635C10.4879 -2.26144 13.2224 3.13385 8.16683 3.13387H5.60137C1.16673 3.13383 3.50822 -2.24165 6.08551 1.10635L6.99609 2.25851L7.90666 1.10635Z" fill="white"/>
</svg>
