<svg width="14" height="16" viewBox="0 0 14 16" fill="none" xmlns="http://www.w3.org/2000/svg">
<path d="M13.2386 1.98736C13.4105 1.98508 13.5762 2.05041 13.7006 2.169C13.825 2.28767 13.8979 2.45031 13.9037 2.62213V15.3653C13.9035 15.7198 13.602 16.0001 13.2474 16.0001H3.9115C3.74051 16.0022 3.57538 15.9364 3.45251 15.8174C3.32974 15.6986 3.25878 15.5361 3.25525 15.3653V2.62213C3.25538 2.26755 3.55689 1.98736 3.9115 1.98736H13.2386ZM12.9271 13.7393C12.8712 13.7393 12.8292 13.7498 12.8011 13.7706C12.7724 13.7915 12.7501 13.8245 12.7357 13.8682C12.7208 13.912 12.7023 13.9861 12.6791 14.0899L12.6683 14.1378C12.6193 14.1342 12.5663 14.1329 12.5101 14.1329C12.4574 14.1329 12.4114 14.1344 12.3724 14.1368L12.35 14.0157L12.3607 13.7842C12.3487 13.7693 12.3255 13.7582 12.2914 13.751C12.2573 13.7439 12.2233 13.7403 12.1898 13.7403C12.1189 13.7403 12.0583 13.75 12.0082 13.7696C11.9724 13.8006 11.9536 13.8416 11.9535 13.8917C11.9535 13.903 11.9546 13.9153 11.9564 13.9278C11.9582 13.941 11.9606 13.9554 11.9642 13.9698C11.9672 13.984 11.9699 13.9934 11.9711 13.9981C12.0746 14.4686 12.1771 14.8422 12.2777 15.1182L12.3334 15.1504C12.3627 15.151 12.4075 15.1514 12.4662 15.1514C12.5474 15.1514 12.6448 15.1475 12.7582 15.1397C12.8713 15.1325 12.9722 15.1203 13.059 15.1036C13.0673 15.069 13.0706 15.0335 13.0707 14.9971C13.0707 14.9492 13.0639 14.9059 13.0502 14.8682L12.8344 14.8448C12.9086 14.527 12.9745 14.2511 13.0326 14.0176C13.0625 14.0248 13.0957 14.035 13.1322 14.0469C13.1549 14.0308 13.1727 14.0028 13.1859 13.9639C13.1991 13.925 13.2054 13.884 13.2054 13.8409C13.1905 13.823 13.1679 13.8066 13.1381 13.7911C13.1082 13.7755 13.0746 13.7629 13.0375 13.754C13.0005 13.7444 12.9635 13.7393 12.9271 13.7393ZM12.6088 14.3936L12.5443 14.837H12.5023L12.4076 14.3936H12.6088ZM6.56384 8.05182C6.31154 8.27478 6.13273 8.56914 6.05017 8.89557C5.96766 9.22216 5.98575 9.56669 6.10193 9.88287C6.21333 10.2005 6.41894 10.4767 6.69177 10.6739C6.96483 10.8712 7.29245 10.9805 7.62927 10.9864C7.8625 10.985 8.09306 10.935 8.30603 10.8399L7.71521 11.9844H9.43494L8.84314 10.8399C9.05771 10.9336 9.28441 10.9864 9.52087 10.9864C9.85712 10.9767 10.1828 10.866 10.4554 10.669C10.7282 10.4719 10.9354 10.1972 11.0502 9.88092C11.1649 9.56459 11.182 9.22068 11.099 8.89459C11.016 8.56859 10.8363 8.27477 10.5844 8.05182L8.57458 6.00299L6.56384 8.05182ZM4.41931 2.81353C4.3062 2.82072 4.20629 2.83291 4.11951 2.84967C4.11118 2.88427 4.10682 2.91973 4.10681 2.95611C4.10681 3.00401 4.11355 3.0473 4.12732 3.08502L4.34412 3.10748C4.26993 3.42517 4.20392 3.70124 4.14587 3.93463C4.11605 3.92747 4.08262 3.91822 4.04626 3.90631C4.02351 3.92247 4.00475 3.9504 3.99158 3.98932C3.97851 4.02809 3.97205 4.06944 3.97205 4.11236C3.987 4.13023 4.00965 4.14667 4.03943 4.16217C4.06935 4.17773 4.10291 4.1903 4.14001 4.19928C4.17707 4.20884 4.21391 4.21293 4.25037 4.21295C4.30664 4.21295 4.34918 4.20265 4.37732 4.1817C4.40594 4.16075 4.42744 4.12859 4.44177 4.08502C4.45673 4.04133 4.47606 3.96744 4.49939 3.86334L4.51013 3.81451C4.55921 3.8181 4.61207 3.82037 4.66833 3.82037C4.72072 3.82037 4.76629 3.81884 4.80505 3.81646L4.82751 3.93658L4.81677 4.16803C4.82873 4.18297 4.85206 4.19502 4.88611 4.20221C4.92018 4.20938 4.9542 4.21294 4.98767 4.21295C5.05891 4.21295 5.12 4.20243 5.17029 4.18268C5.20609 4.15156 5.224 4.11081 5.224 4.06061C5.22399 4.04927 5.22286 4.03699 5.22107 4.02447C5.21927 4.01142 5.21681 3.99769 5.21326 3.98346C5.21036 3.96955 5.20861 3.96005 5.2074 3.95514C5.10384 3.48462 5.00133 3.111 4.90076 2.83502L4.84412 2.80279C4.8148 2.80219 4.77086 2.80182 4.71228 2.80182C4.63086 2.80182 4.53306 2.80575 4.41931 2.81353ZM4.77087 3.55865H4.5697L4.63416 3.11627H4.67517L4.77087 3.55865Z" fill="#808994"/>
<path d="M2.31497 0.00518698L11.5699 1.16339C11.7137 1.17944 11.8452 1.24503 11.9488 1.34405H3.53177C3.02391 1.34405 2.61185 1.75611 2.61185 2.26398V14.1634L0.57474 13.9085C0.405096 13.8893 0.250155 13.8042 0.143099 13.6712C0.0361104 13.5381 -0.0141583 13.3684 0.00345098 13.1985L1.58451 0.554015C1.62859 0.202113 1.96306 -0.0388521 2.31497 0.00518698Z" fill="#808994"/>
</svg>
