<svg width="19" height="13" viewBox="0 0 19 13" fill="none" xmlns="http://www.w3.org/2000/svg">
<g clip-path="url(#clip0_0_42213)">
<mask id="mask0_0_42213" style="mask-type:luminance" maskUnits="userSpaceOnUse" x="0" y="0" width="14" height="14">
<path d="M13.0039 0H0V13.0158H13.0039V0Z" fill="white"/>
</mask>
<g mask="url(#mask0_0_42213)">
<path d="M1.86428 6.48786C1.86353 6.14913 1.90074 5.81135 1.975 5.48085C1.98943 5.39702 1.97301 5.31081 1.9287 5.23819C1.88439 5.16557 1.81525 5.11148 1.73409 5.08596L0.616161 4.75026C0.570962 4.73676 0.523375 4.73258 0.476516 4.73801C0.429658 4.74344 0.384533 4.7584 0.343623 4.78188C0.302863 4.80517 0.267191 4.83636 0.238696 4.87366C0.210202 4.91096 0.189492 4.95365 0.177747 4.99909C-0.0592488 5.99614 -0.0592488 7.03482 0.177747 8.03187C0.189492 8.07731 0.210202 8.1199 0.238696 8.1572C0.267191 8.19451 0.302863 8.22579 0.343623 8.24908C0.384533 8.27256 0.429658 8.28742 0.476516 8.29285C0.523375 8.29828 0.570962 8.29411 0.616161 8.28061L1.73795 7.945C1.81911 7.91948 1.88825 7.86539 1.93256 7.79277C1.97687 7.72016 1.99329 7.63394 1.97885 7.55011C1.90132 7.21206 1.86287 6.8662 1.86428 6.51938V6.48786ZM2.12506 8.85724L1.09007 9.41401C1.04885 9.43725 1.01274 9.46842 0.983596 9.5057C0.954448 9.54297 0.932949 9.58562 0.920332 9.63122C0.908001 9.67693 0.905052 9.72464 0.911845 9.7715C0.918638 9.81835 0.935068 9.86334 0.959872 9.90368C1.49581 10.7751 2.22918 11.5082 3.10083 12.044C3.14118 12.0688 3.18608 12.0851 3.23295 12.0919C3.27982 12.0987 3.32764 12.0958 3.37337 12.0835C3.41873 12.0715 3.46106 12.0502 3.49778 12.0209C3.53449 11.9917 3.5648 11.9552 3.58669 11.9137L4.13177 10.887C4.17449 10.81 4.18603 10.7195 4.16398 10.6343C4.14193 10.549 4.08805 10.4756 4.01334 10.4289C3.43186 10.0615 2.93823 9.57072 2.56752 8.99144C2.52084 8.91683 2.44754 8.8627 2.36249 8.83998C2.27744 8.81726 2.18693 8.82761 2.10924 8.869L2.12506 8.85724ZM6.50187 11.1318C6.15898 11.1313 5.81716 11.0928 5.4827 11.0173C5.39876 11.002 5.31213 11.018 5.23928 11.0624C5.16644 11.1069 5.11247 11.1765 5.08768 11.2581L4.74802 12.3876C4.73452 12.4328 4.73024 12.4803 4.73568 12.5271C4.74111 12.5739 4.75617 12.6192 4.77965 12.66C4.80295 12.7008 4.83415 12.7365 4.87146 12.7649C4.90878 12.7934 4.95138 12.8141 4.99683 12.8259C5.99419 13.0628 7.03327 13.0628 8.03063 12.8259C8.07609 12.8141 8.11869 12.7934 8.156 12.7649C8.19332 12.7365 8.22451 12.7008 8.24781 12.66C8.2713 12.6192 8.28616 12.5739 8.2916 12.5271C8.29703 12.4803 8.29295 12.4328 8.27945 12.3876L7.93979 11.2581C7.91499 11.1765 7.86103 11.1069 7.78818 11.0624C7.71534 11.018 7.62871 11.002 7.54477 11.0173C7.21164 11.0928 6.87104 11.1313 6.52945 11.1318H6.50187ZM4.13177 2.11632L3.57879 1.09351C3.55689 1.05201 3.52658 1.01552 3.48987 0.986299C3.45316 0.957074 3.41082 0.935768 3.36546 0.923729C3.31974 0.911402 3.27192 0.90855 3.22505 0.915341C3.17818 0.922132 3.13327 0.93846 3.09292 0.963257C2.2221 1.50008 1.48895 2.23301 0.951964 3.10357C0.927427 3.14403 0.911234 3.189 0.904515 3.23584C0.897797 3.28268 0.900636 3.33039 0.912809 3.37612C0.924982 3.42184 0.946184 3.46463 0.975302 3.50193C1.00442 3.53924 1.04075 3.57032 1.08216 3.59323L2.10924 4.14605C2.18712 4.18651 2.27731 4.19637 2.3621 4.17372C2.44689 4.15107 2.52021 4.09761 2.56752 4.02371C2.93532 3.44022 3.42765 2.94524 4.00929 2.57437C4.08393 2.52771 4.13817 2.45452 4.1609 2.3695C4.18362 2.28448 4.17317 2.19399 4.13177 2.11632ZM12.3797 4.7384L11.2617 5.0741C11.1801 5.09888 11.1106 5.15283 11.0662 5.22565C11.0217 5.29848 11.0055 5.38508 11.0208 5.46899C11.1729 6.13971 11.1729 6.83591 11.0208 7.50663C11.0062 7.58994 11.022 7.67579 11.0656 7.74833C11.1091 7.82087 11.1775 7.87524 11.2579 7.90152L12.3837 8.23722C12.4289 8.25072 12.4763 8.2549 12.5232 8.24947C12.57 8.24404 12.6154 8.22908 12.6563 8.2056C12.697 8.18231 12.7327 8.15112 12.7612 8.11382C12.7897 8.07652 12.8104 8.03383 12.8221 7.98839C13.0591 6.99133 13.0591 5.95266 12.8221 4.95561C12.8104 4.91017 12.7897 4.86758 12.7612 4.83028C12.7327 4.79297 12.697 4.76169 12.6563 4.7384C12.6154 4.71492 12.57 4.70006 12.5232 4.69463C12.4763 4.6892 12.4289 4.69337 12.3837 4.70687L12.3797 4.7384ZM8.87197 10.887L9.42901 11.9255C9.45193 11.9669 9.48292 12.0033 9.52024 12.0324C9.55755 12.0615 9.60045 12.0828 9.64619 12.095C9.69193 12.1072 9.73956 12.1099 9.78641 12.1032C9.83326 12.0965 9.87825 12.0804 9.91873 12.0558C10.7886 11.5179 11.5216 10.7852 12.0597 9.91553C12.0845 9.8752 12.1009 9.83021 12.1077 9.78336C12.1145 9.7365 12.1116 9.68879 12.0992 9.64308C12.0866 9.59748 12.0651 9.55482 12.036 9.51755C12.0068 9.48028 11.9707 9.44911 11.9295 9.42587L10.8905 8.869C10.8128 8.82761 10.7222 8.81726 10.6372 8.83998C10.5522 8.8627 10.479 8.91683 10.4324 8.99144C10.0641 9.57026 9.57141 10.06 8.9904 10.425C8.91614 10.473 8.86288 10.5471 8.84092 10.6327C8.81895 10.7184 8.82998 10.8092 8.87197 10.887ZM10.9024 4.17372L11.9295 3.6209C11.9709 3.59799 12.0072 3.56691 12.0363 3.5296C12.0655 3.4923 12.0867 3.44951 12.0988 3.40379C12.111 3.35806 12.1139 3.31035 12.1071 3.26351C12.1004 3.21667 12.0842 3.1717 12.0597 3.13124C11.5216 2.26158 10.7886 1.5288 9.91873 0.99083C9.87825 0.966301 9.83326 0.95021 9.78641 0.943493C9.73956 0.936776 9.69193 0.939615 9.64619 0.951784C9.60045 0.963953 9.55755 0.985245 9.52024 1.01435C9.48292 1.04346 9.45193 1.07978 9.42901 1.12118L8.87988 2.14399C8.83715 2.22099 8.82562 2.31135 8.84767 2.39659C8.86972 2.48183 8.9236 2.55541 8.99831 2.60204C9.58205 2.97163 10.076 3.46671 10.4441 4.05128C10.4914 4.12518 10.5648 4.17874 10.6495 4.20139C10.7343 4.22404 10.8245 4.21418 10.9024 4.17372ZM6.51769 1.8833C6.86189 1.88388 7.20492 1.9223 7.54072 1.99784C7.62457 2.01227 7.71091 1.99586 7.78355 1.95156C7.85619 1.90726 7.9102 1.83805 7.93574 1.75691L8.26768 0.64732C8.28118 0.602135 8.28526 0.554659 8.27983 0.507815C8.2744 0.460971 8.25953 0.415666 8.23605 0.374768C8.21275 0.334021 8.18155 0.29836 8.14424 0.269874C8.10692 0.241388 8.06413 0.220685 8.01867 0.208943C7.02132 -0.0279809 5.98243 -0.0279809 4.98507 0.208943C4.93961 0.220685 4.89682 0.241388 4.8595 0.269874C4.82219 0.29836 4.79099 0.334021 4.76769 0.374768C4.74421 0.415666 4.72934 0.460971 4.72391 0.507815C4.71848 0.554659 4.72256 0.602135 4.73606 0.64732L5.06801 1.75691C5.09354 1.83805 5.14755 1.90726 5.22019 1.95156C5.29283 1.99586 5.37917 2.01227 5.46302 1.99784C5.79883 1.9223 6.14186 1.88388 6.48605 1.8833H6.51769ZM2.35034 6.5431C2.35411 7.22791 2.52616 7.9013 2.85144 8.50399C3.17672 9.10668 3.64522 9.62017 4.21567 9.99932C4.78613 10.3785 5.44109 10.6117 6.12286 10.6783C6.80464 10.745 7.49222 10.643 8.12534 10.3815C8.63111 10.1736 9.09108 9.86829 9.47877 9.48275C9.86646 9.09721 10.1744 8.63907 10.3849 8.13455C10.7 7.37491 10.7821 6.53882 10.621 5.73239C10.4599 4.92596 10.063 4.18556 9.48031 3.60509C9.09045 3.22109 8.63042 2.91543 8.12534 2.70472C7.49242 2.43908 6.80371 2.33397 6.12036 2.39881C5.437 2.46365 4.78016 2.69645 4.20854 3.07638C3.63691 3.4563 3.16815 3.97158 2.84392 4.57643C2.51969 5.18127 2.35023 5.85688 2.35034 6.5431Z" fill="#FFF8A8"/>
</g>
</g>
<path d="M15.4355 11.7575C15.4872 11.7478 15.541 11.7577 15.5859 11.7848C15.6309 11.8119 15.6642 11.8548 15.6797 11.9049L15.8926 12.5993C15.9008 12.6267 15.9035 12.6557 15.9004 12.6842C15.8972 12.713 15.8874 12.741 15.873 12.7663C15.8588 12.7914 15.8403 12.814 15.8174 12.8317C15.7945 12.8493 15.7681 12.8614 15.7402 12.8688C15.1272 13.0176 14.4875 13.0214 13.873 12.8786C13.8451 12.8715 13.8189 12.8588 13.7959 12.8414C13.7729 12.8241 13.7537 12.802 13.7393 12.777C13.7247 12.7519 13.7154 12.7238 13.7119 12.695C13.7085 12.6662 13.7106 12.6368 13.7188 12.609L13.9248 11.9137C13.9398 11.8634 13.9729 11.8202 14.0176 11.7926C14.0623 11.7651 14.1153 11.7551 14.167 11.7643C14.373 11.8098 14.5839 11.8323 14.7949 11.8317H14.8115C15.0216 11.8303 15.2309 11.8049 15.4355 11.7575ZM12.752 11.0006C12.9054 11.1539 13.0757 11.2902 13.2607 11.4059C13.3068 11.4343 13.3406 11.4796 13.3545 11.5319C13.3683 11.5843 13.361 11.6406 13.335 11.6881L13.0029 12.3209C12.9896 12.3465 12.9707 12.3692 12.9482 12.3873C12.9258 12.4054 12.8999 12.4189 12.8721 12.4264C12.8441 12.4341 12.8148 12.4362 12.7861 12.4323C12.7573 12.4282 12.729 12.4181 12.7041 12.403C12.4486 12.2476 12.2134 12.0635 12 11.8571C12.2715 11.5911 12.5232 11.3051 12.752 11.0006ZM17.332 10.4088C17.3842 10.3946 17.4404 10.4003 17.4883 10.4254L18.1299 10.7653C18.1552 10.7794 18.1773 10.7991 18.1953 10.8219C18.2131 10.8446 18.2265 10.8704 18.2344 10.8981C18.2421 10.9262 18.2443 10.9561 18.2402 10.985C18.2362 11.0137 18.226 11.0412 18.2109 11.0661C17.8825 11.6026 17.4339 12.0557 16.9004 12.3893C16.8756 12.4045 16.8472 12.4153 16.8184 12.4196C16.7897 12.4238 16.7605 12.422 16.7324 12.4147C16.7042 12.4073 16.6773 12.3944 16.6543 12.3766C16.6314 12.3589 16.6128 12.3364 16.5986 12.3112L16.252 11.6735C16.226 11.6258 16.2192 11.5699 16.2324 11.5172C16.2457 11.4645 16.2787 11.4191 16.3242 11.3893C16.6806 11.163 16.9821 10.8598 17.207 10.5026C17.2354 10.4567 17.28 10.4231 17.332 10.4088ZM14.5342 6.45863C14.9544 6.41678 15.3784 6.47876 15.7686 6.64027C16.08 6.76844 16.3644 6.95591 16.6055 7.19105C16.9655 7.54646 17.212 8.00113 17.3135 8.49672C17.4149 8.99239 17.3664 9.50695 17.1748 9.97523C17.0467 10.2863 16.8585 10.5689 16.6211 10.8073C16.3837 11.0457 16.1016 11.2355 15.791 11.3649C15.4023 11.5276 14.9792 11.5923 14.5596 11.5534C14.1399 11.5143 13.7359 11.3728 13.3838 11.1413C13.2162 11.031 13.0633 10.9013 12.9268 10.7565C13.7617 9.54766 14.2515 8.08277 14.252 6.50258C14.3448 6.48272 14.4392 6.4681 14.5342 6.45863ZM18.4805 7.85219C18.5092 7.85538 18.5373 7.86431 18.5625 7.87855C18.5877 7.89277 18.6103 7.91232 18.6279 7.9352C18.6453 7.95783 18.6577 7.98378 18.665 8.01137C18.8138 8.62423 18.8177 9.26429 18.6748 9.87855C18.6677 9.90642 18.655 9.93276 18.6377 9.9557C18.6203 9.97871 18.5982 9.99789 18.5732 10.0123C18.5481 10.0269 18.52 10.0362 18.4912 10.0397C18.4624 10.0432 18.4331 10.041 18.4053 10.0329L17.7119 9.82973C17.6624 9.81382 17.6198 9.78038 17.5928 9.73598C17.5658 9.69147 17.5557 9.63788 17.5645 9.58656C17.656 9.17349 17.6541 8.74481 17.5586 8.33266C17.5491 8.2812 17.5589 8.22806 17.5859 8.18324C17.6131 8.13834 17.6559 8.10498 17.7061 8.08949L18.3926 7.87953L18.3945 7.86C18.4222 7.85159 18.4517 7.84903 18.4805 7.85219ZM16.7852 5.55141C16.814 5.5554 16.8422 5.56573 16.8672 5.5807C17.4039 5.9091 17.8567 6.35788 18.1904 6.89125C18.2056 6.91598 18.2164 6.94362 18.2207 6.9723C18.225 7.00111 18.2232 7.03104 18.2158 7.05922C18.2085 7.08725 18.1954 7.11342 18.1777 7.13637C18.16 7.15937 18.1377 7.17879 18.1123 7.19301L17.4814 7.53676C17.4337 7.56169 17.3783 7.56798 17.3262 7.55434C17.274 7.54064 17.2285 7.50785 17.1992 7.46254C16.971 7.10396 16.6659 6.80053 16.3057 6.57484C16.2596 6.54637 16.2257 6.50126 16.2119 6.44887C16.1981 6.39652 16.2054 6.34107 16.2314 6.29359L16.5664 5.66273C16.5804 5.63719 16.5992 5.61435 16.6221 5.59633C16.6449 5.57834 16.6711 5.56488 16.6992 5.55727C16.7272 5.54969 16.7564 5.54748 16.7852 5.55141ZM14.1123 5.05629C14.6371 4.96816 15.1751 4.98421 15.6953 5.10512C15.7232 5.11218 15.7495 5.12492 15.7725 5.14223C15.7955 5.15965 15.8156 5.18167 15.8301 5.20668C15.8446 5.2317 15.854 5.26001 15.8574 5.28871C15.8608 5.31725 15.8577 5.34608 15.8496 5.37367L15.6494 6.05824C15.6339 6.10818 15.6002 6.15091 15.5557 6.17836C15.5112 6.2057 15.4578 6.21627 15.4062 6.20766C15.1995 6.16222 14.9881 6.13961 14.7764 6.14027H14.7568C14.5847 6.14142 14.4131 6.15746 14.2441 6.1891C14.2284 5.80319 14.1842 5.42502 14.1123 5.05629Z" fill="#FFF8A8"/>
<defs>
<clipPath id="clip0_0_42213">
<rect width="13" height="13" fill="white"/>
</clipPath>
</defs>
</svg>
