<svg width="16" height="16" viewBox="0 0 16 16" fill="none" xmlns="http://www.w3.org/2000/svg">
<path d="M7.97966 2.58778e-05C6.39845 0.00404747 4.85391 0.476562 3.54108 1.35787C2.22826 2.23919 1.20604 3.48976 0.603533 4.95168C0.00103144 6.4136 -0.154737 8.02128 0.155909 9.57167C0.466555 11.1221 1.22968 12.5457 2.3489 13.6626C3.46812 14.7795 4.89323 15.5398 6.44426 15.8473C7.99528 16.1548 9.60264 15.9957 11.0633 15.3903C12.524 14.7848 13.7725 13.76 14.6512 12.4454C15.5298 11.1308 15.9992 9.58529 16 8.00408C16.0005 6.95145 15.7933 5.90908 15.3903 4.93668C14.9872 3.96428 14.3962 3.08098 13.6511 2.33741C12.906 1.59385 12.0215 1.00461 11.0483 0.603522C10.0751 0.202429 9.03229 -0.00265135 7.97966 2.58778e-05ZM8.10173 14.4049C7.85998 14.4049 7.62815 14.3089 7.45721 14.1379C7.28628 13.967 7.19024 13.7352 7.19024 13.4934C7.19024 13.2517 7.28628 13.0198 7.45721 12.8489C7.62815 12.6779 7.85998 12.5819 8.10173 12.5819C8.34347 12.5819 8.57532 12.6779 8.74625 12.8489C8.91719 13.0198 9.01323 13.2517 9.01323 13.4934C9.01323 13.7352 8.91719 13.967 8.74625 14.1379C8.57532 14.3089 8.34347 14.4049 8.10173 14.4049ZM9.34283 9.28181C9.21509 9.33241 9.10519 9.41968 9.02698 9.53265C8.94877 9.64562 8.90575 9.77922 8.90336 9.91659V10.4863C8.90336 10.728 8.80733 10.9599 8.63639 11.1308C8.46545 11.3018 8.23361 11.3978 7.99187 11.3978C7.75012 11.3978 7.51828 11.3018 7.34734 11.1308C7.1764 10.9599 7.08037 10.728 7.08037 10.4863V9.91659C7.08102 9.42645 7.22558 8.94729 7.49613 8.53858C7.76668 8.12987 8.1513 7.8096 8.60224 7.61753C8.85594 7.5075 9.07519 7.33093 9.23678 7.10652C9.39837 6.88211 9.4963 6.61818 9.5202 6.34268C9.5441 6.06718 9.49309 5.79035 9.37256 5.54147C9.25204 5.29258 9.06647 5.08091 8.8355 4.92883C8.60454 4.77675 8.33677 4.68994 8.06051 4.67756C7.78426 4.66519 7.50978 4.72773 7.26615 4.85854C7.02251 4.98936 6.81877 5.1836 6.67647 5.42071C6.53418 5.65782 6.45862 5.92898 6.45779 6.20551C6.45779 6.44726 6.36175 6.6791 6.19081 6.85004C6.01987 7.02098 5.78803 7.117 5.54629 7.117C5.30454 7.117 5.07271 7.02098 4.90177 6.85004C4.73083 6.6791 4.6348 6.44726 4.6348 6.20551C4.63392 5.65348 4.76936 5.10979 5.02908 4.62267C5.28881 4.13556 5.66478 3.72008 6.12363 3.41317C6.58248 3.10626 7.11 2.91739 7.65938 2.86332C8.20876 2.80925 8.76299 2.89167 9.27287 3.10324C9.78275 3.31481 10.2325 3.64899 10.5822 4.07613C10.9319 4.50326 11.1707 5.01014 11.2775 5.55175C11.3843 6.09336 11.3556 6.65296 11.1942 7.18086C11.0327 7.70875 10.7434 8.18861 10.352 8.57785C10.0667 8.87832 9.72336 9.1178 9.34283 9.28181Z" fill="white"/>
</svg>
