<svg width="14" height="14" viewBox="0 0 14 14" fill="none" xmlns="http://www.w3.org/2000/svg">
<g clip-path="url(#clip0_0_3881)">
<path d="M12.2506 5.8304e-05H0.767485C0.667159 -0.00114462 0.567574 0.0162769 0.474513 0.05135C0.381452 0.0864231 0.296769 0.138415 0.225372 0.204338C0.153974 0.270261 0.0972864 0.348828 0.0585989 0.4354C0.0199113 0.521973 -8.24355e-06 0.614832 2.55918e-09 0.70866V13.564C0.00239164 13.6503 0.0315952 13.7341 0.0840515 13.8052C0.136508 13.8763 0.20995 13.9316 0.295426 13.9644C0.380901 13.9971 0.474716 14.0059 0.565436 13.9897C0.656155 13.9734 0.739862 13.9328 0.806346 13.8728L2.31217 12.4102C2.35761 12.3648 2.41252 12.3286 2.47352 12.3039C2.53451 12.2791 2.60028 12.2664 2.66677 12.2664C2.73325 12.2664 2.79902 12.2791 2.86002 12.3039C2.92101 12.3286 2.97593 12.3648 3.02136 12.4102L4.11916 13.5912C4.16531 13.6354 4.22046 13.6706 4.28136 13.6946C4.34226 13.7186 4.40767 13.7309 4.47376 13.7309C4.53984 13.7309 4.60525 13.7186 4.66615 13.6946C4.72705 13.6706 4.7822 13.6354 4.82835 13.5912L6.15931 12.3556C6.20395 12.309 6.25861 12.2718 6.31971 12.2462C6.38081 12.2207 6.44698 12.2075 6.5139 12.2075C6.58082 12.2075 6.64699 12.2207 6.70809 12.2462C6.76919 12.2718 6.82385 12.309 6.8685 12.3556L7.9663 13.5367C8.01173 13.5821 8.06665 13.6183 8.12764 13.643C8.18864 13.6677 8.25441 13.6805 8.32089 13.6805C8.38737 13.6805 8.45315 13.6677 8.51414 13.643C8.57514 13.6183 8.63005 13.5821 8.67549 13.5367L10.0064 12.3011C10.0519 12.2558 10.1068 12.2196 10.1678 12.1948C10.2288 12.1701 10.2946 12.1574 10.361 12.1574C10.4275 12.1574 10.4933 12.1701 10.5543 12.1948C10.6153 12.2196 10.6702 12.2558 10.7156 12.3011L12.134 13.6912C12.2248 13.7744 12.3469 13.821 12.4741 13.821C12.6012 13.821 12.7233 13.7744 12.8141 13.6912C12.8949 13.626 12.9594 13.545 13.003 13.454C13.0467 13.3629 13.0684 13.264 13.0667 13.1642V0.726848C13.0591 0.536441 12.9729 0.356188 12.8261 0.224023C12.6794 0.0918582 12.4835 0.0180599 12.2798 0.0181906L12.2506 5.8304e-05Z" fill="white"/>
<path d="M8.94708 9.08497H4.08958C3.92726 9.08497 3.77158 9.02468 3.6568 8.91734C3.54202 8.81 3.47754 8.66441 3.47754 8.51261C3.48009 8.36239 3.5457 8.21913 3.6602 8.11375C3.77471 8.00837 3.92893 7.94932 4.08958 7.94934H8.94708C9.10774 7.94932 9.26196 8.00837 9.37646 8.11375C9.49097 8.21913 9.55658 8.36239 9.55913 8.51261C9.55913 8.66441 9.49464 8.81 9.37986 8.91734C9.26508 9.02468 9.10941 9.08497 8.94708 9.08497Z" fill="#2E3135"/>
<path d="M8.94708 6.52308H4.08958C3.92893 6.5231 3.77471 6.46405 3.6602 6.35867C3.5457 6.25329 3.48009 6.11003 3.47754 5.95981C3.47754 5.80801 3.54202 5.66242 3.6568 5.55508C3.77158 5.44774 3.92726 5.38745 4.08958 5.38745H8.94708C9.10941 5.38745 9.26508 5.44774 9.37986 5.55508C9.49464 5.66242 9.55913 5.80801 9.55913 5.95981C9.55658 6.11003 9.49097 6.25329 9.37646 6.35867C9.26196 6.46405 9.10774 6.5231 8.94708 6.52308Z" fill="#2E3135"/>
<path d="M8.94723 3.9701H4.08974C3.94209 3.96413 3.80175 3.90841 3.69461 3.81323C3.58747 3.71804 3.52077 3.58982 3.50684 3.45224C3.50684 3.30044 3.57132 3.15485 3.6861 3.04751C3.80088 2.94017 3.95656 2.87988 4.11888 2.87988H8.97638C9.1387 2.87988 9.29438 2.94017 9.40916 3.04751C9.52394 3.15485 9.58842 3.30044 9.58842 3.45224C9.58587 3.60246 9.52027 3.74572 9.40576 3.8511C9.29125 3.95648 9.13703 4.01553 8.97638 4.01551L8.94723 3.9701Z" fill="#2E3135"/>
</g>
<defs>
<clipPath id="clip0_0_3881">
<rect width="13.0667" height="14" fill="white"/>
</clipPath>
</defs>
</svg>
