<svg width="20" height="20" viewBox="0 0 20 20" fill="none" xmlns="http://www.w3.org/2000/svg">
<path d="M10 0C15.5228 0 20 4.47715 20 10C20 15.5228 15.5228 20 10 20C4.47715 20 0 15.5228 0 10C0 4.47715 4.47715 0 10 0ZM11.3242 5C11.2341 5 11.1584 5.03621 11.0908 5.11816C11.0232 5.20026 10.9932 5.29192 10.9932 5.40137V7.00684H9.82715C7.36106 7.00695 5.84224 7.85586 5.27832 9.55273C5.09035 10.1093 5 10.812 5 11.6514C5.00006 12.3539 5.21852 13.303 5.66211 14.498C5.66971 14.5344 5.6924 14.5798 5.71484 14.6523C5.7374 14.7253 5.75967 14.79 5.78223 14.8447C5.80474 14.8993 5.8271 14.945 5.84961 14.9814C5.8872 15.0544 5.94055 15.0908 5.99316 15.0908C6.04557 15.0907 6.08329 15.0719 6.11328 15.0264C6.14309 14.9899 6.15815 14.9356 6.1582 14.8721C6.1582 14.8356 6.15107 14.78 6.14355 14.707C6.13605 14.6343 6.12793 14.5888 6.12793 14.5615C6.11289 14.2787 6.10547 14.0142 6.10547 13.7861C6.10547 13.3665 6.13516 12.9831 6.19531 12.6455C6.26299 12.3079 6.3459 12.0159 6.45117 11.7695C6.55644 11.5232 6.69982 11.3133 6.86523 11.1309C7.03811 10.9576 7.21864 10.8119 7.41406 10.6934C7.6095 10.5839 7.8424 10.4926 8.10547 10.4287C8.37612 10.3649 8.6395 10.3194 8.91016 10.292C9.17334 10.2737 9.48194 10.2549 9.82031 10.2549H10.9854V11.8701C10.9854 11.9796 11.0153 12.0712 11.083 12.1533C11.1506 12.2354 11.2262 12.2715 11.3164 12.2715C11.4066 12.2715 11.4822 12.2353 11.5498 12.1533L14.2119 8.92285C14.2793 8.84092 14.3095 8.74979 14.3096 8.64062C14.3096 8.53118 14.2789 8.43073 14.2188 8.34863L11.5566 5.11816C11.4891 5.03646 11.4142 5.00006 11.3242 5Z" fill="#808994"/>
</svg>
