<svg width="16" height="16" viewBox="0 0 16 16" fill="none" xmlns="http://www.w3.org/2000/svg">
<g clip-path="url(#clip0_0_2256)">
<path d="M15.7226 11.7074L10.0225 1.20926C9.8266 0.844647 9.53559 0.53993 9.18037 0.327513C8.82515 0.115096 8.419 0.00292969 8.00511 0.00292969C7.59123 0.00292969 7.18507 0.115096 6.82985 0.327513C6.47463 0.53993 6.18362 0.844647 5.98776 1.20926L0.287637 11.7074C0.0975749 12.0542 0.000575102 12.4444 0.00608139 12.8398C0.0115877 13.2352 0.119417 13.6225 0.319062 13.9639C0.518708 14.3053 0.80336 14.5892 1.14531 14.7879C1.48725 14.9866 1.87483 15.0933 2.27029 15.0977H13.6805C14.0809 15.1037 14.476 15.0045 14.8262 14.81C15.1763 14.6156 15.4694 14.3327 15.6761 13.9896C15.8827 13.6465 15.9958 13.2552 16.0039 12.8547C16.0121 12.4543 15.9151 12.0586 15.7226 11.7074ZM8.01007 13.3827C7.74715 13.3827 7.495 13.2783 7.30909 13.0924C7.12318 12.9065 7.01874 12.6543 7.01874 12.3914C7.01874 12.1285 7.12318 11.8764 7.30909 11.6905C7.495 11.5045 7.74715 11.4001 8.01007 11.4001C8.27298 11.4001 8.52513 11.5045 8.71104 11.6905C8.89695 11.8764 9.00139 12.1285 9.00139 12.3914C9.00139 12.6543 8.89695 12.9065 8.71104 13.0924C8.52513 13.2783 8.27298 13.3827 8.01007 13.3827ZM8.28764 10.5674H7.63337L6.88987 4.75823C6.88836 4.61643 6.91584 4.4758 6.97062 4.345C7.0254 4.21421 7.10632 4.09598 7.20843 3.99758C7.31054 3.89918 7.43168 3.8227 7.56442 3.7728C7.69715 3.7229 7.83869 3.70063 7.98033 3.70739C8.12681 3.68631 8.27615 3.69829 8.4174 3.74246C8.55865 3.78662 8.68822 3.86186 8.7966 3.96264C8.90498 4.06341 8.98942 4.18716 9.04372 4.32482C9.09803 4.46249 9.12083 4.6106 9.11044 4.75823L8.28764 10.5674Z" fill="#F65252"/>
</g>
<defs>
<clipPath id="clip0_0_2256">
<rect width="16" height="15.088" fill="white"/>
</clipPath>
</defs>
</svg>
