<svg width="27" height="22" viewBox="0 0 27 22" fill="none" xmlns="http://www.w3.org/2000/svg">
<path d="M14.6911 4.75345C14.5888 4.62927 14.4611 4.52841 14.3166 4.45763C14.1721 4.38686 14.0142 4.3478 13.8533 4.34308H4.72276C4.44785 4.39089 4.19828 4.53325 4.0172 4.74556C3.83612 4.95786 3.7349 5.22676 3.73106 5.50578C3.72523 5.65918 3.7528 5.81202 3.81184 5.95372C3.87088 6.09543 3.96 6.22262 4.07302 6.3265C4.17605 6.44173 4.30268 6.53344 4.44429 6.5954C4.5859 6.65735 4.73919 6.68811 4.89375 6.68557H14.0243C14.3061 6.65411 14.5642 6.5128 14.7424 6.2923C14.9298 6.07981 15.0332 5.8062 15.0331 5.52288C15.0161 5.23345 14.8946 4.96004 14.6911 4.75345ZM14.6911 9.33582C14.5854 9.22053 14.4554 9.13008 14.3106 9.07095C14.1657 9.01183 14.0096 8.9855 13.8533 8.99385H4.72276C4.4371 9.05938 4.18671 9.23037 4.02173 9.47261C3.82688 9.68054 3.72236 9.95721 3.73106 10.242C3.72879 10.3962 3.75719 10.5492 3.8146 10.6922C3.87202 10.8353 3.9573 10.9655 4.0655 11.0753C4.17369 11.185 4.30263 11.2722 4.44482 11.3317C4.58701 11.3912 4.73961 11.4218 4.89375 11.4218H14.0243C14.3034 11.3822 14.5587 11.2424 14.7424 11.0286C14.9324 10.8108 15.0358 10.531 15.0331 10.242C15.047 10.0751 15.0234 9.90712 14.9643 9.75038C14.9051 9.59363 14.8118 9.45202 14.6911 9.33582Z" fill="white"/>
<path d="M20.3757 5.46785e-05H2.61016C2.26819 -0.00216593 1.92916 0.0632716 1.61259 0.192601C1.29601 0.32193 1.00814 0.512596 0.76555 0.753624C0.522957 0.994652 0.330432 1.28128 0.199056 1.59701C0.067681 1.91274 5.03438e-05 2.25134 5.75536e-05 2.59332V16.1827C-0.00407284 16.8049 0.214235 17.4082 0.615622 17.8837C1.01701 18.3591 1.57506 18.6756 2.18917 18.7759C2.32936 18.8504 2.48513 18.8908 2.64384 18.8938H4.32777V20.9314C4.3273 21.1177 4.37514 21.301 4.46663 21.4633C4.55812 21.6256 4.69014 21.7615 4.84979 21.8575C5.01107 21.9506 5.19401 21.9997 5.38023 21.9997C5.56646 21.9997 5.7494 21.9506 5.91067 21.8575L11.956 18.8433H14.6166C14.8981 18.8303 15.1637 18.7093 15.3581 18.5054C15.5526 18.3015 15.661 18.0305 15.6607 17.7487C15.6607 17.4569 15.5459 17.1767 15.3411 16.9688C15.1363 16.7608 14.8579 16.6418 14.5661 16.6373H11.7876C11.6184 16.6426 11.4522 16.6827 11.2993 16.7552L6.61793 19.1464V17.7487C6.60558 17.4713 6.48984 17.2086 6.2935 17.0123C6.09716 16.8159 5.83444 16.7002 5.55705 16.6879H2.59332C2.45781 16.6835 2.32932 16.6266 2.23503 16.5291C2.14075 16.4317 2.08807 16.3014 2.08814 16.1658V2.59332C2.08814 2.45487 2.14314 2.32209 2.24103 2.22419C2.33893 2.12629 2.47171 2.0713 2.61016 2.0713H20.3757C20.5141 2.0713 20.6469 2.12629 20.7448 2.22419C20.8427 2.32209 20.8977 2.45487 20.8977 2.59332V7.64512H22.9858V2.59332C22.9858 2.25134 22.9182 1.91274 22.7868 1.59701C22.6554 1.28128 22.4629 0.994652 22.2203 0.753624C21.9777 0.512596 21.6898 0.32193 21.3733 0.192601C21.0567 0.0632716 20.7176 -0.00216593 20.3757 5.46785e-05Z" fill="white"/>
<path d="M21.3173 9.13733C22.7071 9.13733 24.04 9.68958 25.0228 10.6723C26.0056 11.6551 26.5577 12.9879 26.5578 14.3778C26.5578 15.7677 26.0056 17.1005 25.0228 18.0833C24.04 19.0661 22.7072 19.6182 21.3173 19.6182C19.9275 19.6182 18.5946 19.0661 17.6118 18.0833C16.6291 17.1005 16.0768 15.7676 16.0768 14.3778C16.0769 12.9879 16.629 11.6551 17.6118 10.6723C18.5946 9.68952 19.9275 9.13737 21.3173 9.13733ZM20.5935 15.4408L18.5935 13.3585L17.4303 14.475L20.5935 17.77L25.0456 13.1304L23.8825 12.0149L20.5935 15.4408Z" fill="white"/>
</svg>
