<svg width="24" height="24" viewBox="0 0 24 24" fill="none" xmlns="http://www.w3.org/2000/svg">
<g clip-path="url(#clip0_0_40662)">
<path d="M17.4465 19.8995C18.5315 21.0403 18.5851 21.7972 18.5851 21.7972C18.5851 21.7972 16.7031 23.4961 11.8316 23.4961C6.96017 23.4961 5.07812 21.7972 5.07812 21.7972C5.07812 21.7972 5.76799 20.2701 7.06511 19.5155C7.90232 19.0288 9.50753 19.1784 9.61023 19.2186C11.24 19.8883 14.0753 19.098 14.0753 19.098C14.0753 19.098 16.3592 18.7586 17.4465 19.8995Z" fill="#15C284"/>
<path d="M10.6007 17.2482C10.6007 17.2482 9.60499 16.7057 9.6541 16.853C9.70322 17.0004 10.9378 19.0164 10.6655 19.8335C10.3931 20.6506 9.88184 21.2154 9.93095 21.4387C9.98007 21.6619 11.9269 24.8701 13.2173 21.5972C13.2173 21.5972 10.8418 20.5903 14.1683 16.6074L10.6007 17.2482Z" fill="#A9A920"/>
<path d="M8.68484 20.7674C8.68484 20.7674 8.94381 22.0199 9.85023 21.2653C10.7567 20.5107 9.77433 19.8633 9.53992 19.4525C9.3055 19.0417 7.26941 16.1795 6.95908 14.8757C6.64875 13.5719 6.98364 9.74083 8.31201 8.73618C9.64038 7.73153 10.5446 6.92558 12.5047 7.27386C14.4649 7.62214 16.8694 9.61804 16.8337 12.2971C16.798 14.9762 16.6104 17.2467 15.9898 18.0638C15.3691 18.8809 14.1167 19.218 13.8688 19.3051C13.621 19.3922 12.9513 20.4326 13.2482 20.9304C13.5451 21.4283 14.2149 21.6493 14.6011 21.0532C14.9874 20.4571 14.6011 21.9462 14.0921 21.9708C13.5831 21.9954 12.0448 21.7609 12.306 19.8744C12.4342 19.1664 12.7305 18.4995 13.17 17.9299C13.8711 16.9498 14.3332 16.4407 14.4426 16.2063C14.6145 15.8335 8.34996 15.2865 8.34996 15.2865C8.34996 15.2865 10.2923 17.3784 10.4597 18.3005C10.6272 19.2225 11.4309 20.9974 10.3749 21.6024C9.31889 22.2074 8.72056 21.9619 8.68484 20.7674Z" fill="#442003"/>
<path d="M7.23006 13.4943C7.23006 13.4943 9.43806 17.7495 11.4585 17.6736C13.479 17.5977 14.497 16.439 15.2293 15.3071C15.9616 14.1752 16.4952 13.8158 16.4818 13.3447C16.4687 13.1747 16.3995 13.0139 16.2852 12.8874C16.1708 12.761 16.0178 12.676 15.85 12.6459C15.7138 12.6459 15.8879 8.35714 11.7197 8.35938C8.91564 8.43305 7.86188 11.1657 7.86188 12.6459C7.75776 12.6417 7.65418 12.663 7.56014 12.7078C7.46609 12.7527 7.3844 12.8198 7.32216 12.9034C7.25992 12.987 7.21901 13.0845 7.20296 13.1874C7.18691 13.2904 7.19621 13.3957 7.23006 13.4943Z" fill="#A15242"/>
<path d="M10.2903 15.2634C10.2903 15.2634 12.4358 15.3861 12.8198 15.2634C13.2038 15.1406 12.5228 16.2546 11.5561 16.268C10.5894 16.2814 10.2166 15.5223 10.2903 15.2634Z" fill="#610F10"/>
<path d="M10.8877 12.5097C10.8877 12.5097 10.0929 10.7616 8.55469 12.2864C8.55692 12.2864 10.1063 11.8912 10.8877 12.5097Z" fill="#4A1400"/>
<path d="M12.7988 12.4374C12.7988 12.4374 13.5936 10.6893 15.1319 12.2141C15.1296 12.2141 13.578 11.8145 12.7988 12.4374Z" fill="#4A1400"/>
<path d="M8.48724 11.8223C8.48724 11.8223 12.1151 9.58979 14.8857 11.6616L15.3881 11.5857V10.1725C15.3881 10.1725 14.216 7.89751 11.7245 7.92207C10.9926 7.93635 10.2755 8.13032 9.63622 8.48693C8.99697 8.84354 8.4552 9.35185 8.05859 9.96709L8.11441 11.8223H8.48724Z" fill="#16E04A"/>
<path d="M9.6733 10.7924C9.6733 10.7924 5.58102 11.6363 2.27014 15.5432C2.27014 15.5432 1.48874 14.5766 6.13915 11.5626C6.13469 11.5626 8.55702 10.4887 9.6733 10.7924Z" fill="#15C284"/>
<path d="M8.65736 10.3366C8.65736 10.3366 5.87783 10.2719 1.18945 13.3305C1.18945 13.3305 2.43299 10.1111 8.4475 9.78516C9.06369 9.86106 8.65736 10.3366 8.65736 10.3366Z" fill="#0C6242"/>
<path d="M8.61545 9.31059C8.61545 9.31059 5.26661 8.57608 1.49805 10.9113C1.49805 10.9113 1.36187 9.4691 5.05675 8.47338C5.05675 8.47338 4.09674 7.87952 0 8.19431C0 8.19431 1.62531 6.2051 8.67573 8.45552C8.67573 8.45552 10.0153 8.90203 9.94828 9.23691C9.8813 9.5718 8.61545 9.31059 8.61545 9.31059Z" fill="#15C284"/>
<path d="M1.41231 4.62353C1.41231 4.62353 2.93937 3.39116 5.98458 5.18614C9.02979 6.98112 9.87147 8.98149 9.87147 8.98149C9.87147 8.98149 9.71519 9.26501 8.235 7.78706C6.75482 6.30911 3.88152 4.57217 1.96152 4.72845C1.96152 4.71729 1.33863 4.81776 1.41231 4.62353Z" fill="#1B6437"/>
<path d="M9.93498 8.88657C9.93498 8.88657 8.46597 4.86797 4.67062 2.28267C4.67062 2.28267 3.62801 1.26016 4.92959 1.78035C6.23117 2.30053 10.0645 5.98424 10.4373 8.44006C10.8101 10.8959 9.93498 8.88657 9.93498 8.88657Z" fill="#15C284"/>
<path d="M10.6992 7.86549C10.6992 7.86549 10.2884 5.63292 6.73414 2.12334C6.73414 2.12334 6.62474 1.09413 8.14958 2.79311C9.67442 4.49208 10.5674 6.1799 10.9581 7.66678C11.3488 9.15367 10.6992 7.86549 10.6992 7.86549Z" fill="#1B6437"/>
<path d="M11.0812 7.56619C11.0812 7.56619 9.82206 1.44451 12.836 0.0112064C13.2647 -0.156235 12.9655 1.11186 12.6306 1.63205C12.2957 2.15223 11.8314 8.49493 11.7934 8.99949C11.7555 9.50405 11.0812 7.56619 11.0812 7.56619Z" fill="#15C284"/>
<path d="M12.2402 7.80771C12.2402 7.80771 13.0038 3.385 16.2968 1.81105C16.2968 1.81105 17.0782 1.50072 16.2968 2.25756C15.5154 3.0144 12.6867 6.35654 12.5751 8.08678C12.4635 9.81701 12.2402 7.80771 12.2402 7.80771Z" fill="#1B6437"/>
<path d="M12.9654 7.9018C12.9654 7.9018 15.7003 2.02347 18.6227 1.63277C18.6227 1.63277 19.739 1.20413 17.6739 3.11966C15.6087 5.0352 13.5615 7.10031 13.2266 8.51575C13.2266 8.51575 12.6305 9.37082 12.9654 7.9018Z" fill="#15C284"/>
<path d="M13.5616 8.49605C13.5616 8.49605 15.2739 4.26759 20.1298 4.53996C20.5383 4.53996 21.0786 5.13159 19.2166 5.27001C17.3547 5.40843 14.7895 7.19447 14.0818 8.92471C13.374 10.6549 13.5616 8.49605 13.5616 8.49605Z" fill="#1B6437"/>
<path d="M14.4434 9.14663C14.4434 9.14663 17.0421 5.23964 21.5072 6.48541C22.0475 6.61713 21.3778 6.95201 20.7817 6.93192C20.1856 6.91183 18.2343 6.48542 14.9971 9.14663C14.9971 9.14663 14.1912 9.89007 14.4434 9.14663Z" fill="#15C284"/>
<path d="M14.9024 9.47895C14.9024 9.47895 18.7156 6.18369 23.7947 7.86034C23.7947 7.86034 24.7078 8.29346 22.6784 8.29346C20.649 8.29346 19.5171 8.03224 17.5435 8.60824C16.778 8.81306 16.0451 9.12499 15.3668 9.53476C15.0922 9.70444 14.9649 9.81159 14.9024 9.79597C14.7528 9.75801 14.9024 9.47895 14.9024 9.47895Z" fill="#1B6437"/>
<path d="M20.633 8.997C22.7718 9.74267 22.9571 10.7272 22.9571 10.7272C22.9571 10.7272 20.258 9.13542 17.8781 9.29617C15.4982 9.45691 14.9199 9.94583 14.9199 9.94583C14.9199 9.94583 15.8889 7.95663 19.2935 8.49467L20.633 8.997Z" fill="#15C284"/>
<path d="M15.1073 9.96713C15.1073 9.96713 18.7352 9.2594 20.874 10.9517C23.0128 12.644 22.957 13.1485 22.957 13.1485C22.957 13.1485 23.2316 13.892 20.4275 11.6036C20.4275 11.6036 18.7352 10.1904 15.1073 10.3578C15.1073 10.3578 14.7077 10.0274 15.1073 9.96713Z" fill="#1B6437"/>
<path d="M15.126 10.5625C15.126 10.5625 18.5686 10.6563 20.6516 12.4602C22.7346 14.2641 23.3865 14.6369 23.4043 15.0477C23.4222 15.4585 19.4795 12.7214 18.6043 12.0695C17.7292 11.4176 15.3314 10.8617 15.1997 10.8795C15.068 10.8974 15.126 10.5625 15.126 10.5625Z" fill="#15C284"/>
</g>
<defs>
<clipPath id="clip0_0_40662">
<rect width="24" height="23.4977" fill="white"/>
</clipPath>
</defs>
</svg>
