<svg width="18" height="18" viewBox="0 0 18 18" fill="none" xmlns="http://www.w3.org/2000/svg">
<path d="M9 0C13.9706 0 18 4.02944 18 9C18 13.9706 13.9706 18 9 18C4.02944 18 0 13.9706 0 9C0 4.02944 4.02944 0 9 0ZM9.57812 5C9.22033 5 8.7897 5.01674 8.28711 5.05078C7.78451 5.0763 7.1159 5.08984 6.28125 5.08984C6.19614 5.20042 6.12823 5.32809 6.07715 5.47266C6.02607 5.60877 6.00001 5.74894 6 5.89355C6.28963 5.89355 6.494 5.94477 6.61328 6.04688C6.74108 6.14049 6.80469 6.30662 6.80469 6.54492V6.95312H6.14062V7.82129H6.80469V8.56152H6.08984V9.42969H6.80469V12.5449C6.80464 12.7831 6.74103 12.9494 6.61328 13.043C6.49396 13.1364 6.28944 13.1826 6 13.1826C6 13.506 6.09799 13.7787 6.29395 14H10.0127C10.2001 13.7872 10.2939 13.5145 10.2939 13.1826C9.91908 13.1826 9.62928 13.1533 9.4248 13.0938C9.22038 13.0257 9.0796 12.9065 9.00293 12.7363C8.93477 12.5576 8.90137 12.3016 8.90137 11.9697V11.3574H9.4375C10.3747 11.3574 11.1377 11.1746 11.7256 10.8086C12.3133 10.4427 12.7263 9.98281 12.9648 9.42969H13.7061C13.8253 9.3106 13.8931 9.17877 13.9102 9.03418C13.9357 8.88099 13.9492 8.72323 13.9492 8.56152H13.208C13.225 8.42548 13.2334 8.28516 13.2334 8.14062C13.2334 8.03 13.2292 7.92341 13.2207 7.82129H13.7568C13.8761 7.7022 13.9448 7.57038 13.9619 7.42578C13.9875 7.27259 14 7.11483 14 6.95312H13.0674C12.8885 6.35738 12.5216 5.88507 11.9678 5.53613C11.414 5.17878 10.6174 5 9.57812 5ZM10.7793 9.42969C10.6601 9.68493 10.4774 9.90236 10.2305 10.0811C9.99195 10.2512 9.6593 10.3359 9.2334 10.3359H9.06738C9.01638 10.3274 8.96086 10.319 8.90137 10.3105V9.42969H10.7793ZM10.9971 7.82129C11.0056 7.91489 11.0098 8.00893 11.0098 8.10254L10.9844 8.56152H8.90137V7.82129H10.9971ZM9.37402 6.00879C9.75728 6.00882 10.0598 6.09771 10.2812 6.27637C10.5112 6.45504 10.6854 6.68088 10.8047 6.95312H8.90137V6.05957C9.02909 6.0256 9.18678 6.00879 9.37402 6.00879Z" fill="white"/>
</svg>
