<svg width="18" height="18" viewBox="0 0 18 18" fill="none" xmlns="http://www.w3.org/2000/svg">
<path d="M9 0C13.9706 0 18 4.02944 18 9C18 13.9706 13.9706 18 9 18C4.02944 18 0 13.9706 0 9C0 4.02944 4.02944 0 9 0ZM9.7998 3.07031C9.09349 2.94482 8.36731 2.98598 7.67969 3.19043C6.99214 3.39491 6.36181 3.75708 5.83887 4.24805C5.31579 4.73921 4.91432 5.34598 4.66699 6.01953C4.41969 6.69305 4.33315 7.41502 4.41406 8.12793C4.49498 8.84075 4.74093 9.52507 5.13281 10.126L8.58105 14.7227C8.61928 14.7994 8.67815 14.864 8.75098 14.9092C8.82395 14.9543 8.90833 14.9785 8.99414 14.9785C9.07991 14.9785 9.16437 14.9543 9.2373 14.9092C9.31004 14.864 9.36904 14.7993 9.40723 14.7227L12.8613 10.126C13.3264 9.40058 13.6025 8.53864 13.6025 7.6084C13.6025 6.89103 13.4349 6.18322 13.1133 5.54199C12.7915 4.90065 12.3242 4.34307 11.749 3.91406C11.1739 3.48505 10.5063 3.1959 9.7998 3.07031ZM8.99316 5.50586C9.55035 5.50586 10.0855 5.72711 10.4795 6.12109C10.8735 6.51509 11.0947 7.05022 11.0947 7.60742C11.0946 8.16444 10.8733 8.69887 10.4795 9.09277C10.0855 9.48677 9.55036 9.70801 8.99316 9.70801C8.4361 9.70791 7.90172 9.48668 7.50781 9.09277C7.1139 8.69886 6.89267 8.16449 6.89258 7.60742C6.89258 7.05022 7.11381 6.51509 7.50781 6.12109C7.90171 5.72726 8.43616 5.50596 8.99316 5.50586Z" fill="#808994"/>
</svg>
