<svg width="18" height="10" viewBox="0 0 18 10" fill="none" xmlns="http://www.w3.org/2000/svg">
<path d="M12.8646 9.3303C12.8681 9.39513 12.8577 9.45999 12.8341 9.5205C12.8105 9.581 12.7745 9.63575 12.728 9.68111C12.6347 9.77386 12.5087 9.82625 12.3772 9.82692H4.84627C4.71657 9.82453 4.59302 9.77099 4.50259 9.67799C4.41215 9.58499 4.36211 9.46002 4.36333 9.3303C4.36333 8.20297 4.81126 7.12188 5.6084 6.32474C6.40554 5.5276 7.48663 5.07967 8.61396 5.07967C9.74129 5.07967 10.8224 5.5276 11.6195 6.32474C12.4167 7.12188 12.8646 8.20297 12.8646 9.3303ZM6.24039 2.27788C6.24039 1.82735 6.37404 1.38694 6.62434 1.01234C6.87464 0.637741 7.23028 0.345772 7.64651 0.173362C8.06275 0.000951548 8.52089 -0.044111 8.96276 0.0437829C9.40464 0.131677 9.81051 0.348523 10.1291 0.667096C10.4477 0.985668 10.6645 1.39165 10.7524 1.83353C10.8403 2.2754 10.7953 2.73332 10.6229 3.14956C10.4505 3.56579 10.1584 3.92154 9.78384 4.17184C9.40924 4.42214 8.96883 4.55579 8.5183 4.55579C7.91416 4.55579 7.33471 4.31585 6.90752 3.88866C6.48033 3.46147 6.24039 2.88202 6.24039 2.27788ZM11.7074 3.55809C11.7065 3.17765 11.8186 2.80552 12.0293 2.48876C12.24 2.172 12.5398 1.92479 12.8911 1.77858C13.2423 1.63237 13.629 1.59369 14.0022 1.66735C14.3755 1.74102 14.7183 1.92376 14.9877 2.19245C15.257 2.46115 15.4408 2.80374 15.5153 3.17681C15.5899 3.54987 15.5519 3.93661 15.4066 4.28818C15.2612 4.63975 15.0147 4.94029 14.6985 5.15174C14.3822 5.3632 14.0105 5.47608 13.63 5.47608C13.1213 5.47488 12.6337 5.27258 12.2735 4.91328C11.9134 4.55397 11.7098 4.06683 11.7074 3.55809ZM17.1744 9.26657C17.175 9.33716 17.1617 9.4071 17.1352 9.47256C17.1088 9.53801 17.0697 9.59762 17.0202 9.64796C16.9707 9.6983 16.9117 9.7384 16.8467 9.76597C16.7817 9.79354 16.712 9.80809 16.6414 9.80868H13.867C13.9241 9.6417 13.9503 9.46564 13.9444 9.28926C13.9212 8.08685 13.4889 6.92827 12.7189 6.00452C13.2313 5.8539 13.7715 5.82347 14.2976 5.91543C14.8237 6.00738 15.3215 6.21924 15.7525 6.53473C16.1834 6.85023 16.5358 7.26089 16.7824 7.73464C17.029 8.2084 17.1632 8.73259 17.1744 9.26657Z" fill="#FFF8A8"/>
<path d="M5.46672 3.74941C5.46762 3.36897 5.35554 2.99685 5.14483 2.68008C4.93413 2.36332 4.63427 2.11612 4.28305 1.9699C3.93183 1.82369 3.54514 1.78501 3.1719 1.85868C2.79866 1.93234 2.45576 2.11508 2.18643 2.38378C1.9171 2.65247 1.73333 2.99507 1.65877 3.36813C1.58422 3.74119 1.62217 4.12794 1.76755 4.4795C1.91293 4.83107 2.15936 5.13161 2.47562 5.34307C2.79188 5.55452 3.16362 5.6674 3.54406 5.6674C4.0528 5.6662 4.54042 5.4639 4.90058 5.1046C5.26074 4.74529 5.46432 4.25815 5.46672 3.74941ZM-0.000278951 9.45789C-0.00087977 9.52848 0.0124098 9.59842 0.0388725 9.66388C0.0653352 9.72933 0.104384 9.78894 0.153881 9.83928C0.203378 9.88962 0.262399 9.92972 0.327394 9.95729C0.392389 9.98486 0.46212 9.99941 0.532718 10H3.30715C3.25001 9.83302 3.2238 9.65696 3.22974 9.48058C3.25294 8.27817 3.68518 7.1196 4.45523 6.19584C3.94281 6.04522 3.4026 6.01479 2.87648 6.10675C2.35036 6.1987 1.85259 6.41056 1.42164 6.72605C0.990693 7.04155 0.638282 7.45221 0.391683 7.92597C0.145083 8.39972 0.0109435 8.92391 -0.000278951 9.45789Z" fill="#FFF8A8"/>
</svg>
