<svg width="21" height="14" viewBox="0 0 21 14" fill="none" xmlns="http://www.w3.org/2000/svg">
<g opacity="0.8">
<path fill-rule="evenodd" clip-rule="evenodd" d="M10.6778 3.50437L12.5441 1.63805C11.7894 1.45448 11.0042 1.35249 10.1985 1.35249C4.74229 1.35249 0.448733 6.08459 0.275359 6.27836C-0.0917863 6.6863 -0.0917863 7.29821 0.275359 7.70615C0.367145 7.81833 1.65215 9.22572 3.66125 10.5107L5.22162 8.96056C4.08959 8.28746 3.17173 7.53277 2.58021 6.99225C3.89582 5.78883 6.84318 3.48398 10.1985 3.48398C10.3617 3.48398 10.5146 3.49417 10.6778 3.50437Z" fill="#808994"/>
<path fill-rule="evenodd" clip-rule="evenodd" d="M15.179 5.02602C16.3111 5.69912 17.2289 6.464 17.8102 6.99432C16.5048 8.19774 13.5473 10.5026 10.2022 10.5026C10.039 10.5026 9.87581 10.5026 9.72283 10.4924L7.85651 12.3587C8.601 12.5321 9.38628 12.6341 10.2022 12.6341C15.6583 12.6341 19.9417 7.91219 20.1253 7.70822C20.4924 7.30028 20.4924 6.68837 20.1253 6.29063C20.0233 6.17845 18.7485 4.76086 16.7394 3.47585L15.179 5.02602Z" fill="#808994"/>
<path fill-rule="evenodd" clip-rule="evenodd" d="M3.51407 13.6838C3.71804 13.8878 3.9934 14 4.26876 14C4.53392 14 4.80928 13.8878 5.02345 13.6838L6.6858 12.0113L8.40934 10.2979L14.2021 4.49498L15.7828 2.91422L16.8843 1.81278C17.3024 1.40484 17.3024 0.721542 16.8843 0.313603C16.4661 -0.104534 15.793 -0.104534 15.3749 0.313603L11.989 3.6995L6.19627 9.49223L4.60531 11.073L3.51407 12.1744C3.09594 12.5926 3.09594 13.2657 3.51407 13.6838Z" fill="#808994"/>
</g>
</svg>
