<svg width="24" height="24" viewBox="0 0 24 24" fill="none" xmlns="http://www.w3.org/2000/svg">
<path d="M9.28757 15.5015C8.56917 16.2505 7.63541 16.7776 6.60474 17.016C5.57407 17.2545 4.49293 17.1934 3.49841 16.8407C2.50389 16.4879 1.64078 15.8594 1.01862 15.0348C0.396455 14.2102 0.0431932 13.2266 0.00371267 12.2088C-0.0357679 11.191 0.240365 10.185 0.796914 9.31812C1.35346 8.45128 2.16542 7.76275 3.12985 7.33988C4.09429 6.91702 5.16771 6.77884 6.214 6.9429C7.26028 7.10696 8.23229 7.56587 9.00672 8.26139L13.6877 5.35332C13.3072 4.47509 13.277 3.49292 13.6029 2.59467C13.9287 1.69641 14.5878 0.944993 15.4539 0.484136C16.3201 0.0232776 17.3327 -0.114649 18.2981 0.0965767C19.2635 0.307802 20.1141 0.853408 20.6871 1.62915C21.2602 2.4049 21.5156 3.3563 21.4044 4.30154C21.2933 5.24677 20.8234 6.1195 20.0847 6.75287C19.3459 7.38625 18.3901 7.73587 17.4 7.73485C16.4098 7.73383 15.4547 7.38228 14.7174 6.74738L10.0365 9.62544C10.4385 10.3658 10.6473 11.1888 10.645 12.0238C10.6417 12.7245 10.4932 13.4176 10.2081 14.0625L16.9019 17.6901C17.5317 16.9597 18.4197 16.4781 19.3961 16.3376C20.3724 16.1972 21.3684 16.4076 22.1933 16.9288C23.0181 17.4499 23.6139 18.245 23.8665 19.1619C24.1191 20.0788 24.0108 21.053 23.5622 21.8979C23.1137 22.7428 22.3565 23.399 21.4357 23.741C20.5148 24.0829 19.495 24.0864 18.5716 23.7509C17.6482 23.4155 16.8861 22.7646 16.4311 21.9228C15.9762 21.0811 15.8605 20.1077 16.1061 19.1891L9.22519 15.4865L9.28757 15.5015Z" fill="white"/>
</svg>
