<svg width="346" height="346" viewBox="0 0 346 346" fill="none" xmlns="http://www.w3.org/2000/svg">
<mask id="mask0_0_38274" style="mask-type:alpha" maskUnits="userSpaceOnUse" x="0" y="0" width="346" height="346">
<path d="M0 74C0 33.1309 33.1309 0 74 0H311C330.33 0 346 15.67 346 35V334C346 340.627 340.627 346 334 346H12C5.37259 346 0 340.627 0 334V74Z" fill="#51AA45"/>
</mask>
<g mask="url(#mask0_0_38274)">
<path d="M0 74C0 33.1309 33.1309 0 74 0H311C330.33 0 346 15.67 346 35V334C346 340.627 340.627 346 334 346H12C5.37259 346 0 340.627 0 334V74Z" fill="#3C8D57"/>
<path d="M17.2816 256.32C17.626 254.887 18.5845 253.614 19.9713 252.748C21.3581 251.881 23.0745 251.483 24.7876 251.63C26.5007 251.777 28.0885 252.459 29.2432 253.543C30.3979 254.628 31.0373 256.038 31.0373 257.5C31.0373 258.962 30.3979 260.372 29.2432 261.457C28.0885 262.541 26.5007 263.223 24.7876 263.37C23.0745 263.517 21.3581 263.119 19.9713 262.252C18.5845 261.385 17.626 260.113 17.2816 258.68H-44V256.32H17.2816ZM239.618 312.96C239.963 311.527 240.921 310.254 242.308 309.388C243.695 308.521 245.411 308.123 247.124 308.27C248.838 308.417 250.425 309.099 251.58 310.183C252.735 311.268 253.374 312.678 253.374 314.14C253.374 315.602 252.735 317.012 251.58 318.097C250.425 319.181 248.838 319.863 247.124 320.01C245.411 320.157 243.695 319.759 242.308 318.892C240.921 318.026 239.963 316.753 239.618 315.32H69.9476V312.96H239.618ZM319.938 258.68C319.593 260.113 318.635 261.385 317.248 262.252C315.861 263.119 314.145 263.517 312.432 263.37C310.719 263.223 309.131 262.541 307.976 261.457C306.821 260.372 306.182 258.962 306.182 257.5C306.182 256.038 306.821 254.628 307.976 253.543C309.131 252.459 310.719 251.777 312.432 251.63C314.145 251.483 315.861 251.881 317.248 252.748C318.635 253.614 319.593 254.887 319.938 256.32H378.44V258.68H319.938ZM319.938 277.56C319.593 278.993 318.635 280.266 317.248 281.132C315.861 281.999 314.145 282.397 312.432 282.25C310.719 282.103 309.131 281.421 307.976 280.337C306.821 279.252 306.182 277.842 306.182 276.38C306.182 274.918 306.821 273.508 307.976 272.423C309.131 271.339 310.719 270.657 312.432 270.51C314.145 270.363 315.861 270.761 317.248 271.628C318.635 272.494 319.593 273.767 319.938 275.2H378.44V277.56H319.938ZM328.553 143.04C328.898 141.607 329.856 140.334 331.243 139.468C332.63 138.601 334.346 138.203 336.059 138.35C337.772 138.497 339.36 139.179 340.515 140.263C341.67 141.348 342.309 142.758 342.309 144.22C342.309 145.682 341.67 147.092 340.515 148.177C339.36 149.261 337.772 149.943 336.059 150.09C334.346 150.237 332.63 149.839 331.243 148.972C329.856 148.106 328.898 146.833 328.553 145.4H208.769C208.425 146.833 207.466 148.106 206.079 148.972C204.693 149.839 202.976 150.237 201.263 150.09C199.55 149.943 197.962 149.261 196.808 148.177C195.653 147.092 195.014 145.682 195.014 144.22C195.014 142.758 195.653 141.348 196.808 140.263C197.962 139.179 199.55 138.497 201.263 138.35C202.976 138.203 204.693 138.601 206.079 139.468C207.466 140.334 208.425 141.607 208.769 143.04H328.553ZM-27.1858 86.4C-26.8414 84.9674 -25.8829 83.6945 -24.4961 82.8279C-23.1092 81.9613 -21.3929 81.5629 -19.6798 81.7099C-17.9667 81.8568 -16.3789 82.5387 -15.2241 83.6233C-14.0694 84.7079 -13.4301 86.1179 -13.4301 87.58C-13.4301 89.0421 -14.0694 90.4521 -15.2241 91.5367C-16.3789 92.6213 -17.9667 93.3032 -19.6798 93.4501C-21.3929 93.5971 -23.1092 93.1987 -24.4961 92.3321C-25.8829 91.4655 -26.8414 90.1926 -27.1858 88.76H-44V86.4H-27.1858ZM231.003 126.52C230.659 127.953 229.7 129.226 228.313 130.092C226.926 130.959 225.21 131.357 223.497 131.21C221.784 131.063 220.196 130.381 219.041 129.297C217.887 128.212 217.247 126.802 217.247 125.34C217.247 123.878 217.887 122.468 219.041 121.383C220.196 120.299 221.784 119.617 223.497 119.47C225.21 119.323 226.926 119.721 228.313 120.588C229.7 121.454 230.659 122.727 231.003 124.16H350.787C351.131 122.727 352.09 121.454 353.477 120.588C354.863 119.721 356.58 119.323 358.293 119.47C360.006 119.617 361.594 120.299 362.749 121.383C363.903 122.468 364.543 123.878 364.543 125.34C364.543 126.802 363.903 128.212 362.749 129.297C361.594 130.381 360.006 131.063 358.293 131.21C356.58 131.357 354.863 130.959 353.477 130.092C352.09 129.226 351.131 127.953 350.787 126.52H231.003ZM314.518 6.278C316.205 6.57042 317.704 7.38435 318.725 8.56199C319.745 9.73964 320.214 11.1971 320.041 12.6518C319.868 14.1065 319.065 15.4548 317.788 16.4354C316.511 17.4159 314.85 17.9588 313.129 17.9588C311.407 17.9588 309.746 17.4159 308.469 16.4354C307.192 15.4548 306.389 14.1065 306.216 12.6518C306.043 11.1971 306.512 9.73964 307.532 8.56199C308.553 7.38435 310.052 6.57042 311.739 6.278V-8H314.518V6.278ZM225.583 251.718C227.27 252.01 228.77 252.824 229.79 254.002C230.811 255.18 231.28 256.637 231.107 258.092C230.934 259.547 230.131 260.895 228.853 261.875C227.576 262.856 225.916 263.399 224.194 263.399C222.472 263.399 220.811 262.856 219.534 261.875C218.257 260.895 217.454 259.547 217.281 258.092C217.108 256.637 217.577 255.18 218.598 254.002C219.618 252.824 221.117 252.01 222.804 251.718V187.762C221.117 187.47 219.618 186.656 218.598 185.478C217.577 184.3 217.108 182.843 217.281 181.388C217.454 179.933 218.257 178.585 219.534 177.605C220.811 176.624 222.472 176.081 224.194 176.081C225.916 176.081 227.576 176.624 228.853 177.605C230.131 178.585 230.934 179.933 231.107 181.388C231.28 182.843 230.811 184.3 229.79 185.478C228.77 186.656 227.27 187.47 225.583 187.762V251.718ZM292.284 17.842V86.4H378.44V88.76H289.505V17.842C287.818 17.5496 286.319 16.7356 285.299 15.558C284.278 14.3804 283.809 12.9229 283.982 11.4682C284.155 10.0135 284.958 8.66517 286.235 7.68463C287.513 6.7041 289.173 6.1612 290.895 6.1612C292.617 6.1612 294.277 6.7041 295.554 7.68463C296.832 8.66517 297.635 10.0135 297.808 11.4682C297.981 12.9229 297.512 14.3804 296.491 15.558C295.471 16.7356 293.972 17.5496 292.284 17.842ZM314.518 36.722V67.52H378.44V69.88H311.739V36.722C310.052 36.4296 308.553 35.6156 307.532 34.438C306.512 33.2604 306.043 31.8029 306.216 30.3482C306.389 28.8935 307.192 27.5452 308.469 26.5646C309.746 25.5841 311.407 25.0412 313.129 25.0412C314.85 25.0412 316.511 25.5841 317.788 26.5646C319.065 27.5452 319.868 28.8935 320.041 30.3482C320.214 31.8029 319.745 33.2604 318.725 34.438C317.704 35.6156 316.205 36.4296 314.518 36.722ZM136.649 150.002V237.44H158.882V251.718C160.569 252.01 162.068 252.824 163.089 254.002C164.109 255.18 164.579 256.637 164.406 258.092C164.233 259.547 163.43 260.895 162.152 261.875C160.875 262.856 159.215 263.399 157.493 263.399C155.771 263.399 154.11 262.856 152.833 261.875C151.556 260.895 150.753 259.547 150.58 258.092C150.407 256.637 150.876 255.18 151.897 254.002C152.917 252.824 154.416 252.01 156.103 251.718V239.8H133.869V150.002C132.182 149.71 130.683 148.896 129.663 147.718C128.642 146.54 128.173 145.083 128.346 143.628C128.519 142.173 129.322 140.825 130.6 139.845C131.877 138.864 133.537 138.321 135.259 138.321C136.981 138.321 138.641 138.864 139.919 139.845C141.196 140.825 141.999 142.173 142.172 143.628C142.345 145.083 141.876 146.54 140.855 147.718C139.835 148.896 138.336 149.71 136.649 150.002ZM128.45 124.16C128.794 122.727 129.753 121.454 131.14 120.588C132.527 119.721 134.243 119.323 135.956 119.47C137.669 119.617 139.257 120.299 140.412 121.383C141.566 122.468 142.206 123.878 142.206 125.34C142.206 126.802 141.566 128.212 140.412 129.297C139.257 130.381 137.669 131.063 135.956 131.21C134.243 131.357 132.527 130.959 131.14 130.092C129.753 129.226 128.794 127.953 128.45 126.52H114.415V183.16H75.3671C75.0227 184.593 74.0642 185.866 72.6774 186.732C71.2906 187.599 69.5742 187.997 67.8611 187.85C66.148 187.703 64.5602 187.021 63.4055 185.937C62.2507 184.852 61.6114 183.442 61.6114 181.98C61.6114 180.518 62.2507 179.108 63.4055 178.023C64.5602 176.939 66.148 176.257 67.8611 176.11C69.5742 175.963 71.2906 176.361 72.6774 177.228C74.0642 178.094 75.0227 179.367 75.3671 180.8H111.636V124.16H128.45ZM119.834 277.56C119.49 278.993 118.532 280.266 117.145 281.132C115.758 281.999 114.042 282.397 112.328 282.25C110.615 282.103 109.028 281.421 107.873 280.337C106.718 279.252 106.079 277.842 106.079 276.38C106.079 274.918 106.718 273.508 107.873 272.423C109.028 271.339 110.615 270.657 112.328 270.51C114.042 270.363 115.758 270.761 117.145 271.628C118.532 272.494 119.49 273.767 119.834 275.2H200.571V187.762C198.883 187.47 197.384 186.656 196.364 185.478C195.343 184.3 194.874 182.843 195.047 181.388C195.22 179.933 196.023 178.585 197.301 177.605C198.578 176.624 200.238 176.081 201.96 176.081C203.682 176.081 205.342 176.624 206.62 177.605C207.897 178.585 208.7 179.933 208.873 181.388C209.046 182.843 208.577 184.3 207.556 185.478C206.536 186.656 205.037 187.47 203.35 187.762V277.56H119.834ZM97.6008 202.04C97.2564 203.473 96.2979 204.746 94.9111 205.612C93.5242 206.479 91.8079 206.877 90.0948 206.73C88.3817 206.583 86.7939 205.901 85.6391 204.817C84.4844 203.732 83.8451 202.322 83.8451 200.86C83.8451 199.398 84.4844 197.988 85.6391 196.903C86.7939 195.819 88.3817 195.137 90.0948 194.99C91.8079 194.843 93.5242 195.241 94.9111 196.108C96.2979 196.974 97.2564 198.247 97.6008 199.68H114.415V256.32H128.45C128.794 254.887 129.753 253.614 131.14 252.748C132.527 251.881 134.243 251.483 135.956 251.63C137.669 251.777 139.257 252.459 140.412 253.543C141.566 254.628 142.206 256.038 142.206 257.5C142.206 258.962 141.566 260.372 140.412 261.457C139.257 262.541 137.669 263.223 135.956 263.37C134.243 263.517 132.527 263.119 131.14 262.252C129.753 261.385 128.794 260.113 128.45 258.68H111.636V202.04H97.6008ZM47.714 327.238C49.401 327.53 50.9001 328.344 51.9206 329.522C52.941 330.7 53.4102 332.157 53.2372 333.612C53.0641 335.066 52.2611 336.415 50.9839 337.395C49.7067 338.376 48.0462 338.919 46.3243 338.919C44.6025 338.919 42.942 338.376 41.6648 337.395C40.3876 336.415 39.5846 335.066 39.4115 333.612C39.2384 332.157 39.7076 330.7 40.7281 329.522C41.7486 328.344 43.2477 327.53 44.9347 327.238V315.32H25.4803V350.72H22.701V312.96H47.714V327.238ZM284.086 199.68C284.43 198.247 285.389 196.974 286.776 196.108C288.162 195.241 289.879 194.843 291.592 194.99C293.305 195.137 294.893 195.819 296.047 196.903C297.202 197.988 297.841 199.398 297.841 200.86C297.841 202.322 297.202 203.732 296.047 204.817C294.893 205.901 293.305 206.583 291.592 206.73C289.879 206.877 288.162 206.479 286.776 205.612C285.389 204.746 284.43 203.473 284.086 202.04H270.051V312.96H336.752V350.72H333.973V315.32H267.272V199.68H284.086ZM319.938 164.28C319.593 165.713 318.635 166.986 317.248 167.852C315.861 168.719 314.145 169.117 312.432 168.97C310.719 168.823 309.131 168.141 307.976 167.057C306.821 165.972 306.182 164.562 306.182 163.1C306.182 161.638 306.821 160.228 307.976 159.143C309.131 158.059 310.719 157.377 312.432 157.23C314.145 157.083 315.861 157.481 317.248 158.348C318.635 159.214 319.593 160.487 319.938 161.92H336.752V213.958C338.439 214.25 339.938 215.064 340.958 216.242C341.979 217.42 342.448 218.877 342.275 220.332C342.102 221.786 341.299 223.135 340.022 224.115C338.745 225.096 337.084 225.639 335.362 225.639C333.64 225.639 331.98 225.096 330.703 224.115C329.425 223.135 328.622 221.786 328.449 220.332C328.276 218.877 328.746 217.42 329.766 216.242C330.787 215.064 332.286 214.25 333.973 213.958V164.28H319.938ZM231.003 277.56C230.659 278.993 229.7 280.266 228.313 281.132C226.926 281.999 225.21 282.397 223.497 282.25C221.784 282.103 220.196 281.421 219.041 280.337C217.887 279.252 217.247 277.842 217.247 276.38C217.247 274.918 217.887 273.508 219.041 272.423C220.196 271.339 221.784 270.657 223.497 270.51C225.21 270.363 226.926 270.761 228.313 271.628C229.7 272.494 230.659 273.767 231.003 275.2H245.038V180.8H267.272V164.28H208.769C208.425 165.713 207.466 166.986 206.079 167.852C204.693 168.719 202.976 169.117 201.263 168.97C199.55 168.823 197.962 168.141 196.808 167.057C195.653 165.972 195.014 164.562 195.014 163.1C195.014 161.638 195.653 160.228 196.808 159.143C197.962 158.059 199.55 157.377 201.263 157.23C202.976 157.083 204.693 157.481 206.079 158.348C207.466 159.214 208.425 160.487 208.769 161.92H270.051V183.16H247.817V277.56H231.003ZM350.787 29.76C351.131 28.3274 352.09 27.0545 353.477 26.1879C354.863 25.3213 356.58 24.9229 358.293 25.0699C360.006 25.2168 361.594 25.8987 362.749 26.9833C363.903 28.0679 364.543 29.4779 364.543 30.94C364.543 32.4021 363.903 33.8121 362.749 34.8967C361.594 35.9813 360.006 36.6632 358.293 36.8101C356.58 36.9571 354.863 36.5587 353.477 35.6921C352.09 34.8255 351.131 33.5526 350.787 32.12H333.973V-8H336.752V29.76H350.787ZM92.1813 112.242V164.28H30.8997C30.5554 165.713 29.5968 166.986 28.21 167.852C26.8232 168.719 25.1068 169.117 23.3937 168.97C21.6806 168.823 20.0928 168.141 18.9381 167.057C17.7834 165.972 17.1441 164.562 17.1441 163.1C17.1441 161.638 17.7834 160.228 18.9381 159.143C20.0928 158.059 21.6806 157.377 23.3937 157.23C25.1068 157.083 26.8232 157.481 28.21 158.348C29.5968 159.214 30.5554 160.487 30.8997 161.92H89.4021V112.242C87.7151 111.95 86.216 111.136 85.1955 109.958C84.175 108.78 83.7058 107.323 83.8789 105.868C84.0519 104.413 84.8549 103.065 86.1321 102.085C87.4094 101.104 89.0699 100.561 90.7917 100.561C92.5135 100.561 94.174 101.104 95.4513 102.085C96.7285 103.065 97.5315 104.413 97.7045 105.868C97.8776 107.323 97.4084 108.78 96.3879 109.958C95.3674 111.136 93.8684 111.95 92.1813 112.242ZM30.8997 32.12C30.5554 33.5526 29.5968 34.8255 28.21 35.6921C26.8232 36.5587 25.1068 36.9571 23.3937 36.8101C21.6806 36.6632 20.0928 35.9813 18.9381 34.8967C17.7834 33.8121 17.1441 32.4021 17.1441 30.94C17.1441 29.4779 17.7834 28.0679 18.9381 26.9833C20.0928 25.8987 21.6806 25.2168 23.3937 25.0699C25.1068 24.9229 26.8232 25.3213 28.21 26.1879C29.5968 27.0545 30.5554 28.3274 30.8997 29.76H67.1684V-8H69.9476V32.12H30.8997ZM114.415 36.722V69.88H69.9476V145.4H53.1334C52.789 146.833 51.8305 148.106 50.4437 148.972C49.0569 149.839 47.3405 150.237 45.6274 150.09C43.9143 149.943 42.3265 149.261 41.1718 148.177C40.0171 147.092 39.3777 145.682 39.3777 144.22C39.3777 142.758 40.0171 141.348 41.1718 140.263C42.3265 139.179 43.9143 138.497 45.6274 138.35C47.3405 138.203 49.0569 138.601 50.4437 139.468C51.8305 140.334 52.789 141.607 53.1334 143.04H67.1684V67.52H111.636V36.722C109.949 36.4296 108.45 35.6156 107.429 34.438C106.409 33.2604 105.939 31.8029 106.113 30.3482C106.286 28.8935 107.089 27.5452 108.366 26.5646C109.643 25.5841 111.304 25.0412 113.025 25.0412C114.747 25.0412 116.408 25.5841 117.685 26.5646C118.962 27.5452 119.765 28.8935 119.938 30.3482C120.111 31.8029 119.642 33.2604 118.622 34.438C117.601 35.6156 116.102 36.4296 114.415 36.722ZM97.6008 88.76C97.2564 90.1926 96.2979 91.4655 94.9111 92.3321C93.5242 93.1987 91.8079 93.5971 90.0948 93.4501C88.3817 93.3032 86.7939 92.6213 85.6391 91.5367C84.4844 90.4521 83.8451 89.0421 83.8451 87.58C83.8451 86.1179 84.4844 84.7079 85.6391 83.6233C86.7939 82.5387 88.3817 81.8568 90.0948 81.7099C91.8079 81.5629 93.5242 81.9613 94.9111 82.8279C96.2979 83.6945 97.2564 84.9674 97.6008 86.4H133.869V36.722C132.182 36.4296 130.683 35.6156 129.663 34.438C128.642 33.2604 128.173 31.8029 128.346 30.3482C128.519 28.8935 129.322 27.5452 130.6 26.5646C131.877 25.5841 133.537 25.0412 135.259 25.0412C136.981 25.0412 138.641 25.5841 139.919 26.5646C141.196 27.5452 141.999 28.8935 142.172 30.3482C142.345 31.8029 141.876 33.2604 140.855 34.438C139.835 35.6156 138.336 36.4296 136.649 36.722V88.76H97.6008ZM119.834 13.24C119.49 14.6726 118.532 15.9455 117.145 16.8121C115.758 17.6787 114.042 18.0771 112.328 17.9301C110.615 17.7832 109.028 17.1013 107.873 16.0167C106.718 14.9321 106.079 13.5221 106.079 12.06C106.079 10.5979 106.718 9.18786 107.873 8.10328C109.028 7.0187 110.615 6.33683 112.328 6.18988C114.042 6.04292 115.758 6.44135 117.145 7.30791C118.532 8.17447 119.49 9.44743 119.834 10.88H158.882V62.918C160.569 63.2104 162.068 64.0244 163.089 65.202C164.109 66.3796 164.579 67.8371 164.406 69.2918C164.233 70.7465 163.43 72.0948 162.152 73.0754C160.875 74.0559 159.215 74.5988 157.493 74.5988C155.771 74.5988 154.11 74.0559 152.833 73.0754C151.556 72.0948 150.753 70.7465 150.58 69.2918C150.407 67.8371 150.876 66.3796 151.897 65.202C152.917 64.0244 154.416 63.2104 156.103 62.918V13.24H119.834ZM261.852 331.84C262.197 330.407 263.155 329.134 264.542 328.268C265.929 327.401 267.645 327.003 269.358 327.15C271.071 327.297 272.659 327.979 273.814 329.063C274.968 330.148 275.608 331.558 275.608 333.02C275.608 334.482 274.968 335.892 273.814 336.977C272.659 338.061 271.071 338.743 269.358 338.89C267.645 339.037 265.929 338.639 264.542 337.772C263.155 336.906 262.197 335.633 261.852 334.2H92.1813V350.72H89.4021V331.84H261.852ZM292.284 168.882V180.8H314.518V220.92H292.284V294.08H358.986V350.72H356.206V296.44H289.505V218.56H311.739V183.16H289.505V168.882C287.818 168.59 286.319 167.776 285.299 166.598C284.278 165.42 283.809 163.963 283.982 162.508C284.155 161.053 284.958 159.705 286.235 158.725C287.513 157.744 289.173 157.201 290.895 157.201C292.617 157.201 294.277 157.744 295.554 158.725C296.832 159.705 297.635 161.053 297.808 162.508C297.981 163.963 297.512 165.42 296.491 166.598C295.471 167.776 293.972 168.59 292.284 168.882ZM30.8997 13.24C30.5554 14.6726 29.5968 15.9455 28.21 16.8121C26.8232 17.6787 25.1068 18.0771 23.3937 17.9301C21.6806 17.7832 20.0928 17.1013 18.9381 16.0167C17.7834 14.9321 17.1441 13.5221 17.1441 12.06C17.1441 10.5979 17.7834 9.18786 18.9381 8.10328C20.0928 7.0187 21.6806 6.33683 23.3937 6.18988C25.1068 6.04292 26.8232 6.44135 28.21 7.30791C29.5968 8.17447 30.5554 9.44743 30.8997 10.88H44.9347V-5.64H22.701V-8H47.714V13.24H30.8997ZM186.536 51C186.191 52.4326 185.233 53.7055 183.846 54.5721C182.459 55.4387 180.743 55.8371 179.03 55.6901C177.316 55.5432 175.729 54.8613 174.574 53.7767C173.419 52.6921 172.78 51.2821 172.78 49.82C172.78 48.3579 173.419 46.9479 174.574 45.8633C175.729 44.7787 177.316 44.0968 179.03 43.9499C180.743 43.8029 182.459 44.2013 183.846 45.0679C185.233 45.9345 186.191 47.2074 186.536 48.64H222.804V-8H292.284V-5.64H225.583V51H186.536ZM119.834 -5.64C119.652 -4.8807 119.295 -4.15935 118.784 -3.51715C118.274 -2.87494 117.619 -2.32446 116.858 -1.89712C116.096 -1.46979 115.243 -1.17397 114.347 -1.02656C113.451 -0.879154 112.53 -0.88304 111.636 -1.038C110.742 -1.19296 109.892 -1.49596 109.136 -1.9297C108.38 -2.36343 107.731 -2.91941 107.228 -3.56589C106.212 -4.87152 105.848 -6.46652 106.216 -8L109.093 -8C108.872 -7.46621 108.804 -6.89517 108.897 -6.33477C108.989 -5.77437 109.238 -5.24093 109.623 -4.77917C110.009 -4.3174 110.519 -3.94077 111.11 -3.68084C111.702 -3.42091 112.359 -3.28526 113.025 -3.28526C113.692 -3.28526 114.348 -3.42091 114.94 -3.68084C115.532 -3.94077 116.042 -4.3174 116.427 -4.77917C116.812 -5.24093 117.062 -5.77437 117.154 -6.33477C117.246 -6.89517 117.179 -7.46621 116.958 -8L203.35 -8V32.12H178.337V17.842C176.65 17.5496 175.151 16.7356 174.13 15.558C173.11 14.3804 172.641 12.9229 172.814 11.4682C172.987 10.0135 173.79 8.66517 175.067 7.68463C176.344 6.7041 178.005 6.1612 179.726 6.1612C181.448 6.1612 183.109 6.7041 184.386 7.68463C185.663 8.66517 186.466 10.0135 186.639 11.4682C186.812 12.9229 186.343 14.3804 185.323 15.558C184.302 16.7356 182.803 17.5496 181.116 17.842V29.76H200.571V-5.64H119.834ZM119.834 107.64C119.49 109.073 118.532 110.346 117.145 111.212C115.758 112.079 114.042 112.477 112.328 112.33C110.615 112.183 109.028 111.501 107.873 110.417C106.718 109.332 106.079 107.922 106.079 106.46C106.079 104.998 106.718 103.588 107.873 102.503C109.028 101.419 110.615 100.737 112.328 100.59C114.042 100.443 115.758 100.841 117.145 101.708C118.532 102.574 119.49 103.847 119.834 105.28H146.376L190.843 67.52H245.038V17.842C243.351 17.5496 241.852 16.7356 240.831 15.558C239.811 14.3804 239.342 12.9229 239.515 11.4682C239.688 10.0135 240.491 8.66517 241.768 7.68463C243.045 6.7041 244.706 6.1612 246.427 6.1612C248.149 6.1612 249.81 6.7041 251.087 7.68463C252.364 8.66517 253.167 10.0135 253.34 11.4682C253.513 12.9229 253.044 14.3804 252.024 15.558C251.003 16.7356 249.504 17.5496 247.817 17.842V69.88H191.997L147.529 107.64H119.834ZM158.882 213.958C160.569 214.25 162.068 215.064 163.089 216.242C164.109 217.42 164.579 218.877 164.406 220.332C164.233 221.786 163.43 223.135 162.152 224.115C160.875 225.096 159.215 225.639 157.493 225.639C155.771 225.639 154.11 225.096 152.833 224.115C151.556 223.135 150.753 221.786 150.58 220.332C150.407 218.877 150.876 217.42 151.897 216.242C152.917 215.064 154.416 214.25 156.103 213.958V123.676L200.001 86.4H267.272V17.842C265.585 17.5496 264.085 16.7356 263.065 15.558C262.044 14.3804 261.575 12.9229 261.748 11.4682C261.921 10.0135 262.724 8.66517 264.002 7.68463C265.279 6.7041 266.939 6.1612 268.661 6.1612C270.383 6.1612 272.044 6.7041 273.321 7.68463C274.598 8.66517 275.401 10.0135 275.574 11.4682C275.747 12.9229 275.278 14.3804 274.257 15.558C273.237 16.7356 271.738 17.5496 270.051 17.842V88.76H201.14L158.882 124.644V213.958ZM181.116 251.718C182.803 252.01 184.302 252.824 185.323 254.002C186.343 255.18 186.812 256.637 186.639 258.092C186.466 259.547 185.663 260.895 184.386 261.875C183.109 262.856 181.448 263.399 179.726 263.399C178.005 263.399 176.344 262.856 175.067 261.875C173.79 260.895 172.987 259.547 172.814 258.092C172.641 256.637 173.11 255.18 174.13 254.002C175.151 252.824 176.65 252.01 178.337 251.718V134.296L212.507 105.28H373.021C373.293 104.146 373.952 103.105 374.915 102.287C375.879 101.469 377.105 100.909 378.44 100.678V103.121C377.626 103.364 376.92 103.816 376.422 104.414C375.923 105.012 375.655 105.727 375.655 106.46C375.655 107.193 375.923 107.908 376.422 108.506C376.92 109.104 377.626 109.556 378.44 109.799V112.242C377.105 112.011 375.879 111.451 374.915 110.633C373.952 109.815 373.293 108.774 373.021 107.64H213.647L181.116 135.264V251.718ZM-18.9871 176.198C-17.3001 176.49 -15.801 177.304 -14.7805 178.482C-13.76 179.66 -13.2908 181.117 -13.4639 182.572C-13.6369 184.027 -14.4399 185.375 -15.7172 186.355C-16.9944 187.336 -18.6549 187.879 -20.3767 187.879C-22.0985 187.879 -23.759 187.336 -25.0363 186.355C-26.3135 185.375 -27.1165 184.027 -27.2896 182.572C-27.4626 181.117 -26.9934 179.66 -25.9729 178.482C-24.9524 177.304 -23.4534 176.49 -21.7663 176.198V172.056L44.9347 115.416V48.64H89.4021V-8H92.1813V51H47.714V116.384L-18.9871 173.024V176.198ZM25.4803 55.602V106.944L-41.2208 163.584V237.44H-4.95209C-4.60773 236.007 -3.64922 234.734 -2.26239 233.868C-0.875557 233.001 0.84079 232.603 2.5539 232.75C4.26701 232.897 5.85483 233.579 7.00954 234.663C8.16425 235.748 8.80358 237.158 8.80358 238.62C8.80358 240.082 8.16425 241.492 7.00954 242.577C5.85483 243.661 4.26701 244.343 2.5539 244.49C0.84079 244.637 -0.875557 244.239 -2.26239 243.372C-3.64922 242.506 -4.60773 241.233 -4.95209 239.8H-44V162.616L22.701 105.976V55.602C21.014 55.3096 19.5149 54.4956 18.4944 53.318C17.474 52.1404 17.0048 50.6829 17.1778 49.2282C17.3509 47.7735 18.1539 46.4252 19.4311 45.4446C20.7083 44.4641 22.3688 43.9212 24.0907 43.9212C25.8125 43.9212 27.473 44.4641 28.7502 45.4446C30.0275 46.4252 30.8304 47.7735 31.0035 49.2282C31.1766 50.6829 30.7074 52.1404 29.6869 53.318C28.6664 54.4956 27.1673 55.3096 25.4803 55.602ZM3.24658 74.482V97.5038L-44 137.624V134.296L0.467369 96.5362V74.482C-1.21967 74.1896 -2.71875 73.3756 -3.73924 72.198C-4.75973 71.0204 -5.22893 69.5629 -5.05587 68.1082C-4.88281 66.6535 -4.07982 65.3052 -2.80259 64.3246C-1.52535 63.3441 0.135147 62.8012 1.85698 62.8012C3.5788 62.8012 5.2393 63.3441 6.51653 64.3246C7.79377 65.3052 8.59676 66.6535 8.76982 68.1082C8.94288 69.5629 8.47368 71.0204 7.45319 72.198C6.4327 73.3756 4.93362 74.1896 3.24658 74.482ZM-27.1858 29.76C-26.8414 28.3274 -25.8829 27.0545 -24.4961 26.1879C-23.1092 25.3213 -21.3929 24.9229 -19.6798 25.0699C-17.9667 25.2168 -16.3789 25.8987 -15.2241 26.9833C-14.0694 28.0679 -13.4301 29.4779 -13.4301 30.94C-13.4301 32.4021 -14.0694 33.8121 -15.2241 34.8967C-16.3789 35.9813 -17.9667 36.6632 -19.6798 36.8101C-21.3929 36.9571 -23.1092 36.5587 -24.4961 35.6921C-25.8829 34.8255 -26.8414 33.5526 -27.1858 32.12H-30.9238L-44 43.2238V39.908L-32.0633 29.76H-27.1858ZM342.171 51C341.827 52.4326 340.868 53.7055 339.482 54.5721C338.095 55.4387 336.378 55.8371 334.665 55.6901C332.952 55.5432 331.364 54.8613 330.21 53.7767C329.055 52.6921 328.416 51.2821 328.416 49.82C328.416 48.3579 329.055 46.9479 330.21 45.8633C331.364 44.7787 332.952 44.0968 334.665 43.9499C336.378 43.8029 338.095 44.2013 339.482 45.0679C340.868 45.9345 341.827 47.2074 342.171 48.64H368.143L378.44 39.8962V43.2238L369.283 51H342.171ZM319.938 239.8C319.593 241.233 318.635 242.506 317.248 243.372C315.861 244.239 314.145 244.637 312.432 244.49C310.719 244.343 309.131 243.661 307.976 242.577C306.821 241.492 306.182 240.082 306.182 238.62C306.182 237.158 306.821 235.748 307.976 234.663C309.131 233.579 310.719 232.897 312.432 232.75C314.145 232.603 315.861 233.001 317.248 233.868C318.635 234.734 319.593 236.007 319.938 237.44H356.206V153.176L378.44 134.296V137.624L358.986 154.144V239.8H319.938ZM30.8997 277.56C30.5554 278.993 29.5968 280.266 28.21 281.132C26.8232 281.999 25.1068 282.397 23.3937 282.25C21.6806 282.103 20.0928 281.421 18.9381 280.337C17.7834 279.252 17.1441 277.842 17.1441 276.38C17.1441 274.918 17.7834 273.508 18.9381 272.423C20.0928 271.339 21.6806 270.657 23.3937 270.51C25.1068 270.363 26.8232 270.761 28.21 271.628C29.5968 272.494 30.5554 273.767 30.8997 275.2H44.9347V248.544L12.4041 220.92H-13.5676C-13.912 222.353 -14.8705 223.626 -16.2573 224.492C-17.6442 225.359 -19.3605 225.757 -21.0736 225.61C-22.7867 225.463 -24.3746 224.781 -25.5293 223.697C-26.684 222.612 -27.3233 221.202 -27.3233 219.74C-27.3233 218.278 -26.684 216.868 -25.5293 215.783C-24.3746 214.699 -22.7867 214.017 -21.0736 213.87C-19.3605 213.723 -17.6442 214.121 -16.2573 214.988C-14.8705 215.854 -13.912 217.127 -13.5676 218.56H13.5436L47.714 247.576V277.56H30.8997ZM239.618 294.08C239.963 292.647 240.921 291.374 242.308 290.508C243.695 289.641 245.411 289.243 247.124 289.39C248.838 289.537 250.425 290.219 251.58 291.303C252.735 292.388 253.374 293.798 253.374 295.26C253.374 296.722 252.735 298.132 251.58 299.217C250.425 300.301 248.838 300.983 247.124 301.13C245.411 301.277 243.695 300.879 242.308 300.012C240.921 299.146 239.963 297.873 239.618 296.44H89.4021V229.652L34.6517 183.16H8.66604C8.32168 184.593 7.36316 185.866 5.97633 186.732C4.5895 187.599 2.87316 187.997 1.16005 187.85C-0.553059 187.703 -2.14088 187.021 -3.29559 185.937C-4.45031 184.852 -5.08963 183.442 -5.08963 181.98C-5.08963 180.518 -4.45031 179.108 -3.29559 178.023C-2.14088 176.939 -0.553059 176.257 1.16005 176.11C2.87316 175.963 4.5895 176.361 5.97633 177.228C7.36316 178.094 8.32168 179.367 8.66604 180.8H35.7633L92.1813 228.708V294.08H239.618ZM30.8997 296.44C30.5554 297.873 29.5968 299.146 28.21 300.012C26.8232 300.879 25.1068 301.277 23.3937 301.13C21.6806 300.983 20.0928 300.301 18.9381 299.217C17.7834 298.132 17.1441 296.722 17.1441 295.26C17.1441 293.798 17.7834 292.388 18.9381 291.303C20.0928 290.219 21.6806 289.537 23.3937 289.39C25.1068 289.243 26.8232 289.641 28.21 290.508C29.5968 291.374 30.5554 292.647 30.8997 294.08H67.1684V239.104L23.5209 202.04H-13.5676C-13.912 203.473 -14.8705 204.746 -16.2573 205.612C-17.6442 206.479 -19.3605 206.877 -21.0736 206.73C-22.7867 206.583 -24.3746 205.901 -25.5293 204.817C-26.684 203.732 -27.3233 202.322 -27.3233 200.86C-27.3233 199.398 -26.684 197.988 -25.5293 196.903C-24.3746 195.819 -22.7867 195.137 -21.0736 194.99C-19.3605 194.843 -17.6442 195.241 -16.2573 196.108C-14.8705 196.974 -13.912 198.247 -13.5676 199.68H24.6604L69.9476 238.136V296.44H30.8997ZM3.24658 38.964V40.8638L-30.9238 69.88H-44V67.52H-32.0633L0.467369 39.8962V-8H3.24658V38.964ZM-41.2208 346.118C-39.8855 346.349 -38.6598 346.909 -37.6962 347.727C-36.7326 348.545 -36.0736 349.586 -35.8013 350.72H-38.6778C-38.8601 350.281 -39.1424 349.877 -39.5085 349.531C-39.8747 349.185 -40.3176 348.904 -40.8119 348.704C-41.3061 348.503 -41.8421 348.387 -42.3892 348.363C-42.9362 348.338 -43.4836 348.405 -44 348.561L-44 294.08H-18.9871V350.72H-21.7663V296.44H-41.2208V346.118ZM3.24658 276.38V350.72H0.467369V277.56H-44V275.2H3.24658V276.38ZM-20.3767 13.24H-44V10.88H-21.7663V-8H-18.9871V13.24H-20.3767ZM358.986 10.88H378.44V13.24H356.206V-8H358.986V10.88ZM314.518 333.02V350.72H311.739V334.2H292.284V350.72H289.505V331.84H314.518V333.02ZM-44 100.678C-42.991 100.507 -41.95 100.529 -40.9517 100.74C-39.9534 100.951 -39.0225 101.347 -38.2257 101.9C-37.4288 102.452 -36.7858 103.148 -36.3426 103.936C-35.8995 104.724 -35.6672 105.586 -35.6624 106.46C-35.6622 107.335 -35.8911 108.199 -36.3327 108.99C-36.7743 109.78 -37.4174 110.477 -38.2155 111.031C-39.0136 111.584 -39.9467 111.98 -40.9471 112.19C-41.9476 112.399 -42.9904 112.417 -44 112.242L-44 109.799C-43.3714 109.987 -42.6989 110.044 -42.039 109.966C-41.379 109.887 -40.7508 109.676 -40.207 109.349C-39.6633 109.022 -39.2197 108.589 -38.9136 108.086C-38.6075 107.583 -38.4478 107.026 -38.4478 106.46C-38.4478 105.894 -38.6075 105.337 -38.9136 104.834C-39.2197 104.331 -39.6633 103.898 -40.207 103.571C-40.7508 103.244 -41.379 103.033 -42.039 102.954C-42.6989 102.876 -43.3714 102.933 -44 103.121V100.678ZM67.1684 312.96H69.9476V350.72H67.1684V312.96ZM119.834 350.72H116.958C116.672 350.029 116.139 349.43 115.435 349.006C114.731 348.582 113.889 348.355 113.025 348.355C112.162 348.355 111.32 348.582 110.616 349.006C109.911 349.43 109.379 350.029 109.093 350.72H106.216C106.535 349.386 107.387 348.187 108.628 347.326C109.869 346.465 111.423 345.994 113.025 345.994C114.628 345.994 116.182 346.465 117.422 347.326C118.663 348.187 119.516 349.386 119.834 350.72ZM-35.8013 -8C-35.5785 -7.04516 -35.6362 -6.0584 -35.9694 -5.12702C-36.3026 -4.19563 -36.9009 -3.34831 -37.7115 -2.66001C-38.522 -1.97171 -39.5199 -1.46363 -40.6167 -1.18073C-41.7135 -0.89782 -42.8755 -0.848799 -44 -1.038V-3.4806C-43.2576 -3.25712 -42.4559 -3.21679 -41.6877 -3.36427C-40.9195 -3.51177 -40.2161 -3.84104 -39.6592 -4.31397C-39.1023 -4.7869 -38.7145 -5.38412 -38.5408 -6.03648C-38.3671 -6.68883 -38.4146 -7.36962 -38.6778 -8H-35.8013ZM373.021 -8H375.897C375.714 -7.56148 375.635 -7.09667 375.664 -6.63214C375.693 -6.16762 375.829 -5.71248 376.065 -5.29276C376.302 -4.87304 376.633 -4.49695 377.04 -4.18601C377.448 -3.87507 377.923 -3.63537 378.44 -3.4806V-1.038C377.546 -1.19282 376.696 -1.49573 375.94 -1.92942C375.183 -2.36312 374.535 -2.91911 374.032 -3.56563C373.529 -4.21214 373.18 -4.93652 373.007 -5.69739C372.833 -6.45825 372.838 -7.24069 373.021 -8ZM378.44 346.118V348.561C377.853 348.737 377.32 349.022 376.88 349.395C376.44 349.769 376.104 350.222 375.897 350.72H373.021C373.293 349.586 373.952 348.545 374.915 347.727C375.879 346.909 377.105 346.349 378.44 346.118ZM90.7917 110C91.3392 110 91.8813 109.908 92.387 109.731C92.8928 109.553 93.3524 109.292 93.7395 108.963C94.1266 108.634 94.4337 108.244 94.6432 107.815C94.8527 107.385 94.9605 106.925 94.9605 106.46C94.9605 105.995 94.8527 105.535 94.6432 105.105C94.4337 104.676 94.1266 104.286 93.7395 103.957C93.3524 103.628 92.8928 103.367 92.387 103.189C91.8813 103.012 91.3392 102.92 90.7917 102.92C89.6861 102.92 88.6257 103.293 87.8439 103.957C87.0621 104.621 86.6229 105.521 86.6229 106.46C86.6229 107.399 87.0621 108.299 87.8439 108.963C88.6257 109.627 89.6861 110 90.7917 110ZM90.7917 91.12C91.8974 91.12 92.9577 90.747 93.7395 90.0832C94.5213 89.4193 94.9605 88.5189 94.9605 87.58C94.9605 86.6411 94.5213 85.7407 93.7395 85.0768C92.9577 84.413 91.8974 84.04 90.7917 84.04C89.6861 84.04 88.6257 84.413 87.8439 85.0768C87.0621 85.7407 86.6229 86.6411 86.6229 87.58C86.6229 88.5189 87.0621 89.4193 87.8439 90.0832C88.6257 90.747 89.6861 91.12 90.7917 91.12ZM113.025 110C113.573 110 114.115 109.908 114.621 109.731C115.127 109.553 115.586 109.292 115.973 108.963C116.36 108.634 116.667 108.244 116.877 107.815C117.086 107.385 117.194 106.925 117.194 106.46C117.194 105.995 117.086 105.535 116.877 105.105C116.667 104.676 116.36 104.286 115.973 103.957C115.586 103.628 115.127 103.367 114.621 103.189C114.115 103.012 113.573 102.92 113.025 102.92C111.92 102.92 110.859 103.293 110.078 103.957C109.296 104.621 108.857 105.521 108.857 106.46C108.857 107.399 109.296 108.299 110.078 108.963C110.859 109.627 111.92 110 113.025 110ZM135.259 128.88C136.365 128.88 137.425 128.507 138.207 127.843C138.989 127.179 139.428 126.279 139.428 125.34C139.428 124.401 138.989 123.501 138.207 122.837C137.425 122.173 136.365 121.8 135.259 121.8C134.153 121.8 133.093 122.173 132.311 122.837C131.529 123.501 131.09 124.401 131.09 125.34C131.09 126.279 131.529 127.179 132.311 127.843C133.093 128.507 134.153 128.88 135.259 128.88ZM135.259 147.76C136.365 147.76 137.425 147.387 138.207 146.723C138.989 146.059 139.428 145.159 139.428 144.22C139.428 143.281 138.989 142.381 138.207 141.717C137.425 141.053 136.365 140.68 135.259 140.68C134.153 140.68 133.093 141.053 132.311 141.717C131.529 142.381 131.09 143.281 131.09 144.22C131.09 145.159 131.529 146.059 132.311 146.723C133.093 147.387 134.153 147.76 135.259 147.76ZM68.558 185.52C69.6637 185.52 70.724 185.147 71.5058 184.483C72.2876 183.819 72.7268 182.919 72.7268 181.98C72.7268 181.041 72.2876 180.141 71.5058 179.477C70.724 178.813 69.6637 178.44 68.558 178.44C67.4524 178.44 66.392 178.813 65.6102 179.477C64.8284 180.141 64.3892 181.041 64.3892 181.98C64.3892 182.919 64.8284 183.819 65.6102 184.483C66.392 185.147 67.4524 185.52 68.558 185.52ZM90.7917 204.4C91.8974 204.4 92.9577 204.027 93.7395 203.363C94.5213 202.699 94.9605 201.799 94.9605 200.86C94.9605 199.921 94.5213 199.021 93.7395 198.357C92.9577 197.693 91.8974 197.32 90.7917 197.32C89.6861 197.32 88.6257 197.693 87.8439 198.357C87.0621 199.021 86.6229 199.921 86.6229 200.86C86.6229 201.799 87.0621 202.699 87.8439 203.363C88.6257 204.027 89.6861 204.4 90.7917 204.4ZM135.259 261.04C136.365 261.04 137.425 260.667 138.207 260.003C138.989 259.339 139.428 258.439 139.428 257.5C139.428 256.561 138.989 255.661 138.207 254.997C137.425 254.333 136.365 253.96 135.259 253.96C134.153 253.96 133.093 254.333 132.311 254.997C131.529 255.661 131.09 256.561 131.09 257.5C131.09 258.439 131.529 259.339 132.311 260.003C133.093 260.667 134.153 261.04 135.259 261.04ZM113.025 279.92C114.131 279.92 115.191 279.547 115.973 278.883C116.755 278.219 117.194 277.319 117.194 276.38C117.194 275.441 116.755 274.541 115.973 273.877C115.191 273.213 114.131 272.84 113.025 272.84C111.92 272.84 110.859 273.213 110.078 273.877C109.296 274.541 108.857 275.441 108.857 276.38C108.857 277.319 109.296 278.219 110.078 278.883C110.859 279.547 111.92 279.92 113.025 279.92ZM157.493 261.04C158.598 261.04 159.659 260.667 160.441 260.003C161.222 259.339 161.662 258.439 161.662 257.5C161.662 256.561 161.222 255.661 160.441 254.997C159.659 254.333 158.598 253.96 157.493 253.96C156.387 253.96 155.327 254.333 154.545 254.997C153.763 255.661 153.324 256.561 153.324 257.5C153.324 258.439 153.763 259.339 154.545 260.003C155.327 260.667 156.387 261.04 157.493 261.04ZM157.493 223.28C158.598 223.28 159.659 222.907 160.441 222.243C161.222 221.579 161.662 220.679 161.662 219.74C161.662 218.801 161.222 217.901 160.441 217.237C159.659 216.573 158.598 216.2 157.493 216.2C156.387 216.2 155.327 216.573 154.545 217.237C153.763 217.901 153.324 218.801 153.324 219.74C153.324 220.679 153.763 221.579 154.545 222.243C155.327 222.907 156.387 223.28 157.493 223.28ZM179.726 261.04C180.832 261.04 181.892 260.667 182.674 260.003C183.456 259.339 183.895 258.439 183.895 257.5C183.895 256.561 183.456 255.661 182.674 254.997C181.892 254.333 180.832 253.96 179.726 253.96C178.621 253.96 177.56 254.333 176.779 254.997C175.997 255.661 175.558 256.561 175.558 257.5C175.558 258.439 175.997 259.339 176.779 260.003C177.56 260.667 178.621 261.04 179.726 261.04ZM224.194 279.92C225.299 279.92 226.36 279.547 227.142 278.883C227.923 278.219 228.363 277.319 228.363 276.38C228.363 275.441 227.923 274.541 227.142 273.877C226.36 273.213 225.299 272.84 224.194 272.84C223.088 272.84 222.028 273.213 221.246 273.877C220.464 274.541 220.025 275.441 220.025 276.38C220.025 277.319 220.464 278.219 221.246 278.883C222.028 279.547 223.088 279.92 224.194 279.92ZM224.194 261.04C225.299 261.04 226.36 260.667 227.142 260.003C227.923 259.339 228.363 258.439 228.363 257.5C228.363 256.561 227.923 255.661 227.142 254.997C226.36 254.333 225.299 253.96 224.194 253.96C223.088 253.96 222.028 254.333 221.246 254.997C220.464 255.661 220.025 256.561 220.025 257.5C220.025 258.439 220.464 259.339 221.246 260.003C222.028 260.667 223.088 261.04 224.194 261.04ZM201.96 185.52C203.066 185.52 204.126 185.147 204.908 184.483C205.69 183.819 206.129 182.919 206.129 181.98C206.129 181.041 205.69 180.141 204.908 179.477C204.126 178.813 203.066 178.44 201.96 178.44C200.854 178.44 199.794 178.813 199.012 179.477C198.231 180.141 197.791 181.041 197.791 181.98C197.791 182.919 198.231 183.819 199.012 184.483C199.794 185.147 200.854 185.52 201.96 185.52ZM224.194 185.52C225.299 185.52 226.36 185.147 227.142 184.483C227.923 183.819 228.363 182.919 228.363 181.98C228.363 181.041 227.923 180.141 227.142 179.477C226.36 178.813 225.299 178.44 224.194 178.44C223.088 178.44 222.028 178.813 221.246 179.477C220.464 180.141 220.025 181.041 220.025 181.98C220.025 182.919 220.464 183.819 221.246 184.483C222.028 185.147 223.088 185.52 224.194 185.52ZM246.427 298.8C247.533 298.8 248.594 298.427 249.375 297.763C250.157 297.099 250.596 296.199 250.596 295.26C250.596 294.321 250.157 293.421 249.375 292.757C248.594 292.093 247.533 291.72 246.427 291.72C245.322 291.72 244.262 292.093 243.48 292.757C242.698 293.421 242.259 294.321 242.259 295.26C242.259 296.199 242.698 297.099 243.48 297.763C244.262 298.427 245.322 298.8 246.427 298.8ZM246.427 317.68C247.533 317.68 248.594 317.307 249.375 316.643C250.157 315.979 250.596 315.079 250.596 314.14C250.596 313.201 250.157 312.301 249.375 311.637C248.594 310.973 247.533 310.6 246.427 310.6C245.322 310.6 244.262 310.973 243.48 311.637C242.698 312.301 242.259 313.201 242.259 314.14C242.259 315.079 242.698 315.979 243.48 316.643C244.262 317.307 245.322 317.68 246.427 317.68ZM268.661 336.56C269.767 336.56 270.827 336.187 271.609 335.523C272.391 334.859 272.83 333.959 272.83 333.02C272.83 332.081 272.391 331.181 271.609 330.517C270.827 329.853 269.767 329.48 268.661 329.48C267.556 329.48 266.495 329.853 265.713 330.517C264.932 331.181 264.492 332.081 264.492 333.02C264.492 333.959 264.932 334.859 265.713 335.523C266.495 336.187 267.556 336.56 268.661 336.56ZM290.895 166.64C292.001 166.64 293.061 166.267 293.843 165.603C294.624 164.939 295.064 164.039 295.064 163.1C295.064 162.161 294.624 161.261 293.843 160.597C293.061 159.933 292.001 159.56 290.895 159.56C289.789 159.56 288.729 159.933 287.947 160.597C287.165 161.261 286.726 162.161 286.726 163.1C286.726 164.039 287.165 164.939 287.947 165.603C288.729 166.267 289.789 166.64 290.895 166.64ZM290.895 204.4C292.001 204.4 293.061 204.027 293.843 203.363C294.624 202.699 295.064 201.799 295.064 200.86C295.064 199.921 294.624 199.021 293.843 198.357C293.061 197.693 292.001 197.32 290.895 197.32C289.789 197.32 288.729 197.693 287.947 198.357C287.165 199.021 286.726 199.921 286.726 200.86C286.726 201.799 287.165 202.699 287.947 203.363C288.729 204.027 289.789 204.4 290.895 204.4ZM313.129 166.64C314.234 166.64 315.295 166.267 316.076 165.603C316.858 164.939 317.297 164.039 317.297 163.1C317.297 162.161 316.858 161.261 316.076 160.597C315.295 159.933 314.234 159.56 313.129 159.56C312.023 159.56 310.963 159.933 310.181 160.597C309.399 161.261 308.96 162.161 308.96 163.1C308.96 164.039 309.399 164.939 310.181 165.603C310.963 166.267 312.023 166.64 313.129 166.64ZM335.362 147.76C336.468 147.76 337.528 147.387 338.31 146.723C339.092 146.059 339.531 145.159 339.531 144.22C339.531 143.281 339.092 142.381 338.31 141.717C337.528 141.053 336.468 140.68 335.362 140.68C334.257 140.68 333.196 141.053 332.414 141.717C331.633 142.381 331.193 143.281 331.193 144.22C331.193 145.159 331.633 146.059 332.414 146.723C333.196 147.387 334.257 147.76 335.362 147.76ZM201.96 147.76C203.066 147.76 204.126 147.387 204.908 146.723C205.69 146.059 206.129 145.159 206.129 144.22C206.129 143.281 205.69 142.381 204.908 141.717C204.126 141.053 203.066 140.68 201.96 140.68C200.854 140.68 199.794 141.053 199.012 141.717C198.231 142.381 197.791 143.281 197.791 144.22C197.791 145.159 198.231 146.059 199.012 146.723C199.794 147.387 200.854 147.76 201.96 147.76ZM201.96 166.64C203.066 166.64 204.126 166.267 204.908 165.603C205.69 164.939 206.129 164.039 206.129 163.1C206.129 162.161 205.69 161.261 204.908 160.597C204.126 159.933 203.066 159.56 201.96 159.56C200.854 159.56 199.794 159.933 199.012 160.597C198.231 161.261 197.791 162.161 197.791 163.1C197.791 164.039 198.231 164.939 199.012 165.603C199.794 166.267 200.854 166.64 201.96 166.64ZM224.194 128.88C225.299 128.88 226.36 128.507 227.142 127.843C227.923 127.179 228.363 126.279 228.363 125.34C228.363 124.401 227.923 123.501 227.142 122.837C226.36 122.173 225.299 121.8 224.194 121.8C223.088 121.8 222.028 122.173 221.246 122.837C220.464 123.501 220.025 124.401 220.025 125.34C220.025 126.279 220.464 127.179 221.246 127.843C222.028 128.507 223.088 128.88 224.194 128.88ZM357.596 128.88C358.702 128.88 359.762 128.507 360.544 127.843C361.326 127.179 361.765 126.279 361.765 125.34C361.765 124.401 361.326 123.501 360.544 122.837C359.762 122.173 358.702 121.8 357.596 121.8C356.49 121.8 355.43 122.173 354.648 122.837C353.866 123.501 353.427 124.401 353.427 125.34C353.427 126.279 353.866 127.179 354.648 127.843C355.43 128.507 356.49 128.88 357.596 128.88ZM335.362 53.36C336.468 53.36 337.528 52.987 338.31 52.3232C339.092 51.6593 339.531 50.7589 339.531 49.82C339.531 48.8811 339.092 47.9807 338.31 47.3168C337.528 46.653 336.468 46.28 335.362 46.28C334.257 46.28 333.196 46.653 332.414 47.3168C331.633 47.9807 331.193 48.8811 331.193 49.82C331.193 50.7589 331.633 51.6593 332.414 52.3232C333.196 52.987 334.257 53.36 335.362 53.36ZM357.596 34.48C358.702 34.48 359.762 34.107 360.544 33.4432C361.326 32.7793 361.765 31.8789 361.765 30.94C361.765 30.0011 361.326 29.1007 360.544 28.4368C359.762 27.773 358.702 27.4 357.596 27.4C356.49 27.4 355.43 27.773 354.648 28.4368C353.866 29.1007 353.427 30.0011 353.427 30.94C353.427 31.8789 353.866 32.7793 354.648 33.4432C355.43 34.107 356.49 34.48 357.596 34.48ZM313.129 34.48C314.234 34.48 315.295 34.107 316.076 33.4432C316.858 32.7793 317.297 31.8789 317.297 30.94C317.297 30.0011 316.858 29.1007 316.076 28.4368C315.295 27.773 314.234 27.4 313.129 27.4C312.023 27.4 310.963 27.773 310.181 28.4368C309.399 29.1007 308.96 30.0011 308.96 30.94C308.96 31.8789 309.399 32.7793 310.181 33.4432C310.963 34.107 312.023 34.48 313.129 34.48ZM313.129 15.6C314.234 15.6 315.295 15.227 316.076 14.5632C316.858 13.8993 317.297 12.9989 317.297 12.06C317.297 11.1211 316.858 10.2207 316.076 9.55684C315.295 8.89296 314.234 8.52 313.129 8.52C312.023 8.52 310.963 8.89296 310.181 9.55684C309.399 10.2207 308.96 11.1211 308.96 12.06C308.96 12.9989 309.399 13.8993 310.181 14.5632C310.963 15.227 312.023 15.6 313.129 15.6ZM290.895 15.6C292.001 15.6 293.061 15.227 293.843 14.5632C294.624 13.8993 295.064 12.9989 295.064 12.06C295.064 11.1211 294.624 10.2207 293.843 9.55684C293.061 8.89296 292.001 8.52 290.895 8.52C289.789 8.52 288.729 8.89296 287.947 9.55684C287.165 10.2207 286.726 11.1211 286.726 12.06C286.726 12.9989 287.165 13.8993 287.947 14.5632C288.729 15.227 289.789 15.6 290.895 15.6ZM268.661 15.6C269.767 15.6 270.827 15.227 271.609 14.5632C272.391 13.8993 272.83 12.9989 272.83 12.06C272.83 11.1211 272.391 10.2207 271.609 9.55684C270.827 8.89296 269.767 8.52 268.661 8.52C267.556 8.52 266.495 8.89296 265.713 9.55684C264.932 10.2207 264.492 11.1211 264.492 12.06C264.492 12.9989 264.932 13.8993 265.713 14.5632C266.495 15.227 267.556 15.6 268.661 15.6ZM246.427 15.6C247.533 15.6 248.594 15.227 249.375 14.5632C250.157 13.8993 250.596 12.9989 250.596 12.06C250.596 11.1211 250.157 10.2207 249.375 9.55684C248.594 8.89296 247.533 8.52 246.427 8.52C245.322 8.52 244.262 8.89296 243.48 9.55684C242.698 10.2207 242.259 11.1211 242.259 12.06C242.259 12.9989 242.698 13.8993 243.48 14.5632C244.262 15.227 245.322 15.6 246.427 15.6ZM24.0907 34.48C25.1963 34.48 26.2567 34.107 27.0385 33.4432C27.8203 32.7793 28.2595 31.8789 28.2595 30.94C28.2595 30.0011 27.8203 29.1007 27.0385 28.4368C26.2567 27.773 25.1963 27.4 24.0907 27.4C22.985 27.4 21.9247 27.773 21.1429 28.4368C20.3611 29.1007 19.9218 30.0011 19.9218 30.94C19.9218 31.8789 20.3611 32.7793 21.1429 33.4432C21.9247 34.107 22.985 34.48 24.0907 34.48ZM-20.3767 34.48C-19.2711 34.48 -18.2107 34.107 -17.4289 33.4432C-16.6471 32.7793 -16.2079 31.8789 -16.2079 30.94C-16.2079 30.0011 -16.6471 29.1007 -17.4289 28.4368C-18.2107 27.773 -19.2711 27.4 -20.3767 27.4C-21.4823 27.4 -22.5427 27.773 -23.3245 28.4368C-24.1063 29.1007 -24.5455 30.0011 -24.5455 30.94C-24.5455 31.8789 -24.1063 32.7793 -23.3245 33.4432C-22.5427 34.107 -21.4823 34.48 -20.3767 34.48ZM24.0907 53.36C25.1963 53.36 26.2567 52.987 27.0385 52.3232C27.8203 51.6593 28.2595 50.7589 28.2595 49.82C28.2595 48.8811 27.8203 47.9807 27.0385 47.3168C26.2567 46.653 25.1963 46.28 24.0907 46.28C22.985 46.28 21.9247 46.653 21.1429 47.3168C20.3611 47.9807 19.9218 48.8811 19.9218 49.82C19.9218 50.7589 20.3611 51.6593 21.1429 52.3232C21.9247 52.987 22.985 53.36 24.0907 53.36ZM1.85698 72.24C2.96261 72.24 4.02296 71.867 4.80477 71.2032C5.58657 70.5393 6.02579 69.6389 6.02579 68.7C6.02579 67.7611 5.58657 66.8607 4.80477 66.1968C4.02296 65.533 2.96261 65.16 1.85698 65.16C0.751335 65.16 -0.309021 65.533 -1.09082 66.1968C-1.87263 66.8607 -2.31184 67.7611 -2.31184 68.7C-2.31184 69.6389 -1.87263 70.5393 -1.09082 71.2032C-0.309021 71.867 0.751335 72.24 1.85698 72.24ZM24.0907 15.6C25.1963 15.6 26.2567 15.227 27.0385 14.5632C27.8203 13.8993 28.2595 12.9989 28.2595 12.06C28.2595 11.1211 27.8203 10.2207 27.0385 9.55684C26.2567 8.89296 25.1963 8.52 24.0907 8.52C22.985 8.52 21.9247 8.89296 21.1429 9.55684C20.3611 10.2207 19.9218 11.1211 19.9218 12.06C19.9218 12.9989 20.3611 13.8993 21.1429 14.5632C21.9247 15.227 22.985 15.6 24.0907 15.6ZM24.0907 298.8C25.1963 298.8 26.2567 298.427 27.0385 297.763C27.8203 297.099 28.2595 296.199 28.2595 295.26C28.2595 294.321 27.8203 293.421 27.0385 292.757C26.2567 292.093 25.1963 291.72 24.0907 291.72C22.985 291.72 21.9247 292.093 21.1429 292.757C20.3611 293.421 19.9218 294.321 19.9218 295.26C19.9218 296.199 20.3611 297.099 21.1429 297.763C21.9247 298.427 22.985 298.8 24.0907 298.8ZM46.3243 336.56C47.43 336.56 48.4903 336.187 49.2721 335.523C50.0539 334.859 50.4932 333.959 50.4932 333.02C50.4932 332.081 50.0539 331.181 49.2721 330.517C48.4903 329.853 47.43 329.48 46.3243 329.48C45.2187 329.48 44.1584 329.853 43.3765 330.517C42.5947 331.181 42.1555 332.081 42.1555 333.02C42.1555 333.959 42.5947 334.859 43.3765 335.523C44.1584 336.187 45.2187 336.56 46.3243 336.56ZM24.0907 261.04C25.1963 261.04 26.2567 260.667 27.0385 260.003C27.8203 259.339 28.2595 258.439 28.2595 257.5C28.2595 256.561 27.8203 255.661 27.0385 254.997C26.2567 254.333 25.1963 253.96 24.0907 253.96C22.985 253.96 21.9247 254.333 21.1429 254.997C20.3611 255.661 19.9218 256.561 19.9218 257.5C19.9218 258.439 20.3611 259.339 21.1429 260.003C21.9247 260.667 22.985 261.04 24.0907 261.04ZM24.0907 279.92C25.1963 279.92 26.2567 279.547 27.0385 278.883C27.8203 278.219 28.2595 277.319 28.2595 276.38C28.2595 275.441 27.8203 274.541 27.0385 273.877C26.2567 273.213 25.1963 272.84 24.0907 272.84C22.985 272.84 21.9247 273.213 21.1429 273.877C20.3611 274.541 19.9218 275.441 19.9218 276.38C19.9218 277.319 20.3611 278.219 21.1429 278.883C21.9247 279.547 22.985 279.92 24.0907 279.92ZM1.85698 242.16C2.96261 242.16 4.02296 241.787 4.80477 241.123C5.58657 240.459 6.02579 239.559 6.02579 238.62C6.02579 237.681 5.58657 236.781 4.80477 236.117C4.02296 235.453 2.96261 235.08 1.85698 235.08C0.751335 235.08 -0.309021 235.453 -1.09082 236.117C-1.87263 236.781 -2.31184 237.681 -2.31184 238.62C-2.31184 239.559 -1.87263 240.459 -1.09082 241.123C-0.309021 241.787 0.751335 242.16 1.85698 242.16ZM113.025 34.48C114.131 34.48 115.191 34.107 115.973 33.4432C116.755 32.7793 117.194 31.8789 117.194 30.94C117.194 30.0011 116.755 29.1007 115.973 28.4368C115.191 27.773 114.131 27.4 113.025 27.4C111.92 27.4 110.859 27.773 110.078 28.4368C109.296 29.1007 108.857 30.0011 108.857 30.94C108.857 31.8789 109.296 32.7793 110.078 33.4432C110.859 34.107 111.92 34.48 113.025 34.48ZM135.259 34.48C136.365 34.48 137.425 34.107 138.207 33.4432C138.989 32.7793 139.428 31.8789 139.428 30.94C139.428 30.0011 138.989 29.1007 138.207 28.4368C137.425 27.773 136.365 27.4 135.259 27.4C134.153 27.4 133.093 27.773 132.311 28.4368C131.529 29.1007 131.09 30.0011 131.09 30.94C131.09 31.8789 131.529 32.7793 132.311 33.4432C133.093 34.107 134.153 34.48 135.259 34.48ZM113.025 15.6C114.131 15.6 115.191 15.227 115.973 14.5632C116.755 13.8993 117.194 12.9989 117.194 12.06C117.194 11.1211 116.755 10.2207 115.973 9.55684C115.191 8.89296 114.131 8.52 113.025 8.52C111.92 8.52 110.859 8.89296 110.078 9.55684C109.296 10.2207 108.857 11.1211 108.857 12.06C108.857 12.9989 109.296 13.8993 110.078 14.5632C110.859 15.227 111.92 15.6 113.025 15.6ZM157.493 72.24C158.598 72.24 159.659 71.867 160.441 71.2032C161.222 70.5393 161.662 69.6389 161.662 68.7C161.662 67.7611 161.222 66.8607 160.441 66.1968C159.659 65.533 158.598 65.16 157.493 65.16C156.387 65.16 155.327 65.533 154.545 66.1968C153.763 66.8607 153.324 67.7611 153.324 68.7C153.324 69.6389 153.763 70.5393 154.545 71.2032C155.327 71.867 156.387 72.24 157.493 72.24ZM179.726 53.36C180.832 53.36 181.892 52.987 182.674 52.3232C183.456 51.6593 183.895 50.7589 183.895 49.82C183.895 48.8811 183.456 47.9807 182.674 47.3168C181.892 46.653 180.832 46.28 179.726 46.28C178.621 46.28 177.56 46.653 176.779 47.3168C175.997 47.9807 175.558 48.8811 175.558 49.82C175.558 50.7589 175.997 51.6593 176.779 52.3232C177.56 52.987 178.621 53.36 179.726 53.36ZM179.726 15.6C180.832 15.6 181.892 15.227 182.674 14.5632C183.456 13.8993 183.895 12.9989 183.895 12.06C183.895 11.1211 183.456 10.2207 182.674 9.55684C181.892 8.89296 180.832 8.52 179.726 8.52C178.621 8.52 177.56 8.89296 176.779 9.55684C175.997 10.2207 175.558 11.1211 175.558 12.06C175.558 12.9989 175.997 13.8993 176.779 14.5632C177.56 15.227 178.621 15.6 179.726 15.6ZM335.362 223.28C336.468 223.28 337.528 222.907 338.31 222.243C339.092 221.579 339.531 220.679 339.531 219.74C339.531 218.801 339.092 217.901 338.31 217.237C337.528 216.573 336.468 216.2 335.362 216.2C334.257 216.2 333.196 216.573 332.414 217.237C331.633 217.901 331.193 218.801 331.193 219.74C331.193 220.679 331.633 221.579 332.414 222.243C333.196 222.907 334.257 223.28 335.362 223.28ZM313.129 242.16C314.234 242.16 315.295 241.787 316.076 241.123C316.858 240.459 317.297 239.559 317.297 238.62C317.297 237.681 316.858 236.781 316.076 236.117C315.295 235.453 314.234 235.08 313.129 235.08C312.023 235.08 310.963 235.453 310.181 236.117C309.399 236.781 308.96 237.681 308.96 238.62C308.96 239.559 309.399 240.459 310.181 241.123C310.963 241.787 312.023 242.16 313.129 242.16ZM313.129 261.04C314.234 261.04 315.295 260.667 316.076 260.003C316.858 259.339 317.297 258.439 317.297 257.5C317.297 256.561 316.858 255.661 316.076 254.997C315.295 254.333 314.234 253.96 313.129 253.96C312.023 253.96 310.963 254.333 310.181 254.997C309.399 255.661 308.96 256.561 308.96 257.5C308.96 258.439 309.399 259.339 310.181 260.003C310.963 260.667 312.023 261.04 313.129 261.04ZM313.129 279.92C314.234 279.92 315.295 279.547 316.076 278.883C316.858 278.219 317.297 277.319 317.297 276.38C317.297 275.441 316.858 274.541 316.076 273.877C315.295 273.213 314.234 272.84 313.129 272.84C312.023 272.84 310.963 273.213 310.181 273.877C309.399 274.541 308.96 275.441 308.96 276.38C308.96 277.319 309.399 278.219 310.181 278.883C310.963 279.547 312.023 279.92 313.129 279.92ZM-20.3767 204.4C-19.2711 204.4 -18.2107 204.027 -17.4289 203.363C-16.6471 202.699 -16.2079 201.799 -16.2079 200.86C-16.2079 199.921 -16.6471 199.021 -17.4289 198.357C-18.2107 197.693 -19.2711 197.32 -20.3767 197.32C-21.4823 197.32 -22.5427 197.693 -23.3245 198.357C-24.1063 199.021 -24.5455 199.921 -24.5455 200.86C-24.5455 201.799 -24.1063 202.699 -23.3245 203.363C-22.5427 204.027 -21.4823 204.4 -20.3767 204.4ZM-20.3767 223.28C-19.2711 223.28 -18.2107 222.907 -17.4289 222.243C-16.6471 221.579 -16.2079 220.679 -16.2079 219.74C-16.2079 218.801 -16.6471 217.901 -17.4289 217.237C-18.2107 216.573 -19.2711 216.2 -20.3767 216.2C-21.4823 216.2 -22.5427 216.573 -23.3245 217.237C-24.1063 217.901 -24.5455 218.801 -24.5455 219.74C-24.5455 220.679 -24.1063 221.579 -23.3245 222.243C-22.5427 222.907 -21.4823 223.28 -20.3767 223.28ZM-20.3767 185.52C-19.2711 185.52 -18.2107 185.147 -17.4289 184.483C-16.6471 183.819 -16.2079 182.919 -16.2079 181.98C-16.2079 181.041 -16.6471 180.141 -17.4289 179.477C-18.2107 178.813 -19.2711 178.44 -20.3767 178.44C-21.4823 178.44 -22.5427 178.813 -23.3245 179.477C-24.1063 180.141 -24.5455 181.041 -24.5455 181.98C-24.5455 182.919 -24.1063 183.819 -23.3245 184.483C-22.5427 185.147 -21.4823 185.52 -20.3767 185.52ZM1.85698 185.52C2.96261 185.52 4.02296 185.147 4.80477 184.483C5.58657 183.819 6.02579 182.919 6.02579 181.98C6.02579 181.041 5.58657 180.141 4.80477 179.477C4.02296 178.813 2.96261 178.44 1.85698 178.44C0.751335 178.44 -0.309021 178.813 -1.09082 179.477C-1.87263 180.141 -2.31184 181.041 -2.31184 181.98C-2.31184 182.919 -1.87263 183.819 -1.09082 184.483C-0.309021 185.147 0.751335 185.52 1.85698 185.52ZM-20.3767 91.12C-19.2711 91.12 -18.2107 90.747 -17.4289 90.0832C-16.6471 89.4193 -16.2079 88.5189 -16.2079 87.58C-16.2079 86.6411 -16.6471 85.7407 -17.4289 85.0768C-18.2107 84.413 -19.2711 84.04 -20.3767 84.04C-21.4823 84.04 -22.5427 84.413 -23.3245 85.0768C-24.1063 85.7407 -24.5455 86.6411 -24.5455 87.58C-24.5455 88.5189 -24.1063 89.4193 -23.3245 90.0832C-22.5427 90.747 -21.4823 91.12 -20.3767 91.12ZM24.0907 166.64C25.1963 166.64 26.2567 166.267 27.0385 165.603C27.8203 164.939 28.2595 164.039 28.2595 163.1C28.2595 162.161 27.8203 161.261 27.0385 160.597C26.2567 159.933 25.1963 159.56 24.0907 159.56C22.985 159.56 21.9247 159.933 21.1429 160.597C20.3611 161.261 19.9218 162.161 19.9218 163.1C19.9218 164.039 20.3611 164.939 21.1429 165.603C21.9247 166.267 22.985 166.64 24.0907 166.64ZM46.3243 147.76C47.43 147.76 48.4903 147.387 49.2721 146.723C50.0539 146.059 50.4932 145.159 50.4932 144.22C50.4932 143.281 50.0539 142.381 49.2721 141.717C48.4903 141.053 47.43 140.68 46.3243 140.68C45.2187 140.68 44.1584 141.053 43.3765 141.717C42.5947 142.381 42.1555 143.281 42.1555 144.22C42.1555 145.159 42.5947 146.059 43.3765 146.723C44.1584 147.387 45.2187 147.76 46.3243 147.76Z" fill="#43C269" fill-opacity="0.4"/>
<path d="M91.1719 26V14.5469H96.0391C97.263 14.5469 98.151 14.651 98.7031 14.8594C99.2604 15.0625 99.7057 15.4271 100.039 15.9531C100.372 16.4792 100.539 17.0807 100.539 17.7578C100.539 18.6172 100.286 19.3281 99.7812 19.8906C99.276 20.4479 98.5208 20.7995 97.5156 20.9453C98.0156 21.237 98.4271 21.5573 98.75 21.9062C99.0781 22.2552 99.5182 22.875 100.07 23.7656L101.469 26H98.7031L97.0312 23.5078C96.4375 22.6172 96.0312 22.0573 95.8125 21.8281C95.5938 21.5938 95.362 21.4349 95.1172 21.3516C94.8724 21.263 94.4844 21.2188 93.9531 21.2188H93.4844V26H91.1719ZM93.4844 19.3906H95.1953C96.3047 19.3906 96.9974 19.3438 97.2734 19.25C97.5495 19.1562 97.7656 18.9948 97.9219 18.7656C98.0781 18.5365 98.1562 18.25 98.1562 17.9062C98.1562 17.5208 98.0521 17.2109 97.8438 16.9766C97.6406 16.737 97.3516 16.5859 96.9766 16.5234C96.7891 16.4974 96.2266 16.4844 95.2891 16.4844H93.4844V19.3906ZM107.516 23.3594L109.703 23.7266C109.422 24.5286 108.977 25.1406 108.367 25.5625C107.763 25.9792 107.005 26.1875 106.094 26.1875C104.651 26.1875 103.583 25.7161 102.891 24.7734C102.344 24.0182 102.07 23.0651 102.07 21.9141C102.07 20.5391 102.43 19.4635 103.148 18.6875C103.867 17.9062 104.776 17.5156 105.875 17.5156C107.109 17.5156 108.083 17.9245 108.797 18.7422C109.51 19.5547 109.852 20.8021 109.82 22.4844H104.32C104.336 23.1354 104.513 23.6432 104.852 24.0078C105.19 24.3672 105.612 24.5469 106.117 24.5469C106.461 24.5469 106.75 24.4531 106.984 24.2656C107.219 24.0781 107.396 23.776 107.516 23.3594ZM107.641 21.1406C107.625 20.5052 107.461 20.0234 107.148 19.6953C106.836 19.362 106.456 19.1953 106.008 19.1953C105.529 19.1953 105.133 19.3698 104.82 19.7188C104.508 20.0677 104.354 20.5417 104.359 21.1406H107.641ZM118.852 20.1562L116.688 20.5469C116.615 20.1146 116.448 19.7891 116.188 19.5703C115.932 19.3516 115.599 19.2422 115.188 19.2422C114.641 19.2422 114.203 19.4323 113.875 19.8125C113.552 20.1875 113.391 20.8177 113.391 21.7031C113.391 22.6875 113.555 23.3828 113.883 23.7891C114.216 24.1953 114.661 24.3984 115.219 24.3984C115.635 24.3984 115.977 24.2812 116.242 24.0469C116.508 23.8073 116.695 23.3984 116.805 22.8203L118.961 23.1875C118.737 24.1771 118.307 24.9245 117.672 25.4297C117.036 25.9349 116.185 26.1875 115.117 26.1875C113.904 26.1875 112.935 25.8047 112.211 25.0391C111.492 24.2734 111.133 23.2135 111.133 21.8594C111.133 20.4896 111.495 19.4245 112.219 18.6641C112.943 17.8984 113.922 17.5156 115.156 17.5156C116.167 17.5156 116.969 17.7344 117.562 18.1719C118.161 18.6042 118.591 19.2656 118.852 20.1562ZM120.016 21.7344C120.016 21.0052 120.195 20.2995 120.555 19.6172C120.914 18.9349 121.422 18.4141 122.078 18.0547C122.74 17.6953 123.477 17.5156 124.289 17.5156C125.544 17.5156 126.573 17.9245 127.375 18.7422C128.177 19.5547 128.578 20.5833 128.578 21.8281C128.578 23.0833 128.172 24.125 127.359 24.9531C126.552 25.776 125.534 26.1875 124.305 26.1875C123.544 26.1875 122.818 26.0156 122.125 25.6719C121.438 25.3281 120.914 24.8255 120.555 24.1641C120.195 23.4974 120.016 22.6875 120.016 21.7344ZM122.266 21.8516C122.266 22.6745 122.461 23.3047 122.852 23.7422C123.242 24.1797 123.724 24.3984 124.297 24.3984C124.87 24.3984 125.349 24.1797 125.734 23.7422C126.125 23.3047 126.32 22.6693 126.32 21.8359C126.32 21.0234 126.125 20.3984 125.734 19.9609C125.349 19.5234 124.87 19.3047 124.297 19.3047C123.724 19.3047 123.242 19.5234 122.852 19.9609C122.461 20.3984 122.266 21.0286 122.266 21.8516ZM130.141 17.7031H132.164V18.8359C132.888 17.9557 133.75 17.5156 134.75 17.5156C135.281 17.5156 135.742 17.625 136.133 17.8438C136.523 18.0625 136.844 18.3932 137.094 18.8359C137.458 18.3932 137.852 18.0625 138.273 17.8438C138.695 17.625 139.146 17.5156 139.625 17.5156C140.234 17.5156 140.75 17.6406 141.172 17.8906C141.594 18.1354 141.909 18.4974 142.117 18.9766C142.268 19.3307 142.344 19.9036 142.344 20.6953V26H140.148V21.2578C140.148 20.4349 140.073 19.9036 139.922 19.6641C139.719 19.3516 139.406 19.1953 138.984 19.1953C138.677 19.1953 138.388 19.2891 138.117 19.4766C137.846 19.6641 137.651 19.9401 137.531 20.3047C137.411 20.6641 137.352 21.2344 137.352 22.0156V26H135.156V21.4531C135.156 20.6458 135.117 20.125 135.039 19.8906C134.961 19.6562 134.839 19.4818 134.672 19.3672C134.51 19.2526 134.289 19.1953 134.008 19.1953C133.669 19.1953 133.365 19.2865 133.094 19.4688C132.823 19.651 132.628 19.9141 132.508 20.2578C132.393 20.6016 132.336 21.1719 132.336 21.9688V26H130.141V17.7031ZM144.375 17.7031H146.398V18.8359C147.122 17.9557 147.984 17.5156 148.984 17.5156C149.516 17.5156 149.977 17.625 150.367 17.8438C150.758 18.0625 151.078 18.3932 151.328 18.8359C151.693 18.3932 152.086 18.0625 152.508 17.8438C152.93 17.625 153.38 17.5156 153.859 17.5156C154.469 17.5156 154.984 17.6406 155.406 17.8906C155.828 18.1354 156.143 18.4974 156.352 18.9766C156.503 19.3307 156.578 19.9036 156.578 20.6953V26H154.383V21.2578C154.383 20.4349 154.307 19.9036 154.156 19.6641C153.953 19.3516 153.641 19.1953 153.219 19.1953C152.911 19.1953 152.622 19.2891 152.352 19.4766C152.081 19.6641 151.885 19.9401 151.766 20.3047C151.646 20.6641 151.586 21.2344 151.586 22.0156V26H149.391V21.4531C149.391 20.6458 149.352 20.125 149.273 19.8906C149.195 19.6562 149.073 19.4818 148.906 19.3672C148.745 19.2526 148.523 19.1953 148.242 19.1953C147.904 19.1953 147.599 19.2865 147.328 19.4688C147.057 19.651 146.862 19.9141 146.742 20.2578C146.628 20.6016 146.57 21.1719 146.57 21.9688V26H144.375V17.7031ZM163.578 23.3594L165.766 23.7266C165.484 24.5286 165.039 25.1406 164.43 25.5625C163.826 25.9792 163.068 26.1875 162.156 26.1875C160.714 26.1875 159.646 25.7161 158.953 24.7734C158.406 24.0182 158.133 23.0651 158.133 21.9141C158.133 20.5391 158.492 19.4635 159.211 18.6875C159.93 17.9062 160.839 17.5156 161.938 17.5156C163.172 17.5156 164.146 17.9245 164.859 18.7422C165.573 19.5547 165.914 20.8021 165.883 22.4844H160.383C160.398 23.1354 160.576 23.6432 160.914 24.0078C161.253 24.3672 161.674 24.5469 162.18 24.5469C162.523 24.5469 162.812 24.4531 163.047 24.2656C163.281 24.0781 163.458 23.776 163.578 23.3594ZM163.703 21.1406C163.688 20.5052 163.523 20.0234 163.211 19.6953C162.898 19.362 162.518 19.1953 162.07 19.1953C161.591 19.1953 161.195 19.3698 160.883 19.7188C160.57 20.0677 160.417 20.5417 160.422 21.1406H163.703ZM175.227 26H173.031V21.7656C173.031 20.8698 172.984 20.2917 172.891 20.0312C172.797 19.7656 172.643 19.5599 172.43 19.4141C172.221 19.2682 171.969 19.1953 171.672 19.1953C171.292 19.1953 170.951 19.2995 170.648 19.5078C170.346 19.7161 170.138 19.9922 170.023 20.3359C169.914 20.6797 169.859 21.3151 169.859 22.2422V26H167.664V17.7031H169.703V18.9219C170.427 17.9844 171.339 17.5156 172.438 17.5156C172.922 17.5156 173.365 17.6042 173.766 17.7812C174.167 17.9531 174.469 18.1745 174.672 18.4453C174.88 18.7161 175.023 19.0234 175.102 19.3672C175.185 19.7109 175.227 20.2031 175.227 20.8438V26ZM185.07 26H183.031V24.7812C182.693 25.2552 182.292 25.6094 181.828 25.8438C181.37 26.0729 180.906 26.1875 180.438 26.1875C179.484 26.1875 178.667 25.8047 177.984 25.0391C177.307 24.2682 176.969 23.1953 176.969 21.8203C176.969 20.4141 177.299 19.3464 177.961 18.6172C178.622 17.8828 179.458 17.5156 180.469 17.5156C181.396 17.5156 182.198 17.901 182.875 18.6719V14.5469H185.07V26ZM179.211 21.6719C179.211 22.5573 179.333 23.1979 179.578 23.5938C179.932 24.1667 180.427 24.4531 181.062 24.4531C181.568 24.4531 181.997 24.2396 182.352 23.8125C182.706 23.3802 182.883 22.737 182.883 21.8828C182.883 20.9297 182.711 20.2448 182.367 19.8281C182.023 19.4062 181.583 19.1953 181.047 19.1953C180.526 19.1953 180.089 19.4036 179.734 19.8203C179.385 20.2318 179.211 20.849 179.211 21.6719ZM190.734 17.7031H191.953V17.0781C191.953 16.3802 192.026 15.8594 192.172 15.5156C192.323 15.1719 192.596 14.8932 192.992 14.6797C193.393 14.4609 193.898 14.3516 194.508 14.3516C195.133 14.3516 195.745 14.4453 196.344 14.6328L196.047 16.1641C195.698 16.0807 195.362 16.0391 195.039 16.0391C194.721 16.0391 194.492 16.1146 194.352 16.2656C194.216 16.4115 194.148 16.6953 194.148 17.1172V17.7031H195.789V19.4297H194.148V26H191.953V19.4297H190.734V17.7031ZM199.125 26H196.93V17.7031H198.969V18.8828C199.318 18.3255 199.63 17.9583 199.906 17.7812C200.188 17.6042 200.505 17.5156 200.859 17.5156C201.359 17.5156 201.841 17.6536 202.305 17.9297L201.625 19.8438C201.255 19.6042 200.911 19.4844 200.594 19.4844C200.286 19.4844 200.026 19.5703 199.812 19.7422C199.599 19.9089 199.43 20.2135 199.305 20.6562C199.185 21.099 199.125 22.026 199.125 23.4375V26ZM203.258 16.5781V14.5469H205.453V16.5781H203.258ZM203.258 26V17.7031H205.453V26H203.258ZM212.516 23.3594L214.703 23.7266C214.422 24.5286 213.977 25.1406 213.367 25.5625C212.763 25.9792 212.005 26.1875 211.094 26.1875C209.651 26.1875 208.583 25.7161 207.891 24.7734C207.344 24.0182 207.07 23.0651 207.07 21.9141C207.07 20.5391 207.43 19.4635 208.148 18.6875C208.867 17.9062 209.776 17.5156 210.875 17.5156C212.109 17.5156 213.083 17.9245 213.797 18.7422C214.51 19.5547 214.852 20.8021 214.82 22.4844H209.32C209.336 23.1354 209.513 23.6432 209.852 24.0078C210.19 24.3672 210.612 24.5469 211.117 24.5469C211.461 24.5469 211.75 24.4531 211.984 24.2656C212.219 24.0781 212.396 23.776 212.516 23.3594ZM212.641 21.1406C212.625 20.5052 212.461 20.0234 212.148 19.6953C211.836 19.362 211.456 19.1953 211.008 19.1953C210.529 19.1953 210.133 19.3698 209.82 19.7188C209.508 20.0677 209.354 20.5417 209.359 21.1406H212.641ZM224.164 26H221.969V21.7656C221.969 20.8698 221.922 20.2917 221.828 20.0312C221.734 19.7656 221.581 19.5599 221.367 19.4141C221.159 19.2682 220.906 19.1953 220.609 19.1953C220.229 19.1953 219.888 19.2995 219.586 19.5078C219.284 19.7161 219.076 19.9922 218.961 20.3359C218.852 20.6797 218.797 21.3151 218.797 22.2422V26H216.602V17.7031H218.641V18.9219C219.365 17.9844 220.276 17.5156 221.375 17.5156C221.859 17.5156 222.302 17.6042 222.703 17.7812C223.104 17.9531 223.406 18.1745 223.609 18.4453C223.818 18.7161 223.961 19.0234 224.039 19.3672C224.122 19.7109 224.164 20.2031 224.164 20.8438V26ZM234.008 26H231.969V24.7812C231.63 25.2552 231.229 25.6094 230.766 25.8438C230.307 26.0729 229.844 26.1875 229.375 26.1875C228.422 26.1875 227.604 25.8047 226.922 25.0391C226.245 24.2682 225.906 23.1953 225.906 21.8203C225.906 20.4141 226.237 19.3464 226.898 18.6172C227.56 17.8828 228.396 17.5156 229.406 17.5156C230.333 17.5156 231.135 17.901 231.812 18.6719V14.5469H234.008V26ZM228.148 21.6719C228.148 22.5573 228.271 23.1979 228.516 23.5938C228.87 24.1667 229.365 24.4531 230 24.4531C230.505 24.4531 230.935 24.2396 231.289 23.8125C231.643 23.3802 231.82 22.737 231.82 21.8828C231.82 20.9297 231.648 20.2448 231.305 19.8281C230.961 19.4062 230.521 19.1953 229.984 19.1953C229.464 19.1953 229.026 19.4036 228.672 19.8203C228.323 20.2318 228.148 20.849 228.148 21.6719ZM235.406 23.6328L237.609 23.2969C237.703 23.724 237.893 24.0495 238.18 24.2734C238.466 24.4922 238.867 24.6016 239.383 24.6016C239.951 24.6016 240.378 24.4974 240.664 24.2891C240.857 24.1432 240.953 23.9479 240.953 23.7031C240.953 23.5365 240.901 23.3984 240.797 23.2891C240.688 23.1849 240.443 23.0885 240.062 23C238.292 22.6094 237.169 22.2526 236.695 21.9297C236.039 21.4818 235.711 20.8594 235.711 20.0625C235.711 19.3438 235.995 18.7396 236.562 18.25C237.13 17.7604 238.01 17.5156 239.203 17.5156C240.339 17.5156 241.182 17.7005 241.734 18.0703C242.286 18.4401 242.667 18.987 242.875 19.7109L240.805 20.0938C240.716 19.7708 240.547 19.5234 240.297 19.3516C240.052 19.1797 239.701 19.0938 239.242 19.0938C238.664 19.0938 238.25 19.1745 238 19.3359C237.833 19.4505 237.75 19.599 237.75 19.7812C237.75 19.9375 237.823 20.0703 237.969 20.1797C238.167 20.3255 238.849 20.5312 240.016 20.7969C241.188 21.0625 242.005 21.388 242.469 21.7734C242.927 22.1641 243.156 22.7083 243.156 23.4062C243.156 24.1667 242.839 24.8203 242.203 25.3672C241.568 25.9141 240.628 26.1875 239.383 26.1875C238.253 26.1875 237.357 25.9583 236.695 25.5C236.039 25.0417 235.609 24.4193 235.406 23.6328ZM247.68 26V16.4844H244.281V14.5469H253.383V16.4844H249.992V26H247.68ZM253.172 21.7344C253.172 21.0052 253.352 20.2995 253.711 19.6172C254.07 18.9349 254.578 18.4141 255.234 18.0547C255.896 17.6953 256.633 17.5156 257.445 17.5156C258.701 17.5156 259.729 17.9245 260.531 18.7422C261.333 19.5547 261.734 20.5833 261.734 21.8281C261.734 23.0833 261.328 24.125 260.516 24.9531C259.708 25.776 258.69 26.1875 257.461 26.1875C256.701 26.1875 255.974 26.0156 255.281 25.6719C254.594 25.3281 254.07 24.8255 253.711 24.1641C253.352 23.4974 253.172 22.6875 253.172 21.7344ZM255.422 21.8516C255.422 22.6745 255.617 23.3047 256.008 23.7422C256.398 24.1797 256.88 24.3984 257.453 24.3984C258.026 24.3984 258.505 24.1797 258.891 23.7422C259.281 23.3047 259.477 22.6693 259.477 21.8359C259.477 21.0234 259.281 20.3984 258.891 19.9609C258.505 19.5234 258.026 19.3047 257.453 19.3047C256.88 19.3047 256.398 19.5234 256.008 19.9609C255.617 20.3984 255.422 21.0286 255.422 21.8516ZM267.867 16.5781V14.5469H270.062V16.5781H267.867ZM270.062 17.7031V25.7422C270.062 26.7995 269.992 27.5443 269.852 27.9766C269.716 28.4141 269.451 28.7552 269.055 29C268.664 29.2448 268.164 29.3672 267.555 29.3672C267.336 29.3672 267.099 29.3464 266.844 29.3047C266.594 29.2682 266.323 29.2109 266.031 29.1328L266.414 27.2578C266.518 27.2786 266.617 27.2943 266.711 27.3047C266.799 27.3203 266.883 27.3281 266.961 27.3281C267.185 27.3281 267.367 27.2786 267.508 27.1797C267.654 27.0859 267.75 26.9714 267.797 26.8359C267.844 26.7005 267.867 26.2943 267.867 25.6172V17.7031H270.062ZM271.859 21.7344C271.859 21.0052 272.039 20.2995 272.398 19.6172C272.758 18.9349 273.266 18.4141 273.922 18.0547C274.583 17.6953 275.32 17.5156 276.133 17.5156C277.388 17.5156 278.417 17.9245 279.219 18.7422C280.021 19.5547 280.422 20.5833 280.422 21.8281C280.422 23.0833 280.016 24.125 279.203 24.9531C278.396 25.776 277.378 26.1875 276.148 26.1875C275.388 26.1875 274.661 26.0156 273.969 25.6719C273.281 25.3281 272.758 24.8255 272.398 24.1641C272.039 23.4974 271.859 22.6875 271.859 21.7344ZM274.109 21.8516C274.109 22.6745 274.305 23.3047 274.695 23.7422C275.086 24.1797 275.568 24.3984 276.141 24.3984C276.714 24.3984 277.193 24.1797 277.578 23.7422C277.969 23.3047 278.164 22.6693 278.164 21.8359C278.164 21.0234 277.969 20.3984 277.578 19.9609C277.193 19.5234 276.714 19.3047 276.141 19.3047C275.568 19.3047 275.086 19.5234 274.695 19.9609C274.305 20.3984 274.109 21.0286 274.109 21.8516ZM282.148 16.5781V14.5469H284.344V16.5781H282.148ZM282.148 26V17.7031H284.344V26H282.148ZM294.148 26H291.953V21.7656C291.953 20.8698 291.906 20.2917 291.812 20.0312C291.719 19.7656 291.565 19.5599 291.352 19.4141C291.143 19.2682 290.891 19.1953 290.594 19.1953C290.214 19.1953 289.872 19.2995 289.57 19.5078C289.268 19.7161 289.06 19.9922 288.945 20.3359C288.836 20.6797 288.781 21.3151 288.781 22.2422V26H286.586V17.7031H288.625V18.9219C289.349 17.9844 290.26 17.5156 291.359 17.5156C291.844 17.5156 292.286 17.6042 292.688 17.7812C293.089 17.9531 293.391 18.1745 293.594 18.4453C293.802 18.7161 293.945 19.0234 294.023 19.3672C294.107 19.7109 294.148 20.2031 294.148 20.8438V26ZM155.977 36.2344L153.984 35.875C154.208 35.0729 154.594 34.4792 155.141 34.0938C155.688 33.7083 156.5 33.5156 157.578 33.5156C158.557 33.5156 159.286 33.6328 159.766 33.8672C160.245 34.0964 160.581 34.3906 160.773 34.75C160.971 35.1042 161.07 35.7578 161.07 36.7109L161.047 39.2734C161.047 40.0026 161.081 40.5417 161.148 40.8906C161.221 41.2344 161.354 41.6042 161.547 42H159.375C159.318 41.8542 159.247 41.638 159.164 41.3516C159.128 41.2214 159.102 41.1354 159.086 41.0938C158.711 41.4583 158.31 41.7318 157.883 41.9141C157.456 42.0964 157 42.1875 156.516 42.1875C155.661 42.1875 154.987 41.9557 154.492 41.4922C154.003 41.0286 153.758 40.4427 153.758 39.7344C153.758 39.2656 153.87 38.849 154.094 38.4844C154.318 38.1146 154.63 37.8333 155.031 37.6406C155.438 37.4427 156.021 37.2708 156.781 37.125C157.807 36.9323 158.518 36.7526 158.914 36.5859V36.3672C158.914 35.9453 158.81 35.6458 158.602 35.4688C158.393 35.2865 158 35.1953 157.422 35.1953C157.031 35.1953 156.727 35.2734 156.508 35.4297C156.289 35.5807 156.112 35.849 155.977 36.2344ZM158.914 38.0156C158.633 38.1094 158.188 38.2214 157.578 38.3516C156.969 38.4818 156.57 38.6094 156.383 38.7344C156.096 38.9375 155.953 39.1953 155.953 39.5078C155.953 39.8151 156.068 40.0807 156.297 40.3047C156.526 40.5286 156.818 40.6406 157.172 40.6406C157.568 40.6406 157.945 40.5104 158.305 40.25C158.57 40.0521 158.745 39.8099 158.828 39.5234C158.885 39.3359 158.914 38.9792 158.914 38.4531V38.0156ZM170.789 42H168.594V37.7656C168.594 36.8698 168.547 36.2917 168.453 36.0312C168.359 35.7656 168.206 35.5599 167.992 35.4141C167.784 35.2682 167.531 35.1953 167.234 35.1953C166.854 35.1953 166.513 35.2995 166.211 35.5078C165.909 35.7161 165.701 35.9922 165.586 36.3359C165.477 36.6797 165.422 37.3151 165.422 38.2422V42H163.227V33.7031H165.266V34.9219C165.99 33.9844 166.901 33.5156 168 33.5156C168.484 33.5156 168.927 33.6042 169.328 33.7812C169.729 33.9531 170.031 34.1745 170.234 34.4453C170.443 34.7161 170.586 35.0234 170.664 35.3672C170.747 35.7109 170.789 36.2031 170.789 36.8438V42ZM180.633 42H178.594V40.7812C178.255 41.2552 177.854 41.6094 177.391 41.8438C176.932 42.0729 176.469 42.1875 176 42.1875C175.047 42.1875 174.229 41.8047 173.547 41.0391C172.87 40.2682 172.531 39.1953 172.531 37.8203C172.531 36.4141 172.862 35.3464 173.523 34.6172C174.185 33.8828 175.021 33.5156 176.031 33.5156C176.958 33.5156 177.76 33.901 178.438 34.6719V30.5469H180.633V42ZM174.773 37.6719C174.773 38.5573 174.896 39.1979 175.141 39.5938C175.495 40.1667 175.99 40.4531 176.625 40.4531C177.13 40.4531 177.56 40.2396 177.914 39.8125C178.268 39.3802 178.445 38.737 178.445 37.8828C178.445 36.9297 178.273 36.2448 177.93 35.8281C177.586 35.4062 177.146 35.1953 176.609 35.1953C176.089 35.1953 175.651 35.4036 175.297 35.8203C174.948 36.2318 174.773 36.849 174.773 37.6719ZM187.273 42V30.5469H195.766V32.4844H189.586V35.0234H195.336V36.9531H189.586V40.0703H195.984V42H187.273ZM199.57 36.2344L197.578 35.875C197.802 35.0729 198.188 34.4792 198.734 34.0938C199.281 33.7083 200.094 33.5156 201.172 33.5156C202.151 33.5156 202.88 33.6328 203.359 33.8672C203.839 34.0964 204.174 34.3906 204.367 34.75C204.565 35.1042 204.664 35.7578 204.664 36.7109L204.641 39.2734C204.641 40.0026 204.674 40.5417 204.742 40.8906C204.815 41.2344 204.948 41.6042 205.141 42H202.969C202.911 41.8542 202.841 41.638 202.758 41.3516C202.721 41.2214 202.695 41.1354 202.68 41.0938C202.305 41.4583 201.904 41.7318 201.477 41.9141C201.049 42.0964 200.594 42.1875 200.109 42.1875C199.255 42.1875 198.581 41.9557 198.086 41.4922C197.596 41.0286 197.352 40.4427 197.352 39.7344C197.352 39.2656 197.464 38.849 197.688 38.4844C197.911 38.1146 198.224 37.8333 198.625 37.6406C199.031 37.4427 199.615 37.2708 200.375 37.125C201.401 36.9323 202.112 36.7526 202.508 36.5859V36.3672C202.508 35.9453 202.404 35.6458 202.195 35.4688C201.987 35.2865 201.594 35.1953 201.016 35.1953C200.625 35.1953 200.32 35.2734 200.102 35.4297C199.883 35.5807 199.706 35.849 199.57 36.2344ZM202.508 38.0156C202.227 38.1094 201.781 38.2214 201.172 38.3516C200.562 38.4818 200.164 38.6094 199.977 38.7344C199.69 38.9375 199.547 39.1953 199.547 39.5078C199.547 39.8151 199.661 40.0807 199.891 40.3047C200.12 40.5286 200.411 40.6406 200.766 40.6406C201.161 40.6406 201.539 40.5104 201.898 40.25C202.164 40.0521 202.339 39.8099 202.422 39.5234C202.479 39.3359 202.508 38.9792 202.508 38.4531V38.0156ZM208.938 42H206.742V33.7031H208.781V34.8828C209.13 34.3255 209.443 33.9583 209.719 33.7812C210 33.6042 210.318 33.5156 210.672 33.5156C211.172 33.5156 211.654 33.6536 212.117 33.9297L211.438 35.8438C211.068 35.6042 210.724 35.4844 210.406 35.4844C210.099 35.4844 209.839 35.5703 209.625 35.7422C209.411 35.9089 209.242 36.2135 209.117 36.6562C208.997 37.099 208.938 38.026 208.938 39.4375V42ZM220.617 42H218.422V37.7656C218.422 36.8698 218.375 36.2917 218.281 36.0312C218.188 35.7656 218.034 35.5599 217.82 35.4141C217.612 35.2682 217.359 35.1953 217.062 35.1953C216.682 35.1953 216.341 35.2995 216.039 35.5078C215.737 35.7161 215.529 35.9922 215.414 36.3359C215.305 36.6797 215.25 37.3151 215.25 38.2422V42H213.055V33.7031H215.094V34.9219C215.818 33.9844 216.729 33.5156 217.828 33.5156C218.312 33.5156 218.755 33.6042 219.156 33.7812C219.557 33.9531 219.859 34.1745 220.062 34.4453C220.271 34.7161 220.414 35.0234 220.492 35.3672C220.576 35.7109 220.617 36.2031 220.617 36.8438V42ZM227.141 33.7031H229.164V34.8359C229.888 33.9557 230.75 33.5156 231.75 33.5156C232.281 33.5156 232.742 33.625 233.133 33.8438C233.523 34.0625 233.844 34.3932 234.094 34.8359C234.458 34.3932 234.852 34.0625 235.273 33.8438C235.695 33.625 236.146 33.5156 236.625 33.5156C237.234 33.5156 237.75 33.6406 238.172 33.8906C238.594 34.1354 238.909 34.4974 239.117 34.9766C239.268 35.3307 239.344 35.9036 239.344 36.6953V42H237.148V37.2578C237.148 36.4349 237.073 35.9036 236.922 35.6641C236.719 35.3516 236.406 35.1953 235.984 35.1953C235.677 35.1953 235.388 35.2891 235.117 35.4766C234.846 35.6641 234.651 35.9401 234.531 36.3047C234.411 36.6641 234.352 37.2344 234.352 38.0156V42H232.156V37.4531C232.156 36.6458 232.117 36.125 232.039 35.8906C231.961 35.6562 231.839 35.4818 231.672 35.3672C231.51 35.2526 231.289 35.1953 231.008 35.1953C230.669 35.1953 230.365 35.2865 230.094 35.4688C229.823 35.651 229.628 35.9141 229.508 36.2578C229.393 36.6016 229.336 37.1719 229.336 37.9688V42H227.141V33.7031ZM241.031 37.7344C241.031 37.0052 241.211 36.2995 241.57 35.6172C241.93 34.9349 242.438 34.4141 243.094 34.0547C243.755 33.6953 244.492 33.5156 245.305 33.5156C246.56 33.5156 247.589 33.9245 248.391 34.7422C249.193 35.5547 249.594 36.5833 249.594 37.8281C249.594 39.0833 249.188 40.125 248.375 40.9531C247.568 41.776 246.549 42.1875 245.32 42.1875C244.56 42.1875 243.833 42.0156 243.141 41.6719C242.453 41.3281 241.93 40.8255 241.57 40.1641C241.211 39.4974 241.031 38.6875 241.031 37.7344ZM243.281 37.8516C243.281 38.6745 243.477 39.3047 243.867 39.7422C244.258 40.1797 244.74 40.3984 245.312 40.3984C245.885 40.3984 246.365 40.1797 246.75 39.7422C247.141 39.3047 247.336 38.6693 247.336 37.8359C247.336 37.0234 247.141 36.3984 246.75 35.9609C246.365 35.5234 245.885 35.3047 245.312 35.3047C244.74 35.3047 244.258 35.5234 243.867 35.9609C243.477 36.3984 243.281 37.0286 243.281 37.8516ZM258.867 42H256.672V37.7656C256.672 36.8698 256.625 36.2917 256.531 36.0312C256.438 35.7656 256.284 35.5599 256.07 35.4141C255.862 35.2682 255.609 35.1953 255.312 35.1953C254.932 35.1953 254.591 35.2995 254.289 35.5078C253.987 35.7161 253.779 35.9922 253.664 36.3359C253.555 36.6797 253.5 37.3151 253.5 38.2422V42H251.305V33.7031H253.344V34.9219C254.068 33.9844 254.979 33.5156 256.078 33.5156C256.562 33.5156 257.005 33.6042 257.406 33.7812C257.807 33.9531 258.109 34.1745 258.312 34.4453C258.521 34.7161 258.664 35.0234 258.742 35.3672C258.826 35.7109 258.867 36.2031 258.867 36.8438V42ZM265.906 39.3594L268.094 39.7266C267.812 40.5286 267.367 41.1406 266.758 41.5625C266.154 41.9792 265.396 42.1875 264.484 42.1875C263.042 42.1875 261.974 41.7161 261.281 40.7734C260.734 40.0182 260.461 39.0651 260.461 37.9141C260.461 36.5391 260.82 35.4635 261.539 34.6875C262.258 33.9062 263.167 33.5156 264.266 33.5156C265.5 33.5156 266.474 33.9245 267.188 34.7422C267.901 35.5547 268.242 36.8021 268.211 38.4844H262.711C262.727 39.1354 262.904 39.6432 263.242 40.0078C263.581 40.3672 264.003 40.5469 264.508 40.5469C264.852 40.5469 265.141 40.4531 265.375 40.2656C265.609 40.0781 265.786 39.776 265.906 39.3594ZM266.031 37.1406C266.016 36.5052 265.852 36.0234 265.539 35.6953C265.227 35.362 264.846 35.1953 264.398 35.1953C263.919 35.1953 263.523 35.3698 263.211 35.7188C262.898 36.0677 262.745 36.5417 262.75 37.1406H266.031ZM268.969 33.7031H271.305L273.289 39.5938L275.227 33.7031H277.5L274.57 41.6875L274.047 43.1328C273.854 43.6172 273.669 43.987 273.492 44.2422C273.32 44.4974 273.12 44.7031 272.891 44.8594C272.667 45.0208 272.388 45.1458 272.055 45.2344C271.727 45.3229 271.354 45.3672 270.938 45.3672C270.516 45.3672 270.102 45.3229 269.695 45.2344L269.5 43.5156C269.844 43.5833 270.154 43.6172 270.43 43.6172C270.94 43.6172 271.318 43.4661 271.562 43.1641C271.807 42.8672 271.995 42.487 272.125 42.0234L268.969 33.7031Z" fill="white"/>
<path d="M95.2969 30.5469H97.6016V37.7969C97.6016 38.7448 97.5182 39.474 97.3516 39.9844C97.1276 40.651 96.7214 41.1875 96.1328 41.5938C95.5443 41.9948 94.7682 42.1953 93.8047 42.1953C92.6745 42.1953 91.8047 41.8802 91.1953 41.25C90.5859 40.6146 90.2786 39.6849 90.2734 38.4609L92.4531 38.2109C92.4792 38.8672 92.5755 39.3307 92.7422 39.6016C92.9922 40.013 93.3724 40.2188 93.8828 40.2188C94.3984 40.2188 94.763 40.0729 94.9766 39.7812C95.1901 39.4844 95.2969 38.8724 95.2969 37.9453V30.5469ZM100.078 30.5469H104.656C105.562 30.5469 106.237 30.5859 106.68 30.6641C107.128 30.737 107.526 30.8932 107.875 31.1328C108.229 31.3724 108.523 31.6927 108.758 32.0938C108.992 32.4896 109.109 32.9349 109.109 33.4297C109.109 33.9661 108.964 34.4583 108.672 34.9062C108.385 35.3542 107.995 35.6901 107.5 35.9141C108.198 36.1172 108.734 36.4635 109.109 36.9531C109.484 37.4427 109.672 38.0182 109.672 38.6797C109.672 39.2005 109.549 39.7083 109.305 40.2031C109.065 40.6927 108.734 41.0859 108.312 41.3828C107.896 41.6745 107.38 41.8542 106.766 41.9219C106.38 41.9635 105.451 41.9896 103.977 42H100.078V30.5469ZM102.391 32.4531V35.1016H103.906C104.807 35.1016 105.367 35.0885 105.586 35.0625C105.982 35.0156 106.292 34.8802 106.516 34.6562C106.745 34.4271 106.859 34.1276 106.859 33.7578C106.859 33.4036 106.76 33.1172 106.562 32.8984C106.37 32.6745 106.081 32.5391 105.695 32.4922C105.466 32.4661 104.807 32.4531 103.719 32.4531H102.391ZM102.391 37.0078V40.0703H104.531C105.365 40.0703 105.893 40.0469 106.117 40C106.461 39.9375 106.74 39.7865 106.953 39.5469C107.172 39.3021 107.281 38.9766 107.281 38.5703C107.281 38.2266 107.198 37.9349 107.031 37.6953C106.865 37.4557 106.622 37.2812 106.305 37.1719C105.992 37.0625 105.31 37.0078 104.258 37.0078H102.391ZM111.633 42V30.5469H120.125V32.4844H113.945V35.0234H119.695V36.9531H113.945V40.0703H120.344V42H111.633ZM124.883 42V32.4844H121.484V30.5469H130.586V32.4844H127.195V42H124.883ZM133.484 35.8203C132.917 35.5807 132.503 35.2526 132.242 34.8359C131.987 34.4141 131.859 33.9531 131.859 33.4531C131.859 32.599 132.156 31.8932 132.75 31.3359C133.349 30.7786 134.198 30.5 135.297 30.5C136.385 30.5 137.229 30.7786 137.828 31.3359C138.432 31.8932 138.734 32.599 138.734 33.4531C138.734 33.9844 138.596 34.4583 138.32 34.875C138.044 35.2865 137.656 35.6016 137.156 35.8203C137.792 36.0755 138.273 36.4479 138.602 36.9375C138.935 37.4271 139.102 37.9922 139.102 38.6328C139.102 39.6901 138.763 40.5495 138.086 41.2109C137.414 41.8724 136.518 42.2031 135.398 42.2031C134.357 42.2031 133.49 41.9297 132.797 41.3828C131.979 40.737 131.57 39.8516 131.57 38.7266C131.57 38.1068 131.724 37.5391 132.031 37.0234C132.339 36.5026 132.823 36.1016 133.484 35.8203ZM133.938 33.6094C133.938 34.0469 134.06 34.388 134.305 34.6328C134.555 34.8776 134.885 35 135.297 35C135.714 35 136.047 34.8776 136.297 34.6328C136.547 34.3828 136.672 34.0391 136.672 33.6016C136.672 33.1901 136.547 32.862 136.297 32.6172C136.052 32.3672 135.727 32.2422 135.32 32.2422C134.898 32.2422 134.562 32.3672 134.312 32.6172C134.062 32.8672 133.938 33.1979 133.938 33.6094ZM133.734 38.5156C133.734 39.1198 133.888 39.5911 134.195 39.9297C134.508 40.2682 134.896 40.4375 135.359 40.4375C135.812 40.4375 136.188 40.276 136.484 39.9531C136.781 39.625 136.93 39.1536 136.93 38.5391C136.93 38.0026 136.779 37.5729 136.477 37.25C136.174 36.9219 135.792 36.7578 135.328 36.7578C134.792 36.7578 134.391 36.9427 134.125 37.3125C133.865 37.6823 133.734 38.0833 133.734 38.5156ZM142.391 35.8203C141.823 35.5807 141.409 35.2526 141.148 34.8359C140.893 34.4141 140.766 33.9531 140.766 33.4531C140.766 32.599 141.062 31.8932 141.656 31.3359C142.255 30.7786 143.104 30.5 144.203 30.5C145.292 30.5 146.135 30.7786 146.734 31.3359C147.339 31.8932 147.641 32.599 147.641 33.4531C147.641 33.9844 147.503 34.4583 147.227 34.875C146.951 35.2865 146.562 35.6016 146.062 35.8203C146.698 36.0755 147.18 36.4479 147.508 36.9375C147.841 37.4271 148.008 37.9922 148.008 38.6328C148.008 39.6901 147.669 40.5495 146.992 41.2109C146.32 41.8724 145.424 42.2031 144.305 42.2031C143.263 42.2031 142.396 41.9297 141.703 41.3828C140.885 40.737 140.477 39.8516 140.477 38.7266C140.477 38.1068 140.63 37.5391 140.938 37.0234C141.245 36.5026 141.729 36.1016 142.391 35.8203ZM142.844 33.6094C142.844 34.0469 142.966 34.388 143.211 34.6328C143.461 34.8776 143.792 35 144.203 35C144.62 35 144.953 34.8776 145.203 34.6328C145.453 34.3828 145.578 34.0391 145.578 33.6016C145.578 33.1901 145.453 32.862 145.203 32.6172C144.958 32.3672 144.633 32.2422 144.227 32.2422C143.805 32.2422 143.469 32.3672 143.219 32.6172C142.969 32.8672 142.844 33.1979 142.844 33.6094ZM142.641 38.5156C142.641 39.1198 142.794 39.5911 143.102 39.9297C143.414 40.2682 143.802 40.4375 144.266 40.4375C144.719 40.4375 145.094 40.276 145.391 39.9531C145.688 39.625 145.836 39.1536 145.836 38.5391C145.836 38.0026 145.685 37.5729 145.383 37.25C145.081 36.9219 144.698 36.7578 144.234 36.7578C143.698 36.7578 143.297 36.9427 143.031 37.3125C142.771 37.6823 142.641 38.0833 142.641 38.5156Z" fill="#85D420"/>
</g>
</svg>
