<svg width="8" height="9" viewBox="0 0 8 9" fill="none" xmlns="http://www.w3.org/2000/svg">
<g clip-path="url(#clip0_0_38336)">
<path d="M6.16707 4.20086C6.65407 4.20366 7.12024 4.41231 7.46367 4.7812C7.80711 5.15009 7.9999 5.64921 7.99989 6.1695V6.20125C7.98262 6.70296 7.788 7.17904 7.45525 7.53354C7.1225 7.88805 6.67635 8.09466 6.2067 8.11172H5.77574C4.3426 7.98855 2.98452 7.37626 1.90206 6.36531C0.75511 5.22068 0.0784475 3.63789 0.0197029 1.96229C0.0164145 1.70874 0.0604043 1.45703 0.149109 1.22183C0.237813 0.986638 0.369457 0.772683 0.536365 0.592398C0.703272 0.412114 0.902103 0.269129 1.12127 0.171784C1.34043 0.0744383 1.57554 0.0246717 1.81289 0.0253985C2.054 0.0253975 2.29274 0.0762159 2.51543 0.174949C2.73812 0.273682 2.94039 0.418379 3.11064 0.600764C3.2809 0.783149 3.4158 0.999648 3.50762 1.23782C3.59943 1.476 3.64636 1.73119 3.64571 1.98877C3.64767 2.35117 3.54893 2.70603 3.36198 3.00843C3.17504 3.31083 2.90831 3.54717 2.59555 3.68751C2.81238 4.0563 3.07019 4.39571 3.36336 4.69832C3.69303 5.03398 4.07101 5.31093 4.48286 5.51859C4.59764 5.14351 4.82035 4.81672 5.11922 4.58485C5.4181 4.35297 5.77788 4.22785 6.14726 4.22731L6.16707 4.20086Z" fill="#1E2024"/>
</g>
<defs>
<clipPath id="clip0_0_38336">
<rect width="8" height="8.11806" fill="white"/>
</clipPath>
</defs>
</svg>
