<svg width="24" height="24" viewBox="0 0 24 24" fill="none" xmlns="http://www.w3.org/2000/svg">
<mask id="mask0_0_60281" style="mask-type:luminance" maskUnits="userSpaceOnUse" x="1" y="1" width="23" height="23">
<path d="M1 1H24V24H1V1Z" fill="white"/>
</mask>
<g mask="url(#mask0_0_60281)">
<path fill-rule="evenodd" clip-rule="evenodd" d="M11.3784 3.72609L2.99301 12.1019C2.87305 12.2213 2.77785 12.3631 2.7129 12.5194C2.64794 12.6756 2.6145 12.8431 2.6145 13.0123C2.6145 13.1816 2.64794 13.3491 2.7129 13.5053C2.77785 13.6616 2.87305 13.8034 2.99301 13.9228L10.2572 21.1773C10.3765 21.2973 10.5184 21.3925 10.6746 21.4575C10.8308 21.5224 10.9984 21.5558 11.1676 21.5558C11.3368 21.5558 11.5043 21.5224 11.6606 21.4575C11.8168 21.3925 11.9587 21.2973 12.078 21.1773L20.4538 12.8015C20.6036 12.6544 20.7137 12.4719 20.774 12.2708C20.8343 12.0698 20.8429 11.8567 20.7988 11.6515L19.5051 5.17318C19.478 5.0503 19.4169 4.93752 19.3288 4.8477C19.2407 4.75789 19.1291 4.69467 19.0068 4.66526L12.538 3.37151C12.3305 3.32696 12.1151 3.33615 11.9122 3.39821C11.7092 3.46026 11.5255 3.57312 11.3784 3.72609ZM16.0455 9.4761C15.832 9.61843 15.5707 9.67012 15.3191 9.6198C15.0675 9.56947 14.8462 9.42126 14.7038 9.20776C14.5615 8.99426 14.5098 8.73297 14.5601 8.48135C14.6105 8.22974 14.7587 8.00843 14.9722 7.8661C15.1844 7.72376 15.4445 7.67157 15.6952 7.72099C15.9459 7.77041 16.1667 7.91741 16.309 8.12964C16.4514 8.34187 16.5036 8.60194 16.4542 8.85266C16.4047 9.10337 16.2577 9.32418 16.0455 9.46651V9.4761ZM9.69176 9.74443C9.87131 9.56594 10.1142 9.46575 10.3674 9.46575C10.6206 9.46575 10.8634 9.56594 11.043 9.74443L14.4355 13.1273C14.616 13.3078 14.7173 13.5526 14.7173 13.8078C14.7173 14.063 14.616 14.3077 14.4355 14.4882C14.255 14.6686 14.0103 14.77 13.7551 14.77C13.4999 14.77 13.2551 14.6686 13.0747 14.4882L9.69176 11.0957C9.51326 10.9161 9.41308 10.6732 9.41308 10.4201C9.41308 10.1669 9.51326 9.92398 9.69176 9.74443ZM7.66009 11.7761C7.83964 11.5976 8.08254 11.4974 8.33571 11.4974C8.58889 11.4974 8.83178 11.5976 9.01134 11.7761L12.4038 15.1686C12.583 15.3491 12.6832 15.5933 12.6823 15.8476C12.6814 16.1019 12.5795 16.3454 12.399 16.5246C12.2186 16.7038 11.9743 16.804 11.72 16.8031C11.4657 16.8022 11.2222 16.7003 11.043 16.5198L7.66009 13.1273C7.4816 12.9478 7.38141 12.7049 7.38141 12.4517C7.38141 12.1985 7.4816 11.9557 7.66009 11.7761Z" fill="#808994"/>
</g>
</svg>
