<svg width="62" height="14" viewBox="0 0 62 14" fill="none" xmlns="http://www.w3.org/2000/svg">
<path d="M10.0848 1.18149H17.0161V2.90098H11.8855V5.41108H15.3011V7.13058H11.8855V9.94074H17.1733V11.6602H10.0848V1.18149Z" fill="white"/>
<path d="M16.6754 4.2134H18.519L20.1339 9.40581L21.6321 4.2134H23.4185L20.939 11.6628H19.2812L16.6754 4.2134Z" fill="white"/>
<path d="M23.1351 7.95512C23.1351 5.68246 24.5761 4.07256 26.6364 4.07256C28.6824 4.07256 30.1235 5.68246 30.1235 7.95512C30.1235 10.1965 28.6539 11.8064 26.5935 11.8064C24.5475 11.8064 23.1351 10.2278 23.1351 7.95512ZM28.3085 8.00209V7.93947C28.3085 6.52003 27.6749 5.66681 26.6364 5.66681C25.5836 5.66681 24.95 6.52003 24.95 7.93947V8.00209C24.95 9.39021 25.5693 10.2121 26.6078 10.2121C27.6606 10.2121 28.3085 9.39021 28.3085 8.00209Z" fill="white"/>
<path d="M30.9357 1.04058H32.7364V11.6628H30.9357V1.04058Z" fill="white"/>
<path d="M33.7653 8.68044V4.2134H35.5517V8.57085C35.5517 9.56497 35.9829 10.1494 36.7903 10.1494C37.7264 10.1494 38.117 9.28057 38.117 8.00203V4.2134H39.9034V11.6628H38.117V10.6061C37.7573 11.3784 37.1381 11.8063 36.2592 11.8063C34.7157 11.8063 33.7653 10.6061 33.7653 8.68044Z" fill="white"/>
<path d="M41.5374 9.69022V5.792H40.5727V4.21341H41.5374V2.80963L43.2809 1.73723V4.21601H44.6219V5.79461H43.2666V9.50496C43.2666 9.86765 43.4262 10.0268 43.7573 10.0425H44.5504V11.668H43.1666C41.8542 11.5845 41.566 10.9218 41.5374 9.69022Z" fill="white"/>
<path d="M45.4317 1.21277H47.2896V3.12274H45.4317V1.21277ZM45.4603 4.2134H47.261V11.6628H45.4603V4.2134Z" fill="white"/>
<path d="M48.0756 7.95512C48.0756 5.68246 49.5166 4.07256 51.5769 4.07256C53.623 4.07256 55.064 5.68246 55.064 7.95512C55.064 10.1965 53.5944 11.8064 51.5341 11.8064C49.4857 11.8064 48.0756 10.2278 48.0756 7.95512ZM53.2466 8.00209V7.93947C53.2466 6.52003 52.6131 5.66681 51.5746 5.66681C50.5218 5.66681 49.8882 6.52003 49.8882 7.93947V8.00209C49.8882 9.39021 50.5075 10.2121 51.546 10.2121C52.5988 10.2121 53.2466 9.39021 53.2466 8.00209Z" fill="white"/>
<path d="M55.8619 4.21344H57.6483V5.42935C58.008 4.56047 58.6725 4.05689 59.6372 4.05689C61.1211 4.05689 62 5.14494 62 7.19842V11.6655H60.2136V7.30801C60.2136 6.26692 59.8539 5.72942 59.0179 5.72942C58.1676 5.72942 57.6483 6.4861 57.6483 7.87683V11.6655H55.8619V4.21344Z" fill="white"/>
<path d="M7.56719 12.3908C7.54099 12.3908 7.52432 12.3934 7.47906 12.3934H7.43381V12.1481H7.49574C7.57434 12.1481 7.61007 12.1481 7.63865 12.1638C7.69343 12.1951 7.69581 12.2525 7.69581 12.2682C7.69343 12.3856 7.59577 12.3908 7.56719 12.3908ZM7.8292 12.2708C7.8292 12.1795 7.79347 12.1168 7.74821 12.0751C7.68629 12.0203 7.62197 12.0203 7.5267 12.0177H7.29804V12.8057H7.43143V12.5134H7.55052L7.69343 12.8057H7.84587L7.68629 12.4847C7.72916 12.4743 7.8292 12.4221 7.8292 12.2708ZM7.54576 13.0379C7.23849 13.0379 6.99078 12.7665 6.99078 12.4299C6.99078 12.0934 7.23849 11.822 7.54576 11.822C7.85302 11.822 8.10073 12.0934 8.10073 12.4299C8.10073 12.7639 7.85302 13.0379 7.54576 13.0379ZM7.54576 11.6628C7.15989 11.6628 6.84787 12.0046 6.84787 12.4273C6.84787 12.85 7.15989 13.1918 7.54576 13.1918C7.93162 13.1918 8.24364 12.85 8.24364 12.4273C8.24364 12.0072 7.92924 11.6628 7.54576 11.6628Z" fill="white"/>
<path d="M6.40484 6.05816C6.95982 6.07642 7.56958 6.06076 8.24126 6.00336C8.14361 4.5187 7.70296 3.28713 7.04318 2.33476C7.07415 2.59568 7.0932 2.86183 7.0932 3.13319C7.0932 4.19515 6.84311 5.19188 6.40484 6.05816Z" fill="white"/>
<path d="M6.1738 6.47825C5.18294 8.11164 3.48944 9.18926 1.56489 9.18926C1.42674 9.18926 1.29097 9.18143 1.15759 9.17099C0.666923 9.99552 0.350134 10.9114 0 11.7724C3.45133 13.792 7.9078 11.6628 8.24364 6.5226C7.4743 6.45737 6.78832 6.44694 6.1738 6.47825Z" fill="white"/>
<path d="M0 0.753559C0.959893 3.12015 1.67922 5.89639 6.40722 6.05816C6.84549 5.18928 7.09558 4.19255 7.09558 3.13058C7.09558 2.85922 7.07653 2.59308 7.04556 2.33216C5.41875 -0.0187789 2.45571 -0.681529 0 0.753559Z" fill="white"/>
<path d="M6.1738 6.47825C3.32985 6.63219 1.99362 7.76983 1.15759 9.17099C1.29335 9.18143 1.42674 9.18926 1.56489 9.18926C3.48944 9.18926 5.18294 8.11164 6.1738 6.47825Z" fill="white"/>
</svg>
