<svg width="12" height="12" viewBox="0 0 12 12" fill="none" xmlns="http://www.w3.org/2000/svg">
<path d="M9.45418 10.3112C10.5836 9.30735 11.2943 7.85356 11.2943 6.23561C11.2943 5.47623 11.1376 4.75347 10.8552 4.09566C10.7391 3.82758 10.7858 3.51698 10.982 3.29849C11.2955 2.94774 11.4857 2.48834 11.4857 1.98406C11.4857 0.888102 10.586 0 9.47571 0C8.86195 0 8.31279 0.271627 7.94429 0.697963C7.75286 0.919988 7.44896 1.01092 7.16421 0.936522C6.71077 0.818423 6.23459 0.755831 5.74286 0.755831C5.25112 0.755831 4.77495 0.818423 4.3215 0.937703C4.03675 1.01211 3.73286 0.919988 3.54143 0.699144C3.17293 0.271627 2.62377 0 2.01 0C0.899714 0 0 0.888102 0 1.98406C0 2.48834 0.190232 2.94774 0.503696 3.29849C0.699911 3.51698 0.745375 3.82758 0.630518 4.09566C0.348161 4.75347 0.191429 5.47623 0.191429 6.23561C0.191429 7.85356 0.902107 9.30735 2.03154 10.3112C2.19545 10.4565 2.20382 10.7068 2.04829 10.8603L1.54818 11.354C1.39862 11.5016 1.39862 11.7414 1.54818 11.889C1.62355 11.9634 1.72046 12 1.81857 12C1.91668 12 2.01479 11.9634 2.08896 11.889L2.89057 11.0977C2.95039 11.0387 3.04132 11.0245 3.1155 11.0647C3.89796 11.4792 4.79289 11.7154 5.74286 11.7154C6.69282 11.7154 7.58775 11.4792 8.37021 11.0635C8.44439 11.0245 8.53532 11.0387 8.59514 11.0965L9.39675 11.8878C9.47213 11.9622 9.56904 11.9988 9.66714 11.9988C9.76525 11.9988 9.86336 11.9622 9.93754 11.8878C10.0871 11.7402 10.0871 11.5004 9.93754 11.3528L9.43743 10.8592C9.28189 10.7068 9.29027 10.4565 9.45418 10.3112ZM8.81768 6.43519C8.8117 6.64069 8.63582 6.80248 8.42645 6.80248H6.12571C5.70337 6.80248 5.36 6.46354 5.36 6.04665V3.03159C5.36 2.8261 5.52391 2.65131 5.73209 2.64541C5.94864 2.6395 6.12571 2.81075 6.12571 3.02332V5.85769C6.12571 5.96162 6.21186 6.04665 6.31714 6.04665H8.43482C8.65018 6.04665 8.82366 6.22144 8.81768 6.43519ZM8.49704 1.22704C8.73273 0.930617 9.10482 0.74284 9.51879 0.757012C10.1672 0.77827 10.6949 1.29672 10.72 1.93682C10.7332 2.28521 10.5992 2.60289 10.3754 2.83437C10.2941 2.91704 10.1589 2.91113 10.0859 2.82138C9.66116 2.29702 9.14191 1.85061 8.55207 1.50812C8.45037 1.44907 8.42405 1.31798 8.49704 1.22704ZM0.766911 1.93682C0.792036 1.29672 1.31966 0.77827 1.96812 0.757012C2.38209 0.74284 2.75418 0.930617 2.98987 1.22704C3.06166 1.31798 3.03534 1.44907 2.93604 1.50694C2.3462 1.84942 1.82695 2.29466 1.40221 2.82019C1.32923 2.90995 1.19404 2.91585 1.11268 2.83319C0.88775 2.60171 0.75375 2.28403 0.766911 1.93682Z" fill="#C9A4A4"/>
</svg>
