<svg width="323" height="157" viewBox="0 0 323 157" fill="none" xmlns="http://www.w3.org/2000/svg">
<path d="M10.9105 17.1786C10.9778 16.9991 11.2437 16.9991 11.311 17.1786C11.8305 18.5642 13.3123 22.2031 15.1872 24.078C17.0621 25.9529 20.701 27.4347 22.0866 27.9542C22.2661 28.0214 22.2661 28.2874 22.0866 28.3547C20.701 28.8741 17.0621 30.3559 15.1872 32.2308C13.3123 34.1057 11.8305 37.7446 11.311 39.1303C11.2437 39.3098 10.9778 39.3098 10.9105 39.1303C10.3911 37.7446 8.90928 34.1057 7.03437 32.2308C5.15946 30.3559 1.52058 28.8741 0.134938 28.3547C-0.0445662 28.2874 -0.0445651 28.0214 0.134939 27.9542C1.52058 27.4347 5.15946 25.9529 7.03437 24.078C8.90928 22.2031 10.3911 18.5642 10.9105 17.1786Z" fill="#FAFF01"/>
<path d="M311.689 0.134448C311.756 -0.0450558 312.022 -0.0450547 312.089 0.134449C312.609 1.52009 314.091 5.15897 315.966 7.03388C317.841 8.90879 321.479 10.3906 322.865 10.91C323.045 10.9773 323.045 11.2433 322.865 11.3106C321.479 11.83 317.841 13.3118 315.966 15.1867C314.091 17.0616 312.609 20.7005 312.089 22.0861C312.022 22.2656 311.756 22.2656 311.689 22.0861C311.17 20.7005 309.688 17.0616 307.813 15.1867C305.938 13.3118 302.299 11.83 300.913 11.3106C300.734 11.2433 300.734 10.9773 300.913 10.91C302.299 10.3906 305.938 8.90879 307.813 7.03388C309.688 5.15897 311.17 1.52009 311.689 0.134448Z" fill="#FAFF01"/>
<path d="M79.0829 70.317C79.152 70.1382 79.4224 70.1382 79.4915 70.317C79.883 71.33 80.8023 73.4795 81.9458 74.623C83.0892 75.7665 85.2388 76.6858 86.2518 77.0772C86.4306 77.1463 86.4306 77.4168 86.2518 77.4859C85.2388 77.8773 83.0892 78.7966 81.9458 79.9401C80.8023 81.0836 79.883 83.2331 79.4915 84.2461C79.4224 84.4249 79.152 84.4249 79.0829 84.2461C78.6915 83.2331 77.7722 81.0836 76.6287 79.9401C75.4852 78.7966 73.3356 77.8773 72.3227 77.4859C72.1438 77.4168 72.1438 77.1463 72.3227 77.0772C73.3356 76.6858 75.4852 75.7665 76.6287 74.623C77.7722 73.4795 78.6915 71.33 79.0829 70.317Z" fill="#FAFF01"/>
<path d="M273.586 66.3066C273.655 66.1278 273.926 66.1278 273.995 66.3066C274.386 67.3196 275.306 69.4692 276.449 70.6126C277.593 71.7561 279.742 72.6754 280.755 73.0669C280.934 73.136 280.934 73.4064 280.755 73.4755C279.742 73.8669 277.593 74.7862 276.449 75.9297C275.306 77.0732 274.386 79.2228 273.995 80.2357C273.926 80.4146 273.655 80.4146 273.586 80.2357C273.195 79.2228 272.276 77.0732 271.132 75.9297C269.989 74.7862 267.839 73.8669 266.826 73.4755C266.647 73.4064 266.647 73.136 266.826 73.0669C267.839 72.6754 269.989 71.7561 271.132 70.6126C272.276 69.4692 273.195 67.3196 273.586 66.3066Z" fill="#FAFF01"/>
<path d="M297.147 116.435C297.216 116.257 297.487 116.257 297.556 116.435C297.929 117.395 298.779 119.364 299.833 120.418C300.887 121.472 302.856 122.322 303.816 122.695C303.995 122.764 303.995 123.035 303.816 123.104C302.856 123.477 300.887 124.327 299.833 125.381C298.779 126.435 297.929 128.404 297.556 129.364C297.487 129.543 297.216 129.543 297.147 129.364C296.774 128.404 295.924 126.435 294.87 125.381C293.816 124.327 291.847 123.477 290.887 123.104C290.709 123.035 290.709 122.764 290.887 122.695C291.847 122.322 293.816 121.472 294.87 120.418C295.924 119.364 296.774 117.395 297.147 116.435Z" fill="white"/>
<path d="M169.817 143.505C169.887 143.327 170.157 143.327 170.227 143.505C170.6 144.465 171.449 146.434 172.503 147.488C173.557 148.542 175.527 149.392 176.486 149.765C176.665 149.835 176.665 150.105 176.486 150.174C175.527 150.547 173.557 151.397 172.503 152.451C171.449 153.505 170.6 155.475 170.227 156.434C170.157 156.613 169.887 156.613 169.817 156.434C169.445 155.475 168.595 153.505 167.541 152.451C166.487 151.397 164.517 150.547 163.558 150.174C163.379 150.105 163.379 149.835 163.558 149.765C164.517 149.392 166.487 148.542 167.541 147.488C168.595 146.434 169.445 144.465 169.817 143.505Z" fill="white"/>
</svg>
