<svg width="24" height="24" viewBox="0 0 24 24" fill="none" xmlns="http://www.w3.org/2000/svg">
<g clip-path="url(#clip0_0_19752)">
<path d="M9.07359 20.4692C9.18879 20.1608 9.53169 20.0065 9.84806 20.0976C10.5466 20.2986 11.271 20.4004 11.9999 20.3991C12.8134 20.3991 13.6101 20.2743 14.3709 20.0308L14.5389 19.9744C14.632 19.9411 14.7345 19.9889 14.7689 20.0816L14.9144 20.4738C15.0304 20.7865 14.8715 21.1361 14.5518 21.2309C13.7245 21.4761 12.8649 21.6004 11.9999 21.599C11.0544 21.599 10.1281 21.4526 9.24497 21.1671L9.05299 21.1035C8.94803 21.0658 8.89411 20.9497 8.93312 20.8452L9.07359 20.4692ZM16.8958 5.78463C17.0912 5.51341 17.4708 5.45005 17.7287 5.66276C18.6712 6.44019 19.4472 7.40303 20.007 8.4938C20.659 9.7643 20.9991 11.1718 20.999 12.5999L20.9954 12.8567L20.9762 13.2382C20.9736 13.2785 20.9385 13.3089 20.8983 13.3057L19.9478 13.2313C19.8522 13.2239 19.7805 13.1407 19.7871 13.0451C19.8592 11.7888 19.6259 10.5338 19.107 9.38738C18.5881 8.241 17.7992 7.23741 16.8078 6.46249C16.6633 6.35461 16.632 6.1508 16.7374 6.00448L16.8958 5.78463ZM6.32341 5.61989C6.58042 5.41112 6.95598 5.4765 7.14759 5.74655C7.33966 6.01723 7.27386 6.39068 7.0184 6.60257C6.21646 7.26777 5.55442 8.08843 5.07344 9.01727C4.50011 10.1245 4.20081 11.3531 4.20066 12.5999L4.20426 12.8495C4.21092 12.9872 4.10574 13.1048 3.96809 13.1135L3.62172 13.1354C3.28865 13.1564 2.99941 12.9034 3.00054 12.5697C3.00505 11.2408 3.30408 9.92674 3.87913 8.72318C4.45489 7.51815 5.29066 6.45879 6.32341 5.61989Z" fill="#DBBA59"/>
<path d="M12.0001 0.601074C12.5849 0.601074 13.1639 0.716248 13.7041 0.940021C14.2444 1.16379 14.7352 1.49178 15.1487 1.90526C15.5622 2.31874 15.8902 2.80961 16.1139 3.34984C16.3377 3.89007 16.4529 4.46909 16.4529 5.05384C16.4529 5.63858 16.3377 6.2176 16.1139 6.75784C15.8902 7.29807 15.5622 7.78894 15.1487 8.20242C14.7352 8.6159 14.2444 8.94388 13.7041 9.16766C13.1639 9.39143 12.5849 9.5066 12.0001 9.5066C10.8192 9.5066 9.6866 9.03747 8.85155 8.20242C8.01649 7.36736 7.54736 6.23479 7.54736 5.05384C7.54736 3.87289 8.01649 2.74031 8.85155 1.90526C9.6866 1.0702 10.8192 0.601074 12.0001 0.601074ZM19.5474 14.0998C20.7283 14.0998 21.8609 14.5689 22.696 15.4039C23.531 16.239 24.0002 17.3716 24.0002 18.5525C24.0002 19.7335 23.531 20.866 22.696 21.7011C21.8609 22.5362 20.7283 23.0053 19.5474 23.0053C18.3664 23.0053 17.2339 22.5362 16.3988 21.7011C15.5638 20.866 15.0946 19.7335 15.0946 18.5525C15.0946 17.3716 15.5638 16.239 16.3988 15.4039C17.2339 14.5689 18.3664 14.0998 19.5474 14.0998Z" fill="#DBBA59"/>
<path d="M17.0996 18.43C17.0996 17.1047 18.174 16.0303 19.4994 16.0303C20.8247 16.0303 21.8991 17.1047 21.8991 18.43C21.8991 19.7554 20.8247 20.8298 19.4994 20.8298C18.174 20.8298 17.0996 19.7554 17.0996 18.43Z" fill="#DBBA59"/>
<path d="M4.45277 14.0996C5.63371 14.0996 6.76629 14.5687 7.60135 15.4038C8.4364 16.2389 8.90553 17.3714 8.90553 18.5524C8.90553 19.7333 8.4364 20.8659 7.60135 21.701C6.76629 22.536 5.63371 23.0051 4.45277 23.0051C3.27182 23.0051 2.13924 22.536 1.30418 21.701C0.469129 20.8659 0 19.7333 0 18.5524C0 17.3714 0.469129 16.2389 1.30418 15.4038C2.13924 14.5687 3.27182 14.0996 4.45277 14.0996Z" fill="#DBBA59"/>
<path d="M2.04834 18.4302C2.04834 17.1048 3.12275 16.0304 4.44811 16.0304C5.77346 16.0304 6.84787 17.1048 6.84787 18.4302C6.84787 19.7555 5.77346 20.83 4.44811 20.83C3.12275 20.83 2.04834 19.7555 2.04834 18.4302ZM9.53201 4.9315C9.53201 3.60615 10.6064 2.53174 11.9318 2.53174C13.2571 2.53174 14.3315 3.60615 14.3315 4.9315C14.3315 6.25686 13.2571 7.33127 11.9318 7.33127C10.6064 7.33127 9.53201 6.25686 9.53201 4.9315Z" fill="#DBBA59"/>
<path d="M12 17.3863C10.0154 17.3863 8.40039 15.7713 8.40039 13.7867C8.40039 11.8021 10.0154 10.187 12 10.187C13.9846 10.187 15.5997 11.8021 15.5997 13.7867C15.5997 15.7713 13.9846 17.3863 12 17.3863Z" fill="#DBBA59"/>
</g>
<defs>
<clipPath id="clip0_0_19752">
<rect width="24" height="24" fill="white"/>
</clipPath>
</defs>
</svg>
