<svg width="28" height="28" viewBox="0 0 28 28" fill="none" xmlns="http://www.w3.org/2000/svg">
<path d="M15.0144 27.6929H12.9856C5.8435 27.6929 0 21.9135 0 14.8498V12.8431C0 5.77941 5.8435 0 12.9856 0H15.0144C22.1565 0 28 5.77941 28 12.8431V14.8498C28 21.9135 22.1565 27.6929 15.0144 27.6929Z" fill="#00C300"/>
<path d="M21.9663 12.9873C21.9663 9.43734 18.3661 6.54688 13.9414 6.54688C9.51677 6.54688 5.9165 9.43661 5.9165 12.9873C5.9165 16.1714 8.77118 18.839 12.6282 19.3426C12.8894 19.3981 13.2447 19.5129 13.3344 19.7337C13.4161 19.9343 13.3877 20.2481 13.3607 20.4516L13.2461 21.1313C13.2111 21.3333 13.0857 21.9163 13.9414 21.5591C14.7979 21.2027 18.5623 18.8678 20.246 16.9514C21.4089 15.6888 21.9663 14.4087 21.9663 12.9866V12.9873H21.9663ZM18.868 12.6915C19.1003 12.701 19.2807 12.895 19.2711 13.1247C19.2619 13.3411 19.0867 13.5144 18.868 13.5234H17.6934V14.2666H18.868C19.1007 14.2762 19.2815 14.4705 19.2718 14.7006C19.2627 14.9173 19.0871 15.0909 18.868 15.0999H17.2732C17.0409 15.0995 16.8527 14.9134 16.8523 14.6836V11.5305C16.8523 11.2996 17.042 11.1135 17.2732 11.1135H18.868C19.1003 11.13 19.275 11.3297 19.2582 11.5595C19.2431 11.7661 19.0769 11.9305 18.868 11.9454H17.6934V12.6907H18.868V12.6915ZM16.2876 14.6843C16.2884 14.9135 16.1013 15.0999 15.8696 15.1007C15.8684 15.1007 15.8672 15.1007 15.8659 15.1007C15.734 15.1001 15.6099 15.0387 15.5304 14.9347L13.8962 12.734V14.6843C13.8962 14.9143 13.7077 15.1007 13.4753 15.1007C13.2428 15.1007 13.0543 14.9143 13.0543 14.6843V11.5312C13.0543 11.3013 13.2428 11.1149 13.4753 11.1149C13.6075 11.1149 13.7321 11.1764 13.8116 11.2808L15.4457 13.4815V11.5312C15.4594 11.3013 15.659 11.1259 15.8915 11.1394C16.1048 11.1518 16.275 11.3202 16.2876 11.5312V14.6843ZM12.4503 14.6843C12.4503 14.9143 12.2618 15.1007 12.0293 15.1007C11.7968 15.1007 11.6084 14.9143 11.6084 14.6843V11.5312C11.6181 11.3015 11.8142 11.123 12.0465 11.1326C12.2652 11.1416 12.4404 11.3149 12.4495 11.5312V14.6843H12.4503ZM10.8 15.1007H9.20527C8.97307 15.1002 8.78507 14.914 8.78507 14.6843V11.5312C8.79476 11.3015 8.99088 11.123 9.22315 11.1326C9.44186 11.1416 9.6171 11.3149 9.62622 11.5312V14.2673H10.8008C11.0335 14.2673 11.2221 14.4539 11.2221 14.684C11.2221 14.9141 11.0335 15.1006 10.8008 15.1006H10.8V15.1007Z" fill="white"/>
</svg>
