<svg width="30" height="31" viewBox="0 0 30 31" fill="none" xmlns="http://www.w3.org/2000/svg">
<path d="M30 15.2214C30 23.6279 23.2843 30.4427 15 30.4427C6.71573 30.4427 0 23.6279 0 15.2214C0 6.81483 6.71573 0 15 0C23.2843 0 30 6.81483 30 15.2214Z" fill="#7889A6"/>
<path d="M23.66 9.85329C22.9983 10.1465 22.2973 10.338 21.58 10.4215C22.3349 9.96293 22.8999 9.24171 23.17 8.39203C22.4614 8.82528 21.6826 9.12762 20.87 9.28502C20.3738 8.74833 19.7302 8.37521 19.0226 8.21409C18.3149 8.05297 17.5759 8.11127 16.9013 8.38138C16.2267 8.65148 15.6476 9.12095 15.2391 9.72898C14.8305 10.337 14.6114 11.0555 14.61 11.7914C14.6097 12.0747 14.6399 12.3571 14.7 12.6337C13.2582 12.5626 11.8475 12.1832 10.5602 11.5204C9.27289 10.8576 8.13805 9.92647 7.23 8.7878C6.76831 9.5997 6.62716 10.559 6.83501 11.4724C7.04286 12.3857 7.58424 13.1851 8.34999 13.7094C7.77769 13.6883 7.21872 13.5282 6.72 13.2425C6.71904 14.0916 7.00715 14.915 7.5356 15.5732C8.06405 16.2315 8.80038 16.6844 9.62 16.8551C9.2934 16.9402 8.95716 16.9812 8.62 16.9769C8.39248 16.9751 8.16533 16.9581 7.94 16.9261C8.1758 17.6545 8.62852 18.2907 9.23572 18.7469C9.84291 19.2031 10.5747 19.4569 11.33 19.4732C10.0436 20.4885 8.45973 21.0386 6.83 21.0359C6.5402 21.0513 6.24979 21.0513 5.95999 21.0359C7.51607 22.0548 9.31389 22.6296 11.1645 22.6999C13.0151 22.7702 14.8502 22.3333 16.477 21.4352C18.1038 20.5372 19.4621 19.2111 20.4093 17.5963C21.3566 15.9814 21.8577 14.1375 21.86 12.2583C21.86 12.0959 21.86 11.9437 21.86 11.7813C22.5614 11.2533 23.1728 10.6122 23.67 9.8837L23.66 9.85329Z" fill="#1E2024"/>
</svg>
