<svg width="20" height="20" viewBox="0 0 20 20" fill="none" xmlns="http://www.w3.org/2000/svg">
<path d="M8.97706 2.79619H5.57123C5.37604 2.80756 5.18268 2.75748 5.02662 2.65516C4.90104 2.55877 4.80828 2.43444 4.75838 2.29558C4.70753 2.13482 4.68291 1.96867 4.68523 1.80198C4.68429 1.6295 4.70061 1.45724 4.73399 1.28721C4.7561 1.10914 4.7914 0.932494 4.83967 0.758361C4.88097 0.589979 4.95228 0.428215 5.05101 0.278879C5.13315 0.156846 5.26289 0.0643143 5.41679 0.0179855C5.51349 -0.00124148 5.61389 -0.00171675 5.71083 0.0165653C5.80778 0.0348473 5.89888 0.0714538 5.97765 0.123772L6.83114 0.55389C7.15628 0.709018 7.46516 0.857112 7.76591 1.01224L8.57876 1.42824L9.17214 1.72443C9.3252 1.81301 9.4553 1.92827 9.55418 2.06287C9.63053 2.16788 9.66482 2.29181 9.65172 2.41544C9.64197 2.47024 9.61969 2.5228 9.58619 2.57003C9.55269 2.61725 9.50864 2.6582 9.45664 2.69045C9.30149 2.76829 9.12348 2.80503 8.94454 2.79619H8.97706Z" fill="#808994"/>
<path d="M10.9522 2.77494H14.3337C14.5289 2.78631 14.7222 2.73623 14.8783 2.6339C15.0022 2.5376 15.0923 2.41296 15.1384 2.27428C15.1961 2.11466 15.2236 1.94795 15.2197 1.78068C15.2197 1.59735 15.2197 1.42813 15.2197 1.26595C15.2197 1.10378 15.1465 0.934558 15.1059 0.751225C15.0695 0.5849 15.0008 0.425118 14.9027 0.278758C14.8205 0.156724 14.6908 0.0641929 14.5369 0.0178641C14.4418 -0.00251382 14.3428 -0.00548185 14.2462 0.00908439C14.1497 0.0236506 14.0577 0.0554297 13.976 0.102476L13.1225 0.532637C12.7974 0.680714 12.4885 0.835816 12.1715 0.990944L11.318 1.40699C11.0579 1.53391 10.8628 1.63262 10.749 1.70313C10.5821 1.78361 10.4421 1.9002 10.3426 2.04158C10.2663 2.14659 10.232 2.27051 10.2451 2.39414C10.2548 2.44895 10.2771 2.50151 10.3106 2.54873C10.3441 2.59596 10.3882 2.63691 10.4402 2.66915C10.6034 2.74871 10.7898 2.78547 10.9766 2.77494H10.9522Z" fill="#808994"/>
<path d="M8.62752 4.22044H1.3119C0.940891 4.17815 0.565359 4.2615 0.263333 4.45314C0.0873354 4.65527 0.000804806 4.90548 0.0194778 5.15827V7.12556C-0.0147841 7.27942 -0.00371571 7.43829 0.0516575 7.58744C0.107031 7.7366 0.204917 7.87119 0.336241 7.97878C0.467565 8.08638 0.628075 8.16348 0.802894 8.20292C0.977712 8.24236 1.16118 8.24289 1.33629 8.20443H8.65191L8.62752 4.22044Z" fill="#808994"/>
<path d="M11.3831 4.22045H18.6012C18.796 4.20011 18.9935 4.21396 19.182 4.2612C19.3706 4.30845 19.5462 4.38813 19.6985 4.49546C19.9064 4.71224 20.011 4.98964 19.9911 5.27108V7.16082C20.0162 7.43933 19.9206 7.71596 19.7229 7.93649C19.5768 8.03783 19.4086 8.11253 19.2284 8.15615C19.0483 8.19977 18.8598 8.2114 18.6743 8.19032H11.3587L11.3831 4.22045Z" fill="#808994"/>
<path d="M8.62752 9.34673H0.872965V17.632C0.850644 17.9482 0.904128 18.2649 1.03004 18.5622C1.15596 18.8596 1.35157 19.1311 1.60453 19.3595C2.24232 19.813 3.05874 20.0331 3.8805 19.973H8.62752V9.34673Z" fill="#808994"/>
<path d="M11.3831 9.34673H19.1051V17.5614C19.1394 17.9005 19.0843 18.242 18.944 18.5598C18.8036 18.8777 18.5817 19.1637 18.295 19.3961C18.0083 19.6285 17.6643 19.8012 17.2892 19.9011C16.9141 20.0011 16.5177 20.0257 16.1301 19.973H11.3831V9.34673Z" fill="#808994"/>
</svg>
