<svg width="28" height="28" viewBox="0 0 28 28" fill="none" xmlns="http://www.w3.org/2000/svg">
<path d="M0 13.8465C0 17.5188 1.475 21.0407 4.10051 23.6374C6.72601 26.2341 10.287 27.6929 14 27.6929C17.713 27.6929 21.274 26.2341 23.8995 23.6374C26.525 21.0407 28 17.5188 28 13.8465C28 10.1741 26.525 6.65225 23.8995 4.05553C21.274 1.45882 17.713 0 14 0C10.287 0 6.72601 1.45882 4.10051 4.05553C1.475 6.65225 0 10.1741 0 13.8465Z" fill="black"/>
<path d="M9.808 20.797C9.8547 20.7784 9.90466 20.7692 9.955 20.7698C10.0049 20.7701 10.0543 20.78 10.1003 20.7992C10.1463 20.8183 10.188 20.8462 10.2231 20.8813C10.2582 20.9164 10.286 20.9579 10.3048 21.0036C10.3237 21.0493 10.3333 21.0983 10.333 21.1476C10.3327 21.197 10.3226 21.2458 10.3033 21.2913C10.284 21.3368 10.2558 21.3781 10.2203 21.4128C10.1848 21.4475 10.1428 21.475 10.0966 21.4936C10.0504 21.5123 10.0009 21.5217 9.951 21.5215C9.88828 21.5214 9.82654 21.506 9.77128 21.4766C9.71602 21.4473 9.66894 21.4049 9.63421 21.3533C9.59949 21.3016 9.5782 21.2423 9.57223 21.1805C9.56626 21.1187 9.5758 21.0565 9.6 20.9993C9.61954 20.9536 9.64802 20.9121 9.6838 20.8773C9.71958 20.8425 9.76196 20.8151 9.8085 20.7965L9.808 20.797ZM13.432 21.4339H14.204V23.6706C14.203 23.7661 14.2025 23.8615 14.2065 23.9565C14.2995 23.9669 14.9475 23.9629 14.9855 23.952L14.987 23.9471C14.9883 23.9436 14.9889 23.9399 14.989 23.9362V21.4953L14.9895 21.4794C14.9894 21.4776 14.9894 21.4758 14.9895 21.474L14.9915 21.4631C14.9924 21.4616 14.9936 21.4603 14.995 21.4592L14.9975 21.4562L15.0025 21.4508H15.6275L15.709 21.1971V21.1966C15.755 21.0556 15.8005 20.9152 15.844 20.7723H13.425C13.414 20.8796 13.4185 21.3904 13.432 21.4339ZM20.5815 22.6569C20.8827 23.0882 21.184 23.5194 21.4855 23.9505L21.5 23.9703V23.9812L21.3085 23.9807C21.121 23.9802 20.9335 23.9797 20.746 23.9817C20.6975 23.9822 20.671 23.9654 20.645 23.9273C20.412 23.5974 20.1787 23.2677 19.945 22.9383L19.934 22.9234L19.9025 22.9516L19.8535 22.9961C19.8405 23.007 19.8285 23.0184 19.816 23.0302C19.7885 23.055 19.761 23.0807 19.732 23.1044C19.7201 23.1138 19.7107 23.1259 19.7046 23.1397C19.6986 23.1535 19.6959 23.1685 19.697 23.1835C19.698 23.364 19.698 23.5445 19.698 23.725V23.9575H18.94C18.9285 23.9189 18.926 20.8361 18.938 20.7728H19.697C19.698 20.8944 19.698 21.0156 19.698 21.1367V22.2449C19.722 22.236 19.737 22.2202 19.751 22.2054L19.7625 22.1935C19.9825 21.9789 20.2025 21.7628 20.4205 21.5457C20.4338 21.5315 20.4501 21.5204 20.4683 21.5131C20.4864 21.5059 20.506 21.5026 20.5255 21.5037C20.724 21.5047 20.9225 21.5047 21.1205 21.5047H21.392C21.336 21.562 21.282 21.6134 21.229 21.6644L21.149 21.741C21.084 21.8053 21.0185 21.8681 20.953 21.9314L20.9075 21.9754L20.8265 22.0526C20.7732 22.1029 20.7205 22.1538 20.6685 22.2054C20.6145 22.2593 20.562 22.3142 20.5085 22.371C20.484 22.3958 20.46 22.4215 20.4355 22.4472L20.4625 22.4868L20.5815 22.6569ZM13.0985 21.5061L13.124 21.5076L12.161 22.4373L13.2295 23.9683L13.2225 23.9802H12.995C12.82 23.9802 12.6445 23.9802 12.469 23.9812C12.4522 23.9825 12.4354 23.9791 12.4205 23.9714C12.4055 23.9637 12.3931 23.952 12.3845 23.9377L11.713 22.9857L11.685 22.9472L11.669 22.9259L11.6585 22.9333C11.6501 22.9391 11.6421 22.9454 11.6345 22.9521L11.5765 23.0045C11.5398 23.0385 11.5025 23.0718 11.4645 23.1044C11.4527 23.1139 11.4434 23.126 11.4373 23.1398C11.4312 23.1535 11.4285 23.1685 11.4295 23.1835C11.431 23.3616 11.431 23.5396 11.4305 23.7176V23.9575H10.6725C10.6605 23.9199 10.6575 20.838 10.6695 20.7728H11.4285C11.4315 20.839 11.431 20.9048 11.4305 20.9706V22.2534L11.452 22.2341L11.4805 22.2079C11.7075 21.9868 11.933 21.7643 12.158 21.5413C12.1696 21.5289 12.1837 21.5192 12.1994 21.5128C12.2151 21.5064 12.232 21.5035 12.249 21.5042C12.461 21.5052 12.6735 21.5052 12.886 21.5052H13.063L13.098 21.5066L13.0985 21.5061ZM7.781 21.433H7V20.7733H9.422L9.2035 21.4522H8.5675C8.5645 21.5056 8.565 21.5576 8.565 21.609V23.951C8.524 23.9634 7.8785 23.9673 7.7825 23.956C7.78053 23.8943 7.78003 23.8327 7.781 23.771V23.679V21.433ZM9.5775 23.9575H10.3315V21.7939H9.574C9.563 21.881 9.567 23.9189 9.5775 23.9575Z" fill="white"/>
<path d="M15.6789 22.5545C15.6789 21.8711 16.2214 21.3108 16.9119 21.2574C16.8758 21.2543 16.8396 21.2527 16.8034 21.2524C16.0624 21.2524 15.4619 21.836 15.4619 22.5545C15.4619 23.273 16.0624 23.8561 16.8034 23.8561C16.8399 23.8561 16.8759 23.8546 16.9119 23.8516C16.2219 23.7982 15.6789 23.2379 15.6789 22.5545Z" fill="#00F7EC"/>
<path d="M17.0217 21.2529C16.2812 21.2529 15.6807 21.836 15.6807 22.5545C15.6807 23.273 16.2807 23.8561 17.0217 23.8561C17.7627 23.8561 18.3632 23.2735 18.3632 22.5545C18.3632 21.8355 17.7627 21.2529 17.0217 21.2529ZM17.0157 23.2142C16.8428 23.2158 16.6764 23.1494 16.553 23.0297C16.4297 22.91 16.3594 22.7467 16.3577 22.5758C16.3577 22.2232 16.6527 21.9373 17.0157 21.9373C17.3792 21.9373 17.6737 22.2232 17.6737 22.5753C17.6737 22.9284 17.3787 23.2142 17.0157 23.2142Z" fill="white"/>
<path d="M18.3639 22.5545C18.3639 21.8711 17.8209 21.3108 17.1309 21.2574C17.1664 21.2544 17.2029 21.2524 17.2389 21.2524C17.9799 21.2524 18.5804 21.836 18.5804 22.5545C18.5804 23.273 17.9799 23.8561 17.2389 23.8561C17.2029 23.8561 17.1664 23.8546 17.1309 23.8516C17.8209 23.7982 18.3639 23.2379 18.3639 22.5545Z" fill="#FF004A"/>
<path d="M12.6425 11.8485C12.6435 11.8238 12.6465 11.7897 12.6465 11.7551C12.6525 11.3263 12.6595 10.8981 12.663 10.4693C12.666 10.1004 12.6655 9.73152 12.6665 9.36311C12.6665 9.31266 12.6735 9.26173 12.5995 9.25678C12.3235 9.23898 12.047 9.19744 11.772 9.20733C11.2753 9.22475 10.7855 9.3268 10.324 9.50899C9.93819 9.65789 9.57522 9.85911 9.24547 10.1069C8.7953 10.4437 8.41431 10.8625 8.12297 11.3407C7.89041 11.7295 7.71499 12.1491 7.60197 12.5869C7.48897 13.0112 7.49697 13.4414 7.50297 13.8736C7.50947 14.3538 7.62697 14.8107 7.80597 15.2523C8.02126 15.7796 8.33794 16.2606 8.73847 16.6686C9.16859 17.1127 9.68927 17.4613 10.266 17.6913C10.6828 17.8619 11.1249 17.9645 11.575 17.9949C12.085 18.0275 12.5915 17.9909 13.085 17.8614C13.5094 17.7492 13.9143 17.5744 14.286 17.3426C14.6294 17.1337 14.9412 16.8776 15.212 16.5821C15.5353 16.2284 15.7998 15.8261 15.9955 15.3903C16.2355 14.8503 16.3795 14.2875 16.384 13.7C16.396 12.0805 16.3915 10.4609 16.394 8.8409V8.68463C17.4415 9.41305 18.582 9.75773 19.826 9.80125V7.44537L19.754 7.43647C19.142 7.35735 18.5535 7.20256 18.0105 6.90239C17.5146 6.63341 17.1016 6.2366 16.8155 5.75413C16.5087 5.2344 16.3332 4.64915 16.304 4.04805C16.299 3.97238 16.271 3.95557 16.201 3.95607C15.508 3.96101 14.816 3.96249 14.123 3.96596C13.973 3.96694 13.972 3.96843 13.972 4.11728C13.9695 5.4945 13.969 6.87173 13.964 8.24896C13.957 10.143 13.9485 12.036 13.938 13.9295C13.937 14.1817 13.8915 14.419 13.7675 14.646C13.4795 15.1747 13.0535 15.5376 12.4665 15.6771C11.849 15.823 11.2605 15.7414 10.7475 15.3369C10.3615 15.0317 10.0795 14.6515 9.99747 14.1658C9.91997 13.7079 9.93447 13.2495 10.177 12.8257C10.344 12.5279 10.5797 12.2732 10.865 12.0825C11.2455 11.8293 11.669 11.7412 12.1205 11.7788C12.293 11.7937 12.4625 11.8238 12.6425 11.848V11.8485Z" fill="#00F7EC"/>
<path d="M12.6426 11.8488C12.4631 11.824 12.2941 11.7939 12.1221 11.7795C11.6706 11.7419 11.2471 11.8305 10.8671 12.0832C10.5771 12.276 10.3506 12.5258 10.1781 12.8269C9.93609 13.2502 9.92159 13.7086 9.99909 14.1671C10.0811 14.6527 10.3631 15.033 10.7491 15.3376C11.2621 15.7421 11.8511 15.8237 12.4676 15.6778C13.0551 15.5388 13.4811 15.1754 13.7691 14.6467C13.8926 14.4193 13.9386 14.1824 13.9396 13.9307L13.9656 8.24968C13.9706 6.87294 13.9706 5.49522 13.9731 4.11799C13.9731 3.96964 13.9741 3.96766 14.1246 3.96717C14.8171 3.9637 15.5096 3.96222 16.2021 3.95728C16.2721 3.95728 16.3011 3.9731 16.3051 4.04926C16.3347 4.65037 16.5104 5.23557 16.8171 5.75534C17.1071 6.24441 17.5106 6.62569 18.0121 6.90311C18.5546 7.20328 19.1431 7.35806 19.7556 7.43719L19.8276 7.44609V9.80246C18.5831 9.75845 17.4426 9.41426 16.3956 8.68584V8.84211C16.3931 10.4616 16.3976 12.0812 16.3856 13.7012C16.3811 14.2887 16.2371 14.8515 15.9971 15.3915C15.8017 15.8276 15.537 16.2299 15.2131 16.5833C14.9422 16.8783 14.6308 17.1343 14.2881 17.3438C13.9163 17.5754 13.5112 17.7502 13.0866 17.8621C12.5931 17.9921 12.0866 18.0287 11.5766 17.9961C11.1263 17.9657 10.6841 17.8632 10.2671 17.6925C9.69053 17.4623 9.17002 17.1135 8.74009 16.6693C8.3396 16.2615 8.02292 15.7807 7.80759 15.2535C7.62859 14.8114 7.51059 14.355 7.50409 13.8743C7.49859 13.4421 7.49109 13.0114 7.60359 12.5876C7.71659 12.1498 7.89201 11.7302 8.12459 11.3414C8.41553 10.8632 8.7964 10.4445 9.24659 10.1081C9.57593 9.85985 9.93857 9.65813 10.3241 9.50871C10.7856 9.32667 11.2755 9.22479 11.7721 9.20755C12.0471 9.19816 12.3236 9.24019 12.5991 9.2575C12.6741 9.26245 12.6671 9.31388 12.6666 9.36382C12.6651 9.73273 12.6666 10.1016 12.6631 10.4705C12.6591 10.8988 12.6526 11.3275 12.6466 11.7563C12.6476 11.7909 12.6441 11.824 12.6426 11.8483V11.8488Z" fill="#00F7EC"/>
<path d="M13.3155 12.7221C13.317 12.6978 13.3195 12.6637 13.32 12.6291C13.326 12.2009 13.3335 11.7721 13.3365 11.3434C13.3395 10.9745 13.339 10.6055 13.34 10.2371C13.34 10.1872 13.347 10.1358 13.273 10.1308C12.997 10.113 12.7205 10.0715 12.4455 10.0809C11.9488 10.0983 11.4587 10.2004 10.997 10.3825C10.6112 10.5318 10.2483 10.7333 9.91853 10.9814C9.4685 11.3182 9.08768 11.737 8.79653 12.2152C8.56397 12.604 8.38855 13.0236 8.27553 13.4614C8.16253 13.8857 8.17053 14.3159 8.17603 14.7481C8.18303 15.2283 8.30053 15.6852 8.47953 16.1268C8.69484 16.6541 9.01152 17.1351 9.41203 17.5431C9.84199 17.9872 10.3625 18.3358 10.939 18.5658C11.356 18.7366 11.7983 18.8393 12.2485 18.8699C12.7585 18.902 13.265 18.865 13.7585 18.7354C14.183 18.6234 14.5879 18.4487 14.9595 18.2171C15.3028 18.0081 15.6144 17.752 15.885 17.4566C16.209 17.1032 16.4739 16.7008 16.6695 16.2648C16.9095 15.7248 17.053 15.162 17.0575 14.5745C17.0695 12.955 17.065 11.3354 17.0675 9.71541V9.55915C18.115 10.2876 19.2555 10.6322 20.4995 10.6758V8.31939L20.4275 8.31049C19.8155 8.23137 19.227 8.07659 18.684 7.77642C18.1881 7.50745 17.7752 7.11064 17.489 6.62815C17.1821 6.10846 17.0065 5.52321 16.977 4.92207C16.973 4.84641 16.9445 4.82959 16.8745 4.83009C16.182 4.83503 15.4895 4.83701 14.7965 4.83998C14.6465 4.84097 14.6455 4.84295 14.6455 4.9913C14.6425 6.36853 14.6425 7.74576 14.6375 9.12298C14.6305 11.017 14.622 12.91 14.6115 14.8035C14.6105 15.0557 14.565 15.2931 14.441 15.52C14.153 16.0482 13.727 16.4117 13.1395 16.5506C12.5225 16.6965 11.9345 16.6154 11.421 16.2104C11.035 15.9063 10.753 15.5255 10.671 15.0399C10.5935 14.5819 10.608 14.1235 10.8505 13.6997C11.0175 13.4018 11.2534 13.1473 11.539 12.957C11.919 12.7038 12.3425 12.6158 12.794 12.6528C12.9665 12.6677 13.136 12.6973 13.3155 12.7221Z" fill="#FF004A"/>
<path d="M13.3155 12.7218C13.136 12.6971 12.967 12.6674 12.795 12.6526C12.3435 12.6155 11.92 12.7035 11.54 12.9567C11.25 13.1496 11.0235 13.3993 10.8515 13.6995C10.609 14.1233 10.5945 14.5817 10.6715 15.0396C10.754 15.5252 11.036 15.906 11.4215 16.2106C11.935 16.6151 12.524 16.6967 13.1405 16.5509C13.728 16.4114 14.154 16.0484 14.442 15.5198C14.5655 15.2923 14.6115 15.0554 14.6125 14.8032L14.6385 9.12272C14.6435 7.7455 14.6435 6.36827 14.646 4.99153C14.646 4.84269 14.647 4.84071 14.7975 4.84021C15.49 4.83675 16.1825 4.83477 16.8755 4.83032C16.9455 4.83032 16.974 4.84615 16.978 4.9223C17.0077 5.52341 17.1833 6.10861 17.49 6.62838C17.7762 7.11071 18.1892 7.50735 18.685 7.77616C19.2275 8.07633 19.816 8.23111 20.4285 8.31023L20.5005 8.31913V10.676C19.256 10.6315 18.1155 10.2878 17.0685 9.55938V9.71565C17.066 11.3357 17.0705 12.9547 17.0585 14.5748C17.054 15.1623 16.91 15.725 16.6705 16.265C16.475 16.7011 16.2101 17.1035 15.886 17.4568C15.6152 17.7519 15.3038 18.0079 14.961 18.2174C14.5892 18.449 14.1841 18.6238 13.7595 18.7356C13.266 18.8657 12.7595 18.9023 12.2495 18.8696C11.7993 18.8392 11.357 18.7367 10.94 18.566C10.3634 18.3358 9.84294 17.9871 9.41301 17.5429C9.01253 17.1348 8.69585 16.6538 8.48051 16.1266C8.30151 15.6854 8.18351 15.2285 8.17701 14.7478C8.17151 14.3156 8.16351 13.8849 8.27601 13.4611C8.38902 13.0234 8.56445 12.6038 8.79701 12.2149C9.08806 11.7367 9.4691 11.318 9.91951 10.9816C10.2489 10.7335 10.6115 10.5318 10.997 10.3823C11.4587 10.2001 11.9487 10.0981 12.4455 10.0806C12.7205 10.0712 12.997 10.1132 13.273 10.131C13.3475 10.136 13.341 10.1869 13.34 10.2374C13.3385 10.6058 13.34 10.9747 13.3365 11.3436C13.333 11.7723 13.326 12.2011 13.32 12.6293C13.32 12.6635 13.317 12.6976 13.3155 12.7218Z" fill="#FF004A"/>
<path d="M19.82 8.18801C19.4208 8.09946 19.0363 7.95544 18.678 7.76025C18.1273 7.46174 17.6801 7.00636 17.3945 6.45325C17.1642 6.24565 16.9672 6.00471 16.81 5.73867C16.6388 5.45033 16.5082 5.1402 16.422 4.81689C15.8785 4.81986 15.3345 4.82184 14.7905 4.82431C14.6405 4.8253 14.64 4.82678 14.6395 4.97563C14.637 6.35237 14.637 7.73009 14.632 9.10682C14.625 11.0008 14.6165 12.8943 14.606 14.7878C14.6045 15.04 14.559 15.2769 14.435 15.5039C14.147 16.0325 13.7215 16.396 13.134 16.535C12.517 16.6808 11.9285 16.5992 11.415 16.1947C11.1125 15.9559 10.8735 15.6705 10.745 15.3239L10.741 15.3209C10.355 15.0168 10.073 14.636 9.99098 14.1504C9.91398 13.6925 9.92798 13.2341 10.171 12.8103C10.3378 12.5124 10.5736 12.2579 10.859 12.0675C11.2395 11.8143 11.6625 11.7263 12.114 11.7639C12.2855 11.7777 12.4555 11.8084 12.6345 11.8326C12.636 11.8084 12.639 11.7742 12.6395 11.7396C12.645 11.3109 12.6525 10.8826 12.6555 10.4539C12.657 10.3253 12.6575 10.1962 12.6575 10.0672C12.5842 10.0636 12.5108 10.0629 12.4375 10.0652C11.9411 10.0825 11.4514 10.1844 10.99 10.3664C10.6042 10.5154 10.2412 10.7168 9.91148 10.9647C9.46131 11.3016 9.08032 11.7203 8.78898 12.1985C8.55641 12.5874 8.38099 13.007 8.26798 13.4447C8.15498 13.869 8.16298 14.2992 8.16898 14.7315C8.17548 15.2121 8.29298 15.6686 8.47198 16.1102C8.55048 16.303 8.64298 16.4909 8.74898 16.6704C9.17565 17.1065 9.69006 17.4491 10.259 17.6763C10.6759 17.8472 11.1182 17.9499 11.5685 17.9804C12.0785 18.0126 12.585 17.976 13.0785 17.8464C13.5029 17.7343 13.9078 17.5594 14.2795 17.3277C14.6227 17.1186 14.9343 16.8626 15.205 16.5671C15.5288 16.2136 15.7934 15.8113 15.989 15.3753C16.229 14.8358 16.373 14.2725 16.377 13.6851C16.389 12.0655 16.385 10.446 16.387 8.82643V8.66967C17.4355 9.39859 18.5755 9.74277 19.82 9.78629V8.18801Z" fill="white"/>
</svg>
