<svg width="2" height="2" viewBox="0 0 2 2" fill="none" xmlns="http://www.w3.org/2000/svg">
<path d="M0.048509 1.42089C0.0888902 1.47869 0.153492 1.5193 0.238626 1.54042C0.32376 1.56154 0.427758 1.56274 0.544682 1.54397C0.661606 1.52519 0.789165 1.4868 0.920076 1.43098C1.05099 1.37517 1.18269 1.30303 1.30765 1.21868C1.43262 1.13432 1.5484 1.03941 1.64839 0.939368C1.74839 0.839322 1.83063 0.736098 1.89042 0.635591C1.95022 0.535083 1.98639 0.43926 1.99689 0.353595C2.00738 0.267929 1.99198 0.194099 1.95157 0.136319C1.91119 0.0785212 1.84659 0.0379037 1.76146 0.016786C1.67632 -0.00433178 1.57232 -0.00553607 1.4554 0.0132415C1.33848 0.0320191 1.21092 0.0704109 1.08001 0.126225C0.949095 0.182039 0.817397 0.254181 0.692432 0.338533C0.567466 0.422884 0.451681 0.517793 0.351689 0.61784C0.251696 0.717886 0.169455 0.82111 0.10966 0.921617C0.0498655 1.02213 0.0136889 1.11795 0.00319654 1.20361C-0.00729581 1.28928 0.00810154 1.36311 0.048509 1.42089Z" fill="#FEFEFE"/>
</svg>
