<svg width="12" height="12" viewBox="0 0 12 12" fill="none" xmlns="http://www.w3.org/2000/svg">
<path d="M6 0C2.68661 0 0 2.68661 0 6C0 9.31339 2.68661 12 6 12C9.31339 12 12 9.31339 12 6C12 2.68661 9.31339 0 6 0ZM5.99866 9.61473C5.59955 9.61473 5.27545 9.29063 5.27545 8.89152C5.27545 8.49241 5.59955 8.1683 5.99866 8.1683C6.39777 8.1683 6.72188 8.49241 6.72188 8.89152C6.72054 9.29196 6.39777 9.61473 5.99866 9.61473ZM6.68705 6.72054C6.66696 7.0942 6.36429 7.39152 6.00402 7.43036C6.0308 7.43304 6.05357 7.44509 6.08036 7.44509H5.93036C5.9558 7.44509 5.97991 7.43304 6.00536 7.43036C5.64375 7.39152 5.34777 7.10089 5.33036 6.72054L5.16429 3.10848C5.14554 2.70804 5.45893 2.38259 5.85938 2.38259H6.19286C6.59464 2.38259 6.90402 2.7 6.88125 3.10848L6.68705 6.72054Z" fill="#808994"/>
</svg>
