<svg width="14" height="14" viewBox="0 0 14 14" fill="none" xmlns="http://www.w3.org/2000/svg">
<path d="M12.2527 5.83142e-05H0.767619C0.667276 -0.00114482 0.567673 0.0162798 0.474596 0.051359C0.381519 0.0864382 0.296821 0.13844 0.225411 0.204374C0.154001 0.270308 0.0973034 0.348888 0.0586091 0.435476C0.0199148 0.522064 -8.24499e-06 0.614939 2.55963e-09 0.708784V13.5663C0.00239206 13.6527 0.0316008 13.7365 0.0840662 13.8076C0.136532 13.8788 0.209987 13.9341 0.295477 13.9668C0.380967 13.9996 0.474799 14.0084 0.565534 13.9921C0.656269 13.9758 0.739991 13.9352 0.806487 13.8753L2.31257 12.4123C2.35802 12.3669 2.41294 12.3307 2.47395 12.306C2.53495 12.2813 2.60074 12.2685 2.66723 12.2685C2.73373 12.2685 2.79951 12.2813 2.86052 12.306C2.92152 12.3307 2.97645 12.3669 3.02189 12.4123L4.11988 13.5936C4.16604 13.6378 4.2212 13.673 4.2821 13.697C4.34301 13.721 4.40844 13.7333 4.47454 13.7333C4.54063 13.7333 4.60606 13.721 4.66697 13.697C4.72787 13.673 4.78303 13.6378 4.8292 13.5936L6.16038 12.3578C6.20504 12.3112 6.2597 12.2739 6.32081 12.2484C6.38193 12.2228 6.44811 12.2096 6.51504 12.2096C6.58197 12.2096 6.64815 12.2228 6.70926 12.2484C6.77038 12.2739 6.82504 12.3112 6.8697 12.3578L7.96769 13.539C8.01313 13.5844 8.06806 13.6206 8.12906 13.6454C8.19007 13.6701 8.25585 13.6829 8.32234 13.6829C8.38884 13.6829 8.45462 13.6701 8.51563 13.6454C8.57663 13.6206 8.63156 13.5844 8.677 13.539L10.0082 12.3033C10.0536 12.2579 10.1086 12.2217 10.1696 12.197C10.2306 12.1722 10.2964 12.1595 10.3628 12.1595C10.4293 12.1595 10.4951 12.1722 10.5561 12.197C10.6171 12.2217 10.6721 12.2579 10.7175 12.3033L12.1361 13.6936C12.227 13.7768 12.3491 13.8234 12.4762 13.8234C12.6034 13.8234 12.7255 13.7768 12.8163 13.6936C12.8971 13.6284 12.9616 13.5474 13.0053 13.4563C13.0489 13.3652 13.0707 13.2663 13.0689 13.1665V0.726975C13.0614 0.536535 12.9752 0.35625 12.8284 0.224062C12.6816 0.0918742 12.4857 0.018063 12.2819 0.0181938L12.2527 5.83142e-05Z" fill="white"/>
</svg>
