<svg width="20" height="20" viewBox="0 0 20 20" fill="none" xmlns="http://www.w3.org/2000/svg">
<path d="M10 0C15.5228 0 20 4.47715 20 10C20 15.5228 15.5228 20 10 20C4.47715 20 0 15.5228 0 10C0 4.47715 4.47715 0 10 0ZM12.2188 5.45508C12.1094 5.45508 12.0176 5.4913 11.9355 5.57324C11.8535 5.65534 11.8174 5.74699 11.8174 5.85645V7.46191H10.4023C7.41005 7.46199 5.56705 8.3109 4.88281 10.0078C4.65476 10.5643 4.5459 11.2671 4.5459 12.1064C4.54597 12.8089 4.81041 13.7581 5.34863 14.9531C5.35786 14.9895 5.3849 15.035 5.41211 15.1074C5.43948 15.1804 5.46677 15.2451 5.49414 15.2998C5.52147 15.3544 5.54885 15.4001 5.57617 15.4365C5.62179 15.5094 5.68616 15.5459 5.75 15.5459C5.81372 15.5458 5.85907 15.527 5.89551 15.4814C5.93185 15.445 5.95013 15.3908 5.9502 15.3271C5.9502 15.2907 5.94174 15.2351 5.93262 15.1621C5.92351 15.0894 5.91407 15.0439 5.91406 15.0166C5.89582 14.7338 5.88672 14.4693 5.88672 14.2412C5.88672 13.8215 5.92311 13.4382 5.99609 13.1006C6.0782 12.763 6.17892 12.4709 6.30664 12.2246C6.43432 11.9785 6.60704 11.7683 6.80762 11.5859C7.01732 11.4127 7.2366 11.267 7.47363 11.1484C7.71084 11.039 7.99415 10.9477 8.31348 10.8838C8.64192 10.8199 8.96159 10.7744 9.29004 10.7471C9.60927 10.7288 9.98317 10.71 10.3936 10.71H11.8076V12.3252C11.8076 12.4346 11.8447 12.5263 11.9268 12.6084C12.0087 12.6902 12.0998 12.7265 12.209 12.7266C12.3184 12.7266 12.4101 12.6904 12.4922 12.6084L15.7217 9.37793C15.8036 9.29592 15.8407 9.205 15.8408 9.0957C15.8408 8.98622 15.8035 8.88582 15.7305 8.80371L12.501 5.57324C12.4191 5.49146 12.3279 5.45517 12.2188 5.45508Z" fill="#85D420"/>
</svg>
