<svg width="18" height="18" viewBox="0 0 18 18" fill="none" xmlns="http://www.w3.org/2000/svg">
<path d="M7.02365 17.9999C3.14479 17.9999 0 14.8552 0 10.9764V7.02357C0 3.14478 3.14479 0 7.02365 0L10.9765 1.44638e-05C14.8553 1.44638e-05 18 3.1448 18 7.02357V10.9764C18 14.8552 14.8553 18 10.9764 18L7.02365 17.9999ZM7.02365 16.4705H10.9764C14.0112 16.4705 16.4707 14.0105 16.4707 10.9764V7.02357C16.4707 3.98878 14.0106 1.52937 10.9765 1.52937H7.02365C3.98885 1.52937 1.52942 3.98943 1.52942 7.02357V10.9764C1.52942 14.0111 3.98952 16.4705 7.02365 16.4705ZM9.00035 6.9689C8.54167 6.9689 8.16302 6.62823 8.103 6.18624L8.09498 6.06354V6.00554C8.09498 5.50556 8.50036 5.09953 9.00107 5.09953C9.45975 5.09953 9.83841 5.4402 9.89835 5.88219L9.90637 6.00489V6.06289C9.90637 6.56287 9.50099 6.9689 9.00035 6.9689ZM9.00035 13.4191C8.54167 13.4191 8.16302 13.0784 8.103 12.6365L8.09498 12.5138V8.6263C8.09498 8.12631 8.50036 7.72028 9.00107 7.72028C9.45975 7.72028 9.83841 8.06095 9.89835 8.50294L9.90637 8.62565V12.5132C9.90637 13.0138 9.50099 13.4191 9.00035 13.4191Z" fill="white"/>
</svg>
