<svg width="23" height="23" viewBox="0 0 23 23" fill="none" xmlns="http://www.w3.org/2000/svg">
<path d="M11.2927 0.139158C11.3624 -0.0466341 11.6376 -0.0466329 11.7073 0.139159C12.2449 1.57334 13.7786 5.33969 15.7192 7.28028C17.6598 9.22087 21.4262 10.7546 22.8603 11.2922C23.0461 11.3619 23.0461 11.6371 22.8603 11.7068C21.4262 12.2444 17.6598 13.7781 15.7192 15.7187C13.7786 17.6593 12.2449 21.4257 11.7073 22.8598C11.6376 23.0456 11.3624 23.0456 11.2927 22.8598C10.7551 21.4256 9.22138 17.6593 7.28079 15.7187C5.3402 13.7781 1.57384 12.2444 0.139665 11.7068C-0.0461274 11.6371 -0.0461262 11.3619 0.139666 11.2922C1.57385 10.7546 5.3402 9.22087 7.28079 7.28028C9.22138 5.33969 10.7551 1.57334 11.2927 0.139158Z" fill="#FAFF01"/>
</svg>
