<svg width="30" height="31" viewBox="0 0 30 31" fill="none" xmlns="http://www.w3.org/2000/svg">
<path d="M30 15.2214C30 23.6279 23.2843 30.4427 15 30.4427C6.71573 30.4427 0 23.6279 0 15.2214C0 6.81483 6.71573 0 15 0C23.2843 0 30 6.81483 30 15.2214Z" fill="#7889A6"/>
<path d="M22.72 13.5267C21.2772 13.5223 19.8743 13.0454 18.72 12.167V18.3366C18.6691 19.4001 18.3118 20.4249 17.6923 21.2842C17.0728 22.1435 16.2184 22.7994 15.2351 23.1706C14.2517 23.5418 13.1826 23.612 12.1603 23.3725C11.1381 23.1329 10.2075 22.5942 9.48411 21.8231C8.7607 21.0519 8.27622 20.0823 8.09074 19.0344C7.90526 17.9865 8.02692 16.9064 8.44065 15.928C8.85439 14.9496 9.542 14.1159 10.4182 13.5304C11.2945 12.9448 12.3208 12.633 13.37 12.6337C13.6582 12.6317 13.9459 12.6555 14.23 12.7047V15.9825C13.9632 15.8731 13.6778 15.8179 13.39 15.8201C12.8892 15.7957 12.3926 15.9242 11.9644 16.1889C11.5361 16.4536 11.1958 16.8423 10.9873 17.305C10.7788 17.7678 10.7117 18.2833 10.7945 18.7851C10.8774 19.2869 11.1065 19.7521 11.4522 20.1206C11.798 20.4891 12.2446 20.744 12.7345 20.8526C13.2244 20.9612 13.7351 20.9183 14.2007 20.7297C14.6664 20.541 15.0657 20.2151 15.3472 19.794C15.6287 19.3729 15.7794 18.8759 15.78 18.3671V6.08857H18.78C18.7531 7.19308 19.1592 8.26326 19.9092 9.06422C20.6591 9.86518 21.6916 10.3314 22.78 10.3607V13.5267" fill="#191E24"/>
</svg>
