<svg width="33" height="24" viewBox="0 0 33 24" fill="none" xmlns="http://www.w3.org/2000/svg">
<path d="M2.78243 11.3778L9.27752 16.4967C9.51879 16.6882 9.81827 16.7925 10.1269 16.7925C10.4355 16.7925 10.735 16.6882 10.9762 16.4967L30.7876 0.307887C30.9251 0.19489 31.0837 0.110089 31.2543 0.0583745C31.4249 0.00666028 31.6041 -0.0109485 31.7815 0.00656639C31.959 0.0240813 32.1312 0.0763725 32.2883 0.160425C32.4453 0.244478 32.5841 0.358635 32.6967 0.496312C32.9097 0.757656 33.017 1.08873 32.9975 1.42468C32.978 1.76063 32.8333 2.07725 32.5915 2.31251L11.1971 23.0653C11.0689 23.1896 10.9174 23.2874 10.751 23.3531C10.5847 23.4188 10.407 23.4511 10.2281 23.4482C10.0492 23.4453 9.87267 23.4072 9.70862 23.3361C9.54457 23.265 9.39629 23.1623 9.27227 23.0339L0.373731 13.775C0.237666 13.6331 0.134434 13.4632 0.0712731 13.2774C0.00811198 13.0916 -0.0134447 12.8943 0.00810124 12.6993C0.0296471 12.5044 0.0937694 12.3164 0.195996 12.1487C0.298222 11.981 0.43607 11.8376 0.599872 11.7285L1.1889 11.3307C1.42553 11.1702 1.70712 11.0883 1.99336 11.0968C2.27959 11.1052 2.55579 11.2036 2.78243 11.3778Z" fill="white"/>
</svg>
