<svg width="40" height="40" viewBox="0 0 40 40" fill="none" xmlns="http://www.w3.org/2000/svg">
<circle opacity="0.5" cx="20" cy="20" r="19" stroke="white" stroke-width="2"/>
<path opacity="0.5" d="M26.364 13.364C26.7545 13.7545 26.7545 14.3877 26.364 14.7782L21.4135 19.7286L26.3633 24.6784C26.7538 25.0689 26.7538 25.702 26.3633 26.0926C25.9727 26.4828 25.3395 26.483 24.9491 26.0926L19.9993 21.1428L15.0503 26.0919C14.6597 26.4824 14.0266 26.4824 13.636 26.0919C13.2457 25.7013 13.2456 25.0681 13.636 24.6777L18.5851 19.7286L13.6353 14.7789C13.2449 14.3884 13.2451 13.7552 13.6353 13.3647C14.0259 12.9741 14.659 12.9741 15.0496 13.3647L19.9993 18.3144L24.9497 13.364C25.3402 12.9735 25.9734 12.9737 26.364 13.364Z" fill="white"/>
</svg>
