<svg width="14" height="14" viewBox="0 0 14 14" fill="none" xmlns="http://www.w3.org/2000/svg">
<path d="M7.41373 0.246916L9.22739 4.08918C9.26139 4.15883 9.31038 4.21926 9.3705 4.26564C9.43062 4.31203 9.50021 4.34311 9.57377 4.35643L13.6196 4.97158C13.7018 4.99002 13.7779 5.03068 13.8404 5.08952C13.9029 5.14835 13.9496 5.22332 13.9759 5.30695C14.0021 5.39058 14.0071 5.47996 13.9901 5.56621C13.9732 5.65245 13.935 5.73255 13.8794 5.79854L10.9497 8.79369C10.897 8.84925 10.8574 8.9169 10.834 8.9913C10.8106 9.06569 10.8041 9.14477 10.815 9.22227L11.5077 13.4478C11.5148 13.535 11.5001 13.6226 11.4651 13.7021C11.4301 13.7816 11.3759 13.8501 11.308 13.901C11.24 13.9518 11.1606 13.9833 11.0775 13.9922C10.9945 14.0012 10.9106 13.9873 10.8342 13.952L7.21649 11.9351C7.14934 11.8996 7.07519 11.8811 7 11.8811C6.92481 11.8811 6.85066 11.8996 6.78351 11.9351L3.1658 13.952C3.0894 13.9873 3.00553 14.0012 2.92246 13.9922C2.83938 13.9833 2.75996 13.9518 2.69201 13.901C2.62405 13.8501 2.5699 13.7816 2.53489 13.7021C2.49987 13.6226 2.48519 13.535 2.4923 13.4478L3.18505 9.22227C3.1959 9.14477 3.18937 9.06569 3.16599 8.9913C3.14261 8.9169 3.10302 8.84925 3.05035 8.79369L0.120577 5.79854C0.0649521 5.73255 0.0267801 5.65245 0.00985983 5.56621C-0.00706048 5.47996 -0.00213996 5.39058 0.0241329 5.30695C0.0504057 5.22332 0.0971144 5.14835 0.159611 5.08952C0.222109 5.03068 0.298215 4.99002 0.380359 4.97158L4.42623 4.35643C4.49979 4.34311 4.56938 4.31203 4.6295 4.26564C4.68962 4.21926 4.73861 4.15883 4.77261 4.08918L6.58627 0.246916C6.62887 0.171673 6.68941 0.109339 6.76195 0.0660453C6.83449 0.022752 6.91653 0 7 0C7.08347 0 7.16551 0.022752 7.23805 0.0660453C7.31059 0.109339 7.37113 0.171673 7.41373 0.246916Z" fill="#FFC700"/>
</svg>
