<svg width="20" height="20" viewBox="0 0 20 20" fill="none" xmlns="http://www.w3.org/2000/svg">
<g clip-path="url(#clip0_0_38888)">
<mask id="mask0_0_38888" style="mask-type:luminance" maskUnits="userSpaceOnUse" x="0" y="-1" width="20" height="22">
<path d="M19.4559 -0.00976562H0.0078125V20.0179H19.4559V-0.00976562Z" fill="white"/>
</mask>
<g mask="url(#mask0_0_38888)">
<path d="M6.71651 16.2449C6.18756 16.2474 5.6812 16.4585 5.30717 16.8325C4.93314 17.2066 4.72177 17.7132 4.71935 18.2421V18.4906H3.72526C3.62615 18.4906 3.52831 18.5102 3.43674 18.5482C3.34517 18.5861 3.26189 18.6417 3.19181 18.7117C3.12173 18.7818 3.06616 18.8649 3.02823 18.9564C2.9903 19.048 2.9707 19.1463 2.9707 19.2454C2.97312 19.444 3.05368 19.6335 3.19496 19.773C3.33623 19.9126 3.52668 19.9908 3.72526 19.9908H15.6903C15.8889 19.9908 16.0798 19.9126 16.221 19.773C16.3623 19.6335 16.4429 19.444 16.4453 19.2454C16.4453 19.1463 16.4257 19.048 16.3878 18.9564C16.3498 18.8649 16.2943 18.7818 16.2242 18.7117C16.1541 18.6417 16.0708 18.5861 15.9793 18.5482C15.8877 18.5102 15.7894 18.4906 15.6903 18.4906H14.6872V18.2421C14.6872 17.7124 14.4766 17.2044 14.1021 16.8298C13.7275 16.4553 13.2197 16.2449 12.69 16.2449H10.4443V13.9532C9.94615 14.0145 9.44197 14.0145 8.94378 13.9532V16.2449H6.71651Z" fill="#808994"/>
<path d="M9.71775 13.9899C8.33278 13.9868 6.98018 13.571 5.83262 12.7956C4.68507 12.0202 3.79464 10.9203 3.27505 9.63648C2.63785 9.38546 2.06048 9.00286 1.58123 8.51363C0.618511 7.52633 0.0662418 6.21072 0.0352676 4.83209C0.0321111 4.49127 0.0960773 4.15323 0.224019 3.83732C0.35196 3.52142 0.541408 3.23388 0.780835 2.99131C1.02123 2.74893 1.30796 2.55793 1.62437 2.42978C1.94079 2.30163 2.2803 2.23895 2.62161 2.24575H3.18292C3.50714 1.56991 4.01657 1.00006 4.65203 0.602488C5.28749 0.204917 6.02277 -0.00396364 6.77234 5.69666e-05H12.7733C13.5228 -0.00396364 14.2581 0.204917 14.8936 0.602488C15.529 1.00006 16.0385 1.56991 16.3627 2.24575H16.9244C17.2624 2.2433 17.5973 2.30811 17.91 2.4363C18.2227 2.56448 18.5065 2.7535 18.7454 2.99244C18.9844 3.23138 19.1736 3.51546 19.3018 3.82811C19.43 4.14077 19.4944 4.47576 19.4919 4.81366C19.4643 6.19122 18.9151 7.50698 17.9549 8.49521C17.4708 8.98277 16.891 9.36503 16.2521 9.61805C15.7336 10.9026 14.8437 12.0032 13.6959 12.7787C12.5481 13.5543 11.1947 13.9698 9.80943 13.9717L9.71775 13.9899ZM9.71775 8.9554C9.80308 8.94132 9.88994 8.94132 9.97526 8.9554L10.8956 9.31448C11.0063 9.36164 11.125 9.3865 11.2453 9.38796C11.3256 9.39093 11.4058 9.37697 11.4803 9.34684C11.5549 9.3167 11.6224 9.27112 11.6781 9.21314C11.7453 9.13196 11.7947 9.03775 11.8232 8.9363C11.8518 8.83485 11.8589 8.7285 11.8439 8.62419L11.7886 7.64852C11.788 7.47632 11.8428 7.30846 11.945 7.1699L12.5706 6.40591C12.6652 6.32439 12.7337 6.21693 12.7674 6.09672C12.8012 5.97651 12.799 5.84907 12.7607 5.73023C12.7224 5.61139 12.6498 5.50632 12.5522 5.42845C12.4546 5.35058 12.3363 5.30322 12.212 5.29228L11.2916 5.05297C11.126 4.99577 10.9838 4.88599 10.8867 4.74018L10.3528 3.92091C10.2961 3.81128 10.2119 3.71808 10.1087 3.65037C10.0056 3.58266 9.88672 3.54279 9.76359 3.53442C9.64092 3.54449 9.5227 3.58509 9.4198 3.65262C9.31689 3.72015 9.23247 3.81238 9.17442 3.92091L8.64996 4.74018C8.54948 4.88664 8.40394 4.99632 8.23561 5.05297L7.31522 5.29228C7.19084 5.30322 7.07263 5.35058 6.97502 5.42845C6.87741 5.50632 6.8048 5.61139 6.76649 5.73023C6.72819 5.84907 6.72599 5.97651 6.75975 6.09672C6.79352 6.21693 6.86201 6.32439 6.95659 6.40591L7.57318 7.1699C7.68294 7.30448 7.73864 7.4751 7.72957 7.64852L7.6743 8.6334C7.66182 8.73689 7.67116 8.84167 7.70126 8.94147C7.73136 9.04127 7.78151 9.1338 7.84912 9.21314C7.90369 9.2726 7.97113 9.31928 8.04596 9.34953C8.12079 9.37978 8.20133 9.39279 8.2819 9.38796C8.39906 9.38532 8.51476 9.36048 8.62255 9.31448L9.54293 8.9554C9.62831 8.94196 9.71507 8.94196 9.80044 8.9554H9.71775Z" fill="#808994"/>
</g>
</g>
<defs>
<clipPath id="clip0_0_38888">
<rect width="19.4386" height="20" fill="white"/>
</clipPath>
</defs>
</svg>
