<svg width="14" height="14" viewBox="0 0 14 14" fill="none" xmlns="http://www.w3.org/2000/svg">
<path d="M11.0299 12.0297C12.3475 10.8586 13.1767 9.16248 13.1767 7.27487C13.1767 6.38894 12.9938 5.54571 12.6644 4.77827C12.529 4.46551 12.5834 4.10314 12.8124 3.84824C13.1781 3.43903 13.4 2.90306 13.4 2.31473C13.4 1.03612 12.3503 0 11.055 0C10.3389 0 9.69825 0.316898 9.26833 0.81429C9.045 1.07332 8.69046 1.17941 8.35825 1.09261C7.82923 0.954827 7.27369 0.881803 6.7 0.881803C6.12631 0.881803 5.57077 0.954827 5.04175 1.09399C4.70954 1.18079 4.355 1.07332 4.13167 0.815668C3.70175 0.316898 3.06106 0 2.345 0C1.04967 0 0 1.03612 0 2.31473C0 2.90306 0.221937 3.43903 0.587646 3.84824C0.816562 4.10314 0.869604 4.46551 0.735604 4.77827C0.406187 5.54571 0.223333 6.38894 0.223333 7.27487C0.223333 9.16248 1.05246 10.8586 2.37012 12.0297C2.56135 12.1992 2.57112 12.4913 2.38967 12.6704L1.80621 13.2463C1.63173 13.4186 1.63173 13.6983 1.80621 13.8705C1.89415 13.9573 2.00721 14 2.12167 14C2.23612 14 2.35058 13.9573 2.43712 13.8705L3.37233 12.9473C3.44212 12.8785 3.54821 12.8619 3.63475 12.9088C4.54762 13.3924 5.59171 13.6679 6.7 13.6679C7.80829 13.6679 8.85237 13.3924 9.76525 12.9074C9.85179 12.8619 9.95787 12.8785 10.0277 12.946L10.9629 13.8691C11.0508 13.9559 11.1639 13.9986 11.2783 13.9986C11.3928 13.9986 11.5072 13.9559 11.5938 13.8691C11.7683 13.6969 11.7683 13.4172 11.5938 13.245L11.0103 12.669C10.8289 12.4913 10.8386 12.1992 11.0299 12.0297ZM10.2873 7.50773C10.2803 7.74747 10.0751 7.93623 9.83085 7.93623H7.14667C6.65394 7.93623 6.25333 7.54079 6.25333 7.05442V3.53686C6.25333 3.29712 6.44456 3.0932 6.68744 3.08631C6.94008 3.07942 7.14667 3.2792 7.14667 3.52721V6.83397C7.14667 6.95522 7.24717 7.05442 7.37 7.05442H9.84062C10.0919 7.05442 10.2943 7.25834 10.2873 7.50773ZM9.91321 1.43155C10.1882 1.08572 10.6223 0.866647 11.1052 0.883181C11.8618 0.907982 12.4774 1.51284 12.5067 2.25962C12.522 2.66608 12.3657 3.03671 12.1047 3.30676C12.0097 3.40321 11.852 3.39632 11.7669 3.2916C11.2714 2.67985 10.6656 2.15904 9.97742 1.75947C9.85877 1.69058 9.82806 1.53764 9.91321 1.43155ZM0.894729 2.25962C0.924042 1.51284 1.5396 0.907982 2.29615 0.883181C2.7791 0.866647 3.21321 1.08572 3.48819 1.43155C3.57194 1.53764 3.54123 1.69058 3.42537 1.75809C2.73723 2.15766 2.13144 2.6771 1.63592 3.29023C1.55077 3.39494 1.39304 3.40183 1.29812 3.30538C1.03571 3.03533 0.879375 2.6647 0.894729 2.25962Z" fill="#1E2024"/>
</svg>
