<svg width="20" height="20" viewBox="0 0 20 20" fill="none" xmlns="http://www.w3.org/2000/svg">
<path d="M9.97913 0C8.65555 0.012836 7.34749 0.281133 6.12968 0.789569C4.91187 1.298 3.80814 2.03665 2.88152 2.96327C1.95491 3.88989 1.22356 4.98632 0.729231 6.19004C0.234904 7.39376 -0.0127215 8.68117 0.000503073 9.97871C-0.0127215 11.2762 0.234904 12.5636 0.729231 13.7674C1.22356 14.9711 1.95491 16.0676 2.88152 16.9942C3.80814 17.9208 4.91187 18.6594 6.12968 19.1678C7.34749 19.6763 8.65555 19.9446 9.97913 19.9574C11.3063 19.9499 12.6188 19.6856 13.8414 19.1795C15.0641 18.6735 16.1727 17.9357 17.1037 17.0086C18.0348 16.0814 18.7698 14.9831 19.2668 13.7768C19.7637 12.5704 20.0127 11.2797 19.9995 9.97871C20.0127 8.67775 19.7637 7.38702 19.2668 6.18065C18.7698 4.97428 18.0348 3.87604 17.1037 2.94888C16.1727 2.02172 15.0641 1.28392 13.8414 0.777878C12.6188 0.271834 11.3063 0.00748076 9.97913 0ZM11.1315 15.6844H8.52618V13.2858H11.1732L11.1315 15.6844ZM12.2003 9.95417C11.2066 10.6172 10.7641 11.2557 10.8726 11.8861V12.3035H8.73493V11.7305C8.71048 11.2141 8.82584 10.7005 9.06928 10.2419C9.31273 9.78324 9.67561 9.39591 10.1211 9.11919C11.0062 8.42338 11.4321 7.79307 11.3987 7.23642C11.3987 7.07947 11.3671 6.92406 11.3059 6.77906C11.2446 6.63406 11.1548 6.50228 11.0416 6.3913C10.9284 6.28032 10.794 6.1923 10.6461 6.13224C10.4982 6.07218 10.3396 6.04125 10.1795 6.04125C9.1775 6.04125 8.55958 6.67974 8.30907 7.96494L5.91252 7.44927C6.33839 5.08352 7.8832 3.92928 10.5469 4.00295C12.7737 4.1121 13.9622 5.08624 14.1125 6.92535C14.1905 8.07685 13.5531 9.10009 12.2003 9.99509V9.95417Z" fill="#808994"/>
</svg>
