<svg width="15" height="12" viewBox="0 0 15 12" fill="none" xmlns="http://www.w3.org/2000/svg">
<path d="M12.2608 8.20364H11.0428V7.00671C11.0428 6.82357 10.9687 6.64793 10.8369 6.51843C10.7052 6.38893 10.5264 6.31617 10.3401 6.31617C10.1537 6.31617 9.97495 6.38893 9.84316 6.51843C9.71138 6.64793 9.63735 6.82357 9.63735 7.00671V8.20364H8.41933C8.23296 8.20364 8.05422 8.27639 7.92244 8.40589C7.79066 8.5354 7.71662 8.71104 7.71662 8.89418C7.71662 9.07732 7.79066 9.25296 7.92244 9.38246C8.05422 9.51196 8.23296 9.58471 8.41933 9.58471H9.63735V10.7816C9.63735 10.9648 9.71138 11.1404 9.84316 11.2699C9.97495 11.3994 10.1537 11.4722 10.3401 11.4722C10.5264 11.4722 10.7052 11.3994 10.8369 11.2699C10.9687 11.1404 11.0428 10.9648 11.0428 10.7816V9.58471H12.2608C12.4471 9.58471 12.6259 9.51196 12.7577 9.38246C12.8894 9.25296 12.9635 9.07732 12.9635 8.89418C12.9635 8.71104 12.8894 8.5354 12.7577 8.40589C12.6259 8.27639 12.4471 8.20364 12.2608 8.20364Z" fill="#FF7336"/>
<path d="M12.1747 7.00685V7.09125H12.2606C12.4254 7.09125 12.5854 7.1135 12.7377 7.1534L12.9001 6.99381L11.7883 5.90123C12.0303 6.2066 12.1747 6.59023 12.1747 7.00685ZM8.50506 10.781V10.6966H8.41918C7.40728 10.6966 6.58434 9.88792 6.58434 8.89355C6.58434 7.89918 7.40728 7.09048 8.41918 7.09048H8.50506V7.00608C8.50506 6.01171 9.32801 5.20302 10.3399 5.20302C10.7639 5.20302 11.1535 5.34496 11.4642 5.58281L6.96458 1.16108C5.39052 -0.385724 2.83892 -0.385724 1.26487 1.16108L1.18054 1.24394C-0.393514 2.79074 -0.393514 5.29816 1.18054 6.84496L5.93863 11.5207C6.58902 12.1598 7.64386 12.1598 8.29425 11.5207L8.56987 11.2498C8.5277 11.1002 8.50506 10.9429 8.50506 10.781Z" fill="#FF4D00"/>
<path d="M8.50499 10.7808V10.6964H8.4191C7.40721 10.6964 6.58426 9.88771 6.58426 8.89334C6.58426 7.89896 7.40721 7.09027 8.4191 7.09027H8.50499V7.00587C8.50499 6.0115 9.32793 5.20281 10.3398 5.20281C11.3517 5.20281 12.1747 6.0115 12.1747 7.00587V7.09027H12.2606C12.4253 7.09027 12.5854 7.11252 12.7376 7.15242L13.0515 6.84398C14.6255 5.29718 14.6255 2.78977 13.0515 1.24296L12.9672 1.1601C11.3931 -0.3867 8.84151 -0.3867 7.26745 1.1601L1.33428 6.99053L5.9409 11.5174C6.59129 12.1565 7.64613 12.1565 8.29652 11.5174L8.56901 11.2496C8.52763 11.1 8.50499 10.9427 8.50499 10.7808Z" fill="#FF7C44"/>
</svg>
