<svg width="26" height="26" viewBox="0 0 26 26" fill="none" xmlns="http://www.w3.org/2000/svg">
<circle cx="13" cy="13" r="13" fill="#85D420"/>
<path d="M18.2812 15.3036H17.9591C17.7873 15.2696 17.6333 15.1784 17.5238 15.0458C17.4143 14.9132 17.3562 14.7476 17.3598 14.5778L17.2474 10.9492C17.2602 9.89598 16.8649 8.87641 16.1395 8.09176C15.4142 7.30711 14.4116 6.81442 13.3296 6.71098V6.55858C13.3296 6.47389 13.2949 6.39267 13.2331 6.33279C13.1713 6.2729 13.0874 6.23926 13 6.23926C12.9126 6.23926 12.8288 6.2729 12.7669 6.33279C12.7051 6.39267 12.6704 6.47389 12.6704 6.55858V6.71098C11.5884 6.81442 10.5858 7.30711 9.86048 8.09176C9.13515 8.87641 8.73984 9.89598 8.7526 10.9492L8.55785 14.5778C8.57295 14.7502 8.51919 14.9215 8.40767 15.0566C8.29616 15.1916 8.1354 15.28 7.95855 15.3036H7.71886C7.60722 15.272 7.48952 15.2661 7.3751 15.2863C7.26068 15.3064 7.15268 15.3521 7.05965 15.4197C6.96661 15.4873 6.89109 15.5749 6.83909 15.6757C6.78708 15.7765 6.76001 15.8876 6.76001 16.0003C6.76001 16.1129 6.78708 16.2241 6.83909 16.3248C6.89109 16.4256 6.96661 16.5133 7.05965 16.5809C7.15268 16.6485 7.26068 16.6941 7.3751 16.7143C7.48952 16.7345 7.60722 16.7285 7.71886 16.697H18.2812C18.3928 16.7285 18.5105 16.7345 18.6249 16.7143C18.7393 16.6941 18.8473 16.6485 18.9404 16.5809C19.0334 16.5133 19.1089 16.4256 19.1609 16.3248C19.2129 16.2241 19.24 16.1129 19.24 16.0003C19.24 15.8876 19.2129 15.7765 19.1609 15.6757C19.1089 15.5749 19.0334 15.4873 18.9404 15.4197C18.8473 15.3521 18.7393 15.3064 18.6249 15.2863C18.5105 15.2661 18.3928 15.272 18.2812 15.3036Z" fill="white"/>
<path d="M11.7415 16.98C11.7415 17.3034 11.8741 17.6135 12.1102 17.8422C12.3462 18.0708 12.6663 18.1993 13 18.1993C13.3338 18.1993 13.6539 18.0708 13.8899 17.8422C14.1259 17.6135 14.2585 17.3034 14.2585 16.98H11.7415Z" fill="white"/>
</svg>
