<svg width="20" height="20" viewBox="0 0 20 20" fill="none" xmlns="http://www.w3.org/2000/svg">
<path d="M5.08789 3.77051C5.54653 3.77051 5.95508 4.17578 5.95508 4.68164C5.95508 5.18698 5.59743 5.5918 5.08789 5.5918H5.03711C3.40565 5.69255 2.08045 6.30031 2.33496 9.08203V13.4824C2.33496 15.4544 2.28424 17.0224 5.90332 17.0225H13.04C16.5573 17.0225 16.6094 15.5557 16.6094 13.6846V12.6221C16.6094 12.1163 16.9657 11.712 17.4746 11.7119C17.9337 11.7119 18.3417 12.1163 18.3418 12.6221V15.252C18.3418 17.2245 16.7617 18.7929 14.7734 18.793H4.06836C2.08059 18.793 0.5 17.225 0.5 15.252V7.31152C0.500098 5.33853 2.08065 3.77051 4.06836 3.77051H5.08789ZM14.5156 2C14.636 2.00005 14.7359 2.04059 14.8262 2.13086L18.3789 5.68359C18.4591 5.7738 18.4999 5.88367 18.5 6.00391C18.5 6.12434 18.4595 6.22511 18.3691 6.31543L14.8164 9.86816C14.7262 9.95834 14.6261 9.99892 14.5059 9.99902C14.3854 9.99902 14.2847 9.95846 14.1943 9.86816C14.104 9.77784 14.0635 9.67707 14.0635 9.55664V7.78027H12.5078C12.0564 7.78029 11.6451 7.80122 11.2939 7.82129C10.9327 7.8514 10.581 7.90143 10.2197 7.97168C9.86862 8.04193 9.55772 8.14231 9.29688 8.2627C9.03602 8.39312 8.79522 8.55353 8.56445 8.74414C8.3437 8.94483 8.15222 9.17537 8.01172 9.44629C7.87122 9.71726 7.76122 10.0388 7.6709 10.4102C7.59062 10.7815 7.55078 11.2034 7.55078 11.665C7.55079 11.9158 7.561 12.2067 7.58105 12.5176C7.58105 12.5477 7.59055 12.5984 7.60059 12.6787C7.61056 12.7584 7.62102 12.8183 7.62109 12.8584C7.62109 12.9286 7.60062 12.9892 7.56055 13.0293C7.52049 13.0794 7.47041 13.0995 7.40039 13.0996C7.33014 13.0996 7.25916 13.0598 7.20898 12.9795C7.17894 12.9394 7.14919 12.8892 7.11914 12.8291C7.08904 12.7689 7.05842 12.6984 7.02832 12.6182C6.99821 12.5379 6.96804 12.4874 6.95801 12.4473C6.36602 11.1328 6.07525 10.0891 6.0752 9.31641C6.0752 8.3931 6.19539 7.62 6.44629 7.00781C7.19899 5.14114 9.22678 4.20801 12.5186 4.20801H14.0742V2.44141C14.0743 2.32118 14.114 2.22106 14.2041 2.13086C14.2944 2.04054 14.3952 2 14.5156 2Z" fill="#808994"/>
</svg>
