<svg width="24" height="24" viewBox="0 0 24 24" fill="none" xmlns="http://www.w3.org/2000/svg">
<circle cx="12" cy="12" r="12" fill="#52A1FF"/>
<path d="M9.17865 14.9517C9.98595 15.5975 10.9867 15.9491 12.0178 15.9491C13.0489 15.9491 14.0496 15.5975 14.8569 14.9517L15.2018 14.6489C15.6629 14.1979 16.0245 13.6542 16.2632 13.0532C16.5019 12.4523 16.6123 11.8075 16.5873 11.1607C16.5623 10.514 16.4024 9.87978 16.1179 9.29934C15.8335 8.71891 15.431 8.20522 14.9365 7.79169C14.267 7.23275 13.4531 6.87762 12.5903 6.76798C11.7275 6.65833 10.8515 6.79871 10.0651 7.17264C9.27866 7.54658 8.61448 8.13857 8.15043 8.87916C7.68638 9.61974 7.44168 10.4782 7.44508 11.3539C7.44433 11.9689 7.56695 12.5778 7.80556 13.144C8.04417 13.7102 8.39387 14.2221 8.8337 14.6489C8.9405 14.7589 9.05586 14.8601 9.17865 14.9517Z" fill="white"/>
<path d="M17.9967 9.55493C17.6432 8.23055 16.8657 7.06052 15.7847 6.2261C14.7038 5.39169 13.3798 4.93945 12.0178 4.93945C10.6557 4.93945 9.33169 5.39169 8.25077 6.2261C7.16986 7.06052 6.39237 8.23055 6.03878 9.55493C5.71633 9.66263 5.43628 9.87082 5.23912 10.1494C5.04196 10.4279 4.93791 10.7624 4.94205 11.1045C4.93616 11.3103 4.97063 11.5153 5.04346 11.7078C5.11629 11.9002 5.22606 12.0763 5.36652 12.226C5.50698 12.3757 5.67536 12.496 5.86204 12.5802C6.04871 12.6643 6.25003 12.7106 6.45448 12.7164V11.2737C6.46386 9.78806 7.05898 8.36706 8.10893 7.32325C9.15889 6.27944 10.5777 5.69833 12.0531 5.70778C13.5286 5.71723 14.9399 6.31644 15.9766 7.37361C17.0133 8.43078 17.5904 9.85929 17.581 11.3449V12.7164C17.9885 12.6978 18.3722 12.5181 18.6488 12.2163C18.9254 11.9145 19.0725 11.5149 19.0581 11.1045C19.0674 10.7662 18.9696 10.4337 18.7788 10.1551C18.588 9.87654 18.3141 9.66634 17.9967 9.55493Z" fill="white"/>
<path d="M15.7767 15.4504C14.7656 16.4268 13.4188 16.972 12.0178 16.972C10.6167 16.972 9.26994 16.4268 8.25879 15.4504C7.62838 15.8937 7.08047 16.4453 6.64021 17.0801C6.2353 17.6833 5.93614 18.352 5.75575 19.0571H18.3505C17.9495 17.5929 17.0512 16.3166 15.8121 15.4504H15.7767Z" fill="white"/>
</svg>
