<svg width="19" height="14" viewBox="0 0 19 14" fill="none" xmlns="http://www.w3.org/2000/svg">
<path d="M18.7133 10.5502V3.08885L14.6525 6.97997L18.7133 10.5502Z" fill="#808994"/>
<path d="M11.8581 9.65763C11.5326 9.97691 11.1434 10.2302 10.7137 10.4025C10.284 10.5748 9.82247 10.6625 9.35667 10.6605C8.88945 10.6616 8.42668 10.5735 7.9954 10.4013C7.56412 10.2291 7.17298 9.9763 6.84481 9.65763L4.66787 7.57167L3.0252e-10 11.6834V12.3654C-8.48041e-06 12.7972 0.178292 13.2114 0.495963 13.5177C0.813634 13.824 1.24487 13.9974 1.6955 14.0001H17.0074C17.4598 14.0001 17.8937 13.8278 18.2137 13.5213C18.5336 13.2147 18.7133 12.7989 18.7133 12.3654V11.6534L14.0455 7.56163L11.8581 9.65763Z" fill="#808994"/>
<path d="M17.0492 0H1.7269C1.27627 0.00264915 0.845031 0.176062 0.52736 0.482336C0.209689 0.788611 0.0313885 1.20287 0.0313969 1.63468V1.97565L7.48324 9.1161C7.73273 9.35707 8.02943 9.54844 8.35631 9.67923C8.6832 9.81003 9.03383 9.87766 9.38807 9.87826C9.74248 9.87877 10.0934 9.81165 10.4205 9.68079C10.7475 9.54993 11.0441 9.35797 11.2929 9.1161L18.7447 1.97565V1.63468C18.7447 1.20287 18.5664 0.788611 18.2488 0.482336C17.9311 0.176062 17.4999 0.00264915 17.0492 0Z" fill="#808994"/>
<path d="M3.19399e-07 3.08885V10.5702L4.0713 6.99L3.19399e-07 3.08885Z" fill="#808994"/>
</svg>
