<svg width="20" height="20" viewBox="0 0 20 20" fill="none" xmlns="http://www.w3.org/2000/svg">
<g filter="url(#filter0_i_0_6580)">
<path d="M0 9C0 7.89543 0.895431 7 2 7H18C19.1046 7 20 7.89543 20 9V11C20 12.1046 19.1046 13 18 13H2C0.895431 13 0 12.1046 0 11V9Z" fill="#C0FF59"/>
<path d="M7 2C7 0.895431 7.89543 0 9 0H11C12.1046 0 13 0.895431 13 2V18C13 19.1046 12.1046 20 11 20H9C7.89543 20 7 19.1046 7 18V2Z" fill="#C0FF59"/>
</g>
<defs>
<filter id="filter0_i_0_6580" x="0" y="0" width="20" height="20" filterUnits="userSpaceOnUse" color-interpolation-filters="sRGB">
<feFlood flood-opacity="0" result="BackgroundImageFix"/>
<feBlend mode="normal" in="SourceGraphic" in2="BackgroundImageFix" result="shape"/>
<feColorMatrix in="SourceAlpha" type="matrix" values="0 0 0 0 0 0 0 0 0 0 0 0 0 0 0 0 0 0 127 0" result="hardAlpha"/>
<feOffset dy="-1"/>
<feComposite in2="hardAlpha" operator="arithmetic" k2="-1" k3="1"/>
<feColorMatrix type="matrix" values="0 0 0 0 0.396078 0 0 0 0 0.721569 0 0 0 0 0.0196078 0 0 0 1 0"/>
<feBlend mode="normal" in2="shape" result="effect1_innerShadow_0_6580"/>
</filter>
</defs>
</svg>
