<svg width="16" height="13" viewBox="0 0 16 13" fill="none" xmlns="http://www.w3.org/2000/svg">
<g clip-path="url(#clip0_0_4602)">
<path d="M0.806233 4.8107C1.05462 4.93099 1.33875 4.955 1.6038 4.87811C1.86884 4.80121 2.09601 4.62885 2.24145 4.39431C2.69442 3.36694 3.42909 2.48886 4.3604 1.86171C5.29172 1.23456 6.38161 0.883988 7.50391 0.85057C7.83442 0.83285 8.16564 0.83285 8.49616 0.85057C9.61615 0.888755 10.7028 1.24136 11.6318 1.86804C12.5609 2.49471 13.2948 3.37016 13.7498 4.39431C13.8952 4.62885 14.1224 4.80121 14.3874 4.87811C14.6525 4.955 14.9366 4.93099 15.185 4.8107C15.4093 4.63402 15.596 4.41433 15.7342 4.1645C15.8724 3.91467 15.9594 3.63975 15.9899 3.35586C16.0204 3.07198 15.994 2.78486 15.912 2.51135C15.8301 2.23784 15.6943 1.98342 15.5128 1.76308C14.8838 0.948022 12.3943 -0.00878906 8.56703 -0.00878906C8.19494 -0.00878906 7.81398 -0.00878906 7.44189 -0.00878906C3.60579 -0.00878906 1.11631 0.921444 0.478437 1.76308C0.296858 1.98342 0.161118 2.23784 0.0791844 2.51135C-0.00274875 2.78486 -0.029225 3.07198 0.00130878 3.35586C0.0318426 3.63975 0.118773 3.91467 0.256996 4.1645C0.395219 4.41433 0.58195 4.63402 0.806233 4.8107Z" fill="white"/>
<path d="M13.1915 4.94401C11.8094 2.83548 10.0996 1.54199 8.01761 1.54199C5.93566 1.54199 4.17265 2.8532 2.84375 4.94401L0.45172 8.70924C-0.549387 10.8532 0.717501 12.6073 3.269 12.6073H12.7662C15.3089 12.6073 16.5846 10.8355 15.5835 8.70924C15.5835 8.70924 14.5735 7.05254 13.1915 4.94401ZM8.01761 8.76239C7.19327 8.79848 6.38823 8.50638 5.77882 7.9501C5.1694 7.39382 4.80529 6.6187 4.76623 5.7945C4.78218 5.38409 4.87904 4.98087 5.05125 4.608C5.22347 4.23513 5.46764 3.89997 5.76975 3.62173C6.07187 3.34349 6.42597 3.12765 6.81172 2.98664C7.19747 2.84563 7.60728 2.78222 8.01761 2.80003C8.84134 2.7663 9.64507 3.0592 10.254 3.615C10.8629 4.1708 11.2276 4.94454 11.269 5.76792C11.2345 6.59601 10.8726 7.37652 10.263 7.93799C9.65333 8.49946 8.84574 8.79598 8.01761 8.76239Z" fill="white"/>
</g>
<defs>
<clipPath id="clip0_0_4602">
<rect width="16" height="12.6069" fill="white"/>
</clipPath>
</defs>
</svg>
