<svg width="20" height="20" viewBox="0 0 20 20" fill="none" xmlns="http://www.w3.org/2000/svg">
<path fill-rule="evenodd" clip-rule="evenodd" d="M14.1885 1.25859L14.1657 1.29473C14.0281 1.51312 13.8261 1.83182 13.5699 2.23094C13.0572 3.02937 12.3279 4.14862 11.4627 5.42987L11.4098 5.50821C10.9328 5.47135 10.3953 5.44681 9.80934 5.44681C9.22341 5.44681 8.68592 5.47135 8.20895 5.50821L8.156 5.42987C7.29081 4.14862 6.56154 3.02937 6.04887 2.23094C5.79259 1.83182 5.59062 1.51312 5.45302 1.29473L5.43027 1.25858C6.24977 1.14172 7.68213 1 9.80934 1C11.9366 1 13.369 1.14172 14.1885 1.25859ZM2.21597 7.50253C1.97222 7.09811 1.93409 6.60419 2.10517 6.16307C3.17615 3.40146 4.23215 1.60638 4.23215 1.60638C4.23215 1.60638 5.81012 4.15196 7.9839 7.30881C6.33921 7.76044 4.93565 8.8075 4.01183 10.208C3.20143 9.0919 2.58171 8.10931 2.21597 7.50253ZM15.607 10.208C16.4174 9.09194 17.0371 8.10931 17.4029 7.50253C17.6466 7.09811 17.6848 6.60419 17.5137 6.16307C16.4427 3.40146 15.3867 1.60638 15.3867 1.60638C15.3867 1.60638 13.8087 4.15197 11.6349 7.30885C13.2796 7.76044 14.6832 8.80755 15.607 10.208ZM9.80938 8.2766C6.61915 8.2766 4.03293 10.901 4.03293 14.1383C4.03293 17.3756 6.61915 20 9.80938 20C12.9996 20 15.5858 17.3756 15.5858 14.1383C15.5858 10.901 12.9996 8.2766 9.80938 8.2766ZM10.2514 10.9606L10.9838 12.3934L12.5343 12.7032C12.9136 12.779 13.0668 13.2453 12.8084 13.5369L11.7096 14.7769L11.9116 16.4378C11.9603 16.8378 11.5504 17.1318 11.195 16.9518L9.80938 16.25L8.42375 16.9518C8.06836 17.1318 7.65851 16.8378 7.70715 16.4378L7.90913 14.7769L6.81037 13.5369C6.55194 13.2453 6.7052 12.779 7.08445 12.7032L8.63497 12.3934L9.36734 10.9606C9.55315 10.597 10.0656 10.597 10.2514 10.9606Z" fill="#85D420"/>
</svg>
