<svg width="16" height="16" viewBox="0 0 16 16" fill="none" xmlns="http://www.w3.org/2000/svg">
<path fill-rule="evenodd" clip-rule="evenodd" d="M8 16C12.4182 16 16 12.4182 16 8C16 3.58178 12.4182 0 8 0C3.58178 0 0 3.58178 0 8C0 12.4182 3.58178 16 8 16ZM9.75378 11.5938L9.88 11.1369C9.77709 11.1752 9.67165 11.2064 9.56444 11.2302C9.41911 11.2658 9.28889 11.2836 9.17378 11.2836C8.92933 11.2836 8.75733 11.248 8.65733 11.1769C8.55778 11.1058 8.50844 10.972 8.50844 10.7756C8.50844 10.6978 8.52355 10.5822 8.55467 10.4302C8.58111 10.2927 8.61569 10.1569 8.65822 10.0236L9.13067 8.54622C9.17902 8.40107 9.21092 8.25094 9.22578 8.09867C9.24311 7.93644 9.25111 7.82311 9.25111 7.75822C9.25111 7.44711 9.12756 7.19378 8.88044 6.99911C8.63333 6.804 8.28089 6.70667 7.82489 6.70667C7.55193 6.70963 7.28066 6.75001 7.01867 6.82667C6.73422 6.90578 6.43733 7.00133 6.12667 7.11333L6 7.57067C6.09244 7.54 6.20267 7.50756 6.332 7.47422C6.46044 7.44044 6.58622 7.42311 6.70889 7.42311C6.95911 7.42311 7.128 7.46089 7.216 7.53511C7.30489 7.60978 7.34933 7.74222 7.34933 7.93156C7.34933 8.036 7.33467 8.15244 7.30578 8.27911C7.27689 8.40622 7.24133 8.54133 7.19911 8.68311L6.72489 10.1662C6.68267 10.3218 6.65156 10.4618 6.63244 10.5853C6.61363 10.7055 6.60412 10.8269 6.604 10.9484C6.604 11.2533 6.73111 11.5049 6.98622 11.7031C7.24089 11.9004 7.59822 12 8.05733 12C8.35689 12 8.61956 11.9653 8.84533 11.896C9.07111 11.8267 9.37422 11.7258 9.75378 11.5938ZM9.66933 5.59244C9.89022 5.41156 10 5.19156 10 4.93422C10 4.67733 9.89022 4.45733 9.66978 4.27422C9.44978 4.09156 9.18444 4 8.87422 4C8.56311 4 8.29644 4.09156 8.07467 4.27422C7.85244 4.45733 7.74133 4.67733 7.74133 4.93422C7.74133 5.192 7.85244 5.41156 8.07467 5.592C8.29689 5.77378 8.56311 5.86444 8.87422 5.86444C9.18444 5.86444 9.44978 5.77378 9.66978 5.592L9.66933 5.59244Z" fill="#808994"/>
</svg>
