<svg width="17" height="15" viewBox="0 0 17 15" fill="none" xmlns="http://www.w3.org/2000/svg">
<g clip-path="url(#clip0_0_61262)">
<path d="M16.8596 6.69862L13.7774 2.83559C13.7007 2.73545 13.6019 2.65433 13.4888 2.59849C13.3756 2.54265 13.2512 2.51362 13.125 2.51362C12.9988 2.51362 12.8744 2.54265 12.7612 2.59849C12.6481 2.65433 12.5493 2.73545 12.4726 2.83559L9.3904 6.69862C9.33886 6.76491 9.3068 6.84426 9.29782 6.92775C9.28885 7.01124 9.3033 7.0956 9.33957 7.17134C9.37584 7.24708 9.43249 7.3112 9.50317 7.35654C9.57384 7.40189 9.65575 7.42666 9.73972 7.42806H10.9418C10.9418 9.68834 10.9418 12.5651 6.96574 14.8356C6.863 14.9075 6.91437 15.0616 7.02738 15.0411C14.589 13.8699 15.2466 8.8048 15.2466 7.44863H16.5103C16.5953 7.4445 16.6775 7.41696 16.7479 7.36909C16.8183 7.32121 16.874 7.25482 16.9091 7.17726C16.9442 7.09971 16.9571 7.014 16.9466 6.92954C16.936 6.84508 16.9024 6.76517 16.8493 6.69862H16.8596ZM7.19177 7.66438H6.02053C6.02053 5.41437 6.02053 2.52739 10.0068 0.256837C10.1096 0.18492 10.0068 0.0307971 9.9452 0.0513451C2.38354 1.22258 1.726 6.3082 1.726 7.65409H0.472576C0.388613 7.6555 0.306704 7.68026 0.236027 7.72561C0.165351 7.77096 0.108701 7.83511 0.0724315 7.91085C0.0361626 7.98659 0.0217063 8.07094 0.0306841 8.15443C0.0396619 8.23793 0.0717183 8.31727 0.12326 8.38357L3.20546 12.2466C3.28337 12.345 3.38253 12.4244 3.49551 12.4791C3.60848 12.5337 3.73236 12.5621 3.85786 12.5621C3.98336 12.5621 4.10723 12.5337 4.22021 12.4791C4.33319 12.4244 4.43234 12.345 4.51025 12.2466L7.59245 8.38357C7.6411 8.31724 7.67074 8.23889 7.67816 8.15697C7.68558 8.07505 7.67051 7.99264 7.63457 7.91865C7.59864 7.84467 7.5432 7.7819 7.47422 7.73708C7.40524 7.69227 7.32534 7.66714 7.24314 7.66438H7.19177Z" fill="#85D420"/>
</g>
<defs>
<clipPath id="clip0_0_61262">
<rect width="16.51" height="14.6" fill="white" transform="scale(1.0274)"/>
</clipPath>
</defs>
</svg>
