<svg width="22" height="22" viewBox="0 0 22 22" fill="none" xmlns="http://www.w3.org/2000/svg">
<g opacity="0.8">
<path d="M3.0061 11.8595C2.87379 11.8625 2.74235 11.8374 2.62044 11.7859C2.49853 11.7344 2.38893 11.6576 2.29885 11.5606C2.20353 11.4672 2.12796 11.3556 2.07662 11.2324C2.02529 11.1092 1.99924 10.9769 2.00002 10.8434V9.47872C2.00056 9.34692 2.02726 9.21657 2.07856 9.09517C2.12985 8.97377 2.20473 8.86373 2.29885 8.77148C2.38893 8.67451 2.49853 8.59776 2.62044 8.54625C2.74235 8.49474 2.87379 8.46965 3.0061 8.47265H16.145C15.9673 8.52084 15.794 8.58417 15.627 8.66192C15.4532 8.75173 15.3005 8.87734 15.1788 9.03048C14.8002 9.45881 14.4217 9.92698 14.0332 10.4151C13.6447 10.9032 13.2861 11.4112 12.9474 11.8595H3.0061Z" fill="#BC4EFF"/>
<path d="M5.23742 7.27728C5.10563 7.27673 4.97525 7.25005 4.85385 7.19876C4.73244 7.14746 4.62243 7.07257 4.53017 6.97845C4.43665 6.88419 4.36292 6.77218 4.31331 6.64901C4.2637 6.52585 4.23922 6.39401 4.2413 6.26124V5.00611C4.24054 4.87502 4.26567 4.74506 4.31524 4.62369C4.36481 4.50232 4.43785 4.39195 4.53017 4.29887C4.62243 4.20475 4.73244 4.12987 4.85385 4.07857C4.97525 4.02727 5.10563 4.00056 5.23742 4.00002H18.8744C19.0078 3.99924 19.1401 4.02532 19.2633 4.07665C19.3865 4.12799 19.4982 4.20355 19.5916 4.29887C19.6857 4.39113 19.7606 4.50113 19.8119 4.62253C19.8632 4.74394 19.8899 4.87432 19.8904 5.00611V6.26124C19.8912 6.39471 19.8652 6.52696 19.8138 6.65017C19.7625 6.77338 19.6869 6.88502 19.5916 6.97845C19.4982 7.07377 19.3865 7.14934 19.2633 7.20067C19.1401 7.25201 19.0078 7.27806 18.8744 7.27728H5.23742Z" fill="#BC4EFF"/>
<path d="M14.2822 15.1467V15.2861C14.2822 15.3559 14.2822 15.4754 14.2822 15.6348C14.2822 15.7942 14.2822 16.0332 14.2822 16.342H3.0061C2.87379 16.345 2.74235 16.3199 2.62044 16.2684C2.49853 16.2169 2.38893 16.1402 2.29885 16.0432C2.20353 15.9498 2.12796 15.8381 2.07662 15.7149C2.02529 15.5917 1.99924 15.4595 2.00002 15.326V13.9812C2.00056 13.8494 2.02726 13.719 2.07856 13.5976C2.12985 13.4762 2.20473 13.3662 2.29885 13.274C2.38893 13.177 2.49853 13.1002 2.62044 13.0487C2.74235 12.9972 2.87379 12.9721 3.0061 12.9751H12.0509C12.0107 13.0005 11.9767 13.0345 11.9513 13.0747L11.8716 13.1744C11.7504 13.3488 11.675 13.5509 11.6525 13.7621C11.6301 13.9837 11.6538 14.2075 11.7222 14.4195C11.7955 14.6204 11.9149 14.8012 12.0708 14.9475C12.2415 15.0883 12.4573 15.1625 12.6785 15.1566H14.2822V15.1467Z" fill="#BC4EFF"/>
<path d="M19.6215 13.1345L19.8904 13.5828C19.9494 13.669 19.9869 13.768 20 13.8716C20 13.9414 20 13.9912 19.8705 14.0211C19.7244 14.0597 19.5733 14.0764 19.4222 14.0709H18.4261C18.3197 14.0613 18.2124 14.0741 18.1112 14.1084C18.01 14.1427 17.9171 14.1978 17.8384 14.2701C17.7715 14.3382 17.7193 14.4193 17.685 14.5084C17.6508 14.5975 17.6352 14.6927 17.6392 14.7881V16.5213C17.6278 16.7502 17.5319 16.9667 17.3702 17.129C17.2945 17.2256 17.1976 17.3036 17.0872 17.3571C16.9767 17.4106 16.8555 17.4382 16.7327 17.4378H16.0255C15.9372 17.4372 15.85 17.4183 15.7694 17.3823C15.6888 17.3463 15.6166 17.294 15.5573 17.2286C15.3946 17.0232 15.3195 16.7619 15.3481 16.5014C15.3407 16.4053 15.3407 16.3087 15.3481 16.2125C15.3537 16.1562 15.3537 16.0995 15.3481 16.0432C15.3481 15.9834 15.3481 15.8739 15.3481 15.7145C15.3481 15.5551 15.3481 15.2961 15.3481 14.9076C15.3686 14.6832 15.3124 14.4585 15.1887 14.2701C15.1219 14.1959 15.038 14.139 14.9443 14.1043C14.8506 14.0696 14.7499 14.0581 14.6508 14.0709H13.6547C13.5611 14.0841 13.4658 14.0758 13.376 14.0464C13.2862 14.0171 13.2043 13.9675 13.1367 13.9015C13.067 13.782 13.1367 13.6126 13.316 13.3736L13.9236 12.5368L15.2784 10.5446C15.4975 10.2258 15.7167 9.93696 15.9159 9.68793C16.0007 9.58781 16.1108 9.51215 16.2346 9.46878C16.366 9.40894 16.5087 9.37836 16.653 9.37913C16.7813 9.35364 16.9133 9.35364 17.0415 9.37913C17.1474 9.40991 17.2413 9.4725 17.3105 9.55843L17.8085 10.3952C17.9878 10.694 18.1871 11.0028 18.3863 11.3116C18.5855 11.6204 18.7947 11.9292 18.984 12.238L19.5318 13.0847L19.6215 13.1345Z" fill="#BC4EFF"/>
</g>
</svg>
