<svg width="20" height="20" viewBox="0 0 20 20" fill="none" xmlns="http://www.w3.org/2000/svg">
<g filter="url(#filter0_d_0_24492)">
<path d="M13.7754 10.7071C14.1659 10.3165 14.1659 9.68338 13.7754 9.29285L8.57332 4.09082C8.18279 3.70029 8.18279 3.06713 8.57332 2.6766L8.9266 2.32332C9.31713 1.93279 9.95029 1.93279 10.3408 2.32332L17.3104 9.29285C17.7009 9.68338 17.7009 10.3165 17.3104 10.7071L10.3408 17.6766C9.95029 18.0671 9.31713 18.0671 8.9266 17.6766L8.57332 17.3233C8.18279 16.9328 8.18279 16.2996 8.57332 15.9091L13.7754 10.7071ZM7.52535 10.7071C7.91588 10.3165 7.91588 9.68338 7.52535 9.29285L2.32332 4.09082C1.93279 3.70029 1.93279 3.06713 2.32332 2.6766L2.6766 2.32332C3.06713 1.93279 3.70029 1.93279 4.09082 2.32332L11.0604 9.29285C11.4509 9.68338 11.4509 10.3165 11.0604 10.7071L4.09082 17.6766C3.70029 18.0671 3.06713 18.0671 2.6766 17.6766L2.32332 17.3233C1.93279 16.9328 1.93279 16.2996 2.32332 15.9091L7.52535 10.7071Z" fill="white"/>
</g>
<defs>
<filter id="filter0_d_0_24492" x="2.03027" y="2.03027" width="15.5732" height="16.9395" filterUnits="userSpaceOnUse" color-interpolation-filters="sRGB">
<feFlood flood-opacity="0" result="BackgroundImageFix"/>
<feColorMatrix in="SourceAlpha" type="matrix" values="0 0 0 0 0 0 0 0 0 0 0 0 0 0 0 0 0 0 127 0" result="hardAlpha"/>
<feOffset dy="1"/>
<feComposite in2="hardAlpha" operator="out"/>
<feColorMatrix type="matrix" values="0 0 0 0 0 0 0 0 0 0 0 0 0 0 0 0 0 0 0.3 0"/>
<feBlend mode="normal" in2="BackgroundImageFix" result="effect1_dropShadow_0_24492"/>
<feBlend mode="normal" in="SourceGraphic" in2="effect1_dropShadow_0_24492" result="shape"/>
</filter>
</defs>
</svg>
