<svg width="24" height="24" viewBox="0 0 24 24" fill="none" xmlns="http://www.w3.org/2000/svg">
<path d="M8.91063 5.12019C9.06447 5.12019 9.19668 5.0649 9.30726 4.95433C9.41784 4.84375 9.47313 4.71154 9.47313 4.55769C9.47313 4.40385 9.41784 4.27164 9.30726 4.16106C9.19668 4.05048 9.06447 3.99519 8.91063 3.99519C8.75678 3.99519 8.62697 4.05048 8.5212 4.16106C8.41543 4.27164 8.36255 4.40385 8.36255 4.55769C8.36255 4.71154 8.41543 4.84375 8.5212 4.95433C8.62697 5.0649 8.75678 5.12019 8.91063 5.12019ZM14.9972 5.12019C15.151 5.12019 15.2808 5.0649 15.3866 4.95433C15.4924 4.84375 15.5452 4.71154 15.5452 4.55769C15.5452 4.40385 15.4924 4.27164 15.3866 4.16106C15.2808 4.05048 15.151 3.99519 14.9972 3.99519C14.8433 3.99519 14.7111 4.05048 14.6005 4.16106C14.49 4.27164 14.4347 4.40385 14.4347 4.55769C14.4347 4.71154 14.49 4.84375 14.6005 4.95433C14.7111 5.0649 14.8433 5.12019 14.9972 5.12019ZM3.28563 7.77404C3.68947 7.77404 4.03563 7.91827 4.32409 8.20673C4.61255 8.49519 4.75678 8.84135 4.75678 9.24519V15.4471C4.75678 15.8606 4.61495 16.2115 4.3313 16.5C4.04765 16.7885 3.69909 16.9327 3.28563 16.9327C2.87216 16.9327 2.5212 16.7885 2.23274 16.5C1.94428 16.2115 1.80005 15.8606 1.80005 15.4471V9.24519C1.80005 8.84135 1.94428 8.49519 2.23274 8.20673C2.5212 7.91827 2.87216 7.77404 3.28563 7.77404ZM18.5741 8.04808V17.6538C18.5741 18.0962 18.4202 18.4712 18.1125 18.7788C17.8049 19.0865 17.4347 19.2404 17.002 19.2404H15.9202V22.5144C15.9202 22.9279 15.776 23.2788 15.4875 23.5673C15.1991 23.8558 14.8481 24 14.4347 24C14.0212 24 13.6702 23.8558 13.3818 23.5673C13.0933 23.2788 12.9491 22.9279 12.9491 22.5144V19.2404H10.9587V22.5144C10.9587 22.9279 10.8145 23.2788 10.526 23.5673C10.2375 23.8558 9.88659 24 9.47313 24C9.06928 24 8.72313 23.8558 8.43466 23.5673C8.1462 23.2788 8.00197 22.9279 8.00197 22.5144L7.98755 19.2404H6.92024C6.47793 19.2404 6.10293 19.0865 5.79524 18.7788C5.48755 18.4712 5.3337 18.0962 5.3337 17.6538V8.04808H18.5741ZM15.2279 2.20673C16.2568 2.73558 17.0789 3.47356 17.6943 4.42067C18.3097 5.36779 18.6174 6.40385 18.6174 7.52885H5.27601C5.27601 6.40385 5.5837 5.36779 6.19909 4.42067C6.81447 3.47356 7.6414 2.73558 8.67986 2.20673L7.65582 0.317308C7.58851 0.192308 7.61255 0.0961538 7.72793 0.0288461C7.85293 -0.0288462 7.94909 3.61067e-08 8.0164 0.115385L9.05486 2.01923C9.96832 1.61538 10.9347 1.41346 11.9539 1.41346C12.9731 1.41346 13.9395 1.61538 14.8529 2.01923L15.8914 0.115385C15.9587 3.61067e-08 16.0549 -0.0288462 16.1799 0.0288461C16.2952 0.0961538 16.3193 0.192308 16.252 0.317308L15.2279 2.20673ZM22.1077 9.24519V15.4471C22.1077 15.8606 21.9635 16.2115 21.6751 16.5C21.3866 16.7885 21.0356 16.9327 20.6222 16.9327C20.2183 16.9327 19.8722 16.7885 19.5837 16.5C19.2952 16.2115 19.151 15.8606 19.151 15.4471V9.24519C19.151 8.83173 19.2952 8.48317 19.5837 8.19952C19.8722 7.91587 20.2183 7.77404 20.6222 7.77404C21.0356 7.77404 21.3866 7.91587 21.6751 8.19952C21.9635 8.48317 22.1077 8.83173 22.1077 9.24519Z" fill="white"/>
</svg>
