<svg width="16" height="16" viewBox="0 0 16 16" fill="none" xmlns="http://www.w3.org/2000/svg">
<path d="M8 0C12.4183 0 16 3.58172 16 8C16 12.4183 12.4183 16 8 16C3.58172 16 0 12.4183 0 8C0 3.58172 3.58172 0 8 0ZM7.96875 10.377C7.42383 10.377 7.06055 10.7285 7.06055 11.2559C7.06055 11.7773 7.42383 12.1289 7.96875 12.1289C8.50781 12.1289 8.86523 11.7773 8.86523 11.2559C8.86523 10.7285 8.50781 10.377 7.96875 10.377ZM7.24805 3.53906L7.37109 9.19922H8.55469L8.67188 3.53906H7.24805Z" fill="#85D420"/>
</svg>
