<svg width="40" height="39" viewBox="0 0 40 39" fill="none" xmlns="http://www.w3.org/2000/svg">
<g filter="url(#filter0_d_0_40266)">
<path d="M20 19.4996C20 19.7054 19.8559 19.8954 19.6305 19.9799L10.8836 28.9525C10.7604 29 10.6221 29.0123 10.4899 28.9875C10.3576 28.9627 10.2385 28.9023 10.1508 28.8152C10.0629 28.7292 10.0104 28.6215 10.0014 28.5082C9.99237 28.395 10.0272 28.2823 10.1007 28.1872L15.2972 19.4996L10.1007 10.812C10.0272 10.7169 9.99237 10.6042 10.0014 10.4909C10.0104 10.3777 10.0629 10.2699 10.1508 10.1839C10.239 10.0974 10.358 10.0373 10.4901 10.0126C10.6222 9.98783 10.7602 9.99981 10.8836 10.0467L19.6305 19.0193C19.8559 19.1037 20 19.2937 20 19.4996Z" fill="white"/>
<path d="M30 19.4996C30 19.6838 29.8559 19.8538 29.6305 19.9294L19.8836 27.9575C19.7604 28 19.6221 28.011 19.4899 27.9888C19.3576 27.9667 19.2385 27.9125 19.1508 27.8347C19.0629 27.7577 19.0104 27.6613 19.0014 27.56C18.9924 27.4587 19.0272 27.3578 19.1007 27.2727L25.2972 19.4996L19.1007 11.7266C19.0272 11.6414 18.9924 11.5406 19.0014 11.4393C19.0104 11.3379 19.0629 11.2415 19.1508 11.1646C19.239 11.0872 19.358 11.0334 19.4901 11.0112C19.6222 10.9891 19.7602 10.9998 19.8836 11.0418L29.6305 19.0699C29.8559 19.1455 30 19.3155 30 19.4996Z" fill="white"/>
</g>
<defs>
<filter id="filter0_d_0_40266" x="0" y="0" width="40" height="39" filterUnits="userSpaceOnUse" color-interpolation-filters="sRGB">
<feFlood flood-opacity="0" result="BackgroundImageFix"/>
<feColorMatrix in="SourceAlpha" type="matrix" values="0 0 0 0 0 0 0 0 0 0 0 0 0 0 0 0 0 0 127 0" result="hardAlpha"/>
<feOffset/>
<feGaussianBlur stdDeviation="5"/>
<feComposite in2="hardAlpha" operator="out"/>
<feColorMatrix type="matrix" values="0 0 0 0 1 0 0 0 0 1 0 0 0 0 1 0 0 0 0.4 0"/>
<feBlend mode="normal" in2="BackgroundImageFix" result="effect1_dropShadow_0_40266"/>
<feBlend mode="normal" in="SourceGraphic" in2="effect1_dropShadow_0_40266" result="shape"/>
</filter>
</defs>
</svg>
