<svg width="54" height="54" viewBox="0 0 54 54" fill="none" xmlns="http://www.w3.org/2000/svg">
<ellipse cx="30.9496" cy="25.1769" rx="15.495" ry="17.318" fill="white"/>
<path d="M27 0C41.9123 0 54 12.0877 54 27C54 41.9123 41.9123 54 27 54C12.0877 54 0 41.9123 0 27C0 12.0877 12.0877 0 27 0ZM26.9407 10.978C25.6945 10.978 24.6857 11.9868 24.6857 13.233V28.8989C24.6857 30.1451 25.6945 31.1538 26.9407 31.1538H38.622C39.8681 31.1538 40.8769 30.1451 40.8769 28.8989C40.8769 27.6527 39.8681 26.644 38.622 26.644H29.1956V13.233C29.1956 11.9987 28.2046 10.9958 26.9763 10.978H26.9407Z" fill="#33C38F"/>
</svg>
