<svg width="31" height="36" viewBox="0 0 31 36" fill="none" xmlns="http://www.w3.org/2000/svg">
<path d="M29.4688 21.3379C24.6774 12.577 27.7687 9.77037 27.8008 9.73829C27.8529 9.69419 27.861 9.62201 27.8209 9.56588C27.7768 9.51376 27.6926 9.4897 27.6204 9.51777C27.5522 9.54182 20.8844 11.8874 21.7224 17.0837C19.89 15.6964 11.3497 8.57553 16.5782 0.203632C16.6102 0.151508 16.6022 0.0873557 16.5541 0.0472604C16.51 0.00315562 16.4338 -0.0128826 16.3737 0.0111746C16.2574 0.0512699 13.5951 1.01356 11.47 3.44333C9.50936 5.68065 7.68502 9.63805 10.1429 15.7646C11.037 18.6475 9.35298 20.985 8.44683 21.9754C8.67136 21.2897 8.94802 20.131 8.89991 18.8038C8.82773 16.8592 7.99776 14.1688 4.44532 12.4287C4.38919 12.4006 4.32103 12.4046 4.2689 12.4367C4.21277 12.4728 4.18871 12.5249 4.20876 12.581C4.22079 12.6332 5.54794 17.7493 3.2184 20.119C1.20562 22.1638 -0.767066 25.7203 0.299468 29.0121C1.19359 31.7666 3.98823 33.8676 8.60721 35.2589C9.79002 35.5677 10.9247 35.8002 12.1757 35.9967C12.2559 36.0127 12.3361 35.9686 12.3641 35.9045C12.3882 35.8323 12.3481 35.7601 12.2719 35.7321C9.89427 34.866 7.45247 33.0577 9.26878 29.385C11.0009 26.2215 10.6922 24.5896 10.3433 23.8879C11.2375 24.3129 13.0137 25.4196 12.5726 27.3602C12.5606 27.4163 12.5927 27.4764 12.6488 27.5045C12.709 27.5366 12.7811 27.5326 12.8373 27.4925C12.8934 27.4564 18.2381 23.7436 15.8083 19.1968C17.0032 19.7822 20.1787 21.819 18.3063 26.4941C17.6808 28.5069 19.3808 29.9503 19.453 30.0145C19.5091 30.0586 19.5933 30.0706 19.6615 30.0305C19.7256 29.9984 19.7497 29.9263 19.7216 29.8661C19.6655 29.7418 18.4025 26.863 21.145 25.2712C21.0007 26.009 20.7681 27.8373 21.7504 28.8357C22.6325 29.7338 23.4866 31.2053 23.226 32.6407C23.0455 33.6511 22.3358 34.5011 21.1169 35.1707C21.0488 35.2108 21.0207 35.283 21.0568 35.3471C21.0889 35.4113 21.1771 35.4394 21.2573 35.4193C24.2724 34.5773 28.2258 32.9053 29.9499 29.7178C31.2209 27.3642 31.0606 24.5455 29.4688 21.3379Z" fill="#FF1F00"/>
</svg>
