<svg width="19" height="16" viewBox="0 0 19 16" fill="none" xmlns="http://www.w3.org/2000/svg">
<g opacity="0.8" clip-path="url(#clip0_0_10378)">
<path fill-rule="evenodd" clip-rule="evenodd" d="M5.75357 14.0762L14.1571 5.67269L10.3232 1.83877L1.91965 10.2423L5.75357 14.0762Z" fill="#808994"/>
<path fill-rule="evenodd" clip-rule="evenodd" d="M1.55057 10.6509L0 15.9928V16.0028H6.12224V15.0925H3.24119L5.39197 14.4823L1.55057 10.6509Z" fill="#808994"/>
<path fill-rule="evenodd" clip-rule="evenodd" d="M14.5648 5.31188L15.7052 4.17147L15.6652 4.12145C15.8853 3.91137 15.9954 3.62127 15.9954 3.35117C15.9954 3.10108 15.9053 2.86099 15.7052 2.66091L13.3344 0.290046C12.9242 -0.120104 12.284 -0.0800898 11.8738 0.33006C11.8438 0.360071 11.8138 0.390082 11.7938 0.420093L10.7334 1.47048L14.5648 5.31188Z" fill="#808994"/>
<path fill-rule="evenodd" clip-rule="evenodd" d="M0 15.9986H18.7336V15.0883H0V15.9986Z" fill="#808994"/>
</g>
<defs>
<clipPath id="clip0_0_10378">
<rect width="18.7267" height="15.9942" fill="white" transform="scale(1.00037)"/>
</clipPath>
</defs>
</svg>
