<svg width="8" height="8" viewBox="0 0 8 8" fill="none" xmlns="http://www.w3.org/2000/svg">
<path d="M2.58172 4.5639C2.64477 4.57107 2.70743 4.58375 2.76822 4.60198C3.13666 4.75319 3.52639 4.84706 3.92335 4.87929C4.25142 4.84729 4.57279 4.7662 4.87733 4.64006L5.00622 4.60198L5.27377 4.5639H5.34993C6.00195 4.57391 6.62418 4.83983 7.08214 5.30404C7.54006 5.76824 7.79768 6.39396 7.79885 7.04601V7.21299C7.7982 7.3173 7.77698 7.42058 7.73636 7.51666C7.69567 7.61286 7.6361 7.70028 7.56158 7.77347C7.48707 7.84663 7.39873 7.90442 7.30184 7.94337C7.20507 7.98226 7.10148 8.0012 6.99719 8H0.791896C0.582732 7.99991 0.381724 7.91702 0.23337 7.76956C0.0852026 7.6221 0.00132577 7.42203 0 7.21299V7.04601C0.00212972 6.40087 0.254634 5.78156 0.704016 5.31869C1.15349 4.85586 1.76506 4.585 2.40986 4.5639H2.58172ZM3.89991 0C5.08068 0.000131916 6.03735 0.957616 6.03735 2.13841C6.03722 3.31909 5.0806 4.27571 3.89991 4.27585C2.71912 4.27585 1.76164 3.31918 1.7615 2.13841C1.7615 0.957534 2.71904 0 3.89991 0Z" fill="#808994"/>
</svg>
