<svg width="347" height="113" viewBox="0 0 347 113" fill="none" xmlns="http://www.w3.org/2000/svg">
<mask id="path-1-outside-1_0_21515" maskUnits="userSpaceOnUse" x="0" y="0" width="257" height="113" fill="black">
<rect fill="white" width="257" height="113"/>
<path d="M248 1C252.418 1 256 4.58172 256 9V104C256 108.418 252.418 112 248 112H9C4.58172 112 1 108.418 1 104V62.9268C3.39049 61.5433 5 58.9606 5 56C5 53.0392 3.39073 50.4556 1 49.0723V9C1 4.58172 4.58172 1 9 1H248Z"/>
</mask>
<path d="M248 1C252.418 1 256 4.58172 256 9V104C256 108.418 252.418 112 248 112H9C4.58172 112 1 108.418 1 104V62.9268C3.39049 61.5433 5 58.9606 5 56C5 53.0392 3.39073 50.4556 1 49.0723V9C1 4.58172 4.58172 1 9 1H248Z" fill="#25282D"/>
<path d="M256 9H257H256ZM256 104H257H256ZM248 112V113V112ZM1 104H0H1ZM1 62.9268L0.499112 62.0612L0 62.3501V62.9268H1ZM1 49.0723H0V49.649L0.499165 49.9378L1 49.0723ZM1 9H0H1ZM9 1V0V1ZM248 1V2C251.866 2 255 5.13401 255 9H256H257C257 4.02944 252.971 0 248 0V1ZM256 9H255V104H256H257V9H256ZM256 104H255C255 107.866 251.866 111 248 111V112V113C252.971 113 257 108.971 257 104H256ZM248 112V111H9V112V113H248V112ZM9 112V111C5.13401 111 2 107.866 2 104H1H0C1.19209e-07 108.971 4.02944 113 9 113V112ZM1 104H2V62.9268H1H0V104H1ZM1 62.9268L1.50089 63.7923C4.18703 62.2378 6 59.3325 6 56H5H4C4 58.5886 2.59395 60.8489 0.499112 62.0612L1 62.9268ZM5 56H6C6 52.6675 4.18742 49.7613 1.50083 48.2067L1 49.0723L0.499165 49.9378C2.59403 51.15 4 53.411 4 56H5ZM1 49.0723H2V9H1H0V49.0723H1ZM1 9H2C2 5.13401 5.13401 2 9 2V1V0C4.02944 2.98023e-07 1.13249e-06 4.02944 0 9H1ZM9 1V2H248V1V0H9V1Z" fill="#3B1F6E" mask="url(#path-1-outside-1_0_21515)"/>
<mask id="path-3-outside-2_0_21515" maskUnits="userSpaceOnUse" x="255" y="0" width="92" height="113" fill="black">
<rect fill="white" x="255" width="92" height="113"/>
<path d="M338 1C342.418 1 346 4.58172 346 9V49.0723C343.609 50.4556 342 53.0392 342 56C342 58.9606 343.61 61.5433 346 62.9268V104C346 108.418 342.418 112 338 112H264C259.582 112 256 108.418 256 104V9C256 4.58172 259.582 1 264 1H338Z"/>
</mask>
<path d="M338 1C342.418 1 346 4.58172 346 9V49.0723C343.609 50.4556 342 53.0392 342 56C342 58.9606 343.61 61.5433 346 62.9268V104C346 108.418 342.418 112 338 112H264C259.582 112 256 108.418 256 104V9C256 4.58172 259.582 1 264 1H338Z" fill="#25282D"/>
<path d="M346 9H347H346ZM346 49.0723L346.501 49.9378L347 49.649V49.0723H346ZM346 62.9268H347V62.3501L346.501 62.0612L346 62.9268ZM346 104H347H346ZM338 112V113V112ZM256 104H255H256ZM256 9H255H256ZM264 1V0V1ZM338 1V2C341.866 2 345 5.13401 345 9H346H347C347 4.02944 342.971 0 338 0V1ZM346 9H345V49.0723H346H347V9H346ZM346 49.0723L345.499 48.2067C342.813 49.7613 341 52.6675 341 56H342H343C343 53.411 344.406 51.15 346.501 49.9378L346 49.0723ZM342 56H341C341 59.3325 342.813 62.2378 345.499 63.7923L346 62.9268L346.501 62.0612C344.406 60.8489 343 58.5886 343 56H342ZM346 62.9268H345V104H346H347V62.9268H346ZM346 104H345C345 107.866 341.866 111 338 111V112V113C342.971 113 347 108.971 347 104H346ZM338 112V111H264V112V113H338V112ZM264 112V111C260.134 111 257 107.866 257 104H256H255C255 108.971 259.029 113 264 113V112ZM256 104H257V9H256H255V104H256ZM256 9H257C257 5.13401 260.134 2 264 2V1V0C259.029 1.19209e-07 255 4.02944 255 9H256ZM264 1V2H338V1V0H264V1Z" fill="#3B1F6E" mask="url(#path-3-outside-2_0_21515)"/>
</svg>
