<svg width="15" height="18" viewBox="0 0 15 18" fill="none" xmlns="http://www.w3.org/2000/svg">
<g clip-path="url(#clip0_0_10109)">
<path d="M13.5615 7.44813H4.17897V5.01715C4.18485 4.98987 4.18485 4.96168 4.17897 4.9344C4.17761 4.50474 4.26123 4.07905 4.42502 3.68183C4.58882 3.28461 4.82955 2.92372 5.13336 2.61991C5.43718 2.31609 5.79808 2.07535 6.1953 1.91156C6.59252 1.74776 7.01821 1.66414 7.44787 1.66551C8.30594 1.6654 9.12965 2.0027 9.74123 2.6046C10.3528 3.20649 10.7032 4.02469 10.7168 4.88266V5.41025C10.7167 5.5198 10.7385 5.62826 10.7807 5.72935C10.823 5.83043 10.8848 5.92212 10.9628 5.99911C11.0407 6.07609 11.1332 6.13684 11.2348 6.17782C11.3364 6.21879 11.4451 6.23917 11.5547 6.2378C11.7742 6.2378 11.9846 6.15061 12.1398 5.99541C12.295 5.84021 12.3822 5.62973 12.3822 5.41025V4.91369C12.3809 4.26706 12.2522 3.62704 12.0035 3.03015C11.7548 2.43326 11.3909 1.8912 10.9327 1.43493C10.4745 0.978648 9.93093 0.617086 9.333 0.370886C8.73507 0.124686 8.0945 -0.00134901 7.44787 1.08885e-05C6.80036 9.45959e-06 6.15922 0.12774 5.56113 0.375842C4.96305 0.623944 4.41977 0.987546 3.96239 1.44588C3.50502 1.90421 3.14253 2.44828 2.89568 3.04688C2.64884 3.64549 2.52248 4.2869 2.52384 4.9344V7.44813H1.38594C1.02104 7.44813 0.671093 7.59309 0.413075 7.85111C0.155057 8.10913 0.0101021 8.45906 0.0101021 8.82395V16.81C0.0413185 17.1118 0.172153 17.3946 0.381952 17.6137C0.59175 17.8329 0.868561 17.976 1.1687 18.0203H13.7994C14.0605 17.9593 14.2978 17.8227 14.4817 17.6277C14.6657 17.4328 14.7882 17.1879 14.8339 16.9238V8.71017C14.8097 8.38174 14.6675 8.07312 14.4337 7.8412C14.1999 7.60928 13.8901 7.46969 13.5615 7.44813ZM8.10992 13.9652H6.76512C6.54564 13.9652 6.33514 13.878 6.17995 13.7228C6.02475 13.5676 5.93755 13.3571 5.93755 13.1377C5.93619 13.0281 5.95658 12.9194 5.99756 12.8178C6.03853 12.7162 6.09927 12.6237 6.17626 12.5458C6.25324 12.4678 6.34493 12.4059 6.44602 12.3637C6.5471 12.3215 6.65557 12.2997 6.76512 12.2997H8.10992C8.21947 12.2997 8.32794 12.3215 8.42903 12.3637C8.53011 12.4059 8.6218 12.4678 8.69879 12.5458C8.77577 12.6237 8.83651 12.7162 8.87749 12.8178C8.91846 12.9194 8.93886 13.0281 8.93749 13.1377C8.93749 13.3571 8.8503 13.5676 8.6951 13.7228C8.5399 13.878 8.32941 13.9652 8.10992 13.9652Z" fill="#808994"/>
</g>
<defs>
<clipPath id="clip0_0_10109">
<rect width="14.39" height="17.4" fill="white" transform="scale(1.03446)"/>
</clipPath>
</defs>
</svg>
