<svg width="23" height="23" viewBox="0 0 23 23" fill="none" xmlns="http://www.w3.org/2000/svg">
<path fill-rule="evenodd" clip-rule="evenodd" d="M3.83333 5.11111H14.0556C16.1726 5.11111 17.8889 6.82735 17.8889 8.94444V19.1667C17.8889 21.2838 16.1726 23 14.0556 23H3.83333C1.71624 23 0 21.2838 0 19.1667V8.94444C0 6.82735 1.71624 5.11111 3.83333 5.11111Z" fill="white"/>
<path d="M19.1667 0C21.2838 0 23 1.71624 23 3.83333V14.0556C23 16.1726 21.2838 17.8889 19.1667 17.8889H16.6191V15.3333H19.1667C19.8724 15.3333 20.4444 14.7613 20.4444 14.0556V3.83333C20.4444 3.12764 19.8724 2.55556 19.1667 2.55556H8.94444C8.23875 2.55556 7.66667 3.12764 7.66667 3.83333V6.39089H5.11111V3.83333C5.11111 1.71624 6.82735 0 8.94444 0H19.1667Z" fill="white"/>
</svg>
