<svg width="10" height="10" viewBox="0 0 10 10" fill="none" xmlns="http://www.w3.org/2000/svg">
<g clip-path="url(#clip0_0_52312)">
<path d="M3.75781 0.400391C5.11524 0.400588 6.21661 1.50195 6.2168 2.85938C6.2168 3.69365 5.80253 4.43048 5.16797 4.875C6.47414 5.45963 7.58105 6.90427 7.58105 8.19434C7.58 10.2152 0 10.2148 0 8.1582C0.000180162 7.05337 1.07298 5.48609 2.36133 4.88379C1.71873 4.44088 1.29785 3.69847 1.29785 2.85938C1.29804 1.50183 2.40022 0.400391 3.75781 0.400391ZM7.02344 1.16602C8.08158 1.16602 8.93848 2.02291 8.93848 3.08105C8.93845 3.73004 8.61644 4.30315 8.12207 4.64941C9.13986 5.10517 10.0015 6.23106 10 7.23438C10 7.81901 9.18316 8.18777 8.15723 8.33594C8.16523 8.28945 8.16989 8.24144 8.16992 8.19336C8.16992 6.90337 7.06389 5.45872 5.75781 4.87402C6.39237 4.42951 6.80664 3.69106 6.80664 2.8584C6.80657 2.27711 6.60476 1.74255 6.2666 1.32227C6.49845 1.22083 6.75456 1.16605 7.02344 1.16602Z" fill="#808994"/>
</g>
<defs>
<clipPath id="clip0_0_52312">
<rect width="10" height="10" fill="white"/>
</clipPath>
</defs>
</svg>
