<svg width="16" height="18" viewBox="0 0 16 18" fill="none" xmlns="http://www.w3.org/2000/svg">
<path d="M15.8899 3.83242C15.8618 3.55607 15.7438 3.29661 15.5541 3.09366C15.3645 2.89071 15.1135 2.75545 14.8397 2.70867C13.7333 2.54017 12.6414 2.28742 11.5735 1.95254C10.5245 1.52681 9.54143 0.953951 8.65387 0.251179C8.42567 0.0878442 8.15208 0 7.87145 0C7.59082 0 7.31723 0.0878442 7.08903 0.251179C6.24779 1.02788 5.24285 1.6057 4.1484 1.94203C3.1439 2.36195 2.08165 2.62751 0.99772 2.7297C0.727284 2.7731 0.480181 2.90871 0.298333 3.11353C0.116485 3.31835 0.011082 3.57978 0 3.85345C0 3.85345 0 6.67854 0 9.15708C0 13.652 5.25114 18 7.95022 18C10.6493 18 15.0918 14.9333 15.8164 9.22009C15.9739 5.85937 15.8899 3.83242 15.8899 3.83242ZM13.0018 7.3297L7.46711 12.5808C7.3443 12.6955 7.18678 12.7661 7.01942 12.7813C6.85205 12.7965 6.6844 12.7555 6.54291 12.6649L6.40638 12.5494L3.35023 9.39867C3.21418 9.25772 3.13816 9.06946 3.13816 8.87356C3.13816 8.67766 3.21418 8.48941 3.35023 8.34845C3.49118 8.21241 3.67944 8.13634 3.87534 8.13634C4.07124 8.13634 4.25949 8.21241 4.40045 8.34845L6.92099 10.9845L11.9096 6.26896C12.0517 6.1353 12.2395 6.06089 12.4347 6.06089C12.6298 6.06089 12.8176 6.1353 12.9598 6.26896C13.1023 6.40618 13.1863 6.59318 13.1941 6.79086C13.2019 6.98855 13.133 7.18163 13.0018 7.3297Z" fill="#808994"/>
</svg>
