<svg width="18" height="18" viewBox="0 0 18 18" fill="none" xmlns="http://www.w3.org/2000/svg">
<path d="M14.085 1.1746L16.6367 3.7433L17.4619 2.91254C17.6861 2.68535 17.8119 2.3781 17.8119 2.05788C17.8119 1.73766 17.6861 1.43041 17.4619 1.20322L16.6082 0.343836C16.3829 0.121583 16.0794 -0.00203053 15.764 2.52369e-05C15.4489 1.13164e-05 15.1462 0.123324 14.9197 0.343836L14.085 1.1746Z" fill="white"/>
<path d="M6.35578 8.99493L5.93841 11.4395C5.92482 11.5127 5.92915 11.5881 5.95104 11.6593C5.97293 11.7304 6.01171 11.7951 6.06402 11.8478C6.11633 11.9004 6.18061 11.9395 6.25128 11.9615C6.32195 11.9836 6.39689 11.9879 6.46962 11.9742L8.89799 11.5541L15.7942 4.62144L13.2425 2.05273L6.35578 8.99493Z" fill="white"/>
<path d="M9.83854 2.04H2.74172C2.38411 2.04 2.02649 2.28 2.02649 2.76V15.24C2.02649 15.6 2.38411 15.96 2.74172 15.96H15.1391C15.4967 15.96 15.8543 15.6 15.8543 15.24V7.07491C15.8543 7.07491 15.9735 6.23491 16.9272 6.23491C16.9272 6.23491 18 6.47491 18 7.07491V15.96C18 17.16 17.0464 18 15.9735 18H2.02649C0.834437 18 0 17.04 0 15.96V2.04C0 0.84 0.953642 0 2.02649 0H9.83854C10.673 0 10.5538 1.08 10.5538 1.08C10.673 1.68 9.83854 2.04 9.83854 2.04Z" fill="white"/>
</svg>
