<svg width="24" height="25" viewBox="0 0 24 25" fill="none" xmlns="http://www.w3.org/2000/svg">
<g clip-path="url(#clip0_0_29292)">
<path d="M23.9845 11.9997C23.9845 15.1796 22.7224 18.2295 20.4753 20.4795C18.2282 22.7295 15.1799 23.9956 12 23.9997C10.6184 23.9997 0.357084 24.0773 0.326036 23.9997C0.294989 23.9221 2.00262 18.8148 1.10223 16.9829C0.372373 15.4068 -0.00382623 13.6901 2.93388e-05 11.9532C2.93388e-05 8.77059 1.26431 5.71833 3.51475 3.4679C5.76518 1.21746 8.81744 -0.046875 12 -0.046875C13.5785 -0.0448449 15.1411 0.268642 16.5982 0.875522C18.0554 1.4824 19.3785 2.37075 20.4918 3.48978C21.605 4.60882 22.4866 5.93655 23.0859 7.39682C23.6853 8.8571 23.9906 10.4212 23.9845 11.9997Z" fill="white"/>
<path d="M18.1473 17.2009C18.6751 16.285 18.3801 15.6485 17.4487 14.8723C16.5173 14.0961 15.2753 13.4907 14.5147 14.3756C14.5147 14.3756 13.6919 15.3535 11.2857 13.0715C8.47585 10.4014 9.73329 9.4544 9.73329 9.4544C10.7113 8.47639 10.0903 7.74676 9.26758 6.62904C8.44481 5.51131 7.62204 5.18539 6.44222 6.13235C4.1602 7.96418 7.37366 12.3419 9.00367 13.8943C10.2246 15.1722 11.5776 16.3169 13.0399 17.3095L13.8782 17.7753C14.3854 18.1135 14.9687 18.3203 15.5757 18.3772C16.1827 18.4341 16.7943 18.3393 17.3555 18.1012C17.7269 17.8715 18.0277 17.5439 18.2249 17.1543L18.1473 17.2009Z" fill="#7DB81F"/>
</g>
<defs>
<clipPath id="clip0_0_29292">
<rect width="24" height="24.0621" fill="white"/>
</clipPath>
</defs>
</svg>
