<svg width="30" height="31" viewBox="0 0 30 31" fill="none" xmlns="http://www.w3.org/2000/svg">
<path d="M30 15.2214C30 23.6279 23.2843 30.4427 15 30.4427C6.71573 30.4427 0 23.6279 0 15.2214C0 6.81483 6.71573 0 15 0C23.2843 0 30 6.81483 30 15.2214Z" fill="#7889A6"/>
<path d="M19.21 6.2103V9.07193H17.54C17.3182 9.04286 17.0928 9.06222 16.8789 9.12872C16.6651 9.19522 16.4677 9.30734 16.3 9.45754C16.0649 9.79792 15.9519 10.2098 15.98 10.6245V12.654H19.11L18.69 15.8505H15.98V24.0598H12.72V15.8505H9.99999V12.654H12.72V10.2896C12.6855 9.72091 12.7662 9.15113 12.9571 8.61533C13.148 8.07953 13.4451 7.58913 13.83 7.17433C14.2284 6.79087 14.7004 6.49474 15.2166 6.30444C15.7327 6.11415 16.2819 6.03375 16.83 6.06822C17.6417 6.05513 18.4535 6.0958 19.26 6.18999L19.21 6.2103Z" fill="#191E24"/>
</svg>
