<svg width="22" height="22" viewBox="0 0 22 22" fill="none" xmlns="http://www.w3.org/2000/svg">
<g opacity="0.8">
<path fill-rule="evenodd" clip-rule="evenodd" d="M15.547 2.24498L15.5254 2.27922C15.3951 2.48611 15.2037 2.78804 14.9609 3.16615C14.4752 3.92256 13.7843 4.9829 12.9647 6.19672L12.9145 6.27094C12.4627 6.23601 11.9535 6.21277 11.3983 6.21277C10.8432 6.21277 10.334 6.23601 9.88216 6.27094L9.832 6.19672C9.01234 4.9829 8.32146 3.92256 7.83577 3.16615C7.59298 2.78804 7.40164 2.48611 7.27128 2.27922L7.24973 2.24497C8.0261 2.13426 9.38307 2 11.3983 2C13.4136 2 14.7706 2.13426 15.547 2.24498ZM4.2046 8.16029C3.97368 7.77716 3.93756 7.30923 4.09963 6.89133C5.11425 4.27507 6.11467 2.57447 6.11467 2.57447C6.11467 2.57447 7.60959 4.98607 9.66896 7.97677C8.11083 8.40463 6.78114 9.39658 5.90595 10.7233C5.13819 9.66601 4.55109 8.73514 4.2046 8.16029ZM16.8908 10.7234C17.6586 9.66605 18.2457 8.73514 18.5922 8.16029C18.8231 7.77716 18.8593 7.30923 18.6972 6.89133C17.6826 4.27507 16.6821 2.57447 16.6821 2.57447C16.6821 2.57447 15.1872 4.98607 13.1278 7.9768C14.6859 8.40463 16.0156 9.39662 16.8908 10.7234ZM11.3984 8.89362C8.37603 8.89362 5.92593 11.3799 5.92593 14.4468C5.92593 17.5137 8.37603 20 11.3984 20C14.4207 20 16.8708 17.5137 16.8708 14.4468C16.8708 11.3799 14.4207 8.89362 11.3984 8.89362ZM11.8171 11.4363L12.511 12.7938L13.9799 13.0873C14.3392 13.159 14.4844 13.6008 14.2395 13.8771L13.1986 15.0518L13.39 16.6253C13.436 17.0043 13.0478 17.2828 12.7111 17.1123L11.3984 16.4474L10.0857 17.1123C9.74897 17.2828 9.36069 17.0043 9.40677 16.6253L9.59812 15.0518L8.55719 13.8771C8.31236 13.6008 8.45755 13.159 8.81685 13.0873L10.2858 12.7938L10.9796 11.4363C11.1556 11.0919 11.6411 11.0919 11.8171 11.4363Z" fill="#75CB08"/>
</g>
</svg>
