<svg width="18" height="18" viewBox="0 0 18 18" fill="none" xmlns="http://www.w3.org/2000/svg">
<g clip-path="url(#clip0_0_7738)">
<path d="M8.99958 12.7553C7.88361 12.7526 6.80671 13.166 5.97926 13.9148C5.15182 14.6636 4.63328 15.6941 4.52496 16.8048C5.88642 17.5873 7.42927 17.999 8.99958 17.999C10.5699 17.999 12.1127 17.5873 13.4742 16.8048C13.3659 15.6941 12.8473 14.6636 12.0199 13.9148C11.1925 13.166 10.1156 12.7526 8.99958 12.7553Z" fill="#808994"/>
<path d="M8.99994 0C7.15852 0.000388264 5.36154 0.565646 3.85146 1.61944C2.34138 2.67323 1.19089 4.16482 0.555227 5.89304C-0.08044 7.62126 -0.170689 9.50292 0.296661 11.284C0.764012 13.0652 1.76646 14.6601 3.16876 15.8536C3.48023 14.5412 4.22532 13.3722 5.2835 12.5358C6.34169 11.6993 7.6511 11.2443 8.99994 11.2443C10.3488 11.2443 11.6582 11.6993 12.7164 12.5358C13.7746 13.3722 14.5197 14.5412 14.8311 15.8536C16.2334 14.6601 17.2359 13.0652 17.7032 11.284C18.1706 9.50292 18.0803 7.62126 17.4447 5.89304C16.809 4.16482 15.6585 2.67323 14.1484 1.61944C12.6383 0.565646 10.8414 0.000388264 8.99994 0ZM8.99994 10.4981C8.39926 10.4981 7.81208 10.3201 7.31263 9.98634C6.81319 9.65263 6.42392 9.17828 6.19405 8.62333C5.96418 8.06838 5.90404 7.45771 6.02123 6.86857C6.13841 6.27944 6.42766 5.73832 6.8524 5.31358C7.27715 4.88884 7.8183 4.59958 8.40743 4.48239C8.99657 4.3652 9.60722 4.42535 10.1622 4.65522C10.7171 4.88508 11.1915 5.27434 11.5252 5.77379C11.8589 6.27323 12.037 6.8604 12.037 7.46107C12.037 8.26655 11.717 9.03906 11.1475 9.60863C10.5779 10.1782 9.80542 10.4981 8.99994 10.4981Z" fill="#808994"/>
<path d="M8.99999 6.00329C8.7063 6.00737 8.42029 6.09768 8.17751 6.26299C7.93473 6.42831 7.74589 6.66133 7.63447 6.9331C7.52305 7.20487 7.49398 7.50338 7.55085 7.79154C7.60772 8.0797 7.74803 8.34484 7.95434 8.5539C8.16065 8.76296 8.42385 8.90671 8.71124 8.96739C8.99862 9.02808 9.2975 9.00297 9.57072 8.89516C9.84394 8.78736 10.0794 8.60162 10.248 8.36105C10.4165 8.12049 10.5106 7.83571 10.5185 7.5421C10.5254 7.33987 10.4911 7.13833 10.4175 6.94985C10.3439 6.76136 10.2326 6.58986 10.0905 6.44583C9.94834 6.3018 9.77833 6.18832 9.59083 6.11223C9.40333 6.03614 9.20229 5.99905 8.99999 6.00329Z" fill="#808994"/>
</g>
<defs>
<clipPath id="clip0_0_7738">
<rect width="17.78" height="17.78" fill="white" transform="scale(1.01236)"/>
</clipPath>
</defs>
</svg>
