<svg width="262" height="66" viewBox="0 0 262 66" fill="none" xmlns="http://www.w3.org/2000/svg">
<mask id="path-1-inside-1_0_58122" fill="white">
<path d="M234.849 10H8C3.58173 10 0 13.5817 0 18V58C0 62.4183 3.58173 66 8 66H254C258.418 66 262 62.4183 262 58V18C262 13.5817 258.418 10 254 10H251.151L243 0L234.849 10Z"/>
</mask>
<path d="M234.849 10H8C3.58173 10 0 13.5817 0 18V58C0 62.4183 3.58173 66 8 66H254C258.418 66 262 62.4183 262 58V18C262 13.5817 258.418 10 254 10H251.151L243 0L234.849 10Z" fill="#1B1D20"/>
<path d="M234.849 10L235.624 10.6318L235.324 11H234.849V10ZM0 18H-1H0ZM0 58H-1H0ZM262 58H263H262ZM254 10V9V10ZM251.151 10V11H250.676L250.376 10.6318L251.151 10ZM243 0L242.225 -0.631823L243 -1.58272L243.775 -0.631823L243 0ZM234.849 10V11H8V10V9H234.849V10ZM8 10V11C4.134 11 1 14.134 1 18H0H-1C-1 13.0294 3.02945 9 8 9V10ZM0 18H1V58H0H-1V18H0ZM0 58H1C1 61.866 4.134 65 8 65V66V67C3.02945 67 -1 62.9706 -1 58H0ZM8 66V65H254V66V67H8V66ZM254 66V65C257.866 65 261 61.866 261 58H262H263C263 62.9706 258.971 67 254 67V66ZM262 58H261V18H262H263V58H262ZM262 18H261C261 14.134 257.866 11 254 11V10V9C258.971 9 263 13.0294 263 18H262ZM254 10V11H251.151V10V9H254V10ZM251.151 10L250.376 10.6318L242.225 0.631823L243 0L243.775 -0.631823L251.926 9.36818L251.151 10ZM243 0L243.775 0.631823L235.624 10.6318L234.849 10L234.074 9.36818L242.225 -0.631823L243 0Z" fill="#478A03" mask="url(#path-1-inside-1_0_58122)"/>
</svg>
