<svg width="24" height="20" viewBox="0 0 24 20" fill="none" xmlns="http://www.w3.org/2000/svg">
<path d="M13.7058 19.9687V14.0421H9.98006V19.9846C9.86362 19.9906 9.77073 19.9996 9.67783 19.9996C7.91867 19.9996 6.15861 20.0005 4.39934 19.9996C3.79483 19.9996 3.38833 19.6118 3.38565 18.9697C3.37344 16.5313 3.37716 14.0908 3.38836 11.6524C3.38836 11.5238 3.48603 11.3594 3.58459 11.2716C5.17666 9.86499 6.77711 8.46734 8.37486 7.0686C9.43841 6.13752 10.501 5.20638 11.5646 4.27628C11.6472 4.20448 11.7318 4.13475 11.8358 4.04589C12.4704 4.60026 13.1022 5.15152 13.733 5.70379C15.8141 7.52521 17.8925 9.35059 19.9792 11.165C20.2036 11.3594 20.2993 11.5567 20.2974 11.8708C20.2843 14.1857 20.288 16.5014 20.2927 18.8152C20.2936 19.236 20.1951 19.6019 19.8449 19.8342C19.7182 19.9187 19.5577 19.9916 19.4122 19.9926C17.5451 20.0026 15.678 19.9975 13.8119 19.9965C13.7847 19.9966 13.7564 19.9836 13.7058 19.9687ZM16.5097 3.56058C16.5097 2.58259 16.5088 1.67941 16.5097 0.777131C16.5106 0.200945 16.6402 0.0633738 17.1818 0.0624013C18.0229 0.0624013 18.864 0.0614525 19.7051 0.0633738C20.1388 0.0644649 20.2889 0.226846 20.2899 0.71437C20.2919 2.64535 20.2965 4.57746 20.2843 6.50844C20.2824 6.80652 20.3612 6.99787 20.5817 7.18729C21.5037 7.97488 22.4076 8.78435 23.3163 9.58885C23.7621 9.98368 23.7734 10.176 23.3979 10.6456C23.1708 10.9307 22.9484 11.2208 22.7192 11.505C22.4377 11.8568 22.2048 11.8788 21.8679 11.5796C18.6415 8.72047 15.4152 5.85937 12.1878 2.99924C12.0761 2.90057 11.9617 2.80379 11.8311 2.69011C11.1055 3.33223 10.3855 3.96727 9.66737 4.60422C7.04841 6.92514 4.42941 9.24687 1.81039 11.5676C1.45558 11.8826 1.23506 11.8638 0.936553 11.4929C0.689542 11.1848 0.443716 10.8748 0.200595 10.5639C-0.0829204 10.201 -0.0716063 9.96665 0.270993 9.66065C1.73252 8.36165 3.19792 7.0676 4.66227 5.77163C6.61378 4.04395 8.56725 2.31836 10.5179 0.58771C11.403 -0.196897 12.2648 -0.196897 13.1519 0.593687C14.2004 1.52775 15.2519 2.45797 16.3022 3.38902C16.352 3.43299 16.4046 3.47379 16.5097 3.56058Z" fill="#85D420"/>
</svg>
