<svg width="30" height="29" viewBox="0 0 30 29" fill="none" xmlns="http://www.w3.org/2000/svg">
<path d="M29.6784 10.6584C29.5394 10.4813 29.3619 10.3382 29.1593 10.2401C28.9567 10.1419 28.7343 10.0913 28.5092 10.092H28.0627V6.01978C28.0627 5.52937 27.868 5.05901 27.5214 4.71208C27.1748 4.36514 26.7046 4.17 26.2142 4.16954H13.4468L11.1431 0.835652C10.9662 0.578234 10.7294 0.367669 10.4531 0.222096C10.1768 0.0765225 9.86924 0.00030462 9.55692 7.34144e-06H1.85544C1.61203 -0.000678335 1.37087 0.0466731 1.14579 0.139349C0.920708 0.232025 0.716124 0.368203 0.543762 0.540082C0.371399 0.71196 0.234646 0.916159 0.141337 1.14098C0.0480287 1.3658 -9.65729e-07 1.60682 0 1.85024V25.2744C0.00320145 26.0534 0.314111 26.7997 0.865012 27.3506C1.41591 27.9015 2.16218 28.2124 2.94126 28.2156H24.9008C25.2362 28.2166 25.562 28.104 25.8251 27.8961C26.0882 27.6882 26.2732 27.3972 26.3497 27.0707L29.9581 11.9284C30.0114 11.7094 30.0139 11.4811 29.9654 11.261C29.9169 11.0409 29.8188 10.8347 29.6784 10.6584ZM9.47527 2.08478L11.7772 5.42041C11.9541 5.67761 12.191 5.88792 12.4673 6.03319C12.7437 6.17847 13.0512 6.25436 13.3634 6.25431H25.9779V10.092H6.63825C6.30289 10.091 5.97709 10.2037 5.71396 10.4116C5.45084 10.6195 5.26591 10.9104 5.18934 11.2369L2.08477 24.2667V2.08478H9.47527ZM24.4404 26.1308H3.78212L7.10732 12.1768H27.757L24.4404 26.1308Z" fill="#808994"/>
<path d="M19.5763 19.26C19.5763 18.6843 19.1096 18.2176 18.5339 18.2176H16.4752V16.1571C16.4752 15.5814 16.0085 15.1147 15.4328 15.1147C14.8571 15.1147 14.3904 15.5814 14.3904 16.1571V18.2176H12.33C11.7543 18.2176 11.2876 18.6843 11.2876 19.26C11.2876 19.8357 11.7543 20.3023 12.33 20.3023H14.3904V22.3611C14.3904 22.9367 14.8571 23.4034 15.4328 23.4034C16.0085 23.4034 16.4752 22.9367 16.4752 22.3611V20.3023H18.5339C19.1096 20.3023 19.5763 19.8357 19.5763 19.26Z" fill="#808994"/>
</svg>
