<svg width="14" height="14" viewBox="0 0 14 14" fill="none" xmlns="http://www.w3.org/2000/svg">
<path d="M6.78294 0.141915C6.85661 -0.0476511 7.14339 -0.0476509 7.21706 0.141915C7.61267 1.15985 8.5143 3.24945 9.63242 4.36758C10.7505 5.4857 12.8401 6.38733 13.8581 6.78294C14.0477 6.85661 14.0477 7.14339 13.8581 7.21706C12.8401 7.61267 10.7505 8.5143 9.63242 9.63242C8.5143 10.7505 7.61267 12.8401 7.21706 13.8581C7.14339 14.0477 6.85661 14.0477 6.78294 13.8581C6.38733 12.8401 5.4857 10.7505 4.36758 9.63242C3.24945 8.5143 1.15985 7.61267 0.141915 7.21706C-0.0476511 7.14339 -0.0476509 6.85661 0.141915 6.78294C1.15985 6.38733 3.24945 5.4857 4.36758 4.36758C5.4857 3.24945 6.38733 1.15985 6.78294 0.141915Z" fill="white"/>
</svg>
