<svg width="18" height="18" viewBox="0 0 18 18" fill="none" xmlns="http://www.w3.org/2000/svg">
<path d="M17.9998 8.96789C17.9974 8.29009 17.446 7.74259 16.7682 7.745L1.22289 7.80042C0.545095 7.80283 -0.00240827 8.35426 7.96677e-06 9.03205C0.0024242 9.70985 0.553846 10.2574 1.23164 10.2549L16.777 10.1995C17.4547 10.1971 18.0023 9.64569 17.9998 8.96789Z" fill="#000C25"/>
<path d="M9.00028 17.9999C9.67808 17.9999 10.2276 17.4505 10.2276 16.7727V1.22727C10.2276 0.549466 9.67808 0 9.00028 0C8.32248 0 7.77301 0.549467 7.77301 1.22727V16.7727C7.77301 17.4505 8.32248 17.9999 9.00028 17.9999Z" fill="#000C25"/>
</svg>
