<svg width="36" height="36" viewBox="0 0 36 36" fill="none" xmlns="http://www.w3.org/2000/svg">
<path d="M18 0C27.9411 0 36 8.05887 36 18C36 27.9411 27.9411 36 18 36C8.05887 36 0 27.9411 0 18C0 8.05887 8.05887 0 18 0ZM25.9277 11.5645C26.2519 10.31 25.4316 9.74117 24.583 10.1113L5.98047 17.0361C4.71118 17.5283 4.71886 18.2118 5.74805 18.5166L10.5234 19.9541L21.5732 13.2246C22.0957 12.9178 22.573 13.0827 22.1807 13.4189L13.2285 21.2188H13.2266L13.2285 21.2197L12.8984 25.9707C13.3811 25.9707 13.5945 25.7571 13.8652 25.5049L16.1846 23.3281L21.0098 26.7676C21.8995 27.2405 22.5384 26.9975 22.7598 25.9727L25.9277 11.5645Z" fill="white" fill-opacity="0.7"/>
</svg>
