<svg width="12" height="14" viewBox="0 0 12 14" fill="none" xmlns="http://www.w3.org/2000/svg">
<path d="M12 7.5594C12 4.81431 10.1642 2.49374 7.66179 1.76763V0.869548C7.66179 0.389172 7.2743 0 6.79636 0H5.20383C4.7258 0 4.33858 0.389158 4.33858 0.869548V1.76763C1.83605 2.49353 0 4.81431 0 7.5594C0 9.7936 1.21674 11.7464 3.01888 12.7877L2.7125 13.2308C2.57631 13.428 2.6248 13.699 2.82106 13.836C2.89328 13.8866 2.97921 13.9138 3.06727 13.9138C3.20434 13.9138 3.33918 13.8486 3.42311 13.7271L3.8086 13.1697C4.4881 13.4385 5.22681 13.588 6.00009 13.588C6.77319 13.588 7.51191 13.4385 8.1915 13.1697L8.57689 13.7271C8.66093 13.8486 8.79557 13.9138 8.93292 13.9138C9.01792 13.9138 9.10389 13.8884 9.17903 13.836C9.3753 13.699 9.42378 13.428 9.28758 13.2308L8.9812 12.7877C10.7836 11.7464 12 9.7936 12 7.5594ZM5.20383 0.869548H6.79638V1.58537C6.53559 1.55043 6.27016 1.53064 6.00009 1.53064C5.72973 1.53064 5.46461 1.55043 5.20383 1.58537V0.869548ZM6.00009 12.7184C3.16405 12.7184 0.865331 10.4085 0.865331 7.5594C0.865331 4.7099 3.16406 2.39999 6.00009 2.39999C8.83595 2.39999 11.1348 4.7099 11.1348 7.5594C11.1348 10.4085 8.83595 12.7184 6.00009 12.7184Z" fill="#4B555C"/>
<path d="M10.1787 5.94054C10.1211 5.79127 9.95383 5.71714 9.80586 5.77458C9.65712 5.83223 9.58312 5.99992 9.64049 6.14937C9.81321 6.59909 9.90091 7.07364 9.90091 7.56005C9.90091 9.71994 8.15188 11.4771 6.00218 11.4771C3.8525 11.4771 2.10357 9.71994 2.10357 7.56005C2.10357 5.39998 3.8525 3.64266 6.00218 3.64266C6.16137 3.64266 6.29041 3.513 6.29041 3.35307C6.29041 3.19295 6.16137 3.06329 6.00218 3.06329C3.53435 3.06329 1.52674 5.08052 1.52674 7.56005C1.52674 10.0394 3.53435 12.0568 6.00218 12.0568C8.46984 12.0568 10.4777 10.0394 10.4777 7.56005C10.4777 7.00203 10.3773 6.45722 10.1787 5.94054Z" fill="#4B555C"/>
<path d="M7.11999 3.80565C7.88845 4.03604 8.55917 4.49372 9.06029 5.12897C9.08727 5.16323 9.12161 5.19091 9.16076 5.20993C9.19989 5.22896 9.24281 5.23884 9.28629 5.23883C9.34926 5.23883 9.41263 5.21844 9.46555 5.17613C9.59035 5.07675 9.61141 4.8945 9.51268 4.76911C8.9376 4.0401 8.16739 3.51487 7.28535 3.25013C7.13253 3.20431 6.97181 3.29166 6.92641 3.445C6.88085 3.59835 6.96758 3.75984 7.11999 3.80565ZM5.50155 7.55982C5.50155 7.83796 5.72593 8.06348 6.00304 8.06348C6.28005 8.06348 6.50453 7.83796 6.50453 7.55982C6.50453 7.2815 6.28005 7.05595 6.00304 7.05595C5.72593 7.05593 5.50155 7.28149 5.50155 7.55982ZM6.29126 6.30966V4.55641C6.29126 4.39647 6.16223 4.26663 6.00304 4.26663C5.84368 4.26663 5.71454 4.39647 5.71454 4.55641V6.30966C5.71454 6.46978 5.84368 6.59945 6.00304 6.59945C6.16223 6.59944 6.29126 6.46978 6.29126 6.30966ZM9.02242 7.26983H7.27725C7.11805 7.26983 6.98902 7.39967 6.98902 7.55981C6.98902 7.71974 7.11805 7.84959 7.27725 7.84959H9.02242C9.18139 7.84959 9.31063 7.71974 9.31063 7.55981C9.31063 7.39967 9.18139 7.26983 9.02242 7.26983Z" fill="#4B555C"/>
</svg>
