<svg width="16" height="18" viewBox="0 0 16 18" fill="none" xmlns="http://www.w3.org/2000/svg">
<g clip-path="url(#clip0_0_4397)">
<path d="M15.9105 3.83334C15.8823 3.557 15.7644 3.29754 15.5747 3.0946C15.3851 2.89166 15.1341 2.7564 14.8603 2.70962C13.7539 2.54113 12.662 2.28838 11.5942 1.95351C10.5452 1.5278 9.56218 0.95495 8.67465 0.252197C8.44645 0.0888673 8.17287 0.00102558 7.89225 0.00102558C7.61163 0.00102558 7.33804 0.0888673 7.10985 0.252197C6.26864 1.02887 5.26373 1.60668 4.16931 1.943C3.16483 2.3629 2.10262 2.62846 1.01872 2.73065C0.748288 2.77405 0.501192 2.90966 0.319349 3.11447C0.137506 3.31928 0.0321062 3.5807 0.0210244 3.85436C0.0210244 3.85436 0.0210244 6.67938 0.0210244 9.15784C0.0210244 13.6527 5.27201 18.0005 7.97102 18.0005C10.67 18.0005 15.1124 14.9339 15.837 9.22085C15.9945 5.86022 15.9105 3.83334 15.9105 3.83334ZM13.0225 7.33051L7.48792 12.5815C7.36512 12.6962 7.2076 12.7667 7.04024 12.7819C6.87288 12.7971 6.70523 12.7562 6.56375 12.6655L6.42723 12.55L3.37115 9.39943C3.23512 9.25848 3.15909 9.07023 3.15909 8.87433C3.15909 8.67844 3.23512 8.49019 3.37115 8.34924C3.51211 8.2132 3.70036 8.13713 3.89625 8.13713C4.09215 8.13713 4.2804 8.2132 4.42135 8.34924L6.94182 10.9852L11.9303 6.2698C12.0724 6.13615 12.2602 6.06174 12.4554 6.06174C12.6505 6.06174 12.8383 6.13615 12.9805 6.2698C13.123 6.40703 13.2069 6.59402 13.2147 6.7917C13.2226 6.98938 13.1537 7.18245 13.0225 7.33051Z" fill="#808994"/>
</g>
<defs>
<clipPath id="clip0_0_4397">
<rect width="15.17" height="17.14" fill="white" transform="scale(1.0502)"/>
</clipPath>
</defs>
</svg>
