<svg width="21" height="22" viewBox="0 0 21 22" fill="none" xmlns="http://www.w3.org/2000/svg">
<path d="M18.665 17.1577H18.1431C17.8649 17.101 17.6154 16.9485 17.438 16.7267C17.2606 16.505 17.1666 16.228 17.1723 15.9441L16.9902 9.87618C17.0109 8.11493 16.3705 6.40995 15.1954 5.09782C14.0204 3.7857 12.396 2.96181 10.6432 2.78883V2.53398C10.6432 2.39236 10.5869 2.25654 10.4868 2.1564C10.3866 2.05626 10.2508 2 10.1092 2C9.96756 2 9.83174 2.05626 9.7316 2.1564C9.63146 2.25654 9.5752 2.39236 9.5752 2.53398V2.78883C7.82234 2.96181 6.19801 3.7857 5.02294 5.09782C3.84788 6.40995 3.20745 8.11493 3.22811 9.87618L2.91261 15.9441C2.93707 16.2323 2.84997 16.5188 2.66932 16.7447C2.48866 16.9705 2.22821 17.1183 1.94171 17.1577H1.55339C1.37253 17.105 1.18185 17.0951 0.996485 17.1288C0.811121 17.1625 0.636151 17.2389 0.485428 17.3519C0.334705 17.4649 0.212364 17.6115 0.128107 17.78C0.0438501 17.9485 0 18.1343 0 18.3228C0 18.5112 0.0438501 18.697 0.128107 18.8655C0.212364 19.034 0.334705 19.1806 0.485428 19.2936C0.636151 19.4067 0.811121 19.4831 0.996485 19.5168C1.18185 19.5505 1.37253 19.5406 1.55339 19.4878H18.665C18.8458 19.5406 19.0365 19.5505 19.2219 19.5168C19.4072 19.4831 19.5822 19.4067 19.7329 19.2936C19.8837 19.1806 20.006 19.034 20.0903 18.8655C20.1745 18.697 20.2184 18.5112 20.2184 18.3228C20.2184 18.1343 20.1745 17.9485 20.0903 17.78C20.006 17.6115 19.8837 17.4649 19.7329 17.3519C19.5822 17.2389 19.4072 17.1625 19.2219 17.1288C19.0365 17.0951 18.8458 17.105 18.665 17.1577Z" fill="#808994"/>
<path d="M8.0704 19.9612C8.0704 20.5019 8.28521 21.0205 8.66756 21.4029C9.04992 21.7852 9.56849 22 10.1092 22C10.65 22 11.1685 21.7852 11.5509 21.4029C11.9332 21.0205 12.148 20.5019 12.148 19.9612H8.0704Z" fill="#808994"/>
<circle cx="16" cy="4" r="4" fill="#F33636"/>
</svg>
