<svg width="18" height="18" viewBox="0 0 18 18" fill="none" xmlns="http://www.w3.org/2000/svg">
<path d="M17.9995 15.2336C18.0081 15.6996 17.8306 16.1504 17.5049 16.4905C17.3468 16.6521 17.1566 16.7805 16.946 16.8676C16.7267 16.9591 16.4907 17.0062 16.2523 17.0058H1.86293C1.61844 17.0044 1.37644 16.9575 1.14988 16.8676C0.927544 16.7811 0.724612 16.653 0.552469 16.4905C0.38495 16.3264 0.24799 16.135 0.147766 15.9249C0.0496478 15.7093 -0.000712501 15.4759 1.15124e-05 15.2399V5.56177C-0.000837461 5.32963 0.0452766 5.09962 0.13569 4.88499C0.226104 4.67036 0.35904 4.47536 0.526827 4.31121C0.694615 4.14706 0.893931 4.01702 1.11332 3.92856C1.3327 3.84011 1.56781 3.795 1.8051 3.79583H16.1944C16.4317 3.795 16.6668 3.84011 16.8862 3.92856C17.1056 4.01702 17.3049 4.14706 17.4727 4.31121C17.6405 4.47536 17.7734 4.67036 17.8639 4.88499C17.9543 5.09962 18.0004 5.32963 17.9995 5.56177V8.20125H13.5029C13.265 8.19505 13.0284 8.23646 12.8074 8.32291C12.5865 8.40936 12.386 8.53904 12.2181 8.70401C12.0464 8.86633 11.9114 9.06204 11.8218 9.27853C11.7322 9.49502 11.6899 9.72747 11.6978 9.96091C11.7024 10.2705 11.777 10.5752 11.9162 10.8533C12.0323 11.1026 12.2114 11.3188 12.4365 11.4818C12.7503 11.6823 13.1225 11.7772 13.4964 11.752H17.9931L17.9995 15.2336ZM15.3015 2.89715H6.3082C7.02124 2.53893 7.69574 2.187 8.33169 1.85392L9.97619 0.999232L11.2609 0.339359C11.6346 0.117111 12.0635 -0.000289246 12.5008 5.35158e-07C12.8152 0.0104285 13.1256 0.0720172 13.4194 0.182246C13.7036 0.323534 13.9584 0.515329 14.1709 0.747847L15.3015 2.89715ZM12.61 9.93577C12.6091 9.82165 12.6315 9.7085 12.6757 9.6029C12.7199 9.4973 12.7852 9.40136 12.8677 9.32066C12.9502 9.23996 13.0483 9.17612 13.1562 9.13283C13.2641 9.08954 13.3798 9.06768 13.4964 9.06851C13.6155 9.06427 13.7342 9.08445 13.8448 9.12775C13.9554 9.17104 14.0556 9.23648 14.1388 9.31989C14.2251 9.40059 14.2926 9.49845 14.337 9.60686C14.3813 9.71527 14.4013 9.8317 14.3958 9.94834C14.3978 10.0645 14.3762 10.18 14.332 10.2879C14.2879 10.3958 14.2222 10.494 14.1388 10.5768C14.0569 10.6623 13.9571 10.7296 13.8463 10.774C13.7355 10.8185 13.6161 10.8391 13.4964 10.8345C13.3766 10.8399 13.257 10.8197 13.1461 10.7752C13.0351 10.7307 12.9354 10.663 12.8541 10.5768C12.7706 10.494 12.705 10.3958 12.6608 10.2879C12.6167 10.18 12.5951 10.0645 12.5971 9.94834L12.61 9.93577Z" fill="#FFC700"/>
</svg>
