<svg width="16" height="16" viewBox="0 0 16 16" fill="none" xmlns="http://www.w3.org/2000/svg">
<path d="M13.9395 7.26902H3.97313C2.96089 7.26902 2.13916 6.44729 2.13916 5.43505C2.13916 4.4228 2.96089 3.60107 3.97313 3.60107H13.9372C14.9494 3.60107 15.7711 4.4228 15.7711 5.43505C15.7711 6.44729 14.9517 7.26902 13.9395 7.26902Z" fill="#FF4A4A"/>
<path d="M13.938 7.40725H3.97169C2.886 7.40725 2 6.52355 2 5.43556C2 4.34757 2.8837 3.46387 3.97169 3.46387H13.9357C15.0214 3.46387 15.9074 4.34757 15.9074 5.43556C15.9074 6.52355 15.0237 7.40725 13.938 7.40725ZM3.97169 3.73931C3.03749 3.73931 2.27544 4.49906 2.27544 5.43556C2.27544 6.37205 3.03749 7.13181 3.97169 7.13181H13.9357C14.8699 7.13181 15.632 6.37205 15.632 5.43556C15.632 4.50136 14.8722 3.73931 13.9357 3.73931H3.97169Z" fill="#91000A"/>
<path d="M13.072 14.8537H4.78815C3.84477 14.8537 3.07812 14.0893 3.07812 13.1436V8.05947C3.07812 7.62336 3.43161 7.26758 3.87001 7.26758H13.9901C14.4262 7.26758 14.782 7.62106 14.782 8.05947V13.1459C14.782 14.0893 14.0177 14.8537 13.072 14.8537Z" fill="#FF4A4A"/>
<path d="M13.073 14.9909H4.78915C3.77002 14.9909 2.94141 14.1623 2.94141 13.1432V8.059C2.94141 7.54715 3.35916 7.12939 3.87102 7.12939H13.9911C14.503 7.12939 14.9207 7.54715 14.9207 8.059V13.1455C14.9207 14.1623 14.0921 14.9909 13.073 14.9909ZM3.87102 7.40483C3.51065 7.40483 3.21685 7.69864 3.21685 8.059V13.1455C3.21685 14.0131 3.92151 14.7178 4.78915 14.7178H13.073C13.9406 14.7178 14.6453 14.0131 14.6453 13.1455V8.059C14.6453 7.69864 14.3515 7.40483 13.9911 7.40483H3.87102Z" fill="#91000A"/>
<path d="M15.735 5.30859C15.7373 5.34991 15.7396 5.39352 15.7396 5.43484C15.7396 5.93981 15.5353 6.39888 15.2025 6.7317C14.8719 7.06223 14.4129 7.26881 13.9056 7.26881H13.8964C13.8758 7.26651 13.8551 7.26651 13.8344 7.26651H8.53223V6.80056C10.9584 6.78908 13.8 6.77531 14.0869 6.77531C14.7801 6.77531 15.5674 6.2382 15.735 5.30859Z" fill="#C62020"/>
<path d="M13.9068 3.60352C14.8754 3.60352 15.6696 4.35639 15.7362 5.30895C15.5686 6.23856 14.7813 6.77567 14.0904 6.77567C13.8035 6.77567 10.9619 6.78944 8.53572 6.80091V3.60352H13.9068ZM8.53572 7.80627C11.0767 7.70528 13.8747 7.62953 14.5518 7.61117C14.6757 7.76725 14.7515 7.96465 14.7515 8.18041V13.019C14.7515 13.0878 14.7469 13.1567 14.74 13.2233C14.5702 13.6203 13.8999 14.2539 13.0346 14.2539H8.09961V7.82463C8.24422 7.81775 8.39112 7.81086 8.53572 7.80627Z" fill="#FF2B3F"/>
<path d="M13.9 7.26953C14.1639 7.28789 14.3981 7.41643 14.5542 7.61383C13.8747 7.63219 11.079 7.70564 8.53809 7.80893V7.26953H13.9Z" fill="#C62020"/>
<path d="M7.52702 7.26953H8.53467V7.80664C8.38777 7.81353 8.24317 7.81812 8.09856 7.825V7.64597L7.50177 7.69187V7.85025C6.41149 7.89845 5.43827 7.95124 4.80017 8.00633C4.38471 8.04306 3.87285 8.369 3.87285 8.79134C3.87285 10.079 3.82924 12.2068 3.82924 12.6039C3.82924 13.3659 4.08173 14.2565 5.41302 14.2565H7.50177V14.3942L8.09856 14.4631V14.2565H13.0335C13.9012 14.2565 14.5691 13.623 14.739 13.2259C14.638 14.1418 13.8598 14.8556 12.9165 14.8556H4.8828C3.87056 14.8556 3.04883 14.0339 3.04883 13.0216V8.18307C3.04883 7.69646 3.42985 7.29708 3.90958 7.26953H7.52702Z" fill="#D8000F"/>
<path d="M8.53499 6.80078V7.26673H7.52734C7.52964 7.15426 7.53193 6.99359 7.53423 6.80537C7.85328 6.80308 8.19069 6.80308 8.53499 6.80078Z" fill="#C62020"/>
<path d="M8.53542 3.60352V6.80091C8.19112 6.80321 7.85371 6.80321 7.53466 6.8055C7.54154 6.27528 7.54843 5.5293 7.54843 5.02892C7.54843 4.17964 6.92869 4.63871 6.40076 5.37322C5.91415 6.05264 5.91874 6.15363 5.55149 6.01591C5.18423 5.87819 5.09242 5.05187 5.06947 4.84529C5.04651 4.63871 4.6104 4.77643 4.19724 5.09778C3.80015 5.40765 3.51323 5.24468 3.5316 4.70757C3.54537 4.31507 3.78179 3.88125 3.96312 3.60352H8.53542Z" fill="#D8000F"/>
<path d="M8.10069 14.2568V14.4634L7.50391 14.3946V14.2568H8.10069Z" fill="#C62020"/>
<path d="M8.10069 7.8252V14.2567H7.50391V7.85044C7.69901 7.84126 7.8987 7.83208 8.10069 7.8252Z" fill="#D8000F"/>
<path d="M8.10069 7.646V7.82503C7.8987 7.83421 7.69901 7.84339 7.50391 7.85028V7.6919L8.10069 7.646Z" fill="#C62020"/>
<path d="M7.54726 5.02892C7.54726 5.5293 7.54037 6.27758 7.53349 6.80551C6.11038 6.81239 5.02239 6.81928 5.02239 6.81928C3.64519 6.81928 2.68115 6.43596 2.68115 5.16664C2.68115 3.89732 3.94129 3.60352 3.94129 3.60352H3.96195C3.78062 3.88355 3.5442 4.31736 3.53043 4.70757C3.51206 5.24468 3.79898 5.40765 4.19607 5.09778C4.60923 4.77643 5.04534 4.63871 5.0683 4.84529C5.09125 5.05187 5.18306 5.87819 5.55032 6.01591C5.91757 6.15363 5.91298 6.05034 6.39959 5.37322C6.92752 4.63871 7.54726 4.17964 7.54726 5.02892Z" fill="#FF2B3F"/>
<path d="M7.53373 6.8055C7.53144 6.99372 7.52914 7.1544 7.52685 7.26687H3.96449C3.94613 7.26687 3.92777 7.26687 3.9094 7.26916C2.91093 7.2508 2.10986 6.43825 2.10986 5.43749C2.10986 4.93251 2.31415 4.47345 2.64697 4.14062C2.97979 3.8101 3.43657 3.60352 3.94383 3.60352C3.94383 3.60352 2.6837 3.89732 2.6837 5.16664C2.6837 6.43596 3.64774 6.81928 5.02494 6.81928C5.02494 6.81928 6.11063 6.81239 7.53373 6.8055Z" fill="#D8000F"/>
<path d="M7.50114 7.84961V14.2559H5.41239C4.0811 14.2559 3.82861 13.3653 3.82861 12.6032C3.82861 12.2062 3.87223 10.0784 3.87223 8.7907C3.87223 8.36835 4.38408 8.04242 4.79954 8.00569C5.43994 7.9506 6.41086 7.89781 7.50114 7.84961Z" fill="#FF2B3F"/>
<path d="M13.9047 7.28137H3.90853C3.42192 7.27219 2.96744 7.07709 2.62544 6.73049C2.28343 6.3839 2.09521 5.92483 2.09521 5.43593C2.09521 4.94243 2.28802 4.48107 2.63462 4.13218C2.98351 3.78329 3.44717 3.59277 3.93837 3.59277H13.9024C14.8687 3.59277 15.6767 4.34564 15.7433 5.30968C15.7456 5.351 15.7479 5.39461 15.7479 5.43822C15.7479 5.93172 15.555 6.39308 15.2084 6.74197C14.8619 7.08857 14.3982 7.28137 13.9047 7.28137ZM3.94066 3.61573C3.45405 3.61573 2.99728 3.80624 2.65298 4.14824C2.30868 4.49254 2.12046 4.94932 2.12046 5.43593C2.12046 5.91795 2.30639 6.37013 2.6438 6.71443C2.98121 7.05643 3.4311 7.24924 3.91082 7.25842H13.907C14.3936 7.25842 14.8504 7.06791 15.1947 6.7259C15.539 6.3816 15.7272 5.92483 15.7272 5.43822C15.7272 5.39461 15.7249 5.351 15.7226 5.31198C15.6583 4.36171 14.8596 3.61573 13.9047 3.61573H3.94066Z" fill="#91000A"/>
<path d="M12.919 14.8644H4.88305C3.86621 14.8644 3.0376 14.0381 3.0376 13.019V8.18269C3.0376 7.69378 3.42092 7.28751 3.90753 7.25767C3.92589 7.25767 3.94425 7.25537 3.96262 7.25537H13.8348C13.8578 7.25537 13.8785 7.25537 13.8968 7.25767C14.1562 7.27373 14.3972 7.40227 14.5602 7.60426C14.6933 7.76953 14.7622 7.96922 14.7622 8.18039V13.019C14.7622 13.0878 14.7576 13.1567 14.7507 13.2232C14.6497 14.1597 13.8601 14.8644 12.919 14.8644ZM3.96491 7.27832C3.94655 7.27832 3.92819 7.27832 3.90982 7.28062C3.43239 7.30816 3.06055 7.70526 3.06055 8.18269V13.0212C3.06055 14.0266 3.87769 14.8437 4.88305 14.8437H12.919C13.8486 14.8437 14.6267 14.1483 14.73 13.2255C14.7369 13.159 14.7415 13.0901 14.7415 13.0235V8.18269C14.7415 7.97611 14.6726 7.781 14.5441 7.62033C14.3857 7.42063 14.1516 7.29898 13.8968 7.28062C13.8785 7.27832 13.8578 7.27832 13.8371 7.27832H3.96491Z" fill="#91000A"/>
<path d="M8.52441 3.46777H8.54737V7.82891H8.52441V3.46777Z" fill="#91000A"/>
<path d="M9.77344 3.44583V3.79013C9.77344 3.79013 10.5447 4.11607 11.0818 4.73122C11.5638 5.2821 11.9081 6.17728 12.1835 6.17728C12.5508 6.17728 12.8721 5.328 12.8951 4.9378C12.918 4.54759 13.2394 4.66236 13.5837 4.9378C13.928 5.21324 14.2402 5.26144 14.2952 4.86894C14.3641 4.38692 13.446 3.28516 13.446 3.28516" fill="#C62020"/>
<path d="M13.9703 7.4074H3.9397C2.87237 7.4074 2.00244 6.53746 2.00244 5.47013V5.40357C2.00244 4.33624 2.87237 3.46631 3.9397 3.46631H13.9703C15.0376 3.46631 15.9076 4.33624 15.9076 5.40357V5.47013C15.9076 6.53746 15.0399 7.4074 13.9703 7.4074ZM3.9397 3.73945C3.02386 3.73945 2.27788 4.48544 2.27788 5.40127V5.46784C2.27788 6.38368 3.02386 7.12966 3.9397 7.12966H13.9703C14.8861 7.12966 15.6321 6.38368 15.6321 5.46784V5.40127C15.6321 4.48544 14.8861 3.73945 13.9703 3.73945H3.9397Z" fill="#91000A"/>
<path d="M12.9846 14.9909H4.88209C3.81476 14.9909 2.94482 14.121 2.94482 13.0536V8.14852C2.94482 7.58617 3.4016 7.12939 3.96395 7.12939H13.9027C14.4651 7.12939 14.9219 7.58617 14.9219 8.14852V13.0536C14.9219 14.121 14.0519 14.9909 12.9846 14.9909ZM3.96395 7.40483C3.55309 7.40483 3.22026 7.73766 3.22026 8.14852V13.0536C3.22026 13.9695 3.96625 14.7155 4.88209 14.7155H12.9846C13.9004 14.7155 14.6464 13.9695 14.6464 13.0536V8.14852C14.6464 7.73766 14.3136 7.40483 13.9027 7.40483H3.96395Z" fill="#91000A"/>
<path d="M14.8634 1.85938C14.8841 2.82571 14.1932 3.84025 13.0777 3.84025C10.9476 3.84025 8.62012 3.73466 8.62012 3.73466C8.67061 3.62908 8.728 3.50513 8.79227 3.3697C9.4625 3.39036 11.0853 3.43856 11.6385 3.43856C12.3179 3.44086 13.8351 3.98256 14.8634 1.85938Z" fill="#FFC603"/>
<path d="M12.8262 0.140625C14.2378 0.140625 14.8438 0.980717 14.8622 1.86212C13.8339 3.98531 12.3166 3.44131 11.6372 3.44131C11.0863 3.44131 9.46125 3.39311 8.79102 3.37245C9.3373 2.22479 10.4414 0.140625 12.8262 0.140625ZM12.8469 2.59204C13.1062 2.59434 13.4873 2.5117 13.4873 2.00214C13.4873 1.37551 13.1269 1.04958 12.2524 1.21025C11.3182 1.3824 10.1935 2.61958 10.0925 2.97995C10.0121 3.26457 11.0152 2.89273 11.5202 2.67238C11.8025 2.68156 12.1629 2.68844 12.5117 2.68844C12.6426 2.68844 12.7551 2.65172 12.8469 2.59204Z" fill="#FFEB00"/>
<path d="M13.4892 1.99955C13.4892 2.50911 13.1082 2.59175 12.8488 2.58945C13.2688 2.31631 13.2597 1.56344 12.4425 1.56344C11.7884 1.56344 11.327 2.11661 11.1066 2.48387C11.0607 2.55961 11.1135 2.65372 11.2007 2.65831C11.2857 2.66061 11.3958 2.6652 11.5221 2.66979C11.0171 2.89014 10.0141 3.25969 10.0944 2.97736C10.1977 2.61699 11.3224 1.37981 12.2543 1.20766C13.1311 1.04699 13.4892 1.37292 13.4892 1.99955Z" fill="#FFC603"/>
<path d="M13.0786 3.98025C10.9692 3.98025 8.6371 3.87696 8.61415 3.87467L8.40527 3.86549L8.49479 3.67727C8.52234 3.62218 8.54988 3.5625 8.57972 3.49594C8.60726 3.43856 8.6371 3.37658 8.66694 3.31231C8.9837 2.64667 9.39227 1.88002 10.0189 1.23044C10.8062 0.415601 11.7496 0.00244141 12.8261 0.00244141C13.5124 0.00244141 14.0793 0.19984 14.4627 0.571684C14.7978 0.897621 14.9906 1.35439 14.9998 1.85937C15.0112 2.43779 14.784 3.0254 14.3892 3.42937C14.0357 3.78974 13.5812 3.98025 13.0786 3.98025ZM8.8345 3.60841C9.45194 3.63366 11.341 3.70481 13.0786 3.70481C13.5078 3.70481 13.8934 3.54185 14.1941 3.23427C14.5384 2.88308 14.7381 2.37123 14.7266 1.86396C14.7106 1.09732 14.2033 0.277881 12.8284 0.277881C11.8322 0.277881 10.9531 0.663497 10.2209 1.42096C9.6195 2.04299 9.22471 2.78668 8.91943 3.43167C8.88729 3.49364 8.85975 3.55103 8.8345 3.60841Z" fill="#91000A"/>
<path d="M12.5125 2.82559C12.221 2.82559 11.8859 2.821 11.5163 2.80952C11.3901 2.80493 11.2799 2.80264 11.195 2.79805C11.1055 2.79346 11.0251 2.74526 10.9815 2.66492C10.9379 2.58688 10.9402 2.49277 10.9861 2.41473C11.0894 2.24028 11.2684 1.99009 11.5232 1.78122C11.8101 1.54709 12.1177 1.42773 12.4413 1.42773C12.8476 1.42773 13.1437 1.60677 13.2332 1.90975C13.3182 2.19897 13.1873 2.53408 12.9234 2.70623C12.804 2.78428 12.6617 2.82559 12.5125 2.82559ZM11.2432 2.52261C11.3212 2.5249 11.4176 2.52949 11.5255 2.53179C11.8905 2.54327 12.2233 2.54786 12.5125 2.54786C12.6089 2.54786 12.6961 2.52261 12.7719 2.47441C12.9348 2.36882 13.0198 2.15765 12.9693 1.9855C12.9142 1.80187 12.7283 1.70088 12.4413 1.70088C12.2325 1.70317 11.7 1.78351 11.2432 2.52261Z" fill="#91000A"/>
<path d="M3.29423 1.44629C3.02797 2.51132 3.74871 3.84262 5.02721 3.84262C7.15728 3.84262 9.48474 3.73703 9.48474 3.73703C9.43425 3.63145 9.37686 3.5075 9.31259 3.37207C8.64236 3.39273 7.01956 3.44093 6.46638 3.44093C5.78237 3.44093 4.15269 3.96427 3.29423 1.44629Z" fill="#FFC500"/>
<path d="M3.29492 1.44667C4.15567 3.96465 5.78306 3.44131 6.46707 3.44131C7.01795 3.44131 8.64305 3.39311 9.31328 3.37245C8.767 2.22479 7.66294 0.140625 5.27809 0.140625C4.08911 0.140625 3.47166 0.735116 3.29492 1.44667ZM5.59025 2.68844C5.06003 2.68844 4.80755 2.08018 5.11283 1.75883C5.16332 1.51553 5.35613 1.19648 6.03096 1.22861C6.97893 1.27452 7.90854 2.61729 8.01183 2.97766C8.09217 3.26228 7.08911 2.89043 6.58413 2.67008C6.29951 2.67926 5.93915 2.68844 5.59025 2.68844Z" fill="#FFEB00"/>
<path d="M5.11035 1.75805C5.21823 1.64328 5.39727 1.56524 5.66123 1.56524C6.3154 1.56524 6.77676 2.11842 6.99711 2.48567C7.04302 2.56142 6.99023 2.65553 6.90301 2.66012C6.81808 2.66241 6.7079 2.667 6.58166 2.67159C7.08663 2.89194 8.08969 3.26149 8.00936 2.97917C7.90607 2.6188 6.97646 1.27373 6.02848 1.23012C5.35595 1.19569 5.16085 1.51245 5.11035 1.75805Z" fill="#FFC500"/>
<path d="M5.02541 3.98011C4.44698 3.98011 3.92824 3.72303 3.56557 3.25708C3.1616 2.73833 3.00551 2.03137 3.1593 1.41163C3.2603 1.00077 3.49212 0.656465 3.82495 0.41316C4.19909 0.140015 4.68799 0 5.2756 0C6.34981 0 7.29549 0.41316 8.08279 1.228C8.71171 1.87758 9.12028 2.64652 9.43704 3.30987C9.46688 3.37414 9.49672 3.43611 9.52426 3.49579C9.5541 3.56006 9.58164 3.61974 9.60919 3.67483L9.69871 3.86305L9.48983 3.87223C9.46688 3.87452 7.13482 3.98011 5.02541 3.98011ZM3.42785 1.47819C3.29243 2.0176 3.43015 2.63504 3.78363 3.08722C4.0935 3.48432 4.5365 3.70237 5.0277 3.70237C6.76527 3.70237 8.65433 3.63122 9.27177 3.60597C9.24653 3.55088 9.21668 3.4912 9.18914 3.42923C8.88157 2.78424 8.48677 2.04055 7.88539 1.41852C7.15089 0.658761 6.27407 0.27544 5.27789 0.27544C4.2909 0.277735 3.61837 0.716144 3.42785 1.47819Z" fill="#91000A"/>
<path d="M5.58938 2.82559C5.2841 2.82559 5.02013 2.65344 4.90307 2.378C4.7929 2.12322 4.83651 1.85008 5.01095 1.66415C5.11195 1.55627 5.30705 1.42773 5.66053 1.42773C5.98417 1.42773 6.29175 1.54709 6.57866 1.78122C6.83345 1.99009 7.01019 2.24028 7.11577 2.41473C7.16168 2.49277 7.16397 2.58458 7.12036 2.66492C7.07675 2.74526 6.99871 2.79346 6.9069 2.79805C6.82197 2.80034 6.71179 2.80493 6.58555 2.80952C6.216 2.81871 5.88088 2.82559 5.58938 2.82559ZM5.66053 1.70317C5.45854 1.70317 5.30246 1.75367 5.21065 1.85237C5.09129 1.97861 5.10277 2.14847 5.15556 2.26783C5.21524 2.40325 5.35984 2.55015 5.58938 2.55015C5.87859 2.55015 6.21141 2.54556 6.57637 2.53408C6.68425 2.52949 6.78065 2.5272 6.85869 2.5249C6.40192 1.78351 5.86941 1.70317 5.66053 1.70317Z" fill="#91000A"/>
<path d="M14.1577 4.74019C14.1714 4.79298 14.1026 4.832 14.0521 4.79987C13.8317 4.66444 13.1294 4.36605 12.7346 4.34539C12.6565 4.3408 12.567 4.37064 12.5647 4.44868C12.5624 4.75166 12.5119 5.21532 12.2939 5.59635C12.2525 5.6675 12.2158 5.68127 12.1699 5.61012C11.8922 5.16941 11.1141 3.70958 9.24796 3.39971C8.76823 3.31938 8.87382 3.06689 9.11942 2.82129C9.38338 2.92917 9.89983 3.14034 10.5035 3.38824C11.378 3.7486 11.7636 4.21226 11.8669 4.31326C11.9702 4.41655 12.0735 4.49229 12.1493 4.20997C12.2273 3.92764 12.4591 3.81287 12.7919 3.90239C13.1294 3.99191 13.6825 4.12045 13.9718 4.22144C14.0452 4.38212 14.1072 4.55426 14.1577 4.74019Z" fill="#FFC500"/>
<path d="M13.9754 4.22064C13.6862 4.12194 13.133 3.99111 12.7956 3.90159C12.4628 3.81207 12.2286 3.92684 12.1529 4.20917C12.0748 4.49149 11.9738 4.41575 11.8706 4.31246C11.7673 4.20917 11.3817 3.74551 10.5071 3.38744C9.90346 3.13954 9.38471 2.92608 9.12305 2.82049C9.40078 2.54505 9.85755 2.2765 9.86214 2.2765C10.032 2.28568 13.0045 2.11812 13.9754 4.22064Z" fill="#FFEB00"/>
<path d="M12.2282 5.7931C12.1799 5.7931 12.1111 5.77245 12.0537 5.68293C12.0353 5.65309 12.0147 5.61866 11.9894 5.57964C11.6658 5.05171 10.906 3.81223 9.22586 3.5322C9.13404 3.51613 8.85631 3.47023 8.78745 3.25676C8.73924 3.10297 8.81499 2.92853 9.02157 2.72195C9.17306 2.57046 9.37276 2.42585 9.51277 2.32945C9.7951 2.13664 9.82264 2.13664 9.85707 2.13664H9.91904C10.6099 2.12975 11.248 2.21009 11.8196 2.37306C12.9305 2.68981 13.6972 3.29119 14.0965 4.16112C14.1746 4.33098 14.2389 4.51231 14.2894 4.70282C14.3077 4.77857 14.2802 4.8589 14.2159 4.90711C14.147 4.9576 14.0529 4.96219 13.9795 4.91629C13.7798 4.79234 13.0981 4.50083 12.7262 4.48247H12.701C12.6964 4.75791 12.6482 5.24911 12.4118 5.66227C12.3636 5.7472 12.3016 5.79081 12.2304 5.7931H12.2282ZM9.89609 2.41437C9.79051 2.47635 9.43703 2.699 9.21897 2.91705C9.03305 3.10297 9.0537 3.17183 9.0537 3.17183C9.0583 3.1879 9.1065 3.23151 9.27406 3.26135C10.0476 3.38989 10.7316 3.7273 11.3054 4.26212C11.7737 4.69823 12.056 5.1573 12.2259 5.43274C12.398 5.07466 12.4278 4.66839 12.4301 4.44574C12.4301 4.38377 12.4554 4.32639 12.5013 4.28277C12.5587 4.22769 12.6459 4.20014 12.7446 4.20473C13.1096 4.2231 13.6742 4.44804 13.9772 4.59724C13.9405 4.48706 13.8992 4.37918 13.851 4.27589C13.486 3.4817 12.7767 2.93082 11.7484 2.63702C11.2044 2.48094 10.5916 2.40519 9.92823 2.41208C9.91445 2.41437 9.90298 2.41437 9.89609 2.41437Z" fill="#91000A"/>
<path d="M3.82063 4.74019C3.80686 4.79298 3.87572 4.832 3.92622 4.79987C4.14657 4.66444 4.84894 4.36605 5.24603 4.34539C5.32408 4.3408 5.41359 4.37064 5.41359 4.44868C5.41589 4.75166 5.46639 5.21532 5.68444 5.59635C5.72576 5.6675 5.76248 5.68127 5.80839 5.61012C6.08613 5.16941 6.86424 3.70958 8.72805 3.39971C9.20778 3.31938 9.10219 3.06689 8.85659 2.82129C8.59263 2.92917 8.07618 3.14034 7.47251 3.38824C6.59798 3.7486 6.21237 4.21226 6.10908 4.31326C6.00579 4.41655 5.9025 4.49229 5.82675 4.20997C5.74871 3.92764 5.51688 3.81287 5.18406 3.90239C4.84665 3.99191 4.29347 4.12045 4.00426 4.22144C3.93081 4.38212 3.86883 4.55426 3.82063 4.74019Z" fill="#FFC500"/>
<path d="M4.00293 4.22064C4.29214 4.12194 4.84532 3.99111 5.18273 3.90159C5.51555 3.81207 5.74968 3.92684 5.82542 4.20917C5.90346 4.49149 6.00446 4.41575 6.10775 4.31246C6.21104 4.20917 6.59666 3.74551 7.47118 3.38744C8.07485 3.13954 8.59359 2.92608 8.85526 2.82049C8.57753 2.54505 8.12076 2.2765 8.11617 2.2765C7.94631 2.28568 4.97386 2.11812 4.00293 4.22064Z" fill="#FFEB00"/>
<path d="M5.74752 5.79367H5.74293C5.67178 5.79137 5.6098 5.74776 5.5616 5.66283C5.32518 5.24967 5.27928 4.76077 5.27469 4.48533C5.2678 4.48533 5.26091 4.48303 5.25173 4.48533C4.87989 4.50369 4.19818 4.79749 3.99848 4.91915C3.92503 4.96505 3.83092 4.96046 3.76206 4.90996C3.69779 4.86176 3.66795 4.78372 3.68861 4.70797C3.73681 4.51976 3.80108 4.33843 3.88142 4.16628C4.2831 3.29634 5.04974 2.69497 6.15839 2.37821C6.72763 2.21524 7.36803 2.1372 8.05663 2.14179H8.1186C8.15303 2.14179 8.18058 2.14179 8.4629 2.3346C8.60292 2.431 8.80261 2.57561 8.9541 2.7271C9.16068 2.93368 9.23643 3.10813 9.18823 3.26191C9.11937 3.47768 8.84163 3.52358 8.74982 3.53735C7.06964 3.81739 6.30988 5.05457 5.98624 5.58479C5.96329 5.62381 5.94263 5.65595 5.92426 5.68579C5.86459 5.7753 5.79573 5.79367 5.74752 5.79367ZM5.25862 4.20759C5.34584 4.20759 5.42618 4.23514 5.47897 4.28563C5.52488 4.32924 5.55013 4.38663 5.55013 4.4486C5.55242 4.66895 5.58226 5.07752 5.75441 5.43559C5.92427 5.16015 6.2043 4.70109 6.67254 4.26498C7.24638 3.73016 7.93038 3.39275 8.70621 3.26421C8.87377 3.23667 8.92197 3.19076 8.92656 3.17469C8.92656 3.17469 8.94722 3.10354 8.7613 2.91991C8.54324 2.70185 8.18976 2.47921 8.08417 2.41723H8.05663C7.39328 2.41035 6.78042 2.48609 6.23643 2.64217C5.20583 2.93598 4.49886 3.48686 4.13391 4.28104C4.0857 4.38433 4.04439 4.49221 4.00996 4.60239C4.31294 4.4509 4.87759 4.22825 5.24255 4.20989C5.24255 4.20759 5.24944 4.20759 5.25862 4.20759Z" fill="#91000A"/>
<path d="M8.39584 3.76429H8.37059C8.12499 3.76429 7.92529 3.5646 7.92529 3.31899V2.40086C7.92529 2.15526 8.12499 1.95557 8.37059 1.95557H8.51978C8.45092 2.08181 8.35911 2.31593 8.35911 2.64187C8.35911 3.15603 8.33845 3.36261 8.63226 3.36261H9.51596C9.61925 3.36261 9.7891 3.33506 9.90846 3.2662V3.31899C9.90846 3.5646 9.70877 3.76429 9.46317 3.76429H8.39584Z" fill="#FFC500"/>
<path d="M9.91294 2.40086V3.2662C9.79359 3.33506 9.62144 3.36261 9.52044 3.36261H8.63674C8.34294 3.36261 8.3636 3.15603 8.3636 2.64187C8.3636 2.31593 8.45541 2.08411 8.52427 1.95557H9.46995C9.71325 1.95786 9.91294 2.15526 9.91294 2.40086Z" fill="#FFEB00"/>
<path d="M9.89156 14.3756V14.8645H7.94971V3.84229H8.39959V13.9647C8.39959 14.2723 8.39959 14.3756 8.6934 14.3756H9.89156Z" fill="#FFC500"/>
<path d="M9.89089 3.84229V14.3756H8.69273C8.39893 14.3756 8.39893 14.2723 8.39893 13.9647V3.84229H9.89089Z" fill="#FFEB00"/>
<path d="M10.0288 14.9994H7.81152V3.7041H10.0288V14.9994ZM8.08696 14.724H9.75338V3.97954H8.08696V14.724Z" fill="#91000A"/>
<path d="M9.46793 3.90252H8.37305C8.05171 3.90252 7.79004 3.64085 7.79004 3.31951V2.40137C7.79004 2.08003 8.05171 1.81836 8.37305 1.81836H9.46793C9.78927 1.81836 10.0509 2.08003 10.0509 2.40137V3.31951C10.0509 3.64085 9.78927 3.90252 9.46793 3.90252ZM8.37305 2.09609C8.2032 2.09609 8.06548 2.23381 8.06548 2.40367V3.3218C8.06548 3.49166 8.2032 3.62938 8.37305 3.62938H9.46793C9.63778 3.62938 9.7755 3.49166 9.7755 3.3218V2.40367C9.7755 2.23381 9.63778 2.09609 9.46793 2.09609H8.37305Z" fill="#91000A"/>
</svg>
