<svg width="18" height="18" viewBox="0 0 18 18" fill="none" xmlns="http://www.w3.org/2000/svg">
<path d="M9 0C13.9706 0 18 4.02944 18 9C18 13.9706 13.9706 18 9 18C4.02944 18 0 13.9706 0 9C0 4.02944 4.02944 0 9 0ZM6.4082 5.05469H4.7998V6.37305H5.73535C5.91075 6.37305 6.05355 6.51507 6.05371 6.69043V11.9092C6.05371 12.0847 5.91085 12.2275 5.73535 12.2275H4.7998V13.5449H6.4082V14.3779H7.68164V13.5449H8.72949V14.3779H10.0039V13.5439L10.3604 13.5293C12.1037 13.4128 13.2001 12.6445 13.2002 11.1621C13.2002 10.1692 12.6899 9.5299 11.7852 9.21387C11.7175 9.19024 11.7088 9.09703 11.7705 9.06055C12.5116 8.62257 12.6904 8.00309 12.6904 7.28516C12.6904 5.76466 11.5797 5.13204 10.0029 5.06152V4.22168H8.72949V5.05469H7.68164V4.22168H6.4082V5.05469ZM9.61914 9.8877C10.5918 9.88779 11.0497 10.3041 11.0498 11.124C11.0498 11.9905 10.5917 12.3135 9.80957 12.3135H7.97656V9.8877H9.61914ZM9.50293 6.37305C10.2215 6.37305 10.6426 6.77133 10.6426 7.34863C10.6425 8.09597 10.1116 8.38965 9.21777 8.38965H7.97656V6.37305H9.50293Z" fill="#808994"/>
</svg>
