<svg width="70" height="62" viewBox="0 0 70 62" fill="none" xmlns="http://www.w3.org/2000/svg">
<g opacity="0.3">
<path d="M49.8572 29.994L44.6188 29.9939L35.8113 36.6691C35.5873 36.8388 35.2936 36.9235 35 36.9231C34.7065 36.9235 34.4128 36.8388 34.1888 36.6691L25.3813 29.9939L20.1429 29.9939C19.5117 29.9939 19 30.3817 19 30.8601L19.0001 30.8614C19.0001 31.0834 19.1118 31.3055 19.3354 31.4749L34.1888 42.7322C34.4128 42.9019 34.7065 42.9866 35 42.9862C35.2936 42.9866 35.5873 42.9019 35.8113 42.7322L50.6647 31.4749C51.1117 31.1361 51.1117 30.5868 50.6647 30.2481C50.4417 30.079 50.1495 29.9944 49.8572 29.994Z" fill="white"/>
<path d="M49.8633 25.494C50.8943 25.4954 52.092 25.7679 53.1689 26.5077L53.3828 26.662C54.5628 27.5563 55.4999 29.035 55.5 30.8612C55.5 32.5735 54.676 33.9805 53.6006 34.8866L53.3828 35.0614L38.5293 46.3182C37.3948 47.1781 36.0995 47.4874 34.9951 47.4862C33.8929 47.4856 32.6018 47.1755 31.4707 46.3182L16.6172 35.0614L16.3994 34.8866C15.376 34.0242 14.5822 32.7084 14.5078 31.1073C14.5033 31.025 14.5 30.9427 14.5 30.8602C14.5 28.9074 15.5549 27.4654 16.6162 26.661C17.6745 25.8589 18.9365 25.4941 20.1426 25.494L25.3809 25.494L25.748 25.5087C26.4772 25.5683 27.1808 25.8052 27.7979 26.1981L28.0996 26.4071L35 31.6376L41.9004 26.4071L42.2021 26.1981C42.9222 25.7397 43.7605 25.494 44.6191 25.494L49.8633 25.494Z" stroke="white" stroke-opacity="0.6" stroke-width="9" stroke-linejoin="round"/>
<path d="M49.8572 19.0001L44.6188 19L35.8113 25.6752C35.5873 25.8449 35.2936 25.9296 35 25.9292C34.7065 25.9296 34.4128 25.8449 34.1888 25.6752L25.3813 19L20.1429 19C19.5117 19 19 19.3878 19 19.8662L19.0001 19.8675C19.0001 20.0895 19.1118 20.3116 19.3354 20.481L34.1888 31.7383C34.4128 31.908 34.7065 31.9927 35 31.9923C35.2936 31.9927 35.5873 31.908 35.8113 31.7383L50.6647 20.481C51.1117 20.1422 51.1117 19.5929 50.6647 19.2542C50.4417 19.0851 50.1495 19.0005 49.8572 19.0001Z" fill="white"/>
<path d="M49.8633 14.5001C50.8943 14.5015 52.092 14.774 53.1689 15.5138L53.3828 15.6681C54.5628 16.5624 55.4999 18.0411 55.5 19.8673C55.5 21.5796 54.676 22.9866 53.6006 23.8927L53.3828 24.0675L38.5293 35.3243C37.3948 36.1842 36.0995 36.4935 34.9951 36.4923C33.8929 36.4917 32.6018 36.1816 31.4707 35.3243L16.6172 24.0675L16.3994 23.8927C15.376 23.0303 14.5822 21.7145 14.5078 20.1134C14.5033 20.0311 14.5 19.9488 14.5 19.8663C14.5 17.9135 15.5549 16.4715 16.6162 15.6671C17.6745 14.865 18.9365 14.5002 20.1426 14.5001L25.3809 14.5001L25.748 14.5148C26.4772 14.5744 27.1808 14.8113 27.7979 15.2042L28.0996 15.4132L35 20.6437L41.9004 15.4132L42.2021 15.2042C42.9222 14.7458 43.7605 14.5001 44.6191 14.5001L49.8633 14.5001Z" stroke="white" stroke-opacity="0.6" stroke-width="9" stroke-linejoin="round"/>
</g>
<g filter="url(#filter0_d_0_34492)">
<path d="M49.8574 29.4932L50.002 29.498C50.2912 29.5192 50.5853 29.6038 50.8418 29.7627L50.9668 29.8486C51.2965 30.0985 51.4999 30.4602 51.5 30.8604C51.5 31.2106 51.3439 31.5313 51.084 31.7734L50.9668 31.8721L36.1133 43.1299C35.7881 43.3763 35.3826 43.4858 34.999 43.4854C34.6159 43.4855 34.2114 43.376 33.8867 43.1299L19.0332 31.8721L18.916 31.7734C18.6663 31.5407 18.5145 31.2357 18.5029 30.9014L18.502 30.9014L18.502 30.9004L18.5 30.8799L18.5 30.8594C18.5 30.4298 18.7314 30.0773 19.0332 29.8486C19.3346 29.6203 19.7282 29.4932 20.1426 29.4932L25.5498 29.4932L25.6836 29.5947L34.4912 36.2695C34.6139 36.3625 34.7958 36.422 34.999 36.4219L35.001 36.4219C35.2042 36.4221 35.3861 36.3624 35.5088 36.2695L44.3164 29.5947L44.4512 29.4932L49.8574 29.4932Z" fill="white" stroke="#3F3F3F"/>
<path d="M49.8574 18.5001L50.002 18.505C50.2912 18.5261 50.5853 18.6108 50.8418 18.7697L50.9668 18.8556C51.2965 19.1055 51.4999 19.4671 51.5 19.8673C51.5 20.2176 51.3439 20.5382 51.084 20.7804L50.9668 20.879L36.1133 32.1368C35.7881 32.3833 35.3826 32.4928 34.999 32.4923C34.6159 32.4925 34.2114 32.3829 33.8867 32.1368L19.0332 20.879L18.916 20.7804C18.6663 20.5477 18.5145 20.2426 18.5029 19.9083L18.502 19.9083L18.502 19.9073L18.5 19.8868L18.5 19.8663C18.5 19.4367 18.7314 19.0843 19.0332 18.8556C19.3346 18.6273 19.7282 18.5002 20.1426 18.5001L25.5498 18.5001L25.6836 18.6017L34.4912 25.2765C34.6139 25.3694 34.7958 25.429 34.999 25.4288L35.001 25.4288C35.2042 25.429 35.3861 25.3694 35.5088 25.2765L44.3164 18.6017L44.4512 18.5001L49.8574 18.5001Z" fill="white" stroke="#3F3F3F"/>
</g>
<defs>
<filter id="filter0_d_0_34492" x="0" y="0" width="70" height="61.9854" filterUnits="userSpaceOnUse" color-interpolation-filters="sRGB">
<feFlood flood-opacity="0" result="BackgroundImageFix"/>
<feColorMatrix in="SourceAlpha" type="matrix" values="0 0 0 0 0 0 0 0 0 0 0 0 0 0 0 0 0 0 127 0" result="hardAlpha"/>
<feOffset/>
<feGaussianBlur stdDeviation="9"/>
<feComposite in2="hardAlpha" operator="out"/>
<feColorMatrix type="matrix" values="0 0 0 0 1 0 0 0 0 1 0 0 0 0 1 0 0 0 0.6 0"/>
<feBlend mode="normal" in2="BackgroundImageFix" result="effect1_dropShadow_0_34492"/>
<feBlend mode="normal" in="SourceGraphic" in2="effect1_dropShadow_0_34492" result="shape"/>
</filter>
</defs>
</svg>
