<svg width="18" height="16" viewBox="0 0 18 16" fill="none" xmlns="http://www.w3.org/2000/svg">
<path fill-rule="evenodd" clip-rule="evenodd" d="M5.75322 14.0731L14.1562 5.67015L10.3225 1.83646L1.91953 10.2395L5.75322 14.0731Z" fill="#808994"/>
<path fill-rule="evenodd" clip-rule="evenodd" d="M1.55047 10.6488L0 15.9904V16.0004H6.12187V15.0901H3.24099L5.39165 14.4799L1.55047 10.6488Z" fill="#808994"/>
<path fill-rule="evenodd" clip-rule="evenodd" d="M14.5639 5.30985L15.7043 4.1695L15.6643 4.11949C15.8843 3.90942 15.9944 3.61934 15.9944 3.34925C15.9944 3.09918 15.9043 2.8591 15.7043 2.65904L13.3336 0.288319C12.9234 -0.121807 12.2832 -0.0817944 11.8731 0.328331C11.8431 0.35834 11.8131 0.388349 11.7931 0.418358L10.7328 1.46868L14.5639 5.30985Z" fill="#808994"/>
<path fill-rule="evenodd" clip-rule="evenodd" d="M0 15.995H17.9496V15.0847H0V15.995Z" fill="#808994"/>
</svg>
