<svg width="20" height="20" viewBox="0 0 20 20" fill="none" xmlns="http://www.w3.org/2000/svg">
<path d="M5.08789 3.77148C5.54653 3.77148 5.95508 4.17675 5.95508 4.68262C5.955 5.18788 5.59737 5.59277 5.08789 5.59277H5.03711C3.40565 5.69353 2.08045 6.30128 2.33496 9.08301V13.4834C2.33496 15.4553 2.28434 17.0234 5.90332 17.0234H13.04C16.5572 17.0234 16.6094 15.5566 16.6094 13.6855V12.623C16.6094 12.1172 16.9657 11.713 17.4746 11.7129C17.9338 11.7129 18.3418 12.1172 18.3418 12.623V15.2529C18.3418 17.2254 16.7617 18.7939 14.7734 18.7939H4.06836C2.08059 18.7939 0.5 17.226 0.5 15.2529V7.3125C0.500015 5.33944 2.0806 3.77148 4.06836 3.77148H5.08789ZM14.5166 2C14.6369 2.00005 14.7369 2.04059 14.8271 2.13086L18.3799 5.68359C18.46 5.7738 18.5009 5.88367 18.501 6.00391C18.501 6.12434 18.4604 6.22511 18.3701 6.31543L14.8174 9.86816C14.7272 9.95834 14.627 9.99892 14.5068 9.99902C14.3864 9.99902 14.2856 9.95846 14.1953 9.86816C14.105 9.77784 14.0645 9.67707 14.0645 9.55664V7.78027H12.5088C12.0574 7.78029 11.6461 7.80122 11.2949 7.82129C10.9336 7.8514 10.582 7.90143 10.2207 7.97168C9.8696 8.04193 9.55869 8.14231 9.29785 8.2627C9.037 8.39312 8.79619 8.55353 8.56543 8.74414C8.34467 8.94483 8.15319 9.17537 8.0127 9.44629C7.87219 9.71726 7.7622 10.0388 7.67188 10.4102C7.59159 10.7815 7.55176 11.2034 7.55176 11.665C7.55177 11.9158 7.56197 12.2067 7.58203 12.5176C7.58203 12.5477 7.59153 12.5984 7.60156 12.6787C7.61154 12.7584 7.62199 12.8183 7.62207 12.8584C7.62207 12.9286 7.60159 12.9892 7.56152 13.0293C7.52147 13.0794 7.47138 13.0995 7.40137 13.0996C7.33112 13.0996 7.26014 13.0598 7.20996 12.9795C7.17991 12.9394 7.15016 12.8892 7.12012 12.8291C7.09001 12.7689 7.0594 12.6984 7.0293 12.6182C6.99919 12.5379 6.96902 12.4874 6.95898 12.4473C6.36699 11.1328 6.07623 10.0891 6.07617 9.31641C6.07617 8.3931 6.19637 7.62 6.44727 7.00781C7.19997 5.14114 9.22776 4.20801 12.5195 4.20801H14.0752V2.44141C14.0752 2.32118 14.115 2.22106 14.2051 2.13086C14.2954 2.04054 14.3962 2 14.5166 2Z" fill="white"/>
</svg>
