<svg width="16" height="16" viewBox="0 0 16 16" fill="none" xmlns="http://www.w3.org/2000/svg">
<path d="M8 0C12.4183 0 16 3.58172 16 8C16 12.4183 12.4183 16 8 16C3.58172 16 0 12.4183 0 8C0 3.58172 3.58172 0 8 0ZM7.93164 11.5107C7.66825 11.5111 7.41336 11.608 7.21582 11.7822C7.12032 11.8723 7.0445 11.9813 6.99414 12.1025C6.94373 12.2239 6.92016 12.355 6.92383 12.4863C6.91949 12.6177 6.94275 12.7487 6.99316 12.8701C7.04359 12.9915 7.11972 13.1008 7.21582 13.1904C7.31043 13.2823 7.42317 13.355 7.5459 13.4033C7.66851 13.4515 7.79991 13.4754 7.93164 13.4727C8.06252 13.4767 8.19296 13.4545 8.31543 13.4082C8.43814 13.3617 8.55099 13.2912 8.64648 13.2012C8.74293 13.1094 8.81873 12.9982 8.86914 12.875C8.91953 12.7518 8.94394 12.6194 8.93945 12.4863C8.94203 12.2237 8.84015 11.9707 8.65723 11.7822C8.457 11.6056 8.19861 11.5086 7.93164 11.5107ZM8.12598 3.04883C7.71184 3.02744 7.29678 3.08807 6.90625 3.22754C6.51595 3.36699 6.15733 3.58261 5.85059 3.86133C5.56042 4.1596 5.33495 4.51541 5.18945 4.90527C5.04408 5.295 4.98109 5.7107 5.00488 6.12598H6.46777C6.43847 5.67961 6.55252 5.23561 6.79297 4.8584C6.93333 4.67055 7.11955 4.52165 7.33398 4.42676C7.54844 4.33187 7.78415 4.29395 8.01758 4.31641C8.21357 4.30126 8.41056 4.32639 8.59668 4.38965C8.78278 4.45294 8.95444 4.55311 9.10059 4.68457C9.34713 4.96486 9.4752 5.33023 9.45801 5.70312C9.45594 6.04161 9.333 6.36821 9.11133 6.62402L8.95996 6.80859C8.36185 7.26795 7.84584 7.82519 7.43262 8.45605C7.24516 8.85534 7.15525 9.29359 7.17188 9.73438V10.8174H8.71094V9.73438C8.70858 9.44125 8.77568 9.15113 8.90625 8.88867C9.02267 8.6323 9.20119 8.40908 9.42578 8.23926C9.9999 7.70846 10.3796 7.36173 10.5098 7.20996C10.8471 6.74501 11.0185 6.17949 10.9971 5.60547C11.0145 5.25484 10.9532 4.9042 10.8184 4.58008C10.6834 4.25603 10.4779 3.96612 10.2168 3.73145C9.63185 3.24655 8.88435 3.00251 8.12598 3.04883Z" fill="#F6D164"/>
</svg>
