<svg width="4" height="7" viewBox="0 0 4 7" fill="none" xmlns="http://www.w3.org/2000/svg">
<path d="M0 0.250316C0 0.183928 0.0268374 0.120259 0.074608 0.0733158C0.122379 0.0263724 0.187169 0 0.254727 0H0.254854C2.15371 0 3.69539 1.51498 3.69539 3.38096V6.32364C3.69539 6.48017 3.68456 6.63419 3.66353 6.78502C3.65857 6.8199 3.64615 6.85335 3.62709 6.88317C3.60803 6.913 3.58277 6.93852 3.55296 6.95807C3.52314 6.97761 3.48946 6.99074 3.45411 6.99658C3.41877 7.00241 3.38257 7.00083 3.34789 6.99194C3.07883 6.9237 2.66788 6.81851 2.41717 6.7544C2.35905 6.7395 2.30816 6.70491 2.27347 6.65673C2.23878 6.60855 2.22252 6.54987 2.22755 6.49106C2.23284 6.4359 2.23526 6.38005 2.23526 6.32364V3.38096C2.23526 2.30688 1.34786 1.43484 0.254854 1.43484H0.254727C0.187169 1.43484 0.122379 1.40847 0.074608 1.36152C0.0268374 1.31458 0 1.25091 0 1.18452V0.250316Z" fill="#CAD1E6"/>
</svg>
