<svg width="16" height="16" viewBox="0 0 16 16" fill="none" xmlns="http://www.w3.org/2000/svg">
<path d="M7.99548 0C5.87495 0 3.84127 0.842852 2.34182 2.34314C0.84238 3.84343 0 5.8783 0 8.00003C0 10.1218 0.84238 12.1566 2.34182 13.6569C3.84127 15.1572 5.87495 16 7.99548 16C10.1168 16 12.1515 15.1575 13.6523 13.6574C15.1532 12.1574 15.9976 10.1226 16 8.00003C15.9976 5.87747 15.1532 3.84262 13.6523 2.34259C12.1515 0.84256 10.1168 -1.35196e-06 7.99548 0ZM9.12479 12.6011C9.12479 12.8936 9.00867 13.1741 8.80196 13.3809C8.59526 13.5878 8.31491 13.704 8.02259 13.704H7.94128C7.64895 13.704 7.36861 13.5878 7.1619 13.3809C6.9552 13.1741 6.83908 12.8936 6.83908 12.6011V12.5198C6.83908 12.2273 6.9552 11.9468 7.1619 11.74C7.36861 11.5332 7.64895 11.417 7.94128 11.417H8.02259C8.31491 11.417 8.59526 11.5332 8.80196 11.74C9.00867 11.9468 9.12479 12.2273 9.12479 12.5198V12.6011ZM9.12479 9.15707C9.12243 9.45362 9.00364 9.73733 8.79406 9.94703C8.58448 10.1567 8.3009 10.2756 8.00452 10.278H7.95935C7.66296 10.2756 7.37939 10.1567 7.16981 9.94703C6.96022 9.73733 6.84144 9.45362 6.83908 9.15707V3.39888C6.84144 3.10233 6.96022 2.81861 7.16981 2.60891C7.37939 2.39921 7.66296 2.28035 7.95935 2.27798H8.00452C8.3009 2.28035 8.58448 2.39921 8.79406 2.60891C9.00364 2.81861 9.12243 3.10233 9.12479 3.39888V9.15707Z" fill="#2CB851"/>
</svg>
