<svg width="14" height="15" viewBox="0 0 14 15" fill="none" xmlns="http://www.w3.org/2000/svg">
<g clip-path="url(#clip0_0_41769)">
<mask id="mask0_0_41769" style="mask-type:luminance" maskUnits="userSpaceOnUse" x="0" y="-1" width="15" height="17">
<path d="M14.0076 -0.0151367H0.0078125V15.0227H14.0076V-0.0151367Z" fill="white"/>
</mask>
<g mask="url(#mask0_0_41769)">
<path d="M0.539776 15.0076C0.397856 15.0038 0.26287 14.9452 0.162482 14.8441C0.0620933 14.743 0.00378653 14.607 0 14.4641C0.0019392 14.3205 0.0595058 14.1833 0.160286 14.0818C0.261066 13.9803 0.397264 13.9223 0.539776 13.9204H13.4604C13.6035 13.9204 13.7408 13.9777 13.842 14.0796C13.9432 14.1815 14.0001 14.3199 14.0001 14.4641C13.9982 14.6076 13.9406 14.7446 13.8398 14.8461C13.7391 14.9476 13.6029 15.0056 13.4604 15.0076H0.539776ZM1.28924 4.6125C1.09047 4.6125 0.899897 4.69191 0.759345 4.83348C0.618793 4.97505 0.539776 5.16719 0.539776 5.36741V11.6029C0.549398 11.7965 0.632631 11.979 0.772153 12.1125C0.911676 12.2461 1.0968 12.3203 1.28924 12.3201H2.43576C2.62821 12.3203 2.81332 12.2461 2.95285 12.1125C3.09237 11.979 3.1756 11.7965 3.18522 11.6029V5.36741C3.18254 5.17566 3.10768 4.99199 2.97554 4.85394C2.83848 4.72084 2.65613 4.64542 2.46577 4.64272L1.28924 4.6125ZM6.46047 2.34778C6.2617 2.34778 6.07113 2.42719 5.93058 2.56876C5.79003 2.71033 5.71101 2.90247 5.71101 3.10269V11.6407C5.71101 11.8409 5.79003 12.0329 5.93058 12.1745C6.07113 12.316 6.2617 12.3956 6.46047 12.3956H7.60736C7.80613 12.3956 7.9967 12.316 8.13725 12.1745C8.27781 12.0329 8.35682 11.8409 8.35682 11.6407V3.10269C8.35682 2.90247 8.27781 2.71033 8.13725 2.56876C7.9967 2.42719 7.80613 2.34778 7.60736 2.34778H6.46047ZM11.6244 0.0377197C11.4256 0.0377197 11.235 0.117311 11.0945 0.258884C10.9539 0.400456 10.8749 0.592413 10.8749 0.792627V11.6407C10.8845 11.8343 10.9678 12.0166 11.1073 12.1501C11.2468 12.2836 11.4319 12.3581 11.6244 12.3579H12.7709C12.9634 12.3581 13.1485 12.2836 13.288 12.1501C13.4275 12.0166 13.5107 11.8343 13.5204 11.6407V0.792627C13.5204 0.592413 13.4414 0.400456 13.3008 0.258884C13.1602 0.117311 12.9697 0.0377197 12.7709 0.0377197H11.6244Z" fill="white"/>
</g>
</g>
<defs>
<clipPath id="clip0_0_41769">
<rect width="14" height="15" fill="white"/>
</clipPath>
</defs>
</svg>
