<svg width="36" height="12" viewBox="0 0 36 12" fill="none" xmlns="http://www.w3.org/2000/svg">
<path d="M35.9995 11.427H35.2496V9.98058C35.2496 9.67458 35.2336 9.4771 35.2016 9.38815C35.1695 9.29742 35.117 9.22714 35.0441 9.17733C34.9729 9.12751 34.8867 9.10261 34.7853 9.10261C34.6554 9.10261 34.5388 9.13819 34.4357 9.20935C34.3325 9.28051 34.2613 9.3748 34.2222 9.49222C34.1848 9.60964 34.1661 9.82669 34.1661 10.1434V11.427H33.4163V8.5929H34.1128V9.00921C34.3601 8.68897 34.6714 8.52886 35.0468 8.52886C35.2122 8.52886 35.3635 8.5591 35.5004 8.61959C35.6374 8.6783 35.7406 8.75391 35.81 8.84642C35.8812 8.93893 35.9301 9.0439 35.9568 9.16132C35.9852 9.27874 35.9995 9.44686 35.9995 9.66568V11.427Z" fill="white"/>
<path d="M29.907 9.9699C29.907 9.72083 29.9684 9.47977 30.0912 9.24671C30.2139 9.01365 30.3874 8.83575 30.6116 8.71299C30.8375 8.59023 31.0892 8.52886 31.3668 8.52886C31.7955 8.52886 32.1469 8.66851 32.4209 8.94783C32.6948 9.22536 32.8318 9.57673 32.8318 10.0019C32.8318 10.4307 32.6931 10.7865 32.4155 11.0694C32.1398 11.3505 31.792 11.491 31.3721 11.491C31.1124 11.491 30.8642 11.4323 30.6276 11.3149C30.3927 11.1975 30.2139 11.0258 30.0912 10.7998C29.9684 10.5721 29.907 10.2955 29.907 9.9699ZM30.6756 10.0099C30.6756 10.291 30.7423 10.5063 30.8757 10.6557C31.0092 10.8052 31.1737 10.8799 31.3694 10.8799C31.5651 10.8799 31.7288 10.8052 31.8605 10.6557C31.9939 10.5063 32.0606 10.2892 32.0606 10.0046C32.0606 9.72706 31.9939 9.51357 31.8605 9.36413C31.7288 9.21469 31.5651 9.13997 31.3694 9.13997C31.1737 9.13997 31.0092 9.21469 30.8757 9.36413C30.7423 9.51357 30.6756 9.72884 30.6756 10.0099Z" fill="white"/>
<path d="M28.5594 8.20862V7.51479H29.3093V8.20862H28.5594ZM28.5594 11.427V8.5929H29.3093V11.427H28.5594Z" fill="white"/>
<path d="M28.039 8.5929V9.19067H27.5266V10.3328C27.5266 10.5641 27.5311 10.6993 27.54 10.7385C27.5507 10.7758 27.5729 10.807 27.6067 10.8319C27.6423 10.8568 27.685 10.8692 27.7348 10.8692C27.8042 10.8692 27.9047 10.8452 28.0364 10.7972L28.1004 11.3789C27.926 11.4536 27.7286 11.491 27.508 11.491C27.3728 11.491 27.2509 11.4688 27.1424 11.4243C27.0338 11.378 26.9538 11.3193 26.9022 11.2482C26.8524 11.1752 26.8177 11.0774 26.7981 10.9546C26.7821 10.8674 26.7741 10.6913 26.7741 10.4262V9.19067H26.4299V8.5929H26.7741V8.02983L27.5266 7.59218V8.5929H28.039Z" fill="white"/>
<path d="M26.1683 9.43085L25.4291 9.56428C25.4042 9.41661 25.3473 9.30542 25.2583 9.2307C25.1712 9.15598 25.0573 9.11862 24.9168 9.11862C24.73 9.11862 24.5805 9.18355 24.4684 9.31343C24.3581 9.44152 24.303 9.65679 24.303 9.95923C24.303 10.2955 24.359 10.533 24.4711 10.6717C24.585 10.8105 24.7371 10.8799 24.9274 10.8799C25.0698 10.8799 25.1863 10.8399 25.277 10.7598C25.3677 10.678 25.4318 10.5383 25.4692 10.3408L26.2057 10.4663C26.1292 10.8043 25.9824 11.0596 25.7654 11.2322C25.5483 11.4047 25.2574 11.491 24.8927 11.491C24.4782 11.491 24.1473 11.3602 23.9 11.0987C23.6545 10.8372 23.5318 10.4752 23.5318 10.0126C23.5318 9.54471 23.6554 9.18089 23.9027 8.92114C24.15 8.65962 24.4844 8.52886 24.9061 8.52886C25.2512 8.52886 25.5252 8.60358 25.728 8.75302C25.9326 8.90068 26.0794 9.12662 26.1683 9.43085Z" fill="white"/>
<path d="M22.2962 10.525L23.0434 10.6504C22.9473 10.9244 22.7952 11.1334 22.5871 11.2775C22.3807 11.4198 22.1218 11.491 21.8105 11.491C21.3177 11.491 20.953 11.33 20.7164 11.008C20.5296 10.75 20.4362 10.4245 20.4362 10.0313C20.4362 9.56161 20.5589 9.19423 20.8044 8.92915C21.0499 8.66229 21.3604 8.52886 21.7358 8.52886C22.1574 8.52886 22.4901 8.66851 22.7338 8.94783C22.9776 9.22536 23.0941 9.65145 23.0834 10.2261H21.2047C21.2101 10.4485 21.2706 10.6219 21.3862 10.7465C21.5018 10.8692 21.6459 10.9306 21.8185 10.9306C21.9359 10.9306 22.0347 10.8986 22.1147 10.8345C22.1948 10.7705 22.2553 10.6673 22.2962 10.525ZM22.3389 9.76709C22.3335 9.55004 22.2775 9.38548 22.1708 9.2734C22.064 9.15954 21.9341 9.10261 21.7811 9.10261C21.6175 9.10261 21.4823 9.16221 21.3755 9.2814C21.2688 9.4006 21.2163 9.5625 21.2181 9.76709H22.3389Z" fill="white"/>
<path d="M19.1339 11.427V7.51479H19.8838V11.427H19.1339Z" fill="white"/>
<path d="M17.6128 11.427V7.51479H18.3627V11.427H17.6128Z" fill="white"/>
<path d="M14.0982 9.9699C14.0982 9.72083 14.1596 9.47977 14.2824 9.24671C14.4051 9.01365 14.5786 8.83575 14.8027 8.71299C15.0287 8.59023 15.2804 8.52886 15.558 8.52886C15.9867 8.52886 16.3381 8.66851 16.6121 8.94783C16.886 9.22536 17.023 9.57673 17.023 10.0019C17.023 10.4307 16.8843 10.7865 16.6067 11.0694C16.331 11.3505 15.9832 11.491 15.5633 11.491C15.3036 11.491 15.0554 11.4323 14.8188 11.3149C14.5839 11.1975 14.4051 11.0258 14.2824 10.7998C14.1596 10.5721 14.0982 10.2955 14.0982 9.9699ZM14.8668 10.0099C14.8668 10.291 14.9335 10.5063 15.0669 10.6557C15.2004 10.8052 15.3649 10.8799 15.5606 10.8799C15.7563 10.8799 15.92 10.8052 16.0517 10.6557C16.1851 10.5063 16.2518 10.2892 16.2518 10.0046C16.2518 9.72706 16.1851 9.51357 16.0517 9.36413C15.92 9.21469 15.7563 9.13997 15.5606 9.13997C15.3649 9.13997 15.2004 9.21469 15.0669 9.36413C14.9335 9.51357 14.8668 9.72884 14.8668 10.0099Z" fill="white"/>
<path d="M12.8306 9.98858L13.5965 10.2314C13.4791 10.6584 13.2834 10.976 13.0094 11.1841C12.7372 11.3905 12.3912 11.4937 11.9714 11.4937C11.4519 11.4937 11.0249 11.3167 10.6904 10.9626C10.356 10.6068 10.1887 10.1211 10.1887 9.50557C10.1887 8.85443 10.3569 8.34917 10.6931 7.9898C11.0293 7.62865 11.4714 7.44807 12.0194 7.44807C12.498 7.44807 12.8867 7.58951 13.1856 7.87238C13.3635 8.03961 13.4969 8.27979 13.5859 8.5929L12.804 8.77971C12.7577 8.57689 12.6607 8.41678 12.5131 8.29936C12.3672 8.18194 12.1893 8.12323 11.9794 8.12323C11.6894 8.12323 11.4536 8.2273 11.2722 8.43546C11.0925 8.64361 11.0027 8.98074 11.0027 9.44686C11.0027 9.94144 11.0916 10.2937 11.2695 10.5036C11.4474 10.7136 11.6787 10.8185 11.9634 10.8185C12.1733 10.8185 12.3539 10.7518 12.5051 10.6184C12.6563 10.4849 12.7648 10.275 12.8306 9.98858Z" fill="white"/>
<path d="M7.38936 11.427H6.63949V8.5929H7.33599V8.99586C7.45519 8.8055 7.56193 8.68008 7.65622 8.61959C7.75229 8.5591 7.86082 8.52886 7.98179 8.52886C8.15258 8.52886 8.31715 8.576 8.47549 8.67029L8.24332 9.3241C8.117 9.24226 7.99958 9.20135 7.89106 9.20135C7.7861 9.20135 7.69714 9.2307 7.6242 9.28941C7.55126 9.34634 7.49344 9.45042 7.45074 9.60164C7.40982 9.75286 7.38936 10.0695 7.38936 10.5517V11.427Z" fill="white"/>
<path d="M3.15696 9.9699C3.15696 9.72083 3.21834 9.47977 3.34109 9.24671C3.46385 9.01365 3.63731 8.83575 3.86147 8.71299C4.08741 8.59023 4.33915 8.52886 4.61668 8.52886C5.04544 8.52886 5.39681 8.66851 5.67078 8.94783C5.94476 9.22536 6.08175 9.57673 6.08175 10.0019C6.08175 10.4307 5.94298 10.7865 5.66545 11.0694C5.38969 11.3505 5.04188 11.491 4.62202 11.491C4.36228 11.491 4.1141 11.4323 3.87748 11.3149C3.64264 11.1975 3.46385 11.0258 3.34109 10.7998C3.21834 10.5721 3.15696 10.2955 3.15696 9.9699ZM3.92552 10.0099C3.92552 10.291 3.99223 10.5063 4.12566 10.6557C4.25909 10.8052 4.42366 10.8799 4.61935 10.8799C4.81505 10.8799 4.97873 10.8052 5.11038 10.6557C5.24381 10.5063 5.31052 10.2892 5.31052 10.0046C5.31052 9.72706 5.24381 9.51357 5.11038 9.36413C4.97873 9.21469 4.81505 9.13997 4.61935 9.13997C4.42366 9.13997 4.25909 9.21469 4.12566 9.36413C3.99223 9.51357 3.92552 9.72884 3.92552 10.0099Z" fill="white"/>
<path d="M0 11.427V7.51479H2.68195V8.1766H0.789907V9.10261H2.42309V9.76442H0.789907V11.427H0Z" fill="white"/>
<path d="M28.885 3.01018L29.6322 3.13561C29.5361 3.40959 29.384 3.61863 29.1758 3.76273C28.9695 3.90506 28.7106 3.97622 28.3993 3.97622C27.9065 3.97622 27.5418 3.81521 27.3052 3.4932C27.1184 3.23524 27.025 2.90967 27.025 2.51649C27.025 2.04682 27.1477 1.67944 27.3932 1.41436C27.6387 1.1475 27.9492 1.01407 28.3246 1.01407C28.7462 1.01407 29.0789 1.15373 29.3226 1.43304C29.5664 1.71058 29.6829 2.13666 29.6722 2.7113H27.7935C27.7988 2.93368 27.8593 3.10714 27.975 3.23168C28.0906 3.35443 28.2347 3.41581 28.4073 3.41581C28.5247 3.41581 28.6234 3.38379 28.7035 3.31974C28.7836 3.2557 28.8441 3.15251 28.885 3.01018ZM28.9277 2.2523C28.9223 2.03526 28.8663 1.87069 28.7595 1.75861C28.6528 1.64475 28.5229 1.58782 28.3699 1.58782C28.2063 1.58782 28.071 1.64742 27.9643 1.76662C27.8576 1.88581 27.8051 2.04771 27.8069 2.2523H28.9277Z" fill="white"/>
<path d="M25.7227 3.91217V0H26.4726V3.91217H25.7227Z" fill="white"/>
<path d="M22.3496 3.91217V0H23.0994V1.40902C23.3307 1.14572 23.6047 1.01407 23.9214 1.01407C24.2665 1.01407 24.552 1.13949 24.778 1.39034C25.0039 1.63941 25.1169 1.99789 25.1169 2.46579C25.1169 2.9497 25.0013 3.32241 24.77 3.58393C24.5405 3.84546 24.2612 3.97622 23.932 3.97622C23.7701 3.97622 23.61 3.93619 23.4517 3.85613C23.2951 3.7743 23.1599 3.65421 23.0461 3.49587V3.91217H22.3496ZM23.0941 2.43377C23.0941 2.72731 23.1404 2.94436 23.2329 3.08491C23.3627 3.28416 23.5353 3.38379 23.7506 3.38379C23.916 3.38379 24.0566 3.31352 24.1722 3.17297C24.2896 3.03064 24.3483 2.80737 24.3483 2.50315C24.3483 2.17936 24.2896 1.9463 24.1722 1.80398C24.0548 1.65987 23.9045 1.58782 23.7212 1.58782C23.5415 1.58782 23.3921 1.65809 23.2729 1.79864C23.1537 1.93741 23.0941 2.14912 23.0941 2.43377Z" fill="white"/>
<path d="M19.8998 1.94274L19.2193 1.81999C19.2958 1.54601 19.4274 1.3432 19.6142 1.21155C19.801 1.07989 20.0786 1.01407 20.4468 1.01407C20.7813 1.01407 21.0304 1.0541 21.1941 1.13416C21.3577 1.21244 21.4725 1.31295 21.5383 1.43571C21.6059 1.55669 21.6397 1.77996 21.6397 2.10553L21.6317 2.98083C21.6317 3.2299 21.6433 3.41403 21.6664 3.53323C21.6913 3.65065 21.7367 3.77696 21.8025 3.91217H21.0606C21.0411 3.86236 21.017 3.78853 20.9886 3.69068C20.9761 3.6462 20.9672 3.61685 20.9619 3.60262C20.8338 3.72715 20.6968 3.82055 20.5509 3.88282C20.405 3.94509 20.2494 3.97622 20.0839 3.97622C19.7921 3.97622 19.5618 3.89705 19.3927 3.73871C19.2255 3.58038 19.1419 3.38023 19.1419 3.13828C19.1419 2.97816 19.1801 2.83584 19.2566 2.7113C19.3331 2.58499 19.4399 2.48892 19.5769 2.42309C19.7156 2.35549 19.9149 2.29678 20.1746 2.24696C20.5251 2.18114 20.768 2.11976 20.9032 2.06283V1.98811C20.9032 1.84401 20.8676 1.74171 20.7964 1.68122C20.7253 1.61895 20.5909 1.58782 20.3935 1.58782C20.26 1.58782 20.156 1.61451 20.0812 1.66788C20.0065 1.71947 19.946 1.81109 19.8998 1.94274ZM20.9032 2.55119C20.8071 2.58321 20.655 2.62146 20.4468 2.66594C20.2387 2.71041 20.1026 2.754 20.0385 2.7967C19.9407 2.86608 19.8918 2.95414 19.8918 3.06089C19.8918 3.16585 19.9309 3.25659 20.0092 3.33309C20.0875 3.40959 20.1871 3.44784 20.3081 3.44784C20.4433 3.44784 20.5723 3.40336 20.695 3.31441C20.7858 3.2468 20.8454 3.16407 20.8738 3.06623C20.8934 3.00218 20.9032 2.88031 20.9032 2.70063V2.55119Z" fill="white"/>
<path d="M17.8183 3.91217V0H18.5681V3.91217H17.8183Z" fill="white"/>
<path d="M16.2972 0.693837V0H17.047V0.693837H16.2972ZM16.2972 3.91217V1.07812H17.047V3.91217H16.2972Z" fill="white"/>
<path d="M13.8154 1.94274L13.1349 1.81999C13.2114 1.54601 13.343 1.3432 13.5298 1.21155C13.7166 1.07989 13.9942 1.01407 14.3624 1.01407C14.6969 1.01407 14.946 1.0541 15.1096 1.13416C15.2733 1.21244 15.3881 1.31295 15.4539 1.43571C15.5215 1.55669 15.5553 1.77996 15.5553 2.10553L15.5473 2.98083C15.5473 3.2299 15.5589 3.41403 15.582 3.53323C15.6069 3.65065 15.6523 3.77696 15.7181 3.91217H14.9762C14.9566 3.86236 14.9326 3.78853 14.9042 3.69068C14.8917 3.6462 14.8828 3.61685 14.8775 3.60262C14.7494 3.72715 14.6124 3.82055 14.4665 3.88282C14.3206 3.94509 14.1649 3.97622 13.9995 3.97622C13.7077 3.97622 13.4773 3.89705 13.3083 3.73871C13.1411 3.58038 13.0575 3.38023 13.0575 3.13828C13.0575 2.97816 13.0957 2.83584 13.1722 2.7113C13.2487 2.58499 13.3555 2.48892 13.4925 2.42309C13.6312 2.35549 13.8305 2.29678 14.0902 2.24696C14.4407 2.18114 14.6835 2.11976 14.8188 2.06283V1.98811C14.8188 1.84401 14.7832 1.74171 14.712 1.68122C14.6409 1.61895 14.5065 1.58782 14.3091 1.58782C14.1756 1.58782 14.0715 1.61451 13.9968 1.66788C13.9221 1.71947 13.8616 1.81109 13.8154 1.94274ZM14.8188 2.55119C14.7227 2.58321 14.5706 2.62146 14.3624 2.66594C14.1543 2.71041 14.0182 2.754 13.9541 2.7967C13.8563 2.86608 13.8074 2.95414 13.8074 3.06089C13.8074 3.16585 13.8465 3.25659 13.9248 3.33309C14.0031 3.40959 14.1027 3.44784 14.2237 3.44784C14.3589 3.44784 14.4879 3.40336 14.6106 3.31441C14.7013 3.2468 14.7609 3.16407 14.7894 3.06623C14.809 3.00218 14.8188 2.88031 14.8188 2.70063V2.55119Z" fill="white"/>
<path d="M10.992 3.91217L9.84982 1.07812H10.6371L11.1708 2.5245L11.3256 3.00752C11.3665 2.88476 11.3923 2.80381 11.4029 2.76467C11.4279 2.68462 11.4545 2.60456 11.483 2.5245L12.0221 1.07812H12.7933L11.6671 3.91217H10.992Z" fill="white"/>
<path d="M9.99926 3.91217H9.13997L8.79839 3.02353H7.23459L6.91168 3.91217H6.07374L7.59752 0H8.43279L9.99926 3.91217ZM8.54487 2.36438L8.00581 0.912662L7.47743 2.36438H8.54487Z" fill="white"/>
</svg>
