<svg width="28" height="28" viewBox="0 0 28 28" fill="none" xmlns="http://www.w3.org/2000/svg">
<ellipse cx="15.1198" cy="14.1632" rx="11.28" ry="9.73208" fill="white"/>
<path d="M14 0C6.26875 0 0 6.2 0 13.8465C0 21.4929 6.26875 27.6929 14 27.6929C21.7313 27.6929 28 21.4929 28 13.8465C28 6.2 21.7313 0 14 0ZM20.7281 10.4374C20.7375 10.5826 20.7375 10.7341 20.7375 10.8824C20.7375 15.4196 17.2437 20.6461 10.8594 20.6461C8.89062 20.6461 7.06562 20.0804 5.52812 19.1069C5.80937 19.1378 6.07813 19.1501 6.36563 19.1501C7.99063 19.1501 9.48438 18.6062 10.675 17.6851C9.15 17.6542 7.86875 16.6652 7.43125 15.3053C7.96562 15.3825 8.44687 15.3825 8.99687 15.2435C7.40937 14.9251 6.21875 13.5436 6.21875 11.8746V11.8313C6.67812 12.0878 7.21875 12.2455 7.78438 12.2671C6.81875 11.6304 6.2375 10.5579 6.2375 9.41126C6.2375 8.77148 6.40625 8.18733 6.70938 7.68045C8.41875 9.7636 10.9875 11.1235 13.8656 11.2688C13.375 8.93529 15.1375 7.04686 17.2563 7.04686C18.2563 7.04686 19.1562 7.46101 19.7906 8.12861C20.575 7.98335 21.325 7.69282 21.9937 7.30339C21.7344 8.0977 21.1906 8.76839 20.4688 9.19182C21.1688 9.11764 21.8438 8.92602 22.4688 8.65712C21.9969 9.34327 21.4062 9.95214 20.7281 10.4374Z" fill="#1296DB"/>
</svg>
