<svg width="20" height="20" viewBox="0 0 20 20" fill="none" xmlns="http://www.w3.org/2000/svg">
<path d="M18.5 16.9973C18.5 17.3449 18.4076 17.6681 18.2227 17.9671C18.0378 18.266 17.7836 18.5302 17.46 18.7596C17.1365 18.989 16.7575 19.1698 16.323 19.3019C15.8885 19.434 15.4217 19.5 14.9225 19.5H5.07749C4.5783 19.5 4.11147 19.434 3.677 19.3019C3.24252 19.1698 2.86351 18.989 2.53997 18.7596C2.21642 18.5302 1.96221 18.266 1.77732 17.9671C1.59244 17.6681 1.5 17.3449 1.5 16.9973V3.0236C1.5 2.676 1.59244 2.34925 1.77732 2.04336C1.96221 1.73747 2.21642 1.46981 2.53997 1.2404C2.86351 1.01098 3.24252 0.830223 3.677 0.698134C4.11147 0.566045 4.5783 0.5 5.07749 0.5H14.9225C15.4217 0.5 15.8885 0.566045 16.323 0.698134C16.7575 0.830223 17.1365 1.01098 17.46 1.2404C17.7836 1.46981 18.0378 1.73747 18.2227 2.04336C18.4076 2.34925 18.5 2.676 18.5 3.0236V16.9973ZM16.2537 4.0247H3.7186V15.9753H16.2537V4.0247ZM9.98613 16.5593C9.59788 16.5593 9.26047 16.6636 8.9739 16.8721C8.68733 17.0807 8.54405 17.3379 8.54405 17.6438C8.54405 17.9358 8.68733 18.1895 8.9739 18.405C9.26047 18.6206 9.59788 18.7283 9.98613 18.7283C10.3929 18.7283 10.7349 18.6206 11.0122 18.405C11.2896 18.1895 11.4282 17.9358 11.4282 17.6438C11.4282 17.3379 11.2896 17.0807 11.0122 16.8721C10.7349 16.6636 10.3929 16.5593 9.98613 16.5593ZM12.2047 2.25192C12.2047 2.14069 12.1585 2.05379 12.0661 1.99122C11.9736 1.92865 11.8719 1.89737 11.761 1.89737H8.23899C8.14655 1.89737 8.04948 1.92865 7.9478 1.99122C7.84611 2.05379 7.79527 2.14069 7.79527 2.25192C7.79527 2.36315 7.84149 2.45005 7.93393 2.51262C8.02637 2.57519 8.12806 2.60648 8.23899 2.60648H11.761C11.8719 2.60648 11.9736 2.57519 12.0661 2.51262C12.1585 2.45005 12.2047 2.36315 12.2047 2.25192Z" fill="#808994"/>
</svg>
