<svg width="16" height="17" viewBox="0 0 16 17" fill="none" xmlns="http://www.w3.org/2000/svg">
<path d="M11.2987 6.28925C11.3022 6.24272 11.3022 6.19601 11.2987 6.14949C12.0167 5.34772 12.4384 4.32426 12.4937 3.24945C12.4937 1.60726 11.6201 0 10.7257 0C9.83121 0 8.95073 1.60726 8.95073 3.24945C8.95991 3.78052 9.07887 4.30395 9.30013 4.78682L3.60485 1.64918C3.46529 1.57601 3.30277 1.55988 3.15155 1.6042C3.00033 1.64853 2.87224 1.74983 2.79426 1.88677C2.71958 2.02492 2.70265 2.18703 2.74717 2.33763C2.7917 2.48823 2.89406 2.61507 3.03185 2.6904L5.53356 4.08801L4.09403 5.89792C4.01441 6.00742 3.97269 6.1399 3.97522 6.27527H3.90536C2.85496 6.3188 1.86206 6.76669 1.13424 7.5253C0.406412 8.28391 0 9.29452 0 10.3458C0 11.3971 0.406412 12.4077 1.13424 13.1663C1.86206 13.9249 2.85496 14.3728 3.90536 14.4164C4.38268 14.4117 4.85558 14.3242 5.30297 14.1578C4.75611 13.0256 4.58123 11.7495 4.80339 10.512C5.02554 9.27444 5.63334 8.13885 6.53984 7.26758C6.132 6.91442 5.65645 6.6481 5.14223 6.48491L6.57478 4.67501L9.6705 6.38009C8.47113 6.62189 7.39224 7.2709 6.61664 8.21715C5.84104 9.16341 5.41644 10.3487 5.41478 11.5722C5.41381 12.3458 5.5857 13.1098 5.9179 13.8084C6.30888 14.6447 6.91195 15.3642 7.66715 15.8953C8.42234 16.4263 9.30337 16.7505 10.2227 16.8355C11.142 16.9206 12.0675 16.7636 12.9073 16.3801C13.7471 15.9966 14.472 15.4 15.0098 14.6496C15.5476 13.8992 15.8796 13.0211 15.9729 12.1026C16.0662 11.1841 15.9175 10.2572 15.5416 9.41399C15.1656 8.57078 14.5756 7.84064 13.83 7.29613C13.0844 6.75163 12.2093 6.41172 11.2917 6.31021L11.2987 6.28925ZM10.7187 1.29978C11.1039 1.87648 11.306 2.556 11.2987 3.24945C11.2735 3.85745 11.0773 4.446 10.7327 4.94754C10.3778 4.44971 10.174 3.86014 10.1457 3.24945C10.1364 2.55469 10.3414 1.87394 10.7327 1.29978H10.7187ZM7.23865 12.1522C7.16152 12.1496 7.08571 12.1314 7.01577 12.0988C6.94583 12.0662 6.8832 12.0198 6.83165 11.9623C6.78009 11.9049 6.74067 11.8376 6.71574 11.7646C6.69081 11.6916 6.6809 11.6142 6.68659 11.5373C6.69863 11.3797 6.77277 11.2334 6.89268 11.1306C7.01259 11.0277 7.16846 10.9767 7.326 10.9887C7.48353 11.0008 7.62983 11.0749 7.7327 11.1948C7.83558 11.3147 7.88661 11.4706 7.87456 11.6281C7.85223 11.7787 7.77485 11.9156 7.65738 12.0124C7.53992 12.1093 7.39071 12.1591 7.23865 12.1522ZM10.9912 8.65819C10.4734 8.65907 9.96378 8.78695 9.50691 9.03062C9.05003 9.27428 8.65989 9.62629 8.37071 10.0558C8.31518 10.1359 8.24099 10.2013 8.15455 10.2463C8.06811 10.2914 7.97203 10.3147 7.87456 10.3144C7.75692 10.314 7.64225 10.2774 7.54612 10.2095C7.48142 10.166 7.42593 10.1101 7.38283 10.045C7.33974 9.97999 7.30987 9.90711 7.29495 9.83054C7.28002 9.75397 7.28033 9.6752 7.29584 9.59875C7.31136 9.52229 7.34179 9.44965 7.38539 9.38496C7.78699 8.79924 8.32516 8.3201 8.95339 7.98894C9.58163 7.65777 10.2811 7.48454 10.9912 7.48421C11.1488 7.48421 11.2998 7.54678 11.4112 7.65817C11.5226 7.76957 11.5852 7.92065 11.5852 8.07818C11.5852 8.23572 11.5226 8.3868 11.4112 8.4982C11.2998 8.60959 11.1488 8.67217 10.9912 8.67217V8.65819Z" fill="#808994"/>
</svg>
