<svg width="20" height="20" viewBox="0 0 20 20" fill="none" xmlns="http://www.w3.org/2000/svg">
<path fill-rule="evenodd" clip-rule="evenodd" d="M5.0006 1.20155C6.14796 1.10184 7.8934 1 10.2369 1C10.6501 1 11.0447 1.00317 11.4207 1.00893C11.7308 1.01368 12.058 1.06982 12.3703 1.21158C13.014 1.50378 14.2797 2.18362 15.5435 3.46613C16.7715 4.71225 17.4388 5.96007 17.7397 6.62872C17.8847 6.95091 17.9437 7.28916 17.9503 7.61144C17.9651 8.33136 17.9738 9.12623 17.9738 10C17.9738 13.0663 17.8667 15.161 17.7655 16.4562C17.6672 17.7145 16.7136 18.6906 15.4732 18.7984C14.3258 18.8982 12.5804 19 10.2369 19C7.8934 19 6.14796 18.8982 5.0006 18.7984C3.7602 18.6906 2.80656 17.7145 2.70824 16.4562C2.60705 15.161 2.5 13.0663 2.5 10C2.5 6.93368 2.60705 4.83898 2.70824 3.54383C2.80656 2.28549 3.7602 1.30935 5.0006 1.20155ZM6.08539 11.9149C5.6685 11.9149 5.33057 12.2578 5.33057 12.6809C5.33057 13.1039 5.6685 13.4468 6.08539 13.4468H14.3884C14.8053 13.4468 15.1432 13.1039 15.1432 12.6809C15.1432 12.2578 14.8053 11.9149 14.3884 11.9149H6.08539ZM5.33057 15.7447C5.33057 15.3216 5.6685 14.9787 6.08539 14.9787H14.3884C14.8053 14.9787 15.1432 15.3216 15.1432 15.7447C15.1432 16.1677 14.8053 16.5106 14.3884 16.5106H6.08539C5.6685 16.5106 5.33057 16.1677 5.33057 15.7447ZM11.5514 5.03932C12.3411 4.88057 13.1584 4.83848 13.962 4.83657C14.3977 4.83549 14.7598 5.14548 14.7593 5.62795C14.7586 6.44952 14.717 7.28468 14.5595 8.09177C14.509 8.35047 14.3386 8.54058 14.1285 8.62986C13.8664 8.74123 13.5424 8.69557 13.3141 8.46399L12.8275 7.97017C12.8024 7.99361 12.7768 8.01755 12.7508 8.04198C12.2883 8.47758 11.7206 9.05726 11.2604 9.66091L11.2545 9.66861L11.2101 9.72525C10.6929 10.386 9.67376 10.2746 9.30722 9.51714L9.27487 9.45035L9.27068 9.4415L9.26864 9.4371L8.43982 7.63829C8.04984 7.97423 7.37899 8.62518 6.70758 9.61721C6.47159 9.96591 6.00172 10.0545 5.65805 9.81498C5.31442 9.57547 5.22716 9.09866 5.46319 8.74996C6.62316 7.03601 7.79973 6.19147 7.92639 6.10315L7.92911 6.10124C8.51579 5.68345 9.35028 5.91331 9.62941 6.60329L10.4094 8.29617C10.8559 7.76586 11.3347 7.28568 11.7239 6.91913L11.7591 6.88604L11.1846 6.30307C10.9774 6.09281 10.9209 5.80144 10.9951 5.55044C11.0675 5.30572 11.2656 5.0968 11.5514 5.03932Z" fill="#85D420"/>
</svg>
