<svg width="44" height="34" viewBox="0 0 44 34" fill="none" xmlns="http://www.w3.org/2000/svg">
<path d="M40.1818 34H3.0909C2.18961 34 1.44901 33.7103 0.869167 33.1308C0.289722 32.551 0 31.8124 0 30.9091V9.27271C0 8.37102 0.289722 7.63082 0.869167 7.05098C1.44901 6.47153 2.18961 6.18181 3.0909 6.18181H9.27271C9.85216 6.18181 10.303 5.92631 10.6249 5.40908V5.31264L12.7502 1.64189C13.2653 0.547315 14.1666 0 15.4545 0H27.8182C28.9775 0 29.8788 0.51723 30.5229 1.54545V1.64189L30.6194 1.73873L32.6478 5.31264V5.40908C32.9697 5.92631 33.4206 6.18181 34 6.18181H40.1818C41.0835 6.18181 41.8237 6.47153 42.4035 7.05098C42.983 7.63082 43.2727 8.37102 43.2727 9.27271V30.9091C43.2727 31.8125 42.983 32.551 42.4035 33.1308C41.8237 33.7103 41.0836 34 40.1818 34ZM28.2048 11.9771C27.3031 11.0758 26.2888 10.3995 25.162 9.949C24.0349 9.50022 22.8599 9.27271 21.6363 9.27271C20.4127 9.27271 19.2378 9.50022 18.1106 9.949C16.9839 10.3995 15.9697 11.0758 15.0684 11.9771C14.1667 12.8808 13.4904 13.8951 13.0399 15.0198C12.589 16.1469 12.3636 17.3239 12.3636 18.5455C12.3636 19.7691 12.589 20.9461 13.0399 22.0712C13.4904 23.1979 14.1666 24.2122 15.0684 25.1134C15.9697 26.0172 16.9839 26.6931 18.1106 27.1419C19.2378 27.5928 20.4127 27.8182 21.6363 27.8182C22.8599 27.8182 24.0349 27.5928 25.162 27.1419C26.2888 26.6931 27.303 26.0172 28.2048 25.1134C29.1061 24.2122 29.7823 23.1979 30.2328 22.0712C30.6837 20.9461 30.9091 19.7691 30.9091 18.5455C30.9091 17.324 30.6837 16.1469 30.2328 15.0198C29.7823 13.8951 29.1061 12.8808 28.2048 11.9771ZM25.7897 22.6988C24.6308 23.8581 23.2461 24.4376 21.6363 24.4376C20.0266 24.4376 18.6419 23.8581 17.483 22.6988C16.3237 21.5399 15.7442 20.1552 15.7442 18.5455C15.7442 16.9378 16.3237 15.551 17.483 14.3921C18.6419 13.2328 20.0266 12.6534 21.6363 12.6534C23.2461 12.6534 24.6308 13.2328 25.7897 14.3921C26.949 15.551 27.5284 16.9378 27.5284 18.5455C27.5285 20.1552 26.949 21.5399 25.7897 22.6988Z" fill="#4B555C"/>
</svg>
