<svg width="15" height="13" viewBox="0 0 15 13" fill="none" xmlns="http://www.w3.org/2000/svg">
<path d="M13.4633 11.173V7.63414L10.4686 5.80695L9.14246 7.42332C9.11957 7.44669 9.09224 7.46528 9.06208 7.47795C9.03192 7.49063 8.99953 7.49715 8.96682 7.49715C8.9341 7.49715 8.90172 7.49063 8.87156 7.47795C8.8414 7.46528 8.81407 7.44669 8.79117 7.42332L4.6811 3.34717L1.49316 6.25493V11.173C1.49316 11.2568 1.52647 11.3373 1.58576 11.3966C1.64506 11.4559 1.72547 11.4892 1.80932 11.4892H13.2262C13.2957 11.4713 13.3571 11.4302 13.4002 11.3727C13.4433 11.3152 13.4656 11.2448 13.4633 11.173Z" fill="#808994"/>
<path d="M11.0041 3.00445C11.0017 3.1367 11.0256 3.26807 11.0743 3.39104C11.1231 3.514 11.1957 3.6261 11.2879 3.72084C11.3802 3.81559 11.4903 3.89109 11.6119 3.94303C11.7335 3.99498 11.8642 4.02232 11.9964 4.02346C12.262 4.02346 12.5166 3.91793 12.7044 3.73012C12.8921 3.54231 12.9976 3.28759 12.9976 3.02198C12.9976 2.89047 12.9717 2.76028 12.9214 2.63878C12.8711 2.51727 12.7974 2.40685 12.7044 2.31385C12.6114 2.22086 12.501 2.14708 12.3796 2.09675C12.2581 2.04642 12.1279 2.02051 11.9964 2.02051C11.7324 2.02282 11.48 2.1294 11.2942 2.31696C11.1083 2.50452 11.0041 2.7579 11.0041 3.02198V3.00445Z" fill="#808994"/>
<path d="M7.03385e-10 1.02786V11.981C-4.99807e-06 12.1155 0.0266337 12.2488 0.0783783 12.373C0.130123 12.4972 0.205949 12.6099 0.301479 12.7046C0.39701 12.7994 0.510352 12.8743 0.634966 12.925C0.75958 12.9757 0.892998 13.0012 1.02752 13H13.9813C14.2515 13 14.5106 12.8926 14.7016 12.7015C14.8927 12.5104 15 12.2512 15 11.981V1.02786C15.0012 0.893298 14.9757 0.759809 14.925 0.635159C14.8743 0.510508 14.7995 0.39716 14.7047 0.301601C14.61 0.206043 14.4973 0.130149 14.3732 0.0783892C14.249 0.0266295 14.1158 -4.99953e-06 13.9813 7.0391e-10H1.02752C0.755003 7.0391e-10 0.49365 0.108312 0.300953 0.301065C0.108257 0.493819 7.03389e-10 0.755262 7.03385e-10 1.02786ZM13.5246 11.9986H1.47541C1.34963 11.9986 1.22901 11.9486 1.14007 11.8596C1.05114 11.7707 1.00117 11.65 1.00117 11.5242V1.47584C1.00117 1.35002 1.05114 1.22936 1.14007 1.1404C1.22901 1.05144 1.34963 1.00148 1.47541 1.00148H13.5246C13.5869 1.00148 13.6485 1.01378 13.7061 1.03762C13.7636 1.06146 13.8159 1.09635 13.8599 1.1404C13.904 1.18445 13.9389 1.23678 13.9627 1.29434C13.9866 1.35189 13.9988 1.41354 13.9988 1.47584V11.5242C13.9988 11.5865 13.9866 11.6481 13.9627 11.7057C13.9389 11.7632 13.904 11.8156 13.8599 11.8596C13.8159 11.9037 13.7636 11.9386 13.7061 11.9624C13.6485 11.9863 13.5869 11.9986 13.5246 11.9986Z" fill="#808994"/>
</svg>
