<svg width="20" height="20" viewBox="0 0 20 20" fill="none" xmlns="http://www.w3.org/2000/svg">
<path d="M17.4935 12.9951V3.99894C17.4935 3.60126 17.3356 3.21986 17.0544 2.93865C16.7731 2.65745 16.3918 2.49947 15.9941 2.49947H3.99894C3.60126 2.49947 3.21986 2.65745 2.93865 2.93865C2.65745 3.21986 2.49947 3.60126 2.49947 3.99894V2.49947C2.49947 2.10179 2.65745 1.72039 2.93865 1.43918C3.21986 1.15798 3.60126 1 3.99894 1H17.4935C17.8912 1 18.2726 1.15798 18.5538 1.43918C18.835 1.72039 18.993 2.10179 18.993 2.49947V11.4957C18.993 11.6926 18.9542 11.8876 18.8789 12.0695C18.8035 12.2514 18.6931 12.4167 18.5538 12.5559C18.4146 12.6952 18.2493 12.8056 18.0674 12.881C17.8854 12.9563 17.6904 12.9951 17.4935 12.9951ZM15.9941 5.49778V14.494C15.9941 14.8916 15.8361 15.273 15.5549 15.5542C15.2737 15.8355 14.8923 15.9934 14.4946 15.9934H9.24677L9.2544 16.0011L6.25546 19L3.25652 16.0011L3.26414 15.9934H2.49947C2.10179 15.9934 1.72039 15.8355 1.43918 15.5542C1.15798 15.273 1 14.8916 1 14.494V5.49778C1 5.10009 1.15798 4.7187 1.43918 4.43749C1.72039 4.15628 2.10179 3.99894 2.49947 3.99894L14.4946 3.99831C14.8923 3.99831 15.2737 4.15628 15.5549 4.43749C15.8361 4.7187 15.9941 5.10009 15.9941 5.49778ZM8.34734 13.7369L8.38675 13.7376C8.66339 13.7376 8.92871 13.6277 9.12432 13.432C9.31994 13.2364 9.42983 12.9711 9.42983 12.6945C9.42983 12.4178 9.31994 12.1525 9.12432 11.9569C8.92871 11.7613 8.66339 11.6514 8.38675 11.6514L8.34543 11.652H8.34734L8.30793 11.6514C8.03129 11.6514 7.76598 11.7613 7.57036 11.9569C7.37475 12.1525 7.26485 12.4178 7.26485 12.6945C7.26485 12.9711 7.37475 13.2364 7.57036 13.432C7.76598 13.6277 8.03129 13.7376 8.30793 13.7376L8.34925 13.7369H8.34734ZM8.49735 6.24783H8.49354C8.07156 6.2474 7.65413 6.33496 7.26789 6.50493C6.88166 6.6749 6.53511 6.92354 6.25037 7.23497L6.24846 7.23752L7.24705 8.08482C7.37694 7.93902 7.5348 7.82079 7.71125 7.73715C7.8877 7.65352 8.07915 7.60617 8.27424 7.59792H8.27742C8.36821 7.58411 8.46092 7.59006 8.5492 7.61536C8.63749 7.64065 8.71927 7.68471 8.78897 7.74451C8.85866 7.80431 8.91463 7.87845 8.95305 7.96187C8.99147 8.04528 9.01144 8.136 9.01158 8.22784C9.01158 9.00014 7.31951 9.60718 7.56424 11.0539H9.14443C9.01158 9.80931 10.7545 9.42729 10.7545 8.11533C10.7545 6.80338 9.76227 6.24783 8.49735 6.24783Z" fill="#808994"/>
</svg>
