<svg width="20" height="20" viewBox="0 0 20 20" fill="none" xmlns="http://www.w3.org/2000/svg">
<g clip-path="url(#clip0_0_61175)">
<path d="M9.80895 10.6921C12.7615 10.6921 15.155 8.29861 15.155 5.34606C15.155 2.39351 12.7615 0 9.80895 0C6.8564 0 4.46289 2.39351 4.46289 5.34606C4.46289 8.29861 6.8564 10.6921 9.80895 10.6921Z" fill="#85D420"/>
<path d="M17.5536 20.0001H2.04048C1.51717 20.0001 1.01514 19.793 0.643993 19.4241C0.272842 19.0552 0.0627228 18.5544 0.0595703 18.0311V17.6135C0.0648963 16.0001 0.696027 14.4517 1.82005 13.2942C2.94407 12.1368 4.47331 11.4607 6.08584 11.4082H6.51542C6.67308 11.4261 6.82884 11.4581 6.98083 11.5037C7.90204 11.8818 8.87613 12.1152 9.86864 12.1958C10.6893 12.1158 11.4935 11.9147 12.2553 11.5991L12.5775 11.5037L13.2457 11.4082H13.4367C15.0669 11.4332 16.6221 12.0977 17.7671 13.2583C18.9122 14.419 19.5555 15.983 19.5584 17.6135V18.0311C19.5569 18.2923 19.5037 18.5505 19.4019 18.7911C19.3002 19.0316 19.1519 19.2496 18.9656 19.4326C18.7793 19.6156 18.5586 19.76 18.3163 19.8573C18.0739 19.9547 17.8147 20.0033 17.5536 20.0001Z" fill="#85D420"/>
</g>
<defs>
<clipPath id="clip0_0_61175">
<rect width="19.5346" height="20" fill="white"/>
</clipPath>
</defs>
</svg>
