<svg width="16" height="16" viewBox="0 0 16 16" fill="none" xmlns="http://www.w3.org/2000/svg">
<path d="M6.43457 0C7.61152 0 8.72752 0.355564 9.66065 1.00718C10.4702 1.57246 11.3732 2.06445 12.3605 2.06445H15.6528C15.6547 2.06445 15.6562 2.06292 15.6562 2.06104C15.6562 2.05915 15.6578 2.05762 15.6597 2.05764C15.8486 2.05967 15.9999 2.21374 16 2.40137C16 3.39089 15.7274 4.35768 15.2139 5.19922C14.399 6.52998 13.0436 7.43832 11.5233 7.69391C11.4057 7.71367 11.3142 7.80634 11.2891 7.92285C11.0484 9.03362 10.0467 9.83984 8.90918 9.83984C8.77204 9.83984 8.63306 9.82782 8.49414 9.80469C8.36934 9.78329 8.26562 9.6935 8.22461 9.57227C8.18373 9.4511 8.21446 9.31921 8.30176 9.22656C8.60995 8.90043 8.78114 8.47441 8.78125 8.02539C8.78125 7.87785 8.65348 7.76953 8.50593 7.76953H7.74195C7.16029 7.76953 6.68976 8.21764 6.37101 8.70418C6.23137 8.91733 6.05688 9.10923 5.85156 9.27148C5.74819 9.35168 5.63567 9.42642 5.5127 9.49414C5.45933 9.52435 5.40244 9.53901 5.34375 9.53906C5.27778 9.53906 5.21313 9.52084 5.1543 9.4834C5.0474 9.41385 5.00615 9.28866 4.99902 9.16211C4.98352 8.91457 4.9394 8.67904 4.90489 8.53288C4.88803 8.4615 4.80757 8.438 4.75482 8.48896C4.74162 8.50171 4.72797 8.51521 4.71304 8.53013C4.71234 8.53082 4.71222 8.53161 4.71183 8.53251C4.7116 8.53305 4.71072 8.53342 4.71031 8.53383C4.5882 8.65642 4.47993 8.78909 4.38615 8.92969C3.86258 9.71469 4.77374 10.4429 5.67942 10.7076C6.26114 10.8777 6.80605 11.1759 7.26855 11.5908C7.36483 11.6782 7.45463 11.7659 7.54199 11.8604C7.64696 11.9745 7.66105 12.1455 7.5791 12.2773C7.49535 12.4091 7.33516 12.468 7.18555 12.4219C7.1298 12.4046 7.07368 12.3888 7.01724 12.3745C5.51599 11.9942 4.13121 13.5355 4.67024 14.9873C4.69049 15.0418 4.71219 15.0959 4.73535 15.1494C4.79773 15.292 4.7549 15.4594 4.63379 15.5557C4.5714 15.6056 4.49479 15.6308 4.41992 15.6309C4.2238 15.6309 4.01522 15.4078 3.91895 15.3223C3.89793 15.3034 3.87714 15.2843 3.85658 15.265C2.23174 13.7424 1.07992 11.347 0.32087 9.25358C0.111708 8.67673 6.48349e-06 8.06008 0 7.42773C0 4.46986 2.40736 2.0625 5.36523 2.0625C5.91468 2.0625 6.27132 1.49545 5.93609 1.06012C5.81798 0.906741 5.69093 0.760289 5.55566 0.62207C5.42211 0.486673 5.42539 0.267695 5.56055 0.135742C5.6176 0.0804714 5.68764 0.0479771 5.76074 0.0390625C5.97822 0.0123293 6.20462 6.77955e-07 6.43457 0ZM4.31152 3.72852C2.99401 4.10475 1.96735 5.16396 1.63574 6.49219C1.58957 6.67751 1.70141 6.86479 1.88672 6.91113C1.91346 6.91826 2.22348 6.96763 2.30371 6.65918C2.58545 5.57166 3.41879 4.70004 4.50098 4.3916C4.68433 4.33979 4.7888 4.14927 4.7373 3.96582C4.68382 3.78218 4.49338 3.67681 4.31152 3.72852ZM9.59277 3.63867C9.43054 3.53892 9.21799 3.59089 9.11816 3.75488C8.8151 4.25048 8.81518 4.86571 9.11816 5.36133C9.18226 5.46638 9.29638 5.52523 9.41211 5.52539C9.47451 5.52539 9.53572 5.50751 9.59277 5.47363C9.7549 5.37375 9.80684 5.16122 9.70703 4.99902C9.54136 4.72983 9.54127 4.38243 9.70703 4.11328C9.80671 3.95106 9.75495 3.73847 9.59277 3.63867ZM10.9053 3.63867C10.7431 3.53885 10.5305 3.59095 10.4307 3.75488C10.1276 4.25051 10.1276 4.86569 10.4307 5.36133C10.4948 5.46646 10.6088 5.52532 10.7246 5.52539C10.7852 5.52539 10.8482 5.50751 10.9053 5.47363C11.0673 5.3737 11.1183 5.16116 11.0186 4.99902C10.8531 4.72992 10.8529 4.38231 11.0186 4.11328C11.1184 3.95106 11.0675 3.73854 10.9053 3.63867ZM13.4688 3.39844C13.2905 3.39844 13.1447 3.54271 13.1445 3.72266C13.1445 3.90273 13.2905 4.04785 13.4688 4.04785C13.6488 4.04784 13.793 3.90273 13.793 3.72266C13.7928 3.54271 13.6469 3.39844 13.4688 3.39844Z" fill="#808994"/>
</svg>
