<svg width="32" height="32" viewBox="0 0 32 32" fill="none" xmlns="http://www.w3.org/2000/svg">
<rect width="32" height="32" rx="16" fill="#00B16D"/>
<path d="M22.6394 15.6918C22.6394 15.4402 22.7394 15.1989 22.9173 15.021C23.0952 14.8431 23.3365 14.7432 23.5881 14.7432C23.8397 14.7432 24.081 14.8431 24.2589 15.021C24.4368 15.1989 24.5367 15.4402 24.5367 15.6918V21.6209C24.5367 22.8418 23.4406 23.7554 22.1651 23.7554H9.83258C8.55711 23.7554 7.46094 22.8418 7.46094 21.6209V15.6918C7.46094 15.4402 7.56088 15.1989 7.73879 15.021C7.9167 14.8431 8.15799 14.7432 8.40959 14.7432C8.66119 14.7432 8.90249 14.8431 9.08039 15.021C9.2583 15.1989 9.35825 15.4402 9.35825 15.6918V21.6209C9.35825 21.7096 9.53612 21.8581 9.83258 21.8581H22.1651C22.4615 21.8581 22.6394 21.7096 22.6394 21.6209V15.6918Z" fill="white"/>
<path d="M16.0007 10.8818C16.5936 10.8818 16.8901 11.1783 16.8901 11.7712V18.8861C16.8901 19.479 16.5936 19.7755 16.0007 19.7755C15.4078 19.7755 15.1113 19.479 15.1113 18.8861V11.7712C15.1113 11.1783 15.4078 10.8818 16.0007 10.8818Z" fill="white"/>
<path d="M13.1733 13.7526C13.08 13.8493 12.9683 13.9264 12.8449 13.9794C12.7214 14.0324 12.5886 14.0603 12.4543 14.0615C12.3199 14.0627 12.1867 14.0371 12.0623 13.9862C11.938 13.9353 11.825 13.8602 11.73 13.7652C11.635 13.6702 11.5598 13.5572 11.5089 13.4328C11.4581 13.3085 11.4325 13.1752 11.4336 13.0409C11.4348 12.9065 11.4627 12.7737 11.5157 12.6503C11.5688 12.5268 11.6459 12.4151 11.7425 12.3218L14.9948 9.06956C15.2708 8.79366 15.6452 8.63867 16.0355 8.63867C16.4258 8.63867 16.8001 8.79366 17.0762 9.06956L20.3285 12.3218C20.4251 12.4151 20.5022 12.5268 20.5552 12.6503C20.6083 12.7737 20.6362 12.9065 20.6374 13.0409C20.6385 13.1752 20.6129 13.3085 20.562 13.4328C20.5112 13.5572 20.436 13.6702 20.341 13.7652C20.246 13.8602 20.133 13.9353 20.0087 13.9862C19.8843 14.0371 19.7511 14.0627 19.6167 14.0615C19.4823 14.0603 19.3496 14.0324 19.2261 13.9794C19.1027 13.9264 18.991 13.8493 18.8976 13.7526L16.035 10.8905L13.1728 13.7526H13.1733Z" fill="white"/>
</svg>
