<svg width="17" height="17" viewBox="0 0 17 17" fill="none" xmlns="http://www.w3.org/2000/svg">
<g clip-path="url(#clip0_0_38186)">
<path d="M8.49986 16.9896C6.24638 16.9869 4.08597 16.0905 2.49251 14.4971C0.89906 12.9036 0.00268112 10.7432 0 8.48974C0.00535967 6.23801 0.902925 4.08019 2.49609 2.48893C4.08925 0.897662 6.24814 0.00267425 8.49986 0C10.7524 -1.6e-06 12.9129 0.894115 14.5066 2.48596C16.1003 4.0778 16.997 6.23719 16.9997 8.48974C16.9997 10.744 16.1042 12.906 14.5102 14.5C12.9161 16.0941 10.7542 16.9896 8.49986 16.9896ZM8.49986 1.01309C6.51682 1.01577 4.61562 1.804 3.21245 3.20528C1.80928 4.60655 1.01845 6.5067 1.01309 8.48974C1.01577 10.4745 1.80542 12.3773 3.20888 13.7807C4.61234 15.1842 6.51507 15.9738 8.49986 15.9765C10.4855 15.9765 12.3898 15.1877 13.7938 13.7837C15.1978 12.3796 15.9866 10.4753 15.9866 8.48974C15.9839 6.50588 15.194 4.60419 13.7902 3.20234C12.3865 1.80049 10.4837 1.01309 8.49986 1.01309Z" fill="#808994"/>
<path d="M10.505 4.11313C10.7492 4.33266 10.9415 4.60389 11.0676 4.90708C11.1938 5.21027 11.2508 5.5378 11.2344 5.86579C11.2544 6.40251 11.0939 6.93042 10.7785 7.36515C10.657 7.50699 10.3024 7.83119 9.76545 8.3276C9.55521 8.48651 9.38804 8.69547 9.27916 8.93547C9.15707 9.18086 9.09459 9.4516 9.0968 9.72568V10.7388H7.65821V9.72568C7.64266 9.3135 7.72603 8.9036 7.90135 8.53024C8.2877 7.9404 8.7706 7.4198 9.32981 6.99031L9.47165 6.8181C9.67894 6.5789 9.79392 6.27349 9.79584 5.95697C9.81198 5.60821 9.69212 5.26679 9.46151 5.00466C9.32479 4.8816 9.16449 4.78762 8.99034 4.72841C8.81618 4.6692 8.63181 4.64599 8.44842 4.66021C8.23016 4.63921 8.01018 4.67478 7.80966 4.7635C7.60915 4.85223 7.43487 4.99111 7.30363 5.16676C7.07877 5.51945 6.97229 5.93468 6.99969 6.35206H5.63202C5.60976 5.96363 5.66852 5.57483 5.80455 5.21032C5.94059 4.84581 6.15093 4.51357 6.42223 4.2347C6.70917 3.97393 7.04489 3.77254 7.41003 3.64214C7.77517 3.51173 8.16252 3.45487 8.54973 3.47487C9.25891 3.43148 9.95801 3.65969 10.505 4.11313Z" fill="#808994"/>
<path d="M9.04748 11.6407C9.21863 11.8169 9.3133 12.0536 9.31089 12.2993C9.31512 12.4237 9.29292 12.5476 9.24578 12.6629C9.19863 12.7781 9.12759 12.8821 9.03735 12.9679C8.94806 13.052 8.84303 13.1177 8.72829 13.1612C8.61355 13.2047 8.49135 13.225 8.36871 13.2212C8.24537 13.2237 8.12276 13.2017 8.00798 13.1565C7.8932 13.1113 7.78854 13.0437 7.70007 12.9578C7.61009 12.8739 7.53912 12.7717 7.49194 12.6582C7.44476 12.5446 7.42245 12.4222 7.42653 12.2993C7.42311 12.1764 7.44571 12.0542 7.49285 11.9407C7.53999 11.8272 7.61061 11.725 7.70007 11.6407C7.88476 11.4778 8.12246 11.3878 8.36871 11.3875C8.61845 11.3853 8.86018 11.4755 9.04748 11.6407Z" fill="#808994"/>
</g>
<defs>
<clipPath id="clip0_0_38186">
<rect width="16.78" height="16.78" fill="white" transform="scale(1.01309)"/>
</clipPath>
</defs>
</svg>
