<svg width="32" height="32" viewBox="0 0 32 32" fill="none" xmlns="http://www.w3.org/2000/svg">
<path d="M0 16C0 7.16344 7.16344 0 16 0C24.8366 0 32 7.16344 32 16C32 24.8366 24.8366 32 16 32C7.16344 32 0 24.8366 0 16Z" fill="#039BE6"/>
<path d="M22.7311 20.1409C22.1842 19.7841 21.5243 19.639 20.8767 19.7335C20.2292 19.8279 19.6392 20.1551 19.2189 20.653L14.75 18.1547C14.9459 17.7098 15.0446 17.2287 15.0395 16.7432C15.0437 16.1731 14.9053 15.6109 14.6367 15.1069L17.6957 13.1208C18.1852 13.5562 18.8195 13.797 19.477 13.797C20.1344 13.797 20.7687 13.5562 21.2582 13.1208C21.7509 12.6891 22.0657 12.0922 22.1424 11.4445C22.219 10.7968 22.0521 10.1439 21.6737 9.61072C21.2963 9.07884 20.7348 8.70337 20.0964 8.55593C19.4579 8.40848 18.7871 8.49937 18.2118 8.81126C17.6226 9.11001 17.167 9.61622 16.9342 10.2308C16.7013 10.8454 16.708 11.524 16.953 12.1339L13.8562 14.145C13.2236 13.5635 12.4017 13.2267 11.5399 13.1957L11.2504 10.6975C11.5882 10.5443 11.8746 10.298 12.0754 9.98796C12.2763 9.67793 12.3832 9.31721 12.3833 8.94864C12.3908 8.45508 12.2069 7.97752 11.8694 7.61481C11.532 7.2521 11.067 7.032 10.5706 7C10.0564 7 9.56334 7.20266 9.19978 7.56342C8.83622 7.92418 8.63196 8.41345 8.63196 8.92364C8.63092 9.36518 8.78299 9.79364 9.06264 10.1371C9.34229 10.4805 9.7325 10.7181 10.1678 10.8098L10.4699 13.4081L10.0796 13.5454C9.43835 13.8368 8.89863 14.3104 8.52886 14.9063C8.15909 15.5023 7.97592 16.1938 8.00254 16.8931C8.02704 17.5905 8.26049 18.2649 8.67307 18.83C9.08564 19.3952 9.65863 19.8255 10.3188 20.066C10.9796 20.3109 11.6988 20.3549 12.3849 20.1925C13.071 20.0301 13.6928 19.6686 14.1709 19.154L18.7405 21.6523C18.579 22.2846 18.6594 22.9539 18.9664 23.5307C19.2733 24.1076 19.7849 24.5509 20.4022 24.7751C21.0123 25.0075 21.6873 25.0086 22.2981 24.7781C22.9089 24.5477 23.4126 24.1019 23.713 23.526C23.9934 22.94 24.0483 22.2725 23.8675 21.6491C23.6866 21.0257 23.2825 20.4894 22.7311 20.1409Z" fill="white"/>
</svg>
