<svg width="64" height="64" viewBox="0 0 64 64" fill="none" xmlns="http://www.w3.org/2000/svg">
<g filter="url(#filter0_f_0_16902)">
<circle cx="32" cy="32" r="24" fill="#232B32"/>
</g>
<circle cx="32" cy="32" r="24" fill="#85D420"/>
<path d="M41.7503 36.2541H41.1556C40.8385 36.1915 40.5542 36.0231 40.3521 35.7783C40.1499 35.5335 40.0428 35.2278 40.0493 34.9143L39.8418 28.2153C39.8654 26.2709 39.1356 24.3886 37.7965 22.94C36.4575 21.4914 34.6065 20.5819 32.609 20.3909V20.1095C32.609 19.9532 32.5449 19.8032 32.4307 19.6927C32.3166 19.5821 32.1619 19.52 32.0005 19.52C31.8391 19.52 31.6843 19.5821 31.5702 19.6927C31.4561 19.8032 31.392 19.9532 31.392 20.1095V20.3909C29.3945 20.5819 27.5435 21.4914 26.2044 22.94C24.8653 24.3886 24.1355 26.2709 24.1591 28.2153L23.7996 34.9143C23.8274 35.2325 23.7282 35.5488 23.5223 35.7981C23.3164 36.0474 23.0196 36.2107 22.6932 36.2541H22.2507C22.0445 36.1959 21.8273 36.185 21.616 36.2222C21.4048 36.2594 21.2054 36.3437 21.0336 36.4685C20.8619 36.5933 20.7225 36.7551 20.6265 36.9412C20.5304 37.1272 20.4805 37.3323 20.4805 37.5403C20.4805 37.7483 20.5304 37.9535 20.6265 38.1395C20.7225 38.3256 20.8619 38.4874 21.0336 38.6122C21.2054 38.737 21.4048 38.8213 21.616 38.8586C21.8273 38.8958 22.0445 38.8848 22.2507 38.8266H41.7503C41.9564 38.8848 42.1737 38.8958 42.3849 38.8586C42.5961 38.8213 42.7955 38.737 42.9673 38.6122C43.1391 38.4874 43.2785 38.3256 43.3745 38.1395C43.4705 37.9535 43.5205 37.7483 43.5205 37.5403C43.5205 37.3323 43.4705 37.1272 43.3745 36.9412C43.2785 36.7551 43.1391 36.5933 42.9673 36.4685C42.7955 36.3437 42.5961 36.2594 42.3849 36.2222C42.1737 36.185 41.9564 36.1959 41.7503 36.2541Z" fill="white"/>
<path d="M29.6772 39.3492C29.6772 39.9461 29.9219 40.5187 30.3577 40.9408C30.7934 41.3629 31.3843 41.6 32.0005 41.6C32.6167 41.6 33.2076 41.3629 33.6434 40.9408C34.0791 40.5187 34.3239 39.9461 34.3239 39.3492H29.6772Z" fill="white"/>
<defs>
<filter id="filter0_f_0_16902" x="0" y="0" width="64" height="64" filterUnits="userSpaceOnUse" color-interpolation-filters="sRGB">
<feFlood flood-opacity="0" result="BackgroundImageFix"/>
<feBlend mode="normal" in="SourceGraphic" in2="BackgroundImageFix" result="shape"/>
<feGaussianBlur stdDeviation="4" result="effect1_foregroundBlur_0_16902"/>
</filter>
</defs>
</svg>
