<svg width="21" height="20" viewBox="0 0 21 20" fill="none" xmlns="http://www.w3.org/2000/svg">
<g clip-path="url(#clip0_0_61383)">
<path d="M8.73583 3.05138H5.51877C5.33389 3.06365 5.1509 3.00783 5.00436 2.89445C4.88599 2.78909 4.7986 2.65344 4.75154 2.50212C4.70469 2.32875 4.68121 2.1499 4.68178 1.97031C4.68111 1.78017 4.69862 1.59042 4.73409 1.40362C4.74864 1.21277 4.77779 1.0233 4.82128 0.8369C4.86348 0.652738 4.93407 0.476283 5.03051 0.313817C5.06755 0.235655 5.12254 0.167324 5.19098 0.114429C5.25941 0.0615334 5.33937 0.0255581 5.42434 0.00941292C5.50931 -0.00673221 5.59691 -0.00259091 5.67997 0.0215189C5.76304 0.0456286 5.83923 0.0890347 5.90235 0.148165L6.71318 0.610239L7.58502 1.10719L8.3871 1.56054L8.94509 1.88312C9.08764 1.97991 9.20922 2.10446 9.30255 2.2493C9.3762 2.36299 9.40993 2.49794 9.39844 2.63291C9.39 2.69331 9.36846 2.75114 9.33533 2.80234C9.30219 2.85355 9.25827 2.89689 9.20663 2.92934C9.06635 3.01831 8.90167 3.06098 8.73583 3.05138Z" fill="#808994"/>
<path d="M11.3601 3.02525H14.5248C14.7082 3.0362 14.8898 2.9839 15.0392 2.87705C15.1589 2.76929 15.2465 2.63045 15.2921 2.47598C15.3396 2.30274 15.363 2.1238 15.3618 1.94417C15.3711 1.7583 15.3711 1.57206 15.3618 1.38618C15.3618 1.21182 15.2921 1.02002 15.2572 0.82822C15.2229 0.647103 15.1581 0.473152 15.0654 0.313838C14.9917 0.175637 14.8663 0.0721902 14.7166 0.0261157C14.6276 0.00400494 14.535 0.00111785 14.4448 0.0176549C14.3546 0.034192 14.2689 0.069787 14.1935 0.122032L13.3827 0.584106C13.0863 0.749755 12.7812 0.915393 12.5109 1.08976L11.7001 1.54313C11.5137 1.63659 11.3331 1.74139 11.1596 1.85698C11.0053 1.95173 10.8742 2.07982 10.7759 2.23187C10.704 2.34283 10.6732 2.47547 10.6888 2.60678C10.695 2.66797 10.7146 2.72703 10.7463 2.77977C10.7779 2.83252 10.8208 2.87762 10.8718 2.9119C11.025 3.00006 11.2014 3.03959 11.3775 3.02525H11.3601Z" fill="#808994"/>
<path d="M9.2066 4.01049H1.36004C0.969548 3.96497 0.574827 4.04758 0.235364 4.24588C0.144367 4.34527 0.0749383 4.46244 0.0314255 4.58998C-0.0120873 4.71752 -0.0287234 4.85266 -0.0174505 4.98695V6.93986C-0.029069 7.08958 -0.010367 7.24011 0.0375716 7.38243C0.0855101 7.52475 0.161705 7.65594 0.261544 7.76812C0.595851 7.9805 0.992482 8.07274 1.3862 8.02966H9.18917L9.2066 4.01049Z" fill="#808994"/>
<path d="M10.8544 4.01049H18.701C19.0915 3.96497 19.4861 4.04758 19.8256 4.24588C19.9173 4.34659 19.9871 4.46524 20.0306 4.59429C20.0741 4.72334 20.0904 4.86001 20.0785 4.99567V6.94859C20.0909 7.09774 20.0716 7.24783 20.0221 7.38906C19.9725 7.53028 19.8937 7.65945 19.7908 7.76812C19.462 7.98626 19.067 8.08193 18.6748 8.03839H10.8282L10.8544 4.01049Z" fill="#808994"/>
<path d="M9.2066 8.98877H0.793352V17.5764C0.774464 17.9158 0.836545 18.2549 0.974488 18.5657C1.11243 18.8765 1.32229 19.1499 1.58673 19.3636C2.31489 19.8456 3.18357 20.0697 4.05402 20.0001H9.2066V8.98877Z" fill="#808994"/>
<path d="M10.8544 8.98877H19.2153V17.5066C19.2229 17.8509 19.1559 18.1929 19.0189 18.5089C18.882 18.8249 18.6783 19.1076 18.4219 19.3375C17.7188 19.8401 16.8593 20.0751 15.9982 20.0001H10.8544V8.98877Z" fill="#808994"/>
</g>
<defs>
<clipPath id="clip0_0_61383">
<rect width="20.0697" height="20" fill="white"/>
</clipPath>
</defs>
</svg>
