<svg width="14" height="17" viewBox="0 0 14 17" fill="none" xmlns="http://www.w3.org/2000/svg">
<path d="M14 11.5666C14 9.91167 13.1497 8.84585 11.6415 8.31918C11.5288 8.27981 11.5143 8.12568 11.6171 8.06488C12.8528 7.33489 13.1508 6.3022 13.1508 5.10545C13.1508 2.57112 11.3003 1.51711 8.67228 1.39957V9.91831e-05C8.67228 9.91831e-05 8.67228 0 8.67218 0H6.54996C6.54996 0 6.54986 0 6.54986 9.91831e-05V1.38817C6.54986 1.38817 6.54986 1.38827 6.54976 1.38827H4.80275C4.80275 1.38827 4.80265 1.38827 4.80265 1.38817V9.91831e-05C4.80265 9.91831e-05 4.80265 0 4.80255 0H2.68033C2.68033 0 2.68023 0 2.68023 9.91831e-05V1.38817C2.68023 1.38817 2.68023 1.38827 2.68013 1.38827H2.0889H9.91831e-05C9.91831e-05 1.38827 0 1.38827 0 1.38837V3.58478C0 3.58478 0 3.58488 9.91831e-05 3.58488H1.55936C1.85185 3.58488 2.089 3.82202 2.089 4.11451V12.8121C2.089 13.1046 1.85185 13.3417 1.55936 13.3417H9.91831e-05C9.91831e-05 13.3417 0 13.3417 0 13.3418V15.5382C0 15.5382 0 15.5383 9.91831e-05 15.5383H2.0889H2.68013C2.68013 15.5383 2.68023 15.5383 2.68023 15.5384V16.9265C2.68023 16.9265 2.68023 16.9266 2.68033 16.9266H4.80265C4.80265 16.9266 4.80275 16.9266 4.80275 16.9265V15.5384C4.80275 15.5384 4.80275 15.5383 4.80285 15.5383H6.54986C6.54986 15.5383 6.54996 15.5383 6.54996 15.5384V16.9265C6.54996 16.9265 6.54996 16.9266 6.55006 16.9266H8.67238C8.67238 16.9266 8.67248 16.9266 8.67248 16.9265V15.5364C8.67248 15.5364 8.67248 15.5363 8.67257 15.5363C11.9214 15.483 14 14.202 14 11.5666ZM5.29469 3.58488C5.29469 3.58478 5.29469 3.58478 5.29469 3.58488L7.83825 3.58478C9.03588 3.58478 9.73701 4.24861 9.73701 5.21078C9.73701 6.45652 8.85329 6.94619 7.36356 6.94619H5.29479C5.29479 6.94619 5.29469 6.94619 5.29469 6.94609V3.58488ZM8.34924 13.4862H5.29479C5.29479 13.4862 5.29469 13.4862 5.29469 13.4861V9.44253C5.29469 9.44253 5.29469 9.44243 5.29479 9.44243H8.03136C9.6529 9.44243 10.4159 10.1367 10.4159 11.5037C10.4159 12.9478 9.6528 13.4862 8.34924 13.4862Z" fill="white"/>
</svg>
