<svg width="16" height="12" viewBox="0 0 16 12" fill="none" xmlns="http://www.w3.org/2000/svg">
<path d="M0.894313 6.9862C0.776703 6.98886 0.659866 6.96656 0.551503 6.92078C0.44314 6.87499 0.345713 6.80676 0.265648 6.72057C0.180918 6.63753 0.113741 6.53828 0.0681096 6.42877C0.0224778 6.31925 -0.000677821 6.20169 1.51041e-05 6.08305V4.86997C0.000501435 4.75282 0.0242315 4.63695 0.0698289 4.52904C0.115426 4.42112 0.181984 4.32332 0.265648 4.24131C0.345713 4.15512 0.44314 4.0869 0.551503 4.04111C0.659866 3.99532 0.776703 3.97302 0.894313 3.97569H12.5733C12.4153 4.01853 12.2613 4.07481 12.1129 4.14393C11.9584 4.22376 11.8226 4.33541 11.7144 4.47154C11.378 4.85228 11.0415 5.26842 10.6962 5.70229C10.3509 6.13616 10.0321 6.58775 9.73105 6.9862H0.894313Z" fill="white"/>
<path d="M2.87771 2.91314C2.76056 2.91265 2.64467 2.88894 2.53675 2.84334C2.42884 2.79774 2.33105 2.73118 2.24904 2.64751C2.16591 2.56373 2.10037 2.46416 2.05628 2.35468C2.01218 2.2452 1.99041 2.12801 1.99226 2.00999V0.894323C1.99159 0.777793 2.01393 0.662271 2.05799 0.554391C2.10206 0.44651 2.16698 0.348401 2.24904 0.265665C2.33105 0.182001 2.42884 0.115436 2.53675 0.069839C2.64467 0.0242416 2.76056 0.000501418 2.87771 1.50871e-05H14.9994C15.1181 -0.000677838 15.2357 0.0225048 15.3452 0.0681366C15.4547 0.113768 15.5539 0.180935 15.637 0.265665C15.7206 0.34767 15.7872 0.44545 15.8328 0.553364C15.8784 0.661278 15.9021 0.777172 15.9026 0.894323V2.00999C15.9033 2.12863 15.8801 2.24619 15.8345 2.35571C15.7889 2.46522 15.7217 2.56447 15.637 2.64751C15.5539 2.73224 15.4547 2.79941 15.3452 2.84504C15.2357 2.89067 15.1181 2.91383 14.9994 2.91314H2.87771Z" fill="white"/>
<path d="M10.9175 9.90815V10.0321C10.9175 10.0941 10.9175 10.2004 10.9175 10.342C10.9175 10.4837 10.9175 10.6962 10.9175 10.9707H0.894313C0.776703 10.9734 0.659866 10.9511 0.551503 10.9053C0.44314 10.8595 0.345713 10.7913 0.265648 10.7051C0.180918 10.622 0.113741 10.5228 0.0681096 10.4133C0.0224778 10.3038 -0.000677821 10.1862 1.51041e-05 10.0676V8.8722C0.000501435 8.75505 0.0242315 8.63915 0.0698289 8.53124C0.115426 8.42332 0.181984 8.32554 0.265648 8.24354C0.345713 8.15735 0.44314 8.0891 0.551503 8.04331C0.659866 7.99752 0.776703 7.97522 0.894313 7.97789H8.93415C8.8984 8.00043 8.86815 8.03069 8.8456 8.06644L8.77477 8.15499C8.66701 8.31001 8.60002 8.48967 8.57997 8.6774C8.56008 8.87439 8.58118 9.07336 8.64195 9.2618C8.70707 9.44034 8.81322 9.60109 8.95186 9.73108C9.10356 9.85622 9.2954 9.92226 9.49198 9.91702H10.9175V9.90815Z" fill="white"/>
<path d="M15.6635 8.11957L15.9026 8.51803C15.955 8.59467 15.9884 8.68267 16 8.77479C16 8.83677 16 8.88106 15.8849 8.90763C15.755 8.94193 15.6207 8.95684 15.4864 8.95189H14.601C14.5064 8.94338 14.411 8.95474 14.3211 8.98523C14.2311 9.01573 14.1485 9.06471 14.0786 9.12899C14.0191 9.18952 13.9727 9.26161 13.9423 9.34081C13.9118 9.42001 13.8979 9.50463 13.9015 9.58941V11.1301C13.8913 11.3335 13.8062 11.5259 13.6624 11.6702C13.5951 11.7561 13.509 11.8254 13.4108 11.873C13.3126 11.9205 13.2049 11.9451 13.0957 11.9447H12.4671C12.3886 11.9442 12.3111 11.9274 12.2395 11.8954C12.1678 11.8634 12.1036 11.8169 12.0509 11.7588C11.9063 11.5761 11.8395 11.3439 11.865 11.1124C11.8584 11.0269 11.8584 10.9411 11.865 10.8556C11.8699 10.8055 11.8699 10.7551 11.865 10.7051C11.865 10.652 11.865 10.5545 11.865 10.4129C11.865 10.2712 11.865 10.041 11.865 9.69566C11.8832 9.49618 11.8333 9.29642 11.7233 9.12899C11.6639 9.063 11.5893 9.0124 11.506 8.98156C11.4228 8.95071 11.3332 8.94053 11.2452 8.95189H10.3597C10.2766 8.96369 10.1918 8.95626 10.112 8.93016C10.0322 8.90407 9.95941 8.85999 9.89929 8.80135C9.8373 8.6951 9.89929 8.54457 10.0587 8.33207L10.5988 7.5883L11.803 5.81741C11.9978 5.53406 12.1926 5.2773 12.3697 5.05594C12.4451 4.96694 12.5429 4.89969 12.653 4.86114C12.7697 4.80795 12.8966 4.78076 13.0249 4.78145C13.1389 4.75879 13.2562 4.75879 13.3702 4.78145C13.4644 4.80881 13.5478 4.86444 13.6093 4.94082L14.052 5.68459C14.2114 5.95023 14.3885 6.22473 14.5656 6.49922C14.7427 6.7737 14.9286 7.04818 15.0968 7.32267L15.5838 8.07531L15.6635 8.11957Z" fill="white"/>
</svg>
