<svg width="12" height="14" viewBox="0 0 12 14" fill="none" xmlns="http://www.w3.org/2000/svg">
<path d="M12 7.52372C12 4.79159 10.1642 2.48197 7.6618 1.75928V0.865444C7.6618 0.387335 7.27431 0 6.79637 0H5.20383C4.7258 0 4.33858 0.387321 4.33858 0.865444V1.75928C1.83605 2.48176 0 4.79159 0 7.52372C0 9.74737 1.21674 11.6909 3.01888 12.7273L2.7125 13.1684C2.57631 13.3646 2.6248 13.6343 2.82106 13.7707C2.89328 13.8211 2.97921 13.8481 3.06727 13.8482C3.20434 13.8482 3.33918 13.7833 3.42311 13.6623L3.80861 13.1075C4.4881 13.3751 5.22681 13.5238 6.00009 13.5238C6.77319 13.5238 7.51192 13.3751 8.19151 13.1075L8.57689 13.6623C8.66093 13.7833 8.79558 13.8482 8.93293 13.8482C9.01792 13.8482 9.10389 13.8229 9.17904 13.7707C9.3753 13.6343 9.42379 13.3647 9.28759 13.1684L8.9812 12.7273C10.7836 11.6909 12 9.74737 12 7.52372ZM5.20383 0.865444H6.79638V1.57789C6.5356 1.54311 6.27017 1.52341 6.00009 1.52341C5.72974 1.52341 5.46462 1.54311 5.20383 1.57789V0.865444ZM6.00009 12.6584C3.16405 12.6584 0.865331 10.3594 0.865331 7.52372C0.865331 4.68767 3.16406 2.38866 6.00009 2.38866C8.83595 2.38866 11.1348 4.68767 11.1348 7.52372C11.1348 10.3594 8.83595 12.6584 6.00009 12.6584Z" fill="white"/>
<path d="M10.1773 5.91213C10.1198 5.76357 9.95249 5.68979 9.80451 5.74696C9.65577 5.80434 9.58178 5.97124 9.63914 6.11998C9.81187 6.56758 9.89957 7.03989 9.89957 7.524C9.89957 9.67369 8.15054 11.4225 6.00083 11.4225C3.85116 11.4225 2.10223 9.67369 2.10223 7.524C2.10223 5.37413 3.85116 3.6251 6.00083 3.6251C6.16003 3.6251 6.28906 3.49606 6.28906 3.33687C6.28906 3.17751 6.16003 3.04846 6.00083 3.04846C3.533 3.04846 1.52539 5.05617 1.52539 7.524C1.52539 9.99165 3.533 11.9995 6.00083 11.9995C8.4685 11.9995 10.4764 9.99165 10.4764 7.524C10.4764 6.96862 10.3759 6.42638 10.1773 5.91213Z" fill="white"/>
<path d="M7.11746 3.7872C7.88592 4.0165 8.55664 4.47202 9.05776 5.10428C9.08474 5.13837 9.11909 5.16592 9.15823 5.18485C9.19737 5.20379 9.24028 5.21362 9.28376 5.21361C9.34673 5.21361 9.4101 5.19332 9.46302 5.15121C9.58782 5.0523 9.60888 4.87091 9.51015 4.74611C8.93507 4.02054 8.16486 3.49779 7.28282 3.2343C7.13 3.1887 6.96928 3.27563 6.92388 3.42825C6.87832 3.58088 6.96506 3.7416 7.11746 3.7872ZM5.49902 7.52365C5.49902 7.80047 5.7234 8.02494 6.00051 8.02494C6.27752 8.02494 6.502 7.80047 6.502 7.52365C6.502 7.24665 6.27752 7.02215 6.00051 7.02215C5.7234 7.02214 5.49902 7.24663 5.49902 7.52365ZM6.28873 6.27939V4.53441C6.28873 4.37523 6.1597 4.246 6.00051 4.246C5.84115 4.246 5.71201 4.37523 5.71201 4.53441V6.27939C5.71201 6.43875 5.84115 6.56781 6.00051 6.56781C6.1597 6.5678 6.28873 6.43875 6.28873 6.27939ZM9.01989 7.23503H7.27472C7.11552 7.23503 6.98649 7.36426 6.98649 7.52364C6.98649 7.68282 7.11552 7.81205 7.27472 7.81205H9.01989C9.17886 7.81205 9.30811 7.68282 9.30811 7.52364C9.30811 7.36426 9.17886 7.23503 9.01989 7.23503Z" fill="white"/>
</svg>
