<svg width="13" height="12" viewBox="0 0 13 12" fill="none" xmlns="http://www.w3.org/2000/svg">
<path d="M10.8325 0.793764H9.30577V0.550619C9.30577 0.246416 9.04614 0 8.72548 0C8.40482 0 8.14519 0.246416 8.14519 0.550619V0.793764H4.30615V0.550619C4.30615 0.246416 4.04652 0 3.72586 0C3.4052 0 3.14557 0.246416 3.14557 0.550619V0.793764H1.57001C0.702343 0.793764 0 1.46105 0 2.28425V10.5097C0 11.3329 0.703453 12.0002 1.57001 12.0002H10.8325C11.7002 12.0002 12.4025 11.3329 12.4025 10.5097V2.28425C12.4025 1.46105 11.7002 0.793764 10.8325 0.793764ZM9.4489 6.64995L5.76077 10.1172C5.63475 10.2358 5.46642 10.3011 5.29194 10.2991C5.11746 10.297 4.95076 10.2278 4.82764 10.1063L2.81936 8.11863C2.55973 7.8624 2.56194 7.44808 2.82269 7.19294C3.08343 6.9378 3.50506 6.93998 3.76469 7.19621L5.31362 8.72704L8.5302 5.70354C8.59332 5.64411 8.66775 5.5975 8.74923 5.56638C8.8307 5.53525 8.91763 5.52022 9.00502 5.52214C9.09241 5.52407 9.17856 5.54291 9.25854 5.57759C9.33851 5.61227 9.41074 5.66211 9.47109 5.72426C9.72407 5.98594 9.71409 6.40026 9.4489 6.64995ZM11.1465 3.3844C11.1465 3.59047 10.9701 3.75729 10.7537 3.75729H1.6499C1.43243 3.75729 1.25712 3.59047 1.25712 3.3844V2.34858C1.25712 2.14251 1.43354 1.97569 1.6499 1.97569H3.14668V2.29951C3.14668 2.60372 3.40631 2.85013 3.72697 2.85013C4.04763 2.85013 4.30726 2.60372 4.30726 2.29951V1.97569H8.1474V2.29951C8.1474 2.60372 8.40704 2.85013 8.7277 2.85013C9.04836 2.85013 9.30799 2.60372 9.30799 2.29951V1.97569H10.756C10.9734 1.97569 11.1487 2.14251 11.1487 2.34858V3.3844H11.1465Z" fill="#2595E8"/>
<path d="M12.4025 2.28425C12.4025 1.46105 11.6991 0.793764 10.8325 0.793764H9.30577V0.550619C9.30577 0.246416 9.04614 0 8.72548 0C8.40482 0 8.14519 0.246416 8.14519 0.550619V0.793764H4.30615V0.550619C4.30615 0.246416 4.04652 0 3.72586 0C3.4052 0 3.14557 0.246416 3.14557 0.550619V0.793764H1.57001C0.702343 0.793764 0 1.46105 0 2.28425V10.5097C0 11.3329 0.703453 12.0002 1.57001 12.0002H7.03897C9.43226 11.0767 11.364 9.25258 12.4025 6.95197V2.28425ZM9.4489 6.64995L5.76077 10.1172C5.63475 10.2358 5.46642 10.3011 5.29194 10.2991C5.11746 10.297 4.95076 10.2278 4.82764 10.1063L2.81936 8.11863C2.55973 7.8624 2.56194 7.44808 2.82269 7.19294C3.08343 6.9378 3.50506 6.93998 3.76469 7.19621L5.31362 8.72704L8.5302 5.70354C8.59332 5.64411 8.66775 5.5975 8.74923 5.56638C8.8307 5.53525 8.91763 5.52022 9.00502 5.52214C9.09241 5.52407 9.17856 5.54291 9.25854 5.57759C9.33851 5.61227 9.41074 5.66211 9.47109 5.72426C9.72407 5.98594 9.71409 6.40026 9.4489 6.64995ZM11.1465 3.3844C11.1465 3.59047 10.9701 3.75729 10.7537 3.75729H1.6499C1.43243 3.75729 1.25712 3.59047 1.25712 3.3844V2.34858C1.25712 2.14251 1.43354 1.97569 1.6499 1.97569H3.14668V2.29951C3.14668 2.60372 3.40631 2.85013 3.72697 2.85013C4.04763 2.85013 4.30726 2.60372 4.30726 2.29951V1.97569H8.1474V2.29951C8.1474 2.60372 8.40704 2.85013 8.7277 2.85013C9.04836 2.85013 9.30799 2.60372 9.30799 2.29951V1.97569H10.756C10.9734 1.97569 11.1487 2.14251 11.1487 2.34858V3.3844H11.1465Z" fill="#3A9CED"/>
<path d="M0.797765 9.25189C1.75974 9.25189 2.68954 9.11451 3.56719 8.85937L2.81825 8.11903C2.55862 7.8628 2.56084 7.44848 2.82158 7.19334C3.08232 6.9382 3.50395 6.94038 3.76358 7.19661L4.93194 8.35127C6.99015 7.40486 8.6578 5.77481 9.63087 3.75769H1.6499C1.43243 3.75769 1.25712 3.59087 1.25712 3.3848V2.34898C1.25712 2.14291 1.43354 1.97609 1.6499 1.97609H3.14668V2.29992C3.14668 2.60412 3.40631 2.85053 3.72697 2.85053C4.04763 2.85053 4.30726 2.60412 4.30726 2.29992V1.97609H8.1474V2.29992C8.1474 2.60412 8.40704 2.85053 8.7277 2.85053C9.04836 2.85053 9.30799 2.60412 9.30799 2.29992V1.97609H10.2811C10.3787 1.5912 10.4519 1.1965 10.5008 0.795254H9.3091V0.55211C9.3091 0.247906 9.04947 0.00149068 8.72881 0.00149068C8.40815 0.00149068 8.14852 0.247906 8.14852 0.55211V0.795254H4.30615V0.55211C4.30615 0.247906 4.04652 0.00149068 3.72586 0.00149068C3.4052 0.00149068 3.14557 0.247906 3.14557 0.55211V0.795254H1.57001C0.702343 0.795254 0 1.46254 0 2.28574V9.22136C0.262963 9.24099 0.529254 9.25189 0.797765 9.25189Z" fill="#59ADF8"/>
<path d="M4.43375 3.75769H1.6499C1.43243 3.75769 1.25712 3.59087 1.25712 3.3848V2.34898C1.25712 2.14291 1.43354 1.97609 1.6499 1.97609H3.14668V2.29992C3.14668 2.60412 3.40631 2.85053 3.72697 2.85053C4.04763 2.85053 4.30726 2.60412 4.30726 2.29992V1.97609H6.18794C6.47088 1.6021 6.72607 1.2074 6.95131 0.795254H4.30615V0.55211C4.30615 0.247906 4.04652 0.00149068 3.72586 0.00149068C3.4052 0.00149068 3.14557 0.247906 3.14557 0.55211V0.795254H1.57001C0.702343 0.795254 0 1.46254 0 2.28574V5.71702C1.62268 5.44266 3.14811 4.76855 4.43375 3.75769Z" fill="#6BC2FC"/>
</svg>
