<svg width="15" height="13" viewBox="0 0 15 13" fill="none" xmlns="http://www.w3.org/2000/svg">
<path d="M0.91958 5.54311C0.91958 5.54311 7.5534 2.74906 9.85412 1.7652C10.7361 1.3717 13.7271 0.112356 13.7271 0.112356C13.7271 0.112356 15.1075 -0.438557 14.9925 0.899429C14.9541 1.4504 14.6474 3.37867 14.3406 5.46441C13.8804 8.41592 13.3819 11.6429 13.3819 11.6429C13.3819 11.6429 13.3053 12.548 12.6534 12.7054C12.0015 12.8628 10.9278 12.1545 10.7361 11.997C10.5827 11.879 7.86015 10.1081 6.86317 9.24232C6.59474 9.00621 6.28799 8.534 6.90149 7.98303C8.28196 6.68437 9.93081 5.0709 10.9278 4.04772C11.388 3.57546 11.8481 2.47358 9.93081 3.81156C7.20829 5.73989 4.52408 7.55015 4.52408 7.55015C4.52408 7.55015 3.91053 7.94365 2.76018 7.58947C1.60976 7.23534 0.267661 6.76307 0.267661 6.76307C0.267661 6.76307 -0.652583 6.17278 0.91958 5.54311Z" fill="white"/>
</svg>
