<svg width="34" height="34" viewBox="0 0 34 34" fill="none" xmlns="http://www.w3.org/2000/svg">
<circle cx="17" cy="17" r="17" fill="#0071E3"/>
<path d="M13.0028 21.182C14.1464 22.097 15.5641 22.595 17.0249 22.595C18.4856 22.595 19.9033 22.097 21.0469 21.182L21.5356 20.7531C22.1888 20.1141 22.701 19.3439 23.0392 18.4926C23.3773 17.6412 23.5338 16.7278 23.4983 15.8115C23.4629 14.8953 23.2363 13.9968 22.8334 13.1746C22.4305 12.3523 21.8602 11.6246 21.1597 11.0387C20.2113 10.2469 19.0583 9.74378 17.8359 9.58845C16.6136 9.43312 15.3726 9.63199 14.2585 10.1617C13.1444 10.6915 12.2035 11.5301 11.5461 12.5793C10.8887 13.6285 10.5421 14.8446 10.5469 16.0851C10.5458 16.9565 10.7195 17.819 11.0575 18.6212C11.3956 19.4233 11.891 20.1484 12.5141 20.7531C12.6654 20.9089 12.8288 21.0523 13.0028 21.182Z" fill="white"/>
<path d="M25.4951 13.5366C24.9941 11.6604 23.8927 10.0029 22.3614 8.8208C20.8301 7.63872 18.9544 6.99805 17.0248 6.99805C15.0953 6.99805 13.2196 7.63872 11.6883 8.8208C10.157 10.0029 9.05554 11.6604 8.55461 13.5366C8.09781 13.6892 7.70108 13.9841 7.42176 14.3788C7.14245 14.7734 6.99505 15.2473 7.00091 15.7318C6.99257 16.0234 7.04139 16.3139 7.14458 16.5865C7.24776 16.8591 7.40327 17.1086 7.60225 17.3206C7.80123 17.5327 8.03977 17.7032 8.30423 17.8224C8.56869 17.9416 8.85388 18.0072 9.14352 18.0153V15.9715C9.15681 13.8669 9.9999 11.8538 11.4873 10.3751C12.9748 8.89636 14.9847 8.07313 17.075 8.08651C19.1652 8.09989 21.1646 8.94878 22.6332 10.4464C24.1018 11.9441 24.9195 13.9678 24.9062 16.0724V18.0153C25.4834 17.9891 26.027 17.7345 26.4188 17.3069C26.8107 16.8793 27.019 16.3133 26.9986 15.7318C27.0119 15.2526 26.8733 14.7816 26.603 14.3869C26.3327 13.9922 25.9447 13.6945 25.4951 13.5366Z" fill="white"/>
<path d="M22.3501 21.8886C20.9176 23.2718 19.0096 24.0442 17.0248 24.0442C15.0401 24.0442 13.1321 23.2718 11.6996 21.8886C10.8066 22.5166 10.0303 23.2981 9.40664 24.1973C8.83301 25.0519 8.4092 25.9992 8.15365 26.998H25.9963C25.4281 24.9238 24.1556 23.1157 22.4002 21.8886H22.3501Z" fill="white"/>
</svg>
