<svg width="24" height="25" viewBox="0 0 24 25" fill="none" xmlns="http://www.w3.org/2000/svg">
<g clip-path="url(#clip0_0_29296)">
<path d="M23.9845 11.9997C23.9845 15.1796 22.7224 18.2295 20.4753 20.4795C18.2282 22.7295 15.1799 23.9956 12 23.9997C10.6184 23.9997 0.357084 24.0773 0.326036 23.9997C0.294989 23.9221 2.00262 18.8148 1.10223 16.9829C0.372373 15.4068 -0.00382623 13.6901 2.93388e-05 11.9532C2.93388e-05 8.77059 1.26431 5.71833 3.51475 3.4679C5.76518 1.21746 8.81744 -0.046875 12 -0.046875C13.5785 -0.0448449 15.1411 0.268642 16.5982 0.875522C18.0554 1.4824 19.3785 2.37075 20.4918 3.48978C21.605 4.60882 22.4866 5.93655 23.0859 7.39682C23.6853 8.8571 23.9906 10.4212 23.9845 11.9997Z" fill="white"/>
<path d="M15.2891 13.1367L16.4141 13.0273C16.4818 13.4049 16.6185 13.6823 16.8242 13.8594C17.0326 14.0365 17.3125 14.125 17.6641 14.125C18.0365 14.125 18.3164 14.0469 18.5039 13.8906C18.694 13.7318 18.7891 13.5469 18.7891 13.3359C18.7891 13.2005 18.7487 13.0859 18.668 12.9922C18.5898 12.8958 18.4518 12.8125 18.2539 12.7422C18.1185 12.6953 17.8099 12.612 17.3281 12.4922C16.7083 12.3385 16.2734 12.1497 16.0234 11.9258C15.6719 11.6107 15.4961 11.2266 15.4961 10.7734C15.4961 10.4818 15.5781 10.2096 15.7422 9.95703C15.9089 9.70182 16.1471 9.50781 16.457 9.375C16.7695 9.24219 17.1458 9.17578 17.5859 9.17578C18.3047 9.17578 18.8451 9.33333 19.207 9.64844C19.5716 9.96354 19.763 10.3841 19.7812 10.9102L18.625 10.9609C18.5755 10.6667 18.4688 10.4557 18.3047 10.3281C18.1432 10.1979 17.8997 10.1328 17.5742 10.1328C17.2383 10.1328 16.9753 10.2018 16.7852 10.3398C16.6628 10.4284 16.6016 10.5469 16.6016 10.6953C16.6016 10.8307 16.6589 10.9466 16.7734 11.043C16.9193 11.1654 17.2734 11.293 17.8359 11.4258C18.3984 11.5586 18.8138 11.6966 19.082 11.8398C19.3529 11.9805 19.5638 12.1745 19.7148 12.4219C19.8685 12.6667 19.9453 12.9701 19.9453 13.332C19.9453 13.6602 19.8542 13.9674 19.6719 14.2539C19.4896 14.5404 19.2318 14.7539 18.8984 14.8945C18.5651 15.0326 18.1497 15.1016 17.6523 15.1016C16.9284 15.1016 16.3724 14.9349 15.9844 14.6016C15.5964 14.2656 15.3646 13.7773 15.2891 13.1367Z" fill="#7DB81F"/>
<path d="M8.90234 15V9.27344H10.6328L11.6719 13.1797L12.6992 9.27344H14.4336V15H13.3594V10.4922L12.2227 15H11.1094L9.97656 10.4922V15H8.90234Z" fill="#7DB81F"/>
<path d="M3.28906 13.1367L4.41406 13.0273C4.48177 13.4049 4.61849 13.6823 4.82422 13.8594C5.03255 14.0365 5.3125 14.125 5.66406 14.125C6.03646 14.125 6.31641 14.0469 6.50391 13.8906C6.69401 13.7318 6.78906 13.5469 6.78906 13.3359C6.78906 13.2005 6.7487 13.0859 6.66797 12.9922C6.58984 12.8958 6.45182 12.8125 6.25391 12.7422C6.11849 12.6953 5.8099 12.612 5.32812 12.4922C4.70833 12.3385 4.27344 12.1497 4.02344 11.9258C3.67188 11.6107 3.49609 11.2266 3.49609 10.7734C3.49609 10.4818 3.57812 10.2096 3.74219 9.95703C3.90885 9.70182 4.14714 9.50781 4.45703 9.375C4.76953 9.24219 5.14583 9.17578 5.58594 9.17578C6.30469 9.17578 6.84505 9.33333 7.20703 9.64844C7.57161 9.96354 7.76302 10.3841 7.78125 10.9102L6.625 10.9609C6.57552 10.6667 6.46875 10.4557 6.30469 10.3281C6.14323 10.1979 5.89974 10.1328 5.57422 10.1328C5.23828 10.1328 4.97526 10.2018 4.78516 10.3398C4.66276 10.4284 4.60156 10.5469 4.60156 10.6953C4.60156 10.8307 4.65885 10.9466 4.77344 11.043C4.91927 11.1654 5.27344 11.293 5.83594 11.4258C6.39844 11.5586 6.8138 11.6966 7.08203 11.8398C7.35286 11.9805 7.5638 12.1745 7.71484 12.4219C7.86849 12.6667 7.94531 12.9701 7.94531 13.332C7.94531 13.6602 7.85417 13.9674 7.67188 14.2539C7.48958 14.5404 7.23177 14.7539 6.89844 14.8945C6.5651 15.0326 6.14974 15.1016 5.65234 15.1016C4.92839 15.1016 4.3724 14.9349 3.98438 14.6016C3.59635 14.2656 3.36458 13.7773 3.28906 13.1367Z" fill="#7DB81F"/>
</g>
<defs>
<clipPath id="clip0_0_29296">
<rect width="24" height="24.0621" fill="white"/>
</clipPath>
</defs>
</svg>
