<svg width="18" height="18" viewBox="0 0 18 18" fill="none" xmlns="http://www.w3.org/2000/svg">
<circle cx="9" cy="9" r="9" fill="#478A03"/>
<g clip-path="url(#clip0_0_3939)">
<path d="M3.40194 8.94762L5.89491 11.087C5.98751 11.167 6.10246 11.2106 6.22091 11.2106C6.33937 11.2106 6.45431 11.167 6.54691 11.087L14.1509 4.32106C14.2037 4.27384 14.2646 4.23839 14.3301 4.21678C14.3956 4.19517 14.4643 4.18781 14.5325 4.19513C14.6006 4.20245 14.6667 4.2243 14.7269 4.25943C14.7872 4.29456 14.8405 4.34227 14.8837 4.39981C14.9655 4.50904 15.0066 4.64741 14.9992 4.78781C14.9917 4.92822 14.9361 5.06055 14.8433 5.15887L6.63169 13.8323C6.5825 13.8842 6.52431 13.9251 6.46048 13.9526C6.39665 13.98 6.32844 13.9935 6.25977 13.9923C6.1911 13.9911 6.12334 13.9752 6.06037 13.9455C5.99741 13.9157 5.94049 13.8728 5.89289 13.8192L2.47743 9.9495C2.42521 9.89019 2.38558 9.81921 2.36134 9.74156C2.3371 9.6639 2.32882 9.58143 2.33709 9.49994C2.34536 9.41846 2.36998 9.33991 2.40921 9.26982C2.44845 9.19973 2.50136 9.13978 2.56423 9.09418L2.79031 8.92794C2.88113 8.86086 2.98922 8.82663 3.09908 8.83017C3.20894 8.83371 3.31495 8.87482 3.40194 8.94762Z" fill="white"/>
</g>
<defs>
<clipPath id="clip0_0_3939">
<rect width="12.6667" height="9.8" fill="white" transform="translate(2.33398 4.18542)"/>
</clipPath>
</defs>
</svg>
