<svg width="23" height="20" viewBox="0 0 23 20" fill="none" xmlns="http://www.w3.org/2000/svg">
<path d="M12.7 0C13.1 0.1 13.5 0.3 13.8 0.5L14 0.7L20.5 7.2C21.5 8.2 21.5 9.8 20.6 10.8L20.5 10.9L13.2 18.4H21C21.6 18.4 22.1 18.7 22.1 19.2C22.1 19.8 21.7 20 21.1 20H1.1C0.5 20 0 19.8 0 19.2C0 18.6 0.4 18.4 1 18.4H6.5L1.4 13.1C1.1 12.8 0.9 12.4 0.8 12.1V11.9L11.9 11.8C12.1 11.8 12.3 11.7 12.4 11.6C12.5 11.5 12.6 11.3 12.6 11.2V11.1L12.7 0ZM11.4 0.0999999L11.2 10.4L0.8 10.6C0.8 10.2 1 9.8 1.3 9.5L1.4 9.4L10.1 0.8C10.4 0.5 10.7 0.3 11.1 0.2L11.4 0.0999999Z" fill="#808994"/>
</svg>
