<svg width="16" height="18" viewBox="0 0 16 18" fill="none" xmlns="http://www.w3.org/2000/svg">
<path d="M14.3719 0.0769672C14.2199 0.136771 14.0799 0.229872 13.9597 0.350958C13.8396 0.472043 13.7417 0.618736 13.6717 0.78265C13.6017 0.946563 13.5609 1.12448 13.5517 1.30624C13.5425 1.488 13.565 1.67004 13.618 1.84195C13.6731 2.02143 13.7604 2.1861 13.8744 2.32565C13.9884 2.4652 14.1266 2.57662 14.2804 2.65296L13.3313 5.82369C13.5297 6.64295 13.8982 6.16642 13.8982 6.16642L14.8772 2.76567C14.9796 2.75693 15.0806 2.73321 15.1776 2.69511C15.4843 2.5743 15.7361 2.32064 15.8776 1.98986C16.0191 1.65907 16.0388 1.27824 15.9323 0.93105C15.8254 0.583679 15.6009 0.298573 15.3083 0.138415C15.0157 -0.0217437 14.6789 -0.0438446 14.3719 0.0769672Z" fill="#808994"/>
<g filter="url(#filter0_i_0_17860)">
<path d="M13.4914 13.3917L14.8162 12.8647C14.8162 12.8647 15.7515 11.1511 14.4388 6.92099C13.1262 2.6909 11.5237 1.98436 11.5237 1.98436L10.1989 2.51037C10.1989 2.51037 11.7124 2.75505 13.1627 7.42775C14.6129 12.1005 13.4914 13.3917 13.4914 13.3917Z" fill="#808994"/>
</g>
<path d="M13.9928 14.1808L4.29584 17.9994C4.29584 17.9994 2.65849 17.4019 1.01952 12.0703C-0.61945 6.7387 0.209751 5.13501 0.209751 5.13501L10.0217 1.27147C10.0217 1.27147 11.6704 2.04033 13.1798 6.95313C14.6892 11.8659 13.9928 14.1808 13.9928 14.1808Z" fill="#808994"/>
<path d="M10.0614 12.4281L12.63 11.4201C12.63 11.4201 12.9482 10.6081 12.085 7.80487C11.2218 5.00162 10.4906 4.61032 10.4906 4.61032L7.98029 5.59636C7.98029 5.59636 8.58599 6.56866 9.30182 8.89539C10.0177 11.2221 10.0614 12.4281 10.0614 12.4281Z" fill="#1E2024"/>
<path d="M6.15165 13.9593L3.58712 14.9838C3.58712 14.9838 2.89072 14.5724 2.02265 11.7718C1.15458 8.97134 1.51088 8.14933 1.51088 8.14933L4.01467 7.15229C4.01467 7.15229 4.07622 8.34361 4.79772 10.6648C5.51922 12.9861 6.15165 13.9593 6.15165 13.9593Z" fill="#1E2024"/>
<path d="M9.45184 12.6674L6.87597 13.681C6.87597 13.681 6.36501 12.7957 5.60869 10.348C4.85236 7.90034 4.77462 6.85565 4.77462 6.85565L7.3505 5.84761C7.3505 5.84761 8.09467 7.66299 8.56515 9.19888C9.03562 10.7348 9.45184 12.6674 9.45184 12.6674Z" fill="#1E2024"/>
<path d="M2.08653 10.036L2.13268 10.2514C2.17641 10.453 2.22095 10.6619 2.25334 10.858L2.28816 11.067L2.6477 10.9258V10.7957C2.64164 10.6988 2.64902 10.6014 2.66956 10.5071C2.72838 10.4591 2.79456 10.424 2.86472 10.4035L3.60728 10.1112C3.53303 11.1443 3.39284 12.17 3.18781 13.1802L3.16191 13.3057L3.38216 13.467L3.8081 13.2233L3.81538 13.1206C3.82996 12.9328 3.84292 12.744 3.85668 12.5552C3.92713 11.5792 3.9992 10.5684 4.11499 9.58882L4.12633 9.48985L3.93766 9.30657L2.08653 10.036Z" fill="#808994"/>
<path d="M5.73506 8.60243L5.78123 8.81779C5.82414 9.0194 5.86949 9.22834 5.90188 9.42445L5.9367 9.63338L6.29543 9.49226V9.36213C6.28896 9.26521 6.29634 9.16773 6.31729 9.07346C6.37581 9.02555 6.44172 8.99043 6.51164 8.96991L7.255 8.67758C7.17996 9.71059 7.03978 10.7362 6.83554 11.7466L6.80963 11.8721L7.02908 12.0334L7.45582 11.7897L7.46311 11.6879L7.50441 11.1216C7.57405 10.1456 7.64693 9.13578 7.76272 8.15523L7.77406 8.05627L7.58539 7.87299L5.73506 8.60243Z" fill="#808994"/>
<path d="M11.0845 6.49604L9.23333 7.22916L9.27948 7.44451C9.3224 7.64612 9.36774 7.85414 9.40013 8.05117L9.43496 8.26011L9.79368 8.11807V7.98885C9.78721 7.89193 9.7946 7.79446 9.81555 7.70019C9.87406 7.65228 9.93998 7.61715 10.0099 7.59664L10.7533 7.30339C10.6783 8.33671 10.5381 9.36263 10.3338 10.3733L10.3079 10.4989L10.5273 10.6602L10.9541 10.4164L10.9614 10.3138L11.0027 9.74833C11.0723 8.77146 11.1452 7.76159 11.261 6.78196L11.2723 6.68299L11.0845 6.49604Z" fill="#808994"/>
<defs>
<filter id="filter0_i_0_17860" x="10.1989" y="1.98436" width="6.94025" height="12.4071" filterUnits="userSpaceOnUse" color-interpolation-filters="sRGB">
<feFlood flood-opacity="0" result="BackgroundImageFix"/>
<feBlend mode="normal" in="SourceGraphic" in2="BackgroundImageFix" result="shape"/>
<feColorMatrix in="SourceAlpha" type="matrix" values="0 0 0 0 0 0 0 0 0 0 0 0 0 0 0 0 0 0 127 0" result="hardAlpha"/>
<feOffset dx="2" dy="1"/>
<feGaussianBlur stdDeviation="1"/>
<feComposite in2="hardAlpha" operator="arithmetic" k2="-1" k3="1"/>
<feColorMatrix type="matrix" values="0 0 0 0 0 0 0 0 0 0 0 0 0 0 0 0 0 0 0.2 0"/>
<feBlend mode="normal" in2="shape" result="effect1_innerShadow_0_17860"/>
</filter>
</defs>
</svg>
