<svg width="15" height="15" viewBox="0 0 15 15" fill="none" xmlns="http://www.w3.org/2000/svg">
<path d="M7.49962 9.35042C7.9933 9.35042 8.3983 9.72081 8.43756 10.1922L8.44065 10.2674V11.9745C8.44065 12.4807 8.01932 12.8915 7.49918 12.8915C7.0055 12.8915 6.6005 12.5211 6.56124 12.0497L6.55815 11.9745V10.2674C6.55815 9.7612 6.97991 9.35042 7.49962 9.35042ZM5.70271 8.62554C6.05168 8.96542 6.06932 9.5064 5.75521 9.86647L5.70271 9.9219L4.46344 11.1289C4.09594 11.4868 3.49991 11.4868 3.13241 11.1289C2.78344 10.789 2.76579 10.248 3.07991 9.88796L3.13241 9.83253L4.37168 8.62554C4.73918 8.26762 5.33521 8.26762 5.70271 8.62554ZM10.5711 8.57441L10.628 8.62554L11.8673 9.83253C12.2348 10.1905 12.2348 10.771 11.8673 11.1289C11.5183 11.4688 10.9629 11.486 10.5932 11.18L10.5362 11.1289L9.29698 9.9219C8.92948 9.56397 8.92948 8.98347 9.29698 8.62554C9.64595 8.28566 10.2014 8.26848 10.5711 8.57441ZM12.7346 5.95847C13.2543 5.95847 13.6761 6.36883 13.6761 6.875C13.6761 7.35582 13.2958 7.75027 12.8118 7.78851L12.7346 7.79152H10.9818C10.4621 7.79152 10.0404 7.38117 10.0404 6.875C10.0404 6.39418 10.4207 5.99972 10.9046 5.96148L10.9818 5.95847H12.7346ZM4.01697 5.95847C4.53668 5.95847 4.958 6.36883 4.958 6.875C4.958 7.35582 4.57771 7.75027 4.09374 7.78851L4.01653 7.79152H2.26374C1.74403 7.79152 1.32227 7.38117 1.32227 6.875C1.32227 6.39418 1.70256 5.99972 2.18653 5.96148L2.26374 5.95847H4.01697ZM11.8668 2.62195C12.2158 2.96183 12.2335 3.50281 11.9193 3.86289L11.8668 3.91832L10.6276 5.12531C10.2601 5.48324 9.66404 5.48324 9.29654 5.12531C8.94757 4.78543 8.92992 4.24445 9.24404 3.88437L9.29654 3.82894L10.5358 2.62195C10.9033 2.26402 11.4993 2.26402 11.8668 2.62195ZM4.40653 2.57082L4.46344 2.62195L5.70271 3.82894C6.07021 4.18687 6.07021 4.76738 5.70271 5.12531C5.35374 5.46519 4.79829 5.48238 4.42859 5.17644L4.37168 5.12531L3.13241 3.91832C2.76491 3.56039 2.76491 2.97988 3.13241 2.62195C3.48138 2.28207 4.03682 2.26488 4.40653 2.57082ZM7.49962 0.859803C7.9933 0.859803 8.3983 1.23019 8.43756 1.70156L8.44065 1.77676V3.4839C8.44065 3.99008 8.01932 4.40043 7.49918 4.40043C7.0055 4.40043 6.6005 4.03004 6.56124 3.55867L6.55815 3.48347V1.77633C6.55815 1.27015 6.97991 0.859803 7.49962 0.859803Z" fill="white"/>
</svg>
