<svg width="20" height="22" viewBox="0 0 20 22" fill="none" xmlns="http://www.w3.org/2000/svg">
<path d="M12.0193 14.2865C11.1638 14.2865 10.4974 14.222 10.3082 14.2005C9.8697 14.1489 9.55155 13.7577 9.60314 13.3192C9.65043 12.8807 10.0417 12.5668 10.4845 12.6141C12.475 12.8334 15.5275 12.6442 16.0606 11.535C16.2497 11.1395 16.727 10.9675 17.1268 11.161C17.5266 11.3501 17.6943 11.8317 17.5008 12.2272C16.6539 13.977 13.8809 14.2865 12.0193 14.2865Z" fill="#00A3FF"/>
<path d="M19.196 13.491C18.7532 13.491 18.3964 13.1341 18.3964 12.6913V9.93551L17.3259 9.55288C17.0077 9.4411 16.7928 9.13585 16.7928 8.80051C16.7928 4.83233 13.5641 1.60361 9.59587 1.60361C5.62769 1.60361 2.39897 4.83233 2.39897 8.80051C2.39897 9.05847 2.27429 9.29922 2.06363 9.4497L1.59931 9.78074V12.687C1.59931 13.1298 1.24248 13.4867 0.799656 13.4867C0.356836 13.4867 0 13.1298 0 12.687V9.36801C0 9.11006 0.124678 8.8693 0.33534 8.71883L0.808255 8.37919C1.02752 3.72313 4.88392 0 9.59587 0C14.2562 0.0042992 18.0825 3.64574 18.3792 8.23302L19.4669 8.61995C19.785 8.73173 20 9.03697 20 9.37231V12.6913C19.9957 13.1341 19.6389 13.491 19.196 13.491Z" fill="#00A3FF"/>
<path d="M12.7964 17.0849V16.8442C13.4972 16.2982 14.0561 15.7694 14.3871 15.0256C13.6606 15.1417 12.848 15.0987 12.1945 15.0987C11.3949 15.0987 10.7113 15.1202 10.2943 15.0729C9.41724 14.974 8.78525 14.1056 8.87984 13.2285C8.97872 12.3515 9.77408 11.7109 10.6468 11.8141C12.4267 12.0032 14.3914 11.7969 15.1782 11.4658C15.2126 10.735 15.204 9.9654 15.204 9.38071C15.204 5.95852 13.1232 3.92929 9.78697 3.8562C9.76978 3.8562 9.31836 3.8562 9.30116 3.8562C5.96496 3.92499 3.96582 5.98002 3.96582 9.4065C3.96582 11.5217 4.00022 14.974 6.39918 16.8485V17.0892C3.20056 17.5879 0.75 18.9035 0.75 20.6404C0.75 21.0832 1.11973 21.4959 1.56255 21.4959H17.259C17.7018 21.4959 18.2565 21.0832 18.2565 20.6404C18.2607 18.8992 15.9994 17.5879 12.7964 17.0849Z" fill="#00A3FF"/>
</svg>
