<svg width="22" height="22" viewBox="0 0 22 22" fill="none" xmlns="http://www.w3.org/2000/svg">
<path d="M11.0089 3.55842e-06C8.83401 -0.00174538 6.70747 0.641235 4.89794 1.84769C3.08841 3.05414 1.67713 4.76992 0.842425 6.7782C0.00772315 8.78648 -0.21293 10.9971 0.20835 13.1308C0.62963 15.2644 1.67394 17.2253 3.20929 18.7656C4.74465 20.3059 6.70216 21.3566 8.83443 21.7847C10.9667 22.2129 13.1781 21.9994 15.189 21.1711C17.2 20.3429 18.9203 18.9372 20.1326 17.1316C21.3449 15.3259 21.9947 13.2015 22 11.0266C22.0046 9.58028 21.7238 8.14722 21.1735 6.80961C20.6233 5.472 19.8144 4.25616 18.7933 3.23177C17.7722 2.20739 16.559 1.39461 15.2232 0.840037C13.8874 0.285462 12.4552 -3.99125e-06 11.0089 3.55842e-06ZM14.0629 11.6215L9.72152 15.9806C9.55552 16.1478 9.32991 16.2422 9.09431 16.243C8.85872 16.2439 8.63245 16.1511 8.46527 15.9851C8.29809 15.8191 8.2037 15.5935 8.20287 15.3579C8.20204 15.1223 8.29483 14.896 8.46083 14.7288L12.1808 11.0089L8.46083 7.28895C8.29547 7.1226 8.20266 6.89758 8.20266 6.66304C8.20266 6.42849 8.29547 6.20347 8.46083 6.03713C8.54336 5.95392 8.64155 5.88787 8.74974 5.84279C8.85793 5.79772 8.97397 5.77452 9.09118 5.77452C9.20838 5.77452 9.32442 5.79772 9.43261 5.84279C9.5408 5.88787 9.63899 5.95392 9.72152 6.03713L14.0629 10.3785C14.1488 10.4614 14.2172 10.5606 14.2639 10.6705C14.3106 10.7803 14.3346 10.8984 14.3346 11.0178C14.3346 11.1371 14.3106 11.2552 14.2639 11.365C14.2172 11.4749 14.1488 11.5742 14.0629 11.657V11.6215Z" fill="#464646"/>
</svg>
