<svg width="23" height="18" viewBox="0 0 23 18" fill="none" xmlns="http://www.w3.org/2000/svg">
<path d="M20.9597 3.70958L18.48 5.83142C18.3637 5.93208 18.2286 6.00867 18.0825 6.05677C17.9364 6.10487 17.7822 6.1235 17.6288 6.11161C17.4755 6.09973 17.326 6.05753 17.1891 5.98749C17.0522 5.91745 16.9305 5.82097 16.8311 5.70359L12.319 0.411807C12.211 0.282875 12.0761 0.17916 11.9237 0.108013C11.7713 0.0368665 11.6052 0 11.437 0C11.2688 0 11.1027 0.0368665 10.9503 0.108013C10.7979 0.17916 10.663 0.282875 10.555 0.411807L6.04294 5.70359C5.94354 5.82097 5.82186 5.91745 5.68492 5.98749C5.54798 6.05753 5.39851 6.09973 5.24516 6.11161C5.09182 6.1235 4.93764 6.10487 4.79154 6.05677C4.64545 6.00867 4.51035 5.93208 4.39405 5.83142L1.93987 3.70958C1.75437 3.54318 1.52033 3.44074 1.27223 3.41737C1.02413 3.39401 0.775085 3.45096 0.561779 3.5798C0.348472 3.70864 0.182189 3.90258 0.0874126 4.13305C-0.0073638 4.36352 -0.025622 4.61834 0.035337 4.85997L3.1414 17.118C3.20399 17.3693 3.34861 17.5924 3.55236 17.7522C3.7561 17.9119 4.00731 17.9991 4.26622 18H18.6845C18.9434 17.9991 19.1946 17.9119 19.3983 17.7522C19.6021 17.5924 19.7467 17.3693 19.8093 17.118L22.8898 4.79607C22.9392 4.55477 22.9107 4.304 22.8085 4.07992C22.7062 3.85584 22.5355 3.67 22.3208 3.54918C22.1062 3.42836 21.8587 3.3788 21.6141 3.40762C21.3695 3.43644 21.1404 3.54218 20.9597 3.70958ZM16.6138 15.3925H6.2858C6.05551 15.3656 5.84313 15.255 5.68899 15.0818C5.53485 14.9086 5.44969 14.6848 5.44969 14.453C5.44969 14.2211 5.53485 13.9973 5.68899 13.8241C5.84313 13.6509 6.05551 13.5404 6.2858 13.5135H16.6138C16.8441 13.5404 17.0564 13.6509 17.2106 13.8241C17.3647 13.9973 17.4499 14.2211 17.4499 14.453C17.4499 14.6848 17.3647 14.9086 17.2106 15.0818C17.0564 15.255 16.8441 15.3656 16.6138 15.3925Z" fill="#808994"/>
</svg>
