<svg width="345" height="120" viewBox="0 0 345 120" fill="none" xmlns="http://www.w3.org/2000/svg">
<rect width="345" height="120" rx="8" fill="#25282D"/>
<mask id="mask0_0_51861" style="mask-type:alpha" maskUnits="userSpaceOnUse" x="0" y="0" width="345" height="120">
<path d="M0 8C0 3.58172 3.58172 0 8 0H337C341.418 0 345 3.58172 345 8V112C345 116.418 341.418 120 337 120H8C3.58172 120 0 116.418 0 112V8Z" fill="#25282D"/>
</mask>
<g mask="url(#mask0_0_51861)">
<g filter="url(#filter0_f_0_51861)">
<ellipse cx="345" cy="-3.5" rx="69" ry="63.5" fill="#F7F736"/>
</g>
</g>
<g style="mix-blend-mode:soft-light">
<path d="M303.342 38.6322C303.503 37.6667 303.984 36.7012 304.787 36.0576C305.269 35.5748 305.911 35.2529 306.553 35.0921L307.998 34.6093C307.837 34.2874 307.676 34.1266 307.516 33.8048C307.355 33.6436 307.034 32.8391 306.874 32.8391C306.553 32.5174 306.392 32.0345 306.232 31.5519C306.071 31.0691 306.071 30.5864 306.071 30.1036C306.071 29.7817 306.232 29.299 306.392 28.9771C306.392 28.9771 306.392 28.8162 306.553 28.8162C306.553 28.4943 306.874 26.5633 307.034 26.0805C307.195 25.276 309.138 21.3074 313.126 21.3074C314.75 21.3074 315.703 21.7357 316.184 21.8966C315.06 20.1264 313.134 19 310.726 19H297.421C293.889 19 291 21.8966 291 25.4367V36.7012C291 40.2414 293.889 43.8276 297.421 43.8276H303.985C303.342 43.184 303.342 42.5402 303.182 42.0576C303.021 41.2529 303.182 39.7586 303.342 38.6322ZM297.421 24.1495H304.627C305.429 24.1495 305.911 24.7931 305.911 25.4369C305.911 26.2414 305.269 26.7243 304.627 26.7243H297.421C296.618 26.7243 296.137 26.0805 296.137 25.4369C295.976 24.7931 296.618 24.1495 297.421 24.1495ZM297.421 32.1955C296.618 32.1955 296.137 31.5519 296.137 30.9081C296.137 30.1036 296.779 29.6207 297.421 29.6207H302.379C303.182 29.6207 303.663 30.2645 303.663 30.9081C303.663 31.7128 303.021 32.1955 302.379 32.1955H297.421ZM317.308 26.4024C317.468 26.8852 317.629 27.3679 317.629 27.8507C317.629 28.3334 317.789 28.8162 317.789 29.4598C317.86 29.4598 318.336 29.776 318.31 30.2312C318.276 30.8076 317.718 31.5519 317.629 31.5519C317.468 31.7126 317.468 31.7126 317.308 31.7126C317.147 32.8452 316.184 33.4828 316.024 33.6436C315.863 33.8047 315.703 33.9655 315.703 34.2874V34.931C315.703 35.0919 315.703 35.2528 315.863 35.5747C316.024 35.7355 316.024 35.8964 316.345 36.2183C316.505 36.3793 316.826 36.5402 317.147 36.701C317.468 36.8621 317.789 37.0229 318.11 37.0229C318.432 37.184 318.753 37.184 319.234 37.3447L320.197 37.8274C320.518 37.9884 320.679 38.3102 320.839 38.6321C320.839 38.7929 321 39.1148 321 39.4367V41.8966C321 42.2183 320.839 42.701 320.839 42.8621C320.839 42.9398 317.358 43.6403 313.827 43.6222C310.062 43.6028 306.553 43.2355 306.392 42.8619C306.232 42.4884 306.072 42.3791 305.911 41.8964C305.911 41.4136 305.911 39.9195 306.071 39.115C306.071 38.6322 306.392 38.3102 306.553 37.9884C306.874 37.6666 307.195 37.5057 307.677 37.3447C308.158 37.1838 308.479 37.0229 308.961 37.0229C309.442 36.8621 309.763 36.701 310.084 36.5402C310.405 36.3793 310.566 36.2183 310.727 36.0574C310.887 35.8964 310.887 35.7355 311.048 35.5747C311.048 35.4136 311.208 35.2528 311.208 35.0919V34.6091C311.208 34.2872 311.048 34.1264 310.887 33.9655C310.727 33.8047 309.848 32.9528 309.603 32.0345C309.442 32.0345 309.442 32.0345 309.282 31.8734C308.889 31.2443 308.681 30.8152 308.657 30.5862C308.585 29.8874 309.05 29.5317 309.122 29.4597V28.0114C309.122 27.5286 309.282 27.2069 309.442 26.7241C309.603 26.2414 310.887 23.8421 313.455 23.8421C316.024 23.8421 317.147 25.9197 317.308 26.4024Z" fill="white"/>
</g>
<defs>
<filter id="filter0_f_0_51861" x="115.8" y="-227.2" width="458.4" height="447.4" filterUnits="userSpaceOnUse" color-interpolation-filters="sRGB">
<feFlood flood-opacity="0" result="BackgroundImageFix"/>
<feBlend mode="normal" in="SourceGraphic" in2="BackgroundImageFix" result="shape"/>
<feGaussianBlur stdDeviation="80.1" result="effect1_foregroundBlur_0_51861"/>
</filter>
</defs>
</svg>
