<svg width="24" height="24" viewBox="0 0 24 24" fill="none" xmlns="http://www.w3.org/2000/svg">
<path d="M18.5504 12.7522C18.5204 9.7125 21.0291 8.25525 21.1409 8.1825C19.7309 6.11925 17.5349 5.83725 16.7526 5.80425C14.8836 5.61525 13.1061 6.9045 12.1574 6.9045C11.2116 6.9045 9.74764 5.832 8.19739 5.8605C6.16039 5.8905 4.28164 7.04475 3.23314 8.8695C1.11664 12.5422 2.69089 17.9827 4.75414 20.9617C5.76214 22.4197 6.96439 24.057 8.54239 23.9985C10.0619 23.9377 10.6371 23.0152 12.4739 23.0152C14.3106 23.0152 14.8274 23.9985 16.4361 23.9685C18.0711 23.9377 19.1076 22.4827 20.1089 21.0202C21.2661 19.329 21.7431 17.691 21.7709 17.607C21.7349 17.5905 18.5819 16.383 18.5504 12.7522ZM15.5286 3.8325C16.3664 2.81625 16.9319 1.40625 16.7774 0C15.5706 0.0495 14.1081 0.804 13.2426 1.81725C12.4656 2.7165 11.7861 4.152 11.9684 5.5305C13.3154 5.6355 14.6901 4.84575 15.5286 3.8325Z" fill="white"/>
</svg>
