<svg width="22" height="22" viewBox="0 0 22 22" fill="none" xmlns="http://www.w3.org/2000/svg">
<g opacity="0.8">
<path d="M16.04 13.001C17.9691 13.001 19.538 14.5692 19.54 16.5C19.54 18.4291 17.9692 20 16.04 20C14.111 19.9999 12.541 18.4291 12.541 16.5C12.5412 14.5711 14.1111 13.0011 16.04 13.001ZM12.1201 11.2754C13.2432 11.2754 14.3216 11.5468 15.2744 12.0576C15.1005 12.0866 14.9588 12.1213 14.832 12.1611C12.9337 12.6919 11.5372 14.438 11.5371 16.5029C11.5371 17.338 11.7635 18.1189 12.1602 18.7891H12.1582C12.3683 19.1441 12.6258 19.4685 12.9229 19.7529C12.9299 19.76 12.9354 19.7668 12.9424 19.7705C12.9531 19.783 12.966 19.7959 12.9785 19.8066H4.65918C3.46909 19.8066 2.5 18.8375 2.5 17.6475C2.50012 15.9178 3.18109 14.3076 4.41992 13.1104C5.64443 11.9275 7.27682 11.2754 9.01758 11.2754H12.1201ZM16.0508 14.7793C15.7214 14.7795 15.5128 15.0494 15.5127 15.377V15.957H14.9336C14.6039 15.957 14.3359 16.1654 14.3359 16.4951C14.336 16.8247 14.6058 17.0332 14.9336 17.0332H15.5127V17.6123C15.5127 17.9419 15.7231 18.2098 16.0508 18.21C16.3805 18.21 16.5889 17.9402 16.5889 17.6123V17.0332H17.1689C17.4985 17.0331 17.7665 16.8246 17.7666 16.4951C17.7666 16.1655 17.4967 15.9571 17.1689 15.957H16.5889V15.377C16.5887 15.0474 16.3785 14.7793 16.0508 14.7793ZM10.5693 2C11.727 1.99998 12.8376 2.45977 13.6562 3.27832C14.4749 4.09695 14.9355 5.2075 14.9355 6.36523C14.9356 7.52304 14.4749 8.63344 13.6562 9.45215C12.8376 10.2708 11.7271 10.7314 10.5693 10.7314C9.41165 10.7314 8.30105 10.2708 7.48242 9.45215C6.66391 8.6335 6.20412 7.52289 6.2041 6.36523C6.20417 5.20756 6.66383 4.09694 7.48242 3.27832C8.30105 2.4597 9.41162 2.00006 10.5693 2Z" fill="#00B2FF"/>
</g>
</svg>
