<svg width="17" height="17" viewBox="0 0 17 17" fill="none" xmlns="http://www.w3.org/2000/svg">
<path d="M2.03127 0.539794L2.74932 1.25784L2.03127 1.97588L1.31323 1.25784C1.26473 1.21099 1.22604 1.15496 1.19943 1.093C1.17282 1.03105 1.15881 0.964414 1.15822 0.896987C1.15764 0.829561 1.17048 0.762693 1.19602 0.700285C1.22155 0.637877 1.25926 0.581179 1.30694 0.5335C1.35462 0.48582 1.41131 0.448113 1.47372 0.42258C1.53613 0.397047 1.603 0.384199 1.67042 0.384785C1.73785 0.385371 1.80449 0.399379 1.86644 0.425993C1.9284 0.452607 1.98443 0.491293 2.03127 0.539794ZM14.2928 0.539794C14.3881 0.444508 14.5172 0.39095 14.6519 0.390903C14.7866 0.390855 14.9158 0.444322 15.0111 0.53954C15.1064 0.634758 15.16 0.763928 15.16 0.898635C15.1601 1.03334 15.1066 1.16255 15.0114 1.25784L14.2928 1.97588L13.5748 1.25784L14.2928 0.539794Z" fill="#F6365C"/>
<path d="M1.74213 0.717672C2.5272 0.0590441 4.06535 -0.463492 4.99261 0.641501C5.91987 1.74649 5.4278 2.92817 4.35328 3.82953C3.27926 4.73089 2.03005 5.01069 1.10279 3.9057C0.175535 2.80071 0.957052 1.3763 1.74213 0.717672ZM14.5095 0.717672C15.2945 1.3763 16.0761 2.80071 15.1493 3.9057C14.2215 5.01069 12.9723 4.73089 11.8983 3.82953C10.8238 2.92817 10.3317 1.74649 11.2585 0.641501C12.1862 -0.463492 13.7244 0.0590441 14.5095 0.717672Z" fill="#FFE768"/>
<path d="M4.5495 0.255957L4.58708 0.278808C4.7313 0.372753 4.8679 0.492088 4.99333 0.641384C5.92008 1.74638 5.42801 2.92805 4.35349 3.82941C3.27947 4.73077 2.03026 5.01057 1.103 3.90558C0.818686 3.57689 0.66857 3.1532 0.682534 2.71883C0.874486 2.24504 1.1878 1.76872 1.61182 1.34521C2.53096 0.426073 3.69943 0.0249035 4.5495 0.255957ZM14.6402 1.34521C15.0637 1.76821 15.377 2.24403 15.5695 2.71781C15.5836 3.15252 15.4335 3.57661 15.149 3.90558C14.2217 5.01057 12.9725 4.73077 11.8985 3.82941C10.824 2.92805 10.3319 1.74638 11.2587 0.641384C11.3953 0.478885 11.5446 0.351933 11.7025 0.255449C12.5521 0.0243957 13.721 0.425565 14.6402 1.34521Z" fill="#FFC32A"/>
<path d="M4.84814 0.485326L4.91669 0.554896C4.94208 0.582317 4.96747 0.610755 4.99286 0.641223C5.29856 1.00532 5.44989 1.37755 5.47731 1.74622C5.26911 2.29465 4.78822 2.93703 4.11791 3.49917C3.39987 4.10194 2.63003 4.47417 2.03437 4.55288C1.70328 4.45335 1.38793 4.24464 1.10305 3.90491C1.07186 3.86776 1.04205 3.82948 1.01367 3.79015C1.05176 3.1696 1.60527 2.29313 2.48581 1.55426C3.32217 0.852472 4.22963 0.462474 4.84814 0.485326ZM13.7663 1.55426C14.6468 2.29313 15.1998 3.1691 15.2389 3.79015C15.2104 3.82951 15.1804 3.86779 15.149 3.90491C14.8647 4.24464 14.5488 4.45334 14.2172 4.55338C13.6226 4.47417 12.8522 4.10143 12.1342 3.49917C11.4639 2.93703 10.9835 2.29465 10.7748 1.74622C10.8022 1.37805 10.9535 1.00481 11.2592 0.640715C11.3059 0.584856 11.3547 0.53306 11.4045 0.485326C12.023 0.462982 12.9299 0.852472 13.7663 1.55426Z" fill="#FFA825"/>
<path d="M0 8.36713C-2.2485e-08 9.43412 0.210158 10.4907 0.618475 11.4764C1.02679 12.4622 1.62527 13.3579 2.37974 14.1123C3.13421 14.8668 4.0299 15.4653 5.01566 15.8736C6.00143 16.2819 7.05796 16.4921 8.12495 16.4921C9.19193 16.4921 10.2485 16.2819 11.2342 15.8736C12.22 15.4653 13.1157 14.8668 13.8702 14.1123C14.6246 13.3579 15.2231 12.4622 15.6314 11.4764C16.0397 10.4907 16.2499 9.43412 16.2499 8.36713C16.2499 7.30015 16.0397 6.24362 15.6314 5.25785C15.2231 4.27209 14.6246 3.3764 13.8702 2.62193C13.1157 1.86746 12.22 1.26898 11.2342 0.860662C10.2485 0.452345 9.19193 0.242188 8.12495 0.242188C7.05796 0.242188 6.00143 0.452345 5.01566 0.860662C4.0299 1.26898 3.13421 1.86746 2.37974 2.62193C1.62527 3.3764 1.02679 4.27209 0.618475 5.25785C0.210158 6.24362 -1.58993e-08 7.30015 0 8.36713Z" fill="#FFC42D"/>
<path d="M8.12413 0.242188C11.9368 0.242188 15.136 2.86807 16.0119 6.41004L8.12413 8.87494L0.236328 6.41004C1.1123 2.86807 4.3115 0.242188 8.12413 0.242188Z" fill="#FFB468"/>
<path d="M11.6793 8.36719L15.3665 12.0549C14.0229 14.6884 11.2843 16.4921 8.12468 16.4921C4.96509 16.4921 2.22648 14.6884 0.882812 12.0549L4.57001 8.36719H11.6793Z" fill="#FFAF13"/>
<path d="M8.63314 8.36719L11.8039 15.6136C10.6643 16.193 9.4037 16.494 8.12533 16.4921C6.80147 16.4921 5.55124 16.1753 4.44727 15.6136L7.61752 8.36719H8.63314Z" fill="#FF9D2B"/>
<path d="M0.507812 7.85932C0.507812 9.87951 1.31033 11.817 2.73882 13.2455C4.16731 14.6739 6.10476 15.4765 8.12495 15.4765C10.1451 15.4765 12.0826 14.6739 13.5111 13.2455C14.9396 11.817 15.7421 9.87951 15.7421 7.85932C15.7421 5.83913 14.9396 3.90168 13.5111 2.47319C12.0826 1.0447 10.1451 0.242188 8.12495 0.242188C6.10476 0.242188 4.16731 1.0447 2.73882 2.47319C1.31033 3.90168 0.507813 5.83913 0.507812 7.85932Z" fill="#FFDF39"/>
<path d="M8.12495 0.115234C3.84818 0.115234 0.380859 3.58255 0.380859 7.85932C0.380859 12.1361 3.84818 15.6034 8.12495 15.6034C12.4017 15.6034 15.869 12.1361 15.869 7.85932C15.869 3.58255 12.4017 0.115234 8.12495 0.115234ZM8.12495 0.369139C12.2616 0.369139 15.6151 3.72271 15.6151 7.85932C15.6151 11.9959 12.2616 15.3495 8.12495 15.3495C3.98833 15.3495 0.634764 11.9959 0.634764 7.85932C0.634764 3.72271 3.98833 0.369139 8.12495 0.369139Z" fill="#FFE686"/>
<path d="M2.03125 7.85933C2.03125 9.47548 2.67326 11.0254 3.81606 12.1682C4.95885 13.311 6.50881 13.953 8.12496 13.953C9.74111 13.953 11.2911 13.311 12.4339 12.1682C13.5767 11.0254 14.2187 9.47548 14.2187 7.85933C14.2187 6.24318 13.5767 4.69322 12.4339 3.55043C11.2911 2.40764 9.74111 1.76563 8.12496 1.76562C6.50881 1.76563 4.95885 2.40764 3.81606 3.55043C2.67326 4.69322 2.03125 6.24318 2.03125 7.85933Z" fill="#FA7800"/>
<path d="M8.12496 1.51172C4.61904 1.51172 1.77734 4.35342 1.77734 7.85933C1.77734 11.3652 4.61904 14.2069 8.12496 14.2069C11.6309 14.2069 14.4726 11.3652 14.4726 7.85933C14.4726 4.35342 11.6309 1.51172 8.12496 1.51172ZM8.12496 1.76562C11.4902 1.76562 14.2187 4.49408 14.2187 7.85933C14.2187 11.2246 11.4902 13.953 8.12496 13.953C4.75971 13.953 2.03125 11.2246 2.03125 7.85933C2.03125 4.49408 4.75971 1.76562 8.12496 1.76562Z" fill="#FFD671"/>
<path d="M2.53906 8.36715C2.53906 9.1007 2.68355 9.82707 2.96426 10.5048C3.24498 11.1825 3.65644 11.7983 4.17513 12.317C4.69383 12.8357 5.30962 13.2471 5.98733 13.5278C6.66504 13.8086 7.39141 13.953 8.12496 13.953C8.85851 13.953 9.58488 13.8086 10.2626 13.5278C10.9403 13.2471 11.5561 12.8357 12.0748 12.317C12.5935 11.7983 13.0049 11.1825 13.2857 10.5048C13.5664 9.82707 13.7109 9.1007 13.7109 8.36715C13.7109 6.88568 13.1223 5.46488 12.0748 4.41732C11.0272 3.36976 9.60643 2.78125 8.12496 2.78125C6.64349 2.78125 5.22269 3.36976 4.17513 4.41732C3.12758 5.46488 2.53906 6.88568 2.53906 8.36715Z" fill="#FFEC8B"/>
<path d="M13.688 7.85938C13.7032 8.02695 13.7109 8.19605 13.7109 8.36718C13.7109 11.4521 11.2099 13.9531 8.12496 13.9531C5.04002 13.9531 2.53906 11.4521 2.53906 8.36718C2.53906 8.19605 2.54668 8.02695 2.56191 7.85938C2.81836 10.7067 5.21115 12.9375 8.12496 12.9375C11.0144 12.9375 13.3909 10.7437 13.6809 7.93148L13.688 7.85938Z" fill="#FFB801"/>
<path d="M8.12418 2.78125C10.809 2.78125 13.0509 4.67538 13.5882 7.1997C12.9834 6.30732 12.1691 5.5768 11.2165 5.0721C10.264 4.5674 9.20219 4.3039 8.12418 4.30468C5.85224 4.30468 3.84843 5.45233 2.66016 7.1997C3.19793 4.67538 5.4399 2.78125 8.12418 2.78125Z" fill="#FFB801"/>
<path d="M8.12497 8.36552C8.12498 8.39849 8.11838 8.43113 8.10557 8.46151C8.09276 8.49189 8.07398 8.5194 8.05036 8.5424C8.02674 8.56541 7.99875 8.58345 7.96804 8.59546C7.93733 8.60746 7.90453 8.61319 7.87157 8.61231L3.30078 8.49348C3.26711 8.49348 3.23482 8.48011 3.21101 8.4563C3.1872 8.43249 3.17383 8.4002 3.17383 8.36653C3.17383 8.33286 3.1872 8.30057 3.21101 8.27676C3.23482 8.25296 3.26711 8.23958 3.30078 8.23958L7.87157 8.11923C7.90453 8.11835 7.93733 8.12408 7.96804 8.13609C7.99875 8.14809 8.02674 8.16613 8.05036 8.18914C8.07398 8.21214 8.09276 8.23965 8.10557 8.27003C8.11838 8.30041 8.12498 8.33305 8.12497 8.36602V8.36552Z" fill="#FF9B25"/>
<path d="M8.125 5.32031C8.46354 5.32031 8.63281 5.48958 8.63281 5.82812V8.36717C8.63281 8.70571 8.46354 8.87498 8.125 8.87498C7.78646 8.87498 7.61719 8.70571 7.61719 8.36717V5.82812C7.61719 5.48958 7.78646 5.32031 8.125 5.32031Z" fill="#FF8A00"/>
<path d="M12.0839 10.657C12.0164 10.7736 11.9055 10.8585 11.7754 10.8933C11.6453 10.9281 11.5068 10.9097 11.3902 10.8424L7.87209 8.81112C7.7564 8.74331 7.67224 8.63248 7.63796 8.50284C7.60369 8.3732 7.62208 8.23526 7.68913 8.11913C7.75618 8.003 7.86644 7.91811 7.99586 7.88298C8.12527 7.84784 8.26332 7.86532 8.37989 7.9316L11.898 9.96284C12.0146 10.0302 12.0997 10.1411 12.1346 10.2712C12.1694 10.4013 12.1512 10.5399 12.0839 10.6565V10.657Z" fill="#F87700"/>
<path d="M12.2476 6.5751C12.2989 6.73963 12.3405 6.90721 12.3715 7.07783C12.3836 7.1441 12.3689 7.21246 12.3307 7.26789C12.2924 7.32331 12.2336 7.36126 12.1674 7.37338C12.1011 7.3855 12.0328 7.3708 11.9773 7.33252C11.9219 7.29424 11.884 7.2355 11.8718 7.16924C11.8446 7.01958 11.8083 6.87171 11.7632 6.72643C11.7519 6.69428 11.7473 6.66021 11.7495 6.62624C11.7518 6.59227 11.7608 6.55909 11.7761 6.52867C11.7914 6.49826 11.8127 6.47124 11.8386 6.44921C11.8646 6.42718 11.8947 6.4106 11.9272 6.40045C11.9597 6.3903 11.9939 6.38678 12.0278 6.39012C12.0617 6.39346 12.0945 6.40357 12.1244 6.41987C12.1543 6.43616 12.1806 6.4583 12.2018 6.48497C12.223 6.51164 12.2385 6.54229 12.2476 6.5751ZM8.12573 3.54298C8.15907 3.54298 8.19209 3.54954 8.22289 3.5623C8.2537 3.57506 8.28169 3.59377 8.30526 3.61734C8.32884 3.64092 8.34754 3.66891 8.3603 3.69972C8.37306 3.73052 8.37963 3.76354 8.37963 3.79688C8.37963 3.83022 8.37306 3.86324 8.3603 3.89405C8.34754 3.92485 8.32884 3.95284 8.30526 3.97642C8.28169 4 8.2537 4.0187 8.22289 4.03146C8.19209 4.04422 8.15907 4.05078 8.12573 4.05078C7.88739 4.05083 7.64957 4.07293 7.4153 4.1168C6.93536 4.20723 6.4775 4.38986 6.06707 4.65457C5.42324 5.06948 4.91859 5.66788 4.61829 6.37249C4.60618 6.40444 4.58775 6.43362 4.56409 6.45828C4.54044 6.48294 4.51205 6.50257 4.48063 6.516C4.4492 6.52943 4.41539 6.53637 4.38122 6.53642C4.34705 6.53647 4.31322 6.52962 4.28176 6.51629C4.2503 6.50295 4.22185 6.4834 4.19813 6.45881C4.1744 6.43422 4.15589 6.40509 4.14369 6.37317C4.13149 6.34125 4.12586 6.3072 4.12713 6.27305C4.1284 6.2389 4.13656 6.20536 4.1511 6.17444C4.38276 5.63106 4.72295 5.14071 5.15082 4.73345C5.57869 4.32619 6.08522 4.0106 6.63937 3.80602C7.11536 3.6311 7.61861 3.54203 8.12573 3.54298ZM11.1106 4.74141C11.4017 5.02012 11.6526 5.33801 11.8561 5.68593C11.8901 5.74411 11.8996 5.81342 11.8825 5.87861C11.8654 5.94379 11.8231 5.99952 11.7649 6.03353C11.7068 6.06753 11.6374 6.07703 11.5723 6.05994C11.5071 6.04284 11.4514 6.00056 11.4173 5.94237C11.2381 5.63497 11.0168 5.35414 10.7597 5.10804C10.7138 5.06091 10.688 4.9978 10.6877 4.932C10.6874 4.86621 10.7127 4.80287 10.7582 4.75534C10.8037 4.7078 10.8659 4.67979 10.9316 4.67719C10.9973 4.67459 11.0615 4.69761 11.1106 4.74141ZM9.12611 3.66333L9.1713 3.67044C9.5856 3.77342 9.98217 3.93773 10.3479 4.15793C10.4056 4.19268 10.4472 4.24893 10.4634 4.31431C10.4796 4.37968 10.4692 4.44883 10.4345 4.50654C10.3997 4.56425 10.3435 4.6058 10.2781 4.62203C10.2127 4.63827 10.1436 4.62787 10.0859 4.59312C9.76339 4.3994 9.41393 4.25462 9.04892 4.16352C8.99084 4.14943 8.9396 4.11531 8.9042 4.06716C8.8688 4.019 8.85152 3.95991 8.85541 3.90027C8.85929 3.84064 8.88408 3.78428 8.92543 3.74113C8.96677 3.69797 9.02201 3.67078 9.08142 3.66434L9.12611 3.66333Z" fill="#FFE3B6"/>
<path d="M3.04635 13.9531C3.24338 14.1293 3.47596 14.3071 3.7451 14.4863C4.01424 14.6656 4.28896 14.8266 4.56978 14.9687L2.71831 16.8202C2.66138 16.8772 2.59378 16.9224 2.51937 16.9533C2.44496 16.9841 2.36519 17 2.28464 17C2.25564 17 2.22705 16.9932 2.20123 16.98C2.17541 16.9668 2.15309 16.9476 2.13612 16.9241C2.11916 16.9006 2.10803 16.8734 2.10365 16.8447C2.09928 16.8161 2.10179 16.7868 2.11097 16.7593L3.04635 13.9531ZM13.2025 13.9531L14.1379 16.7593C14.1471 16.7868 14.1496 16.8161 14.1452 16.8447C14.1409 16.8734 14.1297 16.9006 14.1128 16.9241C14.0958 16.9476 14.0735 16.9668 14.0477 16.98C14.0218 16.9932 13.9932 17 13.9642 17C13.8017 17 13.6459 16.9355 13.5306 16.8202L11.6791 14.9687C12.2231 14.6878 12.734 14.3472 13.2025 13.9531Z" fill="#F87700"/>
<path d="M3.74515 14.4861C4.01429 14.6653 4.28901 14.8263 4.56983 14.9685L2.71836 16.8199C2.6559 16.8824 2.58125 16.9301 2.5 16.9606L3.63241 14.4099L3.74515 14.4861ZM12.6135 14.4043L13.7495 16.9606C13.6892 16.9381 13.6328 16.9062 13.5824 16.8662L13.5306 16.8205L11.6792 14.9685C11.9528 14.8272 12.2183 14.6707 12.4744 14.4998L12.6135 14.4043Z" fill="#F34F08"/>
<path d="M8.125 8.11328C8.09165 8.11328 8.05864 8.11985 8.02783 8.13261C7.99703 8.14537 7.96904 8.16407 7.94546 8.18765C7.92188 8.21122 7.90318 8.23922 7.89042 8.27002C7.87766 8.30083 7.87109 8.33384 7.87109 8.36719C7.87109 8.40053 7.87766 8.43355 7.89042 8.46435C7.90318 8.49516 7.92188 8.52315 7.94546 8.54672C7.96904 8.5703 7.99703 8.589 8.02783 8.60176C8.05864 8.61452 8.09165 8.62109 8.125 8.62109C8.19234 8.62109 8.25692 8.59434 8.30454 8.54672C8.35215 8.49911 8.3789 8.43453 8.3789 8.36719C8.3789 8.29985 8.35215 8.23526 8.30454 8.18765C8.25692 8.14003 8.19234 8.11328 8.125 8.11328Z" fill="#FFC32A"/>
</svg>
