<svg width="30" height="30" viewBox="0 0 30 30" fill="none" xmlns="http://www.w3.org/2000/svg">
<g style="mix-blend-mode:soft-light">
<path d="M12.3424 22.6322C12.5028 21.6667 12.9845 20.7012 13.7872 20.0576C14.2686 19.5748 14.9107 19.2529 15.5528 19.0921L16.9976 18.6093C16.8371 18.2874 16.6764 18.1266 16.5159 17.8048C16.3555 17.6436 16.0343 16.8391 15.874 16.8391C15.5529 16.5174 15.3922 16.0345 15.2317 15.5519C15.0714 15.0691 15.0714 14.5864 15.0714 14.1036C15.0714 13.7817 15.2317 13.299 15.3922 12.9771C15.3922 12.9771 15.3922 12.8162 15.5529 12.8162C15.5529 12.4943 15.874 10.5633 16.0345 10.0805C16.1948 9.27604 18.1381 5.30741 22.1259 5.30741C23.7497 5.30741 24.7026 5.73569 25.1841 5.89655C24.0605 4.12638 22.1341 3 19.7264 3H6.42086C2.88931 3 0 5.89655 0 9.43673V20.7012C0 24.2414 2.88948 27.8276 6.42086 27.8276H12.9847C12.3424 27.184 12.3424 26.5402 12.1819 26.0576C12.0214 25.2529 12.1821 23.7586 12.3424 22.6322ZM6.42086 8.14948H13.6266C14.4291 8.14948 14.9107 8.7931 14.9107 9.4369C14.9107 10.2414 14.2686 10.7243 13.6266 10.7243H6.42086C5.61828 10.7243 5.13672 10.0805 5.13672 9.4369C4.97621 8.7931 5.61828 8.14948 6.42086 8.14948ZM6.42086 16.1955C5.61828 16.1955 5.13672 15.5519 5.13672 14.9081C5.13672 14.1036 5.77862 13.6207 6.42086 13.6207H11.3793C12.1819 13.6207 12.6633 14.2645 12.6633 14.9081C12.6633 15.7128 12.0214 16.1955 11.3793 16.1955H6.42086ZM26.3078 10.4024C26.4681 10.8852 26.6288 11.3679 26.6288 11.8507C26.6288 12.3334 26.7893 12.8162 26.7893 13.4598C26.86 13.4598 27.3362 13.776 27.3097 14.2312C27.276 14.8076 26.7184 15.5519 26.6288 15.5519C26.4683 15.7126 26.4683 15.7126 26.3078 15.7126C26.1474 16.8452 25.1841 17.4828 25.0236 17.6436C24.8633 17.8047 24.7026 17.9655 24.7026 18.2874V18.931C24.7026 19.0919 24.7026 19.2528 24.8633 19.5747C25.0236 19.7355 25.0236 19.8964 25.3448 20.2183C25.5053 20.3793 25.8262 20.5402 26.1474 20.701C26.4684 20.8621 26.7895 21.0229 27.1105 21.0229C27.4316 21.184 27.7526 21.184 28.2341 21.3447L29.1972 21.8274C29.5183 21.9885 29.679 22.3102 29.8395 22.6321C29.8395 22.7929 30 23.1148 30 23.4367V25.8966C30 26.2183 29.8395 26.701 29.8395 26.8621C29.8395 26.9398 26.3576 27.6403 22.8274 27.6222C19.0616 27.6028 15.5528 27.2355 15.3922 26.8619C15.2319 26.4884 15.0716 26.3791 14.9109 25.8964C14.9109 25.4136 14.9109 23.9195 15.0714 23.115C15.0714 22.6322 15.3924 22.3102 15.5531 21.9885C15.8741 21.6666 16.195 21.5057 16.6767 21.3447C17.1583 21.1838 17.4793 21.0229 17.9609 21.0229C18.4424 20.8621 18.7634 20.701 19.0845 20.5402C19.4055 20.3793 19.566 20.2183 19.7265 20.0574C19.8871 19.8964 19.8871 19.7355 20.0476 19.5747C20.0476 19.4136 20.2081 19.2528 20.2081 19.0919V18.6091C20.2081 18.2872 20.0478 18.1264 19.8871 17.9655C19.7266 17.8047 18.8483 16.9528 18.6029 16.0345C18.4424 16.0345 18.4424 16.0345 18.2819 15.8735C17.8893 15.2443 17.681 14.8152 17.6574 14.5862C17.5848 13.8874 18.0497 13.5317 18.1216 13.4597V12.0114C18.1216 11.5286 18.2819 11.2069 18.4422 10.7241C18.6029 10.2414 19.8871 7.84207 22.4555 7.84207C25.0236 7.84207 26.1472 9.91966 26.3078 10.4024Z" fill="white"/>
</g>
</svg>
