<svg width="321" height="84" viewBox="0 0 321 84" fill="none" xmlns="http://www.w3.org/2000/svg">
<mask id="path-1-inside-1_0_10393" fill="white">
<path d="M30.8076 10H313C317.418 10 321 13.5817 321 18V76C321 80.4183 317.418 84 313 84H8C3.58172 84 0 80.4183 0 76V18C0 13.5817 3.58172 10 8 10H15.1865L22.9971 0L30.8076 10Z"/>
</mask>
<path d="M30.8076 10H313C317.418 10 321 13.5817 321 18V76C321 80.4183 317.418 84 313 84H8C3.58172 84 0 80.4183 0 76V18C0 13.5817 3.58172 10 8 10H15.1865L22.9971 0L30.8076 10Z" fill="#1B1D20"/>
<path d="M30.8076 10L30.0195 10.6155L30.3198 11H30.8076V10ZM313 10V9V10ZM321 18H322H321ZM8 84L8 85H8V84ZM15.1865 10V11H15.6743L15.9746 10.6155L15.1865 10ZM22.9971 0L23.7852 -0.615548L22.9971 -1.62457L22.209 -0.615548L22.9971 0ZM30.8076 10V11H313V10V9H30.8076V10ZM313 10V11C316.866 11 320 14.134 320 18H321H322C322 13.0294 317.971 9 313 9V10ZM321 18H320V76H321H322V18H321ZM321 76H320C320 79.866 316.866 83 313 83V84V85C317.971 85 322 80.9706 322 76H321ZM313 84V83H8V84V85H313V84ZM8 84L8 83C4.13401 83 1 79.866 1 76H0H-1C-1 80.9706 3.02944 85 8 85L8 84ZM0 76H1V18H0H-1V76H0ZM0 18H1C1 14.134 4.13401 11 8 11V10V9C3.02944 9 -1 13.0294 -1 18H0ZM8 10V11H15.1865V10V9H8V10ZM15.1865 10L15.9746 10.6155L23.7852 0.615548L22.9971 0L22.209 -0.615548L14.3984 9.38445L15.1865 10ZM22.9971 0L22.209 0.615548L30.0195 10.6155L30.8076 10L31.5957 9.38445L23.7852 -0.615548L22.9971 0Z" fill="#478A03" mask="url(#path-1-inside-1_0_10393)"/>
</svg>
