<svg width="25" height="11" viewBox="0 0 25 11" fill="none" xmlns="http://www.w3.org/2000/svg">
<path d="M0 5C0 2.23858 2.23858 0 5 0H25V6C25 8.76142 22.7614 11 20 11H0V5Z" fill="#E60000"/>
<path d="M18.2683 9.3824V3.3511H16.1367V2.12305H21.8455V3.3511H19.7188V9.3824H18.2683Z" fill="white"/>
<path d="M9.02148 5.79804C9.02148 5.05857 9.13092 4.43794 9.3498 3.93616C9.51314 3.56642 9.73528 3.23465 10.0162 2.94084C10.3004 2.64704 10.6108 2.42916 10.9473 2.2872C11.3948 2.09573 11.911 2 12.4957 2C13.5542 2 14.4003 2.33177 15.0341 2.99531C15.6711 3.65886 15.9896 4.58154 15.9896 5.76337C15.9896 6.9353 15.6744 7.85304 15.0439 8.51658C14.4134 9.17682 13.5705 9.50694 12.5153 9.50694C11.4471 9.50694 10.5977 9.17847 9.96723 8.52153C9.33673 7.86129 9.02148 6.95346 9.02148 5.79804ZM10.5161 5.74852C10.5161 6.57052 10.7039 7.19445 11.0796 7.6203C11.4553 8.04286 11.9322 8.25413 12.5104 8.25413C13.0887 8.25413 13.5624 8.04451 13.9315 7.62525C14.3039 7.2027 14.4901 6.57052 14.4901 5.72871C14.4901 4.89681 14.3088 4.27618 13.9462 3.86683C13.5869 3.45748 13.1083 3.25281 12.5104 3.25281C11.9126 3.25281 11.4308 3.46078 11.0649 3.87673C10.699 4.28939 10.5161 4.91331 10.5161 5.74852Z" fill="white"/>
<path d="M3 9.3824V2.12305H4.45047V4.98024H7.2926V2.12305H8.74306V9.3824H7.2926V6.20829H4.45047V9.3824H3Z" fill="white"/>
</svg>
