<svg width="14" height="14" viewBox="0 0 14 14" fill="none" xmlns="http://www.w3.org/2000/svg">
<path d="M7 0C3.13404 0 0 3.13404 0 7C0 10.866 3.13404 14 7 14C10.866 14 14 10.866 14 7C14 3.13404 10.866 0 7 0ZM7 1.22807C10.1881 1.22807 12.7719 3.81193 12.7719 7C12.7719 10.1881 10.1881 12.7719 7 12.7719C3.81193 12.7719 1.22807 10.1881 1.22807 7C1.22807 3.81193 3.81193 1.22807 7 1.22807Z" fill="#808994"/>
<path d="M7.00188 6.04639C7.42761 6.04639 7.64047 6.25925 7.64047 6.68498V10.0057C7.64047 10.4314 7.42761 10.6443 7.00188 10.6443C6.57615 10.6443 6.36328 10.4314 6.36328 10.0057V6.68498C6.36328 6.25925 6.57615 6.04639 7.00188 6.04639Z" fill="#808994"/>
<path d="M6.06641 4.28905C6.06641 4.53658 6.16474 4.77398 6.33977 4.94901C6.51481 5.12405 6.7522 5.22238 6.99974 5.22238C7.24728 5.22238 7.48467 5.12405 7.65971 4.94901C7.83474 4.77398 7.93307 4.53658 7.93307 4.28905C7.93307 4.04151 7.83474 3.80411 7.65971 3.62908C7.48467 3.45405 7.24728 3.35571 6.99974 3.35571C6.7522 3.35571 6.51481 3.45405 6.33977 3.62908C6.16474 3.80411 6.06641 4.04151 6.06641 4.28905Z" fill="#808994"/>
</svg>
