<svg width="20" height="20" viewBox="0 0 20 20" fill="none" xmlns="http://www.w3.org/2000/svg">
<g clip-path="url(#clip0_0_61381)">
<path d="M20 17.3019C20.0095 17.8312 19.8124 18.3432 19.4504 18.7295C19.2748 18.9131 19.0635 19.0588 18.8294 19.1577C18.5858 19.2618 18.3235 19.3152 18.0586 19.3148H2.06998C1.79831 19.3132 1.52942 19.2599 1.27768 19.1577C1.03063 19.0596 0.805146 18.9141 0.613871 18.7295C0.427733 18.5431 0.275552 18.3258 0.164189 18.0871C0.0551658 17.8422 -0.00079169 17.5771 1.2792e-05 17.3091V6.31691C-0.000930537 6.05325 0.0503087 5.79201 0.150771 5.54824C0.251233 5.30447 0.398944 5.08299 0.58538 4.89656C0.771815 4.71012 0.993283 4.56242 1.23705 4.46196C1.48082 4.3615 1.74206 4.31026 2.00572 4.3112H17.9943C18.258 4.31026 18.5192 4.3615 18.763 4.46196C19.0068 4.56242 19.2282 4.71012 19.4147 4.89656C19.6011 5.08299 19.7488 5.30447 19.8493 5.54824C19.9497 5.79201 20.001 6.05325 20 6.31691V9.31477H15.0036C14.7393 9.30773 14.4764 9.35476 14.2309 9.45295C13.9854 9.55114 13.7626 9.69843 13.576 9.88579C13.3853 10.0701 13.2353 10.2924 13.1357 10.5383C13.0361 10.7842 12.9892 11.0482 12.9979 11.3133C13.003 11.665 13.0859 12.0111 13.2406 12.3269C13.3696 12.61 13.5686 12.8556 13.8187 13.0407C14.1674 13.2685 14.5809 13.3762 14.9965 13.3476H19.9929L20 17.3019ZM17.0022 3.29051H7.0093C7.80159 2.88366 8.55105 2.48394 9.25769 2.10564L11.085 1.1349L12.5125 0.385435C12.9276 0.133012 13.4042 -0.000328519 13.8901 6.07818e-07C14.2395 0.0118444 14.5844 0.0817953 14.9108 0.206991C15.2266 0.367461 15.5098 0.585298 15.7459 0.849385L17.0022 3.29051ZM14.0114 11.2848C14.0105 11.1552 14.0353 11.0267 14.0845 10.9067C14.1337 10.7868 14.2062 10.6778 14.2978 10.5862C14.3895 10.4945 14.4985 10.422 14.6184 10.3728C14.7383 10.3237 14.8668 10.2988 14.9965 10.2998C15.1288 10.295 15.2606 10.3179 15.3835 10.3671C15.5065 10.4162 15.6177 10.4906 15.7102 10.5853C15.8061 10.677 15.8811 10.7881 15.9304 10.9112C15.9796 11.0343 16.0019 11.1666 15.9957 11.2991C15.998 11.431 15.9739 11.5622 15.9249 11.6847C15.8759 11.8073 15.8029 11.9188 15.7102 12.0128C15.6192 12.11 15.5083 12.1864 15.3852 12.2369C15.262 12.2874 15.1295 12.3108 14.9965 12.3055C14.8633 12.3117 14.7305 12.2888 14.6072 12.2382C14.4838 12.1876 14.3731 12.1107 14.2827 12.0128C14.19 11.9188 14.117 11.8073 14.068 11.6847C14.019 11.5622 13.9949 11.431 13.9972 11.2991L14.0114 11.2848Z" fill="#808994"/>
</g>
<defs>
<clipPath id="clip0_0_61381">
<rect width="19.8377" height="20" fill="white"/>
</clipPath>
</defs>
</svg>
