<svg width="66" height="66" viewBox="0 0 66 66" fill="none" xmlns="http://www.w3.org/2000/svg">
<g filter="url(#filter0_f_0_18533)">
<circle cx="33" cy="33" r="25" fill="#232B32"/>
</g>
<circle cx="33" cy="33" r="25" fill="#85D420"/>
<path d="M43.1561 37.4314H42.5366C42.2063 37.3661 41.9101 37.1907 41.6996 36.9357C41.489 36.6807 41.3774 36.3622 41.3842 36.0357L41.1681 29.0576C41.1926 27.0322 40.4324 25.0714 39.0376 23.5625C37.6427 22.0536 35.7146 21.1061 33.6339 20.9071V20.6141C33.6339 20.4512 33.5671 20.295 33.4482 20.1799C33.3293 20.0647 33.1681 20 33 20C32.8319 20 32.6707 20.0647 32.5518 20.1799C32.4329 20.295 32.3661 20.4512 32.3661 20.6141V20.9071C30.2854 21.1061 28.3573 22.0536 26.9624 23.5625C25.5676 25.0714 24.8074 27.0322 24.8319 29.0576L24.4574 36.0357C24.4864 36.3671 24.383 36.6967 24.1686 36.9564C23.9541 37.216 23.645 37.3861 23.3049 37.4314H22.8439C22.6292 37.3707 22.4029 37.3593 22.1829 37.3981C21.9628 37.4368 21.7551 37.5247 21.5762 37.6547C21.3973 37.7847 21.2521 37.9532 21.1521 38.147C21.0521 38.3408 21 38.5545 21 38.7712C21 38.9878 21.0521 39.2015 21.1521 39.3953C21.2521 39.5891 21.3973 39.7577 21.5762 39.8877C21.7551 40.0177 21.9628 40.1055 22.1829 40.1443C22.4029 40.1831 22.6292 40.1717 22.8439 40.111H43.1561C43.3708 40.1717 43.5971 40.1831 43.8171 40.1443C44.0372 40.1055 44.2449 40.0177 44.4238 39.8877C44.6027 39.7577 44.7479 39.5891 44.8479 39.3953C44.9479 39.2015 45 38.9878 45 38.7712C45 38.5545 44.9479 38.3408 44.8479 38.147C44.7479 37.9532 44.6027 37.7847 44.4238 37.6547C44.2449 37.5247 44.0372 37.4368 43.8171 37.3981C43.5971 37.3593 43.3708 37.3707 43.1561 37.4314Z" fill="white"/>
<path d="M30.5799 40.6554C30.5799 41.2772 30.8349 41.8736 31.2887 42.3133C31.7426 42.753 32.3582 43 33 43C33.6419 43 34.2575 42.753 34.7113 42.3133C35.1652 41.8736 35.4202 41.2772 35.4202 40.6554H30.5799Z" fill="white"/>
<circle cx="16" cy="13" r="7" fill="#F33636"/>
<defs>
<filter id="filter0_f_0_18533" x="0" y="0" width="66" height="66" filterUnits="userSpaceOnUse" color-interpolation-filters="sRGB">
<feFlood flood-opacity="0" result="BackgroundImageFix"/>
<feBlend mode="normal" in="SourceGraphic" in2="BackgroundImageFix" result="shape"/>
<feGaussianBlur stdDeviation="4" result="effect1_foregroundBlur_0_18533"/>
</filter>
</defs>
</svg>
