<svg width="15" height="16" viewBox="0 0 15 16" fill="none" xmlns="http://www.w3.org/2000/svg">
<g opacity="0.8">
<path fill-rule="evenodd" clip-rule="evenodd" d="M1.83193 15.3093C1.83193 14.7905 3.09501 14.1063 5.44073 13.8507C5.74147 13.8206 5.96702 13.5725 5.96702 13.2718V12.2794C5.96702 12.0764 5.86176 11.8884 5.69636 11.7832H5.68884C4.29043 10.896 4.17765 9.054 4.17765 7.12931C4.17765 5.19709 5.13248 4.2197 7.01959 4.2197H7.15492C9.04202 4.2197 10.0044 5.19709 10.0044 7.12931C10.0044 7.30223 10.0044 7.48267 9.99685 7.67063C9.98934 7.99392 10.2374 8.25706 10.5682 8.26458C10.8915 8.2721 11.1547 8.02399 11.1622 7.7007C11.1697 7.50522 11.1697 7.31727 11.1697 7.12931C11.1697 4.57307 9.67356 3.05436 7.16244 3.05436H7.01959C4.50846 3.05436 3.01231 4.58059 3.01231 7.12931C3.01231 8.67057 3.01231 11.2118 4.80167 12.5801V12.753C2.16273 13.1214 0.666582 14.0387 0.666582 15.3093C0.666582 15.6326 0.929724 15.8882 1.25301 15.8882C1.56878 15.8882 1.83193 15.625 1.83193 15.3093Z" fill="#478A03" stroke="#478A03" stroke-width="0.2"/>
<path fill-rule="evenodd" clip-rule="evenodd" d="M7.12602 9.88509C7.05836 10.1858 7.23128 10.479 7.52449 10.5617C7.53953 10.5693 8.141 10.652 8.94546 10.652C10.3138 10.652 12.2761 10.4114 12.8851 9.14077C13.0279 8.85508 12.9001 8.50171 12.6069 8.36638C12.3212 8.22354 11.9678 8.35135 11.8325 8.63704C11.4416 9.44903 9.22364 9.58436 7.76508 9.42647C7.46435 9.3964 7.18617 9.59188 7.12602 9.88509Z" fill="#478A03" stroke="#478A03" stroke-width="0.2"/>
<path d="M9.43473 12.7605V12.2794C9.43473 11.9561 9.17158 11.6929 8.85581 11.6929C8.53252 11.6929 8.26938 11.9486 8.26938 12.2794V13.2793C8.26938 13.5725 8.49493 13.8281 8.79567 13.8582C11.1414 14.1063 12.4045 14.7905 12.4045 15.3093C12.4045 15.6325 12.6676 15.8957 12.9909 15.8957C13.3142 15.8957 13.5698 15.6325 13.5698 15.3093C13.5698 14.0387 12.0737 13.1214 9.43473 12.7605Z" fill="#478A03"/>
<path d="M12.9834 15.8944H12.9909H12.9834Z" fill="#478A03"/>
<path d="M9.43473 12.7605H9.33044V12.8515L9.4206 12.8639L9.43473 12.7605ZM8.79567 13.8582L8.80664 13.7545L8.80604 13.7544L8.79567 13.8582ZM9.43473 12.7605H9.53902V12.2794H9.43473H9.33044V12.7605H9.43473ZM9.43473 12.2794H9.53902C9.53902 11.8994 9.23005 11.5886 8.85581 11.5886V11.6929V11.7972C9.11311 11.7972 9.33044 12.0128 9.33044 12.2794H9.43473ZM8.85581 11.6929V11.5886C8.4758 11.5886 8.16509 11.8901 8.16509 12.2794H8.26938H8.37367C8.37367 12.007 8.58925 11.7972 8.85581 11.7972V11.6929ZM8.26938 12.2794H8.16509V13.2793H8.26938H8.37367V12.2794H8.26938ZM8.26938 13.2793H8.16509C8.16509 13.6257 8.43082 13.9265 8.78529 13.962L8.79567 13.8582L8.80604 13.7544C8.55904 13.7297 8.37367 13.5194 8.37367 13.2793H8.26938ZM8.79567 13.8582L8.7847 13.9619C9.95062 14.0852 10.8416 14.3164 11.4379 14.5778C11.7364 14.7086 11.9565 14.845 12.1003 14.9757C12.2462 15.1083 12.3002 15.2224 12.3002 15.3093H12.4045H12.5088C12.5088 15.1367 12.4049 14.9707 12.2406 14.8214C12.0743 14.6702 11.8321 14.5228 11.5216 14.3867C10.8999 14.1142 9.98644 13.8793 8.80664 13.7545L8.79567 13.8582ZM12.4045 15.3093H12.3002C12.3002 15.6901 12.61 16 12.9909 16V15.8957V15.7914C12.7252 15.7914 12.5088 15.575 12.5088 15.3093H12.4045ZM12.9909 15.8957V16C13.3735 16 13.6741 15.6884 13.6741 15.3093H13.5698H13.4655C13.4655 15.5767 13.2548 15.7914 12.9909 15.7914V15.8957ZM13.5698 15.3093H13.6741C13.6741 14.6257 13.2694 14.0498 12.5465 13.6049C11.8253 13.161 10.7754 12.8386 9.44886 12.6572L9.43473 12.7605L9.4206 12.8639C10.733 13.0433 11.7507 13.36 12.4372 13.7826C13.1222 14.2042 13.4655 14.7222 13.4655 15.3093H13.5698ZM12.9834 15.8944V15.9987H12.9909V15.8944V15.7901H12.9834V15.8944ZM12.9909 15.8944V15.7901H12.9834V15.8944V15.9987H12.9909V15.8944Z" fill="#478A03"/>
<path d="M4.80422 12.5811V12.754C2.16528 13.1224 0.669128 14.0397 0.669128 15.3103C0.669128 15.6336 0.93227 15.8892 1.25556 15.8892C1.57133 15.8892 1.83447 15.6261 1.83447 15.3103C1.83447 14.7915 3.09755 14.0998 5.44328 13.8517C5.74401 13.8217 5.96956 13.5736 5.96956 13.2728V12.2804C5.96956 12.0774 5.86431 11.8894 5.6989 11.7842C4.30049 10.8895 4.1802 8.99488 4.1802 7.13032C4.1802 5.26577 5.14255 4.22072 7.02965 4.22072H7.02213H7.02965H7.15746C9.04457 4.22072 10.0069 5.19811 10.0069 7.13032C10.0069 7.31076 10.0069 7.48369 9.9994 7.67165C9.99188 7.99493 10.24 8.25808 10.5708 8.2656C10.8941 8.28063 11.1572 8.02501 11.1647 7.70172C11.1723 7.50624 11.1723 7.31828 11.1723 7.13032C11.1723 4.5816 9.67611 3.05538 7.16498 3.05538H7.02213C4.511 3.05538 3.01485 4.57409 3.01485 7.13032C3.01485 8.67159 3.01485 11.2128 4.80422 12.5811Z" fill="#478A03"/>
<path d="M7.02968 4.22219H7.02216H7.02968Z" fill="#478A03"/>
<path d="M4.80422 12.5811H4.90851V12.5296L4.86757 12.4983L4.80422 12.5811ZM4.80422 12.754L4.81864 12.8573L4.90851 12.8448V12.754H4.80422ZM5.44328 13.8517L5.4329 13.748L5.43231 13.748L5.44328 13.8517ZM5.6989 11.7842L5.6427 11.872L5.64291 11.8722L5.6989 11.7842ZM9.9994 7.67165L9.89518 7.66748L9.89514 7.66922L9.9994 7.67165ZM10.5708 8.2656L10.5756 8.16139L10.5732 8.16133L10.5708 8.2656ZM11.1647 7.70172L11.0605 7.69771L11.0605 7.69929L11.1647 7.70172ZM4.80422 12.5811H4.69993V12.754H4.80422H4.90851V12.5811H4.80422ZM4.80422 12.754L4.7898 12.6508C3.46332 12.8359 2.41353 13.1602 1.69232 13.6051C0.96955 14.0509 0.564838 14.6267 0.564838 15.3103H0.669128H0.773418C0.773418 14.7233 1.11678 14.2052 1.80182 13.7826C2.48842 13.3591 3.50618 13.0406 4.81864 12.8573L4.80422 12.754ZM0.669128 15.3103H0.564838C0.564838 15.6929 0.876436 15.9935 1.25556 15.9935V15.8892V15.7849C0.988105 15.7849 0.773418 15.5742 0.773418 15.3103H0.669128ZM1.25556 15.8892V15.9935C1.62893 15.9935 1.93876 15.6837 1.93876 15.3103H1.83447H1.73018C1.73018 15.5685 1.51373 15.7849 1.25556 15.7849V15.8892ZM1.83447 15.3103H1.93876C1.93876 15.2234 1.99288 15.1088 2.13883 14.9754C2.28265 14.844 2.50286 14.7067 2.80134 14.5749C3.39754 14.3118 4.28845 14.0787 5.45425 13.9554L5.44328 13.8517L5.43231 13.748C4.25239 13.8728 3.33889 14.1097 2.71712 14.3841C2.40661 14.5211 2.16445 14.6695 1.99814 14.8214C1.83395 14.9714 1.73018 15.1378 1.73018 15.3103H1.83447ZM5.44328 13.8517L5.45366 13.9555C5.80728 13.9201 6.07385 13.6276 6.07385 13.2728H5.96956H5.86527C5.86527 13.5195 5.68074 13.7232 5.4329 13.748L5.44328 13.8517ZM5.96956 13.2728H6.07385V12.2804H5.96956H5.86527V13.2728H5.96956ZM5.96956 12.2804H6.07385C6.07385 12.0417 5.95033 11.8206 5.75489 11.6962L5.6989 11.7842L5.64291 11.8722C5.77829 11.9583 5.86527 12.1131 5.86527 12.2804H5.96956ZM5.6989 11.7842L5.75511 11.6963C5.0858 11.2681 4.71727 10.5985 4.51632 9.79563C4.31486 8.99075 4.28449 8.06244 4.28449 7.13032H4.1802H4.07591C4.07591 8.06276 4.10568 9.01404 4.31398 9.84628C4.52277 10.6805 4.91359 11.4056 5.6427 11.872L5.6989 11.7842ZM4.1802 7.13032H4.28449C4.28449 6.21493 4.52061 5.51736 4.97235 5.04869C5.42345 4.58069 6.10496 4.32501 7.02965 4.32501V4.22072V4.11643C6.06723 4.11643 5.32402 4.38328 4.82217 4.90394C4.32095 5.42394 4.07591 6.18117 4.07591 7.13032H4.1802ZM7.02965 4.22072V4.11643H7.02213V4.22072V4.32501H7.02965V4.22072ZM7.02213 4.22072V4.32501H7.02965V4.22072V4.11643H7.02213V4.22072ZM7.02965 4.22072V4.32501H7.15746V4.22072V4.11643H7.02965V4.22072ZM7.15746 4.22072V4.32501C8.084 4.32501 8.76508 4.56477 9.21539 5.02396C9.66606 5.48352 9.90263 6.18019 9.90263 7.13032H10.0069H10.1112C10.1112 6.14824 9.8666 5.39011 9.36432 4.87792C8.86168 4.36537 8.11803 4.11643 7.15746 4.11643V4.22072ZM10.0069 7.13032H9.90263C9.90263 7.311 9.90262 7.48191 9.89519 7.66748L9.9994 7.67165L10.1036 7.67581C10.1112 7.48546 10.1112 7.31053 10.1112 7.13032H10.0069ZM9.9994 7.67165L9.89514 7.66922C9.88628 8.05023 10.1801 8.36103 10.5684 8.36986L10.5708 8.2656L10.5732 8.16133C10.2998 8.15512 10.0975 7.93964 10.1037 7.67407L9.9994 7.67165ZM10.5708 8.2656L10.5659 8.36977C10.9502 8.38764 11.2602 8.08347 11.269 7.70414L11.1647 7.70172L11.0605 7.69929C11.0543 7.96654 10.838 8.17362 10.5756 8.16142L10.5708 8.2656ZM11.1647 7.70172L11.269 7.70573C11.2766 7.50793 11.2766 7.31801 11.2766 7.13032H11.1723H11.068C11.068 7.31856 11.068 7.50455 11.0605 7.69771L11.1647 7.70172ZM11.1723 7.13032H11.2766C11.2766 5.83568 10.8962 4.78815 10.1847 4.06399C9.47293 3.33959 8.44186 2.95109 7.16498 2.95109V3.05538V3.15967C8.39923 3.15967 9.37181 3.53428 10.0359 4.21017C10.7002 4.8863 11.068 5.87625 11.068 7.13032H11.1723ZM7.16498 3.05538V2.95109H7.02213V3.05538V3.15967H7.16498V3.05538ZM7.02213 3.05538V2.95109C5.7454 2.95109 4.71431 3.33762 4.00248 4.06112C3.29086 4.7844 2.91056 5.83199 2.91056 7.13032H3.01485H3.11914C3.11914 5.87242 3.48692 4.88254 4.15116 4.2074C4.81519 3.53249 5.78774 3.15967 7.02213 3.15967V3.05538ZM3.01485 7.13032H2.91056C2.91056 7.89974 2.9102 8.93149 3.13675 9.94336C3.36354 10.9563 3.81989 11.9597 4.74087 12.664L4.80422 12.5811L4.86757 12.4983C3.99918 11.8342 3.56085 10.8829 3.34029 9.89779C3.11951 8.91166 3.11914 7.90217 3.11914 7.13032H3.01485ZM7.02968 4.22219V4.1179H7.02216V4.22219V4.32648H7.02968V4.22219ZM7.02216 4.22219V4.32648H7.02968V4.22219V4.1179H7.02216V4.22219Z" fill="#478A03"/>
<path fill-rule="evenodd" clip-rule="evenodd" d="M8.27142 13.2752C8.27142 13.5684 8.49697 13.8241 8.7977 13.8541C11.1434 14.1023 12.4065 14.7864 12.4065 15.3052C12.4065 15.6285 12.6697 15.8916 12.9929 15.8916C13.3162 15.8916 13.5719 15.6285 13.5719 15.3052C13.5719 14.0346 12.0757 13.1173 9.43676 12.7565V12.2753C9.43676 11.9445 9.17362 11.6889 8.85785 11.6889C8.53456 11.6889 8.27142 11.952 8.27142 12.2753V13.2752Z" fill="#478A03" stroke="#478A03" stroke-width="0.2"/>
<path fill-rule="evenodd" clip-rule="evenodd" d="M12.611 8.3674C12.3178 8.22455 11.9719 8.35237 11.8366 8.63806C11.4456 9.45005 9.2202 9.59289 7.76915 9.42749C7.4609 9.39742 7.19024 9.59289 7.13009 9.89363C7.06243 10.1868 7.23535 10.4801 7.52857 10.5703C7.5436 10.5703 8.14507 10.653 8.94954 10.653C10.3179 10.653 12.2802 10.4124 12.8892 9.14931V9.14179C13.032 8.8561 12.9042 8.50273 12.611 8.3674Z" fill="#478A03" stroke="#478A03" stroke-width="0.2"/>
<path fill-rule="evenodd" clip-rule="evenodd" d="M0.104392 6.96062V9.48678C0.119429 9.79504 0.375053 10.0431 0.683305 10.0431L0.690823 10.0356C1.01411 10.0356 1.26974 9.78 1.26974 9.45671V7.29894L1.61558 7.05836C1.76595 6.94558 1.85617 6.77266 1.85617 6.5847C1.85617 3.65254 4.21693 1.26923 7.11149 1.26923C10.0136 1.26923 12.3668 3.65254 12.3668 6.5847C12.3668 6.82529 12.5247 7.05084 12.7578 7.13354L13.5397 7.41172V9.45671C13.5397 9.78 13.8028 10.0356 14.1261 10.0356C14.4494 10.0356 14.705 9.78 14.705 9.45671V6.99821C14.705 6.75762 14.5471 6.53207 14.3216 6.44937L13.5246 6.17119C13.3141 2.78793 10.5173 0.103883 7.11149 0.103883C3.70568 0.103883 0.856227 2.84808 0.690823 6.28397L0.344979 6.53207C0.202131 6.62981 0.119429 6.7877 0.104392 6.96062Z" fill="#478A03" stroke="#478A03" stroke-width="0.2"/>
</g>
</svg>
