<svg width="70" height="62" viewBox="0 0 70 62" fill="none" xmlns="http://www.w3.org/2000/svg">
<g opacity="0.3">
<path d="M49.8572 30.0001L44.6188 30L35.8113 36.6791C35.5873 36.8489 35.2936 36.9336 35 36.9333C34.7065 36.9336 34.4128 36.8489 34.1888 36.6791L25.3813 30L20.1429 30C19.5117 30 19 30.388 19 30.8667L19.0001 30.868C19.0001 31.0901 19.1118 31.3123 19.3354 31.4818L34.1888 42.7458C34.4128 42.9156 34.7065 43.0004 35 43C35.2936 43.0004 35.5873 42.9156 35.8113 42.7458L50.6647 31.4818C51.1117 31.1429 51.1117 30.5933 50.6647 30.2543C50.4417 30.0852 50.1495 30.0005 49.8572 30.0001Z" fill="white"/>
<path d="M49.8633 25.5C50.8949 25.5014 52.0928 25.7743 53.1699 26.5146L53.3838 26.6689C54.5639 27.5639 55.5 29.0428 55.5 30.8682C55.5 32.5792 54.6775 33.986 53.6025 34.8926L53.3838 35.0674L38.5303 46.3311C37.3957 47.1914 36.1001 47.5012 34.9951 47.5C33.8923 47.4994 32.6009 47.1889 31.4697 46.3311L16.6162 35.0674L16.3984 34.8926C15.3752 34.0299 14.5833 32.7143 14.5088 31.1143C14.5043 31.0326 14.501 30.9509 14.501 30.8691L14.5 30.8672L14.501 30.8682L14.5 30.8662C14.5002 28.9146 15.5539 27.4729 16.6152 26.668C17.6736 25.8654 18.9358 25.5001 20.1426 25.5L25.3809 25.5L25.748 25.5146C26.4776 25.5743 27.1815 25.8118 27.7988 26.2051L28.1006 26.4141L35 31.6475L41.8994 26.4141L42.2012 26.2051C42.9215 25.7462 43.76 25.5 44.6191 25.5L49.8633 25.5Z" stroke="white" stroke-opacity="0.6" stroke-width="9" stroke-linejoin="round"/>
<path d="M49.8572 19.0001L44.6188 19L35.8113 25.6791C35.5873 25.8489 35.2936 25.9336 35 25.9333C34.7065 25.9336 34.4128 25.8489 34.1888 25.6791L25.3813 19L20.1429 19C19.5117 19 19 19.388 19 19.8667L19.0001 19.868C19.0001 20.0901 19.1118 20.3123 19.3354 20.4818L34.1888 31.7458C34.4128 31.9156 34.7065 32.0004 35 32C35.2936 32.0004 35.5873 31.9156 35.8113 31.7458L50.6647 20.4818C51.1117 20.1429 51.1117 19.5933 50.6647 19.2543C50.4417 19.0852 50.1495 19.0005 49.8572 19.0001Z" fill="white"/>
<path d="M49.8633 14.5C50.8949 14.5014 52.0928 14.7743 53.1699 15.5146L53.3838 15.6689C54.5639 16.5639 55.5 18.0428 55.5 19.8682C55.5 21.5792 54.6775 22.986 53.6025 23.8926L53.3838 24.0674L38.5303 35.3311C37.3957 36.1914 36.1001 36.5012 34.9951 36.5C33.8923 36.4994 32.6009 36.1889 31.4697 35.3311L16.6162 24.0674L16.3984 23.8926C15.3752 23.0299 14.5833 21.7143 14.5088 20.1143C14.5043 20.0326 14.501 19.9509 14.501 19.8691L14.5 19.8672L14.501 19.8682L14.5 19.8662C14.5002 17.9146 15.5539 16.4729 16.6152 15.668C17.6736 14.8654 18.9358 14.5001 20.1426 14.5L25.3809 14.5L25.748 14.5146C26.4776 14.5743 27.1815 14.8118 27.7988 15.2051L28.1006 15.4141L35 20.6475L41.8994 15.4141L42.2012 15.2051C42.9215 14.7462 43.76 14.5 44.6191 14.5L49.8633 14.5Z" stroke="white" stroke-opacity="0.6" stroke-width="9" stroke-linejoin="round"/>
</g>
<g filter="url(#filter0_d_0_4211)">
<path d="M49.8574 29.5L50.002 29.5059C50.2913 29.527 50.5852 29.6114 50.8418 29.7705L50.9668 29.8555C51.2966 30.1056 51.5 30.4679 51.5 30.8682C51.5 31.2185 51.3439 31.539 51.084 31.7813L50.9668 31.8799L36.1133 43.1445C35.7882 43.391 35.3826 43.5005 34.999 43.5C34.6159 43.5002 34.2114 43.3907 33.8867 43.1445L19.0332 31.8799L18.916 31.7812C18.6663 31.5485 18.5146 31.2434 18.5029 30.9092L18.502 30.9092L18.502 30.9082L18.5 30.8877L18.5 30.8662C18.5002 30.4369 18.7307 30.0842 19.0322 29.8555C19.3336 29.6269 19.7281 29.5001 20.1426 29.5L25.5498 29.5L25.6836 29.6016L34.4912 36.2803C34.6139 36.3733 34.7958 36.4338 34.999 36.4336L35.001 36.4336C35.2042 36.4338 35.3861 36.3733 35.5088 36.2803L44.3164 29.6016L44.4502 29.5L49.8574 29.5Z" fill="white" stroke="#3F3F3F"/>
<path d="M49.8574 18.5L50.002 18.5059C50.2913 18.527 50.5852 18.6114 50.8418 18.7705L50.9668 18.8555C51.2966 19.1056 51.5 19.4679 51.5 19.8682C51.5 20.2185 51.3439 20.539 51.084 20.7813L50.9668 20.8799L36.1133 32.1445C35.7882 32.391 35.3826 32.5005 34.999 32.5C34.6159 32.5002 34.2114 32.3907 33.8867 32.1445L19.0332 20.8799L18.916 20.7812C18.6663 20.5485 18.5146 20.2434 18.5029 19.9092L18.502 19.9092L18.502 19.9082L18.5 19.8877L18.5 19.8662C18.5002 19.4369 18.7307 19.0842 19.0322 18.8555C19.3336 18.6269 19.7281 18.5001 20.1426 18.5L25.5498 18.5L25.6836 18.6016L34.4912 25.2803C34.6139 25.3733 34.7958 25.4338 34.999 25.4336L35.001 25.4336C35.2042 25.4338 35.3861 25.3733 35.5088 25.2803L44.3164 18.6016L44.4502 18.5L49.8574 18.5Z" fill="white" stroke="#3F3F3F"/>
</g>
<defs>
<filter id="filter0_d_0_4211" x="0" y="0" width="70" height="62" filterUnits="userSpaceOnUse" color-interpolation-filters="sRGB">
<feFlood flood-opacity="0" result="BackgroundImageFix"/>
<feColorMatrix in="SourceAlpha" type="matrix" values="0 0 0 0 0 0 0 0 0 0 0 0 0 0 0 0 0 0 127 0" result="hardAlpha"/>
<feOffset/>
<feGaussianBlur stdDeviation="9"/>
<feComposite in2="hardAlpha" operator="out"/>
<feColorMatrix type="matrix" values="0 0 0 0 1 0 0 0 0 1 0 0 0 0 1 0 0 0 0.6 0"/>
<feBlend mode="normal" in2="BackgroundImageFix" result="effect1_dropShadow_0_4211"/>
<feBlend mode="normal" in="SourceGraphic" in2="effect1_dropShadow_0_4211" result="shape"/>
</filter>
</defs>
</svg>
