<svg width="14" height="14" viewBox="0 0 14 14" fill="none" xmlns="http://www.w3.org/2000/svg">
<path d="M6.99605 0C5.14058 0 3.36111 0.737496 2.0491 2.05025C0.737082 3.363 0 5.14351 0 7.00003C0 8.85654 0.737082 10.637 2.0491 11.9498C3.36111 13.2625 5.14058 14 6.99605 14C8.85224 14 10.6325 13.2628 11.9458 11.9502C13.2591 10.6377 13.9979 8.85727 14 7.00003C13.9979 5.14279 13.2591 3.3623 11.9458 2.04977C10.6325 0.73724 8.85224 -1.18296e-06 6.99605 0ZM7.98419 11.026C7.98419 11.2819 7.88258 11.5274 7.70172 11.7083C7.52085 11.8893 7.27555 11.991 7.01976 11.991H6.94862C6.69284 11.991 6.44753 11.8893 6.26667 11.7083C6.0858 11.5274 5.98419 11.2819 5.98419 11.026V10.9548C5.98419 10.6989 6.0858 10.4535 6.26667 10.2725C6.44753 10.0915 6.69284 9.98983 6.94862 9.98983H7.01976C7.27555 9.98983 7.52085 10.0915 7.70172 10.2725C7.88258 10.4535 7.98419 10.6989 7.98419 10.9548V11.026ZM7.98419 8.01243C7.98212 8.27192 7.87819 8.52017 7.6948 8.70365C7.51142 8.88714 7.26329 8.99115 7.00395 8.99322H6.96443C6.70509 8.99115 6.45696 8.88714 6.27358 8.70365C6.0902 8.52017 5.98626 8.27192 5.98419 8.01243V2.97402C5.98626 2.71454 6.0902 2.46629 6.27358 2.2828C6.45696 2.09931 6.70509 1.9953 6.96443 1.99324H7.00395C7.26329 1.9953 7.51142 2.09931 7.6948 2.2828C7.87819 2.46629 7.98212 2.71454 7.98419 2.97402V8.01243Z" fill="#85D420"/>
</svg>
