<svg width="20" height="20" viewBox="0 0 20 20" fill="none" xmlns="http://www.w3.org/2000/svg">
<path d="M19.4575 7.86015H17.7818C17.6014 7.19875 17.3381 6.56284 16.9982 5.96747L18.2037 4.76192C18.2518 4.71478 18.2901 4.6585 18.3162 4.5964C18.3423 4.5343 18.3557 4.4676 18.3557 4.40023C18.3557 4.33287 18.3423 4.26621 18.3162 4.20411C18.2901 4.142 18.2518 4.08573 18.2037 4.03859L15.9614 1.77215C15.9132 1.72368 15.8559 1.6852 15.7928 1.65895C15.7297 1.6327 15.6621 1.61918 15.5937 1.61918C15.5254 1.61918 15.4577 1.6327 15.3946 1.65895C15.3315 1.6852 15.2742 1.72368 15.226 1.77215L14.0205 2.9777C13.4261 2.63579 12.7899 2.3724 12.1278 2.1941V0.518376C12.1278 0.380892 12.0732 0.24905 11.976 0.151834C11.8787 0.0546177 11.7469 0 11.6094 0H8.39059C8.32251 0 8.25511 0.0134248 8.19221 0.039476C8.12932 0.0655273 8.07218 0.103697 8.02405 0.151834C7.97591 0.19997 7.9377 0.257109 7.91165 0.320002C7.8856 0.382896 7.87221 0.450301 7.87221 0.518376V2.1941C7.21082 2.37453 6.57487 2.63781 5.9795 2.9777L4.77395 1.77215C4.72681 1.72404 4.67053 1.68582 4.60843 1.65972C4.54633 1.63363 4.47966 1.62017 4.4123 1.62017C4.34494 1.62017 4.27824 1.63363 4.21614 1.65972C4.15403 1.68582 4.09776 1.72404 4.05062 1.77215L1.77215 4.05062C1.72404 4.09776 1.68582 4.15403 1.65972 4.21614C1.63363 4.27824 1.62017 4.34494 1.62017 4.4123C1.62017 4.47966 1.63363 4.54633 1.65972 4.60843C1.68582 4.67053 1.72404 4.72681 1.77215 4.77395L2.9777 5.9795C2.63781 6.57487 2.3745 7.21082 2.19407 7.87221H0.518376C0.380892 7.87221 0.24905 7.92683 0.151834 8.02405C0.0546177 8.12126 0 8.2531 0 8.39059V11.6094C0 11.7469 0.0546177 11.8787 0.151834 11.976C0.24905 12.0732 0.380892 12.1278 0.518376 12.1278H2.19407C2.37236 12.7899 2.63579 13.4261 2.9777 14.0205L1.77215 15.226C1.72368 15.2742 1.6852 15.3315 1.65895 15.3946C1.6327 15.4577 1.61918 15.5254 1.61918 15.5937C1.61918 15.6621 1.6327 15.7297 1.65895 15.7928C1.6852 15.8559 1.72368 15.9132 1.77215 15.9614L4.05062 18.2278C4.09776 18.276 4.15403 18.3142 4.21614 18.3403C4.27824 18.3664 4.34494 18.3798 4.4123 18.3798C4.47966 18.3798 4.54633 18.3664 4.60843 18.3403C4.67053 18.3142 4.72681 18.276 4.77395 18.2278L5.9795 17.0223C6.57487 17.3622 7.21082 17.6255 7.87221 17.8059V19.4816C7.87221 19.5497 7.8856 19.6171 7.91165 19.68C7.9377 19.7429 7.97591 19.8 8.02405 19.8482C8.07218 19.8963 8.12932 19.9345 8.19221 19.9606C8.25511 19.9866 8.32251 20 8.39059 20H11.6094C11.7469 20 11.8787 19.9454 11.976 19.8482C12.0732 19.7509 12.1278 19.6191 12.1278 19.4816V17.7818C12.7899 17.6035 13.4261 17.3401 14.0205 16.9982L15.226 18.2037C15.2742 18.2522 15.3315 18.2907 15.3946 18.317C15.4577 18.3432 15.5254 18.3567 15.5937 18.3567C15.6621 18.3567 15.7297 18.3432 15.7928 18.317C15.8559 18.2907 15.9132 18.2522 15.9614 18.2037L18.2278 15.9373C18.2763 15.8891 18.3148 15.8318 18.3411 15.7687C18.3673 15.7056 18.3808 15.638 18.3808 15.5696C18.3808 15.5013 18.3673 15.4336 18.3411 15.3705C18.3148 15.3074 18.2763 15.2501 18.2278 15.2019L17.0223 13.9964C17.3642 13.402 17.6276 12.7658 17.8059 12.1037H19.4816C19.6191 12.1037 19.7509 12.0491 19.8482 11.9519C19.9454 11.8546 20 11.7228 20 11.5853V8.37856C20.0001 8.3084 19.9859 8.23896 19.9584 8.17445C19.9308 8.10993 19.8905 8.05165 19.8397 8.00319C19.789 7.95472 19.729 7.91707 19.6633 7.89248C19.5976 7.8679 19.5276 7.85688 19.4575 7.86015ZM14.4424 9.99399C14.4295 10.4033 14.3605 10.8089 14.2375 11.1995C14.1524 11.4986 14.0309 11.786 13.8758 12.0555C13.4686 12.812 12.8482 13.4324 12.0916 13.8397C11.8222 13.9948 11.5347 14.1163 11.2357 14.2013C10.8257 14.3299 10.3994 14.399 9.96985 14.4063C9.56036 14.3951 9.1545 14.326 8.7643 14.2013C8.46143 14.1163 8.16997 13.9949 7.89631 13.8397C7.13972 13.4324 6.51932 12.812 6.11209 12.0555C5.96701 11.7811 5.84601 11.4948 5.75044 11.1995C5.6274 10.8089 5.55843 10.4033 5.54548 9.99399C5.55092 9.56424 5.62 9.13765 5.75044 8.72814C5.84593 8.42899 5.96691 8.13859 6.11209 7.86015C6.51932 7.10356 7.13972 6.48319 7.89631 6.07596C8.17476 5.93078 8.46515 5.80976 8.7643 5.71428C9.1545 5.58956 9.56036 5.52059 9.96985 5.50935C10.3994 5.51668 10.8257 5.58568 11.2357 5.71428C11.5309 5.80985 11.8173 5.93088 12.0916 6.07596C12.8482 6.48319 13.4686 7.10356 13.8758 7.86015C14.031 8.1338 14.1524 8.42526 14.2375 8.72814C14.3679 9.13765 14.437 9.56424 14.4424 9.99399Z" fill="#808994"/>
</svg>
