<svg width="20" height="20" viewBox="0 0 20 20" fill="none" xmlns="http://www.w3.org/2000/svg">
<g clip-path="url(#clip0_0_34557)">
<path d="M10 19.9881C7.34881 19.9849 4.8071 18.9303 2.93242 17.0557C1.05773 15.181 0.00315431 12.6393 0 9.98809C0.0063056 7.33896 1.06228 4.8003 2.93662 2.9282C4.81096 1.05609 7.35087 0.00314623 10 0C12.6501 -1.88238e-06 15.1918 1.05192 17.0669 2.9247C18.9419 4.79749 19.9968 7.33799 20 9.98809C20 12.6403 18.9464 15.1838 17.0711 17.0591C15.1957 18.9345 12.6522 19.9881 10 19.9881ZM10 1.1919C7.66698 1.19504 5.43023 2.12239 3.77941 3.77098C2.1286 5.41956 1.1982 7.65507 1.1919 9.98809C1.19505 12.3232 2.12406 14.5617 3.77521 16.2129C5.42637 17.864 7.66492 18.793 10 18.7962C12.3361 18.7962 14.5764 17.8682 16.2283 16.2164C17.8801 14.5645 18.8081 12.3241 18.8081 9.98809C18.8049 7.6541 17.8756 5.41678 16.2241 3.76752C14.5726 2.11826 12.334 1.19189 10 1.1919Z" fill="#25282D"/>
<path d="M12.3595 4.83908C12.6469 5.09735 12.873 5.41645 13.0214 5.77315C13.1699 6.12986 13.2369 6.51519 13.2177 6.90107C13.2412 7.53251 13.0524 8.15359 12.6813 8.66505C12.5383 8.83191 12.1211 9.21334 11.4894 9.79736C11.2421 9.98432 11.0454 10.2302 10.9173 10.5125C10.7737 10.8012 10.7002 11.1197 10.7028 11.4422V12.6341H9.01029V11.4422C8.992 10.9573 9.09009 10.475 9.29635 10.0358C9.75088 9.34182 10.319 8.72934 10.9769 8.22405L11.1438 8.02145C11.3877 7.74004 11.5229 7.38072 11.5252 7.00833C11.5442 6.59802 11.4032 6.19635 11.1319 5.88795C10.971 5.74318 10.7824 5.63261 10.5775 5.56295C10.3726 5.49329 10.1557 5.46599 9.93997 5.48271C9.68319 5.45801 9.42438 5.49985 9.18848 5.60424C8.95258 5.70862 8.74754 5.87201 8.59313 6.07866C8.32858 6.4936 8.20332 6.98211 8.23556 7.47315H6.6265C6.60032 7.01617 6.66944 6.55875 6.82948 6.12991C6.98953 5.70107 7.237 5.31019 7.55618 4.9821C7.89376 4.67531 8.28873 4.43838 8.71831 4.28496C9.1479 4.13154 9.60361 4.06465 10.0592 4.08818C10.8935 4.03712 11.716 4.30561 12.3595 4.83908Z" fill="#25282D"/>
<path d="M10.6439 13.6945C10.8453 13.9018 10.9566 14.1803 10.9538 14.4693C10.9588 14.6157 10.9327 14.7615 10.8772 14.8971C10.8217 15.0326 10.7382 15.1549 10.632 15.2559C10.5269 15.3549 10.4034 15.4322 10.2684 15.4833C10.1334 15.5345 9.98963 15.5584 9.84535 15.5539C9.70024 15.5568 9.55599 15.531 9.42095 15.4778C9.28592 15.4246 9.16279 15.3451 9.0587 15.244C8.95284 15.1453 8.86934 15.0251 8.81383 14.8915C8.75832 14.7579 8.73209 14.6139 8.73689 14.4693C8.73285 14.3247 8.75944 14.181 8.8149 14.0474C8.87037 13.9139 8.95345 13.7936 9.0587 13.6945C9.27599 13.5029 9.55563 13.3969 9.84535 13.3965C10.1392 13.394 10.4236 13.5001 10.6439 13.6945Z" fill="#25282D"/>
</g>
<defs>
<clipPath id="clip0_0_34557">
<rect width="20" height="20" fill="white"/>
</clipPath>
</defs>
</svg>
