<svg width="20" height="20" viewBox="0 0 20 20" fill="none" xmlns="http://www.w3.org/2000/svg">
<path d="M14.9888 1.04053C15.3838 1.04053 15.6688 1.04053 15.9176 1.08803C17.0176 1.29553 17.8738 2.16178 18.0801 3.26303C18.1263 3.51303 18.1263 3.79803 18.1251 4.19678V4.37928C18.1276 4.66178 18.1301 4.94553 18.0938 5.22553C18.0272 5.76133 17.8525 6.27802 17.5803 6.74429C17.308 7.21055 16.9439 7.61667 16.5101 7.93803C16.3088 8.08553 16.0801 8.21303 15.7251 8.41303L13.5163 9.64803C12.7476 10.078 12.1326 10.423 11.6013 10.6555C11.429 10.7325 11.2529 10.8009 11.0738 10.8605C11.1238 10.9368 11.1701 11.0168 11.2088 11.098L11.8663 12.423C11.8901 12.4505 11.9213 12.4705 11.9538 12.4868L13.1413 12.6868C13.6338 12.7693 14.1501 13.0293 14.3238 13.5743C14.4963 14.1168 14.2276 14.6293 13.8738 14.9843L12.9513 15.9143C12.9301 15.9508 12.9185 15.9921 12.9176 16.0343L13.1826 17.1855C13.2988 17.6955 13.3013 18.3693 12.7838 18.7505C12.2638 19.1318 11.6213 18.923 11.1713 18.6555L10.0588 17.9905C10.0198 17.9807 9.97887 17.9811 9.94007 17.9918L8.82757 18.6543C8.37756 18.9243 7.73757 19.1293 7.21757 18.748C6.70257 18.368 6.70131 17.698 6.81881 17.1855L7.08256 16.0343C7.08382 15.9968 7.07007 15.9468 7.05007 15.9143L6.12507 14.983C5.77507 14.628 5.50632 14.118 5.67882 13.5743C5.85132 13.0293 6.36631 12.7693 6.86006 12.6868L8.04382 12.4868C8.07713 12.4713 8.10692 12.4492 8.13132 12.4218L8.78882 11.0955C8.82882 11.0155 8.87382 10.9355 8.92507 10.8593C8.74683 10.8 8.57162 10.732 8.40006 10.6555C7.86881 10.423 7.25257 10.078 6.48507 9.64803L4.27506 8.41178C4.00393 8.26964 3.74177 8.11101 3.49006 7.93678C3.05596 7.61554 2.69163 7.20947 2.41917 6.7432C2.14671 6.27693 1.97181 5.76017 1.90506 5.22428C1.87506 4.97803 1.87506 4.71553 1.87506 4.30553V4.12178C1.86299 3.83512 1.87848 3.54797 1.92131 3.26428C2.02069 2.72608 2.28033 2.23046 2.66621 1.84235C3.05208 1.45424 3.5462 1.19175 4.08381 1.08928C4.33381 1.04178 4.61632 1.04178 5.01257 1.04178H14.9888V1.04053ZM6.66632 3.54053C6.50056 3.54053 6.34158 3.60637 6.22437 3.72359C6.10716 3.8408 6.04132 3.99977 6.04132 4.16553V4.99928C6.04132 5.16504 6.10716 5.32401 6.22437 5.44122C6.34158 5.55843 6.50056 5.62428 6.66632 5.62428C6.83208 5.62428 6.99105 5.55843 7.10826 5.44122C7.22547 5.32401 7.29132 5.16504 7.29132 4.99928V4.16553C7.29132 3.99977 7.22547 3.8408 7.10826 3.72359C6.99105 3.60637 6.83208 3.54053 6.66632 3.54053ZM10.0001 3.54053C9.83431 3.54053 9.67533 3.60637 9.55812 3.72359C9.44091 3.8408 9.37507 3.99977 9.37507 4.16553V6.66553C9.37507 6.83129 9.44091 6.99026 9.55812 7.10747C9.67533 7.22468 9.83431 7.29053 10.0001 7.29053C10.1658 7.29053 10.3248 7.22468 10.442 7.10747C10.5592 6.99026 10.6251 6.83129 10.6251 6.66553V4.16553C10.6251 3.99977 10.5592 3.8408 10.442 3.72359C10.3248 3.60637 10.1658 3.54053 10.0001 3.54053ZM13.3338 3.54053C13.1681 3.54053 13.0091 3.60637 12.8919 3.72359C12.7747 3.8408 12.7088 3.99977 12.7088 4.16553V4.99928C12.7088 5.16504 12.7747 5.32401 12.8919 5.44122C13.0091 5.55843 13.1681 5.62428 13.3338 5.62428C13.4996 5.62428 13.6585 5.55843 13.7758 5.44122C13.893 5.32401 13.9588 5.16504 13.9588 4.99928V4.16553C13.9588 3.99977 13.893 3.8408 13.7758 3.72359C13.6585 3.60637 13.4996 3.54053 13.3338 3.54053Z" fill="#85D420"/>
</svg>
