<svg width="24" height="24" viewBox="0 0 24 24" fill="none" xmlns="http://www.w3.org/2000/svg">
<path d="M16.2927 9.26165H14.0777V4.40451C14.0777 4.13509 13.8313 4 13.7088 4H10.7552C10.5088 4 10.3863 4.13509 10.3863 4.40451V9.12733H8.29382C8.1713 9.12733 8.0481 9.12732 7.92489 9.26165C7.80168 9.39598 7.80168 9.80125 7.92489 9.93634L11.9859 14.389C12.1091 14.5241 12.4781 14.5241 12.6013 14.389L16.5391 10.0714C16.6091 10.0011 16.6527 9.90484 16.6616 9.80124C16.6589 9.53183 16.5363 9.26165 16.2927 9.26165Z" fill="white"/>
<path d="M21.3352 12.5L18.997 8.18246C18.8738 7.77795 18.3817 7.64286 18.0128 7.91304C17.6438 8.18322 17.5206 8.58697 17.7663 8.99224L19.6124 12.3649H16.5363C16.1667 12.3649 15.921 12.6351 15.7978 13.0396C15.6746 13.9837 15.1824 14.9286 14.5671 15.4682C13.9517 16.0078 13.0907 16.4123 12.2289 16.4123C11.3671 16.4123 10.506 16.0078 9.89138 15.4682C9.27603 14.7935 8.78388 13.9837 8.66068 13.0396C8.66068 12.6351 8.29105 12.3649 7.92211 12.3649H4.84606L6.69142 8.99224C6.93783 8.58697 6.81462 8.18246 6.44569 7.91304C6.07676 7.64362 5.58392 7.77795 5.46071 8.18246L3.12321 12.6351C3 12.7702 3 12.9045 3 13.0396V20.1902C3 20.5955 3.36894 21 3.73856 21H20.7227C21.0916 21 21.4612 20.5955 21.4612 20.1902V13.0396C21.4657 12.8504 21.4221 12.6636 21.3352 12.5Z" fill="white"/>
</svg>
