<svg width="19" height="13" viewBox="0 0 19 13" fill="none" xmlns="http://www.w3.org/2000/svg">
<g clip-path="url(#clip0_0_54247)">
<path d="M9.12905 7.33005L0.619039 0.0299981C0.665589 0.0253197 0.712504 0.0253197 0.759054 0.0299981H17.499H17.629L9.12905 7.33005ZM18.2591 1.04001V12.04C18.2695 12.1029 18.2695 12.1671 18.2591 12.23L12.2591 6.01004L18.2591 0.820037C18.2687 0.899747 18.2687 0.980317 18.2591 1.06003V1.04001ZM0.0390831 0.800018L6.03908 5.99002L0.0390831 12.21C0.028639 12.1471 0.028639 12.0829 0.0390831 12.02V1.01999C0.0287172 0.940324 0.0287172 0.859662 0.0390831 0.779998V0.800018ZM11.5891 6.68002L17.679 12.96C17.6191 12.9647 17.559 12.9647 17.499 12.96H0.759054C0.695848 12.9657 0.632257 12.9657 0.569051 12.96L6.65908 6.68002L8.87905 8.59C8.94759 8.64781 9.03437 8.67953 9.12404 8.67953C9.21372 8.67953 9.30049 8.64781 9.36904 8.59L11.5891 6.68002Z" fill="white"/>
</g>
<defs>
<clipPath id="clip0_0_54247">
<rect width="18.26" height="13" fill="white"/>
</clipPath>
</defs>
</svg>
