<svg width="18" height="18" viewBox="0 0 18 18" fill="none" xmlns="http://www.w3.org/2000/svg">
<path d="M16.7949 4.80546C17.4584 4.80546 17.9971 5.3074 17.9971 5.9246V9.3787L12.1436 9.37675C11.2407 9.37681 10.507 10.0606 10.5068 10.9002C10.5068 11.7418 11.2385 12.4255 12.1436 12.4256H17.9971V15.8807C17.9971 16.4979 17.4585 16.9998 16.7949 16.9998H1.20215C0.538587 16.9998 1.19475e-05 16.498 0 15.8787V5.9246C0 5.3074 0.53858 4.80546 1.20215 4.80546H16.7949ZM6.00586 7.73417C5.00326 7.73417 4.1875 8.03405 3.55859 8.63359C2.92979 9.23306 2.61529 10.0755 2.61523 11.1609C2.61523 12.2101 2.92513 13.0268 3.54492 13.6101C4.16926 14.1894 5.01241 14.4793 6.07422 14.4793C6.91723 14.4793 7.61005 14.2969 8.15234 13.9324C8.69466 13.5678 9.06608 13.0546 9.2666 12.3943L7.99512 12.2547C7.80829 12.7164 7.5553 13.0528 7.23633 13.2635C6.91732 13.4741 6.53223 13.5799 6.08105 13.5799C5.47494 13.5799 4.96908 13.3912 4.56348 13.0144C4.15799 12.6378 3.93236 12.0952 3.88672 11.3865H9.30078C9.30534 11.257 9.30761 11.1593 9.30762 11.0945C9.30762 10.0291 9 9.20242 8.38477 8.61503C7.76955 8.02771 6.97651 7.73417 6.00586 7.73417ZM12.1631 10.1346C12.6133 10.1326 12.9803 10.4746 12.9805 10.8963C12.9805 11.3162 12.6134 11.658 12.1631 11.658C11.7107 11.6578 11.3457 11.3162 11.3457 10.8963C11.3459 10.4766 11.7129 10.1348 12.1631 10.1346ZM6.01953 8.63359C6.64388 8.63359 7.15202 8.84413 7.54395 9.26542C7.79915 9.53683 7.9541 9.94429 8.00879 10.4871H3.95508C3.99609 9.92402 4.20801 9.47372 4.59082 9.13749C4.97816 8.80136 5.4545 8.63359 6.01953 8.63359ZM14.2002 1.08085C14.8154 0.850373 15.5166 1.12971 15.7627 1.70195L16.8018 4.1121H6.09961L14.2002 1.08085Z" fill="white"/>
</svg>
