<svg width="16" height="18" viewBox="0 0 16 18" fill="none" xmlns="http://www.w3.org/2000/svg">
<path fill-rule="evenodd" clip-rule="evenodd" d="M13.5712 17.2141C13.5712 17.6481 13.2373 18 12.8255 18L2.29719 18C1.88532 18 1.55144 17.6481 1.55144 17.2141C1.55144 16.78 1.88532 16.4282 2.29719 16.4282L12.8255 16.4282C13.2373 16.4282 13.5712 16.78 13.5712 17.2141Z" fill="#85D420"/>
<path fill-rule="evenodd" clip-rule="evenodd" d="M7.70996 14.44C7.27592 14.44 6.92406 14.0882 6.92406 13.6541L6.92406 0.785908C6.92406 0.351863 7.27592 7.12014e-07 7.70996 6.74069e-07C8.14401 6.36123e-07 8.49587 0.351863 8.49587 0.785908L8.49587 13.6541C8.49587 14.0882 8.14401 14.44 7.70996 14.44Z" fill="#85D420"/>
<path fill-rule="evenodd" clip-rule="evenodd" d="M8.2039 14.2658C7.91588 14.4983 7.50465 14.4983 7.21662 14.2658L0.292405 8.67643C-0.0453328 8.4038 -0.098113 7.909 0.174519 7.57126C0.447149 7.23352 0.941952 7.18074 1.27969 7.45337L7.71026 12.6443L14.1408 7.45337C14.4786 7.18074 14.9734 7.23352 15.246 7.57125C15.5186 7.90899 15.4659 8.4038 15.1281 8.67643L8.2039 14.2658Z" fill="#85D420"/>
</svg>
