<svg width="14" height="14" viewBox="0 0 14 14" fill="none" xmlns="http://www.w3.org/2000/svg">
<path d="M7.19028 3.6587C5.96636 3.65938 4.7928 4.14605 3.9276 5.01173C3.0624 5.87741 2.57637 7.05123 2.57638 8.27515C2.56193 8.89034 2.67062 9.50222 2.89606 10.0748C3.1215 10.6474 3.45914 11.1691 3.88913 11.6093C4.31911 12.0495 4.83277 12.3993 5.3999 12.6381C5.96703 12.877 6.57619 13 7.19155 13C7.80691 13 8.41607 12.877 8.9832 12.6381C9.55033 12.3993 10.064 12.0495 10.494 11.6093C10.924 11.1691 11.2616 10.6474 11.487 10.0748C11.7125 9.50222 11.8212 8.89034 11.8067 8.27515C11.8067 7.05094 11.3205 5.87686 10.4549 5.01113C9.58933 4.1454 8.41534 3.65893 7.19113 3.6587H7.19028ZM9.56384 7.85848L8.65413 8.74443L8.86883 9.99614C8.94096 10.4162 8.70081 10.5995 8.31554 10.3975L7.19028 9.80605L6.06587 10.3975C5.68823 10.5961 5.43959 10.4247 5.51257 9.99614L5.72727 8.74443L4.81756 7.85848C4.51206 7.56062 4.59862 7.27124 5.02971 7.20845L6.28651 7.02599L6.84914 5.88716C7.03753 5.50528 7.34048 5.49679 7.53312 5.88716L8.09575 7.02599L9.35254 7.20845C9.77515 7.26955 9.87529 7.55468 9.56469 7.85848H9.56384ZM11.5038 1H8.65244C8.57962 1.00052 8.50909 1.02549 8.45216 1.07088C8.39522 1.11627 8.35518 1.17947 8.33845 1.25034L7.45759 2.98321C7.45759 2.98321 9.34151 3.09692 10.454 4.16702L11.7677 1.51765C11.8094 1.46355 11.8329 1.39758 11.8347 1.32926C11.8347 1.28595 11.8262 1.24307 11.8096 1.20306C11.793 1.16306 11.7687 1.12672 11.738 1.09614C11.7073 1.06555 11.6709 1.04132 11.6309 1.02482C11.5908 1.00832 11.5479 0.999889 11.5046 1H11.5038ZM6.87629 2.98321L5.99713 1.25034C5.9804 1.17947 5.94036 1.11627 5.88342 1.07088C5.82649 1.02549 5.75596 1.00052 5.68314 1H2.82926C2.74214 1.00067 2.65878 1.03557 2.59717 1.09718C2.53557 1.15878 2.50067 1.24214 2.5 1.32926C2.5017 1.39715 2.52546 1.46419 2.56704 1.5185L3.88069 4.16702C4.99322 3.09692 6.87629 2.98321 6.87629 2.98321Z" fill="white"/>
</svg>
