<svg width="28" height="28" viewBox="0 0 28 28" fill="none" xmlns="http://www.w3.org/2000/svg">
<rect x="3.70264" y="2.0896" width="22.1144" height="22.7296" rx="11.0572" fill="white"/>
<path d="M19.9701 0H8.02992C3.63091 0 0 3.52204 0 7.94185V19.7511C0 24.1018 3.5611 27.6929 8.02992 27.6929H19.9701C24.3691 27.6929 28 24.1709 28 19.7511V7.94185C27.9302 3.52202 24.3691 0 19.9701 0ZM14.0349 20.856C10.0549 20.856 6.84289 17.6793 6.84289 13.7429C6.84289 9.80647 10.0549 6.62972 14.0349 6.62972C18.015 6.62972 21.2269 9.80647 21.2269 13.7429C21.2269 17.6793 18.015 20.856 14.0349 20.856ZM21.4364 8.01092C20.5287 8.01092 19.7606 7.25126 19.7606 6.3535C19.7606 5.45571 20.5287 4.69605 21.4364 4.69605C22.3442 4.69605 23.1122 5.45571 23.1122 6.3535C23.1122 7.25126 22.3442 8.01092 21.4364 8.01092ZM14.0349 9.18493C11.4514 9.18493 9.42644 11.2567 9.42644 13.7429C9.42644 16.2981 11.5212 18.3008 14.0349 18.3008C16.6185 18.3008 18.6434 16.229 18.6434 13.7429C18.6434 11.2567 16.5486 9.18493 14.0349 9.18493Z" fill="#E4007F"/>
</svg>
