<svg width="21" height="20" viewBox="0 0 21 20" fill="none" xmlns="http://www.w3.org/2000/svg">
<g clip-path="url(#clip0_0_38895)">
<mask id="mask0_0_38895" style="mask-type:luminance" maskUnits="userSpaceOnUse" x="0" y="-1" width="21" height="22">
<path d="M20.0376 -0.00390625H0V20.0253H20.0376V-0.00390625Z" fill="white"/>
</mask>
<g mask="url(#mask0_0_38895)">
<path d="M2.28907 4.7515C2.28661 5.99018 2.77013 7.18037 3.63579 8.06633C4.50146 8.9523 5.68012 9.46336 6.91852 9.4896C6.99203 9.48125 7.06637 9.48125 7.13988 9.4896H7.21082C8.14168 9.45519 9.04178 9.14765 9.79908 8.60527C10.5564 8.06289 11.1374 7.30957 11.4697 6.43934C11.802 5.56911 11.8708 4.62043 11.6676 3.71135C11.4645 2.80227 10.9983 1.97304 10.3272 1.32701C9.65614 0.680984 8.8098 0.246666 7.89366 0.0782313C6.97751 -0.0902034 6.03211 0.0147061 5.17514 0.379802C4.31817 0.744897 3.58764 1.35406 3.07444 2.13144C2.56124 2.90882 2.28807 3.82 2.28907 4.7515Z" fill="#808994"/>
<path d="M1.97093 12.1491C1.37959 12.454 0.883429 12.9158 0.537166 13.4839C0.190903 14.052 0.0078125 14.7045 0.0078125 15.3698C0.0078125 16.0351 0.190903 16.6876 0.537166 17.2557C0.883429 17.8237 1.37959 18.2856 1.97093 18.5905C3.50565 19.511 5.26162 19.9972 7.05125 19.9972C8.84088 19.9972 10.5968 19.511 12.1316 18.5905C12.7229 18.2856 13.2189 17.8237 13.5651 17.2557C13.9114 16.6876 14.0945 16.0351 14.0945 15.3698C14.0945 14.7045 13.9114 14.052 13.5651 13.4839C13.2189 12.9158 12.7229 12.454 12.1316 12.1491C10.5968 11.2353 8.84359 10.753 7.05737 10.753C5.27114 10.753 3.51815 11.2353 1.98336 12.1491H1.97093ZM14.9119 9.22699H14.8617C14.8051 9.21645 14.7471 9.21645 14.6905 9.22699C13.7714 9.28299 12.8659 8.98415 12.1607 8.39209C12.6872 7.91697 13.0966 7.32634 13.3566 6.66654C13.6166 6.00674 13.7203 5.29575 13.6595 4.58918C13.5912 3.80969 13.3269 3.06012 12.8913 2.41011C13.3596 2.18317 13.8717 2.06072 14.3921 2.05136C14.9125 2.042 15.4287 2.14594 15.9049 2.35589C16.3812 2.56584 16.806 2.87675 17.1501 3.26722C17.4942 3.6577 17.7494 4.11836 17.8978 4.61721C18.0462 5.11606 18.0844 5.64118 18.0097 6.15625C17.935 6.67131 17.7491 7.16398 17.4651 7.6001C17.181 8.03621 16.8054 8.40535 16.3646 8.68194C15.9237 8.95853 15.4281 9.13605 14.9119 9.20202V9.22699Z" fill="#808994"/>
<path d="M18.2848 16.9793C17.2029 17.5378 15.9949 17.8067 14.7783 17.76C15.4626 17.1677 15.898 16.3386 15.9972 15.439C16.0233 14.7808 15.8843 14.1264 15.5926 13.5358C15.3009 12.9451 14.8659 12.437 14.3274 12.0576C13.6308 11.5225 12.8548 11.1 12.0273 10.8052C13.1573 10.4865 14.3445 10.4265 15.5009 10.6295C16.6572 10.8326 17.7528 11.2936 18.7065 11.9783C19.1438 12.2572 19.4961 12.6508 19.7251 13.1161C19.9541 13.5814 20.051 14.1007 20.0054 14.6173C19.9597 15.1339 19.7733 15.6281 19.4662 16.0461C19.1592 16.464 18.7434 16.7897 18.264 16.9877L18.2848 16.9793Z" fill="#808994"/>
</g>
</g>
<defs>
<clipPath id="clip0_0_38895">
<rect width="20.0292" height="20" fill="white"/>
</clipPath>
</defs>
</svg>
