<svg width="10" height="10" viewBox="0 0 10 10" fill="none" xmlns="http://www.w3.org/2000/svg">
<path fill-rule="evenodd" clip-rule="evenodd" d="M0.183058 0.183058C0.427136 -0.0610194 0.822864 -0.0610194 1.06694 0.183058L9.81694 8.93306C10.061 9.17714 10.061 9.57286 9.81694 9.81694C9.57286 10.061 9.17714 10.061 8.93306 9.81694L0.183058 1.06694C-0.0610194 0.822864 -0.0610194 0.427136 0.183058 0.183058Z" fill="white"/>
<path fill-rule="evenodd" clip-rule="evenodd" d="M9.81694 0.183058C10.061 0.427136 10.061 0.822864 9.81694 1.06694L1.06694 9.81694C0.822864 10.061 0.427136 10.061 0.183058 9.81694C-0.0610194 9.57286 -0.0610194 9.17714 0.183058 8.93306L8.93306 0.183058C9.17714 -0.0610194 9.57286 -0.0610194 9.81694 0.183058Z" fill="white"/>
</svg>
