<svg width="14" height="18" viewBox="0 0 14 18" fill="none" xmlns="http://www.w3.org/2000/svg">
<path d="M11.4707 6.1517e-05C11.6908 -0.00181188 11.9091 0.0391195 12.1135 0.120586C12.3079 0.204381 12.485 0.323595 12.6358 0.472137C12.7876 0.620295 12.9072 0.798064 12.9874 0.994422C13.0688 1.19886 13.1098 1.4172 13.1079 1.63726V16.362C13.1139 16.5782 13.0751 16.7934 12.9938 16.9939C12.9126 17.1945 12.7907 17.376 12.6358 17.5271C12.4847 17.682 12.3032 17.8038 12.1027 17.8851C11.9021 17.9663 11.687 18.0052 11.4707 17.9992H1.63748C1.42272 18.005 1.20909 17.9661 1.01022 17.8848C0.811351 17.8035 0.631594 17.6817 0.482402 17.5271C0.326211 17.3765 0.202777 17.1953 0.11982 16.9948C0.036863 16.7943 -0.00383073 16.5789 0.000283581 16.362V1.61715C0.0044381 1.40541 0.0523116 1.19684 0.140901 1.00448C0.221038 0.808118 0.340696 0.630349 0.492444 0.482191C0.643248 0.333649 0.820356 0.214435 1.01474 0.13064C1.21597 0.0502031 1.43081 0.00928591 1.64752 0.0101155L11.4707 6.1517e-05ZM4.92191 1.63726H8.17621V0.80358H4.92191V1.63726ZM6.53902 17.1755C6.75466 17.1869 6.97027 17.1527 7.1718 17.0751C7.36688 16.9926 7.54422 16.8732 7.69409 16.7235C7.84264 16.5727 7.96184 16.3956 8.04564 16.2013C8.12707 16.0003 8.16803 15.7853 8.16617 15.5685C8.16804 15.3484 8.1271 15.1301 8.04564 14.9256C7.96431 14.7329 7.84471 14.5586 7.69409 14.4134C7.5419 14.2666 7.36512 14.1476 7.1718 14.0619C6.96798 13.9772 6.74967 13.9328 6.52897 13.9313C6.31453 13.9278 6.10162 13.9679 5.90309 14.049C5.70456 14.1302 5.52454 14.2507 5.3739 14.4034C5.22161 14.5538 5.10199 14.734 5.02249 14.9327C4.94299 15.1315 4.90534 15.3445 4.91187 15.5584C4.90653 15.7722 4.94473 15.9849 5.02416 16.1835C5.10359 16.382 5.22258 16.5624 5.3739 16.7135C5.52259 16.8694 5.70203 16.9928 5.90085 17.0758C6.09968 17.1588 6.31356 17.1996 6.52897 17.1956L6.53902 17.1755ZM11.4707 2.44078H1.63748V13.0574H11.4707V2.44078Z" fill="#808994"/>
</svg>
