<svg width="15" height="15" viewBox="0 0 15 15" fill="none" xmlns="http://www.w3.org/2000/svg">
<g clip-path="url(#clip0_0_41762)">
<mask id="mask0_0_41762" style="mask-type:luminance" maskUnits="userSpaceOnUse" x="0" y="-1" width="16" height="17">
<path d="M15.0063 -0.0125732H0V15.0253H15.0063V-0.0125732Z" fill="white"/>
</mask>
<g mask="url(#mask0_0_41762)">
<path d="M4.09171 3.00884C5.06588 3.77914 6.25942 4.22085 7.50074 4.27041C8.75449 4.21569 9.96078 3.77505 10.9542 3.00884C10.9542 3.00884 12.6398 1.52659 11.7559 0.883187C10.8721 0.23979 9.62834 1.08493 9.62834 1.08493C9.0699 0.483267 8.31602 0.0988763 7.50074 0C6.69666 0.0942153 5.95536 0.480307 5.41753 1.08493C5.41753 1.08493 4.15483 0.246097 3.28993 0.883187C2.42503 1.52028 4.09171 3.00884 4.09171 3.00884Z" fill="white"/>
<path d="M14.6092 11.2722C14.6092 11.2722 15.1708 9.63214 13.8829 6.98285C12.5193 4.21372 10.6761 4.1759 10.6761 4.1759C9.70974 4.7125 8.62505 5.00068 7.51956 5.01474C6.41243 5.01281 5.32476 4.72384 4.36299 4.1759C4.36299 4.1759 2.4688 4.17591 1.11148 7.02074C-0.151146 9.58802 0.392006 11.3162 0.392006 11.3162C0.392006 11.3162 -2.5436 15.0064 7.49428 15.0064C17.5322 15.0064 14.6027 11.2722 14.6027 11.2722H14.6092ZM7.46253 12.6536C6.91327 12.6474 6.3783 12.479 5.92463 12.1696C5.47096 11.8601 5.11881 11.4234 4.91292 10.9146C4.70703 10.4058 4.65646 9.84761 4.76743 9.31009C4.87839 8.77258 5.14594 8.2798 5.53653 7.89391C5.92712 7.50803 6.42335 7.24628 6.96253 7.14147C7.50171 7.03667 8.05982 7.09358 8.56671 7.30502C9.0736 7.51646 9.5066 7.87299 9.81115 8.32973C10.1157 8.78648 10.2781 9.32306 10.2782 9.87188C10.2682 10.612 9.96741 11.3185 9.44062 11.8389C8.91384 12.3594 8.20335 12.652 7.46253 12.6536Z" fill="white"/>
</g>
</g>
<defs>
<clipPath id="clip0_0_41762">
<rect width="15" height="15" fill="white"/>
</clipPath>
</defs>
</svg>
