<svg width="19" height="20" viewBox="0 0 19 20" fill="none" xmlns="http://www.w3.org/2000/svg">
<g clip-path="url(#clip0_0_38903)">
<mask id="mask0_0_38903" style="mask-type:luminance" maskUnits="userSpaceOnUse" x="0" y="-1" width="20" height="22">
<path d="M19.0262 -0.0253906H0V20.027H19.0262V-0.0253906Z" fill="white"/>
</mask>
<g mask="url(#mask0_0_38903)">
<path d="M12.1621 0.655063V4.14851C12.1782 4.86511 12.4757 5.54654 12.9905 6.04513C13.5053 6.54373 14.1959 6.81938 14.9125 6.81231H18.3092C18.4342 6.81618 18.5576 6.78256 18.6635 6.71593C18.7694 6.64931 18.8529 6.55272 18.9035 6.43832C18.9542 6.32391 18.9693 6.19689 18.9474 6.07371C18.9256 5.95052 18.8677 5.8368 18.7807 5.74683C17.34 4.29705 14.7639 1.68562 13.2796 0.20964C13.1896 0.119548 13.0755 0.0577406 12.9509 0.0315985C12.8263 0.00545641 12.6968 0.0161816 12.5782 0.0625159C12.4596 0.10885 12.3571 0.188672 12.2832 0.292371C12.2093 0.396069 12.1672 0.519079 12.1621 0.646321V0.655063Z" fill="#808994"/>
<path d="M13.4195 19.9913H5.56105C4.81833 20.0387 4.07402 19.9273 3.37772 19.6645C2.68141 19.4016 2.04892 18.9934 1.52267 18.467C0.996421 17.9406 0.588664 17.3082 0.325913 16.6117C0.0631618 15.9153 -0.048502 15.1708 -0.00109636 14.4279V5.57211C-0.048502 4.82921 0.0631618 4.08474 0.325913 3.38827C0.588664 2.69181 0.996421 2.05918 1.52267 1.5328C2.04892 1.00643 2.68141 0.598367 3.37772 0.335556C4.07402 0.0727443 4.81833 -0.038732 5.56105 0.0086846H9.79597C10.0608 0.00867459 10.3148 0.113264 10.5029 0.299734C10.6909 0.486205 10.7977 0.739579 10.8 1.00444V3.8951C10.8 5.03473 11.2525 6.1277 12.0582 6.93354C12.8638 7.73937 13.9565 8.19219 15.0959 8.19219H17.9776C18.2424 8.19218 18.4964 8.29677 18.6845 8.48324C18.8725 8.66971 18.9793 8.92287 18.9816 9.18773V14.4279C19.0292 15.1716 18.9175 15.9168 18.6542 16.6139C18.3909 17.311 17.9821 17.9441 17.4549 18.4706C16.9277 18.9971 16.2942 19.405 15.5969 19.6672C14.8995 19.9295 14.1544 20.04 13.411 19.9913H13.4195ZM5.0021 14.2445C4.80295 14.2445 4.61212 14.3237 4.4713 14.4646C4.33047 14.6054 4.2513 14.7963 4.2513 14.9955C4.25575 15.1933 4.33654 15.3818 4.47642 15.5217C4.61629 15.6616 4.80434 15.7422 5.0021 15.7467H8.99273C9.19188 15.7467 9.3827 15.6675 9.52353 15.5266C9.66435 15.3858 9.74352 15.1947 9.74352 14.9955C9.74352 14.7963 9.66435 14.6054 9.52353 14.4646C9.3827 14.3237 9.19188 14.2445 8.99273 14.2445H5.0021ZM5.0021 10.2532C4.80445 10.2532 4.61486 10.3311 4.47428 10.4701C4.33371 10.609 4.2536 10.798 4.2513 10.9957C4.25013 11.0946 4.26898 11.1927 4.3063 11.2844C4.34363 11.376 4.39878 11.4594 4.46874 11.5294C4.53871 11.5993 4.62183 11.6545 4.71347 11.6918C4.8051 11.7292 4.90317 11.7478 5.0021 11.7466H10.9923C11.0971 11.758 11.2032 11.7472 11.3035 11.7149C11.4039 11.6825 11.4962 11.6294 11.5747 11.559C11.6532 11.4885 11.7159 11.4024 11.7589 11.3061C11.8018 11.2098 11.8241 11.1054 11.8241 10.9999C11.8241 10.8945 11.8018 10.7902 11.7589 10.6939C11.7159 10.5976 11.6532 10.5115 11.5747 10.4411C11.4962 10.3706 11.4039 10.3175 11.3035 10.2852C11.2032 10.2528 11.0971 10.2419 10.9923 10.2532H5.0021Z" fill="#808994"/>
</g>
</g>
<defs>
<clipPath id="clip0_0_38903">
<rect width="19" height="20" fill="white"/>
</clipPath>
</defs>
</svg>
