<svg width="26" height="26" viewBox="0 0 26 26" fill="none" xmlns="http://www.w3.org/2000/svg">
<path d="M0 0C0 14.3594 11.6406 26 26 26V0H0ZM15.4407 10.837L18.6611 14.0637C18.9132 14.3163 18.9119 14.7273 18.6581 14.9817C18.4025 15.2378 17.994 15.2374 17.7419 14.9847L14.5215 11.758L11.3011 14.9847C11.049 15.2373 10.6388 15.236 10.3849 14.9817C10.1293 14.7256 10.1297 14.3163 10.3819 14.0637L13.6023 10.837L10.3819 7.61031C10.1298 7.35774 10.1311 6.94665 10.3849 6.69231C10.6405 6.4362 11.049 6.43661 11.3011 6.68927L14.5215 9.91596L17.7419 6.68927C17.9939 6.4367 18.4042 6.43797 18.6581 6.69231C18.9137 6.94842 18.9133 7.35765 18.6611 7.61031L15.4407 10.837Z" fill="#A9DF63"/>
</svg>
