<svg width="22" height="22" viewBox="0 0 22 22" fill="none" xmlns="http://www.w3.org/2000/svg">
<g opacity="0.8">
<path d="M9.80526 12.3379C10.1373 12.4967 10.4189 12.67 10.6499 12.8577C10.8809 13.0454 11.0036 13.2475 11.018 13.4641C11.0325 13.6806 11.0397 13.9261 11.0397 14.2004V14.8934C11.0253 15.0667 10.9675 15.2363 10.8664 15.4024C10.7654 15.5684 10.5705 15.7453 10.2817 15.933C10.1373 16.0196 9.94242 16.1243 9.69697 16.247C9.45153 16.3697 9.15194 16.4816 8.79821 16.5827C8.44448 16.6837 8.033 16.7704 7.56377 16.8426C7.09453 16.9147 6.57116 16.9508 5.99364 16.9508C5.41612 16.9508 4.89997 16.9147 4.44517 16.8426C3.99037 16.7704 3.59333 16.6874 3.25404 16.5935C2.91475 16.4997 2.62238 16.4022 2.37693 16.3011C2.13149 16.2001 1.92936 16.1062 1.77054 16.0196C1.43847 15.8608 1.17497 15.6947 0.980062 15.5215C0.78515 15.3482 0.673255 15.1894 0.644379 15.045C0.615504 14.9151 0.597456 14.6949 0.590237 14.3845C0.583018 14.0741 0.586628 13.8034 0.601066 13.5724C0.615504 13.3558 0.698522 13.1573 0.85012 12.9768C1.00172 12.7963 1.25077 12.6195 1.59728 12.4462C1.72723 12.3884 1.86439 12.3524 2.00877 12.3379C1.95101 12.309 1.89687 12.2838 1.84634 12.2621C1.79581 12.2405 1.74166 12.2152 1.68391 12.1863C1.35184 12.0275 1.08835 11.8579 0.893434 11.6774C0.698522 11.4969 0.586628 11.3417 0.557752 11.2118C0.528876 11.0674 0.510828 10.84 0.50361 10.5296C0.496391 10.2191 0.5 9.95565 0.514438 9.73909C0.528876 9.52252 0.611894 9.32399 0.763493 9.14352C0.915091 8.96305 1.16415 8.78618 1.51066 8.61293C1.58285 8.56961 1.66947 8.54074 1.77054 8.5263C1.87161 8.51186 1.97989 8.49742 2.09539 8.48298C2.0232 8.45411 1.95462 8.42523 1.88965 8.39636C1.82468 8.36748 1.7561 8.3386 1.68391 8.30973C1.35184 8.15091 1.08835 7.98126 0.893434 7.80079C0.698522 7.62032 0.586628 7.45789 0.557752 7.31351C0.528876 7.18357 0.510828 6.96339 0.50361 6.65297C0.496391 6.34256 0.5 6.07906 0.514438 5.8625C0.528876 5.63149 0.615504 5.43297 0.774321 5.26693C0.933138 5.10089 1.17858 4.92403 1.51066 4.73634C1.7561 4.57752 2.24338 4.41509 2.9725 4.24905C3.70162 4.08302 4.59316 4 5.64713 4C6.60003 4 7.43383 4.06497 8.1485 4.19491C8.86318 4.32485 9.38656 4.46923 9.71863 4.62805C10.0507 4.78687 10.3322 4.96012 10.5633 5.14782C10.7943 5.33551 10.917 5.53042 10.9314 5.73255C10.9459 5.94912 10.9531 6.20179 10.9531 6.49055V7.16191C10.9386 7.33517 10.8809 7.50481 10.7798 7.67085C10.6788 7.83689 10.4838 8.01375 10.1951 8.20144C10.1229 8.24476 10.0471 8.29168 9.96769 8.34221C9.88828 8.39275 9.79082 8.43967 9.67532 8.48298C9.68976 8.49742 9.70419 8.50464 9.71863 8.50464C10.0507 8.64902 10.3322 8.81867 10.5633 9.01358C10.7943 9.20849 10.917 9.41423 10.9314 9.6308C10.9459 9.83293 10.9531 10.0712 10.9531 10.3455V11.0602C10.9386 11.2334 10.8809 11.3994 10.7798 11.5583C10.6788 11.7171 10.4838 11.8976 10.1951 12.0997C10.1373 12.1286 10.076 12.1647 10.011 12.208C9.94603 12.2513 9.87023 12.2946 9.7836 12.3379H9.80526ZM1.46734 6.25232C1.39515 6.48333 1.42042 6.64215 1.54314 6.72877C1.66586 6.8154 1.80663 6.89481 1.96545 6.967C2.03764 7.01031 2.12066 7.04641 2.21451 7.07528C2.30835 7.10416 2.39137 7.13304 2.46356 7.16191C2.55019 7.19079 2.63682 7.21244 2.72344 7.22688L2.70179 8.00653C2.70179 8.16535 2.75954 8.27002 2.87504 8.32056C2.99055 8.37109 3.11327 8.39636 3.24321 8.39636C3.37315 8.39636 3.48144 8.38914 3.56806 8.3747C3.65469 8.36026 3.70522 8.27363 3.71966 8.11482V7.44345C3.82073 7.45789 3.97955 7.47594 4.19612 7.49759C4.41268 7.51925 4.61482 7.5373 4.80251 7.55174C4.8747 7.55174 4.94328 7.55535 5.00825 7.56256C5.07322 7.56978 5.13458 7.57339 5.19233 7.57339H5.34393L5.36559 8.41801C5.36559 8.57683 5.41612 8.67429 5.51719 8.71038C5.61825 8.74648 5.72654 8.76452 5.84204 8.76452C6.1308 8.75009 6.29684 8.73204 6.34015 8.71038C6.38346 8.68872 6.40512 8.59849 6.40512 8.43967V7.89825V7.59505C6.49175 7.58061 6.57838 7.57339 6.66501 7.57339H6.92489C7.01152 7.57339 7.09814 7.56617 7.18477 7.55174C7.3869 7.52286 7.53128 7.5012 7.61791 7.48677C7.67566 7.47233 7.71176 7.45789 7.72619 7.44345V8.20144C7.72619 8.38914 7.88501 8.48298 8.20265 8.48298C8.39034 8.46855 8.51667 8.43606 8.58164 8.38553C8.64661 8.33499 8.6791 8.27363 8.6791 8.20144V7.31351L8.93898 7.24854C9.01117 7.21966 9.10141 7.19079 9.20969 7.16191C9.31798 7.13304 9.42987 7.09694 9.54538 7.05363C9.90632 6.92369 10.0651 6.74321 10.0218 6.5122C9.99295 6.41114 9.94964 6.34256 9.89189 6.30646C9.83414 6.27037 9.76916 6.25232 9.69697 6.25232C9.62478 6.25232 9.54177 6.26676 9.44792 6.29563C9.35407 6.32451 9.26384 6.34617 9.17721 6.3606C8.71519 6.44723 8.17016 6.51942 7.54211 6.57717C6.91406 6.63493 6.31128 6.6638 5.73376 6.6638C5.45944 6.6638 5.17068 6.64936 4.86748 6.62049C4.56428 6.59161 4.2683 6.55552 3.97955 6.5122C3.69079 6.46889 3.42368 6.42197 3.17824 6.37143C2.93279 6.3209 2.73066 6.26676 2.57185 6.20901C2.51409 6.19457 2.43108 6.17291 2.32279 6.14404C2.21451 6.11516 2.099 6.09711 1.97628 6.08989C1.85356 6.08267 1.74527 6.08989 1.65143 6.11155C1.55758 6.13321 1.49622 6.18013 1.46734 6.25232ZM1.46734 10.1289C1.36628 10.3166 1.38432 10.4682 1.52148 10.5837C1.65865 10.6992 1.80663 10.7931 1.96545 10.8652C2.03764 10.9086 2.12066 10.941 2.21451 10.9627C2.30835 10.9844 2.39137 11.0096 2.46356 11.0385C2.55019 11.0674 2.63682 11.089 2.72344 11.1035L2.70179 11.9048C2.70179 12.0636 2.75954 12.1683 2.87504 12.2188C2.99055 12.2693 3.11327 12.2946 3.24321 12.2946C3.37315 12.2946 3.49226 12.2838 3.60055 12.2621C3.70883 12.2405 3.7702 12.1574 3.78463 12.0131V11.3417C3.8857 11.3561 4.03369 11.3742 4.2286 11.3958C4.42351 11.4175 4.61482 11.4283 4.80251 11.4283C4.8747 11.4283 4.94328 11.4319 5.00825 11.4392C5.07322 11.4464 5.13458 11.45 5.19233 11.45H5.34393V12.3812C5.34393 12.5112 5.38364 12.587 5.46305 12.6086C5.54245 12.6303 5.66879 12.6411 5.84204 12.6411C6.18855 12.67 6.36181 12.5834 6.36181 12.3812V11.515C6.44844 11.5005 6.54228 11.4861 6.64335 11.4716C6.72998 11.4572 6.82021 11.45 6.91406 11.45C7.00791 11.45 7.09814 11.4428 7.18477 11.4283C7.3869 11.3994 7.53128 11.3778 7.61791 11.3634C7.67566 11.3489 7.71176 11.3417 7.72619 11.3417V12.0997C7.72619 12.3018 7.88501 12.3884 8.20265 12.3596H8.2243C8.29649 12.3451 8.39034 12.3235 8.50584 12.2946C8.62135 12.2368 8.6791 12.1502 8.6791 12.0347V11.1901L8.93898 11.1251C9.01117 11.0963 9.10141 11.071 9.20969 11.0493C9.31798 11.0277 9.42987 10.9952 9.54538 10.9519C9.89189 10.8075 10.0507 10.627 10.0218 10.4105C9.99295 10.2516 9.88828 10.1758 9.7078 10.1831C9.52733 10.1903 9.35046 10.2083 9.17721 10.2372C8.9462 10.2805 8.7188 10.3238 8.49502 10.3671C8.27123 10.4104 8.033 10.4465 7.78034 10.4754C7.52767 10.5043 7.24974 10.5296 6.94654 10.5512C6.64335 10.5729 6.29684 10.5837 5.90701 10.5837C5.05517 10.5837 4.36576 10.5296 3.83878 10.4213C3.31179 10.313 2.88948 10.2083 2.57185 10.1073C2.51409 10.0928 2.43108 10.0712 2.32279 10.0423C2.21451 10.0134 2.10261 9.99536 1.98711 9.98814C1.87161 9.98092 1.76693 9.98453 1.67308 9.99897C1.57924 10.0134 1.51066 10.0567 1.46734 10.1289ZM9.632 14.7851C9.97851 14.6696 10.1373 14.4892 10.1085 14.2437C10.0796 14.0849 9.97491 14.0127 9.79443 14.0272C9.61396 14.0416 9.43709 14.0633 9.26384 14.0921C8.80182 14.1643 8.30732 14.2365 7.78034 14.3087C7.25335 14.3809 6.60003 14.4025 5.82038 14.3737C5.54606 14.3737 5.25369 14.3628 4.94328 14.3412C4.63286 14.3195 4.32967 14.2943 4.03369 14.2654C3.73771 14.2365 3.467 14.1968 3.22155 14.1463C2.97611 14.0957 2.77398 14.0488 2.61516 14.0055C2.55741 13.9911 2.478 13.9694 2.37693 13.9405C2.27587 13.9117 2.17119 13.8864 2.06291 13.8647C1.95462 13.8431 1.85356 13.8395 1.75971 13.8539C1.66586 13.8683 1.59728 13.9044 1.55397 13.9622C1.4529 14.1499 1.47095 14.3015 1.60811 14.417C1.74527 14.5325 1.89326 14.6263 2.05208 14.6985C2.12427 14.7418 2.20729 14.7743 2.30113 14.796C2.39498 14.8176 2.478 14.8429 2.55019 14.8718C2.63682 14.9007 2.72344 14.9223 2.81007 14.9367V15.7597C2.81007 15.9185 2.86421 16.0196 2.9725 16.0629C3.08078 16.1062 3.1999 16.1279 3.32984 16.1279C3.45978 16.1279 3.57889 16.1315 3.68718 16.1387C3.79546 16.1459 3.8496 16.0701 3.8496 15.9113C3.8496 15.8824 3.85321 15.8247 3.86043 15.7381C3.86765 15.6514 3.87126 15.5648 3.87126 15.4782V15.175C3.97233 15.1894 4.12032 15.2075 4.31523 15.2291C4.51014 15.2508 4.70144 15.2616 4.88914 15.2616C4.96133 15.276 5.03352 15.2833 5.10571 15.2833H5.27896H5.43056L5.45222 16.2145C5.46665 16.33 5.5208 16.4022 5.61464 16.4311C5.70849 16.46 5.81317 16.4816 5.92867 16.496C6.08749 16.496 6.21382 16.4852 6.30767 16.4636C6.40151 16.4419 6.44844 16.3517 6.44844 16.1928V15.3049H6.72998C6.8166 15.3049 6.90684 15.3013 7.00069 15.2941C7.09453 15.2869 7.18477 15.276 7.2714 15.2616C7.44465 15.2616 7.58903 15.2472 7.70454 15.2183C7.76229 15.2038 7.79838 15.1894 7.81282 15.175V15.933C7.81282 16.1351 7.97164 16.2217 8.28927 16.1928C8.47697 16.1928 8.6033 16.1676 8.66827 16.117C8.73324 16.0665 8.76573 16.0052 8.76573 15.933V15.0234L9.02561 14.9584C9.0978 14.9295 9.18804 14.9043 9.29632 14.8826C9.40461 14.8609 9.5165 14.8285 9.632 14.7851ZM20.2439 10.627C20.576 10.7714 20.8611 10.941 21.0993 11.136C21.3376 11.3309 21.4639 11.5294 21.4783 11.7315C21.4928 11.9481 21.5 12.1971 21.5 12.4787C21.5 12.7602 21.4928 12.9876 21.4783 13.1609C21.4639 13.3341 21.4098 13.5038 21.3159 13.6698C21.2221 13.8359 21.0308 14.0127 20.742 14.2004C20.4532 14.4025 19.9515 14.6227 19.2368 14.8609C18.5222 15.0992 17.5873 15.2183 16.4323 15.2183C15.8548 15.2183 15.3422 15.1858 14.8946 15.1208C14.4471 15.0559 14.0536 14.9765 13.7143 14.8826C13.375 14.7888 13.0827 14.6877 12.8372 14.5794C12.5918 14.4711 12.3897 14.3809 12.2308 14.3087C11.8988 14.1499 11.6317 13.9802 11.4295 13.7998C11.2274 13.6193 11.1119 13.4569 11.083 13.3125C11.0541 13.1825 11.0397 12.9587 11.0397 12.6411V11.8615C11.0541 11.6305 11.1372 11.4247 11.2888 11.2442C11.4404 11.0638 11.6894 10.8941 12.0359 10.7353C12.2092 10.6487 12.4041 10.6054 12.6207 10.6054C12.4618 10.5476 12.3319 10.4826 12.2308 10.4105C11.8988 10.2516 11.6317 10.082 11.4295 9.90151C11.2274 9.72104 11.1119 9.56583 11.083 9.43589C11.0541 9.29151 11.0397 9.0605 11.0397 8.74287V7.96322C11.0541 7.74665 11.1408 7.55535 11.2996 7.38931C11.4584 7.22327 11.7038 7.03919 12.0359 6.83706C12.2958 6.69268 12.7867 6.53386 13.5086 6.3606C14.2305 6.18735 15.1184 6.10072 16.1724 6.10072C17.1253 6.10072 17.9591 6.16569 18.6738 6.29563C19.3884 6.42558 19.9118 6.56996 20.2439 6.72877C20.576 6.88759 20.8611 7.06085 21.0993 7.24854C21.3376 7.43623 21.4639 7.63836 21.4783 7.85493C21.4928 8.05706 21.5 8.2989 21.5 8.58044C21.5 8.86198 21.4928 9.0966 21.4783 9.28429C21.4639 9.45755 21.4098 9.62358 21.3159 9.7824C21.2221 9.94122 21.0308 10.1217 20.742 10.3238C20.6698 10.3671 20.594 10.4104 20.5146 10.4538C20.4352 10.4971 20.3377 10.5476 20.2222 10.6054L20.2439 10.627ZM11.971 8.41801C11.8988 8.57683 11.9276 8.71038 12.0576 8.81867C12.1875 8.92695 12.3319 9.01719 12.4907 9.08938C12.5629 9.13269 12.6459 9.16518 12.7398 9.18683C12.8336 9.20849 12.9166 9.23376 12.9888 9.26263C13.0755 9.29151 13.1621 9.31317 13.2487 9.3276V10.1289C13.2487 10.2877 13.3029 10.3924 13.4111 10.4429C13.5194 10.4935 13.6385 10.5187 13.7685 10.5187C13.9129 10.5187 14.0392 10.5079 14.1475 10.4862C14.2558 10.4646 14.3099 10.3816 14.3099 10.2372V9.84737V9.56583C14.411 9.58027 14.5445 9.60192 14.7106 9.6308C14.8766 9.65968 15.0607 9.68855 15.2628 9.71743C15.3061 9.71743 15.3603 9.72104 15.4252 9.72826C15.4902 9.73548 15.5588 9.73909 15.631 9.73909C15.7032 9.75352 15.7754 9.76074 15.8475 9.76074V10.562C15.8475 10.6776 15.9089 10.7606 16.0316 10.8111C16.1543 10.8616 16.2735 10.8797 16.389 10.8652C16.5478 10.8652 16.6705 10.8508 16.7571 10.8219C16.8438 10.7931 16.8871 10.7136 16.8871 10.5837V9.73909C16.9881 9.73909 17.0892 9.73187 17.1903 9.71743C17.2769 9.70299 17.3671 9.69216 17.461 9.68494C17.5548 9.67772 17.6451 9.6669 17.7317 9.65246C17.9049 9.62358 18.0277 9.60192 18.0999 9.58749C18.1576 9.57305 18.2081 9.56583 18.2515 9.56583V10.3238C18.2515 10.4393 18.2948 10.5115 18.3814 10.5404C18.468 10.5693 18.5908 10.5837 18.7496 10.5837C18.9084 10.5837 19.0239 10.5584 19.0961 10.5079C19.1683 10.4574 19.2044 10.396 19.2044 10.3238V9.41423L19.4642 9.34926C19.5364 9.32038 19.6267 9.29512 19.735 9.27346C19.8432 9.2518 19.9551 9.21932 20.0706 9.176C20.4172 9.03163 20.576 8.85115 20.5471 8.63458C20.5182 8.47576 20.4135 8.39636 20.2331 8.39636C20.0526 8.39636 19.8757 8.41801 19.7025 8.46133C19.587 8.50464 19.3957 8.54435 19.1286 8.58044C18.8615 8.61654 18.5619 8.65263 18.2298 8.68872C17.8977 8.72482 17.5584 8.7537 17.2119 8.77535C16.8654 8.79701 16.5478 8.80784 16.259 8.80784C15.9847 8.80784 15.6923 8.7934 15.3819 8.76452C15.0715 8.73565 14.7719 8.69955 14.4832 8.65624C14.1944 8.61293 13.9273 8.566 13.6818 8.51547C13.4364 8.46494 13.2343 8.41801 13.0755 8.3747C13.0177 8.36026 12.9383 8.3386 12.8372 8.30973C12.7362 8.28085 12.6279 8.2628 12.5124 8.25559C12.3969 8.24837 12.2886 8.25198 12.1875 8.26641C12.0865 8.28085 12.0143 8.33139 11.971 8.41801ZM20.0706 13.0526C20.4172 12.9371 20.576 12.7566 20.5471 12.5112C20.5182 12.3668 20.4135 12.2982 20.2331 12.3054C20.0526 12.3126 19.8757 12.3307 19.7025 12.3596C19.2405 12.4462 18.7207 12.5292 18.1432 12.6086C17.5657 12.688 16.9376 12.7277 16.259 12.7277C15.5516 12.7277 14.9163 12.67 14.3532 12.5545C13.7901 12.439 13.3498 12.3235 13.0321 12.208C12.9888 12.1935 12.9166 12.1755 12.8156 12.1538C12.7145 12.1322 12.6098 12.1141 12.5015 12.0997C12.3933 12.0853 12.2922 12.0889 12.1983 12.1105C12.1045 12.1322 12.0359 12.1791 11.9926 12.2513C11.8915 12.439 11.9096 12.587 12.0468 12.6953C12.1839 12.8035 12.3319 12.8938 12.4907 12.966C12.5629 13.0093 12.6459 13.0454 12.7398 13.0743C12.8336 13.1031 12.9166 13.132 12.9888 13.1609C13.0755 13.1898 13.1621 13.2114 13.2487 13.2259V14.0055C13.2487 14.1643 13.3029 14.269 13.4111 14.3195C13.5194 14.3701 13.6385 14.3953 13.7685 14.3953C13.9129 14.3953 14.0284 14.3917 14.115 14.3845C14.2016 14.3773 14.2521 14.2943 14.2666 14.1354V13.4424C14.3677 13.4569 14.5265 13.4749 14.743 13.4966C14.9596 13.5182 15.1617 13.5363 15.3494 13.5507H15.7826V14.482C15.797 14.6119 15.8512 14.6877 15.945 14.7093C16.0388 14.731 16.1435 14.7418 16.259 14.7418C16.4178 14.7563 16.5658 14.7491 16.703 14.7202C16.8402 14.6913 16.9087 14.5975 16.9087 14.4386V13.9189V13.6373C16.9954 13.6229 17.0892 13.6085 17.1903 13.594C17.2769 13.5796 17.3671 13.5724 17.461 13.5724C17.5548 13.5724 17.6451 13.5651 17.7317 13.5507C17.9194 13.5363 18.0565 13.5146 18.1432 13.4857C18.2009 13.4713 18.237 13.4569 18.2515 13.4424V14.2221C18.2515 14.3376 18.2948 14.4098 18.3814 14.4386C18.468 14.4675 18.5908 14.482 18.7496 14.482C18.9373 14.4675 19.06 14.435 19.1177 14.3845C19.1755 14.334 19.2044 14.2726 19.2044 14.2004V13.2908C19.2766 13.2908 19.3632 13.2764 19.4642 13.2475C19.5364 13.2186 19.6267 13.1898 19.735 13.1609C19.8432 13.132 19.9551 13.0959 20.0706 13.0526Z" fill="#FF4DA3"/>
</g>
</svg>
