<svg width="28" height="28" viewBox="0 0 28 28" fill="none" xmlns="http://www.w3.org/2000/svg">
<rect x="2.3335" y="4.15405" width="21.7778" height="17.6927" fill="white"/>
<path d="M17.3087 13.5221L12.4929 10.3466C12.2303 10.1734 11.8789 10.3596 11.8789 10.6714V17.0217C11.8789 17.3339 12.2303 17.52 12.4929 17.3469L17.3087 14.1713C17.543 14.0172 17.543 13.6765 17.3087 13.5221Z" fill="#FF0000"/>
<path d="M24.2667 0H3.73333C1.67144 0 0 1.65311 0 3.69239V24.0005C0 26.0398 1.67144 27.6929 3.73333 27.6929H24.2667C26.3286 27.6929 28 26.0398 28 24.0005V3.69239C28 1.65311 26.3286 0 24.2667 0ZM22.9143 18.2775C22.7282 19.2172 21.9369 19.9335 20.9596 20.068C19.4234 20.2909 16.8628 20.5597 13.977 20.5597C11.1375 20.5597 8.57702 20.2909 6.99424 20.068C6.01642 19.9335 5.22496 19.2173 5.03922 18.2775C4.85302 17.2479 4.66667 15.7263 4.66667 13.8465C4.66667 11.9667 4.85287 10.445 5.03891 9.41559C5.22527 8.47588 6.01642 7.75955 6.99409 7.62509C8.53036 7.4017 11.0906 7.13308 13.9767 7.13308C16.8627 7.13308 19.3762 7.4017 20.9592 7.62509C21.9368 7.75955 22.7284 8.47588 22.914 9.41559C23.1005 10.445 23.3333 11.9667 23.3333 13.8465C23.2871 15.7263 23.1006 17.2479 22.9143 18.2775Z" fill="#FF0000"/>
</svg>
